<svg viewBox="-16 -32 880 192" width="880" height="192" xmlns="http://www.w3.org/2000/svg"><desc>Generated with https://github.com/Platane/snk</desc><style>@keyframes c0{1.1%{fill:var(--c1)}1.12%,to{fill:var(--ce)}}@keyframes c1{1.84%{fill:var(--c1)}1.86%,to{fill:var(--ce)}}@keyframes c2{2.2%{fill:var(--c1)}2.22%,to{fill:var(--ce)}}@keyframes c3{63.09%{fill:var(--c2)}63.11%,to{fill:var(--ce)}}@keyframes c4{3.68%{fill:var(--c1)}3.7%,to{fill:var(--ce)}}@keyframes c5{4.05%{fill:var(--c1)}4.07%,to{fill:var(--ce)}}@keyframes c6{62.35%{fill:var(--c2)}62.37%,to{fill:var(--ce)}}@keyframes c7{5.89%{fill:var(--c1)}5.91%,to{fill:var(--ce)}}@keyframes c8{95.19%{fill:var(--c4)}95.21%,to{fill:var(--ce)}}@keyframes c9{61.61%{fill:var(--c2)}61.63%,to{fill:var(--ce)}}@keyframes ca{8.48%{fill:var(--c1)}8.5%,to{fill:var(--ce)}}@keyframes cb{59.77%{fill:var(--c2)}59.79%,to{fill:var(--ce)}}@keyframes cc{65.3%{fill:var(--c3)}65.32%,to{fill:var(--ce)}}@keyframes cd{68.62%{fill:var(--c3)}68.64%,to{fill:var(--ce)}}@keyframes ce{68.99%{fill:var(--c3)}69.01%,to{fill:var(--ce)}}@keyframes cf{92.24%{fill:var(--c4)}92.26%,to{fill:var(--ce)}}@keyframes cg{67.15%{fill:var(--c3)}67.17%,to{fill:var(--ce)}}@keyframes ch{12.91%{fill:var(--c1)}12.93%,to{fill:var(--ce)}}@keyframes ci{57.19%{fill:var(--c2)}57.21%,to{fill:var(--ce)}}@keyframes cj{13.27%{fill:var(--c1)}13.29%,to{fill:var(--ce)}}@keyframes ck{55.71%{fill:var(--c2)}55.73%,to{fill:var(--ce)}}@keyframes cl{15.49%{fill:var(--c1)}15.51%,to{fill:var(--ce)}}@keyframes cm{20.29%{fill:var(--c1)}20.31%,to{fill:var(--ce)}}@keyframes cn{51.65%{fill:var(--c2)}51.67%,to{fill:var(--ce)}}@keyframes co{18.81%{fill:var(--c1)}18.83%,to{fill:var(--ce)}}@keyframes cp{22.87%{fill:var(--c1)}22.89%,to{fill:var(--ce)}}@keyframes cq{23.24%{fill:var(--c1)}23.26%,to{fill:var(--ce)}}@keyframes cr{28.4%{fill:var(--c1)}28.42%,to{fill:var(--ce)}}@keyframes cs{28.77%{fill:var(--c1)}28.79%,to{fill:var(--ce)}}@keyframes ct{80.8%{fill:var(--c3)}80.82%,to{fill:var(--ce)}}@keyframes cu{41.32%{fill:var(--c2)}41.34%,to{fill:var(--ce)}}@keyframes cv{32.83%{fill:var(--c1)}32.85%,to{fill:var(--ce)}}@keyframes cw{32.46%{fill:var(--c1)}32.48%,to{fill:var(--ce)}}@keyframes cx{31.72%{fill:var(--c1)}31.74%,to{fill:var(--ce)}}@keyframes cy{30.62%{fill:var(--c1)}30.64%,to{fill:var(--ce)}}@keyframes cz{44.64%{fill:var(--c2)}44.66%,to{fill:var(--ce)}}@keyframes c10{33.2%{fill:var(--c1)}33.22%,to{fill:var(--ce)}}@keyframes c11{30.99%{fill:var(--c1)}31.01%,to{fill:var(--ce)}}@keyframes c12{39.47%{fill:var(--c2)}39.49%,to{fill:var(--ce)}}@keyframes c13{35.41%{fill:var(--c1)}35.43%,to{fill:var(--ce)}}@keyframes c14{35.78%{fill:var(--c1)}35.8%,to{fill:var(--ce)}}@keyframes c15{36.89%{fill:var(--c1)}36.91%,to{fill:var(--ce)}}@keyframes u0{1.1%{transform:scale(0,1)}1.12%,1.84%{transform:scale(.04,1)}1.86%,2.2%{transform:scale(.08,1)}2.22%,3.68%{transform:scale(.12,1)}3.7%,4.05%{transform:scale(.16,1)}4.07%,5.89%{transform:scale(.2,1)}5.91%,8.48%{transform:scale(.24,1)}12.91%,8.5%{transform:scale(.28,1)}12.93%,13.27%{transform:scale(.32,1)}13.29%,15.49%{transform:scale(.36,1)}15.51%,18.81%{transform:scale(.4,1)}18.83%,20.29%{transform:scale(.44,1)}20.31%,22.87%{transform:scale(.48,1)}22.89%,23.24%{transform:scale(.52,1)}23.26%,28.4%{transform:scale(.56,1)}28.42%,28.77%{transform:scale(.6,1)}28.79%,30.62%{transform:scale(.64,1)}30.64%,30.99%{transform:scale(.68,1)}31.01%,31.72%{transform:scale(.72,1)}31.74%,32.46%{transform:scale(.76,1)}32.48%,32.83%{transform:scale(.8,1)}32.85%,33.2%{transform:scale(.84,1)}33.22%,35.41%{transform:scale(.88,1)}35.43%,35.78%{transform:scale(.92,1)}35.8%,36.89%{transform:scale(.96,1)}36.91%,to{transform:scale(1,1)}}@keyframes u1{39.47%{transform:scale(0,1)}39.49%,41.32%{transform:scale(.1,1)}41.34%,44.64%{transform:scale(.2,1)}44.66%,51.65%{transform:scale(.3,1)}51.67%,55.71%{transform:scale(.4,1)}55.73%,57.19%{transform:scale(.5,1)}57.21%,59.77%{transform:scale(.6,1)}59.79%,61.61%{transform:scale(.7,1)}61.63%,62.35%{transform:scale(.8,1)}62.37%,63.09%{transform:scale(.9,1)}63.11%,to{transform:scale(1,1)}}@keyframes u2{65.3%{transform:scale(0,1)}65.32%,67.15%{transform:scale(.2,1)}67.17%,68.62%{transform:scale(.4,1)}68.64%,68.99%{transform:scale(.6,1)}69.01%,80.8%{transform:scale(.8,1)}80.82%,to{transform:scale(1,1)}}@keyframes u3{92.24%{transform:scale(0,1)}92.26%,95.19%{transform:scale(.5,1)}95.21%,to{transform:scale(1,1)}}@keyframes s0{0%,99.63%{transform:translate(0,-16px)}.37%{transform:translate(0,0)}1.48%{transform:translate(48px,0)}2.21%{transform:translate(48px,32px)}3.69%{transform:translate(112px,32px)}4.06%{transform:translate(112px,48px)}4.43%,95.94%{transform:translate(96px,48px)}4.8%{transform:translate(96px,32px)}5.54%{transform:translate(128px,32px)}5.9%,94.46%{transform:translate(128px,16px)}6.27%{transform:translate(144px,16px)}7.75%{transform:translate(144px,80px)}8.12%{transform:translate(128px,80px)}8.49%{transform:translate(128px,96px)}60.15%,9.23%{transform:translate(160px,96px)}9.59%{transform:translate(160px,80px)}10.7%{transform:translate(208px,80px)}11.81%,67.9%{transform:translate(208px,32px)}12.55%,56.83%{transform:translate(240px,32px)}12.92%{transform:translate(240px,16px)}14.76%{transform:translate(320px,16px)}15.5%{transform:translate(320px,48px)}18.45%{transform:translate(448px,48px)}18.82%,21.77%{transform:translate(448px,32px)}19.19%{transform:translate(464px,32px)}19.93%{transform:translate(464px,0)}20.66%{transform:translate(432px,0)}21.4%{transform:translate(432px,32px)}23.25%{transform:translate(448px,96px)}27.68%{transform:translate(640px,96px)}28.41%{transform:translate(640px,64px)}29.15%,41.7%{transform:translate(672px,64px)}29.52%{transform:translate(672px,80px)}31%,39.11%{transform:translate(736px,80px)}31.37%{transform:translate(736px,64px)}31.73%,40.59%{transform:translate(720px,64px)}32.84%{transform:translate(720px,16px)}34.69%{transform:translate(800px,16px)}35.79%{transform:translate(800px,64px)}36.53%{transform:translate(832px,64px)}36.9%{transform:translate(832px,80px)}39.48%{transform:translate(736px,96px)}39.85%{transform:translate(720px,96px)}42.44%{transform:translate(672px,32px)}43.91%{transform:translate(736px,32px)}44.65%{transform:translate(736px,0)}51.29%{transform:translate(448px,0)}51.66%{transform:translate(448px,16px)}55.35%{transform:translate(288px,16px)}55.72%{transform:translate(288px,32px)}57.56%{transform:translate(240px,64px)}59.04%{transform:translate(176px,64px)}59.78%{transform:translate(176px,96px)}60.89%{transform:translate(160px,64px)}61.99%{transform:translate(112px,64px)}62.36%{transform:translate(112px,80px)}62.73%{transform:translate(96px,80px)}63.1%{transform:translate(96px,96px)}66.05%{transform:translate(224px,96px)}67.53%{transform:translate(224px,32px)}68.63%{transform:translate(208px,0)}79.7%{transform:translate(688px,0)}80.81%{transform:translate(688px,48px)}81.18%{transform:translate(672px,48px)}81.92%{transform:translate(672px,16px)}95.2%{transform:translate(128px,48px)}96.68%{transform:translate(96px,16px)}97.42%{transform:translate(64px,16px)}98.15%{transform:translate(64px,-16px)}}@keyframes s1{0%,99.63%{transform:translate(16px,-16px)}.37%{transform:translate(0,-16px)}.74%{transform:translate(0,0)}1.85%{transform:translate(48px,0)}2.58%{transform:translate(48px,32px)}4.06%{transform:translate(112px,32px)}4.43%{transform:translate(112px,48px)}4.8%,96.31%{transform:translate(96px,48px)}5.17%{transform:translate(96px,32px)}5.9%{transform:translate(128px,32px)}6.27%,94.83%{transform:translate(128px,16px)}6.64%{transform:translate(144px,16px)}8.12%{transform:translate(144px,80px)}8.49%{transform:translate(128px,80px)}8.86%{transform:translate(128px,96px)}60.52%,9.59%{transform:translate(160px,96px)}9.96%{transform:translate(160px,80px)}11.07%{transform:translate(208px,80px)}12.18%,68.27%{transform:translate(208px,32px)}12.92%,57.2%{transform:translate(240px,32px)}13.28%{transform:translate(240px,16px)}15.13%{transform:translate(320px,16px)}15.87%{transform:translate(320px,48px)}18.82%{transform:translate(448px,48px)}19.19%,22.14%{transform:translate(448px,32px)}19.56%{transform:translate(464px,32px)}20.3%{transform:translate(464px,0)}21.03%{transform:translate(432px,0)}21.77%{transform:translate(432px,32px)}23.62%{transform:translate(448px,96px)}28.04%{transform:translate(640px,96px)}28.78%{transform:translate(640px,64px)}29.52%,42.07%{transform:translate(672px,64px)}29.89%{transform:translate(672px,80px)}31.37%,39.48%{transform:translate(736px,80px)}31.73%{transform:translate(736px,64px)}32.1%,40.96%{transform:translate(720px,64px)}33.21%{transform:translate(720px,16px)}35.06%{transform:translate(800px,16px)}36.16%{transform:translate(800px,64px)}36.9%{transform:translate(832px,64px)}37.27%{transform:translate(832px,80px)}39.85%{transform:translate(736px,96px)}40.22%{transform:translate(720px,96px)}42.8%{transform:translate(672px,32px)}44.28%{transform:translate(736px,32px)}45.02%{transform:translate(736px,0)}51.66%{transform:translate(448px,0)}52.03%{transform:translate(448px,16px)}55.72%{transform:translate(288px,16px)}56.09%{transform:translate(288px,32px)}57.93%{transform:translate(240px,64px)}59.41%{transform:translate(176px,64px)}60.15%{transform:translate(176px,96px)}61.25%{transform:translate(160px,64px)}62.36%{transform:translate(112px,64px)}62.73%{transform:translate(112px,80px)}63.1%{transform:translate(96px,80px)}63.47%{transform:translate(96px,96px)}66.42%{transform:translate(224px,96px)}67.9%{transform:translate(224px,32px)}69%{transform:translate(208px,0)}80.07%{transform:translate(688px,0)}81.18%{transform:translate(688px,48px)}81.55%{transform:translate(672px,48px)}82.29%{transform:translate(672px,16px)}95.57%{transform:translate(128px,48px)}97.05%{transform:translate(96px,16px)}97.79%{transform:translate(64px,16px)}98.52%{transform:translate(64px,-16px)}}@keyframes s2{0%,99.63%{transform:translate(32px,-16px)}.74%{transform:translate(0,-16px)}1.11%{transform:translate(0,0)}2.21%{transform:translate(48px,0)}2.95%{transform:translate(48px,32px)}4.43%{transform:translate(112px,32px)}4.8%{transform:translate(112px,48px)}5.17%,96.68%{transform:translate(96px,48px)}5.54%{transform:translate(96px,32px)}6.27%{transform:translate(128px,32px)}6.64%,95.2%{transform:translate(128px,16px)}7.01%{transform:translate(144px,16px)}8.49%{transform:translate(144px,80px)}8.86%{transform:translate(128px,80px)}9.23%{transform:translate(128px,96px)}60.89%,9.96%{transform:translate(160px,96px)}10.33%{transform:translate(160px,80px)}11.44%{transform:translate(208px,80px)}12.55%,68.63%{transform:translate(208px,32px)}13.28%,57.56%{transform:translate(240px,32px)}13.65%{transform:translate(240px,16px)}15.5%{transform:translate(320px,16px)}16.24%{transform:translate(320px,48px)}19.19%{transform:translate(448px,48px)}19.56%,22.51%{transform:translate(448px,32px)}19.93%{transform:translate(464px,32px)}20.66%{transform:translate(464px,0)}21.4%{transform:translate(432px,0)}22.14%{transform:translate(432px,32px)}23.99%{transform:translate(448px,96px)}28.41%{transform:translate(640px,96px)}29.15%{transform:translate(640px,64px)}29.89%,42.44%{transform:translate(672px,64px)}30.26%{transform:translate(672px,80px)}31.73%,39.85%{transform:translate(736px,80px)}32.1%{transform:translate(736px,64px)}32.47%,41.33%{transform:translate(720px,64px)}33.58%{transform:translate(720px,16px)}35.42%{transform:translate(800px,16px)}36.53%{transform:translate(800px,64px)}37.27%{transform:translate(832px,64px)}37.64%{transform:translate(832px,80px)}40.22%{transform:translate(736px,96px)}40.59%{transform:translate(720px,96px)}43.17%{transform:translate(672px,32px)}44.65%{transform:translate(736px,32px)}45.39%{transform:translate(736px,0)}52.03%{transform:translate(448px,0)}52.4%{transform:translate(448px,16px)}56.09%{transform:translate(288px,16px)}56.46%{transform:translate(288px,32px)}58.3%{transform:translate(240px,64px)}59.78%{transform:translate(176px,64px)}60.52%{transform:translate(176px,96px)}61.62%{transform:translate(160px,64px)}62.73%{transform:translate(112px,64px)}63.1%{transform:translate(112px,80px)}63.47%{transform:translate(96px,80px)}63.84%{transform:translate(96px,96px)}66.79%{transform:translate(224px,96px)}68.27%{transform:translate(224px,32px)}69.37%{transform:translate(208px,0)}80.44%{transform:translate(688px,0)}81.55%{transform:translate(688px,48px)}81.92%{transform:translate(672px,48px)}82.66%{transform:translate(672px,16px)}95.94%{transform:translate(128px,48px)}97.42%{transform:translate(96px,16px)}98.15%{transform:translate(64px,16px)}98.89%{transform:translate(64px,-16px)}}@keyframes s3{0%,99.63%{transform:translate(48px,-16px)}1.11%{transform:translate(0,-16px)}1.48%{transform:translate(0,0)}2.58%{transform:translate(48px,0)}3.32%{transform:translate(48px,32px)}4.8%{transform:translate(112px,32px)}5.17%{transform:translate(112px,48px)}5.54%,97.05%{transform:translate(96px,48px)}5.9%{transform:translate(96px,32px)}6.64%{transform:translate(128px,32px)}7.01%,95.57%{transform:translate(128px,16px)}7.38%{transform:translate(144px,16px)}8.86%{transform:translate(144px,80px)}9.23%{transform:translate(128px,80px)}9.59%{transform:translate(128px,96px)}10.33%,61.25%{transform:translate(160px,96px)}10.7%{transform:translate(160px,80px)}11.81%{transform:translate(208px,80px)}12.92%,69%{transform:translate(208px,32px)}13.65%,57.93%{transform:translate(240px,32px)}14.02%{transform:translate(240px,16px)}15.87%{transform:translate(320px,16px)}16.61%{transform:translate(320px,48px)}19.56%{transform:translate(448px,48px)}19.93%,22.88%{transform:translate(448px,32px)}20.3%{transform:translate(464px,32px)}21.03%{transform:translate(464px,0)}21.77%{transform:translate(432px,0)}22.51%{transform:translate(432px,32px)}24.35%{transform:translate(448px,96px)}28.78%{transform:translate(640px,96px)}29.52%{transform:translate(640px,64px)}30.26%,42.8%{transform:translate(672px,64px)}30.63%{transform:translate(672px,80px)}32.1%,40.22%{transform:translate(736px,80px)}32.47%{transform:translate(736px,64px)}32.84%,41.7%{transform:translate(720px,64px)}33.95%{transform:translate(720px,16px)}35.79%{transform:translate(800px,16px)}36.9%{transform:translate(800px,64px)}37.64%{transform:translate(832px,64px)}38.01%{transform:translate(832px,80px)}40.59%{transform:translate(736px,96px)}40.96%{transform:translate(720px,96px)}43.54%{transform:translate(672px,32px)}45.02%{transform:translate(736px,32px)}45.76%{transform:translate(736px,0)}52.4%{transform:translate(448px,0)}52.77%{transform:translate(448px,16px)}56.46%{transform:translate(288px,16px)}56.83%{transform:translate(288px,32px)}58.67%{transform:translate(240px,64px)}60.15%{transform:translate(176px,64px)}60.89%{transform:translate(176px,96px)}61.99%{transform:translate(160px,64px)}63.1%{transform:translate(112px,64px)}63.47%{transform:translate(112px,80px)}63.84%{transform:translate(96px,80px)}64.21%{transform:translate(96px,96px)}67.16%{transform:translate(224px,96px)}68.63%{transform:translate(224px,32px)}69.74%{transform:translate(208px,0)}80.81%{transform:translate(688px,0)}81.92%{transform:translate(688px,48px)}82.29%{transform:translate(672px,48px)}83.03%{transform:translate(672px,16px)}96.31%{transform:translate(128px,48px)}97.79%{transform:translate(96px,16px)}98.52%{transform:translate(64px,16px)}99.26%{transform:translate(64px,-16px)}}:root{--cb:#1b1f230a;--cs:purple;--ce:#ebedf0;--c0:#ebedf0;--c1:#9be9a8;--c2:#40c463;--c3:#30a14e;--c4:#216e39}@media (prefers-color-scheme:dark){:root{--cb:#1b1f230a;--cs:purple;--ce:#161b22;--c1:#01311f;--c2:#034525;--c3:#0f6d31;--c4:#00c647}}.c{shape-rendering:geometricPrecision;fill:var(--ce);stroke-width:1px;stroke:var(--cb);animation:none 27100ms linear infinite}.c.c0,.c.c1,.c.c2{fill:var(--c1);animation-name:c0}.c.c1,.c.c2{animation-name:c1}.c.c2{animation-name:c2}.c.c3{fill:var(--c2);animation-name:c3}.c.c4,.c.c5{fill:var(--c1);animation-name:c4}.c.c5{animation-name:c5}.c.c6{fill:var(--c2);animation-name:c6}.c.c7{fill:var(--c1);animation-name:c7}.c.c8{fill:var(--c4);animation-name:c8}.c.c9{fill:var(--c2);animation-name:c9}.c.ca{fill:var(--c1);animation-name:ca}.c.cb{fill:var(--c2);animation-name:cb}.c.cc,.c.cd,.c.ce{fill:var(--c3);animation-name:cc}.c.cd,.c.ce{animation-name:cd}.c.ce{animation-name:ce}.c.cf{fill:var(--c4);animation-name:cf}.c.cg{fill:var(--c3);animation-name:cg}.c.ch{fill:var(--c1);animation-name:ch}.c.ci{fill:var(--c2);animation-name:ci}.c.cj{fill:var(--c1);animation-name:cj}.c.ck{fill:var(--c2);animation-name:ck}.c.cl,.c.cm{fill:var(--c1);animation-name:cl}.c.cm{animation-name:cm}.c.cn{fill:var(--c2);animation-name:cn}.c.co,.c.cp{fill:var(--c1);animation-name:co}.c.cp{animation-name:cp}.c.cq,.c.cr,.c.cs{fill:var(--c1);animation-name:cq}.c.cr,.c.cs{animation-name:cr}.c.cs{animation-name:cs}.c.ct{fill:var(--c3);animation-name:ct}.c.cu{fill:var(--c2);animation-name:cu}.c.cv{fill:var(--c1);animation-name:cv}.c.cw,.c.cx,.c.cy{fill:var(--c1);animation-name:cw}.c.cx,.c.cy{animation-name:cx}.c.cy{animation-name:cy}.c.cz{fill:var(--c2);animation-name:cz}.c.c10,.c.c11{fill:var(--c1);animation-name:c10}.c.c11{animation-name:c11}.c.c12{fill:var(--c2);animation-name:c12}.c.c13,.c.c14,.c.c15{fill:var(--c1);animation-name:c13}.c.c14,.c.c15{animation-name:c14}.c.c15{animation-name:c15}.s,.u{animation:none linear 27100ms infinite}.u,.u.u0{transform-origin:0 0}.u{transform:scale(0,1)}.u.u0{fill:var(--c1);animation-name:u0}.u.u1{fill:var(--c2);animation-name:u1;transform-origin:504.8px 0}.u.u2{fill:var(--c3);animation-name:u2;transform-origin:706.7px 0}.u.u3{fill:var(--c4);animation-name:u3;transform-origin:807.6px 0}.s{shape-rendering:geometricPrecision;fill:var(--cs)}.s.s0{transform:translate(0,-16px);animation-name:s0}.s.s1{transform:translate(16px,-16px);animation-name:s1}.s.s2{transform:translate(32px,-16px);animation-name:s2}.s.s3{transform:translate(48px,-16px);animation-name:s3}</style><rect class="c" x="2" y="2" rx="2" ry="2" width="12" height="12"/><rect class="c" x="2" y="18" rx="2" ry="2" width="12" height="12"/><rect class="c" x="2" y="34" rx="2" ry="2" width="12" height="12"/><rect class="c" x="2" y="50" rx="2" ry="2" width="12" height="12"/><rect class="c" x="2" y="66" rx="2" ry="2" width="12" height="12"/><rect class="c" x="2" y="82" rx="2" ry="2" width="12" height="12"/><rect class="c" x="2" y="98" rx="2" ry="2" width="12" height="12"/><rect class="c" x="18" y="2" rx="2" ry="2" width="12" height="12"/><rect class="c" x="18" y="18" rx="2" ry="2" width="12" height="12"/><rect class="c" x="18" y="34" rx="2" ry="2" width="12" height="12"/><rect class="c" x="18" y="50" rx="2" ry="2" width="12" height="12"/><rect class="c" x="18" y="66" rx="2" ry="2" width="12" height="12"/><rect class="c" x="18" y="82" rx="2" ry="2" width="12" height="12"/><rect class="c" x="18" y="98" rx="2" ry="2" width="12" height="12"/><rect class="c c0" x="34" y="2" rx="2" ry="2" width="12" height="12"/><rect class="c" x="34" y="18" rx="2" ry="2" width="12" height="12"/><rect class="c" x="34" y="34" rx="2" ry="2" width="12" height="12"/><rect class="c" x="34" y="50" rx="2" ry="2" width="12" height="12"/><rect class="c" x="34" y="66" rx="2" ry="2" width="12" height="12"/><rect class="c" x="34" y="82" rx="2" ry="2" width="12" height="12"/><rect class="c" x="34" y="98" rx="2" ry="2" width="12" height="12"/><rect class="c" x="50" y="2" rx="2" ry="2" width="12" height="12"/><rect class="c c1" x="50" y="18" rx="2" ry="2" width="12" height="12"/><rect class="c c2" x="50" y="34" rx="2" ry="2" width="12" height="12"/><rect class="c" x="50" y="50" rx="2" ry="2" width="12" height="12"/><rect class="c" x="50" y="66" rx="2" ry="2" width="12" height="12"/><rect class="c" x="50" y="82" rx="2" ry="2" width="12" height="12"/><rect class="c" x="50" y="98" rx="2" ry="2" width="12" height="12"/><rect class="c" x="66" y="2" rx="2" ry="2" width="12" height="12"/><rect class="c" x="66" y="18" rx="2" ry="2" width="12" height="12"/><rect class="c" x="66" y="34" rx="2" ry="2" width="12" height="12"/><rect class="c" x="66" y="50" rx="2" ry="2" width="12" height="12"/><rect class="c" x="66" y="66" rx="2" ry="2" width="12" height="12"/><rect class="c" x="66" y="82" rx="2" ry="2" width="12" height="12"/><rect class="c" x="66" y="98" rx="2" ry="2" width="12" height="12"/><rect class="c" x="82" y="2" rx="2" ry="2" width="12" height="12"/><rect class="c" x="82" y="18" rx="2" ry="2" width="12" height="12"/><rect class="c" x="82" y="34" rx="2" ry="2" width="12" height="12"/><rect class="c" x="82" y="50" rx="2" ry="2" width="12" height="12"/><rect class="c" x="82" y="66" rx="2" ry="2" width="12" height="12"/><rect class="c" x="82" y="82" rx="2" ry="2" width="12" height="12"/><rect class="c" x="82" y="98" rx="2" ry="2" width="12" height="12"/><rect class="c" x="98" y="2" rx="2" ry="2" width="12" height="12"/><rect class="c" x="98" y="18" rx="2" ry="2" width="12" height="12"/><rect class="c" x="98" y="34" rx="2" ry="2" width="12" height="12"/><rect class="c" x="98" y="50" rx="2" ry="2" width="12" height="12"/><rect class="c" x="98" y="66" rx="2" ry="2" width="12" height="12"/><rect class="c" x="98" y="82" rx="2" ry="2" width="12" height="12"/><rect class="c c3" x="98" y="98" rx="2" ry="2" width="12" height="12"/><rect class="c" x="114" y="2" rx="2" ry="2" width="12" height="12"/><rect class="c" x="114" y="18" rx="2" ry="2" width="12" height="12"/><rect class="c c4" x="114" y="34" rx="2" ry="2" width="12" height="12"/><rect class="c c5" x="114" y="50" rx="2" ry="2" width="12" height="12"/><rect class="c" x="114" y="66" rx="2" ry="2" width="12" height="12"/><rect class="c c6" x="114" y="82" rx="2" ry="2" width="12" height="12"/><rect class="c" x="114" y="98" rx="2" ry="2" width="12" height="12"/><rect class="c" x="130" y="2" rx="2" ry="2" width="12" height="12"/><rect class="c c7" x="130" y="18" rx="2" ry="2" width="12" height="12"/><rect class="c" x="130" y="34" rx="2" ry="2" width="12" height="12"/><rect class="c c8" x="130" y="50" rx="2" ry="2" width="12" height="12"/><rect class="c c9" x="130" y="66" rx="2" ry="2" width="12" height="12"/><rect class="c" x="130" y="82" rx="2" ry="2" width="12" height="12"/><rect class="c ca" x="130" y="98" rx="2" ry="2" width="12" height="12"/><rect class="c" x="146" y="2" rx="2" ry="2" width="12" height="12"/><rect class="c" x="146" y="18" rx="2" ry="2" width="12" height="12"/><rect class="c" x="146" y="34" rx="2" ry="2" width="12" height="12"/><rect class="c" x="146" y="50" rx="2" ry="2" width="12" height="12"/><rect class="c" x="146" y="66" rx="2" ry="2" width="12" height="12"/><rect class="c" x="146" y="82" rx="2" ry="2" width="12" height="12"/><rect class="c" x="146" y="98" rx="2" ry="2" width="12" height="12"/><rect class="c" x="162" y="2" rx="2" ry="2" width="12" height="12"/><rect class="c" x="162" y="18" rx="2" ry="2" width="12" height="12"/><rect class="c" x="162" y="34" rx="2" ry="2" width="12" height="12"/><rect class="c" x="162" y="50" rx="2" ry="2" width="12" height="12"/><rect class="c" x="162" y="66" rx="2" ry="2" width="12" height="12"/><rect class="c" x="162" y="82" rx="2" ry="2" width="12" height="12"/><rect class="c" x="162" y="98" rx="2" ry="2" width="12" height="12"/><rect class="c" x="178" y="2" rx="2" ry="2" width="12" height="12"/><rect class="c" x="178" y="18" rx="2" ry="2" width="12" height="12"/><rect class="c" x="178" y="34" rx="2" ry="2" width="12" height="12"/><rect class="c" x="178" y="50" rx="2" ry="2" width="12" height="12"/><rect class="c" x="178" y="66" rx="2" ry="2" width="12" height="12"/><rect class="c" x="178" y="82" rx="2" ry="2" width="12" height="12"/><rect class="c cb" x="178" y="98" rx="2" ry="2" width="12" height="12"/><rect class="c" x="194" y="2" rx="2" ry="2" width="12" height="12"/><rect class="c" x="194" y="18" rx="2" ry="2" width="12" height="12"/><rect class="c" x="194" y="34" rx="2" ry="2" width="12" height="12"/><rect class="c" x="194" y="50" rx="2" ry="2" width="12" height="12"/><rect class="c" x="194" y="66" rx="2" ry="2" width="12" height="12"/><rect class="c" x="194" y="82" rx="2" ry="2" width="12" height="12"/><rect class="c cc" x="194" y="98" rx="2" ry="2" width="12" height="12"/><rect class="c cd" x="210" y="2" rx="2" ry="2" width="12" height="12"/><rect class="c" x="210" y="18" rx="2" ry="2" width="12" height="12"/><rect class="c" x="210" y="34" rx="2" ry="2" width="12" height="12"/><rect class="c" x="210" y="50" rx="2" ry="2" width="12" height="12"/><rect class="c" x="210" y="66" rx="2" ry="2" width="12" height="12"/><rect class="c" x="210" y="82" rx="2" ry="2" width="12" height="12"/><rect class="c" x="210" y="98" rx="2" ry="2" width="12" height="12"/><rect class="c ce" x="226" y="2" rx="2" ry="2" width="12" height="12"/><rect class="c cf" x="226" y="18" rx="2" ry="2" width="12" height="12"/><rect class="c" x="226" y="34" rx="2" ry="2" width="12" height="12"/><rect class="c cg" x="226" y="50" rx="2" ry="2" width="12" height="12"/><rect class="c" x="226" y="66" rx="2" ry="2" width="12" height="12"/><rect class="c" x="226" y="82" rx="2" ry="2" width="12" height="12"/><rect class="c" x="226" y="98" rx="2" ry="2" width="12" height="12"/><rect class="c" x="242" y="2" rx="2" ry="2" width="12" height="12"/><rect class="c ch" x="242" y="18" rx="2" ry="2" width="12" height="12"/><rect class="c" x="242" y="34" rx="2" ry="2" width="12" height="12"/><rect class="c ci" x="242" y="50" rx="2" ry="2" width="12" height="12"/><rect class="c" x="242" y="66" rx="2" ry="2" width="12" height="12"/><rect class="c" x="242" y="82" rx="2" ry="2" width="12" height="12"/><rect class="c" x="242" y="98" rx="2" ry="2" width="12" height="12"/><rect class="c" x="258" y="2" rx="2" ry="2" width="12" height="12"/><rect class="c cj" x="258" y="18" rx="2" ry="2" width="12" height="12"/><rect class="c" x="258" y="34" rx="2" ry="2" width="12" height="12"/><rect class="c" x="258" y="50" rx="2" ry="2" width="12" height="12"/><rect class="c" x="258" y="66" rx="2" ry="2" width="12" height="12"/><rect class="c" x="258" y="82" rx="2" ry="2" width="12" height="12"/><rect class="c" x="258" y="98" rx="2" ry="2" width="12" height="12"/><rect class="c" x="274" y="2" rx="2" ry="2" width="12" height="12"/><rect class="c" x="274" y="18" rx="2" ry="2" width="12" height="12"/><rect class="c" x="274" y="34" rx="2" ry="2" width="12" height="12"/><rect class="c" x="274" y="50" rx="2" ry="2" width="12" height="12"/><rect class="c" x="274" y="66" rx="2" ry="2" width="12" height="12"/><rect class="c" x="274" y="82" rx="2" ry="2" width="12" height="12"/><rect class="c" x="274" y="98" rx="2" ry="2" width="12" height="12"/><rect class="c" x="290" y="2" rx="2" ry="2" width="12" height="12"/><rect class="c" x="290" y="18" rx="2" ry="2" width="12" height="12"/><rect class="c ck" x="290" y="34" rx="2" ry="2" width="12" height="12"/><rect class="c" x="290" y="50" rx="2" ry="2" width="12" height="12"/><rect class="c" x="290" y="66" rx="2" ry="2" width="12" height="12"/><rect class="c" x="290" y="82" rx="2" ry="2" width="12" height="12"/><rect class="c" x="290" y="98" rx="2" ry="2" width="12" height="12"/><rect class="c" x="306" y="2" rx="2" ry="2" width="12" height="12"/><rect class="c" x="306" y="18" rx="2" ry="2" width="12" height="12"/><rect class="c" x="306" y="34" rx="2" ry="2" width="12" height="12"/><rect class="c" x="306" y="50" rx="2" ry="2" width="12" height="12"/><rect class="c" x="306" y="66" rx="2" ry="2" width="12" height="12"/><rect class="c" x="306" y="82" rx="2" ry="2" width="12" height="12"/><rect class="c" x="306" y="98" rx="2" ry="2" width="12" height="12"/><rect class="c" x="322" y="2" rx="2" ry="2" width="12" height="12"/><rect class="c" x="322" y="18" rx="2" ry="2" width="12" height="12"/><rect class="c" x="322" y="34" rx="2" ry="2" width="12" height="12"/><rect class="c cl" x="322" y="50" rx="2" ry="2" width="12" height="12"/><rect class="c" x="322" y="66" rx="2" ry="2" width="12" height="12"/><rect class="c" x="322" y="82" rx="2" ry="2" width="12" height="12"/><rect class="c" x="322" y="98" rx="2" ry="2" width="12" height="12"/><rect class="c" x="338" y="2" rx="2" ry="2" width="12" height="12"/><rect class="c" x="338" y="18" rx="2" ry="2" width="12" height="12"/><rect class="c" x="338" y="34" rx="2" ry="2" width="12" height="12"/><rect class="c" x="338" y="50" rx="2" ry="2" width="12" height="12"/><rect class="c" x="338" y="66" rx="2" ry="2" width="12" height="12"/><rect class="c" x="338" y="82" rx="2" ry="2" width="12" height="12"/><rect class="c" x="338" y="98" rx="2" ry="2" width="12" height="12"/><rect class="c" x="354" y="2" rx="2" ry="2" width="12" height="12"/><rect class="c" x="354" y="18" rx="2" ry="2" width="12" height="12"/><rect class="c" x="354" y="34" rx="2" ry="2" width="12" height="12"/><rect class="c" x="354" y="50" rx="2" ry="2" width="12" height="12"/><rect class="c" x="354" y="66" rx="2" ry="2" width="12" height="12"/><rect class="c" x="354" y="82" rx="2" ry="2" width="12" height="12"/><rect class="c" x="354" y="98" rx="2" ry="2" width="12" height="12"/><rect class="c" x="370" y="2" rx="2" ry="2" width="12" height="12"/><rect class="c" x="370" y="18" rx="2" ry="2" width="12" height="12"/><rect class="c" x="370" y="34" rx="2" ry="2" width="12" height="12"/><rect class="c" x="370" y="50" rx="2" ry="2" width="12" height="12"/><rect class="c" x="370" y="66" rx="2" ry="2" width="12" height="12"/><rect class="c" x="370" y="82" rx="2" ry="2" width="12" height="12"/><rect class="c" x="370" y="98" rx="2" ry="2" width="12" height="12"/><rect class="c" x="386" y="2" rx="2" ry="2" width="12" height="12"/><rect class="c" x="386" y="18" rx="2" ry="2" width="12" height="12"/><rect class="c" x="386" y="34" rx="2" ry="2" width="12" height="12"/><rect class="c" x="386" y="50" rx="2" ry="2" width="12" height="12"/><rect class="c" x="386" y="66" rx="2" ry="2" width="12" height="12"/><rect class="c" x="386" y="82" rx="2" ry="2" width="12" height="12"/><rect class="c" x="386" y="98" rx="2" ry="2" width="12" height="12"/><rect class="c" x="402" y="2" rx="2" ry="2" width="12" height="12"/><rect class="c" x="402" y="18" rx="2" ry="2" width="12" height="12"/><rect class="c" x="402" y="34" rx="2" ry="2" width="12" height="12"/><rect class="c" x="402" y="50" rx="2" ry="2" width="12" height="12"/><rect class="c" x="402" y="66" rx="2" ry="2" width="12" height="12"/><rect class="c" x="402" y="82" rx="2" ry="2" width="12" height="12"/><rect class="c" x="402" y="98" rx="2" ry="2" width="12" height="12"/><rect class="c" x="418" y="2" rx="2" ry="2" width="12" height="12"/><rect class="c" x="418" y="18" rx="2" ry="2" width="12" height="12"/><rect class="c" x="418" y="34" rx="2" ry="2" width="12" height="12"/><rect class="c" x="418" y="50" rx="2" ry="2" width="12" height="12"/><rect class="c" x="418" y="66" rx="2" ry="2" width="12" height="12"/><rect class="c" x="418" y="82" rx="2" ry="2" width="12" height="12"/><rect class="c" x="418" y="98" rx="2" ry="2" width="12" height="12"/><rect class="c" x="434" y="2" rx="2" ry="2" width="12" height="12"/><rect class="c" x="434" y="18" rx="2" ry="2" width="12" height="12"/><rect class="c" x="434" y="34" rx="2" ry="2" width="12" height="12"/><rect class="c" x="434" y="50" rx="2" ry="2" width="12" height="12"/><rect class="c" x="434" y="66" rx="2" ry="2" width="12" height="12"/><rect class="c" x="434" y="82" rx="2" ry="2" width="12" height="12"/><rect class="c" x="434" y="98" rx="2" ry="2" width="12" height="12"/><rect class="c cm" x="450" y="2" rx="2" ry="2" width="12" height="12"/><rect class="c cn" x="450" y="18" rx="2" ry="2" width="12" height="12"/><rect class="c co" x="450" y="34" rx="2" ry="2" width="12" height="12"/><rect class="c" x="450" y="50" rx="2" ry="2" width="12" height="12"/><rect class="c" x="450" y="66" rx="2" ry="2" width="12" height="12"/><rect class="c cp" x="450" y="82" rx="2" ry="2" width="12" height="12"/><rect class="c cq" x="450" y="98" rx="2" ry="2" width="12" height="12"/><rect class="c" x="466" y="2" rx="2" ry="2" width="12" height="12"/><rect class="c" x="466" y="18" rx="2" ry="2" width="12" height="12"/><rect class="c" x="466" y="34" rx="2" ry="2" width="12" height="12"/><rect class="c" x="466" y="50" rx="2" ry="2" width="12" height="12"/><rect class="c" x="466" y="66" rx="2" ry="2" width="12" height="12"/><rect class="c" x="466" y="82" rx="2" ry="2" width="12" height="12"/><rect class="c" x="466" y="98" rx="2" ry="2" width="12" height="12"/><rect class="c" x="482" y="2" rx="2" ry="2" width="12" height="12"/><rect class="c" x="482" y="18" rx="2" ry="2" width="12" height="12"/><rect class="c" x="482" y="34" rx="2" ry="2" width="12" height="12"/><rect class="c" x="482" y="50" rx="2" ry="2" width="12" height="12"/><rect class="c" x="482" y="66" rx="2" ry="2" width="12" height="12"/><rect class="c" x="482" y="82" rx="2" ry="2" width="12" height="12"/><rect class="c" x="482" y="98" rx="2" ry="2" width="12" height="12"/><rect class="c" x="498" y="2" rx="2" ry="2" width="12" height="12"/><rect class="c" x="498" y="18" rx="2" ry="2" width="12" height="12"/><rect class="c" x="498" y="34" rx="2" ry="2" width="12" height="12"/><rect class="c" x="498" y="50" rx="2" ry="2" width="12" height="12"/><rect class="c" x="498" y="66" rx="2" ry="2" width="12" height="12"/><rect class="c" x="498" y="82" rx="2" ry="2" width="12" height="12"/><rect class="c" x="498" y="98" rx="2" ry="2" width="12" height="12"/><rect class="c" x="514" y="2" rx="2" ry="2" width="12" height="12"/><rect class="c" x="514" y="18" rx="2" ry="2" width="12" height="12"/><rect class="c" x="514" y="34" rx="2" ry="2" width="12" height="12"/><rect class="c" x="514" y="50" rx="2" ry="2" width="12" height="12"/><rect class="c" x="514" y="66" rx="2" ry="2" width="12" height="12"/><rect class="c" x="514" y="82" rx="2" ry="2" width="12" height="12"/><rect class="c" x="514" y="98" rx="2" ry="2" width="12" height="12"/><rect class="c" x="530" y="2" rx="2" ry="2" width="12" height="12"/><rect class="c" x="530" y="18" rx="2" ry="2" width="12" height="12"/><rect class="c" x="530" y="34" rx="2" ry="2" width="12" height="12"/><rect class="c" x="530" y="50" rx="2" ry="2" width="12" height="12"/><rect class="c" x="530" y="66" rx="2" ry="2" width="12" height="12"/><rect class="c" x="530" y="82" rx="2" ry="2" width="12" height="12"/><rect class="c" x="530" y="98" rx="2" ry="2" width="12" height="12"/><rect class="c" x="546" y="2" rx="2" ry="2" width="12" height="12"/><rect class="c" x="546" y="18" rx="2" ry="2" width="12" height="12"/><rect class="c" x="546" y="34" rx="2" ry="2" width="12" height="12"/><rect class="c" x="546" y="50" rx="2" ry="2" width="12" height="12"/><rect class="c" x="546" y="66" rx="2" ry="2" width="12" height="12"/><rect class="c" x="546" y="82" rx="2" ry="2" width="12" height="12"/><rect class="c" x="546" y="98" rx="2" ry="2" width="12" height="12"/><rect class="c" x="562" y="2" rx="2" ry="2" width="12" height="12"/><rect class="c" x="562" y="18" rx="2" ry="2" width="12" height="12"/><rect class="c" x="562" y="34" rx="2" ry="2" width="12" height="12"/><rect class="c" x="562" y="50" rx="2" ry="2" width="12" height="12"/><rect class="c" x="562" y="66" rx="2" ry="2" width="12" height="12"/><rect class="c" x="562" y="82" rx="2" ry="2" width="12" height="12"/><rect class="c" x="562" y="98" rx="2" ry="2" width="12" height="12"/><rect class="c" x="578" y="2" rx="2" ry="2" width="12" height="12"/><rect class="c" x="578" y="18" rx="2" ry="2" width="12" height="12"/><rect class="c" x="578" y="34" rx="2" ry="2" width="12" height="12"/><rect class="c" x="578" y="50" rx="2" ry="2" width="12" height="12"/><rect class="c" x="578" y="66" rx="2" ry="2" width="12" height="12"/><rect class="c" x="578" y="82" rx="2" ry="2" width="12" height="12"/><rect class="c" x="578" y="98" rx="2" ry="2" width="12" height="12"/><rect class="c" x="594" y="2" rx="2" ry="2" width="12" height="12"/><rect class="c" x="594" y="18" rx="2" ry="2" width="12" height="12"/><rect class="c" x="594" y="34" rx="2" ry="2" width="12" height="12"/><rect class="c" x="594" y="50" rx="2" ry="2" width="12" height="12"/><rect class="c" x="594" y="66" rx="2" ry="2" width="12" height="12"/><rect class="c" x="594" y="82" rx="2" ry="2" width="12" height="12"/><rect class="c" x="594" y="98" rx="2" ry="2" width="12" height="12"/><rect class="c" x="610" y="2" rx="2" ry="2" width="12" height="12"/><rect class="c" x="610" y="18" rx="2" ry="2" width="12" height="12"/><rect class="c" x="610" y="34" rx="2" ry="2" width="12" height="12"/><rect class="c" x="610" y="50" rx="2" ry="2" width="12" height="12"/><rect class="c" x="610" y="66" rx="2" ry="2" width="12" height="12"/><rect class="c" x="610" y="82" rx="2" ry="2" width="12" height="12"/><rect class="c" x="610" y="98" rx="2" ry="2" width="12" height="12"/><rect class="c" x="626" y="2" rx="2" ry="2" width="12" height="12"/><rect class="c" x="626" y="18" rx="2" ry="2" width="12" height="12"/><rect class="c" x="626" y="34" rx="2" ry="2" width="12" height="12"/><rect class="c" x="626" y="50" rx="2" ry="2" width="12" height="12"/><rect class="c" x="626" y="66" rx="2" ry="2" width="12" height="12"/><rect class="c" x="626" y="82" rx="2" ry="2" width="12" height="12"/><rect class="c" x="626" y="98" rx="2" ry="2" width="12" height="12"/><rect class="c" x="642" y="2" rx="2" ry="2" width="12" height="12"/><rect class="c" x="642" y="18" rx="2" ry="2" width="12" height="12"/><rect class="c" x="642" y="34" rx="2" ry="2" width="12" height="12"/><rect class="c" x="642" y="50" rx="2" ry="2" width="12" height="12"/><rect class="c cr" x="642" y="66" rx="2" ry="2" width="12" height="12"/><rect class="c" x="642" y="82" rx="2" ry="2" width="12" height="12"/><rect class="c" x="642" y="98" rx="2" ry="2" width="12" height="12"/><rect class="c" x="658" y="2" rx="2" ry="2" width="12" height="12"/><rect class="c" x="658" y="18" rx="2" ry="2" width="12" height="12"/><rect class="c" x="658" y="34" rx="2" ry="2" width="12" height="12"/><rect class="c" x="658" y="50" rx="2" ry="2" width="12" height="12"/><rect class="c cs" x="658" y="66" rx="2" ry="2" width="12" height="12"/><rect class="c" x="658" y="82" rx="2" ry="2" width="12" height="12"/><rect class="c" x="658" y="98" rx="2" ry="2" width="12" height="12"/><rect class="c" x="674" y="2" rx="2" ry="2" width="12" height="12"/><rect class="c" x="674" y="18" rx="2" ry="2" width="12" height="12"/><rect class="c" x="674" y="34" rx="2" ry="2" width="12" height="12"/><rect class="c" x="674" y="50" rx="2" ry="2" width="12" height="12"/><rect class="c" x="674" y="66" rx="2" ry="2" width="12" height="12"/><rect class="c" x="674" y="82" rx="2" ry="2" width="12" height="12"/><rect class="c" x="674" y="98" rx="2" ry="2" width="12" height="12"/><rect class="c" x="690" y="2" rx="2" ry="2" width="12" height="12"/><rect class="c" x="690" y="18" rx="2" ry="2" width="12" height="12"/><rect class="c" x="690" y="34" rx="2" ry="2" width="12" height="12"/><rect class="c ct" x="690" y="50" rx="2" ry="2" width="12" height="12"/><rect class="c cu" x="690" y="66" rx="2" ry="2" width="12" height="12"/><rect class="c" x="690" y="82" rx="2" ry="2" width="12" height="12"/><rect class="c" x="690" y="98" rx="2" ry="2" width="12" height="12"/><rect class="c" x="706" y="2" rx="2" ry="2" width="12" height="12"/><rect class="c" x="706" y="18" rx="2" ry="2" width="12" height="12"/><rect class="c" x="706" y="34" rx="2" ry="2" width="12" height="12"/><rect class="c" x="706" y="50" rx="2" ry="2" width="12" height="12"/><rect class="c" x="706" y="66" rx="2" ry="2" width="12" height="12"/><rect class="c" x="706" y="82" rx="2" ry="2" width="12" height="12"/><rect class="c" x="706" y="98" rx="2" ry="2" width="12" height="12"/><rect class="c" x="722" y="2" rx="2" ry="2" width="12" height="12"/><rect class="c cv" x="722" y="18" rx="2" ry="2" width="12" height="12"/><rect class="c cw" x="722" y="34" rx="2" ry="2" width="12" height="12"/><rect class="c" x="722" y="50" rx="2" ry="2" width="12" height="12"/><rect class="c cx" x="722" y="66" rx="2" ry="2" width="12" height="12"/><rect class="c cy" x="722" y="82" rx="2" ry="2" width="12" height="12"/><rect class="c" x="722" y="98" rx="2" ry="2" width="12" height="12"/><rect class="c cz" x="738" y="2" rx="2" ry="2" width="12" height="12"/><rect class="c c10" x="738" y="18" rx="2" ry="2" width="12" height="12"/><rect class="c" x="738" y="34" rx="2" ry="2" width="12" height="12"/><rect class="c" x="738" y="50" rx="2" ry="2" width="12" height="12"/><rect class="c" x="738" y="66" rx="2" ry="2" width="12" height="12"/><rect class="c c11" x="738" y="82" rx="2" ry="2" width="12" height="12"/><rect class="c c12" x="738" y="98" rx="2" ry="2" width="12" height="12"/><rect class="c" x="754" y="2" rx="2" ry="2" width="12" height="12"/><rect class="c" x="754" y="18" rx="2" ry="2" width="12" height="12"/><rect class="c" x="754" y="34" rx="2" ry="2" width="12" height="12"/><rect class="c" x="754" y="50" rx="2" ry="2" width="12" height="12"/><rect class="c" x="754" y="66" rx="2" ry="2" width="12" height="12"/><rect class="c" x="754" y="82" rx="2" ry="2" width="12" height="12"/><rect class="c" x="754" y="98" rx="2" ry="2" width="12" height="12"/><rect class="c" x="770" y="2" rx="2" ry="2" width="12" height="12"/><rect class="c" x="770" y="18" rx="2" ry="2" width="12" height="12"/><rect class="c" x="770" y="34" rx="2" ry="2" width="12" height="12"/><rect class="c" x="770" y="50" rx="2" ry="2" width="12" height="12"/><rect class="c" x="770" y="66" rx="2" ry="2" width="12" height="12"/><rect class="c" x="770" y="82" rx="2" ry="2" width="12" height="12"/><rect class="c" x="770" y="98" rx="2" ry="2" width="12" height="12"/><rect class="c" x="786" y="2" rx="2" ry="2" width="12" height="12"/><rect class="c" x="786" y="18" rx="2" ry="2" width="12" height="12"/><rect class="c" x="786" y="34" rx="2" ry="2" width="12" height="12"/><rect class="c" x="786" y="50" rx="2" ry="2" width="12" height="12"/><rect class="c" x="786" y="66" rx="2" ry="2" width="12" height="12"/><rect class="c" x="786" y="82" rx="2" ry="2" width="12" height="12"/><rect class="c" x="786" y="98" rx="2" ry="2" width="12" height="12"/><rect class="c" x="802" y="2" rx="2" ry="2" width="12" height="12"/><rect class="c" x="802" y="18" rx="2" ry="2" width="12" height="12"/><rect class="c" x="802" y="34" rx="2" ry="2" width="12" height="12"/><rect class="c c13" x="802" y="50" rx="2" ry="2" width="12" height="12"/><rect class="c c14" x="802" y="66" rx="2" ry="2" width="12" height="12"/><rect class="c" x="802" y="82" rx="2" ry="2" width="12" height="12"/><rect class="c" x="802" y="98" rx="2" ry="2" width="12" height="12"/><rect class="c" x="818" y="2" rx="2" ry="2" width="12" height="12"/><rect class="c" x="818" y="18" rx="2" ry="2" width="12" height="12"/><rect class="c" x="818" y="34" rx="2" ry="2" width="12" height="12"/><rect class="c" x="818" y="50" rx="2" ry="2" width="12" height="12"/><rect class="c" x="818" y="66" rx="2" ry="2" width="12" height="12"/><rect class="c" x="818" y="82" rx="2" ry="2" width="12" height="12"/><rect class="c" x="818" y="98" rx="2" ry="2" width="12" height="12"/><rect class="c" x="834" y="2" rx="2" ry="2" width="12" height="12"/><rect class="c" x="834" y="18" rx="2" ry="2" width="12" height="12"/><rect class="c" x="834" y="34" rx="2" ry="2" width="12" height="12"/><rect class="c" x="834" y="50" rx="2" ry="2" width="12" height="12"/><rect class="c" x="834" y="66" rx="2" ry="2" width="12" height="12"/><rect class="c c15" x="834" y="82" rx="2" ry="2" width="12" height="12"/><rect class="u u0" height="12" width="505.4" x="0.0" y="144"/><rect class="u u1" height="12" width="202.5" x="504.8" y="144"/><rect class="u u2" height="12" width="101.6" x="706.7" y="144"/><rect class="u u3" height="12" width="41.0" x="807.6" y="144"/><rect class="s s0" x="0.8" y="0.8" width="14.4" height="14.4" rx="4.5" ry="4.5"/><rect class="s s1" x="1.8" y="1.8" width="12.3" height="12.3" rx="4.1" ry="4.1"/><rect class="s s2" x="2.6" y="2.6" width="10.8" height="10.8" rx="3.6" ry="3.6"/><rect class="s s3" x="3.0" y="3.0" width="9.9" height="9.9" rx="3.3" ry="3.3"/></svg>