<svg viewBox="-16 -32 880 192" width="880" height="192" xmlns="http://www.w3.org/2000/svg"><desc>Generated with https://github.com/Platane/snk</desc><style>@keyframes c0{53.28%{fill:var(--c3)}53.3%,to{fill:var(--ce)}}@keyframes c1{2.76%{fill:var(--c1)}2.78%,to{fill:var(--ce)}}@keyframes c2{52.24%{fill:var(--c2)}52.26%,to{fill:var(--ce)}}@keyframes c3{8.29%{fill:var(--c1)}8.31%,to{fill:var(--ce)}}@keyframes c4{7.6%{fill:var(--c1)}7.62%,to{fill:var(--ce)}}@keyframes c5{7.26%{fill:var(--c1)}7.28%,to{fill:var(--ce)}}@keyframes c6{47.05%{fill:var(--c2)}47.07%,to{fill:var(--ce)}}@keyframes c7{11.41%{fill:var(--c1)}11.43%,to{fill:var(--ce)}}@keyframes c8{11.75%{fill:var(--c1)}11.77%,to{fill:var(--ce)}}@keyframes c9{46.36%{fill:var(--c2)}46.38%,to{fill:var(--ce)}}@keyframes ca{10.72%{fill:var(--c1)}10.74%,to{fill:var(--ce)}}@keyframes cb{93.07%{fill:var(--c4)}93.09%,to{fill:var(--ce)}}@keyframes cc{12.45%{fill:var(--c1)}12.47%,to{fill:var(--ce)}}@keyframes cd{13.14%{fill:var(--c1)}13.16%,to{fill:var(--ce)}}@keyframes ce{44.63%{fill:var(--c2)}44.65%,to{fill:var(--ce)}}@keyframes cf{67.81%{fill:var(--c3)}67.83%,to{fill:var(--ce)}}@keyframes cg{41.86%{fill:var(--c2)}41.88%,to{fill:var(--ce)}}@keyframes ch{60.89%{fill:var(--c3)}60.91%,to{fill:var(--ce)}}@keyframes ci{90.3%{fill:var(--c4)}90.32%,to{fill:var(--ce)}}@keyframes cj{62.62%{fill:var(--c3)}62.64%,to{fill:var(--ce)}}@keyframes ck{17.29%{fill:var(--c1)}17.31%,to{fill:var(--ce)}}@keyframes cl{40.13%{fill:var(--c2)}40.15%,to{fill:var(--ce)}}@keyframes cm{17.64%{fill:var(--c1)}17.66%,to{fill:var(--ce)}}@keyframes cn{64.35%{fill:var(--c3)}64.37%,to{fill:var(--ce)}}@keyframes co{19.71%{fill:var(--c1)}19.73%,to{fill:var(--ce)}}@keyframes cp{23.17%{fill:var(--c1)}23.19%,to{fill:var(--ce)}}@keyframes cq{22.83%{fill:var(--c1)}22.85%,to{fill:var(--ce)}}@keyframes cr{28.36%{fill:var(--c1)}28.38%,to{fill:var(--ce)}}@keyframes cs{28.71%{fill:var(--c1)}28.73%,to{fill:var(--ce)}}@keyframes ct{79.57%{fill:var(--c3)}79.59%,to{fill:var(--ce)}}@keyframes cu{29.4%{fill:var(--c2)}29.42%,to{fill:var(--ce)}}@keyframes u0{2.76%{transform:scale(0,1)}2.78%,7.26%{transform:scale(.06,1)}7.28%,7.6%{transform:scale(.13,1)}7.62%,8.29%{transform:scale(.19,1)}10.72%,8.31%{transform:scale(.25,1)}10.74%,11.41%{transform:scale(.31,1)}11.43%,11.75%{transform:scale(.38,1)}11.77%,12.45%{transform:scale(.44,1)}12.47%,13.14%{transform:scale(.5,1)}13.16%,17.29%{transform:scale(.56,1)}17.31%,17.64%{transform:scale(.63,1)}17.66%,19.71%{transform:scale(.69,1)}19.73%,22.83%{transform:scale(.75,1)}22.85%,23.17%{transform:scale(.81,1)}23.19%,28.36%{transform:scale(.88,1)}28.38%,28.71%{transform:scale(.94,1)}28.73%,to{transform:scale(1,1)}}@keyframes u1{29.4%{transform:scale(0,1)}29.42%,40.13%{transform:scale(.14,1)}40.15%,41.86%{transform:scale(.29,1)}41.88%,44.63%{transform:scale(.43,1)}44.65%,46.36%{transform:scale(.57,1)}46.38%,47.05%{transform:scale(.71,1)}47.07%,52.24%{transform:scale(.86,1)}52.26%,to{transform:scale(1,1)}}@keyframes u2{53.28%{transform:scale(0,1)}53.3%,60.89%{transform:scale(.17,1)}60.91%,62.62%{transform:scale(.33,1)}62.64%,64.35%{transform:scale(.5,1)}64.37%,67.81%{transform:scale(.67,1)}67.83%,79.57%{transform:scale(.83,1)}79.59%,to{transform:scale(1,1)}}@keyframes u3{90.3%{transform:scale(0,1)}90.32%,93.07%{transform:scale(.5,1)}93.09%,to{transform:scale(1,1)}}@keyframes s0{0%,99.65%{transform:translate(0,-16px)}.35%,53.63%{transform:translate(0,0)}.69%{transform:translate(16px,0)}2.77%{transform:translate(16px,96px)}5.88%{transform:translate(160px,96px)}7.96%{transform:translate(160px,0)}8.3%{transform:translate(144px,0)}8.65%{transform:translate(144px,16px)}10.73%,92.39%{transform:translate(240px,16px)}11.07%{transform:translate(240px,32px)}11.42%{transform:translate(224px,32px)}12.11%{transform:translate(224px,64px)}12.46%{transform:translate(240px,64px)}13.15%{transform:translate(240px,96px)}13.84%,44.98%{transform:translate(272px,96px)}14.19%,45.33%{transform:translate(272px,80px)}15.22%{transform:translate(320px,80px)}16.26%,41.18%{transform:translate(320px,32px)}16.96%,40.48%,61.94%{transform:translate(352px,32px)}17.3%{transform:translate(352px,16px)}19.03%{transform:translate(432px,16px)}19.72%{transform:translate(432px,48px)}22.49%{transform:translate(560px,48px)}23.18%{transform:translate(560px,16px)}27.34%{transform:translate(752px,16px)}28.37%{transform:translate(752px,64px)}29.41%{transform:translate(800px,64px)}29.76%{transform:translate(800px,80px)}30.1%{transform:translate(784px,80px)}30.8%{transform:translate(784px,48px)}40.14%{transform:translate(352px,48px)}41.87%{transform:translate(320px,0)}42.56%{transform:translate(288px,0)}44.64%{transform:translate(288px,96px)}46.71%{transform:translate(208px,80px)}47.06%{transform:translate(208px,96px)}47.4%{transform:translate(192px,96px)}48.79%{transform:translate(192px,32px)}52.25%{transform:translate(32px,32px)}52.6%{transform:translate(32px,16px)}53.29%{transform:translate(0,16px)}61.25%{transform:translate(352px,0)}62.28%{transform:translate(336px,32px)}62.63%{transform:translate(336px,48px)}64.01%{transform:translate(400px,48px)}64.36%{transform:translate(400px,32px)}66.44%{transform:translate(304px,32px)}67.82%{transform:translate(304px,96px)}78.55%{transform:translate(800px,96px)}80.28%{transform:translate(800px,16px)}93.08%{transform:translate(240px,48px)}97.23%{transform:translate(48px,48px)}98.62%{transform:translate(48px,-16px)}}@keyframes s1{0%,99.65%{transform:translate(16px,-16px)}.35%{transform:translate(0,-16px)}.69%,53.98%{transform:translate(0,0)}1.04%{transform:translate(16px,0)}3.11%{transform:translate(16px,96px)}6.23%{transform:translate(160px,96px)}8.3%{transform:translate(160px,0)}8.65%{transform:translate(144px,0)}9%{transform:translate(144px,16px)}11.07%,92.73%{transform:translate(240px,16px)}11.42%{transform:translate(240px,32px)}11.76%{transform:translate(224px,32px)}12.46%{transform:translate(224px,64px)}12.8%{transform:translate(240px,64px)}13.49%{transform:translate(240px,96px)}14.19%,45.33%{transform:translate(272px,96px)}14.53%,45.67%{transform:translate(272px,80px)}15.57%{transform:translate(320px,80px)}16.61%,41.52%{transform:translate(320px,32px)}17.3%,40.83%,62.28%{transform:translate(352px,32px)}17.65%{transform:translate(352px,16px)}19.38%{transform:translate(432px,16px)}20.07%{transform:translate(432px,48px)}22.84%{transform:translate(560px,48px)}23.53%{transform:translate(560px,16px)}27.68%{transform:translate(752px,16px)}28.72%{transform:translate(752px,64px)}29.76%{transform:translate(800px,64px)}30.1%{transform:translate(800px,80px)}30.45%{transform:translate(784px,80px)}31.14%{transform:translate(784px,48px)}40.48%{transform:translate(352px,48px)}42.21%{transform:translate(320px,0)}42.91%{transform:translate(288px,0)}44.98%{transform:translate(288px,96px)}47.06%{transform:translate(208px,80px)}47.4%{transform:translate(208px,96px)}47.75%{transform:translate(192px,96px)}49.13%{transform:translate(192px,32px)}52.6%{transform:translate(32px,32px)}52.94%{transform:translate(32px,16px)}53.63%{transform:translate(0,16px)}61.59%{transform:translate(352px,0)}62.63%{transform:translate(336px,32px)}62.98%{transform:translate(336px,48px)}64.36%{transform:translate(400px,48px)}64.71%{transform:translate(400px,32px)}66.78%{transform:translate(304px,32px)}68.17%{transform:translate(304px,96px)}78.89%{transform:translate(800px,96px)}80.62%{transform:translate(800px,16px)}93.43%{transform:translate(240px,48px)}97.58%{transform:translate(48px,48px)}98.96%{transform:translate(48px,-16px)}}@keyframes s2{0%,99.65%{transform:translate(32px,-16px)}.69%{transform:translate(0,-16px)}1.04%,54.33%{transform:translate(0,0)}1.38%{transform:translate(16px,0)}3.46%{transform:translate(16px,96px)}6.57%{transform:translate(160px,96px)}8.65%{transform:translate(160px,0)}9%{transform:translate(144px,0)}9.34%{transform:translate(144px,16px)}11.42%,93.08%{transform:translate(240px,16px)}11.76%{transform:translate(240px,32px)}12.11%{transform:translate(224px,32px)}12.8%{transform:translate(224px,64px)}13.15%{transform:translate(240px,64px)}13.84%{transform:translate(240px,96px)}14.53%,45.67%{transform:translate(272px,96px)}14.88%,46.02%{transform:translate(272px,80px)}15.92%{transform:translate(320px,80px)}16.96%,41.87%{transform:translate(320px,32px)}17.65%,41.18%,62.63%{transform:translate(352px,32px)}17.99%{transform:translate(352px,16px)}19.72%{transform:translate(432px,16px)}20.42%{transform:translate(432px,48px)}23.18%{transform:translate(560px,48px)}23.88%{transform:translate(560px,16px)}28.03%{transform:translate(752px,16px)}29.07%{transform:translate(752px,64px)}30.1%{transform:translate(800px,64px)}30.45%{transform:translate(800px,80px)}30.8%{transform:translate(784px,80px)}31.49%{transform:translate(784px,48px)}40.83%{transform:translate(352px,48px)}42.56%{transform:translate(320px,0)}43.25%{transform:translate(288px,0)}45.33%{transform:translate(288px,96px)}47.4%{transform:translate(208px,80px)}47.75%{transform:translate(208px,96px)}48.1%{transform:translate(192px,96px)}49.48%{transform:translate(192px,32px)}52.94%{transform:translate(32px,32px)}53.29%{transform:translate(32px,16px)}53.98%{transform:translate(0,16px)}61.94%{transform:translate(352px,0)}62.98%{transform:translate(336px,32px)}63.32%{transform:translate(336px,48px)}64.71%{transform:translate(400px,48px)}65.05%{transform:translate(400px,32px)}67.13%{transform:translate(304px,32px)}68.51%{transform:translate(304px,96px)}79.24%{transform:translate(800px,96px)}80.97%{transform:translate(800px,16px)}93.77%{transform:translate(240px,48px)}97.92%{transform:translate(48px,48px)}99.31%{transform:translate(48px,-16px)}}@keyframes s3{0%,99.65%{transform:translate(48px,-16px)}1.04%{transform:translate(0,-16px)}1.38%,54.67%{transform:translate(0,0)}1.73%{transform:translate(16px,0)}3.81%{transform:translate(16px,96px)}6.92%{transform:translate(160px,96px)}9%{transform:translate(160px,0)}9.34%{transform:translate(144px,0)}9.69%{transform:translate(144px,16px)}11.76%,93.43%{transform:translate(240px,16px)}12.11%{transform:translate(240px,32px)}12.46%{transform:translate(224px,32px)}13.15%{transform:translate(224px,64px)}13.49%{transform:translate(240px,64px)}14.19%{transform:translate(240px,96px)}14.88%,46.02%{transform:translate(272px,96px)}15.22%,46.37%{transform:translate(272px,80px)}16.26%{transform:translate(320px,80px)}17.3%,42.21%{transform:translate(320px,32px)}17.99%,41.52%,62.98%{transform:translate(352px,32px)}18.34%{transform:translate(352px,16px)}20.07%{transform:translate(432px,16px)}20.76%{transform:translate(432px,48px)}23.53%{transform:translate(560px,48px)}24.22%{transform:translate(560px,16px)}28.37%{transform:translate(752px,16px)}29.41%{transform:translate(752px,64px)}30.45%{transform:translate(800px,64px)}30.8%{transform:translate(800px,80px)}31.14%{transform:translate(784px,80px)}31.83%{transform:translate(784px,48px)}41.18%{transform:translate(352px,48px)}42.91%{transform:translate(320px,0)}43.6%{transform:translate(288px,0)}45.67%{transform:translate(288px,96px)}47.75%{transform:translate(208px,80px)}48.1%{transform:translate(208px,96px)}48.44%{transform:translate(192px,96px)}49.83%{transform:translate(192px,32px)}53.29%{transform:translate(32px,32px)}53.63%{transform:translate(32px,16px)}54.33%{transform:translate(0,16px)}62.28%{transform:translate(352px,0)}63.32%{transform:translate(336px,32px)}63.67%{transform:translate(336px,48px)}65.05%{transform:translate(400px,48px)}65.4%{transform:translate(400px,32px)}67.47%{transform:translate(304px,32px)}68.86%{transform:translate(304px,96px)}79.58%{transform:translate(800px,96px)}81.31%{transform:translate(800px,16px)}94.12%{transform:translate(240px,48px)}98.27%{transform:translate(48px,48px)}}:root{--cb:#1b1f230a;--cs:purple;--ce:#ebedf0;--c0:#ebedf0;--c1:#9be9a8;--c2:#40c463;--c3:#30a14e;--c4:#216e39}@media (prefers-color-scheme:dark){:root{--cb:#1b1f230a;--cs:purple;--ce:#161b22;--c1:#01311f;--c2:#034525;--c3:#0f6d31;--c4:#00c647}}.c{shape-rendering:geometricPrecision;fill:var(--ce);stroke-width:1px;stroke:var(--cb);animation:none 28900ms linear infinite}.c.c0{fill:var(--c3);animation-name:c0}.c.c1{fill:var(--c1);animation-name:c1}.c.c2{fill:var(--c2);animation-name:c2}.c.c3,.c.c4,.c.c5{fill:var(--c1);animation-name:c3}.c.c4,.c.c5{animation-name:c4}.c.c5{animation-name:c5}.c.c6{fill:var(--c2);animation-name:c6}.c.c7,.c.c8{fill:var(--c1);animation-name:c7}.c.c8{animation-name:c8}.c.c9{fill:var(--c2);animation-name:c9}.c.ca{fill:var(--c1);animation-name:ca}.c.cb{fill:var(--c4);animation-name:cb}.c.cc,.c.cd{fill:var(--c1);animation-name:cc}.c.cd{animation-name:cd}.c.ce{fill:var(--c2);animation-name:ce}.c.cf{fill:var(--c3);animation-name:cf}.c.cg{fill:var(--c2);animation-name:cg}.c.ch{fill:var(--c3);animation-name:ch}.c.ci{fill:var(--c4);animation-name:ci}.c.cj{fill:var(--c3);animation-name:cj}.c.ck{fill:var(--c1);animation-name:ck}.c.cl{fill:var(--c2);animation-name:cl}.c.cm{fill:var(--c1);animation-name:cm}.c.cn{fill:var(--c3);animation-name:cn}.c.co,.c.cp{fill:var(--c1);animation-name:co}.c.cp{animation-name:cp}.c.cq,.c.cr,.c.cs{fill:var(--c1);animation-name:cq}.c.cr,.c.cs{animation-name:cr}.c.cs{animation-name:cs}.c.ct{fill:var(--c3);animation-name:ct}.c.cu{fill:var(--c2);animation-name:cu}.s,.u{animation:none linear 28900ms infinite}.u,.u.u0{transform-origin:0 0}.u{transform:scale(0,1)}.u.u0{fill:var(--c1);animation-name:u0}.u.u1{fill:var(--c2);animation-name:u1;transform-origin:437.7px 0}.u.u2{fill:var(--c3);animation-name:u2;transform-origin:629.2px 0}.u.u3{fill:var(--c4);animation-name:u3;transform-origin:793.3px 0}.s{shape-rendering:geometricPrecision;fill:var(--cs)}.s.s0{transform:translate(0,-16px);animation-name:s0}.s.s1{transform:translate(16px,-16px);animation-name:s1}.s.s2{transform:translate(32px,-16px);animation-name:s2}.s.s3{transform:translate(48px,-16px);animation-name:s3}</style><rect class="c" x="2" y="2" rx="2" ry="2" width="12" height="12"/><rect class="c c0" x="2" y="18" rx="2" ry="2" width="12" height="12"/><rect class="c" x="2" y="34" rx="2" ry="2" width="12" height="12"/><rect class="c" x="2" y="50" rx="2" ry="2" width="12" height="12"/><rect class="c" x="2" y="66" rx="2" ry="2" width="12" height="12"/><rect class="c" x="2" y="82" rx="2" ry="2" width="12" height="12"/><rect class="c" x="2" y="98" rx="2" ry="2" width="12" height="12"/><rect class="c" x="18" y="2" rx="2" ry="2" width="12" height="12"/><rect class="c" x="18" y="18" rx="2" ry="2" width="12" height="12"/><rect class="c" x="18" y="34" rx="2" ry="2" width="12" height="12"/><rect class="c" x="18" y="50" rx="2" ry="2" width="12" height="12"/><rect class="c" x="18" y="66" rx="2" ry="2" width="12" height="12"/><rect class="c" x="18" y="82" rx="2" ry="2" width="12" height="12"/><rect class="c c1" x="18" y="98" rx="2" ry="2" width="12" height="12"/><rect class="c" x="34" y="2" rx="2" ry="2" width="12" height="12"/><rect class="c" x="34" y="18" rx="2" ry="2" width="12" height="12"/><rect class="c c2" x="34" y="34" rx="2" ry="2" width="12" height="12"/><rect class="c" x="34" y="50" rx="2" ry="2" width="12" height="12"/><rect class="c" x="34" y="66" rx="2" ry="2" width="12" height="12"/><rect class="c" x="34" y="82" rx="2" ry="2" width="12" height="12"/><rect class="c" x="34" y="98" rx="2" ry="2" width="12" height="12"/><rect class="c" x="50" y="2" rx="2" ry="2" width="12" height="12"/><rect class="c" x="50" y="18" rx="2" ry="2" width="12" height="12"/><rect class="c" x="50" y="34" rx="2" ry="2" width="12" height="12"/><rect class="c" x="50" y="50" rx="2" ry="2" width="12" height="12"/><rect class="c" x="50" y="66" rx="2" ry="2" width="12" height="12"/><rect class="c" x="50" y="82" rx="2" ry="2" width="12" height="12"/><rect class="c" x="50" y="98" rx="2" ry="2" width="12" height="12"/><rect class="c" x="66" y="2" rx="2" ry="2" width="12" height="12"/><rect class="c" x="66" y="18" rx="2" ry="2" width="12" height="12"/><rect class="c" x="66" y="34" rx="2" ry="2" width="12" height="12"/><rect class="c" x="66" y="50" rx="2" ry="2" width="12" height="12"/><rect class="c" x="66" y="66" rx="2" ry="2" width="12" height="12"/><rect class="c" x="66" y="82" rx="2" ry="2" width="12" height="12"/><rect class="c" x="66" y="98" rx="2" ry="2" width="12" height="12"/><rect class="c" x="82" y="2" rx="2" ry="2" width="12" height="12"/><rect class="c" x="82" y="18" rx="2" ry="2" width="12" height="12"/><rect class="c" x="82" y="34" rx="2" ry="2" width="12" height="12"/><rect class="c" x="82" y="50" rx="2" ry="2" width="12" height="12"/><rect class="c" x="82" y="66" rx="2" ry="2" width="12" height="12"/><rect class="c" x="82" y="82" rx="2" ry="2" width="12" height="12"/><rect class="c" x="82" y="98" rx="2" ry="2" width="12" height="12"/><rect class="c" x="98" y="2" rx="2" ry="2" width="12" height="12"/><rect class="c" x="98" y="18" rx="2" ry="2" width="12" height="12"/><rect class="c" x="98" y="34" rx="2" ry="2" width="12" height="12"/><rect class="c" x="98" y="50" rx="2" ry="2" width="12" height="12"/><rect class="c" x="98" y="66" rx="2" ry="2" width="12" height="12"/><rect class="c" x="98" y="82" rx="2" ry="2" width="12" height="12"/><rect class="c" x="98" y="98" rx="2" ry="2" width="12" height="12"/><rect class="c" x="114" y="2" rx="2" ry="2" width="12" height="12"/><rect class="c" x="114" y="18" rx="2" ry="2" width="12" height="12"/><rect class="c" x="114" y="34" rx="2" ry="2" width="12" height="12"/><rect class="c" x="114" y="50" rx="2" ry="2" width="12" height="12"/><rect class="c" x="114" y="66" rx="2" ry="2" width="12" height="12"/><rect class="c" x="114" y="82" rx="2" ry="2" width="12" height="12"/><rect class="c" x="114" y="98" rx="2" ry="2" width="12" height="12"/><rect class="c" x="130" y="2" rx="2" ry="2" width="12" height="12"/><rect class="c" x="130" y="18" rx="2" ry="2" width="12" height="12"/><rect class="c" x="130" y="34" rx="2" ry="2" width="12" height="12"/><rect class="c" x="130" y="50" rx="2" ry="2" width="12" height="12"/><rect class="c" x="130" y="66" rx="2" ry="2" width="12" height="12"/><rect class="c" x="130" y="82" rx="2" ry="2" width="12" height="12"/><rect class="c" x="130" y="98" rx="2" ry="2" width="12" height="12"/><rect class="c c3" x="146" y="2" rx="2" ry="2" width="12" height="12"/><rect class="c" x="146" y="18" rx="2" ry="2" width="12" height="12"/><rect class="c" x="146" y="34" rx="2" ry="2" width="12" height="12"/><rect class="c" x="146" y="50" rx="2" ry="2" width="12" height="12"/><rect class="c" x="146" y="66" rx="2" ry="2" width="12" height="12"/><rect class="c" x="146" y="82" rx="2" ry="2" width="12" height="12"/><rect class="c" x="146" y="98" rx="2" ry="2" width="12" height="12"/><rect class="c" x="162" y="2" rx="2" ry="2" width="12" height="12"/><rect class="c c4" x="162" y="18" rx="2" ry="2" width="12" height="12"/><rect class="c c5" x="162" y="34" rx="2" ry="2" width="12" height="12"/><rect class="c" x="162" y="50" rx="2" ry="2" width="12" height="12"/><rect class="c" x="162" y="66" rx="2" ry="2" width="12" height="12"/><rect class="c" x="162" y="82" rx="2" ry="2" width="12" height="12"/><rect class="c" x="162" y="98" rx="2" ry="2" width="12" height="12"/><rect class="c" x="178" y="2" rx="2" ry="2" width="12" height="12"/><rect class="c" x="178" y="18" rx="2" ry="2" width="12" height="12"/><rect class="c" x="178" y="34" rx="2" ry="2" width="12" height="12"/><rect class="c" x="178" y="50" rx="2" ry="2" width="12" height="12"/><rect class="c" x="178" y="66" rx="2" ry="2" width="12" height="12"/><rect class="c" x="178" y="82" rx="2" ry="2" width="12" height="12"/><rect class="c" x="178" y="98" rx="2" ry="2" width="12" height="12"/><rect class="c" x="194" y="2" rx="2" ry="2" width="12" height="12"/><rect class="c" x="194" y="18" rx="2" ry="2" width="12" height="12"/><rect class="c" x="194" y="34" rx="2" ry="2" width="12" height="12"/><rect class="c" x="194" y="50" rx="2" ry="2" width="12" height="12"/><rect class="c" x="194" y="66" rx="2" ry="2" width="12" height="12"/><rect class="c" x="194" y="82" rx="2" ry="2" width="12" height="12"/><rect class="c" x="194" y="98" rx="2" ry="2" width="12" height="12"/><rect class="c" x="210" y="2" rx="2" ry="2" width="12" height="12"/><rect class="c" x="210" y="18" rx="2" ry="2" width="12" height="12"/><rect class="c" x="210" y="34" rx="2" ry="2" width="12" height="12"/><rect class="c" x="210" y="50" rx="2" ry="2" width="12" height="12"/><rect class="c" x="210" y="66" rx="2" ry="2" width="12" height="12"/><rect class="c" x="210" y="82" rx="2" ry="2" width="12" height="12"/><rect class="c c6" x="210" y="98" rx="2" ry="2" width="12" height="12"/><rect class="c" x="226" y="2" rx="2" ry="2" width="12" height="12"/><rect class="c" x="226" y="18" rx="2" ry="2" width="12" height="12"/><rect class="c c7" x="226" y="34" rx="2" ry="2" width="12" height="12"/><rect class="c c8" x="226" y="50" rx="2" ry="2" width="12" height="12"/><rect class="c" x="226" y="66" rx="2" ry="2" width="12" height="12"/><rect class="c c9" x="226" y="82" rx="2" ry="2" width="12" height="12"/><rect class="c" x="226" y="98" rx="2" ry="2" width="12" height="12"/><rect class="c" x="242" y="2" rx="2" ry="2" width="12" height="12"/><rect class="c ca" x="242" y="18" rx="2" ry="2" width="12" height="12"/><rect class="c" x="242" y="34" rx="2" ry="2" width="12" height="12"/><rect class="c cb" x="242" y="50" rx="2" ry="2" width="12" height="12"/><rect class="c cc" x="242" y="66" rx="2" ry="2" width="12" height="12"/><rect class="c" x="242" y="82" rx="2" ry="2" width="12" height="12"/><rect class="c cd" x="242" y="98" rx="2" ry="2" width="12" height="12"/><rect class="c" x="258" y="2" rx="2" ry="2" width="12" height="12"/><rect class="c" x="258" y="18" rx="2" ry="2" width="12" height="12"/><rect class="c" x="258" y="34" rx="2" ry="2" width="12" height="12"/><rect class="c" x="258" y="50" rx="2" ry="2" width="12" height="12"/><rect class="c" x="258" y="66" rx="2" ry="2" width="12" height="12"/><rect class="c" x="258" y="82" rx="2" ry="2" width="12" height="12"/><rect class="c" x="258" y="98" rx="2" ry="2" width="12" height="12"/><rect class="c" x="274" y="2" rx="2" ry="2" width="12" height="12"/><rect class="c" x="274" y="18" rx="2" ry="2" width="12" height="12"/><rect class="c" x="274" y="34" rx="2" ry="2" width="12" height="12"/><rect class="c" x="274" y="50" rx="2" ry="2" width="12" height="12"/><rect class="c" x="274" y="66" rx="2" ry="2" width="12" height="12"/><rect class="c" x="274" y="82" rx="2" ry="2" width="12" height="12"/><rect class="c" x="274" y="98" rx="2" ry="2" width="12" height="12"/><rect class="c" x="290" y="2" rx="2" ry="2" width="12" height="12"/><rect class="c" x="290" y="18" rx="2" ry="2" width="12" height="12"/><rect class="c" x="290" y="34" rx="2" ry="2" width="12" height="12"/><rect class="c" x="290" y="50" rx="2" ry="2" width="12" height="12"/><rect class="c" x="290" y="66" rx="2" ry="2" width="12" height="12"/><rect class="c" x="290" y="82" rx="2" ry="2" width="12" height="12"/><rect class="c ce" x="290" y="98" rx="2" ry="2" width="12" height="12"/><rect class="c" x="306" y="2" rx="2" ry="2" width="12" height="12"/><rect class="c" x="306" y="18" rx="2" ry="2" width="12" height="12"/><rect class="c" x="306" y="34" rx="2" ry="2" width="12" height="12"/><rect class="c" x="306" y="50" rx="2" ry="2" width="12" height="12"/><rect class="c" x="306" y="66" rx="2" ry="2" width="12" height="12"/><rect class="c" x="306" y="82" rx="2" ry="2" width="12" height="12"/><rect class="c cf" x="306" y="98" rx="2" ry="2" width="12" height="12"/><rect class="c cg" x="322" y="2" rx="2" ry="2" width="12" height="12"/><rect class="c" x="322" y="18" rx="2" ry="2" width="12" height="12"/><rect class="c" x="322" y="34" rx="2" ry="2" width="12" height="12"/><rect class="c" x="322" y="50" rx="2" ry="2" width="12" height="12"/><rect class="c" x="322" y="66" rx="2" ry="2" width="12" height="12"/><rect class="c" x="322" y="82" rx="2" ry="2" width="12" height="12"/><rect class="c" x="322" y="98" rx="2" ry="2" width="12" height="12"/><rect class="c ch" x="338" y="2" rx="2" ry="2" width="12" height="12"/><rect class="c ci" x="338" y="18" rx="2" ry="2" width="12" height="12"/><rect class="c" x="338" y="34" rx="2" ry="2" width="12" height="12"/><rect class="c cj" x="338" y="50" rx="2" ry="2" width="12" height="12"/><rect class="c" x="338" y="66" rx="2" ry="2" width="12" height="12"/><rect class="c" x="338" y="82" rx="2" ry="2" width="12" height="12"/><rect class="c" x="338" y="98" rx="2" ry="2" width="12" height="12"/><rect class="c" x="354" y="2" rx="2" ry="2" width="12" height="12"/><rect class="c ck" x="354" y="18" rx="2" ry="2" width="12" height="12"/><rect class="c" x="354" y="34" rx="2" ry="2" width="12" height="12"/><rect class="c cl" x="354" y="50" rx="2" ry="2" width="12" height="12"/><rect class="c" x="354" y="66" rx="2" ry="2" width="12" height="12"/><rect class="c" x="354" y="82" rx="2" ry="2" width="12" height="12"/><rect class="c" x="354" y="98" rx="2" ry="2" width="12" height="12"/><rect class="c" x="370" y="2" rx="2" ry="2" width="12" height="12"/><rect class="c cm" x="370" y="18" rx="2" ry="2" width="12" height="12"/><rect class="c" x="370" y="34" rx="2" ry="2" width="12" height="12"/><rect class="c" x="370" y="50" rx="2" ry="2" width="12" height="12"/><rect class="c" x="370" y="66" rx="2" ry="2" width="12" height="12"/><rect class="c" x="370" y="82" rx="2" ry="2" width="12" height="12"/><rect class="c" x="370" y="98" rx="2" ry="2" width="12" height="12"/><rect class="c" x="386" y="2" rx="2" ry="2" width="12" height="12"/><rect class="c" x="386" y="18" rx="2" ry="2" width="12" height="12"/><rect class="c" x="386" y="34" rx="2" ry="2" width="12" height="12"/><rect class="c" x="386" y="50" rx="2" ry="2" width="12" height="12"/><rect class="c" x="386" y="66" rx="2" ry="2" width="12" height="12"/><rect class="c" x="386" y="82" rx="2" ry="2" width="12" height="12"/><rect class="c" x="386" y="98" rx="2" ry="2" width="12" height="12"/><rect class="c" x="402" y="2" rx="2" ry="2" width="12" height="12"/><rect class="c" x="402" y="18" rx="2" ry="2" width="12" height="12"/><rect class="c cn" x="402" y="34" rx="2" ry="2" width="12" height="12"/><rect class="c" x="402" y="50" rx="2" ry="2" width="12" height="12"/><rect class="c" x="402" y="66" rx="2" ry="2" width="12" height="12"/><rect class="c" x="402" y="82" rx="2" ry="2" width="12" height="12"/><rect class="c" x="402" y="98" rx="2" ry="2" width="12" height="12"/><rect class="c" x="418" y="2" rx="2" ry="2" width="12" height="12"/><rect class="c" x="418" y="18" rx="2" ry="2" width="12" height="12"/><rect class="c" x="418" y="34" rx="2" ry="2" width="12" height="12"/><rect class="c" x="418" y="50" rx="2" ry="2" width="12" height="12"/><rect class="c" x="418" y="66" rx="2" ry="2" width="12" height="12"/><rect class="c" x="418" y="82" rx="2" ry="2" width="12" height="12"/><rect class="c" x="418" y="98" rx="2" ry="2" width="12" height="12"/><rect class="c" x="434" y="2" rx="2" ry="2" width="12" height="12"/><rect class="c" x="434" y="18" rx="2" ry="2" width="12" height="12"/><rect class="c" x="434" y="34" rx="2" ry="2" width="12" height="12"/><rect class="c co" x="434" y="50" rx="2" ry="2" width="12" height="12"/><rect class="c" x="434" y="66" rx="2" ry="2" width="12" height="12"/><rect class="c" x="434" y="82" rx="2" ry="2" width="12" height="12"/><rect class="c" x="434" y="98" rx="2" ry="2" width="12" height="12"/><rect class="c" x="450" y="2" rx="2" ry="2" width="12" height="12"/><rect class="c" x="450" y="18" rx="2" ry="2" width="12" height="12"/><rect class="c" x="450" y="34" rx="2" ry="2" width="12" height="12"/><rect class="c" x="450" y="50" rx="2" ry="2" width="12" height="12"/><rect class="c" x="450" y="66" rx="2" ry="2" width="12" height="12"/><rect class="c" x="450" y="82" rx="2" ry="2" width="12" height="12"/><rect class="c" x="450" y="98" rx="2" ry="2" width="12" height="12"/><rect class="c" x="466" y="2" rx="2" ry="2" width="12" height="12"/><rect class="c" x="466" y="18" rx="2" ry="2" width="12" height="12"/><rect class="c" x="466" y="34" rx="2" ry="2" width="12" height="12"/><rect class="c" x="466" y="50" rx="2" ry="2" width="12" height="12"/><rect class="c" x="466" y="66" rx="2" ry="2" width="12" height="12"/><rect class="c" x="466" y="82" rx="2" ry="2" width="12" height="12"/><rect class="c" x="466" y="98" rx="2" ry="2" width="12" height="12"/><rect class="c" x="482" y="2" rx="2" ry="2" width="12" height="12"/><rect class="c" x="482" y="18" rx="2" ry="2" width="12" height="12"/><rect class="c" x="482" y="34" rx="2" ry="2" width="12" height="12"/><rect class="c" x="482" y="50" rx="2" ry="2" width="12" height="12"/><rect class="c" x="482" y="66" rx="2" ry="2" width="12" height="12"/><rect class="c" x="482" y="82" rx="2" ry="2" width="12" height="12"/><rect class="c" x="482" y="98" rx="2" ry="2" width="12" height="12"/><rect class="c" x="498" y="2" rx="2" ry="2" width="12" height="12"/><rect class="c" x="498" y="18" rx="2" ry="2" width="12" height="12"/><rect class="c" x="498" y="34" rx="2" ry="2" width="12" height="12"/><rect class="c" x="498" y="50" rx="2" ry="2" width="12" height="12"/><rect class="c" x="498" y="66" rx="2" ry="2" width="12" height="12"/><rect class="c" x="498" y="82" rx="2" ry="2" width="12" height="12"/><rect class="c" x="498" y="98" rx="2" ry="2" width="12" height="12"/><rect class="c" x="514" y="2" rx="2" ry="2" width="12" height="12"/><rect class="c" x="514" y="18" rx="2" ry="2" width="12" height="12"/><rect class="c" x="514" y="34" rx="2" ry="2" width="12" height="12"/><rect class="c" x="514" y="50" rx="2" ry="2" width="12" height="12"/><rect class="c" x="514" y="66" rx="2" ry="2" width="12" height="12"/><rect class="c" x="514" y="82" rx="2" ry="2" width="12" height="12"/><rect class="c" x="514" y="98" rx="2" ry="2" width="12" height="12"/><rect class="c" x="530" y="2" rx="2" ry="2" width="12" height="12"/><rect class="c" x="530" y="18" rx="2" ry="2" width="12" height="12"/><rect class="c" x="530" y="34" rx="2" ry="2" width="12" height="12"/><rect class="c" x="530" y="50" rx="2" ry="2" width="12" height="12"/><rect class="c" x="530" y="66" rx="2" ry="2" width="12" height="12"/><rect class="c" x="530" y="82" rx="2" ry="2" width="12" height="12"/><rect class="c" x="530" y="98" rx="2" ry="2" width="12" height="12"/><rect class="c" x="546" y="2" rx="2" ry="2" width="12" height="12"/><rect class="c" x="546" y="18" rx="2" ry="2" width="12" height="12"/><rect class="c" x="546" y="34" rx="2" ry="2" width="12" height="12"/><rect class="c" x="546" y="50" rx="2" ry="2" width="12" height="12"/><rect class="c" x="546" y="66" rx="2" ry="2" width="12" height="12"/><rect class="c" x="546" y="82" rx="2" ry="2" width="12" height="12"/><rect class="c" x="546" y="98" rx="2" ry="2" width="12" height="12"/><rect class="c" x="562" y="2" rx="2" ry="2" width="12" height="12"/><rect class="c cp" x="562" y="18" rx="2" ry="2" width="12" height="12"/><rect class="c cq" x="562" y="34" rx="2" ry="2" width="12" height="12"/><rect class="c" x="562" y="50" rx="2" ry="2" width="12" height="12"/><rect class="c" x="562" y="66" rx="2" ry="2" width="12" height="12"/><rect class="c" x="562" y="82" rx="2" ry="2" width="12" height="12"/><rect class="c" x="562" y="98" rx="2" ry="2" width="12" height="12"/><rect class="c" x="578" y="2" rx="2" ry="2" width="12" height="12"/><rect class="c" x="578" y="18" rx="2" ry="2" width="12" height="12"/><rect class="c" x="578" y="34" rx="2" ry="2" width="12" height="12"/><rect class="c" x="578" y="50" rx="2" ry="2" width="12" height="12"/><rect class="c" x="578" y="66" rx="2" ry="2" width="12" height="12"/><rect class="c" x="578" y="82" rx="2" ry="2" width="12" height="12"/><rect class="c" x="578" y="98" rx="2" ry="2" width="12" height="12"/><rect class="c" x="594" y="2" rx="2" ry="2" width="12" height="12"/><rect class="c" x="594" y="18" rx="2" ry="2" width="12" height="12"/><rect class="c" x="594" y="34" rx="2" ry="2" width="12" height="12"/><rect class="c" x="594" y="50" rx="2" ry="2" width="12" height="12"/><rect class="c" x="594" y="66" rx="2" ry="2" width="12" height="12"/><rect class="c" x="594" y="82" rx="2" ry="2" width="12" height="12"/><rect class="c" x="594" y="98" rx="2" ry="2" width="12" height="12"/><rect class="c" x="610" y="2" rx="2" ry="2" width="12" height="12"/><rect class="c" x="610" y="18" rx="2" ry="2" width="12" height="12"/><rect class="c" x="610" y="34" rx="2" ry="2" width="12" height="12"/><rect class="c" x="610" y="50" rx="2" ry="2" width="12" height="12"/><rect class="c" x="610" y="66" rx="2" ry="2" width="12" height="12"/><rect class="c" x="610" y="82" rx="2" ry="2" width="12" height="12"/><rect class="c" x="610" y="98" rx="2" ry="2" width="12" height="12"/><rect class="c" x="626" y="2" rx="2" ry="2" width="12" height="12"/><rect class="c" x="626" y="18" rx="2" ry="2" width="12" height="12"/><rect class="c" x="626" y="34" rx="2" ry="2" width="12" height="12"/><rect class="c" x="626" y="50" rx="2" ry="2" width="12" height="12"/><rect class="c" x="626" y="66" rx="2" ry="2" width="12" height="12"/><rect class="c" x="626" y="82" rx="2" ry="2" width="12" height="12"/><rect class="c" x="626" y="98" rx="2" ry="2" width="12" height="12"/><rect class="c" x="642" y="2" rx="2" ry="2" width="12" height="12"/><rect class="c" x="642" y="18" rx="2" ry="2" width="12" height="12"/><rect class="c" x="642" y="34" rx="2" ry="2" width="12" height="12"/><rect class="c" x="642" y="50" rx="2" ry="2" width="12" height="12"/><rect class="c" x="642" y="66" rx="2" ry="2" width="12" height="12"/><rect class="c" x="642" y="82" rx="2" ry="2" width="12" height="12"/><rect class="c" x="642" y="98" rx="2" ry="2" width="12" height="12"/><rect class="c" x="658" y="2" rx="2" ry="2" width="12" height="12"/><rect class="c" x="658" y="18" rx="2" ry="2" width="12" height="12"/><rect class="c" x="658" y="34" rx="2" ry="2" width="12" height="12"/><rect class="c" x="658" y="50" rx="2" ry="2" width="12" height="12"/><rect class="c" x="658" y="66" rx="2" ry="2" width="12" height="12"/><rect class="c" x="658" y="82" rx="2" ry="2" width="12" height="12"/><rect class="c" x="658" y="98" rx="2" ry="2" width="12" height="12"/><rect class="c" x="674" y="2" rx="2" ry="2" width="12" height="12"/><rect class="c" x="674" y="18" rx="2" ry="2" width="12" height="12"/><rect class="c" x="674" y="34" rx="2" ry="2" width="12" height="12"/><rect class="c" x="674" y="50" rx="2" ry="2" width="12" height="12"/><rect class="c" x="674" y="66" rx="2" ry="2" width="12" height="12"/><rect class="c" x="674" y="82" rx="2" ry="2" width="12" height="12"/><rect class="c" x="674" y="98" rx="2" ry="2" width="12" height="12"/><rect class="c" x="690" y="2" rx="2" ry="2" width="12" height="12"/><rect class="c" x="690" y="18" rx="2" ry="2" width="12" height="12"/><rect class="c" x="690" y="34" rx="2" ry="2" width="12" height="12"/><rect class="c" x="690" y="50" rx="2" ry="2" width="12" height="12"/><rect class="c" x="690" y="66" rx="2" ry="2" width="12" height="12"/><rect class="c" x="690" y="82" rx="2" ry="2" width="12" height="12"/><rect class="c" x="690" y="98" rx="2" ry="2" width="12" height="12"/><rect class="c" x="706" y="2" rx="2" ry="2" width="12" height="12"/><rect class="c" x="706" y="18" rx="2" ry="2" width="12" height="12"/><rect class="c" x="706" y="34" rx="2" ry="2" width="12" height="12"/><rect class="c" x="706" y="50" rx="2" ry="2" width="12" height="12"/><rect class="c" x="706" y="66" rx="2" ry="2" width="12" height="12"/><rect class="c" x="706" y="82" rx="2" ry="2" width="12" height="12"/><rect class="c" x="706" y="98" rx="2" ry="2" width="12" height="12"/><rect class="c" x="722" y="2" rx="2" ry="2" width="12" height="12"/><rect class="c" x="722" y="18" rx="2" ry="2" width="12" height="12"/><rect class="c" x="722" y="34" rx="2" ry="2" width="12" height="12"/><rect class="c" x="722" y="50" rx="2" ry="2" width="12" height="12"/><rect class="c" x="722" y="66" rx="2" ry="2" width="12" height="12"/><rect class="c" x="722" y="82" rx="2" ry="2" width="12" height="12"/><rect class="c" x="722" y="98" rx="2" ry="2" width="12" height="12"/><rect class="c" x="738" y="2" rx="2" ry="2" width="12" height="12"/><rect class="c" x="738" y="18" rx="2" ry="2" width="12" height="12"/><rect class="c" x="738" y="34" rx="2" ry="2" width="12" height="12"/><rect class="c" x="738" y="50" rx="2" ry="2" width="12" height="12"/><rect class="c" x="738" y="66" rx="2" ry="2" width="12" height="12"/><rect class="c" x="738" y="82" rx="2" ry="2" width="12" height="12"/><rect class="c" x="738" y="98" rx="2" ry="2" width="12" height="12"/><rect class="c" x="754" y="2" rx="2" ry="2" width="12" height="12"/><rect class="c" x="754" y="18" rx="2" ry="2" width="12" height="12"/><rect class="c" x="754" y="34" rx="2" ry="2" width="12" height="12"/><rect class="c" x="754" y="50" rx="2" ry="2" width="12" height="12"/><rect class="c cr" x="754" y="66" rx="2" ry="2" width="12" height="12"/><rect class="c" x="754" y="82" rx="2" ry="2" width="12" height="12"/><rect class="c" x="754" y="98" rx="2" ry="2" width="12" height="12"/><rect class="c" x="770" y="2" rx="2" ry="2" width="12" height="12"/><rect class="c" x="770" y="18" rx="2" ry="2" width="12" height="12"/><rect class="c" x="770" y="34" rx="2" ry="2" width="12" height="12"/><rect class="c" x="770" y="50" rx="2" ry="2" width="12" height="12"/><rect class="c cs" x="770" y="66" rx="2" ry="2" width="12" height="12"/><rect class="c" x="770" y="82" rx="2" ry="2" width="12" height="12"/><rect class="c" x="770" y="98" rx="2" ry="2" width="12" height="12"/><rect class="c" x="786" y="2" rx="2" ry="2" width="12" height="12"/><rect class="c" x="786" y="18" rx="2" ry="2" width="12" height="12"/><rect class="c" x="786" y="34" rx="2" ry="2" width="12" height="12"/><rect class="c" x="786" y="50" rx="2" ry="2" width="12" height="12"/><rect class="c" x="786" y="66" rx="2" ry="2" width="12" height="12"/><rect class="c" x="786" y="82" rx="2" ry="2" width="12" height="12"/><rect class="c" x="786" y="98" rx="2" ry="2" width="12" height="12"/><rect class="c" x="802" y="2" rx="2" ry="2" width="12" height="12"/><rect class="c" x="802" y="18" rx="2" ry="2" width="12" height="12"/><rect class="c" x="802" y="34" rx="2" ry="2" width="12" height="12"/><rect class="c ct" x="802" y="50" rx="2" ry="2" width="12" height="12"/><rect class="c cu" x="802" y="66" rx="2" ry="2" width="12" height="12"/><rect class="c" x="802" y="82" rx="2" ry="2" width="12" height="12"/><rect class="c" x="802" y="98" rx="2" ry="2" width="12" height="12"/><rect class="c" x="818" y="2" rx="2" ry="2" width="12" height="12"/><rect class="c" x="818" y="18" rx="2" ry="2" width="12" height="12"/><rect class="c" x="818" y="34" rx="2" ry="2" width="12" height="12"/><rect class="c" x="818" y="50" rx="2" ry="2" width="12" height="12"/><rect class="c" x="818" y="66" rx="2" ry="2" width="12" height="12"/><rect class="c" x="818" y="82" rx="2" ry="2" width="12" height="12"/><rect class="c" x="818" y="98" rx="2" ry="2" width="12" height="12"/><rect class="c" x="834" y="2" rx="2" ry="2" width="12" height="12"/><rect class="u u0" height="12" width="438.3" x="0.0" y="144"/><rect class="u u1" height="12" width="192.1" x="437.7" y="144"/><rect class="u u2" height="12" width="164.7" x="629.2" y="144"/><rect class="u u3" height="12" width="55.3" x="793.3" y="144"/><rect class="s s0" x="0.8" y="0.8" width="14.4" height="14.4" rx="4.5" ry="4.5"/><rect class="s s1" x="1.8" y="1.8" width="12.3" height="12.3" rx="4.1" ry="4.1"/><rect class="s s2" x="2.6" y="2.6" width="10.8" height="10.8" rx="3.6" ry="3.6"/><rect class="s s3" x="3.0" y="3.0" width="9.9" height="9.9" rx="3.3" ry="3.3"/></svg>