<svg viewBox="-16 -32 880 192" width="880" height="192" xmlns="http://www.w3.org/2000/svg"><desc>Generated with https://github.com/Platane/snk</desc><style>@keyframes c0{.63%{fill:var(--c1)}.65%,to{fill:var(--ce)}}@keyframes c1{8.67%{fill:var(--c1)}8.69%,to{fill:var(--ce)}}@keyframes c2{65.58%{fill:var(--c2)}65.6%,to{fill:var(--ce)}}@keyframes c3{9.96%{fill:var(--c1)}9.98%,to{fill:var(--ce)}}@keyframes c4{67.51%{fill:var(--c3)}67.53%,to{fill:var(--ce)}}@keyframes c5{63.98%{fill:var(--c2)}64%,to{fill:var(--ce)}}@keyframes c6{1.6%{fill:var(--c1)}1.62%,to{fill:var(--ce)}}@keyframes c7{63.01%{fill:var(--c2)}63.03%,to{fill:var(--ce)}}@keyframes c8{8.03%{fill:var(--c1)}8.05%,to{fill:var(--ce)}}@keyframes c9{12.53%{fill:var(--c1)}12.55%,to{fill:var(--ce)}}@keyframes ca{7.06%{fill:var(--c1)}7.08%,to{fill:var(--ce)}}@keyframes cb{2.24%{fill:var(--c1)}2.26%,to{fill:var(--ce)}}@keyframes cc{2.56%{fill:var(--c1)}2.58%,to{fill:var(--ce)}}@keyframes cd{6.74%{fill:var(--c1)}6.76%,to{fill:var(--ce)}}@keyframes ce{3.53%{fill:var(--c1)}3.55%,to{fill:var(--ce)}}@keyframes cf{61.08%{fill:var(--c2)}61.1%,to{fill:var(--ce)}}@keyframes cg{4.49%{fill:var(--c1)}4.51%,to{fill:var(--ce)}}@keyframes ch{4.81%{fill:var(--c1)}4.83%,to{fill:var(--ce)}}@keyframes ci{14.78%{fill:var(--c1)}14.8%,to{fill:var(--ce)}}@keyframes cj{17.35%{fill:var(--c1)}17.37%,to{fill:var(--ce)}}@keyframes ck{58.51%{fill:var(--c2)}58.53%,to{fill:var(--ce)}}@keyframes cl{16.07%{fill:var(--c1)}16.09%,to{fill:var(--ce)}}@keyframes cm{17.03%{fill:var(--c1)}17.05%,to{fill:var(--ce)}}@keyframes cn{18%{fill:var(--c1)}18.02%,to{fill:var(--ce)}}@keyframes co{22.18%{fill:var(--c1)}22.2%,to{fill:var(--ce)}}@keyframes cp{16.39%{fill:var(--c1)}16.41%,to{fill:var(--ce)}}@keyframes cq{16.71%{fill:var(--c1)}16.73%,to{fill:var(--ce)}}@keyframes cr{18.32%{fill:var(--c1)}18.34%,to{fill:var(--ce)}}@keyframes cs{73.94%{fill:var(--c3)}73.96%,to{fill:var(--ce)}}@keyframes ct{74.27%{fill:var(--c3)}74.29%,to{fill:var(--ce)}}@keyframes cu{72.34%{fill:var(--c3)}72.36%,to{fill:var(--ce)}}@keyframes cv{19.6%{fill:var(--c1)}19.62%,to{fill:var(--ce)}}@keyframes cw{56.58%{fill:var(--c2)}56.6%,to{fill:var(--ce)}}@keyframes cx{25.39%{fill:var(--c1)}25.41%,to{fill:var(--ce)}}@keyframes cy{26.04%{fill:var(--c1)}26.06%,to{fill:var(--ce)}}@keyframes cz{26.36%{fill:var(--c1)}26.38%,to{fill:var(--ce)}}@keyframes c10{51.76%{fill:var(--c2)}51.78%,to{fill:var(--ce)}}@keyframes c11{27.64%{fill:var(--c1)}27.66%,to{fill:var(--ce)}}@keyframes c12{27.96%{fill:var(--c1)}27.98%,to{fill:var(--ce)}}@keyframes c13{51.12%{fill:var(--c2)}51.14%,to{fill:var(--ce)}}@keyframes c14{31.5%{fill:var(--c1)}31.52%,to{fill:var(--ce)}}@keyframes c15{88.74%{fill:var(--c4)}88.76%,to{fill:var(--ce)}}@keyframes c16{28.61%{fill:var(--c1)}28.63%,to{fill:var(--ce)}}@keyframes c17{29.25%{fill:var(--c1)}29.27%,to{fill:var(--ce)}}@keyframes c18{49.51%{fill:var(--c2)}49.53%,to{fill:var(--ce)}}@keyframes c19{80.7%{fill:var(--c3)}80.72%,to{fill:var(--ce)}}@keyframes c1a{46.94%{fill:var(--c2)}46.96%,to{fill:var(--ce)}}@keyframes c1b{85.84%{fill:var(--c3)}85.86%,to{fill:var(--ce)}}@keyframes c1c{86.16%{fill:var(--c4)}86.18%,to{fill:var(--ce)}}@keyframes c1d{82.31%{fill:var(--c3)}82.33%,to{fill:var(--ce)}}@keyframes c1e{34.4%{fill:var(--c1)}34.42%,to{fill:var(--ce)}}@keyframes c1f{44.68%{fill:var(--c2)}44.7%,to{fill:var(--ce)}}@keyframes c1g{34.72%{fill:var(--c1)}34.74%,to{fill:var(--ce)}}@keyframes c1h{83.91%{fill:var(--c3)}83.93%,to{fill:var(--ce)}}@keyframes c1i{36.65%{fill:var(--c1)}36.67%,to{fill:var(--ce)}}@keyframes c1j{39.86%{fill:var(--c1)}39.88%,to{fill:var(--ce)}}@keyframes c1k{39.54%{fill:var(--c1)}39.56%,to{fill:var(--ce)}}@keyframes u0{.63%{transform:scale(0,1)}.65%,1.6%{transform:scale(.03,1)}1.62%,2.24%{transform:scale(.06,1)}2.26%,2.56%{transform:scale(.08,1)}2.58%,3.53%{transform:scale(.11,1)}3.55%,4.49%{transform:scale(.14,1)}4.51%,4.81%{transform:scale(.17,1)}4.83%,6.74%{transform:scale(.19,1)}6.76%,7.06%{transform:scale(.22,1)}7.08%,8.03%{transform:scale(.25,1)}8.05%,8.67%{transform:scale(.28,1)}8.69%,9.96%{transform:scale(.31,1)}12.53%,9.98%{transform:scale(.33,1)}12.55%,14.78%{transform:scale(.36,1)}14.8%,16.07%{transform:scale(.39,1)}16.09%,16.39%{transform:scale(.42,1)}16.41%,16.71%{transform:scale(.44,1)}16.73%,17.03%{transform:scale(.47,1)}17.05%,17.35%{transform:scale(.5,1)}17.37%,18%{transform:scale(.53,1)}18.02%,18.32%{transform:scale(.56,1)}18.34%,19.6%{transform:scale(.58,1)}19.62%,22.18%{transform:scale(.61,1)}22.2%,25.39%{transform:scale(.64,1)}25.41%,26.04%{transform:scale(.67,1)}26.06%,26.36%{transform:scale(.69,1)}26.38%,27.64%{transform:scale(.72,1)}27.66%,27.96%{transform:scale(.75,1)}27.98%,28.61%{transform:scale(.78,1)}28.63%,29.25%{transform:scale(.81,1)}29.27%,31.5%{transform:scale(.83,1)}31.52%,34.4%{transform:scale(.86,1)}34.42%,34.72%{transform:scale(.89,1)}34.74%,36.65%{transform:scale(.92,1)}36.67%,39.54%{transform:scale(.94,1)}39.56%,39.86%{transform:scale(.97,1)}39.88%,to{transform:scale(1,1)}}@keyframes u1{44.68%{transform:scale(0,1)}44.7%,46.94%{transform:scale(.09,1)}46.96%,49.51%{transform:scale(.18,1)}49.53%,51.12%{transform:scale(.27,1)}51.14%,51.76%{transform:scale(.36,1)}51.78%,56.58%{transform:scale(.45,1)}56.6%,58.51%{transform:scale(.55,1)}58.53%,61.08%{transform:scale(.64,1)}61.1%,63.01%{transform:scale(.73,1)}63.03%,63.98%{transform:scale(.82,1)}64%,65.58%{transform:scale(.91,1)}65.6%,to{transform:scale(1,1)}}@keyframes u2{67.51%{transform:scale(0,1)}67.53%,72.34%{transform:scale(.13,1)}72.36%,73.94%{transform:scale(.25,1)}73.96%,74.27%{transform:scale(.38,1)}74.29%,80.7%{transform:scale(.5,1)}80.72%,82.31%{transform:scale(.63,1)}82.33%,83.91%{transform:scale(.75,1)}83.93%,85.84%{transform:scale(.88,1)}85.86%,to{transform:scale(1,1)}}@keyframes u3{86.16%{transform:scale(0,1)}86.18%,88.74%{transform:scale(.5,1)}88.76%,to{transform:scale(1,1)}}@keyframes s0{0%,99.68%{transform:translate(0,-16px)}.96%{transform:translate(0,32px)}2.25%{transform:translate(64px,32px)}2.57%{transform:translate(64px,48px)}3.22%{transform:translate(96px,48px)}3.54%{transform:translate(96px,64px)}3.86%{transform:translate(112px,64px)}4.5%{transform:translate(112px,96px)}4.82%{transform:translate(128px,96px)}5.14%{transform:translate(128px,80px)}6.43%{transform:translate(64px,80px)}6.75%{transform:translate(64px,96px)}10.93%,7.07%{transform:translate(48px,96px)}7.72%{transform:translate(48px,64px)}9%{transform:translate(-16px,64px)}9.65%{transform:translate(-16px,96px)}12.54%{transform:translate(48px,16px)}15.76%{transform:translate(208px,16px)}16.08%{transform:translate(208px,32px)}16.4%,21.54%{transform:translate(224px,32px)}16.72%{transform:translate(224px,48px)}17.36%{transform:translate(192px,48px)}17.68%{transform:translate(192px,64px)}18.97%{transform:translate(256px,64px)}19.61%{transform:translate(256px,96px)}19.94%{transform:translate(240px,96px)}21.22%{transform:translate(240px,32px)}22.19%{transform:translate(224px,0)}25.72%{transform:translate(400px,0)}26.37%{transform:translate(400px,32px)}27.65%{transform:translate(464px,32px)}28.3%{transform:translate(464px,64px)}28.62%{transform:translate(480px,64px)}29.26%{transform:translate(480px,96px)}29.58%{transform:translate(496px,96px)}31.19%{transform:translate(496px,16px)}31.51%,88.1%{transform:translate(480px,16px)}31.83%{transform:translate(480px,32px)}34.08%{transform:translate(592px,32px)}34.41%,44.05%{transform:translate(592px,16px)}36.01%{transform:translate(672px,16px)}36.66%{transform:translate(672px,48px)}39.23%{transform:translate(800px,48px)}39.87%{transform:translate(800px,16px)}44.69%{transform:translate(592px,48px)}45.02%{transform:translate(608px,48px)}45.34%{transform:translate(608px,32px)}46.3%{transform:translate(560px,32px)}46.95%{transform:translate(560px,0)}47.59%{transform:translate(528px,0)}49.52%{transform:translate(528px,96px)}49.84%{transform:translate(512px,96px)}50.16%{transform:translate(512px,80px)}51.45%{transform:translate(448px,80px)}51.77%{transform:translate(448px,96px)}52.09%{transform:translate(432px,96px)}53.38%{transform:translate(432px,32px)}56.59%{transform:translate(272px,32px)}57.23%{transform:translate(272px,0)}60.45%{transform:translate(112px,0)}61.09%{transform:translate(112px,32px)}62.7%{transform:translate(32px,32px)}63.02%{transform:translate(32px,48px)}63.34%{transform:translate(16px,48px)}63.99%{transform:translate(16px,16px)}64.31%{transform:translate(0,16px)}65.59%{transform:translate(0,80px)}65.92%{transform:translate(16px,80px)}67.52%{transform:translate(16px,0)}72.03%{transform:translate(240px,0)}72.35%{transform:translate(240px,16px)}72.67%{transform:translate(224px,16px)}74.28%{transform:translate(224px,96px)}81.35%{transform:translate(576px,96px)}82.32%{transform:translate(576px,48px)}83.6%{transform:translate(640px,48px)}84.57%{transform:translate(640px,0)}85.85%{transform:translate(576px,0)}86.17%{transform:translate(576px,16px)}88.75%{transform:translate(480px,48px)}96.78%{transform:translate(80px,48px)}97.11%{transform:translate(80px,32px)}97.75%{transform:translate(48px,32px)}98.71%{transform:translate(48px,-16px)}}@keyframes s1{0%,99.68%{transform:translate(16px,-16px)}.32%{transform:translate(0,-16px)}1.29%{transform:translate(0,32px)}2.57%{transform:translate(64px,32px)}2.89%{transform:translate(64px,48px)}3.54%{transform:translate(96px,48px)}3.86%{transform:translate(96px,64px)}4.18%{transform:translate(112px,64px)}4.82%{transform:translate(112px,96px)}5.14%{transform:translate(128px,96px)}5.47%{transform:translate(128px,80px)}6.75%{transform:translate(64px,80px)}7.07%{transform:translate(64px,96px)}11.25%,7.4%{transform:translate(48px,96px)}8.04%{transform:translate(48px,64px)}9.32%{transform:translate(-16px,64px)}9.97%{transform:translate(-16px,96px)}12.86%{transform:translate(48px,16px)}16.08%{transform:translate(208px,16px)}16.4%{transform:translate(208px,32px)}16.72%,21.86%{transform:translate(224px,32px)}17.04%{transform:translate(224px,48px)}17.68%{transform:translate(192px,48px)}18.01%{transform:translate(192px,64px)}19.29%{transform:translate(256px,64px)}19.94%{transform:translate(256px,96px)}20.26%{transform:translate(240px,96px)}21.54%{transform:translate(240px,32px)}22.51%{transform:translate(224px,0)}26.05%{transform:translate(400px,0)}26.69%{transform:translate(400px,32px)}27.97%{transform:translate(464px,32px)}28.62%{transform:translate(464px,64px)}28.94%{transform:translate(480px,64px)}29.58%{transform:translate(480px,96px)}29.9%{transform:translate(496px,96px)}31.51%{transform:translate(496px,16px)}31.83%,88.42%{transform:translate(480px,16px)}32.15%{transform:translate(480px,32px)}34.41%{transform:translate(592px,32px)}34.73%,44.37%{transform:translate(592px,16px)}36.33%{transform:translate(672px,16px)}36.98%{transform:translate(672px,48px)}39.55%{transform:translate(800px,48px)}40.19%{transform:translate(800px,16px)}45.02%{transform:translate(592px,48px)}45.34%{transform:translate(608px,48px)}45.66%{transform:translate(608px,32px)}46.62%{transform:translate(560px,32px)}47.27%{transform:translate(560px,0)}47.91%{transform:translate(528px,0)}49.84%{transform:translate(528px,96px)}50.16%{transform:translate(512px,96px)}50.48%{transform:translate(512px,80px)}51.77%{transform:translate(448px,80px)}52.09%{transform:translate(448px,96px)}52.41%{transform:translate(432px,96px)}53.7%{transform:translate(432px,32px)}56.91%{transform:translate(272px,32px)}57.56%{transform:translate(272px,0)}60.77%{transform:translate(112px,0)}61.41%{transform:translate(112px,32px)}63.02%{transform:translate(32px,32px)}63.34%{transform:translate(32px,48px)}63.67%{transform:translate(16px,48px)}64.31%{transform:translate(16px,16px)}64.63%{transform:translate(0,16px)}65.92%{transform:translate(0,80px)}66.24%{transform:translate(16px,80px)}67.85%{transform:translate(16px,0)}72.35%{transform:translate(240px,0)}72.67%{transform:translate(240px,16px)}72.99%{transform:translate(224px,16px)}74.6%{transform:translate(224px,96px)}81.67%{transform:translate(576px,96px)}82.64%{transform:translate(576px,48px)}83.92%{transform:translate(640px,48px)}84.89%{transform:translate(640px,0)}86.17%{transform:translate(576px,0)}86.5%{transform:translate(576px,16px)}89.07%{transform:translate(480px,48px)}97.11%{transform:translate(80px,48px)}97.43%{transform:translate(80px,32px)}98.07%{transform:translate(48px,32px)}99.04%{transform:translate(48px,-16px)}}@keyframes s2{0%,99.68%{transform:translate(32px,-16px)}.64%{transform:translate(0,-16px)}1.61%{transform:translate(0,32px)}2.89%{transform:translate(64px,32px)}3.22%{transform:translate(64px,48px)}3.86%{transform:translate(96px,48px)}4.18%{transform:translate(96px,64px)}4.5%{transform:translate(112px,64px)}5.14%{transform:translate(112px,96px)}5.47%{transform:translate(128px,96px)}5.79%{transform:translate(128px,80px)}7.07%{transform:translate(64px,80px)}7.4%{transform:translate(64px,96px)}11.58%,7.72%{transform:translate(48px,96px)}8.36%{transform:translate(48px,64px)}9.65%{transform:translate(-16px,64px)}10.29%{transform:translate(-16px,96px)}13.18%{transform:translate(48px,16px)}16.4%{transform:translate(208px,16px)}16.72%{transform:translate(208px,32px)}17.04%,22.19%{transform:translate(224px,32px)}17.36%{transform:translate(224px,48px)}18.01%{transform:translate(192px,48px)}18.33%{transform:translate(192px,64px)}19.61%{transform:translate(256px,64px)}20.26%{transform:translate(256px,96px)}20.58%{transform:translate(240px,96px)}21.86%{transform:translate(240px,32px)}22.83%{transform:translate(224px,0)}26.37%{transform:translate(400px,0)}27.01%{transform:translate(400px,32px)}28.3%{transform:translate(464px,32px)}28.94%{transform:translate(464px,64px)}29.26%{transform:translate(480px,64px)}29.9%{transform:translate(480px,96px)}30.23%{transform:translate(496px,96px)}31.83%{transform:translate(496px,16px)}32.15%,88.75%{transform:translate(480px,16px)}32.48%{transform:translate(480px,32px)}34.73%{transform:translate(592px,32px)}35.05%,44.69%{transform:translate(592px,16px)}36.66%{transform:translate(672px,16px)}37.3%{transform:translate(672px,48px)}39.87%{transform:translate(800px,48px)}40.51%{transform:translate(800px,16px)}45.34%{transform:translate(592px,48px)}45.66%{transform:translate(608px,48px)}45.98%{transform:translate(608px,32px)}46.95%{transform:translate(560px,32px)}47.59%{transform:translate(560px,0)}48.23%{transform:translate(528px,0)}50.16%{transform:translate(528px,96px)}50.48%{transform:translate(512px,96px)}50.8%{transform:translate(512px,80px)}52.09%{transform:translate(448px,80px)}52.41%{transform:translate(448px,96px)}52.73%{transform:translate(432px,96px)}54.02%{transform:translate(432px,32px)}57.23%{transform:translate(272px,32px)}57.88%{transform:translate(272px,0)}61.09%{transform:translate(112px,0)}61.74%{transform:translate(112px,32px)}63.34%{transform:translate(32px,32px)}63.67%{transform:translate(32px,48px)}63.99%{transform:translate(16px,48px)}64.63%{transform:translate(16px,16px)}64.95%{transform:translate(0,16px)}66.24%{transform:translate(0,80px)}66.56%{transform:translate(16px,80px)}68.17%{transform:translate(16px,0)}72.67%{transform:translate(240px,0)}72.99%{transform:translate(240px,16px)}73.31%{transform:translate(224px,16px)}74.92%{transform:translate(224px,96px)}81.99%{transform:translate(576px,96px)}82.96%{transform:translate(576px,48px)}84.24%{transform:translate(640px,48px)}85.21%{transform:translate(640px,0)}86.5%{transform:translate(576px,0)}86.82%{transform:translate(576px,16px)}89.39%{transform:translate(480px,48px)}97.43%{transform:translate(80px,48px)}97.75%{transform:translate(80px,32px)}98.39%{transform:translate(48px,32px)}99.36%{transform:translate(48px,-16px)}}@keyframes s3{0%,99.68%{transform:translate(48px,-16px)}.96%{transform:translate(0,-16px)}1.93%{transform:translate(0,32px)}3.22%{transform:translate(64px,32px)}3.54%{transform:translate(64px,48px)}4.18%{transform:translate(96px,48px)}4.5%{transform:translate(96px,64px)}4.82%{transform:translate(112px,64px)}5.47%{transform:translate(112px,96px)}5.79%{transform:translate(128px,96px)}6.11%{transform:translate(128px,80px)}7.4%{transform:translate(64px,80px)}7.72%{transform:translate(64px,96px)}11.9%,8.04%{transform:translate(48px,96px)}8.68%{transform:translate(48px,64px)}9.97%{transform:translate(-16px,64px)}10.61%{transform:translate(-16px,96px)}13.5%{transform:translate(48px,16px)}16.72%{transform:translate(208px,16px)}17.04%{transform:translate(208px,32px)}17.36%,22.51%{transform:translate(224px,32px)}17.68%{transform:translate(224px,48px)}18.33%{transform:translate(192px,48px)}18.65%{transform:translate(192px,64px)}19.94%{transform:translate(256px,64px)}20.58%{transform:translate(256px,96px)}20.9%{transform:translate(240px,96px)}22.19%{transform:translate(240px,32px)}23.15%{transform:translate(224px,0)}26.69%{transform:translate(400px,0)}27.33%{transform:translate(400px,32px)}28.62%{transform:translate(464px,32px)}29.26%{transform:translate(464px,64px)}29.58%{transform:translate(480px,64px)}30.23%{transform:translate(480px,96px)}30.55%{transform:translate(496px,96px)}32.15%{transform:translate(496px,16px)}32.48%,89.07%{transform:translate(480px,16px)}32.8%{transform:translate(480px,32px)}35.05%{transform:translate(592px,32px)}35.37%,45.02%{transform:translate(592px,16px)}36.98%{transform:translate(672px,16px)}37.62%{transform:translate(672px,48px)}40.19%{transform:translate(800px,48px)}40.84%{transform:translate(800px,16px)}45.66%{transform:translate(592px,48px)}45.98%{transform:translate(608px,48px)}46.3%{transform:translate(608px,32px)}47.27%{transform:translate(560px,32px)}47.91%{transform:translate(560px,0)}48.55%{transform:translate(528px,0)}50.48%{transform:translate(528px,96px)}50.8%{transform:translate(512px,96px)}51.13%{transform:translate(512px,80px)}52.41%{transform:translate(448px,80px)}52.73%{transform:translate(448px,96px)}53.05%{transform:translate(432px,96px)}54.34%{transform:translate(432px,32px)}57.56%{transform:translate(272px,32px)}58.2%{transform:translate(272px,0)}61.41%{transform:translate(112px,0)}62.06%{transform:translate(112px,32px)}63.67%{transform:translate(32px,32px)}63.99%{transform:translate(32px,48px)}64.31%{transform:translate(16px,48px)}64.95%{transform:translate(16px,16px)}65.27%{transform:translate(0,16px)}66.56%{transform:translate(0,80px)}66.88%{transform:translate(16px,80px)}68.49%{transform:translate(16px,0)}72.99%{transform:translate(240px,0)}73.31%{transform:translate(240px,16px)}73.63%{transform:translate(224px,16px)}75.24%{transform:translate(224px,96px)}82.32%{transform:translate(576px,96px)}83.28%{transform:translate(576px,48px)}84.57%{transform:translate(640px,48px)}85.53%{transform:translate(640px,0)}86.82%{transform:translate(576px,0)}87.14%{transform:translate(576px,16px)}89.71%{transform:translate(480px,48px)}97.75%{transform:translate(80px,48px)}98.07%{transform:translate(80px,32px)}98.71%{transform:translate(48px,32px)}}:root{--cb:#1b1f230a;--cs:purple;--ce:#ebedf0;--c0:#ebedf0;--c1:#9be9a8;--c2:#40c463;--c3:#30a14e;--c4:#216e39}@media (prefers-color-scheme:dark){:root{--cb:#1b1f230a;--cs:purple;--ce:#161b22;--c1:#01311f;--c2:#034525;--c3:#0f6d31;--c4:#00c647}}.c{shape-rendering:geometricPrecision;fill:var(--ce);stroke-width:1px;stroke:var(--cb);animation:none 31100ms linear infinite}.c.c0,.c.c1{fill:var(--c1);animation-name:c0}.c.c1{animation-name:c1}.c.c2{fill:var(--c2);animation-name:c2}.c.c3{fill:var(--c1);animation-name:c3}.c.c4{fill:var(--c3);animation-name:c4}.c.c5{fill:var(--c2);animation-name:c5}.c.c6{fill:var(--c1);animation-name:c6}.c.c7{fill:var(--c2);animation-name:c7}.c.c8{fill:var(--c1);animation-name:c8}.c.c9,.c.ca,.c.cb{fill:var(--c1);animation-name:c9}.c.ca,.c.cb{animation-name:ca}.c.cb{animation-name:cb}.c.cc,.c.cd,.c.ce{fill:var(--c1);animation-name:cc}.c.cd,.c.ce{animation-name:cd}.c.ce{animation-name:ce}.c.cf{fill:var(--c2);animation-name:cf}.c.cg{fill:var(--c1);animation-name:cg}.c.ch,.c.ci,.c.cj{fill:var(--c1);animation-name:ch}.c.ci,.c.cj{animation-name:ci}.c.cj{animation-name:cj}.c.ck{fill:var(--c2);animation-name:ck}.c.cl{fill:var(--c1);animation-name:cl}.c.cm,.c.cn,.c.co{fill:var(--c1);animation-name:cm}.c.cn,.c.co{animation-name:cn}.c.co{animation-name:co}.c.cp,.c.cq,.c.cr{fill:var(--c1);animation-name:cp}.c.cq,.c.cr{animation-name:cq}.c.cr{animation-name:cr}.c.cs,.c.ct,.c.cu{fill:var(--c3);animation-name:cs}.c.ct,.c.cu{animation-name:ct}.c.cu{animation-name:cu}.c.cv{fill:var(--c1);animation-name:cv}.c.cw{fill:var(--c2);animation-name:cw}.c.cx,.c.cy,.c.cz{fill:var(--c1);animation-name:cx}.c.cy,.c.cz{animation-name:cy}.c.cz{animation-name:cz}.c.c10{fill:var(--c2);animation-name:c10}.c.c11,.c.c12{fill:var(--c1);animation-name:c11}.c.c12{animation-name:c12}.c.c13{fill:var(--c2);animation-name:c13}.c.c14{fill:var(--c1);animation-name:c14}.c.c15{fill:var(--c4);animation-name:c15}.c.c16,.c.c17{fill:var(--c1);animation-name:c16}.c.c17{animation-name:c17}.c.c18{fill:var(--c2);animation-name:c18}.c.c19{fill:var(--c3);animation-name:c19}.c.c1a{fill:var(--c2);animation-name:c1a}.c.c1b{fill:var(--c3);animation-name:c1b}.c.c1c{fill:var(--c4);animation-name:c1c}.c.c1d{fill:var(--c3);animation-name:c1d}.c.c1e{fill:var(--c1);animation-name:c1e}.c.c1f{fill:var(--c2);animation-name:c1f}.c.c1g{fill:var(--c1);animation-name:c1g}.c.c1h{fill:var(--c3);animation-name:c1h}.c.c1i,.c.c1j,.c.c1k{fill:var(--c1);animation-name:c1i}.c.c1j,.c.c1k{animation-name:c1j}.c.c1k{animation-name:c1k}.s,.u{animation:none linear 31100ms infinite}.u,.u.u0{transform-origin:0 0}.u{transform:scale(0,1)}.u.u0{fill:var(--c1);animation-name:u0}.u.u1{fill:var(--c2);animation-name:u1;transform-origin:535.6px 0}.u.u2{fill:var(--c3);animation-name:u2;transform-origin:699.2px 0}.u.u3{fill:var(--c4);animation-name:u3;transform-origin:818.2px 0}.s{shape-rendering:geometricPrecision;fill:var(--cs)}.s.s0{transform:translate(0,-16px);animation-name:s0}.s.s1{transform:translate(16px,-16px);animation-name:s1}.s.s2{transform:translate(32px,-16px);animation-name:s2}.s.s3{transform:translate(48px,-16px);animation-name:s3}</style><rect class="c" x="2" y="2" rx="2" ry="2" width="12" height="12"/><rect class="c c0" x="2" y="18" rx="2" ry="2" width="12" height="12"/><rect class="c" x="2" y="34" rx="2" ry="2" width="12" height="12"/><rect class="c" x="2" y="50" rx="2" ry="2" width="12" height="12"/><rect class="c c1" x="2" y="66" rx="2" ry="2" width="12" height="12"/><rect class="c c2" x="2" y="82" rx="2" ry="2" width="12" height="12"/><rect class="c c3" x="2" y="98" rx="2" ry="2" width="12" height="12"/><rect class="c c4" x="18" y="2" rx="2" ry="2" width="12" height="12"/><rect class="c c5" x="18" y="18" rx="2" ry="2" width="12" height="12"/><rect class="c" x="18" y="34" rx="2" ry="2" width="12" height="12"/><rect class="c" x="18" y="50" rx="2" ry="2" width="12" height="12"/><rect class="c" x="18" y="66" rx="2" ry="2" width="12" height="12"/><rect class="c" x="18" y="82" rx="2" ry="2" width="12" height="12"/><rect class="c" x="18" y="98" rx="2" ry="2" width="12" height="12"/><rect class="c" x="34" y="2" rx="2" ry="2" width="12" height="12"/><rect class="c" x="34" y="18" rx="2" ry="2" width="12" height="12"/><rect class="c c6" x="34" y="34" rx="2" ry="2" width="12" height="12"/><rect class="c c7" x="34" y="50" rx="2" ry="2" width="12" height="12"/><rect class="c c8" x="34" y="66" rx="2" ry="2" width="12" height="12"/><rect class="c" x="34" y="82" rx="2" ry="2" width="12" height="12"/><rect class="c" x="34" y="98" rx="2" ry="2" width="12" height="12"/><rect class="c" x="50" y="2" rx="2" ry="2" width="12" height="12"/><rect class="c c9" x="50" y="18" rx="2" ry="2" width="12" height="12"/><rect class="c" x="50" y="34" rx="2" ry="2" width="12" height="12"/><rect class="c" x="50" y="50" rx="2" ry="2" width="12" height="12"/><rect class="c" x="50" y="66" rx="2" ry="2" width="12" height="12"/><rect class="c" x="50" y="82" rx="2" ry="2" width="12" height="12"/><rect class="c ca" x="50" y="98" rx="2" ry="2" width="12" height="12"/><rect class="c" x="66" y="2" rx="2" ry="2" width="12" height="12"/><rect class="c" x="66" y="18" rx="2" ry="2" width="12" height="12"/><rect class="c cb" x="66" y="34" rx="2" ry="2" width="12" height="12"/><rect class="c cc" x="66" y="50" rx="2" ry="2" width="12" height="12"/><rect class="c" x="66" y="66" rx="2" ry="2" width="12" height="12"/><rect class="c" x="66" y="82" rx="2" ry="2" width="12" height="12"/><rect class="c cd" x="66" y="98" rx="2" ry="2" width="12" height="12"/><rect class="c" x="82" y="2" rx="2" ry="2" width="12" height="12"/><rect class="c" x="82" y="18" rx="2" ry="2" width="12" height="12"/><rect class="c" x="82" y="34" rx="2" ry="2" width="12" height="12"/><rect class="c" x="82" y="50" rx="2" ry="2" width="12" height="12"/><rect class="c" x="82" y="66" rx="2" ry="2" width="12" height="12"/><rect class="c" x="82" y="82" rx="2" ry="2" width="12" height="12"/><rect class="c" x="82" y="98" rx="2" ry="2" width="12" height="12"/><rect class="c" x="98" y="2" rx="2" ry="2" width="12" height="12"/><rect class="c" x="98" y="18" rx="2" ry="2" width="12" height="12"/><rect class="c" x="98" y="34" rx="2" ry="2" width="12" height="12"/><rect class="c" x="98" y="50" rx="2" ry="2" width="12" height="12"/><rect class="c ce" x="98" y="66" rx="2" ry="2" width="12" height="12"/><rect class="c" x="98" y="82" rx="2" ry="2" width="12" height="12"/><rect class="c" x="98" y="98" rx="2" ry="2" width="12" height="12"/><rect class="c" x="114" y="2" rx="2" ry="2" width="12" height="12"/><rect class="c" x="114" y="18" rx="2" ry="2" width="12" height="12"/><rect class="c cf" x="114" y="34" rx="2" ry="2" width="12" height="12"/><rect class="c" x="114" y="50" rx="2" ry="2" width="12" height="12"/><rect class="c" x="114" y="66" rx="2" ry="2" width="12" height="12"/><rect class="c" x="114" y="82" rx="2" ry="2" width="12" height="12"/><rect class="c cg" x="114" y="98" rx="2" ry="2" width="12" height="12"/><rect class="c" x="130" y="2" rx="2" ry="2" width="12" height="12"/><rect class="c" x="130" y="18" rx="2" ry="2" width="12" height="12"/><rect class="c" x="130" y="34" rx="2" ry="2" width="12" height="12"/><rect class="c" x="130" y="50" rx="2" ry="2" width="12" height="12"/><rect class="c" x="130" y="66" rx="2" ry="2" width="12" height="12"/><rect class="c" x="130" y="82" rx="2" ry="2" width="12" height="12"/><rect class="c ch" x="130" y="98" rx="2" ry="2" width="12" height="12"/><rect class="c" x="146" y="2" rx="2" ry="2" width="12" height="12"/><rect class="c" x="146" y="18" rx="2" ry="2" width="12" height="12"/><rect class="c" x="146" y="34" rx="2" ry="2" width="12" height="12"/><rect class="c" x="146" y="50" rx="2" ry="2" width="12" height="12"/><rect class="c" x="146" y="66" rx="2" ry="2" width="12" height="12"/><rect class="c" x="146" y="82" rx="2" ry="2" width="12" height="12"/><rect class="c" x="146" y="98" rx="2" ry="2" width="12" height="12"/><rect class="c" x="162" y="2" rx="2" ry="2" width="12" height="12"/><rect class="c ci" x="162" y="18" rx="2" ry="2" width="12" height="12"/><rect class="c" x="162" y="34" rx="2" ry="2" width="12" height="12"/><rect class="c" x="162" y="50" rx="2" ry="2" width="12" height="12"/><rect class="c" x="162" y="66" rx="2" ry="2" width="12" height="12"/><rect class="c" x="162" y="82" rx="2" ry="2" width="12" height="12"/><rect class="c" x="162" y="98" rx="2" ry="2" width="12" height="12"/><rect class="c" x="178" y="2" rx="2" ry="2" width="12" height="12"/><rect class="c" x="178" y="18" rx="2" ry="2" width="12" height="12"/><rect class="c" x="178" y="34" rx="2" ry="2" width="12" height="12"/><rect class="c" x="178" y="50" rx="2" ry="2" width="12" height="12"/><rect class="c" x="178" y="66" rx="2" ry="2" width="12" height="12"/><rect class="c" x="178" y="82" rx="2" ry="2" width="12" height="12"/><rect class="c" x="178" y="98" rx="2" ry="2" width="12" height="12"/><rect class="c" x="194" y="2" rx="2" ry="2" width="12" height="12"/><rect class="c" x="194" y="18" rx="2" ry="2" width="12" height="12"/><rect class="c" x="194" y="34" rx="2" ry="2" width="12" height="12"/><rect class="c cj" x="194" y="50" rx="2" ry="2" width="12" height="12"/><rect class="c" x="194" y="66" rx="2" ry="2" width="12" height="12"/><rect class="c" x="194" y="82" rx="2" ry="2" width="12" height="12"/><rect class="c" x="194" y="98" rx="2" ry="2" width="12" height="12"/><rect class="c ck" x="210" y="2" rx="2" ry="2" width="12" height="12"/><rect class="c" x="210" y="18" rx="2" ry="2" width="12" height="12"/><rect class="c cl" x="210" y="34" rx="2" ry="2" width="12" height="12"/><rect class="c cm" x="210" y="50" rx="2" ry="2" width="12" height="12"/><rect class="c cn" x="210" y="66" rx="2" ry="2" width="12" height="12"/><rect class="c" x="210" y="82" rx="2" ry="2" width="12" height="12"/><rect class="c" x="210" y="98" rx="2" ry="2" width="12" height="12"/><rect class="c co" x="226" y="2" rx="2" ry="2" width="12" height="12"/><rect class="c" x="226" y="18" rx="2" ry="2" width="12" height="12"/><rect class="c cp" x="226" y="34" rx="2" ry="2" width="12" height="12"/><rect class="c cq" x="226" y="50" rx="2" ry="2" width="12" height="12"/><rect class="c cr" x="226" y="66" rx="2" ry="2" width="12" height="12"/><rect class="c cs" x="226" y="82" rx="2" ry="2" width="12" height="12"/><rect class="c ct" x="226" y="98" rx="2" ry="2" width="12" height="12"/><rect class="c" x="242" y="2" rx="2" ry="2" width="12" height="12"/><rect class="c cu" x="242" y="18" rx="2" ry="2" width="12" height="12"/><rect class="c" x="242" y="34" rx="2" ry="2" width="12" height="12"/><rect class="c" x="242" y="50" rx="2" ry="2" width="12" height="12"/><rect class="c" x="242" y="66" rx="2" ry="2" width="12" height="12"/><rect class="c" x="242" y="82" rx="2" ry="2" width="12" height="12"/><rect class="c" x="242" y="98" rx="2" ry="2" width="12" height="12"/><rect class="c" x="258" y="2" rx="2" ry="2" width="12" height="12"/><rect class="c" x="258" y="18" rx="2" ry="2" width="12" height="12"/><rect class="c" x="258" y="34" rx="2" ry="2" width="12" height="12"/><rect class="c" x="258" y="50" rx="2" ry="2" width="12" height="12"/><rect class="c" x="258" y="66" rx="2" ry="2" width="12" height="12"/><rect class="c" x="258" y="82" rx="2" ry="2" width="12" height="12"/><rect class="c cv" x="258" y="98" rx="2" ry="2" width="12" height="12"/><rect class="c" x="274" y="2" rx="2" ry="2" width="12" height="12"/><rect class="c" x="274" y="18" rx="2" ry="2" width="12" height="12"/><rect class="c cw" x="274" y="34" rx="2" ry="2" width="12" height="12"/><rect class="c" x="274" y="50" rx="2" ry="2" width="12" height="12"/><rect class="c" x="274" y="66" rx="2" ry="2" width="12" height="12"/><rect class="c" x="274" y="82" rx="2" ry="2" width="12" height="12"/><rect class="c" x="274" y="98" rx="2" ry="2" width="12" height="12"/><rect class="c" x="290" y="2" rx="2" ry="2" width="12" height="12"/><rect class="c" x="290" y="18" rx="2" ry="2" width="12" height="12"/><rect class="c" x="290" y="34" rx="2" ry="2" width="12" height="12"/><rect class="c" x="290" y="50" rx="2" ry="2" width="12" height="12"/><rect class="c" x="290" y="66" rx="2" ry="2" width="12" height="12"/><rect class="c" x="290" y="82" rx="2" ry="2" width="12" height="12"/><rect class="c" x="290" y="98" rx="2" ry="2" width="12" height="12"/><rect class="c" x="306" y="2" rx="2" ry="2" width="12" height="12"/><rect class="c" x="306" y="18" rx="2" ry="2" width="12" height="12"/><rect class="c" x="306" y="34" rx="2" ry="2" width="12" height="12"/><rect class="c" x="306" y="50" rx="2" ry="2" width="12" height="12"/><rect class="c" x="306" y="66" rx="2" ry="2" width="12" height="12"/><rect class="c" x="306" y="82" rx="2" ry="2" width="12" height="12"/><rect class="c" x="306" y="98" rx="2" ry="2" width="12" height="12"/><rect class="c" x="322" y="2" rx="2" ry="2" width="12" height="12"/><rect class="c" x="322" y="18" rx="2" ry="2" width="12" height="12"/><rect class="c" x="322" y="34" rx="2" ry="2" width="12" height="12"/><rect class="c" x="322" y="50" rx="2" ry="2" width="12" height="12"/><rect class="c" x="322" y="66" rx="2" ry="2" width="12" height="12"/><rect class="c" x="322" y="82" rx="2" ry="2" width="12" height="12"/><rect class="c" x="322" y="98" rx="2" ry="2" width="12" height="12"/><rect class="c" x="338" y="2" rx="2" ry="2" width="12" height="12"/><rect class="c" x="338" y="18" rx="2" ry="2" width="12" height="12"/><rect class="c" x="338" y="34" rx="2" ry="2" width="12" height="12"/><rect class="c" x="338" y="50" rx="2" ry="2" width="12" height="12"/><rect class="c" x="338" y="66" rx="2" ry="2" width="12" height="12"/><rect class="c" x="338" y="82" rx="2" ry="2" width="12" height="12"/><rect class="c" x="338" y="98" rx="2" ry="2" width="12" height="12"/><rect class="c" x="354" y="2" rx="2" ry="2" width="12" height="12"/><rect class="c" x="354" y="18" rx="2" ry="2" width="12" height="12"/><rect class="c" x="354" y="34" rx="2" ry="2" width="12" height="12"/><rect class="c" x="354" y="50" rx="2" ry="2" width="12" height="12"/><rect class="c" x="354" y="66" rx="2" ry="2" width="12" height="12"/><rect class="c" x="354" y="82" rx="2" ry="2" width="12" height="12"/><rect class="c" x="354" y="98" rx="2" ry="2" width="12" height="12"/><rect class="c" x="370" y="2" rx="2" ry="2" width="12" height="12"/><rect class="c" x="370" y="18" rx="2" ry="2" width="12" height="12"/><rect class="c" x="370" y="34" rx="2" ry="2" width="12" height="12"/><rect class="c" x="370" y="50" rx="2" ry="2" width="12" height="12"/><rect class="c" x="370" y="66" rx="2" ry="2" width="12" height="12"/><rect class="c" x="370" y="82" rx="2" ry="2" width="12" height="12"/><rect class="c" x="370" y="98" rx="2" ry="2" width="12" height="12"/><rect class="c cx" x="386" y="2" rx="2" ry="2" width="12" height="12"/><rect class="c" x="386" y="18" rx="2" ry="2" width="12" height="12"/><rect class="c" x="386" y="34" rx="2" ry="2" width="12" height="12"/><rect class="c" x="386" y="50" rx="2" ry="2" width="12" height="12"/><rect class="c" x="386" y="66" rx="2" ry="2" width="12" height="12"/><rect class="c" x="386" y="82" rx="2" ry="2" width="12" height="12"/><rect class="c" x="386" y="98" rx="2" ry="2" width="12" height="12"/><rect class="c" x="402" y="2" rx="2" ry="2" width="12" height="12"/><rect class="c cy" x="402" y="18" rx="2" ry="2" width="12" height="12"/><rect class="c cz" x="402" y="34" rx="2" ry="2" width="12" height="12"/><rect class="c" x="402" y="50" rx="2" ry="2" width="12" height="12"/><rect class="c" x="402" y="66" rx="2" ry="2" width="12" height="12"/><rect class="c" x="402" y="82" rx="2" ry="2" width="12" height="12"/><rect class="c" x="402" y="98" rx="2" ry="2" width="12" height="12"/><rect class="c" x="418" y="2" rx="2" ry="2" width="12" height="12"/><rect class="c" x="418" y="18" rx="2" ry="2" width="12" height="12"/><rect class="c" x="418" y="34" rx="2" ry="2" width="12" height="12"/><rect class="c" x="418" y="50" rx="2" ry="2" width="12" height="12"/><rect class="c" x="418" y="66" rx="2" ry="2" width="12" height="12"/><rect class="c" x="418" y="82" rx="2" ry="2" width="12" height="12"/><rect class="c" x="418" y="98" rx="2" ry="2" width="12" height="12"/><rect class="c" x="434" y="2" rx="2" ry="2" width="12" height="12"/><rect class="c" x="434" y="18" rx="2" ry="2" width="12" height="12"/><rect class="c" x="434" y="34" rx="2" ry="2" width="12" height="12"/><rect class="c" x="434" y="50" rx="2" ry="2" width="12" height="12"/><rect class="c" x="434" y="66" rx="2" ry="2" width="12" height="12"/><rect class="c" x="434" y="82" rx="2" ry="2" width="12" height="12"/><rect class="c" x="434" y="98" rx="2" ry="2" width="12" height="12"/><rect class="c" x="450" y="2" rx="2" ry="2" width="12" height="12"/><rect class="c" x="450" y="18" rx="2" ry="2" width="12" height="12"/><rect class="c" x="450" y="34" rx="2" ry="2" width="12" height="12"/><rect class="c" x="450" y="50" rx="2" ry="2" width="12" height="12"/><rect class="c" x="450" y="66" rx="2" ry="2" width="12" height="12"/><rect class="c" x="450" y="82" rx="2" ry="2" width="12" height="12"/><rect class="c c10" x="450" y="98" rx="2" ry="2" width="12" height="12"/><rect class="c" x="466" y="2" rx="2" ry="2" width="12" height="12"/><rect class="c" x="466" y="18" rx="2" ry="2" width="12" height="12"/><rect class="c c11" x="466" y="34" rx="2" ry="2" width="12" height="12"/><rect class="c c12" x="466" y="50" rx="2" ry="2" width="12" height="12"/><rect class="c" x="466" y="66" rx="2" ry="2" width="12" height="12"/><rect class="c c13" x="466" y="82" rx="2" ry="2" width="12" height="12"/><rect class="c" x="466" y="98" rx="2" ry="2" width="12" height="12"/><rect class="c" x="482" y="2" rx="2" ry="2" width="12" height="12"/><rect class="c c14" x="482" y="18" rx="2" ry="2" width="12" height="12"/><rect class="c" x="482" y="34" rx="2" ry="2" width="12" height="12"/><rect class="c c15" x="482" y="50" rx="2" ry="2" width="12" height="12"/><rect class="c c16" x="482" y="66" rx="2" ry="2" width="12" height="12"/><rect class="c" x="482" y="82" rx="2" ry="2" width="12" height="12"/><rect class="c c17" x="482" y="98" rx="2" ry="2" width="12" height="12"/><rect class="c" x="498" y="2" rx="2" ry="2" width="12" height="12"/><rect class="c" x="498" y="18" rx="2" ry="2" width="12" height="12"/><rect class="c" x="498" y="34" rx="2" ry="2" width="12" height="12"/><rect class="c" x="498" y="50" rx="2" ry="2" width="12" height="12"/><rect class="c" x="498" y="66" rx="2" ry="2" width="12" height="12"/><rect class="c" x="498" y="82" rx="2" ry="2" width="12" height="12"/><rect class="c" x="498" y="98" rx="2" ry="2" width="12" height="12"/><rect class="c" x="514" y="2" rx="2" ry="2" width="12" height="12"/><rect class="c" x="514" y="18" rx="2" ry="2" width="12" height="12"/><rect class="c" x="514" y="34" rx="2" ry="2" width="12" height="12"/><rect class="c" x="514" y="50" rx="2" ry="2" width="12" height="12"/><rect class="c" x="514" y="66" rx="2" ry="2" width="12" height="12"/><rect class="c" x="514" y="82" rx="2" ry="2" width="12" height="12"/><rect class="c" x="514" y="98" rx="2" ry="2" width="12" height="12"/><rect class="c" x="530" y="2" rx="2" ry="2" width="12" height="12"/><rect class="c" x="530" y="18" rx="2" ry="2" width="12" height="12"/><rect class="c" x="530" y="34" rx="2" ry="2" width="12" height="12"/><rect class="c" x="530" y="50" rx="2" ry="2" width="12" height="12"/><rect class="c" x="530" y="66" rx="2" ry="2" width="12" height="12"/><rect class="c" x="530" y="82" rx="2" ry="2" width="12" height="12"/><rect class="c c18" x="530" y="98" rx="2" ry="2" width="12" height="12"/><rect class="c" x="546" y="2" rx="2" ry="2" width="12" height="12"/><rect class="c" x="546" y="18" rx="2" ry="2" width="12" height="12"/><rect class="c" x="546" y="34" rx="2" ry="2" width="12" height="12"/><rect class="c" x="546" y="50" rx="2" ry="2" width="12" height="12"/><rect class="c" x="546" y="66" rx="2" ry="2" width="12" height="12"/><rect class="c" x="546" y="82" rx="2" ry="2" width="12" height="12"/><rect class="c c19" x="546" y="98" rx="2" ry="2" width="12" height="12"/><rect class="c c1a" x="562" y="2" rx="2" ry="2" width="12" height="12"/><rect class="c" x="562" y="18" rx="2" ry="2" width="12" height="12"/><rect class="c" x="562" y="34" rx="2" ry="2" width="12" height="12"/><rect class="c" x="562" y="50" rx="2" ry="2" width="12" height="12"/><rect class="c" x="562" y="66" rx="2" ry="2" width="12" height="12"/><rect class="c" x="562" y="82" rx="2" ry="2" width="12" height="12"/><rect class="c" x="562" y="98" rx="2" ry="2" width="12" height="12"/><rect class="c c1b" x="578" y="2" rx="2" ry="2" width="12" height="12"/><rect class="c c1c" x="578" y="18" rx="2" ry="2" width="12" height="12"/><rect class="c" x="578" y="34" rx="2" ry="2" width="12" height="12"/><rect class="c c1d" x="578" y="50" rx="2" ry="2" width="12" height="12"/><rect class="c" x="578" y="66" rx="2" ry="2" width="12" height="12"/><rect class="c" x="578" y="82" rx="2" ry="2" width="12" height="12"/><rect class="c" x="578" y="98" rx="2" ry="2" width="12" height="12"/><rect class="c" x="594" y="2" rx="2" ry="2" width="12" height="12"/><rect class="c c1e" x="594" y="18" rx="2" ry="2" width="12" height="12"/><rect class="c" x="594" y="34" rx="2" ry="2" width="12" height="12"/><rect class="c c1f" x="594" y="50" rx="2" ry="2" width="12" height="12"/><rect class="c" x="594" y="66" rx="2" ry="2" width="12" height="12"/><rect class="c" x="594" y="82" rx="2" ry="2" width="12" height="12"/><rect class="c" x="594" y="98" rx="2" ry="2" width="12" height="12"/><rect class="c" x="610" y="2" rx="2" ry="2" width="12" height="12"/><rect class="c c1g" x="610" y="18" rx="2" ry="2" width="12" height="12"/><rect class="c" x="610" y="34" rx="2" ry="2" width="12" height="12"/><rect class="c" x="610" y="50" rx="2" ry="2" width="12" height="12"/><rect class="c" x="610" y="66" rx="2" ry="2" width="12" height="12"/><rect class="c" x="610" y="82" rx="2" ry="2" width="12" height="12"/><rect class="c" x="610" y="98" rx="2" ry="2" width="12" height="12"/><rect class="c" x="626" y="2" rx="2" ry="2" width="12" height="12"/><rect class="c" x="626" y="18" rx="2" ry="2" width="12" height="12"/><rect class="c" x="626" y="34" rx="2" ry="2" width="12" height="12"/><rect class="c" x="626" y="50" rx="2" ry="2" width="12" height="12"/><rect class="c" x="626" y="66" rx="2" ry="2" width="12" height="12"/><rect class="c" x="626" y="82" rx="2" ry="2" width="12" height="12"/><rect class="c" x="626" y="98" rx="2" ry="2" width="12" height="12"/><rect class="c" x="642" y="2" rx="2" ry="2" width="12" height="12"/><rect class="c" x="642" y="18" rx="2" ry="2" width="12" height="12"/><rect class="c c1h" x="642" y="34" rx="2" ry="2" width="12" height="12"/><rect class="c" x="642" y="50" rx="2" ry="2" width="12" height="12"/><rect class="c" x="642" y="66" rx="2" ry="2" width="12" height="12"/><rect class="c" x="642" y="82" rx="2" ry="2" width="12" height="12"/><rect class="c" x="642" y="98" rx="2" ry="2" width="12" height="12"/><rect class="c" x="658" y="2" rx="2" ry="2" width="12" height="12"/><rect class="c" x="658" y="18" rx="2" ry="2" width="12" height="12"/><rect class="c" x="658" y="34" rx="2" ry="2" width="12" height="12"/><rect class="c" x="658" y="50" rx="2" ry="2" width="12" height="12"/><rect class="c" x="658" y="66" rx="2" ry="2" width="12" height="12"/><rect class="c" x="658" y="82" rx="2" ry="2" width="12" height="12"/><rect class="c" x="658" y="98" rx="2" ry="2" width="12" height="12"/><rect class="c" x="674" y="2" rx="2" ry="2" width="12" height="12"/><rect class="c" x="674" y="18" rx="2" ry="2" width="12" height="12"/><rect class="c" x="674" y="34" rx="2" ry="2" width="12" height="12"/><rect class="c c1i" x="674" y="50" rx="2" ry="2" width="12" height="12"/><rect class="c" x="674" y="66" rx="2" ry="2" width="12" height="12"/><rect class="c" x="674" y="82" rx="2" ry="2" width="12" height="12"/><rect class="c" x="674" y="98" rx="2" ry="2" width="12" height="12"/><rect class="c" x="690" y="2" rx="2" ry="2" width="12" height="12"/><rect class="c" x="690" y="18" rx="2" ry="2" width="12" height="12"/><rect class="c" x="690" y="34" rx="2" ry="2" width="12" height="12"/><rect class="c" x="690" y="50" rx="2" ry="2" width="12" height="12"/><rect class="c" x="690" y="66" rx="2" ry="2" width="12" height="12"/><rect class="c" x="690" y="82" rx="2" ry="2" width="12" height="12"/><rect class="c" x="690" y="98" rx="2" ry="2" width="12" height="12"/><rect class="c" x="706" y="2" rx="2" ry="2" width="12" height="12"/><rect class="c" x="706" y="18" rx="2" ry="2" width="12" height="12"/><rect class="c" x="706" y="34" rx="2" ry="2" width="12" height="12"/><rect class="c" x="706" y="50" rx="2" ry="2" width="12" height="12"/><rect class="c" x="706" y="66" rx="2" ry="2" width="12" height="12"/><rect class="c" x="706" y="82" rx="2" ry="2" width="12" height="12"/><rect class="c" x="706" y="98" rx="2" ry="2" width="12" height="12"/><rect class="c" x="722" y="2" rx="2" ry="2" width="12" height="12"/><rect class="c" x="722" y="18" rx="2" ry="2" width="12" height="12"/><rect class="c" x="722" y="34" rx="2" ry="2" width="12" height="12"/><rect class="c" x="722" y="50" rx="2" ry="2" width="12" height="12"/><rect class="c" x="722" y="66" rx="2" ry="2" width="12" height="12"/><rect class="c" x="722" y="82" rx="2" ry="2" width="12" height="12"/><rect class="c" x="722" y="98" rx="2" ry="2" width="12" height="12"/><rect class="c" x="738" y="2" rx="2" ry="2" width="12" height="12"/><rect class="c" x="738" y="18" rx="2" ry="2" width="12" height="12"/><rect class="c" x="738" y="34" rx="2" ry="2" width="12" height="12"/><rect class="c" x="738" y="50" rx="2" ry="2" width="12" height="12"/><rect class="c" x="738" y="66" rx="2" ry="2" width="12" height="12"/><rect class="c" x="738" y="82" rx="2" ry="2" width="12" height="12"/><rect class="c" x="738" y="98" rx="2" ry="2" width="12" height="12"/><rect class="c" x="754" y="2" rx="2" ry="2" width="12" height="12"/><rect class="c" x="754" y="18" rx="2" ry="2" width="12" height="12"/><rect class="c" x="754" y="34" rx="2" ry="2" width="12" height="12"/><rect class="c" x="754" y="50" rx="2" ry="2" width="12" height="12"/><rect class="c" x="754" y="66" rx="2" ry="2" width="12" height="12"/><rect class="c" x="754" y="82" rx="2" ry="2" width="12" height="12"/><rect class="c" x="754" y="98" rx="2" ry="2" width="12" height="12"/><rect class="c" x="770" y="2" rx="2" ry="2" width="12" height="12"/><rect class="c" x="770" y="18" rx="2" ry="2" width="12" height="12"/><rect class="c" x="770" y="34" rx="2" ry="2" width="12" height="12"/><rect class="c" x="770" y="50" rx="2" ry="2" width="12" height="12"/><rect class="c" x="770" y="66" rx="2" ry="2" width="12" height="12"/><rect class="c" x="770" y="82" rx="2" ry="2" width="12" height="12"/><rect class="c" x="770" y="98" rx="2" ry="2" width="12" height="12"/><rect class="c" x="786" y="2" rx="2" ry="2" width="12" height="12"/><rect class="c" x="786" y="18" rx="2" ry="2" width="12" height="12"/><rect class="c" x="786" y="34" rx="2" ry="2" width="12" height="12"/><rect class="c" x="786" y="50" rx="2" ry="2" width="12" height="12"/><rect class="c" x="786" y="66" rx="2" ry="2" width="12" height="12"/><rect class="c" x="786" y="82" rx="2" ry="2" width="12" height="12"/><rect class="c" x="786" y="98" rx="2" ry="2" width="12" height="12"/><rect class="c" x="802" y="2" rx="2" ry="2" width="12" height="12"/><rect class="c c1j" x="802" y="18" rx="2" ry="2" width="12" height="12"/><rect class="c c1k" x="802" y="34" rx="2" ry="2" width="12" height="12"/><rect class="c" x="802" y="50" rx="2" ry="2" width="12" height="12"/><rect class="c" x="802" y="66" rx="2" ry="2" width="12" height="12"/><rect class="c" x="802" y="82" rx="2" ry="2" width="12" height="12"/><rect class="c" x="802" y="98" rx="2" ry="2" width="12" height="12"/><rect class="c" x="818" y="2" rx="2" ry="2" width="12" height="12"/><rect class="c" x="818" y="18" rx="2" ry="2" width="12" height="12"/><rect class="c" x="818" y="34" rx="2" ry="2" width="12" height="12"/><rect class="c" x="818" y="50" rx="2" ry="2" width="12" height="12"/><rect class="c" x="818" y="66" rx="2" ry="2" width="12" height="12"/><rect class="c" x="818" y="82" rx="2" ry="2" width="12" height="12"/><rect class="c" x="818" y="98" rx="2" ry="2" width="12" height="12"/><rect class="c" x="834" y="2" rx="2" ry="2" width="12" height="12"/><rect class="c" x="834" y="18" rx="2" ry="2" width="12" height="12"/><rect class="c" x="834" y="34" rx="2" ry="2" width="12" height="12"/><rect class="c" x="834" y="50" rx="2" ry="2" width="12" height="12"/><rect class="c" x="834" y="66" rx="2" ry="2" width="12" height="12"/><rect class="c" x="834" y="82" rx="2" ry="2" width="12" height="12"/><rect class="c" x="834" y="98" rx="2" ry="2" width="12" height="12"/><rect class="u u0" height="12" width="536.2" x="0.0" y="144"/><rect class="u u1" height="12" width="164.2" x="535.6" y="144"/><rect class="u u2" height="12" width="119.6" x="699.2" y="144"/><rect class="u u3" height="12" width="30.4" x="818.2" y="144"/><rect class="s s0" x="0.8" y="0.8" width="14.4" height="14.4" rx="4.5" ry="4.5"/><rect class="s s1" x="1.8" y="1.8" width="12.3" height="12.3" rx="4.1" ry="4.1"/><rect class="s s2" x="2.6" y="2.6" width="10.8" height="10.8" rx="3.6" ry="3.6"/><rect class="s s3" x="3.0" y="3.0" width="9.9" height="9.9" rx="3.3" ry="3.3"/></svg>