<svg viewBox="-16 -32 880 192" width="880" height="192" xmlns="http://www.w3.org/2000/svg"><desc>Generated with https://github.com/Platane/snk</desc><style>@keyframes c0{3.63%{fill:var(--c1)}3.65%,to{fill:var(--ce)}}@keyframes c1{77.32%{fill:var(--c2)}77.34%,to{fill:var(--ce)}}@keyframes c2{2.01%{fill:var(--c1)}2.03%,to{fill:var(--ce)}}@keyframes c3{3.23%{fill:var(--c1)}3.25%,to{fill:var(--ce)}}@keyframes c4{4.44%{fill:var(--c1)}4.46%,to{fill:var(--ce)}}@keyframes c5{10.52%{fill:var(--c1)}10.54%,to{fill:var(--ce)}}@keyframes c6{2.42%{fill:var(--c1)}2.44%,to{fill:var(--ce)}}@keyframes c7{2.82%{fill:var(--c1)}2.84%,to{fill:var(--ce)}}@keyframes c8{4.85%{fill:var(--c1)}4.87%,to{fill:var(--ce)}}@keyframes c9{73.27%{fill:var(--c2)}73.29%,to{fill:var(--ce)}}@keyframes ca{73.67%{fill:var(--c2)}73.69%,to{fill:var(--ce)}}@keyframes cb{76.1%{fill:var(--c2)}76.12%,to{fill:var(--ce)}}@keyframes cc{6.47%{fill:var(--c1)}6.49%,to{fill:var(--ce)}}@keyframes cd{8.49%{fill:var(--c1)}8.51%,to{fill:var(--ce)}}@keyframes ce{15.37%{fill:var(--c1)}15.39%,to{fill:var(--ce)}}@keyframes cf{16.18%{fill:var(--c1)}16.2%,to{fill:var(--ce)}}@keyframes cg{16.59%{fill:var(--c1)}16.61%,to{fill:var(--ce)}}@keyframes ch{21.04%{fill:var(--c1)}21.06%,to{fill:var(--ce)}}@keyframes ci{18.21%{fill:var(--c1)}18.23%,to{fill:var(--ce)}}@keyframes cj{18.61%{fill:var(--c1)}18.63%,to{fill:var(--ce)}}@keyframes ck{67.2%{fill:var(--c2)}67.22%,to{fill:var(--ce)}}@keyframes cl{23.88%{fill:var(--c1)}23.9%,to{fill:var(--ce)}}@keyframes cm{90.27%{fill:var(--c4)}90.29%,to{fill:var(--ce)}}@keyframes cn{19.42%{fill:var(--c1)}19.44%,to{fill:var(--ce)}}@keyframes co{20.23%{fill:var(--c1)}20.25%,to{fill:var(--ce)}}@keyframes cp{55.46%{fill:var(--c1)}55.48%,to{fill:var(--ce)}}@keyframes cq{55.86%{fill:var(--c2)}55.88%,to{fill:var(--ce)}}@keyframes cr{26.31%{fill:var(--c1)}26.33%,to{fill:var(--ce)}}@keyframes cs{62.34%{fill:var(--c2)}62.36%,to{fill:var(--ce)}}@keyframes ct{87.03%{fill:var(--c3)}87.05%,to{fill:var(--ce)}}@keyframes cu{57.88%{fill:var(--c2)}57.9%,to{fill:var(--ce)}}@keyframes cv{28.33%{fill:var(--c1)}28.35%,to{fill:var(--ce)}}@keyframes cw{29.95%{fill:var(--c1)}29.97%,to{fill:var(--ce)}}@keyframes cx{28.73%{fill:var(--c1)}28.75%,to{fill:var(--ce)}}@keyframes cy{59.91%{fill:var(--c2)}59.93%,to{fill:var(--ce)}}@keyframes cz{31.97%{fill:var(--c1)}31.99%,to{fill:var(--ce)}}@keyframes c10{36.02%{fill:var(--c1)}36.04%,to{fill:var(--ce)}}@keyframes c11{35.62%{fill:var(--c1)}35.64%,to{fill:var(--ce)}}@keyframes c12{42.1%{fill:var(--c1)}42.12%,to{fill:var(--ce)}}@keyframes c13{42.5%{fill:var(--c1)}42.52%,to{fill:var(--ce)}}@keyframes u0{2.01%{transform:scale(0,1)}2.03%,2.42%{transform:scale(.03,1)}2.44%,2.82%{transform:scale(.07,1)}2.84%,3.23%{transform:scale(.1,1)}3.25%,3.63%{transform:scale(.14,1)}3.65%,4.44%{transform:scale(.17,1)}4.46%,4.85%{transform:scale(.21,1)}4.87%,6.47%{transform:scale(.24,1)}6.49%,8.49%{transform:scale(.28,1)}10.52%,8.51%{transform:scale(.31,1)}10.54%,15.37%{transform:scale(.34,1)}15.39%,16.18%{transform:scale(.38,1)}16.2%,16.59%{transform:scale(.41,1)}16.61%,18.21%{transform:scale(.45,1)}18.23%,18.61%{transform:scale(.48,1)}18.63%,19.42%{transform:scale(.52,1)}19.44%,20.23%{transform:scale(.55,1)}20.25%,21.04%{transform:scale(.59,1)}21.06%,23.88%{transform:scale(.62,1)}23.9%,26.31%{transform:scale(.66,1)}26.33%,28.33%{transform:scale(.69,1)}28.35%,28.73%{transform:scale(.72,1)}28.75%,29.95%{transform:scale(.76,1)}29.97%,31.97%{transform:scale(.79,1)}31.99%,35.62%{transform:scale(.83,1)}35.64%,36.02%{transform:scale(.86,1)}36.04%,42.1%{transform:scale(.9,1)}42.12%,42.5%{transform:scale(.93,1)}42.52%,55.46%{transform:scale(.97,1)}55.48%,to{transform:scale(1,1)}}@keyframes u1{55.86%{transform:scale(0,1)}55.88%,57.88%{transform:scale(.11,1)}57.9%,59.91%{transform:scale(.22,1)}59.93%,62.34%{transform:scale(.33,1)}62.36%,67.2%{transform:scale(.44,1)}67.22%,73.27%{transform:scale(.56,1)}73.29%,73.67%{transform:scale(.67,1)}73.69%,76.1%{transform:scale(.78,1)}76.12%,77.32%{transform:scale(.89,1)}77.34%,to{transform:scale(1,1)}}@keyframes u2{87.03%{transform:scale(0,1)}87.05%,to{transform:scale(1,1)}}@keyframes u3{90.27%{transform:scale(0,1)}90.29%,to{transform:scale(1,1)}}@keyframes s0{0%,99.6%{transform:translate(0,-16px)}.4%{transform:translate(0,0)}.81%{transform:translate(16px,0)}1.21%{transform:translate(16px,16px)}1.62%,77.73%{transform:translate(32px,16px)}2.02%{transform:translate(32px,32px)}2.43%{transform:translate(48px,32px)}2.83%{transform:translate(48px,48px)}3.64%{transform:translate(16px,48px)}4.05%{transform:translate(16px,64px)}5.67%{transform:translate(80px,64px)}6.48%{transform:translate(80px,96px)}6.88%{transform:translate(96px,96px)}9.31%{transform:translate(96px,0)}10.53%{transform:translate(48px,0)}10.93%,98.38%{transform:translate(48px,-16px)}14.98%{transform:translate(208px,-16px)}15.38%{transform:translate(208px,0)}15.79%{transform:translate(224px,0)}16.6%{transform:translate(224px,32px)}18.22%,23.08%{transform:translate(288px,32px)}19.03%,22.27%{transform:translate(288px,64px)}19.43%{transform:translate(304px,64px)}20.24%{transform:translate(304px,96px)}21.05%{transform:translate(272px,96px)}21.86%{transform:translate(272px,64px)}23.48%,89.88%{transform:translate(304px,32px)}23.89%{transform:translate(304px,16px)}25.91%{transform:translate(384px,16px)}26.72%{transform:translate(384px,-16px)}27.53%{transform:translate(416px,-16px)}28.34%{transform:translate(416px,16px)}28.74%{transform:translate(432px,16px)}29.15%{transform:translate(432px,32px)}29.55%{transform:translate(416px,32px)}29.96%{transform:translate(416px,48px)}35.22%{transform:translate(624px,48px)}36.03%{transform:translate(624px,16px)}40.89%{transform:translate(816px,16px)}42.11%{transform:translate(816px,64px)}42.51%{transform:translate(832px,64px)}42.91%{transform:translate(832px,80px)}55.06%{transform:translate(352px,80px)}55.47%{transform:translate(352px,96px)}56.68%{transform:translate(400px,96px)}57.89%{transform:translate(400px,48px)}59.51%{transform:translate(464px,48px)}60.73%{transform:translate(464px,0)}65.18%{transform:translate(288px,0)}67.21%{transform:translate(288px,80px)}73.28%{transform:translate(48px,80px)}73.68%{transform:translate(48px,96px)}74.09%{transform:translate(64px,96px)}76.52%{transform:translate(64px,0)}77.33%{transform:translate(32px,0)}87.04%{transform:translate(400px,16px)}87.45%{transform:translate(400px,32px)}90.28%{transform:translate(304px,48px)}95.55%{transform:translate(96px,48px)}95.95%{transform:translate(96px,32px)}96.36%{transform:translate(80px,32px)}96.76%{transform:translate(80px,16px)}97.57%{transform:translate(48px,16px)}}@keyframes s1{0%,99.6%{transform:translate(16px,-16px)}.4%{transform:translate(0,-16px)}.81%{transform:translate(0,0)}1.21%{transform:translate(16px,0)}1.62%{transform:translate(16px,16px)}2.02%,78.14%{transform:translate(32px,16px)}2.43%{transform:translate(32px,32px)}2.83%{transform:translate(48px,32px)}3.24%{transform:translate(48px,48px)}4.05%{transform:translate(16px,48px)}4.45%{transform:translate(16px,64px)}6.07%{transform:translate(80px,64px)}6.88%{transform:translate(80px,96px)}7.29%{transform:translate(96px,96px)}9.72%{transform:translate(96px,0)}10.93%{transform:translate(48px,0)}11.34%,98.79%{transform:translate(48px,-16px)}15.38%{transform:translate(208px,-16px)}15.79%{transform:translate(208px,0)}16.19%{transform:translate(224px,0)}17%{transform:translate(224px,32px)}18.62%,23.48%{transform:translate(288px,32px)}19.43%,22.67%{transform:translate(288px,64px)}19.84%{transform:translate(304px,64px)}20.65%{transform:translate(304px,96px)}21.46%{transform:translate(272px,96px)}22.27%{transform:translate(272px,64px)}23.89%,90.28%{transform:translate(304px,32px)}24.29%{transform:translate(304px,16px)}26.32%{transform:translate(384px,16px)}27.13%{transform:translate(384px,-16px)}27.94%{transform:translate(416px,-16px)}28.74%{transform:translate(416px,16px)}29.15%{transform:translate(432px,16px)}29.55%{transform:translate(432px,32px)}29.96%{transform:translate(416px,32px)}30.36%{transform:translate(416px,48px)}35.63%{transform:translate(624px,48px)}36.44%{transform:translate(624px,16px)}41.3%{transform:translate(816px,16px)}42.51%{transform:translate(816px,64px)}42.91%{transform:translate(832px,64px)}43.32%{transform:translate(832px,80px)}55.47%{transform:translate(352px,80px)}55.87%{transform:translate(352px,96px)}57.09%{transform:translate(400px,96px)}58.3%{transform:translate(400px,48px)}59.92%{transform:translate(464px,48px)}61.13%{transform:translate(464px,0)}65.59%{transform:translate(288px,0)}67.61%{transform:translate(288px,80px)}73.68%{transform:translate(48px,80px)}74.09%{transform:translate(48px,96px)}74.49%{transform:translate(64px,96px)}76.92%{transform:translate(64px,0)}77.73%{transform:translate(32px,0)}87.45%{transform:translate(400px,16px)}87.85%{transform:translate(400px,32px)}90.69%{transform:translate(304px,48px)}95.95%{transform:translate(96px,48px)}96.36%{transform:translate(96px,32px)}96.76%{transform:translate(80px,32px)}97.17%{transform:translate(80px,16px)}97.98%{transform:translate(48px,16px)}}@keyframes s2{0%,99.6%{transform:translate(32px,-16px)}.81%{transform:translate(0,-16px)}1.21%{transform:translate(0,0)}1.62%{transform:translate(16px,0)}2.02%{transform:translate(16px,16px)}2.43%,78.54%{transform:translate(32px,16px)}2.83%{transform:translate(32px,32px)}3.24%{transform:translate(48px,32px)}3.64%{transform:translate(48px,48px)}4.45%{transform:translate(16px,48px)}4.86%{transform:translate(16px,64px)}6.48%{transform:translate(80px,64px)}7.29%{transform:translate(80px,96px)}7.69%{transform:translate(96px,96px)}10.12%{transform:translate(96px,0)}11.34%{transform:translate(48px,0)}11.74%,99.19%{transform:translate(48px,-16px)}15.79%{transform:translate(208px,-16px)}16.19%{transform:translate(208px,0)}16.6%{transform:translate(224px,0)}17.41%{transform:translate(224px,32px)}19.03%,23.89%{transform:translate(288px,32px)}19.84%,23.08%{transform:translate(288px,64px)}20.24%{transform:translate(304px,64px)}21.05%{transform:translate(304px,96px)}21.86%{transform:translate(272px,96px)}22.67%{transform:translate(272px,64px)}24.29%,90.69%{transform:translate(304px,32px)}24.7%{transform:translate(304px,16px)}26.72%{transform:translate(384px,16px)}27.53%{transform:translate(384px,-16px)}28.34%{transform:translate(416px,-16px)}29.15%{transform:translate(416px,16px)}29.55%{transform:translate(432px,16px)}29.96%{transform:translate(432px,32px)}30.36%{transform:translate(416px,32px)}30.77%{transform:translate(416px,48px)}36.03%{transform:translate(624px,48px)}36.84%{transform:translate(624px,16px)}41.7%{transform:translate(816px,16px)}42.91%{transform:translate(816px,64px)}43.32%{transform:translate(832px,64px)}43.72%{transform:translate(832px,80px)}55.87%{transform:translate(352px,80px)}56.28%{transform:translate(352px,96px)}57.49%{transform:translate(400px,96px)}58.7%{transform:translate(400px,48px)}60.32%{transform:translate(464px,48px)}61.54%{transform:translate(464px,0)}65.99%{transform:translate(288px,0)}68.02%{transform:translate(288px,80px)}74.09%{transform:translate(48px,80px)}74.49%{transform:translate(48px,96px)}74.9%{transform:translate(64px,96px)}77.33%{transform:translate(64px,0)}78.14%{transform:translate(32px,0)}87.85%{transform:translate(400px,16px)}88.26%{transform:translate(400px,32px)}91.09%{transform:translate(304px,48px)}96.36%{transform:translate(96px,48px)}96.76%{transform:translate(96px,32px)}97.17%{transform:translate(80px,32px)}97.57%{transform:translate(80px,16px)}98.38%{transform:translate(48px,16px)}}@keyframes s3{0%,12.15%,99.6%{transform:translate(48px,-16px)}1.21%{transform:translate(0,-16px)}1.62%{transform:translate(0,0)}2.02%{transform:translate(16px,0)}2.43%{transform:translate(16px,16px)}2.83%,78.95%{transform:translate(32px,16px)}3.24%{transform:translate(32px,32px)}3.64%{transform:translate(48px,32px)}4.05%{transform:translate(48px,48px)}4.86%{transform:translate(16px,48px)}5.26%{transform:translate(16px,64px)}6.88%{transform:translate(80px,64px)}7.69%{transform:translate(80px,96px)}8.1%{transform:translate(96px,96px)}10.53%{transform:translate(96px,0)}11.74%{transform:translate(48px,0)}16.19%{transform:translate(208px,-16px)}16.6%{transform:translate(208px,0)}17%{transform:translate(224px,0)}17.81%{transform:translate(224px,32px)}19.43%,24.29%{transform:translate(288px,32px)}20.24%,23.48%{transform:translate(288px,64px)}20.65%{transform:translate(304px,64px)}21.46%{transform:translate(304px,96px)}22.27%{transform:translate(272px,96px)}23.08%{transform:translate(272px,64px)}24.7%,91.09%{transform:translate(304px,32px)}25.1%{transform:translate(304px,16px)}27.13%{transform:translate(384px,16px)}27.94%{transform:translate(384px,-16px)}28.74%{transform:translate(416px,-16px)}29.55%{transform:translate(416px,16px)}29.96%{transform:translate(432px,16px)}30.36%{transform:translate(432px,32px)}30.77%{transform:translate(416px,32px)}31.17%{transform:translate(416px,48px)}36.44%{transform:translate(624px,48px)}37.25%{transform:translate(624px,16px)}42.11%{transform:translate(816px,16px)}43.32%{transform:translate(816px,64px)}43.72%{transform:translate(832px,64px)}44.13%{transform:translate(832px,80px)}56.28%{transform:translate(352px,80px)}56.68%{transform:translate(352px,96px)}57.89%{transform:translate(400px,96px)}59.11%{transform:translate(400px,48px)}60.73%{transform:translate(464px,48px)}61.94%{transform:translate(464px,0)}66.4%{transform:translate(288px,0)}68.42%{transform:translate(288px,80px)}74.49%{transform:translate(48px,80px)}74.9%{transform:translate(48px,96px)}75.3%{transform:translate(64px,96px)}77.73%{transform:translate(64px,0)}78.54%{transform:translate(32px,0)}88.26%{transform:translate(400px,16px)}88.66%{transform:translate(400px,32px)}91.5%{transform:translate(304px,48px)}96.76%{transform:translate(96px,48px)}97.17%{transform:translate(96px,32px)}97.57%{transform:translate(80px,32px)}97.98%{transform:translate(80px,16px)}98.79%{transform:translate(48px,16px)}}:root{--cb:#1b1f230a;--cs:purple;--ce:#ebedf0;--c0:#ebedf0;--c1:#9be9a8;--c2:#40c463;--c3:#30a14e;--c4:#216e39}@media (prefers-color-scheme:dark){:root{--cb:#1b1f230a;--cs:purple;--ce:#161b22;--c1:#01311f;--c2:#034525;--c3:#0f6d31;--c4:#00c647}}.c{shape-rendering:geometricPrecision;fill:var(--ce);stroke-width:1px;stroke:var(--cb);animation:none 24700ms linear infinite}.c.c0{fill:var(--c1);animation-name:c0}.c.c1{fill:var(--c2);animation-name:c1}.c.c2{fill:var(--c1);animation-name:c2}.c.c3,.c.c4,.c.c5{fill:var(--c1);animation-name:c3}.c.c4,.c.c5{animation-name:c4}.c.c5{animation-name:c5}.c.c6,.c.c7,.c.c8{fill:var(--c1);animation-name:c6}.c.c7,.c.c8{animation-name:c7}.c.c8{animation-name:c8}.c.c9,.c.ca,.c.cb{fill:var(--c2);animation-name:c9}.c.ca,.c.cb{animation-name:ca}.c.cb{animation-name:cb}.c.cc,.c.cd{fill:var(--c1);animation-name:cc}.c.cd{animation-name:cd}.c.ce,.c.cf,.c.cg{fill:var(--c1);animation-name:ce}.c.cf,.c.cg{animation-name:cf}.c.cg{animation-name:cg}.c.ch,.c.ci,.c.cj{fill:var(--c1);animation-name:ch}.c.ci,.c.cj{animation-name:ci}.c.cj{animation-name:cj}.c.ck{fill:var(--c2);animation-name:ck}.c.cl{fill:var(--c1);animation-name:cl}.c.cm{fill:var(--c4);animation-name:cm}.c.cn,.c.co,.c.cp{fill:var(--c1);animation-name:cn}.c.co,.c.cp{animation-name:co}.c.cp{animation-name:cp}.c.cq{fill:var(--c2);animation-name:cq}.c.cr{fill:var(--c1);animation-name:cr}.c.cs{fill:var(--c2);animation-name:cs}.c.ct{fill:var(--c3);animation-name:ct}.c.cu{fill:var(--c2);animation-name:cu}.c.cv,.c.cw,.c.cx{fill:var(--c1);animation-name:cv}.c.cw,.c.cx{animation-name:cw}.c.cx{animation-name:cx}.c.cy{fill:var(--c2);animation-name:cy}.c.c10,.c.cz{fill:var(--c1);animation-name:cz}.c.c10{animation-name:c10}.c.c11,.c.c12,.c.c13{fill:var(--c1);animation-name:c11}.c.c12,.c.c13{animation-name:c12}.c.c13{animation-name:c13}.s,.u{animation:none linear 24700ms infinite}.u,.u.u0{transform-origin:0 0}.u{transform:scale(0,1)}.u.u0{fill:var(--c1);animation-name:u0}.u.u1{fill:var(--c2);animation-name:u1;transform-origin:614.8px 0}.u.u2{fill:var(--c3);animation-name:u2;transform-origin:805.6px 0}.u.u3{fill:var(--c4);animation-name:u3;transform-origin:826.8px 0}.s{shape-rendering:geometricPrecision;fill:var(--cs)}.s.s0{transform:translate(0,-16px);animation-name:s0}.s.s1{transform:translate(16px,-16px);animation-name:s1}.s.s2{transform:translate(32px,-16px);animation-name:s2}.s.s3{transform:translate(48px,-16px);animation-name:s3}</style><rect class="c" x="2" y="2" rx="2" ry="2" width="12" height="12"/><rect class="c" x="2" y="18" rx="2" ry="2" width="12" height="12"/><rect class="c" x="2" y="34" rx="2" ry="2" width="12" height="12"/><rect class="c" x="2" y="50" rx="2" ry="2" width="12" height="12"/><rect class="c" x="2" y="66" rx="2" ry="2" width="12" height="12"/><rect class="c" x="2" y="82" rx="2" ry="2" width="12" height="12"/><rect class="c" x="2" y="98" rx="2" ry="2" width="12" height="12"/><rect class="c" x="18" y="2" rx="2" ry="2" width="12" height="12"/><rect class="c" x="18" y="18" rx="2" ry="2" width="12" height="12"/><rect class="c" x="18" y="34" rx="2" ry="2" width="12" height="12"/><rect class="c c0" x="18" y="50" rx="2" ry="2" width="12" height="12"/><rect class="c" x="18" y="66" rx="2" ry="2" width="12" height="12"/><rect class="c" x="18" y="82" rx="2" ry="2" width="12" height="12"/><rect class="c" x="18" y="98" rx="2" ry="2" width="12" height="12"/><rect class="c c1" x="34" y="2" rx="2" ry="2" width="12" height="12"/><rect class="c" x="34" y="18" rx="2" ry="2" width="12" height="12"/><rect class="c c2" x="34" y="34" rx="2" ry="2" width="12" height="12"/><rect class="c c3" x="34" y="50" rx="2" ry="2" width="12" height="12"/><rect class="c c4" x="34" y="66" rx="2" ry="2" width="12" height="12"/><rect class="c" x="34" y="82" rx="2" ry="2" width="12" height="12"/><rect class="c" x="34" y="98" rx="2" ry="2" width="12" height="12"/><rect class="c c5" x="50" y="2" rx="2" ry="2" width="12" height="12"/><rect class="c" x="50" y="18" rx="2" ry="2" width="12" height="12"/><rect class="c c6" x="50" y="34" rx="2" ry="2" width="12" height="12"/><rect class="c c7" x="50" y="50" rx="2" ry="2" width="12" height="12"/><rect class="c c8" x="50" y="66" rx="2" ry="2" width="12" height="12"/><rect class="c c9" x="50" y="82" rx="2" ry="2" width="12" height="12"/><rect class="c ca" x="50" y="98" rx="2" ry="2" width="12" height="12"/><rect class="c" x="66" y="2" rx="2" ry="2" width="12" height="12"/><rect class="c cb" x="66" y="18" rx="2" ry="2" width="12" height="12"/><rect class="c" x="66" y="34" rx="2" ry="2" width="12" height="12"/><rect class="c" x="66" y="50" rx="2" ry="2" width="12" height="12"/><rect class="c" x="66" y="66" rx="2" ry="2" width="12" height="12"/><rect class="c" x="66" y="82" rx="2" ry="2" width="12" height="12"/><rect class="c" x="66" y="98" rx="2" ry="2" width="12" height="12"/><rect class="c" x="82" y="2" rx="2" ry="2" width="12" height="12"/><rect class="c" x="82" y="18" rx="2" ry="2" width="12" height="12"/><rect class="c" x="82" y="34" rx="2" ry="2" width="12" height="12"/><rect class="c" x="82" y="50" rx="2" ry="2" width="12" height="12"/><rect class="c" x="82" y="66" rx="2" ry="2" width="12" height="12"/><rect class="c" x="82" y="82" rx="2" ry="2" width="12" height="12"/><rect class="c cc" x="82" y="98" rx="2" ry="2" width="12" height="12"/><rect class="c" x="98" y="2" rx="2" ry="2" width="12" height="12"/><rect class="c" x="98" y="18" rx="2" ry="2" width="12" height="12"/><rect class="c cd" x="98" y="34" rx="2" ry="2" width="12" height="12"/><rect class="c" x="98" y="50" rx="2" ry="2" width="12" height="12"/><rect class="c" x="98" y="66" rx="2" ry="2" width="12" height="12"/><rect class="c" x="98" y="82" rx="2" ry="2" width="12" height="12"/><rect class="c" x="98" y="98" rx="2" ry="2" width="12" height="12"/><rect class="c" x="114" y="2" rx="2" ry="2" width="12" height="12"/><rect class="c" x="114" y="18" rx="2" ry="2" width="12" height="12"/><rect class="c" x="114" y="34" rx="2" ry="2" width="12" height="12"/><rect class="c" x="114" y="50" rx="2" ry="2" width="12" height="12"/><rect class="c" x="114" y="66" rx="2" ry="2" width="12" height="12"/><rect class="c" x="114" y="82" rx="2" ry="2" width="12" height="12"/><rect class="c" x="114" y="98" rx="2" ry="2" width="12" height="12"/><rect class="c" x="130" y="2" rx="2" ry="2" width="12" height="12"/><rect class="c" x="130" y="18" rx="2" ry="2" width="12" height="12"/><rect class="c" x="130" y="34" rx="2" ry="2" width="12" height="12"/><rect class="c" x="130" y="50" rx="2" ry="2" width="12" height="12"/><rect class="c" x="130" y="66" rx="2" ry="2" width="12" height="12"/><rect class="c" x="130" y="82" rx="2" ry="2" width="12" height="12"/><rect class="c" x="130" y="98" rx="2" ry="2" width="12" height="12"/><rect class="c" x="146" y="2" rx="2" ry="2" width="12" height="12"/><rect class="c" x="146" y="18" rx="2" ry="2" width="12" height="12"/><rect class="c" x="146" y="34" rx="2" ry="2" width="12" height="12"/><rect class="c" x="146" y="50" rx="2" ry="2" width="12" height="12"/><rect class="c" x="146" y="66" rx="2" ry="2" width="12" height="12"/><rect class="c" x="146" y="82" rx="2" ry="2" width="12" height="12"/><rect class="c" x="146" y="98" rx="2" ry="2" width="12" height="12"/><rect class="c" x="162" y="2" rx="2" ry="2" width="12" height="12"/><rect class="c" x="162" y="18" rx="2" ry="2" width="12" height="12"/><rect class="c" x="162" y="34" rx="2" ry="2" width="12" height="12"/><rect class="c" x="162" y="50" rx="2" ry="2" width="12" height="12"/><rect class="c" x="162" y="66" rx="2" ry="2" width="12" height="12"/><rect class="c" x="162" y="82" rx="2" ry="2" width="12" height="12"/><rect class="c" x="162" y="98" rx="2" ry="2" width="12" height="12"/><rect class="c" x="178" y="2" rx="2" ry="2" width="12" height="12"/><rect class="c" x="178" y="18" rx="2" ry="2" width="12" height="12"/><rect class="c" x="178" y="34" rx="2" ry="2" width="12" height="12"/><rect class="c" x="178" y="50" rx="2" ry="2" width="12" height="12"/><rect class="c" x="178" y="66" rx="2" ry="2" width="12" height="12"/><rect class="c" x="178" y="82" rx="2" ry="2" width="12" height="12"/><rect class="c" x="178" y="98" rx="2" ry="2" width="12" height="12"/><rect class="c" x="194" y="2" rx="2" ry="2" width="12" height="12"/><rect class="c" x="194" y="18" rx="2" ry="2" width="12" height="12"/><rect class="c" x="194" y="34" rx="2" ry="2" width="12" height="12"/><rect class="c" x="194" y="50" rx="2" ry="2" width="12" height="12"/><rect class="c" x="194" y="66" rx="2" ry="2" width="12" height="12"/><rect class="c" x="194" y="82" rx="2" ry="2" width="12" height="12"/><rect class="c" x="194" y="98" rx="2" ry="2" width="12" height="12"/><rect class="c ce" x="210" y="2" rx="2" ry="2" width="12" height="12"/><rect class="c" x="210" y="18" rx="2" ry="2" width="12" height="12"/><rect class="c" x="210" y="34" rx="2" ry="2" width="12" height="12"/><rect class="c" x="210" y="50" rx="2" ry="2" width="12" height="12"/><rect class="c" x="210" y="66" rx="2" ry="2" width="12" height="12"/><rect class="c" x="210" y="82" rx="2" ry="2" width="12" height="12"/><rect class="c" x="210" y="98" rx="2" ry="2" width="12" height="12"/><rect class="c" x="226" y="2" rx="2" ry="2" width="12" height="12"/><rect class="c cf" x="226" y="18" rx="2" ry="2" width="12" height="12"/><rect class="c cg" x="226" y="34" rx="2" ry="2" width="12" height="12"/><rect class="c" x="226" y="50" rx="2" ry="2" width="12" height="12"/><rect class="c" x="226" y="66" rx="2" ry="2" width="12" height="12"/><rect class="c" x="226" y="82" rx="2" ry="2" width="12" height="12"/><rect class="c" x="226" y="98" rx="2" ry="2" width="12" height="12"/><rect class="c" x="242" y="2" rx="2" ry="2" width="12" height="12"/><rect class="c" x="242" y="18" rx="2" ry="2" width="12" height="12"/><rect class="c" x="242" y="34" rx="2" ry="2" width="12" height="12"/><rect class="c" x="242" y="50" rx="2" ry="2" width="12" height="12"/><rect class="c" x="242" y="66" rx="2" ry="2" width="12" height="12"/><rect class="c" x="242" y="82" rx="2" ry="2" width="12" height="12"/><rect class="c" x="242" y="98" rx="2" ry="2" width="12" height="12"/><rect class="c" x="258" y="2" rx="2" ry="2" width="12" height="12"/><rect class="c" x="258" y="18" rx="2" ry="2" width="12" height="12"/><rect class="c" x="258" y="34" rx="2" ry="2" width="12" height="12"/><rect class="c" x="258" y="50" rx="2" ry="2" width="12" height="12"/><rect class="c" x="258" y="66" rx="2" ry="2" width="12" height="12"/><rect class="c" x="258" y="82" rx="2" ry="2" width="12" height="12"/><rect class="c" x="258" y="98" rx="2" ry="2" width="12" height="12"/><rect class="c" x="274" y="2" rx="2" ry="2" width="12" height="12"/><rect class="c" x="274" y="18" rx="2" ry="2" width="12" height="12"/><rect class="c" x="274" y="34" rx="2" ry="2" width="12" height="12"/><rect class="c" x="274" y="50" rx="2" ry="2" width="12" height="12"/><rect class="c" x="274" y="66" rx="2" ry="2" width="12" height="12"/><rect class="c" x="274" y="82" rx="2" ry="2" width="12" height="12"/><rect class="c ch" x="274" y="98" rx="2" ry="2" width="12" height="12"/><rect class="c" x="290" y="2" rx="2" ry="2" width="12" height="12"/><rect class="c" x="290" y="18" rx="2" ry="2" width="12" height="12"/><rect class="c ci" x="290" y="34" rx="2" ry="2" width="12" height="12"/><rect class="c cj" x="290" y="50" rx="2" ry="2" width="12" height="12"/><rect class="c" x="290" y="66" rx="2" ry="2" width="12" height="12"/><rect class="c ck" x="290" y="82" rx="2" ry="2" width="12" height="12"/><rect class="c" x="290" y="98" rx="2" ry="2" width="12" height="12"/><rect class="c" x="306" y="2" rx="2" ry="2" width="12" height="12"/><rect class="c cl" x="306" y="18" rx="2" ry="2" width="12" height="12"/><rect class="c" x="306" y="34" rx="2" ry="2" width="12" height="12"/><rect class="c cm" x="306" y="50" rx="2" ry="2" width="12" height="12"/><rect class="c cn" x="306" y="66" rx="2" ry="2" width="12" height="12"/><rect class="c" x="306" y="82" rx="2" ry="2" width="12" height="12"/><rect class="c co" x="306" y="98" rx="2" ry="2" width="12" height="12"/><rect class="c" x="322" y="2" rx="2" ry="2" width="12" height="12"/><rect class="c" x="322" y="18" rx="2" ry="2" width="12" height="12"/><rect class="c" x="322" y="34" rx="2" ry="2" width="12" height="12"/><rect class="c" x="322" y="50" rx="2" ry="2" width="12" height="12"/><rect class="c" x="322" y="66" rx="2" ry="2" width="12" height="12"/><rect class="c" x="322" y="82" rx="2" ry="2" width="12" height="12"/><rect class="c" x="322" y="98" rx="2" ry="2" width="12" height="12"/><rect class="c" x="338" y="2" rx="2" ry="2" width="12" height="12"/><rect class="c" x="338" y="18" rx="2" ry="2" width="12" height="12"/><rect class="c" x="338" y="34" rx="2" ry="2" width="12" height="12"/><rect class="c" x="338" y="50" rx="2" ry="2" width="12" height="12"/><rect class="c" x="338" y="66" rx="2" ry="2" width="12" height="12"/><rect class="c" x="338" y="82" rx="2" ry="2" width="12" height="12"/><rect class="c" x="338" y="98" rx="2" ry="2" width="12" height="12"/><rect class="c" x="354" y="2" rx="2" ry="2" width="12" height="12"/><rect class="c" x="354" y="18" rx="2" ry="2" width="12" height="12"/><rect class="c" x="354" y="34" rx="2" ry="2" width="12" height="12"/><rect class="c" x="354" y="50" rx="2" ry="2" width="12" height="12"/><rect class="c" x="354" y="66" rx="2" ry="2" width="12" height="12"/><rect class="c" x="354" y="82" rx="2" ry="2" width="12" height="12"/><rect class="c cp" x="354" y="98" rx="2" ry="2" width="12" height="12"/><rect class="c" x="370" y="2" rx="2" ry="2" width="12" height="12"/><rect class="c" x="370" y="18" rx="2" ry="2" width="12" height="12"/><rect class="c" x="370" y="34" rx="2" ry="2" width="12" height="12"/><rect class="c" x="370" y="50" rx="2" ry="2" width="12" height="12"/><rect class="c" x="370" y="66" rx="2" ry="2" width="12" height="12"/><rect class="c" x="370" y="82" rx="2" ry="2" width="12" height="12"/><rect class="c cq" x="370" y="98" rx="2" ry="2" width="12" height="12"/><rect class="c cr" x="386" y="2" rx="2" ry="2" width="12" height="12"/><rect class="c" x="386" y="18" rx="2" ry="2" width="12" height="12"/><rect class="c" x="386" y="34" rx="2" ry="2" width="12" height="12"/><rect class="c" x="386" y="50" rx="2" ry="2" width="12" height="12"/><rect class="c" x="386" y="66" rx="2" ry="2" width="12" height="12"/><rect class="c" x="386" y="82" rx="2" ry="2" width="12" height="12"/><rect class="c" x="386" y="98" rx="2" ry="2" width="12" height="12"/><rect class="c cs" x="402" y="2" rx="2" ry="2" width="12" height="12"/><rect class="c ct" x="402" y="18" rx="2" ry="2" width="12" height="12"/><rect class="c" x="402" y="34" rx="2" ry="2" width="12" height="12"/><rect class="c cu" x="402" y="50" rx="2" ry="2" width="12" height="12"/><rect class="c" x="402" y="66" rx="2" ry="2" width="12" height="12"/><rect class="c" x="402" y="82" rx="2" ry="2" width="12" height="12"/><rect class="c" x="402" y="98" rx="2" ry="2" width="12" height="12"/><rect class="c" x="418" y="2" rx="2" ry="2" width="12" height="12"/><rect class="c cv" x="418" y="18" rx="2" ry="2" width="12" height="12"/><rect class="c" x="418" y="34" rx="2" ry="2" width="12" height="12"/><rect class="c cw" x="418" y="50" rx="2" ry="2" width="12" height="12"/><rect class="c" x="418" y="66" rx="2" ry="2" width="12" height="12"/><rect class="c" x="418" y="82" rx="2" ry="2" width="12" height="12"/><rect class="c" x="418" y="98" rx="2" ry="2" width="12" height="12"/><rect class="c" x="434" y="2" rx="2" ry="2" width="12" height="12"/><rect class="c cx" x="434" y="18" rx="2" ry="2" width="12" height="12"/><rect class="c" x="434" y="34" rx="2" ry="2" width="12" height="12"/><rect class="c" x="434" y="50" rx="2" ry="2" width="12" height="12"/><rect class="c" x="434" y="66" rx="2" ry="2" width="12" height="12"/><rect class="c" x="434" y="82" rx="2" ry="2" width="12" height="12"/><rect class="c" x="434" y="98" rx="2" ry="2" width="12" height="12"/><rect class="c" x="450" y="2" rx="2" ry="2" width="12" height="12"/><rect class="c" x="450" y="18" rx="2" ry="2" width="12" height="12"/><rect class="c" x="450" y="34" rx="2" ry="2" width="12" height="12"/><rect class="c" x="450" y="50" rx="2" ry="2" width="12" height="12"/><rect class="c" x="450" y="66" rx="2" ry="2" width="12" height="12"/><rect class="c" x="450" y="82" rx="2" ry="2" width="12" height="12"/><rect class="c" x="450" y="98" rx="2" ry="2" width="12" height="12"/><rect class="c" x="466" y="2" rx="2" ry="2" width="12" height="12"/><rect class="c" x="466" y="18" rx="2" ry="2" width="12" height="12"/><rect class="c cy" x="466" y="34" rx="2" ry="2" width="12" height="12"/><rect class="c" x="466" y="50" rx="2" ry="2" width="12" height="12"/><rect class="c" x="466" y="66" rx="2" ry="2" width="12" height="12"/><rect class="c" x="466" y="82" rx="2" ry="2" width="12" height="12"/><rect class="c" x="466" y="98" rx="2" ry="2" width="12" height="12"/><rect class="c" x="482" y="2" rx="2" ry="2" width="12" height="12"/><rect class="c" x="482" y="18" rx="2" ry="2" width="12" height="12"/><rect class="c" x="482" y="34" rx="2" ry="2" width="12" height="12"/><rect class="c" x="482" y="50" rx="2" ry="2" width="12" height="12"/><rect class="c" x="482" y="66" rx="2" ry="2" width="12" height="12"/><rect class="c" x="482" y="82" rx="2" ry="2" width="12" height="12"/><rect class="c" x="482" y="98" rx="2" ry="2" width="12" height="12"/><rect class="c" x="498" y="2" rx="2" ry="2" width="12" height="12"/><rect class="c" x="498" y="18" rx="2" ry="2" width="12" height="12"/><rect class="c" x="498" y="34" rx="2" ry="2" width="12" height="12"/><rect class="c cz" x="498" y="50" rx="2" ry="2" width="12" height="12"/><rect class="c" x="498" y="66" rx="2" ry="2" width="12" height="12"/><rect class="c" x="498" y="82" rx="2" ry="2" width="12" height="12"/><rect class="c" x="498" y="98" rx="2" ry="2" width="12" height="12"/><rect class="c" x="514" y="2" rx="2" ry="2" width="12" height="12"/><rect class="c" x="514" y="18" rx="2" ry="2" width="12" height="12"/><rect class="c" x="514" y="34" rx="2" ry="2" width="12" height="12"/><rect class="c" x="514" y="50" rx="2" ry="2" width="12" height="12"/><rect class="c" x="514" y="66" rx="2" ry="2" width="12" height="12"/><rect class="c" x="514" y="82" rx="2" ry="2" width="12" height="12"/><rect class="c" x="514" y="98" rx="2" ry="2" width="12" height="12"/><rect class="c" x="530" y="2" rx="2" ry="2" width="12" height="12"/><rect class="c" x="530" y="18" rx="2" ry="2" width="12" height="12"/><rect class="c" x="530" y="34" rx="2" ry="2" width="12" height="12"/><rect class="c" x="530" y="50" rx="2" ry="2" width="12" height="12"/><rect class="c" x="530" y="66" rx="2" ry="2" width="12" height="12"/><rect class="c" x="530" y="82" rx="2" ry="2" width="12" height="12"/><rect class="c" x="530" y="98" rx="2" ry="2" width="12" height="12"/><rect class="c" x="546" y="2" rx="2" ry="2" width="12" height="12"/><rect class="c" x="546" y="18" rx="2" ry="2" width="12" height="12"/><rect class="c" x="546" y="34" rx="2" ry="2" width="12" height="12"/><rect class="c" x="546" y="50" rx="2" ry="2" width="12" height="12"/><rect class="c" x="546" y="66" rx="2" ry="2" width="12" height="12"/><rect class="c" x="546" y="82" rx="2" ry="2" width="12" height="12"/><rect class="c" x="546" y="98" rx="2" ry="2" width="12" height="12"/><rect class="c" x="562" y="2" rx="2" ry="2" width="12" height="12"/><rect class="c" x="562" y="18" rx="2" ry="2" width="12" height="12"/><rect class="c" x="562" y="34" rx="2" ry="2" width="12" height="12"/><rect class="c" x="562" y="50" rx="2" ry="2" width="12" height="12"/><rect class="c" x="562" y="66" rx="2" ry="2" width="12" height="12"/><rect class="c" x="562" y="82" rx="2" ry="2" width="12" height="12"/><rect class="c" x="562" y="98" rx="2" ry="2" width="12" height="12"/><rect class="c" x="578" y="2" rx="2" ry="2" width="12" height="12"/><rect class="c" x="578" y="18" rx="2" ry="2" width="12" height="12"/><rect class="c" x="578" y="34" rx="2" ry="2" width="12" height="12"/><rect class="c" x="578" y="50" rx="2" ry="2" width="12" height="12"/><rect class="c" x="578" y="66" rx="2" ry="2" width="12" height="12"/><rect class="c" x="578" y="82" rx="2" ry="2" width="12" height="12"/><rect class="c" x="578" y="98" rx="2" ry="2" width="12" height="12"/><rect class="c" x="594" y="2" rx="2" ry="2" width="12" height="12"/><rect class="c" x="594" y="18" rx="2" ry="2" width="12" height="12"/><rect class="c" x="594" y="34" rx="2" ry="2" width="12" height="12"/><rect class="c" x="594" y="50" rx="2" ry="2" width="12" height="12"/><rect class="c" x="594" y="66" rx="2" ry="2" width="12" height="12"/><rect class="c" x="594" y="82" rx="2" ry="2" width="12" height="12"/><rect class="c" x="594" y="98" rx="2" ry="2" width="12" height="12"/><rect class="c" x="610" y="2" rx="2" ry="2" width="12" height="12"/><rect class="c" x="610" y="18" rx="2" ry="2" width="12" height="12"/><rect class="c" x="610" y="34" rx="2" ry="2" width="12" height="12"/><rect class="c" x="610" y="50" rx="2" ry="2" width="12" height="12"/><rect class="c" x="610" y="66" rx="2" ry="2" width="12" height="12"/><rect class="c" x="610" y="82" rx="2" ry="2" width="12" height="12"/><rect class="c" x="610" y="98" rx="2" ry="2" width="12" height="12"/><rect class="c" x="626" y="2" rx="2" ry="2" width="12" height="12"/><rect class="c c10" x="626" y="18" rx="2" ry="2" width="12" height="12"/><rect class="c c11" x="626" y="34" rx="2" ry="2" width="12" height="12"/><rect class="c" x="626" y="50" rx="2" ry="2" width="12" height="12"/><rect class="c" x="626" y="66" rx="2" ry="2" width="12" height="12"/><rect class="c" x="626" y="82" rx="2" ry="2" width="12" height="12"/><rect class="c" x="626" y="98" rx="2" ry="2" width="12" height="12"/><rect class="c" x="642" y="2" rx="2" ry="2" width="12" height="12"/><rect class="c" x="642" y="18" rx="2" ry="2" width="12" height="12"/><rect class="c" x="642" y="34" rx="2" ry="2" width="12" height="12"/><rect class="c" x="642" y="50" rx="2" ry="2" width="12" height="12"/><rect class="c" x="642" y="66" rx="2" ry="2" width="12" height="12"/><rect class="c" x="642" y="82" rx="2" ry="2" width="12" height="12"/><rect class="c" x="642" y="98" rx="2" ry="2" width="12" height="12"/><rect class="c" x="658" y="2" rx="2" ry="2" width="12" height="12"/><rect class="c" x="658" y="18" rx="2" ry="2" width="12" height="12"/><rect class="c" x="658" y="34" rx="2" ry="2" width="12" height="12"/><rect class="c" x="658" y="50" rx="2" ry="2" width="12" height="12"/><rect class="c" x="658" y="66" rx="2" ry="2" width="12" height="12"/><rect class="c" x="658" y="82" rx="2" ry="2" width="12" height="12"/><rect class="c" x="658" y="98" rx="2" ry="2" width="12" height="12"/><rect class="c" x="674" y="2" rx="2" ry="2" width="12" height="12"/><rect class="c" x="674" y="18" rx="2" ry="2" width="12" height="12"/><rect class="c" x="674" y="34" rx="2" ry="2" width="12" height="12"/><rect class="c" x="674" y="50" rx="2" ry="2" width="12" height="12"/><rect class="c" x="674" y="66" rx="2" ry="2" width="12" height="12"/><rect class="c" x="674" y="82" rx="2" ry="2" width="12" height="12"/><rect class="c" x="674" y="98" rx="2" ry="2" width="12" height="12"/><rect class="c" x="690" y="2" rx="2" ry="2" width="12" height="12"/><rect class="c" x="690" y="18" rx="2" ry="2" width="12" height="12"/><rect class="c" x="690" y="34" rx="2" ry="2" width="12" height="12"/><rect class="c" x="690" y="50" rx="2" ry="2" width="12" height="12"/><rect class="c" x="690" y="66" rx="2" ry="2" width="12" height="12"/><rect class="c" x="690" y="82" rx="2" ry="2" width="12" height="12"/><rect class="c" x="690" y="98" rx="2" ry="2" width="12" height="12"/><rect class="c" x="706" y="2" rx="2" ry="2" width="12" height="12"/><rect class="c" x="706" y="18" rx="2" ry="2" width="12" height="12"/><rect class="c" x="706" y="34" rx="2" ry="2" width="12" height="12"/><rect class="c" x="706" y="50" rx="2" ry="2" width="12" height="12"/><rect class="c" x="706" y="66" rx="2" ry="2" width="12" height="12"/><rect class="c" x="706" y="82" rx="2" ry="2" width="12" height="12"/><rect class="c" x="706" y="98" rx="2" ry="2" width="12" height="12"/><rect class="c" x="722" y="2" rx="2" ry="2" width="12" height="12"/><rect class="c" x="722" y="18" rx="2" ry="2" width="12" height="12"/><rect class="c" x="722" y="34" rx="2" ry="2" width="12" height="12"/><rect class="c" x="722" y="50" rx="2" ry="2" width="12" height="12"/><rect class="c" x="722" y="66" rx="2" ry="2" width="12" height="12"/><rect class="c" x="722" y="82" rx="2" ry="2" width="12" height="12"/><rect class="c" x="722" y="98" rx="2" ry="2" width="12" height="12"/><rect class="c" x="738" y="2" rx="2" ry="2" width="12" height="12"/><rect class="c" x="738" y="18" rx="2" ry="2" width="12" height="12"/><rect class="c" x="738" y="34" rx="2" ry="2" width="12" height="12"/><rect class="c" x="738" y="50" rx="2" ry="2" width="12" height="12"/><rect class="c" x="738" y="66" rx="2" ry="2" width="12" height="12"/><rect class="c" x="738" y="82" rx="2" ry="2" width="12" height="12"/><rect class="c" x="738" y="98" rx="2" ry="2" width="12" height="12"/><rect class="c" x="754" y="2" rx="2" ry="2" width="12" height="12"/><rect class="c" x="754" y="18" rx="2" ry="2" width="12" height="12"/><rect class="c" x="754" y="34" rx="2" ry="2" width="12" height="12"/><rect class="c" x="754" y="50" rx="2" ry="2" width="12" height="12"/><rect class="c" x="754" y="66" rx="2" ry="2" width="12" height="12"/><rect class="c" x="754" y="82" rx="2" ry="2" width="12" height="12"/><rect class="c" x="754" y="98" rx="2" ry="2" width="12" height="12"/><rect class="c" x="770" y="2" rx="2" ry="2" width="12" height="12"/><rect class="c" x="770" y="18" rx="2" ry="2" width="12" height="12"/><rect class="c" x="770" y="34" rx="2" ry="2" width="12" height="12"/><rect class="c" x="770" y="50" rx="2" ry="2" width="12" height="12"/><rect class="c" x="770" y="66" rx="2" ry="2" width="12" height="12"/><rect class="c" x="770" y="82" rx="2" ry="2" width="12" height="12"/><rect class="c" x="770" y="98" rx="2" ry="2" width="12" height="12"/><rect class="c" x="786" y="2" rx="2" ry="2" width="12" height="12"/><rect class="c" x="786" y="18" rx="2" ry="2" width="12" height="12"/><rect class="c" x="786" y="34" rx="2" ry="2" width="12" height="12"/><rect class="c" x="786" y="50" rx="2" ry="2" width="12" height="12"/><rect class="c" x="786" y="66" rx="2" ry="2" width="12" height="12"/><rect class="c" x="786" y="82" rx="2" ry="2" width="12" height="12"/><rect class="c" x="786" y="98" rx="2" ry="2" width="12" height="12"/><rect class="c" x="802" y="2" rx="2" ry="2" width="12" height="12"/><rect class="c" x="802" y="18" rx="2" ry="2" width="12" height="12"/><rect class="c" x="802" y="34" rx="2" ry="2" width="12" height="12"/><rect class="c" x="802" y="50" rx="2" ry="2" width="12" height="12"/><rect class="c" x="802" y="66" rx="2" ry="2" width="12" height="12"/><rect class="c" x="802" y="82" rx="2" ry="2" width="12" height="12"/><rect class="c" x="802" y="98" rx="2" ry="2" width="12" height="12"/><rect class="c" x="818" y="2" rx="2" ry="2" width="12" height="12"/><rect class="c" x="818" y="18" rx="2" ry="2" width="12" height="12"/><rect class="c" x="818" y="34" rx="2" ry="2" width="12" height="12"/><rect class="c" x="818" y="50" rx="2" ry="2" width="12" height="12"/><rect class="c c12" x="818" y="66" rx="2" ry="2" width="12" height="12"/><rect class="c" x="818" y="82" rx="2" ry="2" width="12" height="12"/><rect class="c" x="818" y="98" rx="2" ry="2" width="12" height="12"/><rect class="c" x="834" y="2" rx="2" ry="2" width="12" height="12"/><rect class="c" x="834" y="18" rx="2" ry="2" width="12" height="12"/><rect class="c" x="834" y="34" rx="2" ry="2" width="12" height="12"/><rect class="c" x="834" y="50" rx="2" ry="2" width="12" height="12"/><rect class="c c13" x="834" y="66" rx="2" ry="2" width="12" height="12"/><rect class="u u0" height="12" width="615.4" x="0.0" y="144"/><rect class="u u1" height="12" width="191.4" x="614.8" y="144"/><rect class="u u2" height="12" width="21.8" x="805.6" y="144"/><rect class="u u3" height="12" width="21.8" x="826.8" y="144"/><rect class="s s0" x="0.8" y="0.8" width="14.4" height="14.4" rx="4.5" ry="4.5"/><rect class="s s1" x="1.8" y="1.8" width="12.3" height="12.3" rx="4.1" ry="4.1"/><rect class="s s2" x="2.6" y="2.6" width="10.8" height="10.8" rx="3.6" ry="3.6"/><rect class="s s3" x="3.0" y="3.0" width="9.9" height="9.9" rx="3.3" ry="3.3"/></svg>