<svg viewBox="-16 -32 880 192" width="880" height="192" xmlns="http://www.w3.org/2000/svg"><desc>Generated with https://github.com/Platane/snk</desc><style>@keyframes c0{57.27%{fill:var(--c2)}57.29%,to{fill:var(--ce)}}@keyframes c1{2.58%{fill:var(--c1)}2.6%,to{fill:var(--ce)}}@keyframes c2{3.23%{fill:var(--c1)}3.25%,to{fill:var(--ce)}}@keyframes c3{3.55%{fill:var(--c1)}3.57%,to{fill:var(--ce)}}@keyframes c4{52.42%{fill:var(--c2)}52.44%,to{fill:var(--ce)}}@keyframes c5{4.84%{fill:var(--c1)}4.86%,to{fill:var(--ce)}}@keyframes c6{5.17%{fill:var(--c1)}5.19%,to{fill:var(--ce)}}@keyframes c7{51.77%{fill:var(--c2)}51.79%,to{fill:var(--ce)}}@keyframes c8{6.79%{fill:var(--c1)}6.81%,to{fill:var(--ce)}}@keyframes c9{94.16%{fill:var(--c4)}94.18%,to{fill:var(--ce)}}@keyframes ca{51.12%{fill:var(--c2)}51.14%,to{fill:var(--ce)}}@keyframes cb{9.05%{fill:var(--c1)}9.07%,to{fill:var(--ce)}}@keyframes cc{49.5%{fill:var(--c2)}49.52%,to{fill:var(--ce)}}@keyframes cd{70.54%{fill:var(--c3)}70.56%,to{fill:var(--ce)}}@keyframes ce{63.74%{fill:var(--c3)}63.76%,to{fill:var(--ce)}}@keyframes cf{64.07%{fill:var(--c3)}64.09%,to{fill:var(--ce)}}@keyframes cg{91.58%{fill:var(--c4)}91.6%,to{fill:var(--ce)}}@keyframes ch{65.69%{fill:var(--c3)}65.71%,to{fill:var(--ce)}}@keyframes ci{12.93%{fill:var(--c1)}12.95%,to{fill:var(--ce)}}@keyframes cj{47.24%{fill:var(--c2)}47.26%,to{fill:var(--ce)}}@keyframes ck{13.26%{fill:var(--c1)}13.28%,to{fill:var(--ce)}}@keyframes cl{67.3%{fill:var(--c3)}67.32%,to{fill:var(--ce)}}@keyframes cm{15.2%{fill:var(--c1)}15.22%,to{fill:var(--ce)}}@keyframes cn{19.41%{fill:var(--c1)}19.43%,to{fill:var(--ce)}}@keyframes co{42.38%{fill:var(--c2)}42.4%,to{fill:var(--ce)}}@keyframes cp{18.11%{fill:var(--c1)}18.13%,to{fill:var(--ce)}}@keyframes cq{21.67%{fill:var(--c1)}21.69%,to{fill:var(--ce)}}@keyframes cr{22%{fill:var(--c1)}22.02%,to{fill:var(--ce)}}@keyframes cs{26.53%{fill:var(--c1)}26.55%,to{fill:var(--ce)}}@keyframes ct{26.85%{fill:var(--c1)}26.87%,to{fill:var(--ce)}}@keyframes cu{81.54%{fill:var(--c3)}81.56%,to{fill:var(--ce)}}@keyframes cv{33.32%{fill:var(--c2)}33.34%,to{fill:var(--ce)}}@keyframes cw{30.41%{fill:var(--c1)}30.43%,to{fill:var(--ce)}}@keyframes cx{30.09%{fill:var(--c1)}30.11%,to{fill:var(--ce)}}@keyframes cy{29.44%{fill:var(--c1)}29.46%,to{fill:var(--ce)}}@keyframes cz{28.47%{fill:var(--c1)}28.49%,to{fill:var(--ce)}}@keyframes c10{31.06%{fill:var(--c2)}31.08%,to{fill:var(--ce)}}@keyframes c11{30.73%{fill:var(--c1)}30.75%,to{fill:var(--ce)}}@keyframes c12{28.79%{fill:var(--c1)}28.81%,to{fill:var(--ce)}}@keyframes c13{34.94%{fill:var(--c2)}34.96%,to{fill:var(--ce)}}@keyframes u0{2.58%{transform:scale(0,1)}2.6%,3.23%{transform:scale(.05,1)}3.25%,3.55%{transform:scale(.09,1)}3.57%,4.84%{transform:scale(.14,1)}4.86%,5.17%{transform:scale(.18,1)}5.19%,6.79%{transform:scale(.23,1)}6.81%,9.05%{transform:scale(.27,1)}12.93%,9.07%{transform:scale(.32,1)}12.95%,13.26%{transform:scale(.36,1)}13.28%,15.2%{transform:scale(.41,1)}15.22%,18.11%{transform:scale(.45,1)}18.13%,19.41%{transform:scale(.5,1)}19.43%,21.67%{transform:scale(.55,1)}21.69%,22%{transform:scale(.59,1)}22.02%,26.53%{transform:scale(.64,1)}26.55%,26.85%{transform:scale(.68,1)}26.87%,28.47%{transform:scale(.73,1)}28.49%,28.79%{transform:scale(.77,1)}28.81%,29.44%{transform:scale(.82,1)}29.46%,30.09%{transform:scale(.86,1)}30.11%,30.41%{transform:scale(.91,1)}30.43%,30.73%{transform:scale(.95,1)}30.75%,to{transform:scale(1,1)}}@keyframes u1{31.06%{transform:scale(0,1)}31.08%,33.32%{transform:scale(.1,1)}33.34%,34.94%{transform:scale(.2,1)}34.96%,42.38%{transform:scale(.3,1)}42.4%,47.24%{transform:scale(.4,1)}47.26%,49.5%{transform:scale(.5,1)}49.52%,51.12%{transform:scale(.6,1)}51.14%,51.77%{transform:scale(.7,1)}51.79%,52.42%{transform:scale(.8,1)}52.44%,57.27%{transform:scale(.9,1)}57.29%,to{transform:scale(1,1)}}@keyframes u2{63.74%{transform:scale(0,1)}63.76%,64.07%{transform:scale(.17,1)}64.09%,65.69%{transform:scale(.33,1)}65.71%,67.3%{transform:scale(.5,1)}67.32%,70.54%{transform:scale(.67,1)}70.56%,81.54%{transform:scale(.83,1)}81.56%,to{transform:scale(1,1)}}@keyframes u3{91.58%{transform:scale(0,1)}91.6%,94.16%{transform:scale(.5,1)}94.18%,to{transform:scale(1,1)}}@keyframes s0{0%,99.68%{transform:translate(0,-16px)}.32%{transform:translate(0,0)}2.91%{transform:translate(128px,0)}3.56%,96.12%{transform:translate(128px,32px)}4.85%{transform:translate(192px,32px)}5.18%{transform:translate(192px,48px)}5.5%{transform:translate(176px,48px)}5.83%{transform:translate(176px,32px)}6.47%{transform:translate(208px,32px)}6.8%,93.53%{transform:translate(208px,16px)}7.12%{transform:translate(224px,16px)}8.41%{transform:translate(224px,80px)}8.74%{transform:translate(208px,80px)}9.06%{transform:translate(208px,96px)}49.84%,9.71%{transform:translate(240px,96px)}10.03%{transform:translate(240px,80px)}11%{transform:translate(288px,80px)}11.97%{transform:translate(288px,32px)}12.62%,65.05%{transform:translate(320px,32px)}12.94%,46.6%{transform:translate(320px,16px)}14.56%{transform:translate(400px,16px)}15.21%{transform:translate(400px,48px)}17.8%{transform:translate(528px,48px)}18.12%,20.71%{transform:translate(528px,32px)}18.45%{transform:translate(544px,32px)}19.09%{transform:translate(544px,0)}19.74%{transform:translate(512px,0)}20.39%{transform:translate(512px,32px)}22.01%{transform:translate(528px,96px)}25.89%{transform:translate(720px,96px)}26.54%{transform:translate(720px,64px)}27.18%{transform:translate(752px,64px)}27.51%{transform:translate(752px,80px)}28.8%,34.63%{transform:translate(816px,80px)}29.13%{transform:translate(816px,64px)}29.45%{transform:translate(800px,64px)}30.42%,36.89%{transform:translate(800px,16px)}30.74%{transform:translate(816px,16px)}31.07%{transform:translate(816px,0)}31.72%{transform:translate(784px,0)}33.01%{transform:translate(784px,64px)}33.33%{transform:translate(768px,64px)}33.66%{transform:translate(768px,80px)}34.95%{transform:translate(816px,96px)}35.28%{transform:translate(800px,96px)}47.57%{transform:translate(320px,64px)}48.87%{transform:translate(256px,64px)}49.51%{transform:translate(256px,96px)}50.49%{transform:translate(240px,64px)}51.46%{transform:translate(192px,64px)}51.78%{transform:translate(192px,80px)}52.1%{transform:translate(176px,80px)}52.43%{transform:translate(176px,96px)}52.75%{transform:translate(160px,96px)}54.05%{transform:translate(160px,32px)}57.28%{transform:translate(0,32px)}57.61%{transform:translate(0,16px)}63.43%{transform:translate(288px,16px)}63.75%{transform:translate(288px,0)}64.4%{transform:translate(320px,0)}65.37%{transform:translate(304px,32px)}65.7%{transform:translate(304px,48px)}66.99%{transform:translate(368px,48px)}67.31%{transform:translate(368px,32px)}69.26%{transform:translate(272px,32px)}70.55%{transform:translate(272px,96px)}80.58%{transform:translate(768px,96px)}82.2%{transform:translate(768px,16px)}94.17%{transform:translate(208px,48px)}95.47%{transform:translate(144px,48px)}95.79%{transform:translate(144px,32px)}96.44%{transform:translate(128px,16px)}96.76%{transform:translate(112px,16px)}97.09%{transform:translate(112px,0)}98.06%{transform:translate(64px,0)}98.38%{transform:translate(64px,-16px)}}@keyframes s1{0%,99.68%{transform:translate(16px,-16px)}.32%{transform:translate(0,-16px)}.65%{transform:translate(0,0)}3.24%{transform:translate(128px,0)}3.88%,96.44%{transform:translate(128px,32px)}5.18%{transform:translate(192px,32px)}5.5%{transform:translate(192px,48px)}5.83%{transform:translate(176px,48px)}6.15%{transform:translate(176px,32px)}6.8%{transform:translate(208px,32px)}7.12%,93.85%{transform:translate(208px,16px)}7.44%{transform:translate(224px,16px)}8.74%{transform:translate(224px,80px)}9.06%{transform:translate(208px,80px)}9.39%{transform:translate(208px,96px)}10.03%,50.16%{transform:translate(240px,96px)}10.36%{transform:translate(240px,80px)}11.33%{transform:translate(288px,80px)}12.3%{transform:translate(288px,32px)}12.94%,65.37%{transform:translate(320px,32px)}13.27%,46.93%{transform:translate(320px,16px)}14.89%{transform:translate(400px,16px)}15.53%{transform:translate(400px,48px)}18.12%{transform:translate(528px,48px)}18.45%,21.04%{transform:translate(528px,32px)}18.77%{transform:translate(544px,32px)}19.42%{transform:translate(544px,0)}20.06%{transform:translate(512px,0)}20.71%{transform:translate(512px,32px)}22.33%{transform:translate(528px,96px)}26.21%{transform:translate(720px,96px)}26.86%{transform:translate(720px,64px)}27.51%{transform:translate(752px,64px)}27.83%{transform:translate(752px,80px)}29.13%,34.95%{transform:translate(816px,80px)}29.45%{transform:translate(816px,64px)}29.77%{transform:translate(800px,64px)}30.74%,37.22%{transform:translate(800px,16px)}31.07%{transform:translate(816px,16px)}31.39%{transform:translate(816px,0)}32.04%{transform:translate(784px,0)}33.33%{transform:translate(784px,64px)}33.66%{transform:translate(768px,64px)}33.98%{transform:translate(768px,80px)}35.28%{transform:translate(816px,96px)}35.6%{transform:translate(800px,96px)}47.9%{transform:translate(320px,64px)}49.19%{transform:translate(256px,64px)}49.84%{transform:translate(256px,96px)}50.81%{transform:translate(240px,64px)}51.78%{transform:translate(192px,64px)}52.1%{transform:translate(192px,80px)}52.43%{transform:translate(176px,80px)}52.75%{transform:translate(176px,96px)}53.07%{transform:translate(160px,96px)}54.37%{transform:translate(160px,32px)}57.61%{transform:translate(0,32px)}57.93%{transform:translate(0,16px)}63.75%{transform:translate(288px,16px)}64.08%{transform:translate(288px,0)}64.72%{transform:translate(320px,0)}65.7%{transform:translate(304px,32px)}66.02%{transform:translate(304px,48px)}67.31%{transform:translate(368px,48px)}67.64%{transform:translate(368px,32px)}69.58%{transform:translate(272px,32px)}70.87%{transform:translate(272px,96px)}80.91%{transform:translate(768px,96px)}82.52%{transform:translate(768px,16px)}94.5%{transform:translate(208px,48px)}95.79%{transform:translate(144px,48px)}96.12%{transform:translate(144px,32px)}96.76%{transform:translate(128px,16px)}97.09%{transform:translate(112px,16px)}97.41%{transform:translate(112px,0)}98.38%{transform:translate(64px,0)}98.71%{transform:translate(64px,-16px)}}@keyframes s2{0%,99.68%{transform:translate(32px,-16px)}.65%{transform:translate(0,-16px)}.97%{transform:translate(0,0)}3.56%{transform:translate(128px,0)}4.21%,96.76%{transform:translate(128px,32px)}5.5%{transform:translate(192px,32px)}5.83%{transform:translate(192px,48px)}6.15%{transform:translate(176px,48px)}6.47%{transform:translate(176px,32px)}7.12%{transform:translate(208px,32px)}7.44%,94.17%{transform:translate(208px,16px)}7.77%{transform:translate(224px,16px)}9.06%{transform:translate(224px,80px)}9.39%{transform:translate(208px,80px)}9.71%{transform:translate(208px,96px)}10.36%,50.49%{transform:translate(240px,96px)}10.68%{transform:translate(240px,80px)}11.65%{transform:translate(288px,80px)}12.62%{transform:translate(288px,32px)}13.27%,65.7%{transform:translate(320px,32px)}13.59%,47.25%{transform:translate(320px,16px)}15.21%{transform:translate(400px,16px)}15.86%{transform:translate(400px,48px)}18.45%{transform:translate(528px,48px)}18.77%,21.36%{transform:translate(528px,32px)}19.09%{transform:translate(544px,32px)}19.74%{transform:translate(544px,0)}20.39%{transform:translate(512px,0)}21.04%{transform:translate(512px,32px)}22.65%{transform:translate(528px,96px)}26.54%{transform:translate(720px,96px)}27.18%{transform:translate(720px,64px)}27.83%{transform:translate(752px,64px)}28.16%{transform:translate(752px,80px)}29.45%,35.28%{transform:translate(816px,80px)}29.77%{transform:translate(816px,64px)}30.1%{transform:translate(800px,64px)}31.07%,37.54%{transform:translate(800px,16px)}31.39%{transform:translate(816px,16px)}31.72%{transform:translate(816px,0)}32.36%{transform:translate(784px,0)}33.66%{transform:translate(784px,64px)}33.98%{transform:translate(768px,64px)}34.3%{transform:translate(768px,80px)}35.6%{transform:translate(816px,96px)}35.92%{transform:translate(800px,96px)}48.22%{transform:translate(320px,64px)}49.51%{transform:translate(256px,64px)}50.16%{transform:translate(256px,96px)}51.13%{transform:translate(240px,64px)}52.1%{transform:translate(192px,64px)}52.43%{transform:translate(192px,80px)}52.75%{transform:translate(176px,80px)}53.07%{transform:translate(176px,96px)}53.4%{transform:translate(160px,96px)}54.69%{transform:translate(160px,32px)}57.93%{transform:translate(0,32px)}58.25%{transform:translate(0,16px)}64.08%{transform:translate(288px,16px)}64.4%{transform:translate(288px,0)}65.05%{transform:translate(320px,0)}66.02%{transform:translate(304px,32px)}66.34%{transform:translate(304px,48px)}67.64%{transform:translate(368px,48px)}67.96%{transform:translate(368px,32px)}69.9%{transform:translate(272px,32px)}71.2%{transform:translate(272px,96px)}81.23%{transform:translate(768px,96px)}82.85%{transform:translate(768px,16px)}94.82%{transform:translate(208px,48px)}96.12%{transform:translate(144px,48px)}96.44%{transform:translate(144px,32px)}97.09%{transform:translate(128px,16px)}97.41%{transform:translate(112px,16px)}97.73%{transform:translate(112px,0)}98.71%{transform:translate(64px,0)}99.03%{transform:translate(64px,-16px)}}@keyframes s3{0%,99.68%{transform:translate(48px,-16px)}.97%{transform:translate(0,-16px)}1.29%{transform:translate(0,0)}3.88%{transform:translate(128px,0)}4.53%,97.09%{transform:translate(128px,32px)}5.83%{transform:translate(192px,32px)}6.15%{transform:translate(192px,48px)}6.47%{transform:translate(176px,48px)}6.8%{transform:translate(176px,32px)}7.44%{transform:translate(208px,32px)}7.77%,94.5%{transform:translate(208px,16px)}8.09%{transform:translate(224px,16px)}9.39%{transform:translate(224px,80px)}9.71%{transform:translate(208px,80px)}10.03%{transform:translate(208px,96px)}10.68%,50.81%{transform:translate(240px,96px)}11%{transform:translate(240px,80px)}11.97%{transform:translate(288px,80px)}12.94%{transform:translate(288px,32px)}13.59%,66.02%{transform:translate(320px,32px)}13.92%,47.57%{transform:translate(320px,16px)}15.53%{transform:translate(400px,16px)}16.18%{transform:translate(400px,48px)}18.77%{transform:translate(528px,48px)}19.09%,21.68%{transform:translate(528px,32px)}19.42%{transform:translate(544px,32px)}20.06%{transform:translate(544px,0)}20.71%{transform:translate(512px,0)}21.36%{transform:translate(512px,32px)}22.98%{transform:translate(528px,96px)}26.86%{transform:translate(720px,96px)}27.51%{transform:translate(720px,64px)}28.16%{transform:translate(752px,64px)}28.48%{transform:translate(752px,80px)}29.77%,35.6%{transform:translate(816px,80px)}30.1%{transform:translate(816px,64px)}30.42%{transform:translate(800px,64px)}31.39%,37.86%{transform:translate(800px,16px)}31.72%{transform:translate(816px,16px)}32.04%{transform:translate(816px,0)}32.69%{transform:translate(784px,0)}33.98%{transform:translate(784px,64px)}34.3%{transform:translate(768px,64px)}34.63%{transform:translate(768px,80px)}35.92%{transform:translate(816px,96px)}36.25%{transform:translate(800px,96px)}48.54%{transform:translate(320px,64px)}49.84%{transform:translate(256px,64px)}50.49%{transform:translate(256px,96px)}51.46%{transform:translate(240px,64px)}52.43%{transform:translate(192px,64px)}52.75%{transform:translate(192px,80px)}53.07%{transform:translate(176px,80px)}53.4%{transform:translate(176px,96px)}53.72%{transform:translate(160px,96px)}55.02%{transform:translate(160px,32px)}58.25%{transform:translate(0,32px)}58.58%{transform:translate(0,16px)}64.4%{transform:translate(288px,16px)}64.72%{transform:translate(288px,0)}65.37%{transform:translate(320px,0)}66.34%{transform:translate(304px,32px)}66.67%{transform:translate(304px,48px)}67.96%{transform:translate(368px,48px)}68.28%{transform:translate(368px,32px)}70.23%{transform:translate(272px,32px)}71.52%{transform:translate(272px,96px)}81.55%{transform:translate(768px,96px)}83.17%{transform:translate(768px,16px)}95.15%{transform:translate(208px,48px)}96.44%{transform:translate(144px,48px)}96.76%{transform:translate(144px,32px)}97.41%{transform:translate(128px,16px)}97.73%{transform:translate(112px,16px)}98.06%{transform:translate(112px,0)}99.03%{transform:translate(64px,0)}99.35%{transform:translate(64px,-16px)}}:root{--cb:#1b1f230a;--cs:purple;--ce:#ebedf0;--c0:#ebedf0;--c1:#9be9a8;--c2:#40c463;--c3:#30a14e;--c4:#216e39}@media (prefers-color-scheme:dark){:root{--cb:#1b1f230a;--cs:purple;--ce:#161b22;--c1:#01311f;--c2:#034525;--c3:#0f6d31;--c4:#00c647}}.c{shape-rendering:geometricPrecision;fill:var(--ce);stroke-width:1px;stroke:var(--cb);animation:none 30900ms linear infinite}.c.c0{fill:var(--c2);animation-name:c0}.c.c1,.c.c2,.c.c3{fill:var(--c1);animation-name:c1}.c.c2,.c.c3{animation-name:c2}.c.c3{animation-name:c3}.c.c4{fill:var(--c2);animation-name:c4}.c.c5,.c.c6{fill:var(--c1);animation-name:c5}.c.c6{animation-name:c6}.c.c7{fill:var(--c2);animation-name:c7}.c.c8{fill:var(--c1);animation-name:c8}.c.c9{fill:var(--c4);animation-name:c9}.c.ca{fill:var(--c2);animation-name:ca}.c.cb{fill:var(--c1);animation-name:cb}.c.cc{fill:var(--c2);animation-name:cc}.c.cd,.c.ce,.c.cf{fill:var(--c3);animation-name:cd}.c.ce,.c.cf{animation-name:ce}.c.cf{animation-name:cf}.c.cg{fill:var(--c4);animation-name:cg}.c.ch{fill:var(--c3);animation-name:ch}.c.ci{fill:var(--c1);animation-name:ci}.c.cj{fill:var(--c2);animation-name:cj}.c.ck{fill:var(--c1);animation-name:ck}.c.cl{fill:var(--c3);animation-name:cl}.c.cm,.c.cn{fill:var(--c1);animation-name:cm}.c.cn{animation-name:cn}.c.co{fill:var(--c2);animation-name:co}.c.cp,.c.cq{fill:var(--c1);animation-name:cp}.c.cq{animation-name:cq}.c.cr,.c.cs,.c.ct{fill:var(--c1);animation-name:cr}.c.cs,.c.ct{animation-name:cs}.c.ct{animation-name:ct}.c.cu{fill:var(--c3);animation-name:cu}.c.cv{fill:var(--c2);animation-name:cv}.c.cw{fill:var(--c1);animation-name:cw}.c.cx,.c.cy,.c.cz{fill:var(--c1);animation-name:cx}.c.cy,.c.cz{animation-name:cy}.c.cz{animation-name:cz}.c.c10{fill:var(--c2);animation-name:c10}.c.c11,.c.c12{fill:var(--c1);animation-name:c11}.c.c12{animation-name:c12}.c.c13{fill:var(--c2);animation-name:c13}.s,.u{animation:none linear 30900ms infinite}.u,.u.u0{transform-origin:0 0}.u{transform:scale(0,1)}.u.u0{fill:var(--c1);animation-name:u0}.u.u1{fill:var(--c2);animation-name:u1;transform-origin:466.4px 0}.u.u2{fill:var(--c3);animation-name:u2;transform-origin:678.4px 0}.u.u3{fill:var(--c4);animation-name:u3;transform-origin:805.6px 0}.s{shape-rendering:geometricPrecision;fill:var(--cs)}.s.s0{transform:translate(0,-16px);animation-name:s0}.s.s1{transform:translate(16px,-16px);animation-name:s1}.s.s2{transform:translate(32px,-16px);animation-name:s2}.s.s3{transform:translate(48px,-16px);animation-name:s3}</style><rect class="c" x="2" y="2" rx="2" ry="2" width="12" height="12"/><rect class="c" x="2" y="18" rx="2" ry="2" width="12" height="12"/><rect class="c c0" x="2" y="34" rx="2" ry="2" width="12" height="12"/><rect class="c" x="2" y="50" rx="2" ry="2" width="12" height="12"/><rect class="c" x="2" y="66" rx="2" ry="2" width="12" height="12"/><rect class="c" x="2" y="82" rx="2" ry="2" width="12" height="12"/><rect class="c" x="2" y="98" rx="2" ry="2" width="12" height="12"/><rect class="c" x="18" y="2" rx="2" ry="2" width="12" height="12"/><rect class="c" x="18" y="18" rx="2" ry="2" width="12" height="12"/><rect class="c" x="18" y="34" rx="2" ry="2" width="12" height="12"/><rect class="c" x="18" y="50" rx="2" ry="2" width="12" height="12"/><rect class="c" x="18" y="66" rx="2" ry="2" width="12" height="12"/><rect class="c" x="18" y="82" rx="2" ry="2" width="12" height="12"/><rect class="c" x="18" y="98" rx="2" ry="2" width="12" height="12"/><rect class="c" x="34" y="2" rx="2" ry="2" width="12" height="12"/><rect class="c" x="34" y="18" rx="2" ry="2" width="12" height="12"/><rect class="c" x="34" y="34" rx="2" ry="2" width="12" height="12"/><rect class="c" x="34" y="50" rx="2" ry="2" width="12" height="12"/><rect class="c" x="34" y="66" rx="2" ry="2" width="12" height="12"/><rect class="c" x="34" y="82" rx="2" ry="2" width="12" height="12"/><rect class="c" x="34" y="98" rx="2" ry="2" width="12" height="12"/><rect class="c" x="50" y="2" rx="2" ry="2" width="12" height="12"/><rect class="c" x="50" y="18" rx="2" ry="2" width="12" height="12"/><rect class="c" x="50" y="34" rx="2" ry="2" width="12" height="12"/><rect class="c" x="50" y="50" rx="2" ry="2" width="12" height="12"/><rect class="c" x="50" y="66" rx="2" ry="2" width="12" height="12"/><rect class="c" x="50" y="82" rx="2" ry="2" width="12" height="12"/><rect class="c" x="50" y="98" rx="2" ry="2" width="12" height="12"/><rect class="c" x="66" y="2" rx="2" ry="2" width="12" height="12"/><rect class="c" x="66" y="18" rx="2" ry="2" width="12" height="12"/><rect class="c" x="66" y="34" rx="2" ry="2" width="12" height="12"/><rect class="c" x="66" y="50" rx="2" ry="2" width="12" height="12"/><rect class="c" x="66" y="66" rx="2" ry="2" width="12" height="12"/><rect class="c" x="66" y="82" rx="2" ry="2" width="12" height="12"/><rect class="c" x="66" y="98" rx="2" ry="2" width="12" height="12"/><rect class="c" x="82" y="2" rx="2" ry="2" width="12" height="12"/><rect class="c" x="82" y="18" rx="2" ry="2" width="12" height="12"/><rect class="c" x="82" y="34" rx="2" ry="2" width="12" height="12"/><rect class="c" x="82" y="50" rx="2" ry="2" width="12" height="12"/><rect class="c" x="82" y="66" rx="2" ry="2" width="12" height="12"/><rect class="c" x="82" y="82" rx="2" ry="2" width="12" height="12"/><rect class="c" x="82" y="98" rx="2" ry="2" width="12" height="12"/><rect class="c" x="98" y="2" rx="2" ry="2" width="12" height="12"/><rect class="c" x="98" y="18" rx="2" ry="2" width="12" height="12"/><rect class="c" x="98" y="34" rx="2" ry="2" width="12" height="12"/><rect class="c" x="98" y="50" rx="2" ry="2" width="12" height="12"/><rect class="c" x="98" y="66" rx="2" ry="2" width="12" height="12"/><rect class="c" x="98" y="82" rx="2" ry="2" width="12" height="12"/><rect class="c" x="98" y="98" rx="2" ry="2" width="12" height="12"/><rect class="c c1" x="114" y="2" rx="2" ry="2" width="12" height="12"/><rect class="c" x="114" y="18" rx="2" ry="2" width="12" height="12"/><rect class="c" x="114" y="34" rx="2" ry="2" width="12" height="12"/><rect class="c" x="114" y="50" rx="2" ry="2" width="12" height="12"/><rect class="c" x="114" y="66" rx="2" ry="2" width="12" height="12"/><rect class="c" x="114" y="82" rx="2" ry="2" width="12" height="12"/><rect class="c" x="114" y="98" rx="2" ry="2" width="12" height="12"/><rect class="c" x="130" y="2" rx="2" ry="2" width="12" height="12"/><rect class="c c2" x="130" y="18" rx="2" ry="2" width="12" height="12"/><rect class="c c3" x="130" y="34" rx="2" ry="2" width="12" height="12"/><rect class="c" x="130" y="50" rx="2" ry="2" width="12" height="12"/><rect class="c" x="130" y="66" rx="2" ry="2" width="12" height="12"/><rect class="c" x="130" y="82" rx="2" ry="2" width="12" height="12"/><rect class="c" x="130" y="98" rx="2" ry="2" width="12" height="12"/><rect class="c" x="146" y="2" rx="2" ry="2" width="12" height="12"/><rect class="c" x="146" y="18" rx="2" ry="2" width="12" height="12"/><rect class="c" x="146" y="34" rx="2" ry="2" width="12" height="12"/><rect class="c" x="146" y="50" rx="2" ry="2" width="12" height="12"/><rect class="c" x="146" y="66" rx="2" ry="2" width="12" height="12"/><rect class="c" x="146" y="82" rx="2" ry="2" width="12" height="12"/><rect class="c" x="146" y="98" rx="2" ry="2" width="12" height="12"/><rect class="c" x="162" y="2" rx="2" ry="2" width="12" height="12"/><rect class="c" x="162" y="18" rx="2" ry="2" width="12" height="12"/><rect class="c" x="162" y="34" rx="2" ry="2" width="12" height="12"/><rect class="c" x="162" y="50" rx="2" ry="2" width="12" height="12"/><rect class="c" x="162" y="66" rx="2" ry="2" width="12" height="12"/><rect class="c" x="162" y="82" rx="2" ry="2" width="12" height="12"/><rect class="c" x="162" y="98" rx="2" ry="2" width="12" height="12"/><rect class="c" x="178" y="2" rx="2" ry="2" width="12" height="12"/><rect class="c" x="178" y="18" rx="2" ry="2" width="12" height="12"/><rect class="c" x="178" y="34" rx="2" ry="2" width="12" height="12"/><rect class="c" x="178" y="50" rx="2" ry="2" width="12" height="12"/><rect class="c" x="178" y="66" rx="2" ry="2" width="12" height="12"/><rect class="c" x="178" y="82" rx="2" ry="2" width="12" height="12"/><rect class="c c4" x="178" y="98" rx="2" ry="2" width="12" height="12"/><rect class="c" x="194" y="2" rx="2" ry="2" width="12" height="12"/><rect class="c" x="194" y="18" rx="2" ry="2" width="12" height="12"/><rect class="c c5" x="194" y="34" rx="2" ry="2" width="12" height="12"/><rect class="c c6" x="194" y="50" rx="2" ry="2" width="12" height="12"/><rect class="c" x="194" y="66" rx="2" ry="2" width="12" height="12"/><rect class="c c7" x="194" y="82" rx="2" ry="2" width="12" height="12"/><rect class="c" x="194" y="98" rx="2" ry="2" width="12" height="12"/><rect class="c" x="210" y="2" rx="2" ry="2" width="12" height="12"/><rect class="c c8" x="210" y="18" rx="2" ry="2" width="12" height="12"/><rect class="c" x="210" y="34" rx="2" ry="2" width="12" height="12"/><rect class="c c9" x="210" y="50" rx="2" ry="2" width="12" height="12"/><rect class="c ca" x="210" y="66" rx="2" ry="2" width="12" height="12"/><rect class="c" x="210" y="82" rx="2" ry="2" width="12" height="12"/><rect class="c cb" x="210" y="98" rx="2" ry="2" width="12" height="12"/><rect class="c" x="226" y="2" rx="2" ry="2" width="12" height="12"/><rect class="c" x="226" y="18" rx="2" ry="2" width="12" height="12"/><rect class="c" x="226" y="34" rx="2" ry="2" width="12" height="12"/><rect class="c" x="226" y="50" rx="2" ry="2" width="12" height="12"/><rect class="c" x="226" y="66" rx="2" ry="2" width="12" height="12"/><rect class="c" x="226" y="82" rx="2" ry="2" width="12" height="12"/><rect class="c" x="226" y="98" rx="2" ry="2" width="12" height="12"/><rect class="c" x="242" y="2" rx="2" ry="2" width="12" height="12"/><rect class="c" x="242" y="18" rx="2" ry="2" width="12" height="12"/><rect class="c" x="242" y="34" rx="2" ry="2" width="12" height="12"/><rect class="c" x="242" y="50" rx="2" ry="2" width="12" height="12"/><rect class="c" x="242" y="66" rx="2" ry="2" width="12" height="12"/><rect class="c" x="242" y="82" rx="2" ry="2" width="12" height="12"/><rect class="c" x="242" y="98" rx="2" ry="2" width="12" height="12"/><rect class="c" x="258" y="2" rx="2" ry="2" width="12" height="12"/><rect class="c" x="258" y="18" rx="2" ry="2" width="12" height="12"/><rect class="c" x="258" y="34" rx="2" ry="2" width="12" height="12"/><rect class="c" x="258" y="50" rx="2" ry="2" width="12" height="12"/><rect class="c" x="258" y="66" rx="2" ry="2" width="12" height="12"/><rect class="c" x="258" y="82" rx="2" ry="2" width="12" height="12"/><rect class="c cc" x="258" y="98" rx="2" ry="2" width="12" height="12"/><rect class="c" x="274" y="2" rx="2" ry="2" width="12" height="12"/><rect class="c" x="274" y="18" rx="2" ry="2" width="12" height="12"/><rect class="c" x="274" y="34" rx="2" ry="2" width="12" height="12"/><rect class="c" x="274" y="50" rx="2" ry="2" width="12" height="12"/><rect class="c" x="274" y="66" rx="2" ry="2" width="12" height="12"/><rect class="c" x="274" y="82" rx="2" ry="2" width="12" height="12"/><rect class="c cd" x="274" y="98" rx="2" ry="2" width="12" height="12"/><rect class="c ce" x="290" y="2" rx="2" ry="2" width="12" height="12"/><rect class="c" x="290" y="18" rx="2" ry="2" width="12" height="12"/><rect class="c" x="290" y="34" rx="2" ry="2" width="12" height="12"/><rect class="c" x="290" y="50" rx="2" ry="2" width="12" height="12"/><rect class="c" x="290" y="66" rx="2" ry="2" width="12" height="12"/><rect class="c" x="290" y="82" rx="2" ry="2" width="12" height="12"/><rect class="c" x="290" y="98" rx="2" ry="2" width="12" height="12"/><rect class="c cf" x="306" y="2" rx="2" ry="2" width="12" height="12"/><rect class="c cg" x="306" y="18" rx="2" ry="2" width="12" height="12"/><rect class="c" x="306" y="34" rx="2" ry="2" width="12" height="12"/><rect class="c ch" x="306" y="50" rx="2" ry="2" width="12" height="12"/><rect class="c" x="306" y="66" rx="2" ry="2" width="12" height="12"/><rect class="c" x="306" y="82" rx="2" ry="2" width="12" height="12"/><rect class="c" x="306" y="98" rx="2" ry="2" width="12" height="12"/><rect class="c" x="322" y="2" rx="2" ry="2" width="12" height="12"/><rect class="c ci" x="322" y="18" rx="2" ry="2" width="12" height="12"/><rect class="c" x="322" y="34" rx="2" ry="2" width="12" height="12"/><rect class="c cj" x="322" y="50" rx="2" ry="2" width="12" height="12"/><rect class="c" x="322" y="66" rx="2" ry="2" width="12" height="12"/><rect class="c" x="322" y="82" rx="2" ry="2" width="12" height="12"/><rect class="c" x="322" y="98" rx="2" ry="2" width="12" height="12"/><rect class="c" x="338" y="2" rx="2" ry="2" width="12" height="12"/><rect class="c ck" x="338" y="18" rx="2" ry="2" width="12" height="12"/><rect class="c" x="338" y="34" rx="2" ry="2" width="12" height="12"/><rect class="c" x="338" y="50" rx="2" ry="2" width="12" height="12"/><rect class="c" x="338" y="66" rx="2" ry="2" width="12" height="12"/><rect class="c" x="338" y="82" rx="2" ry="2" width="12" height="12"/><rect class="c" x="338" y="98" rx="2" ry="2" width="12" height="12"/><rect class="c" x="354" y="2" rx="2" ry="2" width="12" height="12"/><rect class="c" x="354" y="18" rx="2" ry="2" width="12" height="12"/><rect class="c" x="354" y="34" rx="2" ry="2" width="12" height="12"/><rect class="c" x="354" y="50" rx="2" ry="2" width="12" height="12"/><rect class="c" x="354" y="66" rx="2" ry="2" width="12" height="12"/><rect class="c" x="354" y="82" rx="2" ry="2" width="12" height="12"/><rect class="c" x="354" y="98" rx="2" ry="2" width="12" height="12"/><rect class="c" x="370" y="2" rx="2" ry="2" width="12" height="12"/><rect class="c" x="370" y="18" rx="2" ry="2" width="12" height="12"/><rect class="c cl" x="370" y="34" rx="2" ry="2" width="12" height="12"/><rect class="c" x="370" y="50" rx="2" ry="2" width="12" height="12"/><rect class="c" x="370" y="66" rx="2" ry="2" width="12" height="12"/><rect class="c" x="370" y="82" rx="2" ry="2" width="12" height="12"/><rect class="c" x="370" y="98" rx="2" ry="2" width="12" height="12"/><rect class="c" x="386" y="2" rx="2" ry="2" width="12" height="12"/><rect class="c" x="386" y="18" rx="2" ry="2" width="12" height="12"/><rect class="c" x="386" y="34" rx="2" ry="2" width="12" height="12"/><rect class="c" x="386" y="50" rx="2" ry="2" width="12" height="12"/><rect class="c" x="386" y="66" rx="2" ry="2" width="12" height="12"/><rect class="c" x="386" y="82" rx="2" ry="2" width="12" height="12"/><rect class="c" x="386" y="98" rx="2" ry="2" width="12" height="12"/><rect class="c" x="402" y="2" rx="2" ry="2" width="12" height="12"/><rect class="c" x="402" y="18" rx="2" ry="2" width="12" height="12"/><rect class="c" x="402" y="34" rx="2" ry="2" width="12" height="12"/><rect class="c cm" x="402" y="50" rx="2" ry="2" width="12" height="12"/><rect class="c" x="402" y="66" rx="2" ry="2" width="12" height="12"/><rect class="c" x="402" y="82" rx="2" ry="2" width="12" height="12"/><rect class="c" x="402" y="98" rx="2" ry="2" width="12" height="12"/><rect class="c" x="418" y="2" rx="2" ry="2" width="12" height="12"/><rect class="c" x="418" y="18" rx="2" ry="2" width="12" height="12"/><rect class="c" x="418" y="34" rx="2" ry="2" width="12" height="12"/><rect class="c" x="418" y="50" rx="2" ry="2" width="12" height="12"/><rect class="c" x="418" y="66" rx="2" ry="2" width="12" height="12"/><rect class="c" x="418" y="82" rx="2" ry="2" width="12" height="12"/><rect class="c" x="418" y="98" rx="2" ry="2" width="12" height="12"/><rect class="c" x="434" y="2" rx="2" ry="2" width="12" height="12"/><rect class="c" x="434" y="18" rx="2" ry="2" width="12" height="12"/><rect class="c" x="434" y="34" rx="2" ry="2" width="12" height="12"/><rect class="c" x="434" y="50" rx="2" ry="2" width="12" height="12"/><rect class="c" x="434" y="66" rx="2" ry="2" width="12" height="12"/><rect class="c" x="434" y="82" rx="2" ry="2" width="12" height="12"/><rect class="c" x="434" y="98" rx="2" ry="2" width="12" height="12"/><rect class="c" x="450" y="2" rx="2" ry="2" width="12" height="12"/><rect class="c" x="450" y="18" rx="2" ry="2" width="12" height="12"/><rect class="c" x="450" y="34" rx="2" ry="2" width="12" height="12"/><rect class="c" x="450" y="50" rx="2" ry="2" width="12" height="12"/><rect class="c" x="450" y="66" rx="2" ry="2" width="12" height="12"/><rect class="c" x="450" y="82" rx="2" ry="2" width="12" height="12"/><rect class="c" x="450" y="98" rx="2" ry="2" width="12" height="12"/><rect class="c" x="466" y="2" rx="2" ry="2" width="12" height="12"/><rect class="c" x="466" y="18" rx="2" ry="2" width="12" height="12"/><rect class="c" x="466" y="34" rx="2" ry="2" width="12" height="12"/><rect class="c" x="466" y="50" rx="2" ry="2" width="12" height="12"/><rect class="c" x="466" y="66" rx="2" ry="2" width="12" height="12"/><rect class="c" x="466" y="82" rx="2" ry="2" width="12" height="12"/><rect class="c" x="466" y="98" rx="2" ry="2" width="12" height="12"/><rect class="c" x="482" y="2" rx="2" ry="2" width="12" height="12"/><rect class="c" x="482" y="18" rx="2" ry="2" width="12" height="12"/><rect class="c" x="482" y="34" rx="2" ry="2" width="12" height="12"/><rect class="c" x="482" y="50" rx="2" ry="2" width="12" height="12"/><rect class="c" x="482" y="66" rx="2" ry="2" width="12" height="12"/><rect class="c" x="482" y="82" rx="2" ry="2" width="12" height="12"/><rect class="c" x="482" y="98" rx="2" ry="2" width="12" height="12"/><rect class="c" x="498" y="2" rx="2" ry="2" width="12" height="12"/><rect class="c" x="498" y="18" rx="2" ry="2" width="12" height="12"/><rect class="c" x="498" y="34" rx="2" ry="2" width="12" height="12"/><rect class="c" x="498" y="50" rx="2" ry="2" width="12" height="12"/><rect class="c" x="498" y="66" rx="2" ry="2" width="12" height="12"/><rect class="c" x="498" y="82" rx="2" ry="2" width="12" height="12"/><rect class="c" x="498" y="98" rx="2" ry="2" width="12" height="12"/><rect class="c" x="514" y="2" rx="2" ry="2" width="12" height="12"/><rect class="c" x="514" y="18" rx="2" ry="2" width="12" height="12"/><rect class="c" x="514" y="34" rx="2" ry="2" width="12" height="12"/><rect class="c" x="514" y="50" rx="2" ry="2" width="12" height="12"/><rect class="c" x="514" y="66" rx="2" ry="2" width="12" height="12"/><rect class="c" x="514" y="82" rx="2" ry="2" width="12" height="12"/><rect class="c" x="514" y="98" rx="2" ry="2" width="12" height="12"/><rect class="c cn" x="530" y="2" rx="2" ry="2" width="12" height="12"/><rect class="c co" x="530" y="18" rx="2" ry="2" width="12" height="12"/><rect class="c cp" x="530" y="34" rx="2" ry="2" width="12" height="12"/><rect class="c" x="530" y="50" rx="2" ry="2" width="12" height="12"/><rect class="c" x="530" y="66" rx="2" ry="2" width="12" height="12"/><rect class="c cq" x="530" y="82" rx="2" ry="2" width="12" height="12"/><rect class="c cr" x="530" y="98" rx="2" ry="2" width="12" height="12"/><rect class="c" x="546" y="2" rx="2" ry="2" width="12" height="12"/><rect class="c" x="546" y="18" rx="2" ry="2" width="12" height="12"/><rect class="c" x="546" y="34" rx="2" ry="2" width="12" height="12"/><rect class="c" x="546" y="50" rx="2" ry="2" width="12" height="12"/><rect class="c" x="546" y="66" rx="2" ry="2" width="12" height="12"/><rect class="c" x="546" y="82" rx="2" ry="2" width="12" height="12"/><rect class="c" x="546" y="98" rx="2" ry="2" width="12" height="12"/><rect class="c" x="562" y="2" rx="2" ry="2" width="12" height="12"/><rect class="c" x="562" y="18" rx="2" ry="2" width="12" height="12"/><rect class="c" x="562" y="34" rx="2" ry="2" width="12" height="12"/><rect class="c" x="562" y="50" rx="2" ry="2" width="12" height="12"/><rect class="c" x="562" y="66" rx="2" ry="2" width="12" height="12"/><rect class="c" x="562" y="82" rx="2" ry="2" width="12" height="12"/><rect class="c" x="562" y="98" rx="2" ry="2" width="12" height="12"/><rect class="c" x="578" y="2" rx="2" ry="2" width="12" height="12"/><rect class="c" x="578" y="18" rx="2" ry="2" width="12" height="12"/><rect class="c" x="578" y="34" rx="2" ry="2" width="12" height="12"/><rect class="c" x="578" y="50" rx="2" ry="2" width="12" height="12"/><rect class="c" x="578" y="66" rx="2" ry="2" width="12" height="12"/><rect class="c" x="578" y="82" rx="2" ry="2" width="12" height="12"/><rect class="c" x="578" y="98" rx="2" ry="2" width="12" height="12"/><rect class="c" x="594" y="2" rx="2" ry="2" width="12" height="12"/><rect class="c" x="594" y="18" rx="2" ry="2" width="12" height="12"/><rect class="c" x="594" y="34" rx="2" ry="2" width="12" height="12"/><rect class="c" x="594" y="50" rx="2" ry="2" width="12" height="12"/><rect class="c" x="594" y="66" rx="2" ry="2" width="12" height="12"/><rect class="c" x="594" y="82" rx="2" ry="2" width="12" height="12"/><rect class="c" x="594" y="98" rx="2" ry="2" width="12" height="12"/><rect class="c" x="610" y="2" rx="2" ry="2" width="12" height="12"/><rect class="c" x="610" y="18" rx="2" ry="2" width="12" height="12"/><rect class="c" x="610" y="34" rx="2" ry="2" width="12" height="12"/><rect class="c" x="610" y="50" rx="2" ry="2" width="12" height="12"/><rect class="c" x="610" y="66" rx="2" ry="2" width="12" height="12"/><rect class="c" x="610" y="82" rx="2" ry="2" width="12" height="12"/><rect class="c" x="610" y="98" rx="2" ry="2" width="12" height="12"/><rect class="c" x="626" y="2" rx="2" ry="2" width="12" height="12"/><rect class="c" x="626" y="18" rx="2" ry="2" width="12" height="12"/><rect class="c" x="626" y="34" rx="2" ry="2" width="12" height="12"/><rect class="c" x="626" y="50" rx="2" ry="2" width="12" height="12"/><rect class="c" x="626" y="66" rx="2" ry="2" width="12" height="12"/><rect class="c" x="626" y="82" rx="2" ry="2" width="12" height="12"/><rect class="c" x="626" y="98" rx="2" ry="2" width="12" height="12"/><rect class="c" x="642" y="2" rx="2" ry="2" width="12" height="12"/><rect class="c" x="642" y="18" rx="2" ry="2" width="12" height="12"/><rect class="c" x="642" y="34" rx="2" ry="2" width="12" height="12"/><rect class="c" x="642" y="50" rx="2" ry="2" width="12" height="12"/><rect class="c" x="642" y="66" rx="2" ry="2" width="12" height="12"/><rect class="c" x="642" y="82" rx="2" ry="2" width="12" height="12"/><rect class="c" x="642" y="98" rx="2" ry="2" width="12" height="12"/><rect class="c" x="658" y="2" rx="2" ry="2" width="12" height="12"/><rect class="c" x="658" y="18" rx="2" ry="2" width="12" height="12"/><rect class="c" x="658" y="34" rx="2" ry="2" width="12" height="12"/><rect class="c" x="658" y="50" rx="2" ry="2" width="12" height="12"/><rect class="c" x="658" y="66" rx="2" ry="2" width="12" height="12"/><rect class="c" x="658" y="82" rx="2" ry="2" width="12" height="12"/><rect class="c" x="658" y="98" rx="2" ry="2" width="12" height="12"/><rect class="c" x="674" y="2" rx="2" ry="2" width="12" height="12"/><rect class="c" x="674" y="18" rx="2" ry="2" width="12" height="12"/><rect class="c" x="674" y="34" rx="2" ry="2" width="12" height="12"/><rect class="c" x="674" y="50" rx="2" ry="2" width="12" height="12"/><rect class="c" x="674" y="66" rx="2" ry="2" width="12" height="12"/><rect class="c" x="674" y="82" rx="2" ry="2" width="12" height="12"/><rect class="c" x="674" y="98" rx="2" ry="2" width="12" height="12"/><rect class="c" x="690" y="2" rx="2" ry="2" width="12" height="12"/><rect class="c" x="690" y="18" rx="2" ry="2" width="12" height="12"/><rect class="c" x="690" y="34" rx="2" ry="2" width="12" height="12"/><rect class="c" x="690" y="50" rx="2" ry="2" width="12" height="12"/><rect class="c" x="690" y="66" rx="2" ry="2" width="12" height="12"/><rect class="c" x="690" y="82" rx="2" ry="2" width="12" height="12"/><rect class="c" x="690" y="98" rx="2" ry="2" width="12" height="12"/><rect class="c" x="706" y="2" rx="2" ry="2" width="12" height="12"/><rect class="c" x="706" y="18" rx="2" ry="2" width="12" height="12"/><rect class="c" x="706" y="34" rx="2" ry="2" width="12" height="12"/><rect class="c" x="706" y="50" rx="2" ry="2" width="12" height="12"/><rect class="c" x="706" y="66" rx="2" ry="2" width="12" height="12"/><rect class="c" x="706" y="82" rx="2" ry="2" width="12" height="12"/><rect class="c" x="706" y="98" rx="2" ry="2" width="12" height="12"/><rect class="c" x="722" y="2" rx="2" ry="2" width="12" height="12"/><rect class="c" x="722" y="18" rx="2" ry="2" width="12" height="12"/><rect class="c" x="722" y="34" rx="2" ry="2" width="12" height="12"/><rect class="c" x="722" y="50" rx="2" ry="2" width="12" height="12"/><rect class="c cs" x="722" y="66" rx="2" ry="2" width="12" height="12"/><rect class="c" x="722" y="82" rx="2" ry="2" width="12" height="12"/><rect class="c" x="722" y="98" rx="2" ry="2" width="12" height="12"/><rect class="c" x="738" y="2" rx="2" ry="2" width="12" height="12"/><rect class="c" x="738" y="18" rx="2" ry="2" width="12" height="12"/><rect class="c" x="738" y="34" rx="2" ry="2" width="12" height="12"/><rect class="c" x="738" y="50" rx="2" ry="2" width="12" height="12"/><rect class="c ct" x="738" y="66" rx="2" ry="2" width="12" height="12"/><rect class="c" x="738" y="82" rx="2" ry="2" width="12" height="12"/><rect class="c" x="738" y="98" rx="2" ry="2" width="12" height="12"/><rect class="c" x="754" y="2" rx="2" ry="2" width="12" height="12"/><rect class="c" x="754" y="18" rx="2" ry="2" width="12" height="12"/><rect class="c" x="754" y="34" rx="2" ry="2" width="12" height="12"/><rect class="c" x="754" y="50" rx="2" ry="2" width="12" height="12"/><rect class="c" x="754" y="66" rx="2" ry="2" width="12" height="12"/><rect class="c" x="754" y="82" rx="2" ry="2" width="12" height="12"/><rect class="c" x="754" y="98" rx="2" ry="2" width="12" height="12"/><rect class="c" x="770" y="2" rx="2" ry="2" width="12" height="12"/><rect class="c" x="770" y="18" rx="2" ry="2" width="12" height="12"/><rect class="c" x="770" y="34" rx="2" ry="2" width="12" height="12"/><rect class="c cu" x="770" y="50" rx="2" ry="2" width="12" height="12"/><rect class="c cv" x="770" y="66" rx="2" ry="2" width="12" height="12"/><rect class="c" x="770" y="82" rx="2" ry="2" width="12" height="12"/><rect class="c" x="770" y="98" rx="2" ry="2" width="12" height="12"/><rect class="c" x="786" y="2" rx="2" ry="2" width="12" height="12"/><rect class="c" x="786" y="18" rx="2" ry="2" width="12" height="12"/><rect class="c" x="786" y="34" rx="2" ry="2" width="12" height="12"/><rect class="c" x="786" y="50" rx="2" ry="2" width="12" height="12"/><rect class="c" x="786" y="66" rx="2" ry="2" width="12" height="12"/><rect class="c" x="786" y="82" rx="2" ry="2" width="12" height="12"/><rect class="c" x="786" y="98" rx="2" ry="2" width="12" height="12"/><rect class="c" x="802" y="2" rx="2" ry="2" width="12" height="12"/><rect class="c cw" x="802" y="18" rx="2" ry="2" width="12" height="12"/><rect class="c cx" x="802" y="34" rx="2" ry="2" width="12" height="12"/><rect class="c" x="802" y="50" rx="2" ry="2" width="12" height="12"/><rect class="c cy" x="802" y="66" rx="2" ry="2" width="12" height="12"/><rect class="c cz" x="802" y="82" rx="2" ry="2" width="12" height="12"/><rect class="c" x="802" y="98" rx="2" ry="2" width="12" height="12"/><rect class="c c10" x="818" y="2" rx="2" ry="2" width="12" height="12"/><rect class="c c11" x="818" y="18" rx="2" ry="2" width="12" height="12"/><rect class="c" x="818" y="34" rx="2" ry="2" width="12" height="12"/><rect class="c" x="818" y="50" rx="2" ry="2" width="12" height="12"/><rect class="c" x="818" y="66" rx="2" ry="2" width="12" height="12"/><rect class="c c12" x="818" y="82" rx="2" ry="2" width="12" height="12"/><rect class="c c13" x="818" y="98" rx="2" ry="2" width="12" height="12"/><rect class="c" x="834" y="2" rx="2" ry="2" width="12" height="12"/><rect class="c" x="834" y="18" rx="2" ry="2" width="12" height="12"/><rect class="c" x="834" y="34" rx="2" ry="2" width="12" height="12"/><rect class="c" x="834" y="50" rx="2" ry="2" width="12" height="12"/><rect class="u u0" height="12" width="467.0" x="0.0" y="144"/><rect class="u u1" height="12" width="212.6" x="466.4" y="144"/><rect class="u u2" height="12" width="127.8" x="678.4" y="144"/><rect class="u u3" height="12" width="43.0" x="805.6" y="144"/><rect class="s s0" x="0.8" y="0.8" width="14.4" height="14.4" rx="4.5" ry="4.5"/><rect class="s s1" x="1.8" y="1.8" width="12.3" height="12.3" rx="4.1" ry="4.1"/><rect class="s s2" x="2.6" y="2.6" width="10.8" height="10.8" rx="3.6" ry="3.6"/><rect class="s s3" x="3.0" y="3.0" width="9.9" height="9.9" rx="3.3" ry="3.3"/></svg>