<svg viewBox="-16 -32 880 192" width="880" height="192" xmlns="http://www.w3.org/2000/svg"><desc>Generated with https://github.com/Platane/snk</desc><style>@keyframes c0{67.47%{fill:var(--c4)}67.49%,to{fill:var(--ce)}}@keyframes c1{45.58%{fill:var(--c2)}45.6%,to{fill:var(--ce)}}@keyframes c2{47.1%{fill:var(--c2)}47.12%,to{fill:var(--ce)}}@keyframes c3{3.03%{fill:var(--c1)}3.05%,to{fill:var(--ce)}}@keyframes c4{3.64%{fill:var(--c1)}3.66%,to{fill:var(--ce)}}@keyframes c5{3.94%{fill:var(--c1)}3.96%,to{fill:var(--ce)}}@keyframes c6{41.94%{fill:var(--c2)}41.96%,to{fill:var(--ce)}}@keyframes c7{5.16%{fill:var(--c1)}5.18%,to{fill:var(--ce)}}@keyframes c8{5.46%{fill:var(--c1)}5.48%,to{fill:var(--ce)}}@keyframes c9{51.66%{fill:var(--c3)}51.68%,to{fill:var(--ce)}}@keyframes ca{6.98%{fill:var(--c1)}7%,to{fill:var(--ce)}}@keyframes cb{52.57%{fill:var(--c4)}52.59%,to{fill:var(--ce)}}@keyframes cc{40.72%{fill:var(--c2)}40.74%,to{fill:var(--ce)}}@keyframes cd{9.11%{fill:var(--c1)}9.13%,to{fill:var(--ce)}}@keyframes ce{39.2%{fill:var(--c2)}39.22%,to{fill:var(--ce)}}@keyframes cf{60.17%{fill:var(--c4)}60.19%,to{fill:var(--ce)}}@keyframes cg{36.77%{fill:var(--c2)}36.79%,to{fill:var(--ce)}}@keyframes ch{55.31%{fill:var(--c4)}55.33%,to{fill:var(--ce)}}@keyframes ci{55.01%{fill:var(--c4)}55.03%,to{fill:var(--ce)}}@keyframes cj{54.4%{fill:var(--c4)}54.42%,to{fill:var(--ce)}}@keyframes ck{12.76%{fill:var(--c1)}12.78%,to{fill:var(--ce)}}@keyframes cl{34.64%{fill:var(--c2)}34.66%,to{fill:var(--ce)}}@keyframes cm{13.06%{fill:var(--c1)}13.08%,to{fill:var(--ce)}}@keyframes cn{57.13%{fill:var(--c4)}57.15%,to{fill:var(--ce)}}@keyframes co{14.88%{fill:var(--c1)}14.9%,to{fill:var(--ce)}}@keyframes cp{30.08%{fill:var(--c2)}30.1%,to{fill:var(--ce)}}@keyframes cq{29.78%{fill:var(--c2)}29.8%,to{fill:var(--ce)}}@keyframes cr{25.52%{fill:var(--c2)}25.54%,to{fill:var(--ce)}}@keyframes cs{21.57%{fill:var(--c1)}21.59%,to{fill:var(--ce)}}@keyframes ct{83.27%{fill:var(--c4)}83.29%,to{fill:var(--ce)}}@keyframes cu{24.61%{fill:var(--c2)}24.63%,to{fill:var(--ce)}}@keyframes cv{23.39%{fill:var(--c1)}23.41%,to{fill:var(--ce)}}@keyframes cw{24%{fill:var(--c1)}24.02%,to{fill:var(--ce)}}@keyframes u0{3.03%{transform:scale(0,1)}3.05%,3.64%{transform:scale(.08,1)}3.66%,3.94%{transform:scale(.15,1)}3.96%,5.16%{transform:scale(.23,1)}5.18%,5.46%{transform:scale(.31,1)}5.48%,6.98%{transform:scale(.38,1)}7%,9.11%{transform:scale(.46,1)}12.76%,9.13%{transform:scale(.54,1)}12.78%,13.06%{transform:scale(.62,1)}13.08%,14.88%{transform:scale(.69,1)}14.9%,21.57%{transform:scale(.77,1)}21.59%,23.39%{transform:scale(.85,1)}23.41%,24%{transform:scale(.92,1)}24.02%,to{transform:scale(1,1)}}@keyframes u1{24.61%{transform:scale(0,1)}24.63%,25.52%{transform:scale(.09,1)}25.54%,29.78%{transform:scale(.18,1)}29.8%,30.08%{transform:scale(.27,1)}30.1%,34.64%{transform:scale(.36,1)}34.66%,36.77%{transform:scale(.45,1)}36.79%,39.2%{transform:scale(.55,1)}39.22%,40.72%{transform:scale(.64,1)}40.74%,41.94%{transform:scale(.73,1)}41.96%,45.58%{transform:scale(.82,1)}45.6%,47.1%{transform:scale(.91,1)}47.12%,to{transform:scale(1,1)}}@keyframes u2{51.66%{transform:scale(0,1)}51.68%,to{transform:scale(1,1)}}@keyframes u3{52.57%{transform:scale(0,1)}52.59%,54.4%{transform:scale(.13,1)}54.42%,55.01%{transform:scale(.25,1)}55.03%,55.31%{transform:scale(.38,1)}55.33%,57.13%{transform:scale(.5,1)}57.15%,60.17%{transform:scale(.63,1)}60.19%,67.47%{transform:scale(.75,1)}67.49%,83.27%{transform:scale(.88,1)}83.29%,to{transform:scale(1,1)}}@keyframes s0{0%,99.7%{transform:translate(0,-16px)}.3%{transform:translate(0,0)}3.34%{transform:translate(160px,0)}3.95%{transform:translate(160px,32px)}5.17%,50.76%{transform:translate(224px,32px)}5.47%{transform:translate(224px,48px)}5.78%{transform:translate(208px,48px)}6.08%{transform:translate(208px,32px)}6.69%{transform:translate(240px,32px)}6.99%{transform:translate(240px,16px)}7.29%{transform:translate(256px,16px)}8.51%{transform:translate(256px,80px)}51.98%,8.81%{transform:translate(240px,80px)}9.12%{transform:translate(240px,96px)}39.51%,9.73%{transform:translate(272px,96px)}10.03%{transform:translate(272px,80px)}10.94%{transform:translate(320px,80px)}11.85%,36.17%{transform:translate(320px,32px)}12.46%{transform:translate(352px,32px)}12.77%,34.04%{transform:translate(352px,16px)}14.29%{transform:translate(432px,16px)}14.89%{transform:translate(432px,48px)}21.28%{transform:translate(768px,48px)}21.58%{transform:translate(768px,64px)}21.88%{transform:translate(784px,64px)}22.49%{transform:translate(784px,32px)}23.4%{transform:translate(832px,32px)}24.01%{transform:translate(832px,64px)}25.53%{transform:translate(752px,64px)}26.14%{transform:translate(752px,32px)}29.79%{transform:translate(560px,32px)}30.09%{transform:translate(560px,16px)}34.65%{transform:translate(352px,48px)}34.95%{transform:translate(368px,48px)}35.26%{transform:translate(368px,32px)}36.78%{transform:translate(320px,0)}37.39%{transform:translate(288px,0)}39.21%,60.49%{transform:translate(288px,96px)}40.12%{transform:translate(272px,64px)}41.34%{transform:translate(208px,64px)}41.95%{transform:translate(208px,96px)}45.59%{transform:translate(16px,96px)}45.9%{transform:translate(16px,80px)}46.2%{transform:translate(32px,80px)}47.11%{transform:translate(32px,32px)}51.67%{transform:translate(224px,80px)}52.58%{transform:translate(240px,48px)}54.41%{transform:translate(336px,48px)}55.32%{transform:translate(336px,0)}56.53%{transform:translate(400px,0)}57.14%{transform:translate(400px,32px)}58.97%{transform:translate(304px,32px)}60.18%{transform:translate(304px,96px)}62.01%{transform:translate(288px,16px)}67.48%{transform:translate(0,16px)}67.78%{transform:translate(0,32px)}82.98%{transform:translate(800px,32px)}83.28%{transform:translate(800px,48px)}95.74%{transform:translate(144px,48px)}96.35%{transform:translate(144px,16px)}96.96%{transform:translate(112px,16px)}97.57%{transform:translate(112px,-16px)}}@keyframes s1{0%,99.7%{transform:translate(16px,-16px)}.3%{transform:translate(0,-16px)}.61%{transform:translate(0,0)}3.65%{transform:translate(160px,0)}4.26%{transform:translate(160px,32px)}5.47%,51.06%{transform:translate(224px,32px)}5.78%{transform:translate(224px,48px)}6.08%{transform:translate(208px,48px)}6.38%{transform:translate(208px,32px)}6.99%{transform:translate(240px,32px)}7.29%{transform:translate(240px,16px)}7.6%{transform:translate(256px,16px)}8.81%{transform:translate(256px,80px)}52.28%,9.12%{transform:translate(240px,80px)}9.42%{transform:translate(240px,96px)}10.03%,39.82%{transform:translate(272px,96px)}10.33%{transform:translate(272px,80px)}11.25%{transform:translate(320px,80px)}12.16%,36.47%{transform:translate(320px,32px)}12.77%{transform:translate(352px,32px)}13.07%,34.35%{transform:translate(352px,16px)}14.59%{transform:translate(432px,16px)}15.2%{transform:translate(432px,48px)}21.58%{transform:translate(768px,48px)}21.88%{transform:translate(768px,64px)}22.19%{transform:translate(784px,64px)}22.8%{transform:translate(784px,32px)}23.71%{transform:translate(832px,32px)}24.32%{transform:translate(832px,64px)}25.84%{transform:translate(752px,64px)}26.44%{transform:translate(752px,32px)}30.09%{transform:translate(560px,32px)}30.4%{transform:translate(560px,16px)}34.95%{transform:translate(352px,48px)}35.26%{transform:translate(368px,48px)}35.56%{transform:translate(368px,32px)}37.08%{transform:translate(320px,0)}37.69%{transform:translate(288px,0)}39.51%,60.79%{transform:translate(288px,96px)}40.43%{transform:translate(272px,64px)}41.64%{transform:translate(208px,64px)}42.25%{transform:translate(208px,96px)}45.9%{transform:translate(16px,96px)}46.2%{transform:translate(16px,80px)}46.5%{transform:translate(32px,80px)}47.42%{transform:translate(32px,32px)}51.98%{transform:translate(224px,80px)}52.89%{transform:translate(240px,48px)}54.71%{transform:translate(336px,48px)}55.62%{transform:translate(336px,0)}56.84%{transform:translate(400px,0)}57.45%{transform:translate(400px,32px)}59.27%{transform:translate(304px,32px)}60.49%{transform:translate(304px,96px)}62.31%{transform:translate(288px,16px)}67.78%{transform:translate(0,16px)}68.09%{transform:translate(0,32px)}83.28%{transform:translate(800px,32px)}83.59%{transform:translate(800px,48px)}96.05%{transform:translate(144px,48px)}96.66%{transform:translate(144px,16px)}97.26%{transform:translate(112px,16px)}97.87%{transform:translate(112px,-16px)}}@keyframes s2{0%,99.7%{transform:translate(32px,-16px)}.61%{transform:translate(0,-16px)}.91%{transform:translate(0,0)}3.95%{transform:translate(160px,0)}4.56%{transform:translate(160px,32px)}5.78%,51.37%{transform:translate(224px,32px)}6.08%{transform:translate(224px,48px)}6.38%{transform:translate(208px,48px)}6.69%{transform:translate(208px,32px)}7.29%{transform:translate(240px,32px)}7.6%{transform:translate(240px,16px)}7.9%{transform:translate(256px,16px)}9.12%{transform:translate(256px,80px)}52.58%,9.42%{transform:translate(240px,80px)}9.73%{transform:translate(240px,96px)}10.33%,40.12%{transform:translate(272px,96px)}10.64%{transform:translate(272px,80px)}11.55%{transform:translate(320px,80px)}12.46%,36.78%{transform:translate(320px,32px)}13.07%{transform:translate(352px,32px)}13.37%,34.65%{transform:translate(352px,16px)}14.89%{transform:translate(432px,16px)}15.5%{transform:translate(432px,48px)}21.88%{transform:translate(768px,48px)}22.19%{transform:translate(768px,64px)}22.49%{transform:translate(784px,64px)}23.1%{transform:translate(784px,32px)}24.01%{transform:translate(832px,32px)}24.62%{transform:translate(832px,64px)}26.14%{transform:translate(752px,64px)}26.75%{transform:translate(752px,32px)}30.4%{transform:translate(560px,32px)}30.7%{transform:translate(560px,16px)}35.26%{transform:translate(352px,48px)}35.56%{transform:translate(368px,48px)}35.87%{transform:translate(368px,32px)}37.39%{transform:translate(320px,0)}37.99%{transform:translate(288px,0)}39.82%,61.09%{transform:translate(288px,96px)}40.73%{transform:translate(272px,64px)}41.95%{transform:translate(208px,64px)}42.55%{transform:translate(208px,96px)}46.2%{transform:translate(16px,96px)}46.5%{transform:translate(16px,80px)}46.81%{transform:translate(32px,80px)}47.72%{transform:translate(32px,32px)}52.28%{transform:translate(224px,80px)}53.19%{transform:translate(240px,48px)}55.02%{transform:translate(336px,48px)}55.93%{transform:translate(336px,0)}57.14%{transform:translate(400px,0)}57.75%{transform:translate(400px,32px)}59.57%{transform:translate(304px,32px)}60.79%{transform:translate(304px,96px)}62.61%{transform:translate(288px,16px)}68.09%{transform:translate(0,16px)}68.39%{transform:translate(0,32px)}83.59%{transform:translate(800px,32px)}83.89%{transform:translate(800px,48px)}96.35%{transform:translate(144px,48px)}96.96%{transform:translate(144px,16px)}97.57%{transform:translate(112px,16px)}98.18%{transform:translate(112px,-16px)}}@keyframes s3{0%,99.7%{transform:translate(48px,-16px)}.91%{transform:translate(0,-16px)}1.22%{transform:translate(0,0)}4.26%{transform:translate(160px,0)}4.86%{transform:translate(160px,32px)}51.67%,6.08%{transform:translate(224px,32px)}6.38%{transform:translate(224px,48px)}6.69%{transform:translate(208px,48px)}6.99%{transform:translate(208px,32px)}7.6%{transform:translate(240px,32px)}7.9%{transform:translate(240px,16px)}8.21%{transform:translate(256px,16px)}9.42%{transform:translate(256px,80px)}52.89%,9.73%{transform:translate(240px,80px)}10.03%{transform:translate(240px,96px)}10.64%,40.43%{transform:translate(272px,96px)}10.94%{transform:translate(272px,80px)}11.85%{transform:translate(320px,80px)}12.77%,37.08%{transform:translate(320px,32px)}13.37%{transform:translate(352px,32px)}13.68%,34.95%{transform:translate(352px,16px)}15.2%{transform:translate(432px,16px)}15.81%{transform:translate(432px,48px)}22.19%{transform:translate(768px,48px)}22.49%{transform:translate(768px,64px)}22.8%{transform:translate(784px,64px)}23.4%{transform:translate(784px,32px)}24.32%{transform:translate(832px,32px)}24.92%{transform:translate(832px,64px)}26.44%{transform:translate(752px,64px)}27.05%{transform:translate(752px,32px)}30.7%{transform:translate(560px,32px)}31%{transform:translate(560px,16px)}35.56%{transform:translate(352px,48px)}35.87%{transform:translate(368px,48px)}36.17%{transform:translate(368px,32px)}37.69%{transform:translate(320px,0)}38.3%{transform:translate(288px,0)}40.12%,61.4%{transform:translate(288px,96px)}41.03%{transform:translate(272px,64px)}42.25%{transform:translate(208px,64px)}42.86%{transform:translate(208px,96px)}46.5%{transform:translate(16px,96px)}46.81%{transform:translate(16px,80px)}47.11%{transform:translate(32px,80px)}48.02%{transform:translate(32px,32px)}52.58%{transform:translate(224px,80px)}53.5%{transform:translate(240px,48px)}55.32%{transform:translate(336px,48px)}56.23%{transform:translate(336px,0)}57.45%{transform:translate(400px,0)}58.05%{transform:translate(400px,32px)}59.88%{transform:translate(304px,32px)}61.09%{transform:translate(304px,96px)}62.92%{transform:translate(288px,16px)}68.39%{transform:translate(0,16px)}68.69%{transform:translate(0,32px)}83.89%{transform:translate(800px,32px)}84.19%{transform:translate(800px,48px)}96.66%{transform:translate(144px,48px)}97.26%{transform:translate(144px,16px)}97.87%{transform:translate(112px,16px)}98.48%{transform:translate(112px,-16px)}}:root{--cb:#1b1f230a;--cs:purple;--ce:#ebedf0;--c0:#ebedf0;--c1:#9be9a8;--c2:#40c463;--c3:#30a14e;--c4:#216e39}@media (prefers-color-scheme:dark){:root{--cb:#1b1f230a;--cs:purple;--ce:#161b22;--c1:#01311f;--c2:#034525;--c3:#0f6d31;--c4:#00c647}}.c{shape-rendering:geometricPrecision;fill:var(--ce);stroke-width:1px;stroke:var(--cb);animation:none 32900ms linear infinite}.c.c0{fill:var(--c4);animation-name:c0}.c.c1,.c.c2{fill:var(--c2);animation-name:c1}.c.c2{animation-name:c2}.c.c3,.c.c4,.c.c5{fill:var(--c1);animation-name:c3}.c.c4,.c.c5{animation-name:c4}.c.c5{animation-name:c5}.c.c6{fill:var(--c2);animation-name:c6}.c.c7,.c.c8{fill:var(--c1);animation-name:c7}.c.c8{animation-name:c8}.c.c9{fill:var(--c3);animation-name:c9}.c.ca{fill:var(--c1);animation-name:ca}.c.cb{fill:var(--c4);animation-name:cb}.c.cc{fill:var(--c2);animation-name:cc}.c.cd{fill:var(--c1);animation-name:cd}.c.ce{fill:var(--c2);animation-name:ce}.c.cf{fill:var(--c4);animation-name:cf}.c.cg{fill:var(--c2);animation-name:cg}.c.ch,.c.ci,.c.cj{fill:var(--c4);animation-name:ch}.c.ci,.c.cj{animation-name:ci}.c.cj{animation-name:cj}.c.ck{fill:var(--c1);animation-name:ck}.c.cl{fill:var(--c2);animation-name:cl}.c.cm{fill:var(--c1);animation-name:cm}.c.cn{fill:var(--c4);animation-name:cn}.c.co{fill:var(--c1);animation-name:co}.c.cp,.c.cq,.c.cr{fill:var(--c2);animation-name:cp}.c.cq,.c.cr{animation-name:cq}.c.cr{animation-name:cr}.c.cs{fill:var(--c1);animation-name:cs}.c.ct{fill:var(--c4);animation-name:ct}.c.cu{fill:var(--c2);animation-name:cu}.c.cv,.c.cw{fill:var(--c1);animation-name:cv}.c.cw{animation-name:cw}.s,.u{animation:none linear 32900ms infinite}.u,.u.u0{transform-origin:0 0}.u{transform:scale(0,1)}.u.u0{fill:var(--c1);animation-name:u0}.u.u1{fill:var(--c2);animation-name:u1;transform-origin:334.1px 0}.u.u2{fill:var(--c3);animation-name:u2;transform-origin:616.7px 0}.u.u3{fill:var(--c4);animation-name:u3;transform-origin:642.4px 0}.s{shape-rendering:geometricPrecision;fill:var(--cs)}.s.s0{transform:translate(0,-16px);animation-name:s0}.s.s1{transform:translate(16px,-16px);animation-name:s1}.s.s2{transform:translate(32px,-16px);animation-name:s2}.s.s3{transform:translate(48px,-16px);animation-name:s3}</style><rect class="c" x="2" y="2" rx="2" ry="2" width="12" height="12"/><rect class="c c0" x="2" y="18" rx="2" ry="2" width="12" height="12"/><rect class="c" x="2" y="34" rx="2" ry="2" width="12" height="12"/><rect class="c" x="2" y="50" rx="2" ry="2" width="12" height="12"/><rect class="c" x="2" y="66" rx="2" ry="2" width="12" height="12"/><rect class="c" x="2" y="82" rx="2" ry="2" width="12" height="12"/><rect class="c" x="2" y="98" rx="2" ry="2" width="12" height="12"/><rect class="c" x="18" y="2" rx="2" ry="2" width="12" height="12"/><rect class="c" x="18" y="18" rx="2" ry="2" width="12" height="12"/><rect class="c" x="18" y="34" rx="2" ry="2" width="12" height="12"/><rect class="c" x="18" y="50" rx="2" ry="2" width="12" height="12"/><rect class="c" x="18" y="66" rx="2" ry="2" width="12" height="12"/><rect class="c" x="18" y="82" rx="2" ry="2" width="12" height="12"/><rect class="c c1" x="18" y="98" rx="2" ry="2" width="12" height="12"/><rect class="c" x="34" y="2" rx="2" ry="2" width="12" height="12"/><rect class="c" x="34" y="18" rx="2" ry="2" width="12" height="12"/><rect class="c c2" x="34" y="34" rx="2" ry="2" width="12" height="12"/><rect class="c" x="34" y="50" rx="2" ry="2" width="12" height="12"/><rect class="c" x="34" y="66" rx="2" ry="2" width="12" height="12"/><rect class="c" x="34" y="82" rx="2" ry="2" width="12" height="12"/><rect class="c" x="34" y="98" rx="2" ry="2" width="12" height="12"/><rect class="c" x="50" y="2" rx="2" ry="2" width="12" height="12"/><rect class="c" x="50" y="18" rx="2" ry="2" width="12" height="12"/><rect class="c" x="50" y="34" rx="2" ry="2" width="12" height="12"/><rect class="c" x="50" y="50" rx="2" ry="2" width="12" height="12"/><rect class="c" x="50" y="66" rx="2" ry="2" width="12" height="12"/><rect class="c" x="50" y="82" rx="2" ry="2" width="12" height="12"/><rect class="c" x="50" y="98" rx="2" ry="2" width="12" height="12"/><rect class="c" x="66" y="2" rx="2" ry="2" width="12" height="12"/><rect class="c" x="66" y="18" rx="2" ry="2" width="12" height="12"/><rect class="c" x="66" y="34" rx="2" ry="2" width="12" height="12"/><rect class="c" x="66" y="50" rx="2" ry="2" width="12" height="12"/><rect class="c" x="66" y="66" rx="2" ry="2" width="12" height="12"/><rect class="c" x="66" y="82" rx="2" ry="2" width="12" height="12"/><rect class="c" x="66" y="98" rx="2" ry="2" width="12" height="12"/><rect class="c" x="82" y="2" rx="2" ry="2" width="12" height="12"/><rect class="c" x="82" y="18" rx="2" ry="2" width="12" height="12"/><rect class="c" x="82" y="34" rx="2" ry="2" width="12" height="12"/><rect class="c" x="82" y="50" rx="2" ry="2" width="12" height="12"/><rect class="c" x="82" y="66" rx="2" ry="2" width="12" height="12"/><rect class="c" x="82" y="82" rx="2" ry="2" width="12" height="12"/><rect class="c" x="82" y="98" rx="2" ry="2" width="12" height="12"/><rect class="c" x="98" y="2" rx="2" ry="2" width="12" height="12"/><rect class="c" x="98" y="18" rx="2" ry="2" width="12" height="12"/><rect class="c" x="98" y="34" rx="2" ry="2" width="12" height="12"/><rect class="c" x="98" y="50" rx="2" ry="2" width="12" height="12"/><rect class="c" x="98" y="66" rx="2" ry="2" width="12" height="12"/><rect class="c" x="98" y="82" rx="2" ry="2" width="12" height="12"/><rect class="c" x="98" y="98" rx="2" ry="2" width="12" height="12"/><rect class="c" x="114" y="2" rx="2" ry="2" width="12" height="12"/><rect class="c" x="114" y="18" rx="2" ry="2" width="12" height="12"/><rect class="c" x="114" y="34" rx="2" ry="2" width="12" height="12"/><rect class="c" x="114" y="50" rx="2" ry="2" width="12" height="12"/><rect class="c" x="114" y="66" rx="2" ry="2" width="12" height="12"/><rect class="c" x="114" y="82" rx="2" ry="2" width="12" height="12"/><rect class="c" x="114" y="98" rx="2" ry="2" width="12" height="12"/><rect class="c" x="130" y="2" rx="2" ry="2" width="12" height="12"/><rect class="c" x="130" y="18" rx="2" ry="2" width="12" height="12"/><rect class="c" x="130" y="34" rx="2" ry="2" width="12" height="12"/><rect class="c" x="130" y="50" rx="2" ry="2" width="12" height="12"/><rect class="c" x="130" y="66" rx="2" ry="2" width="12" height="12"/><rect class="c" x="130" y="82" rx="2" ry="2" width="12" height="12"/><rect class="c" x="130" y="98" rx="2" ry="2" width="12" height="12"/><rect class="c c3" x="146" y="2" rx="2" ry="2" width="12" height="12"/><rect class="c" x="146" y="18" rx="2" ry="2" width="12" height="12"/><rect class="c" x="146" y="34" rx="2" ry="2" width="12" height="12"/><rect class="c" x="146" y="50" rx="2" ry="2" width="12" height="12"/><rect class="c" x="146" y="66" rx="2" ry="2" width="12" height="12"/><rect class="c" x="146" y="82" rx="2" ry="2" width="12" height="12"/><rect class="c" x="146" y="98" rx="2" ry="2" width="12" height="12"/><rect class="c" x="162" y="2" rx="2" ry="2" width="12" height="12"/><rect class="c c4" x="162" y="18" rx="2" ry="2" width="12" height="12"/><rect class="c c5" x="162" y="34" rx="2" ry="2" width="12" height="12"/><rect class="c" x="162" y="50" rx="2" ry="2" width="12" height="12"/><rect class="c" x="162" y="66" rx="2" ry="2" width="12" height="12"/><rect class="c" x="162" y="82" rx="2" ry="2" width="12" height="12"/><rect class="c" x="162" y="98" rx="2" ry="2" width="12" height="12"/><rect class="c" x="178" y="2" rx="2" ry="2" width="12" height="12"/><rect class="c" x="178" y="18" rx="2" ry="2" width="12" height="12"/><rect class="c" x="178" y="34" rx="2" ry="2" width="12" height="12"/><rect class="c" x="178" y="50" rx="2" ry="2" width="12" height="12"/><rect class="c" x="178" y="66" rx="2" ry="2" width="12" height="12"/><rect class="c" x="178" y="82" rx="2" ry="2" width="12" height="12"/><rect class="c" x="178" y="98" rx="2" ry="2" width="12" height="12"/><rect class="c" x="194" y="2" rx="2" ry="2" width="12" height="12"/><rect class="c" x="194" y="18" rx="2" ry="2" width="12" height="12"/><rect class="c" x="194" y="34" rx="2" ry="2" width="12" height="12"/><rect class="c" x="194" y="50" rx="2" ry="2" width="12" height="12"/><rect class="c" x="194" y="66" rx="2" ry="2" width="12" height="12"/><rect class="c" x="194" y="82" rx="2" ry="2" width="12" height="12"/><rect class="c" x="194" y="98" rx="2" ry="2" width="12" height="12"/><rect class="c" x="210" y="2" rx="2" ry="2" width="12" height="12"/><rect class="c" x="210" y="18" rx="2" ry="2" width="12" height="12"/><rect class="c" x="210" y="34" rx="2" ry="2" width="12" height="12"/><rect class="c" x="210" y="50" rx="2" ry="2" width="12" height="12"/><rect class="c" x="210" y="66" rx="2" ry="2" width="12" height="12"/><rect class="c" x="210" y="82" rx="2" ry="2" width="12" height="12"/><rect class="c c6" x="210" y="98" rx="2" ry="2" width="12" height="12"/><rect class="c" x="226" y="2" rx="2" ry="2" width="12" height="12"/><rect class="c" x="226" y="18" rx="2" ry="2" width="12" height="12"/><rect class="c c7" x="226" y="34" rx="2" ry="2" width="12" height="12"/><rect class="c c8" x="226" y="50" rx="2" ry="2" width="12" height="12"/><rect class="c" x="226" y="66" rx="2" ry="2" width="12" height="12"/><rect class="c c9" x="226" y="82" rx="2" ry="2" width="12" height="12"/><rect class="c" x="226" y="98" rx="2" ry="2" width="12" height="12"/><rect class="c" x="242" y="2" rx="2" ry="2" width="12" height="12"/><rect class="c ca" x="242" y="18" rx="2" ry="2" width="12" height="12"/><rect class="c" x="242" y="34" rx="2" ry="2" width="12" height="12"/><rect class="c cb" x="242" y="50" rx="2" ry="2" width="12" height="12"/><rect class="c cc" x="242" y="66" rx="2" ry="2" width="12" height="12"/><rect class="c" x="242" y="82" rx="2" ry="2" width="12" height="12"/><rect class="c cd" x="242" y="98" rx="2" ry="2" width="12" height="12"/><rect class="c" x="258" y="2" rx="2" ry="2" width="12" height="12"/><rect class="c" x="258" y="18" rx="2" ry="2" width="12" height="12"/><rect class="c" x="258" y="34" rx="2" ry="2" width="12" height="12"/><rect class="c" x="258" y="50" rx="2" ry="2" width="12" height="12"/><rect class="c" x="258" y="66" rx="2" ry="2" width="12" height="12"/><rect class="c" x="258" y="82" rx="2" ry="2" width="12" height="12"/><rect class="c" x="258" y="98" rx="2" ry="2" width="12" height="12"/><rect class="c" x="274" y="2" rx="2" ry="2" width="12" height="12"/><rect class="c" x="274" y="18" rx="2" ry="2" width="12" height="12"/><rect class="c" x="274" y="34" rx="2" ry="2" width="12" height="12"/><rect class="c" x="274" y="50" rx="2" ry="2" width="12" height="12"/><rect class="c" x="274" y="66" rx="2" ry="2" width="12" height="12"/><rect class="c" x="274" y="82" rx="2" ry="2" width="12" height="12"/><rect class="c" x="274" y="98" rx="2" ry="2" width="12" height="12"/><rect class="c" x="290" y="2" rx="2" ry="2" width="12" height="12"/><rect class="c" x="290" y="18" rx="2" ry="2" width="12" height="12"/><rect class="c" x="290" y="34" rx="2" ry="2" width="12" height="12"/><rect class="c" x="290" y="50" rx="2" ry="2" width="12" height="12"/><rect class="c" x="290" y="66" rx="2" ry="2" width="12" height="12"/><rect class="c" x="290" y="82" rx="2" ry="2" width="12" height="12"/><rect class="c ce" x="290" y="98" rx="2" ry="2" width="12" height="12"/><rect class="c" x="306" y="2" rx="2" ry="2" width="12" height="12"/><rect class="c" x="306" y="18" rx="2" ry="2" width="12" height="12"/><rect class="c" x="306" y="34" rx="2" ry="2" width="12" height="12"/><rect class="c" x="306" y="50" rx="2" ry="2" width="12" height="12"/><rect class="c" x="306" y="66" rx="2" ry="2" width="12" height="12"/><rect class="c" x="306" y="82" rx="2" ry="2" width="12" height="12"/><rect class="c cf" x="306" y="98" rx="2" ry="2" width="12" height="12"/><rect class="c cg" x="322" y="2" rx="2" ry="2" width="12" height="12"/><rect class="c" x="322" y="18" rx="2" ry="2" width="12" height="12"/><rect class="c" x="322" y="34" rx="2" ry="2" width="12" height="12"/><rect class="c" x="322" y="50" rx="2" ry="2" width="12" height="12"/><rect class="c" x="322" y="66" rx="2" ry="2" width="12" height="12"/><rect class="c" x="322" y="82" rx="2" ry="2" width="12" height="12"/><rect class="c" x="322" y="98" rx="2" ry="2" width="12" height="12"/><rect class="c ch" x="338" y="2" rx="2" ry="2" width="12" height="12"/><rect class="c ci" x="338" y="18" rx="2" ry="2" width="12" height="12"/><rect class="c" x="338" y="34" rx="2" ry="2" width="12" height="12"/><rect class="c cj" x="338" y="50" rx="2" ry="2" width="12" height="12"/><rect class="c" x="338" y="66" rx="2" ry="2" width="12" height="12"/><rect class="c" x="338" y="82" rx="2" ry="2" width="12" height="12"/><rect class="c" x="338" y="98" rx="2" ry="2" width="12" height="12"/><rect class="c" x="354" y="2" rx="2" ry="2" width="12" height="12"/><rect class="c ck" x="354" y="18" rx="2" ry="2" width="12" height="12"/><rect class="c" x="354" y="34" rx="2" ry="2" width="12" height="12"/><rect class="c cl" x="354" y="50" rx="2" ry="2" width="12" height="12"/><rect class="c" x="354" y="66" rx="2" ry="2" width="12" height="12"/><rect class="c" x="354" y="82" rx="2" ry="2" width="12" height="12"/><rect class="c" x="354" y="98" rx="2" ry="2" width="12" height="12"/><rect class="c" x="370" y="2" rx="2" ry="2" width="12" height="12"/><rect class="c cm" x="370" y="18" rx="2" ry="2" width="12" height="12"/><rect class="c" x="370" y="34" rx="2" ry="2" width="12" height="12"/><rect class="c" x="370" y="50" rx="2" ry="2" width="12" height="12"/><rect class="c" x="370" y="66" rx="2" ry="2" width="12" height="12"/><rect class="c" x="370" y="82" rx="2" ry="2" width="12" height="12"/><rect class="c" x="370" y="98" rx="2" ry="2" width="12" height="12"/><rect class="c" x="386" y="2" rx="2" ry="2" width="12" height="12"/><rect class="c" x="386" y="18" rx="2" ry="2" width="12" height="12"/><rect class="c" x="386" y="34" rx="2" ry="2" width="12" height="12"/><rect class="c" x="386" y="50" rx="2" ry="2" width="12" height="12"/><rect class="c" x="386" y="66" rx="2" ry="2" width="12" height="12"/><rect class="c" x="386" y="82" rx="2" ry="2" width="12" height="12"/><rect class="c" x="386" y="98" rx="2" ry="2" width="12" height="12"/><rect class="c" x="402" y="2" rx="2" ry="2" width="12" height="12"/><rect class="c" x="402" y="18" rx="2" ry="2" width="12" height="12"/><rect class="c cn" x="402" y="34" rx="2" ry="2" width="12" height="12"/><rect class="c" x="402" y="50" rx="2" ry="2" width="12" height="12"/><rect class="c" x="402" y="66" rx="2" ry="2" width="12" height="12"/><rect class="c" x="402" y="82" rx="2" ry="2" width="12" height="12"/><rect class="c" x="402" y="98" rx="2" ry="2" width="12" height="12"/><rect class="c" x="418" y="2" rx="2" ry="2" width="12" height="12"/><rect class="c" x="418" y="18" rx="2" ry="2" width="12" height="12"/><rect class="c" x="418" y="34" rx="2" ry="2" width="12" height="12"/><rect class="c" x="418" y="50" rx="2" ry="2" width="12" height="12"/><rect class="c" x="418" y="66" rx="2" ry="2" width="12" height="12"/><rect class="c" x="418" y="82" rx="2" ry="2" width="12" height="12"/><rect class="c" x="418" y="98" rx="2" ry="2" width="12" height="12"/><rect class="c" x="434" y="2" rx="2" ry="2" width="12" height="12"/><rect class="c" x="434" y="18" rx="2" ry="2" width="12" height="12"/><rect class="c" x="434" y="34" rx="2" ry="2" width="12" height="12"/><rect class="c co" x="434" y="50" rx="2" ry="2" width="12" height="12"/><rect class="c" x="434" y="66" rx="2" ry="2" width="12" height="12"/><rect class="c" x="434" y="82" rx="2" ry="2" width="12" height="12"/><rect class="c" x="434" y="98" rx="2" ry="2" width="12" height="12"/><rect class="c" x="450" y="2" rx="2" ry="2" width="12" height="12"/><rect class="c" x="450" y="18" rx="2" ry="2" width="12" height="12"/><rect class="c" x="450" y="34" rx="2" ry="2" width="12" height="12"/><rect class="c" x="450" y="50" rx="2" ry="2" width="12" height="12"/><rect class="c" x="450" y="66" rx="2" ry="2" width="12" height="12"/><rect class="c" x="450" y="82" rx="2" ry="2" width="12" height="12"/><rect class="c" x="450" y="98" rx="2" ry="2" width="12" height="12"/><rect class="c" x="466" y="2" rx="2" ry="2" width="12" height="12"/><rect class="c" x="466" y="18" rx="2" ry="2" width="12" height="12"/><rect class="c" x="466" y="34" rx="2" ry="2" width="12" height="12"/><rect class="c" x="466" y="50" rx="2" ry="2" width="12" height="12"/><rect class="c" x="466" y="66" rx="2" ry="2" width="12" height="12"/><rect class="c" x="466" y="82" rx="2" ry="2" width="12" height="12"/><rect class="c" x="466" y="98" rx="2" ry="2" width="12" height="12"/><rect class="c" x="482" y="2" rx="2" ry="2" width="12" height="12"/><rect class="c" x="482" y="18" rx="2" ry="2" width="12" height="12"/><rect class="c" x="482" y="34" rx="2" ry="2" width="12" height="12"/><rect class="c" x="482" y="50" rx="2" ry="2" width="12" height="12"/><rect class="c" x="482" y="66" rx="2" ry="2" width="12" height="12"/><rect class="c" x="482" y="82" rx="2" ry="2" width="12" height="12"/><rect class="c" x="482" y="98" rx="2" ry="2" width="12" height="12"/><rect class="c" x="498" y="2" rx="2" ry="2" width="12" height="12"/><rect class="c" x="498" y="18" rx="2" ry="2" width="12" height="12"/><rect class="c" x="498" y="34" rx="2" ry="2" width="12" height="12"/><rect class="c" x="498" y="50" rx="2" ry="2" width="12" height="12"/><rect class="c" x="498" y="66" rx="2" ry="2" width="12" height="12"/><rect class="c" x="498" y="82" rx="2" ry="2" width="12" height="12"/><rect class="c" x="498" y="98" rx="2" ry="2" width="12" height="12"/><rect class="c" x="514" y="2" rx="2" ry="2" width="12" height="12"/><rect class="c" x="514" y="18" rx="2" ry="2" width="12" height="12"/><rect class="c" x="514" y="34" rx="2" ry="2" width="12" height="12"/><rect class="c" x="514" y="50" rx="2" ry="2" width="12" height="12"/><rect class="c" x="514" y="66" rx="2" ry="2" width="12" height="12"/><rect class="c" x="514" y="82" rx="2" ry="2" width="12" height="12"/><rect class="c" x="514" y="98" rx="2" ry="2" width="12" height="12"/><rect class="c" x="530" y="2" rx="2" ry="2" width="12" height="12"/><rect class="c" x="530" y="18" rx="2" ry="2" width="12" height="12"/><rect class="c" x="530" y="34" rx="2" ry="2" width="12" height="12"/><rect class="c" x="530" y="50" rx="2" ry="2" width="12" height="12"/><rect class="c" x="530" y="66" rx="2" ry="2" width="12" height="12"/><rect class="c" x="530" y="82" rx="2" ry="2" width="12" height="12"/><rect class="c" x="530" y="98" rx="2" ry="2" width="12" height="12"/><rect class="c" x="546" y="2" rx="2" ry="2" width="12" height="12"/><rect class="c" x="546" y="18" rx="2" ry="2" width="12" height="12"/><rect class="c" x="546" y="34" rx="2" ry="2" width="12" height="12"/><rect class="c" x="546" y="50" rx="2" ry="2" width="12" height="12"/><rect class="c" x="546" y="66" rx="2" ry="2" width="12" height="12"/><rect class="c" x="546" y="82" rx="2" ry="2" width="12" height="12"/><rect class="c" x="546" y="98" rx="2" ry="2" width="12" height="12"/><rect class="c" x="562" y="2" rx="2" ry="2" width="12" height="12"/><rect class="c cp" x="562" y="18" rx="2" ry="2" width="12" height="12"/><rect class="c cq" x="562" y="34" rx="2" ry="2" width="12" height="12"/><rect class="c" x="562" y="50" rx="2" ry="2" width="12" height="12"/><rect class="c" x="562" y="66" rx="2" ry="2" width="12" height="12"/><rect class="c" x="562" y="82" rx="2" ry="2" width="12" height="12"/><rect class="c" x="562" y="98" rx="2" ry="2" width="12" height="12"/><rect class="c" x="578" y="2" rx="2" ry="2" width="12" height="12"/><rect class="c" x="578" y="18" rx="2" ry="2" width="12" height="12"/><rect class="c" x="578" y="34" rx="2" ry="2" width="12" height="12"/><rect class="c" x="578" y="50" rx="2" ry="2" width="12" height="12"/><rect class="c" x="578" y="66" rx="2" ry="2" width="12" height="12"/><rect class="c" x="578" y="82" rx="2" ry="2" width="12" height="12"/><rect class="c" x="578" y="98" rx="2" ry="2" width="12" height="12"/><rect class="c" x="594" y="2" rx="2" ry="2" width="12" height="12"/><rect class="c" x="594" y="18" rx="2" ry="2" width="12" height="12"/><rect class="c" x="594" y="34" rx="2" ry="2" width="12" height="12"/><rect class="c" x="594" y="50" rx="2" ry="2" width="12" height="12"/><rect class="c" x="594" y="66" rx="2" ry="2" width="12" height="12"/><rect class="c" x="594" y="82" rx="2" ry="2" width="12" height="12"/><rect class="c" x="594" y="98" rx="2" ry="2" width="12" height="12"/><rect class="c" x="610" y="2" rx="2" ry="2" width="12" height="12"/><rect class="c" x="610" y="18" rx="2" ry="2" width="12" height="12"/><rect class="c" x="610" y="34" rx="2" ry="2" width="12" height="12"/><rect class="c" x="610" y="50" rx="2" ry="2" width="12" height="12"/><rect class="c" x="610" y="66" rx="2" ry="2" width="12" height="12"/><rect class="c" x="610" y="82" rx="2" ry="2" width="12" height="12"/><rect class="c" x="610" y="98" rx="2" ry="2" width="12" height="12"/><rect class="c" x="626" y="2" rx="2" ry="2" width="12" height="12"/><rect class="c" x="626" y="18" rx="2" ry="2" width="12" height="12"/><rect class="c" x="626" y="34" rx="2" ry="2" width="12" height="12"/><rect class="c" x="626" y="50" rx="2" ry="2" width="12" height="12"/><rect class="c" x="626" y="66" rx="2" ry="2" width="12" height="12"/><rect class="c" x="626" y="82" rx="2" ry="2" width="12" height="12"/><rect class="c" x="626" y="98" rx="2" ry="2" width="12" height="12"/><rect class="c" x="642" y="2" rx="2" ry="2" width="12" height="12"/><rect class="c" x="642" y="18" rx="2" ry="2" width="12" height="12"/><rect class="c" x="642" y="34" rx="2" ry="2" width="12" height="12"/><rect class="c" x="642" y="50" rx="2" ry="2" width="12" height="12"/><rect class="c" x="642" y="66" rx="2" ry="2" width="12" height="12"/><rect class="c" x="642" y="82" rx="2" ry="2" width="12" height="12"/><rect class="c" x="642" y="98" rx="2" ry="2" width="12" height="12"/><rect class="c" x="658" y="2" rx="2" ry="2" width="12" height="12"/><rect class="c" x="658" y="18" rx="2" ry="2" width="12" height="12"/><rect class="c" x="658" y="34" rx="2" ry="2" width="12" height="12"/><rect class="c" x="658" y="50" rx="2" ry="2" width="12" height="12"/><rect class="c" x="658" y="66" rx="2" ry="2" width="12" height="12"/><rect class="c" x="658" y="82" rx="2" ry="2" width="12" height="12"/><rect class="c" x="658" y="98" rx="2" ry="2" width="12" height="12"/><rect class="c" x="674" y="2" rx="2" ry="2" width="12" height="12"/><rect class="c" x="674" y="18" rx="2" ry="2" width="12" height="12"/><rect class="c" x="674" y="34" rx="2" ry="2" width="12" height="12"/><rect class="c" x="674" y="50" rx="2" ry="2" width="12" height="12"/><rect class="c" x="674" y="66" rx="2" ry="2" width="12" height="12"/><rect class="c" x="674" y="82" rx="2" ry="2" width="12" height="12"/><rect class="c" x="674" y="98" rx="2" ry="2" width="12" height="12"/><rect class="c" x="690" y="2" rx="2" ry="2" width="12" height="12"/><rect class="c" x="690" y="18" rx="2" ry="2" width="12" height="12"/><rect class="c" x="690" y="34" rx="2" ry="2" width="12" height="12"/><rect class="c" x="690" y="50" rx="2" ry="2" width="12" height="12"/><rect class="c" x="690" y="66" rx="2" ry="2" width="12" height="12"/><rect class="c" x="690" y="82" rx="2" ry="2" width="12" height="12"/><rect class="c" x="690" y="98" rx="2" ry="2" width="12" height="12"/><rect class="c" x="706" y="2" rx="2" ry="2" width="12" height="12"/><rect class="c" x="706" y="18" rx="2" ry="2" width="12" height="12"/><rect class="c" x="706" y="34" rx="2" ry="2" width="12" height="12"/><rect class="c" x="706" y="50" rx="2" ry="2" width="12" height="12"/><rect class="c" x="706" y="66" rx="2" ry="2" width="12" height="12"/><rect class="c" x="706" y="82" rx="2" ry="2" width="12" height="12"/><rect class="c" x="706" y="98" rx="2" ry="2" width="12" height="12"/><rect class="c" x="722" y="2" rx="2" ry="2" width="12" height="12"/><rect class="c" x="722" y="18" rx="2" ry="2" width="12" height="12"/><rect class="c" x="722" y="34" rx="2" ry="2" width="12" height="12"/><rect class="c" x="722" y="50" rx="2" ry="2" width="12" height="12"/><rect class="c" x="722" y="66" rx="2" ry="2" width="12" height="12"/><rect class="c" x="722" y="82" rx="2" ry="2" width="12" height="12"/><rect class="c" x="722" y="98" rx="2" ry="2" width="12" height="12"/><rect class="c" x="738" y="2" rx="2" ry="2" width="12" height="12"/><rect class="c" x="738" y="18" rx="2" ry="2" width="12" height="12"/><rect class="c" x="738" y="34" rx="2" ry="2" width="12" height="12"/><rect class="c" x="738" y="50" rx="2" ry="2" width="12" height="12"/><rect class="c" x="738" y="66" rx="2" ry="2" width="12" height="12"/><rect class="c" x="738" y="82" rx="2" ry="2" width="12" height="12"/><rect class="c" x="738" y="98" rx="2" ry="2" width="12" height="12"/><rect class="c" x="754" y="2" rx="2" ry="2" width="12" height="12"/><rect class="c" x="754" y="18" rx="2" ry="2" width="12" height="12"/><rect class="c" x="754" y="34" rx="2" ry="2" width="12" height="12"/><rect class="c" x="754" y="50" rx="2" ry="2" width="12" height="12"/><rect class="c cr" x="754" y="66" rx="2" ry="2" width="12" height="12"/><rect class="c" x="754" y="82" rx="2" ry="2" width="12" height="12"/><rect class="c" x="754" y="98" rx="2" ry="2" width="12" height="12"/><rect class="c" x="770" y="2" rx="2" ry="2" width="12" height="12"/><rect class="c" x="770" y="18" rx="2" ry="2" width="12" height="12"/><rect class="c" x="770" y="34" rx="2" ry="2" width="12" height="12"/><rect class="c" x="770" y="50" rx="2" ry="2" width="12" height="12"/><rect class="c cs" x="770" y="66" rx="2" ry="2" width="12" height="12"/><rect class="c" x="770" y="82" rx="2" ry="2" width="12" height="12"/><rect class="c" x="770" y="98" rx="2" ry="2" width="12" height="12"/><rect class="c" x="786" y="2" rx="2" ry="2" width="12" height="12"/><rect class="c" x="786" y="18" rx="2" ry="2" width="12" height="12"/><rect class="c" x="786" y="34" rx="2" ry="2" width="12" height="12"/><rect class="c" x="786" y="50" rx="2" ry="2" width="12" height="12"/><rect class="c" x="786" y="66" rx="2" ry="2" width="12" height="12"/><rect class="c" x="786" y="82" rx="2" ry="2" width="12" height="12"/><rect class="c" x="786" y="98" rx="2" ry="2" width="12" height="12"/><rect class="c" x="802" y="2" rx="2" ry="2" width="12" height="12"/><rect class="c" x="802" y="18" rx="2" ry="2" width="12" height="12"/><rect class="c" x="802" y="34" rx="2" ry="2" width="12" height="12"/><rect class="c ct" x="802" y="50" rx="2" ry="2" width="12" height="12"/><rect class="c cu" x="802" y="66" rx="2" ry="2" width="12" height="12"/><rect class="c" x="802" y="82" rx="2" ry="2" width="12" height="12"/><rect class="c" x="802" y="98" rx="2" ry="2" width="12" height="12"/><rect class="c" x="818" y="2" rx="2" ry="2" width="12" height="12"/><rect class="c" x="818" y="18" rx="2" ry="2" width="12" height="12"/><rect class="c" x="818" y="34" rx="2" ry="2" width="12" height="12"/><rect class="c" x="818" y="50" rx="2" ry="2" width="12" height="12"/><rect class="c" x="818" y="66" rx="2" ry="2" width="12" height="12"/><rect class="c" x="818" y="82" rx="2" ry="2" width="12" height="12"/><rect class="c" x="818" y="98" rx="2" ry="2" width="12" height="12"/><rect class="c" x="834" y="2" rx="2" ry="2" width="12" height="12"/><rect class="c" x="834" y="18" rx="2" ry="2" width="12" height="12"/><rect class="c cv" x="834" y="34" rx="2" ry="2" width="12" height="12"/><rect class="c" x="834" y="50" rx="2" ry="2" width="12" height="12"/><rect class="c cw" x="834" y="66" rx="2" ry="2" width="12" height="12"/><rect class="u u0" height="12" width="334.7" x="0.0" y="144"/><rect class="u u1" height="12" width="283.3" x="334.1" y="144"/><rect class="u u2" height="12" width="26.3" x="616.7" y="144"/><rect class="u u3" height="12" width="206.2" x="642.4" y="144"/><rect class="s s0" x="0.8" y="0.8" width="14.4" height="14.4" rx="4.5" ry="4.5"/><rect class="s s1" x="1.8" y="1.8" width="12.3" height="12.3" rx="4.1" ry="4.1"/><rect class="s s2" x="2.6" y="2.6" width="10.8" height="10.8" rx="3.6" ry="3.6"/><rect class="s s3" x="3.0" y="3.0" width="9.9" height="9.9" rx="3.3" ry="3.3"/></svg>