<svg viewBox="-16 -32 880 192" width="880" height="192" xmlns="http://www.w3.org/2000/svg"><style>@keyframes c0{5.5%{fill:var(--c1)}5.52%,to{fill:var(--ce)}}@keyframes c1{4.12%{fill:var(--c1)}4.14%,to{fill:var(--ce)}}@keyframes c2{3.02%{fill:var(--c1)}3.04%,to{fill:var(--ce)}}@keyframes c3{3.85%{fill:var(--c1)}3.87%,to{fill:var(--ce)}}@keyframes c4{71.89%{fill:var(--c2)}71.91%,to{fill:var(--ce)}}@keyframes c5{3.3%{fill:var(--c1)}3.32%,to{fill:var(--ce)}}@keyframes c6{3.57%{fill:var(--c1)}3.59%,to{fill:var(--ce)}}@keyframes c7{6.88%{fill:var(--c1)}6.9%,to{fill:var(--ce)}}@keyframes c8{6.6%{fill:var(--c1)}6.62%,to{fill:var(--ce)}}@keyframes c9{8.53%{fill:var(--c1)}8.55%,to{fill:var(--ce)}}@keyframes ca{7.7%{fill:var(--c1)}7.72%,to{fill:var(--ce)}}@keyframes cb{47.92%{fill:var(--c1)}47.94%,to{fill:var(--ce)}}@keyframes cc{12.66%{fill:var(--c1)}12.68%,to{fill:var(--ce)}}@keyframes cd{12.94%{fill:var(--c1)}12.96%,to{fill:var(--ce)}}@keyframes ce{13.21%{fill:var(--c1)}13.23%,to{fill:var(--ce)}}@keyframes cf{13.49%{fill:var(--c1)}13.51%,to{fill:var(--ce)}}@keyframes cg{10.46%{fill:var(--c1)}10.48%,to{fill:var(--ce)}}@keyframes ch{12.39%{fill:var(--c1)}12.41%,to{fill:var(--ce)}}@keyframes ci{12.11%{fill:var(--c1)}12.13%,to{fill:var(--ce)}}@keyframes cj{14.04%{fill:var(--c1)}14.06%,to{fill:var(--ce)}}@keyframes ck{11.01%{fill:var(--c1)}11.03%,to{fill:var(--ce)}}@keyframes cl{11.28%{fill:var(--c1)}11.3%,to{fill:var(--ce)}}@keyframes cm{11.56%{fill:var(--c1)}11.58%,to{fill:var(--ce)}}@keyframes cn{14.87%{fill:var(--c1)}14.89%,to{fill:var(--ce)}}@keyframes co{50.4%{fill:var(--c2)}50.42%,to{fill:var(--ce)}}@keyframes cp{16.52%{fill:var(--c1)}16.54%,to{fill:var(--ce)}}@keyframes cq{16.24%{fill:var(--c1)}16.26%,to{fill:var(--ce)}}@keyframes cr{51.78%{fill:var(--c2)}51.8%,to{fill:var(--ce)}}@keyframes cs{19%{fill:var(--c1)}19.02%,to{fill:var(--ce)}}@keyframes ct{19.27%{fill:var(--c1)}19.29%,to{fill:var(--ce)}}@keyframes cu{17.9%{fill:var(--c1)}17.92%,to{fill:var(--ce)}}@keyframes cv{21.2%{fill:var(--c1)}21.22%,to{fill:var(--ce)}}@keyframes cw{38.83%{fill:var(--c1)}38.85%,to{fill:var(--ce)}}@keyframes cx{21.48%{fill:var(--c1)}21.5%,to{fill:var(--ce)}}@keyframes cy{21.75%{fill:var(--c1)}21.77%,to{fill:var(--ce)}}@keyframes cz{22.03%{fill:var(--c1)}22.05%,to{fill:var(--ce)}}@keyframes c10{39.38%{fill:var(--c1)}39.4%,to{fill:var(--ce)}}@keyframes c11{79.88%{fill:var(--c4)}79.9%,to{fill:var(--ce)}}@keyframes c12{38.28%{fill:var(--c1)}38.3%,to{fill:var(--ce)}}@keyframes c13{56.74%{fill:var(--c2)}56.76%,to{fill:var(--ce)}}@keyframes c14{35.25%{fill:var(--c1)}35.27%,to{fill:var(--ce)}}@keyframes c15{36.63%{fill:var(--c1)}36.65%,to{fill:var(--ce)}}@keyframes c16{23.13%{fill:var(--c1)}23.15%,to{fill:var(--ce)}}@keyframes c17{57.01%{fill:var(--c2)}57.03%,to{fill:var(--ce)}}@keyframes c18{34.7%{fill:var(--c1)}34.72%,to{fill:var(--ce)}}@keyframes c19{35.8%{fill:var(--c1)}35.82%,to{fill:var(--ce)}}@keyframes c1a{23.68%{fill:var(--c1)}23.7%,to{fill:var(--ce)}}@keyframes c1b{23.41%{fill:var(--c1)}23.43%,to{fill:var(--ce)}}@keyframes c1c{34.43%{fill:var(--c1)}34.45%,to{fill:var(--ce)}}@keyframes c1d{34.15%{fill:var(--c1)}34.17%,to{fill:var(--ce)}}@keyframes c1e{33.87%{fill:var(--c1)}33.89%,to{fill:var(--ce)}}@keyframes c1f{23.96%{fill:var(--c1)}23.98%,to{fill:var(--ce)}}@keyframes c1g{57.57%{fill:var(--c2)}57.59%,to{fill:var(--ce)}}@keyframes c1h{25.89%{fill:var(--c1)}25.91%,to{fill:var(--ce)}}@keyframes c1i{25.61%{fill:var(--c1)}25.63%,to{fill:var(--ce)}}@keyframes c1j{25.33%{fill:var(--c1)}25.35%,to{fill:var(--ce)}}@keyframes c1k{57.84%{fill:var(--c2)}57.86%,to{fill:var(--ce)}}@keyframes c1l{58.39%{fill:var(--c2)}58.41%,to{fill:var(--ce)}}@keyframes c1m{25.06%{fill:var(--c1)}25.08%,to{fill:var(--ce)}}@keyframes c1n{24.51%{fill:var(--c1)}24.53%,to{fill:var(--ce)}}@keyframes c1o{26.71%{fill:var(--c1)}26.73%,to{fill:var(--ce)}}@keyframes c1p{26.44%{fill:var(--c1)}26.46%,to{fill:var(--ce)}}@keyframes c1q{32.77%{fill:var(--c1)}32.79%,to{fill:var(--ce)}}@keyframes c1r{31.95%{fill:var(--c1)}31.97%,to{fill:var(--ce)}}@keyframes c1s{27.81%{fill:var(--c1)}27.83%,to{fill:var(--ce)}}@keyframes c1t{28.09%{fill:var(--c1)}28.11%,to{fill:var(--ce)}}@keyframes c1u{30.84%{fill:var(--c1)}30.86%,to{fill:var(--ce)}}@keyframes c1v{31.39%{fill:var(--c1)}31.41%,to{fill:var(--ce)}}@keyframes c1w{60.32%{fill:var(--c2)}60.34%,to{fill:var(--ce)}}@keyframes c1x{84.29%{fill:var(--c4)}84.31%,to{fill:var(--ce)}}@keyframes c1y{28.92%{fill:var(--c1)}28.94%,to{fill:var(--ce)}}@keyframes c1z{28.64%{fill:var(--c1)}28.66%,to{fill:var(--ce)}}@keyframes c20{30.02%{fill:var(--c1)}30.04%,to{fill:var(--ce)}}@keyframes u0{3.02%{transform:scale(0,1)}3.04%,3.3%{transform:scale(.02,1)}3.32%,3.57%{transform:scale(.03,1)}3.59%,3.85%{transform:scale(.05,1)}3.87%,4.12%{transform:scale(.06,1)}4.14%,5.5%{transform:scale(.08,1)}5.52%,6.6%{transform:scale(.1,1)}6.62%,6.88%{transform:scale(.11,1)}6.9%,7.7%{transform:scale(.13,1)}7.72%,8.53%{transform:scale(.15,1)}10.46%,8.55%{transform:scale(.16,1)}10.48%,11.01%{transform:scale(.18,1)}11.03%,11.28%{transform:scale(.19,1)}11.3%,11.56%{transform:scale(.21,1)}11.58%,12.11%{transform:scale(.23,1)}12.13%,12.39%{transform:scale(.24,1)}12.41%,12.66%{transform:scale(.26,1)}12.68%,12.94%{transform:scale(.27,1)}12.96%,13.21%{transform:scale(.29,1)}13.23%,13.49%{transform:scale(.31,1)}13.51%,14.04%{transform:scale(.32,1)}14.06%,14.87%{transform:scale(.34,1)}14.89%,16.24%{transform:scale(.35,1)}16.26%,16.52%{transform:scale(.37,1)}16.54%,17.9%{transform:scale(.39,1)}17.92%,19%{transform:scale(.4,1)}19.02%,19.27%{transform:scale(.42,1)}19.29%,21.2%{transform:scale(.44,1)}21.22%,21.48%{transform:scale(.45,1)}21.5%,21.75%{transform:scale(.47,1)}21.77%,22.03%{transform:scale(.48,1)}22.05%,23.13%{transform:scale(.5,1)}23.15%,23.41%{transform:scale(.52,1)}23.43%,23.68%{transform:scale(.53,1)}23.7%,23.96%{transform:scale(.55,1)}23.98%,24.51%{transform:scale(.56,1)}24.53%,25.06%{transform:scale(.58,1)}25.08%,25.33%{transform:scale(.6,1)}25.35%,25.61%{transform:scale(.61,1)}25.63%,25.89%{transform:scale(.63,1)}25.91%,26.44%{transform:scale(.65,1)}26.46%,26.71%{transform:scale(.66,1)}26.73%,27.81%{transform:scale(.68,1)}27.83%,28.09%{transform:scale(.69,1)}28.11%,28.64%{transform:scale(.71,1)}28.66%,28.92%{transform:scale(.73,1)}28.94%,30.02%{transform:scale(.74,1)}30.04%,30.84%{transform:scale(.76,1)}30.86%,31.39%{transform:scale(.77,1)}31.41%,31.95%{transform:scale(.79,1)}31.97%,32.77%{transform:scale(.81,1)}32.79%,33.87%{transform:scale(.82,1)}33.89%,34.15%{transform:scale(.84,1)}34.17%,34.43%{transform:scale(.85,1)}34.45%,34.7%{transform:scale(.87,1)}34.72%,35.25%{transform:scale(.89,1)}35.27%,35.8%{transform:scale(.9,1)}35.82%,36.63%{transform:scale(.92,1)}36.65%,38.28%{transform:scale(.94,1)}38.3%,38.83%{transform:scale(.95,1)}38.85%,39.38%{transform:scale(.97,1)}39.4%,47.92%{transform:scale(.98,1)}47.94%,to{transform:scale(1,1)}}@keyframes u1{50.4%{transform:scale(0,1)}50.42%,51.78%{transform:scale(.11,1)}51.8%,56.74%{transform:scale(.22,1)}56.76%,57.01%{transform:scale(.33,1)}57.03%,57.57%{transform:scale(.44,1)}57.59%,57.84%{transform:scale(.56,1)}57.86%,58.39%{transform:scale(.67,1)}58.41%,60.32%{transform:scale(.78,1)}60.34%,71.89%{transform:scale(.89,1)}71.91%,to{transform:scale(1,1)}}@keyframes u2{79.88%{transform:scale(0,1)}79.9%,84.29%{transform:scale(.5,1)}84.31%,to{transform:scale(1,1)}}@keyframes s0{0%,99.72%{transform:translate(0,-16px)}.28%{transform:translate(0,0)}3.31%{transform:translate(176px,0)}3.58%{transform:translate(176px,16px)}4.41%,96.97%{transform:translate(128px,16px)}5.51%{transform:translate(128px,80px)}6.61%{transform:translate(192px,80px)}6.89%{transform:translate(192px,64px)}7.44%{transform:translate(224px,64px)}8.54%{transform:translate(224px,0)}11.02%{transform:translate(368px,0)}11.57%{transform:translate(368px,32px)}11.85%{transform:translate(352px,32px)}12.12%{transform:translate(352px,48px)}12.67%{transform:translate(320px,48px)}13.5%{transform:translate(320px,96px)}14.05%{transform:translate(352px,96px)}14.6%{transform:translate(352px,64px)}15.43%{transform:translate(400px,64px)}16.53%{transform:translate(400px,0)}17.91%{transform:translate(480px,0)}18.18%{transform:translate(480px,16px)}18.46%{transform:translate(464px,16px)}19.28%{transform:translate(464px,64px)}21.49%{transform:translate(592px,64px)}22.04%{transform:translate(592px,96px)}23.42%{transform:translate(672px,96px)}23.69%{transform:translate(672px,80px)}24.52%{transform:translate(720px,80px)}25.07%{transform:translate(720px,48px)}25.34%{transform:translate(704px,48px)}25.9%{transform:translate(704px,16px)}26.45%{transform:translate(736px,16px)}26.72%{transform:translate(736px,0)}27.55%{transform:translate(784px,0)}27.82%{transform:translate(784px,16px)}28.65%,29.75%{transform:translate(832px,16px)}28.93%{transform:translate(832px,0)}29.2%{transform:translate(848px,0)}29.48%{transform:translate(848px,16px)}30.03%{transform:translate(832px,32px)}30.58%,60.88%{transform:translate(800px,32px)}31.4%{transform:translate(800px,80px)}31.96%{transform:translate(768px,80px)}32.51%{transform:translate(768px,48px)}33.88%{transform:translate(688px,48px)}34.44%{transform:translate(688px,16px)}34.99%{transform:translate(656px,16px)}35.26%{transform:translate(656px,32px)}35.54%{transform:translate(672px,32px)}35.81%{transform:translate(672px,48px)}36.09%{transform:translate(656px,48px)}36.64%,55.37%{transform:translate(656px,80px)}36.91%{transform:translate(640px,80px)}37.74%{transform:translate(640px,32px)}38.57%{transform:translate(592px,32px)}39.12%{transform:translate(592px,0)}39.67%{transform:translate(624px,0)}40.22%{transform:translate(624px,32px)}46.83%{transform:translate(240px,32px)}47.93%{transform:translate(240px,96px)}50.14%{transform:translate(368px,96px)}50.41%{transform:translate(368px,80px)}56.75%{transform:translate(656px,0)}57.85%{transform:translate(720px,0)}58.4%{transform:translate(720px,32px)}60.06%{transform:translate(816px,32px)}60.33%{transform:translate(816px,48px)}60.61%{transform:translate(800px,48px)}71.9%{transform:translate(160px,32px)}72.18%{transform:translate(160px,16px)}83.47%{transform:translate(816px,16px)}84.3%{transform:translate(816px,64px)}95.87%{transform:translate(144px,64px)}96.14%{transform:translate(144px,48px)}96.42%{transform:translate(128px,48px)}97.25%{transform:translate(112px,16px)}97.52%{transform:translate(112px,0)}98.07%{transform:translate(80px,0)}98.35%{transform:translate(80px,-16px)}}@keyframes s1{0%,99.72%{transform:translate(16px,-16px)}.28%{transform:translate(0,-16px)}.55%{transform:translate(0,0)}3.58%{transform:translate(176px,0)}3.86%{transform:translate(176px,16px)}4.68%,97.25%{transform:translate(128px,16px)}5.79%{transform:translate(128px,80px)}6.89%{transform:translate(192px,80px)}7.16%{transform:translate(192px,64px)}7.71%{transform:translate(224px,64px)}8.82%{transform:translate(224px,0)}11.29%{transform:translate(368px,0)}11.85%{transform:translate(368px,32px)}12.12%{transform:translate(352px,32px)}12.4%{transform:translate(352px,48px)}12.95%{transform:translate(320px,48px)}13.77%{transform:translate(320px,96px)}14.33%{transform:translate(352px,96px)}14.88%{transform:translate(352px,64px)}15.7%{transform:translate(400px,64px)}16.8%{transform:translate(400px,0)}18.18%{transform:translate(480px,0)}18.46%{transform:translate(480px,16px)}18.73%{transform:translate(464px,16px)}19.56%{transform:translate(464px,64px)}21.76%{transform:translate(592px,64px)}22.31%{transform:translate(592px,96px)}23.69%{transform:translate(672px,96px)}23.97%{transform:translate(672px,80px)}24.79%{transform:translate(720px,80px)}25.34%{transform:translate(720px,48px)}25.62%{transform:translate(704px,48px)}26.17%{transform:translate(704px,16px)}26.72%{transform:translate(736px,16px)}27%{transform:translate(736px,0)}27.82%{transform:translate(784px,0)}28.1%{transform:translate(784px,16px)}28.93%,30.03%{transform:translate(832px,16px)}29.2%{transform:translate(832px,0)}29.48%{transform:translate(848px,0)}29.75%{transform:translate(848px,16px)}30.3%{transform:translate(832px,32px)}30.85%,61.16%{transform:translate(800px,32px)}31.68%{transform:translate(800px,80px)}32.23%{transform:translate(768px,80px)}32.78%{transform:translate(768px,48px)}34.16%{transform:translate(688px,48px)}34.71%{transform:translate(688px,16px)}35.26%{transform:translate(656px,16px)}35.54%{transform:translate(656px,32px)}35.81%{transform:translate(672px,32px)}36.09%{transform:translate(672px,48px)}36.36%{transform:translate(656px,48px)}36.91%,55.65%{transform:translate(656px,80px)}37.19%{transform:translate(640px,80px)}38.02%{transform:translate(640px,32px)}38.84%{transform:translate(592px,32px)}39.39%{transform:translate(592px,0)}39.94%{transform:translate(624px,0)}40.5%{transform:translate(624px,32px)}47.11%{transform:translate(240px,32px)}48.21%{transform:translate(240px,96px)}50.41%{transform:translate(368px,96px)}50.69%{transform:translate(368px,80px)}57.02%{transform:translate(656px,0)}58.13%{transform:translate(720px,0)}58.68%{transform:translate(720px,32px)}60.33%{transform:translate(816px,32px)}60.61%{transform:translate(816px,48px)}60.88%{transform:translate(800px,48px)}72.18%{transform:translate(160px,32px)}72.45%{transform:translate(160px,16px)}83.75%{transform:translate(816px,16px)}84.57%{transform:translate(816px,64px)}96.14%{transform:translate(144px,64px)}96.42%{transform:translate(144px,48px)}96.69%{transform:translate(128px,48px)}97.52%{transform:translate(112px,16px)}97.8%{transform:translate(112px,0)}98.35%{transform:translate(80px,0)}98.62%{transform:translate(80px,-16px)}}@keyframes s2{0%,99.72%{transform:translate(32px,-16px)}.55%{transform:translate(0,-16px)}.83%{transform:translate(0,0)}3.86%{transform:translate(176px,0)}4.13%{transform:translate(176px,16px)}4.96%,97.52%{transform:translate(128px,16px)}6.06%{transform:translate(128px,80px)}7.16%{transform:translate(192px,80px)}7.44%{transform:translate(192px,64px)}7.99%{transform:translate(224px,64px)}9.09%{transform:translate(224px,0)}11.57%{transform:translate(368px,0)}12.12%{transform:translate(368px,32px)}12.4%{transform:translate(352px,32px)}12.67%{transform:translate(352px,48px)}13.22%{transform:translate(320px,48px)}14.05%{transform:translate(320px,96px)}14.6%{transform:translate(352px,96px)}15.15%{transform:translate(352px,64px)}15.98%{transform:translate(400px,64px)}17.08%{transform:translate(400px,0)}18.46%{transform:translate(480px,0)}18.73%{transform:translate(480px,16px)}19.01%{transform:translate(464px,16px)}19.83%{transform:translate(464px,64px)}22.04%{transform:translate(592px,64px)}22.59%{transform:translate(592px,96px)}23.97%{transform:translate(672px,96px)}24.24%{transform:translate(672px,80px)}25.07%{transform:translate(720px,80px)}25.62%{transform:translate(720px,48px)}25.9%{transform:translate(704px,48px)}26.45%{transform:translate(704px,16px)}27%{transform:translate(736px,16px)}27.27%{transform:translate(736px,0)}28.1%{transform:translate(784px,0)}28.37%{transform:translate(784px,16px)}29.2%,30.3%{transform:translate(832px,16px)}29.48%{transform:translate(832px,0)}29.75%{transform:translate(848px,0)}30.03%{transform:translate(848px,16px)}30.58%{transform:translate(832px,32px)}31.13%,61.43%{transform:translate(800px,32px)}31.96%{transform:translate(800px,80px)}32.51%{transform:translate(768px,80px)}33.06%{transform:translate(768px,48px)}34.44%{transform:translate(688px,48px)}34.99%{transform:translate(688px,16px)}35.54%{transform:translate(656px,16px)}35.81%{transform:translate(656px,32px)}36.09%{transform:translate(672px,32px)}36.36%{transform:translate(672px,48px)}36.64%{transform:translate(656px,48px)}37.19%,55.92%{transform:translate(656px,80px)}37.47%{transform:translate(640px,80px)}38.29%{transform:translate(640px,32px)}39.12%{transform:translate(592px,32px)}39.67%{transform:translate(592px,0)}40.22%{transform:translate(624px,0)}40.77%{transform:translate(624px,32px)}47.38%{transform:translate(240px,32px)}48.48%{transform:translate(240px,96px)}50.69%{transform:translate(368px,96px)}50.96%{transform:translate(368px,80px)}57.3%{transform:translate(656px,0)}58.4%{transform:translate(720px,0)}58.95%{transform:translate(720px,32px)}60.61%{transform:translate(816px,32px)}60.88%{transform:translate(816px,48px)}61.16%{transform:translate(800px,48px)}72.45%{transform:translate(160px,32px)}72.73%{transform:translate(160px,16px)}84.02%{transform:translate(816px,16px)}84.85%{transform:translate(816px,64px)}96.42%{transform:translate(144px,64px)}96.69%{transform:translate(144px,48px)}96.97%{transform:translate(128px,48px)}97.8%{transform:translate(112px,16px)}98.07%{transform:translate(112px,0)}98.62%{transform:translate(80px,0)}98.9%{transform:translate(80px,-16px)}}@keyframes s3{0%,99.72%{transform:translate(48px,-16px)}.83%{transform:translate(0,-16px)}1.1%{transform:translate(0,0)}4.13%{transform:translate(176px,0)}4.41%{transform:translate(176px,16px)}5.23%,97.8%{transform:translate(128px,16px)}6.34%{transform:translate(128px,80px)}7.44%{transform:translate(192px,80px)}7.71%{transform:translate(192px,64px)}8.26%{transform:translate(224px,64px)}9.37%{transform:translate(224px,0)}11.85%{transform:translate(368px,0)}12.4%{transform:translate(368px,32px)}12.67%{transform:translate(352px,32px)}12.95%{transform:translate(352px,48px)}13.5%{transform:translate(320px,48px)}14.33%{transform:translate(320px,96px)}14.88%{transform:translate(352px,96px)}15.43%{transform:translate(352px,64px)}16.25%{transform:translate(400px,64px)}17.36%{transform:translate(400px,0)}18.73%{transform:translate(480px,0)}19.01%{transform:translate(480px,16px)}19.28%{transform:translate(464px,16px)}20.11%{transform:translate(464px,64px)}22.31%{transform:translate(592px,64px)}22.87%{transform:translate(592px,96px)}24.24%{transform:translate(672px,96px)}24.52%{transform:translate(672px,80px)}25.34%{transform:translate(720px,80px)}25.9%{transform:translate(720px,48px)}26.17%{transform:translate(704px,48px)}26.72%{transform:translate(704px,16px)}27.27%{transform:translate(736px,16px)}27.55%{transform:translate(736px,0)}28.37%{transform:translate(784px,0)}28.65%{transform:translate(784px,16px)}29.48%,30.58%{transform:translate(832px,16px)}29.75%{transform:translate(832px,0)}30.03%{transform:translate(848px,0)}30.3%{transform:translate(848px,16px)}30.85%{transform:translate(832px,32px)}31.4%,61.71%{transform:translate(800px,32px)}32.23%{transform:translate(800px,80px)}32.78%{transform:translate(768px,80px)}33.33%{transform:translate(768px,48px)}34.71%{transform:translate(688px,48px)}35.26%{transform:translate(688px,16px)}35.81%{transform:translate(656px,16px)}36.09%{transform:translate(656px,32px)}36.36%{transform:translate(672px,32px)}36.64%{transform:translate(672px,48px)}36.91%{transform:translate(656px,48px)}37.47%,56.2%{transform:translate(656px,80px)}37.74%{transform:translate(640px,80px)}38.57%{transform:translate(640px,32px)}39.39%{transform:translate(592px,32px)}39.94%{transform:translate(592px,0)}40.5%{transform:translate(624px,0)}41.05%{transform:translate(624px,32px)}47.66%{transform:translate(240px,32px)}48.76%{transform:translate(240px,96px)}50.96%{transform:translate(368px,96px)}51.24%{transform:translate(368px,80px)}57.58%{transform:translate(656px,0)}58.68%{transform:translate(720px,0)}59.23%{transform:translate(720px,32px)}60.88%{transform:translate(816px,32px)}61.16%{transform:translate(816px,48px)}61.43%{transform:translate(800px,48px)}72.73%{transform:translate(160px,32px)}73%{transform:translate(160px,16px)}84.3%{transform:translate(816px,16px)}85.12%{transform:translate(816px,64px)}96.69%{transform:translate(144px,64px)}96.97%{transform:translate(144px,48px)}97.25%{transform:translate(128px,48px)}98.07%{transform:translate(112px,16px)}98.35%{transform:translate(112px,0)}98.9%{transform:translate(80px,0)}99.17%{transform:translate(80px,-16px)}}:root{--cb:#1b1f230a;--cs:purple;--ce:#ebedf0;--c0:#ebedf0;--c1:#9be9a8;--c2:#40c463;--c3:#30a14e;--c4:#216e39}@media (prefers-color-scheme:dark){:root{--cb:#1b1f230a;--cs:purple;--ce:#161b22;--c1:#01311f;--c2:#034525;--c3:#0f6d31;--c4:#00c647}}.c{shape-rendering:geometricPrecision;rx:2;ry:2;fill:var(--ce);stroke-width:1px;stroke:var(--cb);animation:none 36300ms linear infinite}.c.c0{fill:var(--c1);animation-name:c0}.c.c1,.c.c2,.c.c3{fill:var(--c1);animation-name:c1}.c.c2,.c.c3{animation-name:c2}.c.c3{animation-name:c3}.c.c4{fill:var(--c2);animation-name:c4}.c.c5{fill:var(--c1);animation-name:c5}.c.c6,.c.c7,.c.c8{fill:var(--c1);animation-name:c6}.c.c7,.c.c8{animation-name:c7}.c.c8{animation-name:c8}.c.c9,.c.ca,.c.cb{fill:var(--c1);animation-name:c9}.c.ca,.c.cb{animation-name:ca}.c.cb{animation-name:cb}.c.cc,.c.cd,.c.ce{fill:var(--c1);animation-name:cc}.c.cd,.c.ce{animation-name:cd}.c.ce{animation-name:ce}.c.cf,.c.cg,.c.ch{fill:var(--c1);animation-name:cf}.c.cg,.c.ch{animation-name:cg}.c.ch{animation-name:ch}.c.ci,.c.cj,.c.ck{fill:var(--c1);animation-name:ci}.c.cj,.c.ck{animation-name:cj}.c.ck{animation-name:ck}.c.cl,.c.cm,.c.cn{fill:var(--c1);animation-name:cl}.c.cm,.c.cn{animation-name:cm}.c.cn{animation-name:cn}.c.co{fill:var(--c2);animation-name:co}.c.cp,.c.cq{fill:var(--c1);animation-name:cp}.c.cq{animation-name:cq}.c.cr{fill:var(--c2);animation-name:cr}.c.cs,.c.ct,.c.cu{fill:var(--c1);animation-name:cs}.c.ct,.c.cu{animation-name:ct}.c.cu{animation-name:cu}.c.cv,.c.cw,.c.cx{fill:var(--c1);animation-name:cv}.c.cw,.c.cx{animation-name:cw}.c.cx{animation-name:cx}.c.c10,.c.cy,.c.cz{fill:var(--c1);animation-name:cy}.c.c10,.c.cz{animation-name:cz}.c.c10{animation-name:c10}.c.c11{fill:var(--c4);animation-name:c11}.c.c12{fill:var(--c1);animation-name:c12}.c.c13{fill:var(--c2);animation-name:c13}.c.c14,.c.c15,.c.c16{fill:var(--c1);animation-name:c14}.c.c15,.c.c16{animation-name:c15}.c.c16{animation-name:c16}.c.c17{fill:var(--c2);animation-name:c17}.c.c18,.c.c19{fill:var(--c1);animation-name:c18}.c.c19{animation-name:c19}.c.c1a,.c.c1b,.c.c1c{fill:var(--c1);animation-name:c1a}.c.c1b,.c.c1c{animation-name:c1b}.c.c1c{animation-name:c1c}.c.c1d,.c.c1e,.c.c1f{fill:var(--c1);animation-name:c1d}.c.c1e,.c.c1f{animation-name:c1e}.c.c1f{animation-name:c1f}.c.c1g{fill:var(--c2);animation-name:c1g}.c.c1h,.c.c1i,.c.c1j{fill:var(--c1);animation-name:c1h}.c.c1i,.c.c1j{animation-name:c1i}.c.c1j{animation-name:c1j}.c.c1k,.c.c1l{fill:var(--c2);animation-name:c1k}.c.c1l{animation-name:c1l}.c.c1m{fill:var(--c1);animation-name:c1m}.c.c1n,.c.c1o,.c.c1p{fill:var(--c1);animation-name:c1n}.c.c1o,.c.c1p{animation-name:c1o}.c.c1p{animation-name:c1p}.c.c1q,.c.c1r,.c.c1s{fill:var(--c1);animation-name:c1q}.c.c1r,.c.c1s{animation-name:c1r}.c.c1s{animation-name:c1s}.c.c1t,.c.c1u,.c.c1v{fill:var(--c1);animation-name:c1t}.c.c1u,.c.c1v{animation-name:c1u}.c.c1v{animation-name:c1v}.c.c1w{fill:var(--c2);animation-name:c1w}.c.c1x{fill:var(--c4);animation-name:c1x}.c.c1y,.c.c1z,.c.c20{fill:var(--c1);animation-name:c1y}.c.c1z,.c.c20{animation-name:c1z}.c.c20{animation-name:c20}.s,.u{animation:none linear 36300ms infinite}.u,.u.u0{transform-origin:0 0}.u{transform:scale(0,1)}.u.u0{fill:var(--c1);animation-name:u0}.u.u1{fill:var(--c2);animation-name:u1;transform-origin:720.2px 0}.u.u2{fill:var(--c4);animation-name:u2;transform-origin:824.8px 0}.s{shape-rendering:geometricPrecision;fill:var(--cs)}.s.s0{transform:translate(0,-16px);animation-name:s0}.s.s1{transform:translate(16px,-16px);animation-name:s1}.s.s2{transform:translate(32px,-16px);animation-name:s2}.s.s3{transform:translate(48px,-16px);animation-name:s3}</style><rect class="c" x="2" y="2" width="12" height="12"/><rect class="c" x="2" y="18" width="12" height="12"/><rect class="c" x="2" y="34" width="12" height="12"/><rect class="c" x="2" y="50" width="12" height="12"/><rect class="c" x="2" y="66" width="12" height="12"/><rect class="c" x="2" y="82" width="12" height="12"/><rect class="c" x="2" y="98" width="12" height="12"/><rect class="c" x="18" y="2" width="12" height="12"/><rect class="c" x="18" y="18" width="12" height="12"/><rect class="c" x="18" y="34" width="12" height="12"/><rect class="c" x="18" y="50" width="12" height="12"/><rect class="c" x="18" y="66" width="12" height="12"/><rect class="c" x="18" y="82" width="12" height="12"/><rect class="c" x="18" y="98" width="12" height="12"/><rect class="c" x="34" y="2" width="12" height="12"/><rect class="c" x="34" y="18" width="12" height="12"/><rect class="c" x="34" y="34" width="12" height="12"/><rect class="c" x="34" y="50" width="12" height="12"/><rect class="c" x="34" y="66" width="12" height="12"/><rect class="c" x="34" y="82" width="12" height="12"/><rect class="c" x="34" y="98" width="12" height="12"/><rect class="c" x="50" y="2" width="12" height="12"/><rect class="c" x="50" y="18" width="12" height="12"/><rect class="c" x="50" y="34" width="12" height="12"/><rect class="c" x="50" y="50" width="12" height="12"/><rect class="c" x="50" y="66" width="12" height="12"/><rect class="c" x="50" y="82" width="12" height="12"/><rect class="c" x="50" y="98" width="12" height="12"/><rect class="c" x="66" y="2" width="12" height="12"/><rect class="c" x="66" y="18" width="12" height="12"/><rect class="c" x="66" y="34" width="12" height="12"/><rect class="c" x="66" y="50" width="12" height="12"/><rect class="c" x="66" y="66" width="12" height="12"/><rect class="c" x="66" y="82" width="12" height="12"/><rect class="c" x="66" y="98" width="12" height="12"/><rect class="c" x="82" y="2" width="12" height="12"/><rect class="c" x="82" y="18" width="12" height="12"/><rect class="c" x="82" y="34" width="12" height="12"/><rect class="c" x="82" y="50" width="12" height="12"/><rect class="c" x="82" y="66" width="12" height="12"/><rect class="c" x="82" y="82" width="12" height="12"/><rect class="c" x="82" y="98" width="12" height="12"/><rect class="c" x="98" y="2" width="12" height="12"/><rect class="c" x="98" y="18" width="12" height="12"/><rect class="c" x="98" y="34" width="12" height="12"/><rect class="c" x="98" y="50" width="12" height="12"/><rect class="c" x="98" y="66" width="12" height="12"/><rect class="c" x="98" y="82" width="12" height="12"/><rect class="c" x="98" y="98" width="12" height="12"/><rect class="c" x="114" y="2" width="12" height="12"/><rect class="c" x="114" y="18" width="12" height="12"/><rect class="c" x="114" y="34" width="12" height="12"/><rect class="c" x="114" y="50" width="12" height="12"/><rect class="c" x="114" y="66" width="12" height="12"/><rect class="c" x="114" y="82" width="12" height="12"/><rect class="c" x="114" y="98" width="12" height="12"/><rect class="c" x="130" y="2" width="12" height="12"/><rect class="c" x="130" y="18" width="12" height="12"/><rect class="c" x="130" y="34" width="12" height="12"/><rect class="c" x="130" y="50" width="12" height="12"/><rect class="c" x="130" y="66" width="12" height="12"/><rect class="c c0" x="130" y="82" width="12" height="12"/><rect class="c" x="130" y="98" width="12" height="12"/><rect class="c" x="146" y="2" width="12" height="12"/><rect class="c c1" x="146" y="18" width="12" height="12"/><rect class="c" x="146" y="34" width="12" height="12"/><rect class="c" x="146" y="50" width="12" height="12"/><rect class="c" x="146" y="66" width="12" height="12"/><rect class="c" x="146" y="82" width="12" height="12"/><rect class="c" x="146" y="98" width="12" height="12"/><rect class="c c2" x="162" y="2" width="12" height="12"/><rect class="c c3" x="162" y="18" width="12" height="12"/><rect class="c c4" x="162" y="34" width="12" height="12"/><rect class="c" x="162" y="50" width="12" height="12"/><rect class="c" x="162" y="66" width="12" height="12"/><rect class="c" x="162" y="82" width="12" height="12"/><rect class="c" x="162" y="98" width="12" height="12"/><rect class="c c5" x="178" y="2" width="12" height="12"/><rect class="c c6" x="178" y="18" width="12" height="12"/><rect class="c" x="178" y="34" width="12" height="12"/><rect class="c" x="178" y="50" width="12" height="12"/><rect class="c" x="178" y="66" width="12" height="12"/><rect class="c" x="178" y="82" width="12" height="12"/><rect class="c" x="178" y="98" width="12" height="12"/><rect class="c" x="194" y="2" width="12" height="12"/><rect class="c" x="194" y="18" width="12" height="12"/><rect class="c" x="194" y="34" width="12" height="12"/><rect class="c" x="194" y="50" width="12" height="12"/><rect class="c c7" x="194" y="66" width="12" height="12"/><rect class="c c8" x="194" y="82" width="12" height="12"/><rect class="c" x="194" y="98" width="12" height="12"/><rect class="c" x="210" y="2" width="12" height="12"/><rect class="c" x="210" y="18" width="12" height="12"/><rect class="c" x="210" y="34" width="12" height="12"/><rect class="c" x="210" y="50" width="12" height="12"/><rect class="c" x="210" y="66" width="12" height="12"/><rect class="c" x="210" y="82" width="12" height="12"/><rect class="c" x="210" y="98" width="12" height="12"/><rect class="c c9" x="226" y="2" width="12" height="12"/><rect class="c" x="226" y="18" width="12" height="12"/><rect class="c" x="226" y="34" width="12" height="12"/><rect class="c ca" x="226" y="50" width="12" height="12"/><rect class="c" x="226" y="66" width="12" height="12"/><rect class="c" x="226" y="82" width="12" height="12"/><rect class="c" x="226" y="98" width="12" height="12"/><rect class="c" x="242" y="2" width="12" height="12"/><rect class="c" x="242" y="18" width="12" height="12"/><rect class="c" x="242" y="34" width="12" height="12"/><rect class="c" x="242" y="50" width="12" height="12"/><rect class="c" x="242" y="66" width="12" height="12"/><rect class="c" x="242" y="82" width="12" height="12"/><rect class="c cb" x="242" y="98" width="12" height="12"/><rect class="c" x="258" y="2" width="12" height="12"/><rect class="c" x="258" y="18" width="12" height="12"/><rect class="c" x="258" y="34" width="12" height="12"/><rect class="c" x="258" y="50" width="12" height="12"/><rect class="c" x="258" y="66" width="12" height="12"/><rect class="c" x="258" y="82" width="12" height="12"/><rect class="c" x="258" y="98" width="12" height="12"/><rect class="c" x="274" y="2" width="12" height="12"/><rect class="c" x="274" y="18" width="12" height="12"/><rect class="c" x="274" y="34" width="12" height="12"/><rect class="c" x="274" y="50" width="12" height="12"/><rect class="c" x="274" y="66" width="12" height="12"/><rect class="c" x="274" y="82" width="12" height="12"/><rect class="c" x="274" y="98" width="12" height="12"/><rect class="c" x="290" y="2" width="12" height="12"/><rect class="c" x="290" y="18" width="12" height="12"/><rect class="c" x="290" y="34" width="12" height="12"/><rect class="c" x="290" y="50" width="12" height="12"/><rect class="c" x="290" y="66" width="12" height="12"/><rect class="c" x="290" y="82" width="12" height="12"/><rect class="c" x="290" y="98" width="12" height="12"/><rect class="c" x="306" y="2" width="12" height="12"/><rect class="c" x="306" y="18" width="12" height="12"/><rect class="c" x="306" y="34" width="12" height="12"/><rect class="c" x="306" y="50" width="12" height="12"/><rect class="c" x="306" y="66" width="12" height="12"/><rect class="c" x="306" y="82" width="12" height="12"/><rect class="c" x="306" y="98" width="12" height="12"/><rect class="c" x="322" y="2" width="12" height="12"/><rect class="c" x="322" y="18" width="12" height="12"/><rect class="c" x="322" y="34" width="12" height="12"/><rect class="c cc" x="322" y="50" width="12" height="12"/><rect class="c cd" x="322" y="66" width="12" height="12"/><rect class="c ce" x="322" y="82" width="12" height="12"/><rect class="c cf" x="322" y="98" width="12" height="12"/><rect class="c cg" x="338" y="2" width="12" height="12"/><rect class="c" x="338" y="18" width="12" height="12"/><rect class="c" x="338" y="34" width="12" height="12"/><rect class="c ch" x="338" y="50" width="12" height="12"/><rect class="c" x="338" y="66" width="12" height="12"/><rect class="c" x="338" y="82" width="12" height="12"/><rect class="c" x="338" y="98" width="12" height="12"/><rect class="c" x="354" y="2" width="12" height="12"/><rect class="c" x="354" y="18" width="12" height="12"/><rect class="c" x="354" y="34" width="12" height="12"/><rect class="c ci" x="354" y="50" width="12" height="12"/><rect class="c" x="354" y="66" width="12" height="12"/><rect class="c" x="354" y="82" width="12" height="12"/><rect class="c cj" x="354" y="98" width="12" height="12"/><rect class="c ck" x="370" y="2" width="12" height="12"/><rect class="c cl" x="370" y="18" width="12" height="12"/><rect class="c cm" x="370" y="34" width="12" height="12"/><rect class="c" x="370" y="50" width="12" height="12"/><rect class="c cn" x="370" y="66" width="12" height="12"/><rect class="c co" x="370" y="82" width="12" height="12"/><rect class="c" x="370" y="98" width="12" height="12"/><rect class="c" x="386" y="2" width="12" height="12"/><rect class="c" x="386" y="18" width="12" height="12"/><rect class="c" x="386" y="34" width="12" height="12"/><rect class="c" x="386" y="50" width="12" height="12"/><rect class="c" x="386" y="66" width="12" height="12"/><rect class="c" x="386" y="82" width="12" height="12"/><rect class="c" x="386" y="98" width="12" height="12"/><rect class="c cp" x="402" y="2" width="12" height="12"/><rect class="c cq" x="402" y="18" width="12" height="12"/><rect class="c" x="402" y="34" width="12" height="12"/><rect class="c" x="402" y="50" width="12" height="12"/><rect class="c" x="402" y="66" width="12" height="12"/><rect class="c" x="402" y="82" width="12" height="12"/><rect class="c" x="402" y="98" width="12" height="12"/><rect class="c" x="418" y="2" width="12" height="12"/><rect class="c" x="418" y="18" width="12" height="12"/><rect class="c" x="418" y="34" width="12" height="12"/><rect class="c" x="418" y="50" width="12" height="12"/><rect class="c" x="418" y="66" width="12" height="12"/><rect class="c" x="418" y="82" width="12" height="12"/><rect class="c" x="418" y="98" width="12" height="12"/><rect class="c" x="434" y="2" width="12" height="12"/><rect class="c" x="434" y="18" width="12" height="12"/><rect class="c" x="434" y="34" width="12" height="12"/><rect class="c" x="434" y="50" width="12" height="12"/><rect class="c" x="434" y="66" width="12" height="12"/><rect class="c" x="434" y="82" width="12" height="12"/><rect class="c" x="434" y="98" width="12" height="12"/><rect class="c" x="450" y="2" width="12" height="12"/><rect class="c" x="450" y="18" width="12" height="12"/><rect class="c" x="450" y="34" width="12" height="12"/><rect class="c" x="450" y="50" width="12" height="12"/><rect class="c" x="450" y="66" width="12" height="12"/><rect class="c cr" x="450" y="82" width="12" height="12"/><rect class="c" x="450" y="98" width="12" height="12"/><rect class="c" x="466" y="2" width="12" height="12"/><rect class="c" x="466" y="18" width="12" height="12"/><rect class="c" x="466" y="34" width="12" height="12"/><rect class="c cs" x="466" y="50" width="12" height="12"/><rect class="c ct" x="466" y="66" width="12" height="12"/><rect class="c" x="466" y="82" width="12" height="12"/><rect class="c" x="466" y="98" width="12" height="12"/><rect class="c cu" x="482" y="2" width="12" height="12"/><rect class="c" x="482" y="18" width="12" height="12"/><rect class="c" x="482" y="34" width="12" height="12"/><rect class="c" x="482" y="50" width="12" height="12"/><rect class="c" x="482" y="66" width="12" height="12"/><rect class="c" x="482" y="82" width="12" height="12"/><rect class="c" x="482" y="98" width="12" height="12"/><rect class="c" x="498" y="2" width="12" height="12"/><rect class="c" x="498" y="18" width="12" height="12"/><rect class="c" x="498" y="34" width="12" height="12"/><rect class="c" x="498" y="50" width="12" height="12"/><rect class="c" x="498" y="66" width="12" height="12"/><rect class="c" x="498" y="82" width="12" height="12"/><rect class="c" x="498" y="98" width="12" height="12"/><rect class="c" x="514" y="2" width="12" height="12"/><rect class="c" x="514" y="18" width="12" height="12"/><rect class="c" x="514" y="34" width="12" height="12"/><rect class="c" x="514" y="50" width="12" height="12"/><rect class="c" x="514" y="66" width="12" height="12"/><rect class="c" x="514" y="82" width="12" height="12"/><rect class="c" x="514" y="98" width="12" height="12"/><rect class="c" x="530" y="2" width="12" height="12"/><rect class="c" x="530" y="18" width="12" height="12"/><rect class="c" x="530" y="34" width="12" height="12"/><rect class="c" x="530" y="50" width="12" height="12"/><rect class="c" x="530" y="66" width="12" height="12"/><rect class="c" x="530" y="82" width="12" height="12"/><rect class="c" x="530" y="98" width="12" height="12"/><rect class="c" x="546" y="2" width="12" height="12"/><rect class="c" x="546" y="18" width="12" height="12"/><rect class="c" x="546" y="34" width="12" height="12"/><rect class="c" x="546" y="50" width="12" height="12"/><rect class="c" x="546" y="66" width="12" height="12"/><rect class="c" x="546" y="82" width="12" height="12"/><rect class="c" x="546" y="98" width="12" height="12"/><rect class="c" x="562" y="2" width="12" height="12"/><rect class="c" x="562" y="18" width="12" height="12"/><rect class="c" x="562" y="34" width="12" height="12"/><rect class="c" x="562" y="50" width="12" height="12"/><rect class="c" x="562" y="66" width="12" height="12"/><rect class="c" x="562" y="82" width="12" height="12"/><rect class="c" x="562" y="98" width="12" height="12"/><rect class="c" x="578" y="2" width="12" height="12"/><rect class="c" x="578" y="18" width="12" height="12"/><rect class="c" x="578" y="34" width="12" height="12"/><rect class="c" x="578" y="50" width="12" height="12"/><rect class="c cv" x="578" y="66" width="12" height="12"/><rect class="c" x="578" y="82" width="12" height="12"/><rect class="c" x="578" y="98" width="12" height="12"/><rect class="c" x="594" y="2" width="12" height="12"/><rect class="c cw" x="594" y="18" width="12" height="12"/><rect class="c" x="594" y="34" width="12" height="12"/><rect class="c" x="594" y="50" width="12" height="12"/><rect class="c cx" x="594" y="66" width="12" height="12"/><rect class="c cy" x="594" y="82" width="12" height="12"/><rect class="c cz" x="594" y="98" width="12" height="12"/><rect class="c c10" x="610" y="2" width="12" height="12"/><rect class="c c11" x="610" y="18" width="12" height="12"/><rect class="c c12" x="610" y="34" width="12" height="12"/><rect class="c" x="610" y="50" width="12" height="12"/><rect class="c" x="610" y="66" width="12" height="12"/><rect class="c" x="610" y="82" width="12" height="12"/><rect class="c" x="610" y="98" width="12" height="12"/><rect class="c" x="626" y="2" width="12" height="12"/><rect class="c" x="626" y="18" width="12" height="12"/><rect class="c" x="626" y="34" width="12" height="12"/><rect class="c" x="626" y="50" width="12" height="12"/><rect class="c" x="626" y="66" width="12" height="12"/><rect class="c" x="626" y="82" width="12" height="12"/><rect class="c" x="626" y="98" width="12" height="12"/><rect class="c" x="642" y="2" width="12" height="12"/><rect class="c" x="642" y="18" width="12" height="12"/><rect class="c" x="642" y="34" width="12" height="12"/><rect class="c" x="642" y="50" width="12" height="12"/><rect class="c" x="642" y="66" width="12" height="12"/><rect class="c" x="642" y="82" width="12" height="12"/><rect class="c" x="642" y="98" width="12" height="12"/><rect class="c c13" x="658" y="2" width="12" height="12"/><rect class="c" x="658" y="18" width="12" height="12"/><rect class="c c14" x="658" y="34" width="12" height="12"/><rect class="c" x="658" y="50" width="12" height="12"/><rect class="c" x="658" y="66" width="12" height="12"/><rect class="c c15" x="658" y="82" width="12" height="12"/><rect class="c c16" x="658" y="98" width="12" height="12"/><rect class="c c17" x="674" y="2" width="12" height="12"/><rect class="c c18" x="674" y="18" width="12" height="12"/><rect class="c" x="674" y="34" width="12" height="12"/><rect class="c c19" x="674" y="50" width="12" height="12"/><rect class="c" x="674" y="66" width="12" height="12"/><rect class="c c1a" x="674" y="82" width="12" height="12"/><rect class="c c1b" x="674" y="98" width="12" height="12"/><rect class="c" x="690" y="2" width="12" height="12"/><rect class="c c1c" x="690" y="18" width="12" height="12"/><rect class="c c1d" x="690" y="34" width="12" height="12"/><rect class="c c1e" x="690" y="50" width="12" height="12"/><rect class="c" x="690" y="66" width="12" height="12"/><rect class="c c1f" x="690" y="82" width="12" height="12"/><rect class="c" x="690" y="98" width="12" height="12"/><rect class="c c1g" x="706" y="2" width="12" height="12"/><rect class="c c1h" x="706" y="18" width="12" height="12"/><rect class="c c1i" x="706" y="34" width="12" height="12"/><rect class="c c1j" x="706" y="50" width="12" height="12"/><rect class="c" x="706" y="66" width="12" height="12"/><rect class="c" x="706" y="82" width="12" height="12"/><rect class="c" x="706" y="98" width="12" height="12"/><rect class="c c1k" x="722" y="2" width="12" height="12"/><rect class="c" x="722" y="18" width="12" height="12"/><rect class="c c1l" x="722" y="34" width="12" height="12"/><rect class="c c1m" x="722" y="50" width="12" height="12"/><rect class="c" x="722" y="66" width="12" height="12"/><rect class="c c1n" x="722" y="82" width="12" height="12"/><rect class="c" x="722" y="98" width="12" height="12"/><rect class="c c1o" x="738" y="2" width="12" height="12"/><rect class="c c1p" x="738" y="18" width="12" height="12"/><rect class="c" x="738" y="34" width="12" height="12"/><rect class="c" x="738" y="50" width="12" height="12"/><rect class="c" x="738" y="66" width="12" height="12"/><rect class="c" x="738" y="82" width="12" height="12"/><rect class="c" x="738" y="98" width="12" height="12"/><rect class="c" x="754" y="2" width="12" height="12"/><rect class="c" x="754" y="18" width="12" height="12"/><rect class="c" x="754" y="34" width="12" height="12"/><rect class="c c1q" x="754" y="50" width="12" height="12"/><rect class="c" x="754" y="66" width="12" height="12"/><rect class="c" x="754" y="82" width="12" height="12"/><rect class="c" x="754" y="98" width="12" height="12"/><rect class="c" x="770" y="2" width="12" height="12"/><rect class="c" x="770" y="18" width="12" height="12"/><rect class="c" x="770" y="34" width="12" height="12"/><rect class="c" x="770" y="50" width="12" height="12"/><rect class="c" x="770" y="66" width="12" height="12"/><rect class="c c1r" x="770" y="82" width="12" height="12"/><rect class="c" x="770" y="98" width="12" height="12"/><rect class="c" x="786" y="2" width="12" height="12"/><rect class="c c1s" x="786" y="18" width="12" height="12"/><rect class="c" x="786" y="34" width="12" height="12"/><rect class="c" x="786" y="50" width="12" height="12"/><rect class="c" x="786" y="66" width="12" height="12"/><rect class="c" x="786" y="82" width="12" height="12"/><rect class="c" x="786" y="98" width="12" height="12"/><rect class="c" x="802" y="2" width="12" height="12"/><rect class="c c1t" x="802" y="18" width="12" height="12"/><rect class="c" x="802" y="34" width="12" height="12"/><rect class="c c1u" x="802" y="50" width="12" height="12"/><rect class="c" x="802" y="66" width="12" height="12"/><rect class="c c1v" x="802" y="82" width="12" height="12"/><rect class="c" x="802" y="98" width="12" height="12"/><rect class="c" x="818" y="2" width="12" height="12"/><rect class="c" x="818" y="18" width="12" height="12"/><rect class="c" x="818" y="34" width="12" height="12"/><rect class="c c1w" x="818" y="50" width="12" height="12"/><rect class="c c1x" x="818" y="66" width="12" height="12"/><rect class="c" x="818" y="82" width="12" height="12"/><rect class="c" x="818" y="98" width="12" height="12"/><rect class="c c1y" x="834" y="2" width="12" height="12"/><rect class="c c1z" x="834" y="18" width="12" height="12"/><rect class="c c20" x="834" y="34" width="12" height="12"/><rect class="u u0" height="12" width="720.8" x="0.0" y="144"/><rect class="u u1" height="12" width="105.1" x="720.2" y="144"/><rect class="u u2" height="12" width="23.8" x="824.8" y="144"/><rect class="s s0" x="0.8" y="0.8" width="14.4" height="14.4" rx="4.5" ry="4.5"/><rect class="s s1" x="1.8" y="1.8" width="12.3" height="12.3" rx="4.1" ry="4.1"/><rect class="s s2" x="2.6" y="2.6" width="10.8" height="10.8" rx="3.6" ry="3.6"/><rect class="s s3" x="3.0" y="3.0" width="9.9" height="9.9" rx="3.3" ry="3.3"/></svg>