<svg viewBox="-16 -32 880 192" width="880" height="192" xmlns="http://www.w3.org/2000/svg"><desc>Generated with https://github.com/Platane/snk</desc><style>@keyframes c0{2.21%{fill:var(--c1)}2.23%,to{fill:var(--ce)}}@keyframes c1{57.77%{fill:var(--c2)}57.79%,to{fill:var(--ce)}}@keyframes c2{7.29%{fill:var(--c1)}7.31%,to{fill:var(--ce)}}@keyframes c3{6.66%{fill:var(--c1)}6.68%,to{fill:var(--ce)}}@keyframes c4{6.34%{fill:var(--c1)}6.36%,to{fill:var(--ce)}}@keyframes c5{53.01%{fill:var(--c2)}53.03%,to{fill:var(--ce)}}@keyframes c6{10.15%{fill:var(--c1)}10.17%,to{fill:var(--ce)}}@keyframes c7{10.47%{fill:var(--c1)}10.49%,to{fill:var(--ce)}}@keyframes c8{52.37%{fill:var(--c2)}52.39%,to{fill:var(--ce)}}@keyframes c9{9.51%{fill:var(--c1)}9.53%,to{fill:var(--ce)}}@keyframes ca{93.96%{fill:var(--c4)}93.98%,to{fill:var(--ce)}}@keyframes cb{51.74%{fill:var(--c2)}51.76%,to{fill:var(--ce)}}@keyframes cc{13.64%{fill:var(--c1)}13.66%,to{fill:var(--ce)}}@keyframes cd{50.15%{fill:var(--c2)}50.17%,to{fill:var(--ce)}}@keyframes ce{70.78%{fill:var(--c3)}70.8%,to{fill:var(--ce)}}@keyframes cf{64.12%{fill:var(--c3)}64.14%,to{fill:var(--ce)}}@keyframes cg{64.43%{fill:var(--c3)}64.45%,to{fill:var(--ce)}}@keyframes ch{91.42%{fill:var(--c4)}91.44%,to{fill:var(--ce)}}@keyframes ci{66.02%{fill:var(--c3)}66.04%,to{fill:var(--ce)}}@keyframes cj{17.45%{fill:var(--c1)}17.47%,to{fill:var(--ce)}}@keyframes ck{47.93%{fill:var(--c2)}47.95%,to{fill:var(--ce)}}@keyframes cl{17.77%{fill:var(--c1)}17.79%,to{fill:var(--ce)}}@keyframes cm{67.61%{fill:var(--c3)}67.63%,to{fill:var(--ce)}}@keyframes cn{19.67%{fill:var(--c1)}19.69%,to{fill:var(--ce)}}@keyframes co{23.8%{fill:var(--c1)}23.82%,to{fill:var(--ce)}}@keyframes cp{43.16%{fill:var(--c2)}43.18%,to{fill:var(--ce)}}@keyframes cq{22.53%{fill:var(--c1)}22.55%,to{fill:var(--ce)}}@keyframes cr{26.02%{fill:var(--c1)}26.04%,to{fill:var(--ce)}}@keyframes cs{26.34%{fill:var(--c1)}26.36%,to{fill:var(--ce)}}@keyframes ct{30.78%{fill:var(--c1)}30.8%,to{fill:var(--ce)}}@keyframes cu{31.1%{fill:var(--c1)}31.12%,to{fill:var(--ce)}}@keyframes cv{81.58%{fill:var(--c3)}81.6%,to{fill:var(--ce)}}@keyframes cw{37.45%{fill:var(--c2)}37.47%,to{fill:var(--ce)}}@keyframes cx{34.59%{fill:var(--c1)}34.61%,to{fill:var(--ce)}}@keyframes cy{34.28%{fill:var(--c1)}34.3%,to{fill:var(--ce)}}@keyframes cz{33.64%{fill:var(--c1)}33.66%,to{fill:var(--ce)}}@keyframes c10{32.69%{fill:var(--c1)}32.71%,to{fill:var(--ce)}}@keyframes c11{35.23%{fill:var(--c2)}35.25%,to{fill:var(--ce)}}@keyframes c12{34.91%{fill:var(--c1)}34.93%,to{fill:var(--ce)}}@keyframes c13{33.01%{fill:var(--c1)}33.03%,to{fill:var(--ce)}}@keyframes u0{2.21%{transform:scale(0,1)}2.23%,6.34%{transform:scale(.04,1)}6.36%,6.66%{transform:scale(.09,1)}6.68%,7.29%{transform:scale(.13,1)}7.31%,9.51%{transform:scale(.17,1)}10.15%,9.53%{transform:scale(.22,1)}10.17%,10.47%{transform:scale(.26,1)}10.49%,13.64%{transform:scale(.3,1)}13.66%,17.45%{transform:scale(.35,1)}17.47%,17.77%{transform:scale(.39,1)}17.79%,19.67%{transform:scale(.43,1)}19.69%,22.53%{transform:scale(.48,1)}22.55%,23.8%{transform:scale(.52,1)}23.82%,26.02%{transform:scale(.57,1)}26.04%,26.34%{transform:scale(.61,1)}26.36%,30.78%{transform:scale(.65,1)}30.8%,31.1%{transform:scale(.7,1)}31.12%,32.69%{transform:scale(.74,1)}32.71%,33.01%{transform:scale(.78,1)}33.03%,33.64%{transform:scale(.83,1)}33.66%,34.28%{transform:scale(.87,1)}34.3%,34.59%{transform:scale(.91,1)}34.61%,34.91%{transform:scale(.96,1)}34.93%,to{transform:scale(1,1)}}@keyframes u1{35.23%{transform:scale(0,1)}35.25%,37.45%{transform:scale(.11,1)}37.47%,43.16%{transform:scale(.22,1)}43.18%,47.93%{transform:scale(.33,1)}47.95%,50.15%{transform:scale(.44,1)}50.17%,51.74%{transform:scale(.56,1)}51.76%,52.37%{transform:scale(.67,1)}52.39%,53.01%{transform:scale(.78,1)}53.03%,57.77%{transform:scale(.89,1)}57.79%,to{transform:scale(1,1)}}@keyframes u2{64.12%{transform:scale(0,1)}64.14%,64.43%{transform:scale(.17,1)}64.45%,66.02%{transform:scale(.33,1)}66.04%,67.61%{transform:scale(.5,1)}67.63%,70.78%{transform:scale(.67,1)}70.8%,81.58%{transform:scale(.83,1)}81.6%,to{transform:scale(1,1)}}@keyframes u3{91.42%{transform:scale(0,1)}91.44%,93.96%{transform:scale(.5,1)}93.98%,to{transform:scale(1,1)}}@keyframes s0{0%,99.68%{transform:translate(0,-16px)}2.22%{transform:translate(0,96px)}5.08%{transform:translate(144px,96px)}6.98%{transform:translate(144px,0)}7.3%{transform:translate(128px,0)}7.62%,96.51%{transform:translate(128px,16px)}9.52%,93.33%{transform:translate(224px,16px)}9.84%{transform:translate(224px,32px)}10.16%{transform:translate(208px,32px)}10.48%{transform:translate(208px,48px)}10.79%{transform:translate(192px,48px)}11.11%{transform:translate(192px,32px)}12.06%{transform:translate(240px,32px)}13.02%{transform:translate(240px,80px)}13.33%{transform:translate(224px,80px)}13.65%{transform:translate(224px,96px)}14.29%,50.48%{transform:translate(256px,96px)}14.6%{transform:translate(256px,80px)}15.56%{transform:translate(304px,80px)}16.51%{transform:translate(304px,32px)}17.14%,65.4%{transform:translate(336px,32px)}17.46%,47.3%{transform:translate(336px,16px)}19.05%{transform:translate(416px,16px)}19.68%{transform:translate(416px,48px)}22.22%{transform:translate(544px,48px)}22.54%,25.08%{transform:translate(544px,32px)}22.86%{transform:translate(560px,32px)}23.49%{transform:translate(560px,0)}24.13%{transform:translate(528px,0)}24.76%{transform:translate(528px,32px)}26.35%{transform:translate(544px,96px)}30.16%{transform:translate(736px,96px)}30.79%{transform:translate(736px,64px)}31.43%,37.78%{transform:translate(768px,64px)}31.75%{transform:translate(768px,80px)}33.02%{transform:translate(832px,80px)}33.33%{transform:translate(832px,64px)}33.65%{transform:translate(816px,64px)}34.6%{transform:translate(816px,16px)}34.92%{transform:translate(832px,16px)}35.24%{transform:translate(832px,0)}35.87%{transform:translate(800px,0)}37.14%{transform:translate(800px,64px)}38.73%{transform:translate(768px,16px)}48.25%{transform:translate(336px,64px)}49.52%{transform:translate(272px,64px)}50.16%{transform:translate(272px,96px)}51.11%{transform:translate(256px,64px)}52.06%{transform:translate(208px,64px)}52.38%{transform:translate(208px,80px)}52.7%{transform:translate(192px,80px)}53.02%{transform:translate(192px,96px)}53.33%{transform:translate(176px,96px)}54.6%{transform:translate(176px,32px)}57.78%{transform:translate(16px,32px)}58.1%{transform:translate(16px,16px)}63.81%{transform:translate(304px,16px)}64.13%{transform:translate(304px,0)}64.76%{transform:translate(336px,0)}65.71%{transform:translate(320px,32px)}66.03%{transform:translate(320px,48px)}67.3%{transform:translate(384px,48px)}67.62%{transform:translate(384px,32px)}69.52%{transform:translate(288px,32px)}70.79%{transform:translate(288px,96px)}80.63%{transform:translate(784px,96px)}82.22%{transform:translate(784px,16px)}93.97%{transform:translate(224px,48px)}95.24%{transform:translate(160px,48px)}95.56%{transform:translate(160px,32px)}95.87%{transform:translate(144px,32px)}96.19%{transform:translate(144px,16px)}97.14%{transform:translate(128px,-16px)}}@keyframes s1{0%,99.68%{transform:translate(16px,-16px)}.32%{transform:translate(0,-16px)}2.54%{transform:translate(0,96px)}5.4%{transform:translate(144px,96px)}7.3%{transform:translate(144px,0)}7.62%{transform:translate(128px,0)}7.94%,96.83%{transform:translate(128px,16px)}9.84%,93.65%{transform:translate(224px,16px)}10.16%{transform:translate(224px,32px)}10.48%{transform:translate(208px,32px)}10.79%{transform:translate(208px,48px)}11.11%{transform:translate(192px,48px)}11.43%{transform:translate(192px,32px)}12.38%{transform:translate(240px,32px)}13.33%{transform:translate(240px,80px)}13.65%{transform:translate(224px,80px)}13.97%{transform:translate(224px,96px)}14.6%,50.79%{transform:translate(256px,96px)}14.92%{transform:translate(256px,80px)}15.87%{transform:translate(304px,80px)}16.83%{transform:translate(304px,32px)}17.46%,65.71%{transform:translate(336px,32px)}17.78%,47.62%{transform:translate(336px,16px)}19.37%{transform:translate(416px,16px)}20%{transform:translate(416px,48px)}22.54%{transform:translate(544px,48px)}22.86%,25.4%{transform:translate(544px,32px)}23.17%{transform:translate(560px,32px)}23.81%{transform:translate(560px,0)}24.44%{transform:translate(528px,0)}25.08%{transform:translate(528px,32px)}26.67%{transform:translate(544px,96px)}30.48%{transform:translate(736px,96px)}31.11%{transform:translate(736px,64px)}31.75%,38.1%{transform:translate(768px,64px)}32.06%{transform:translate(768px,80px)}33.33%{transform:translate(832px,80px)}33.65%{transform:translate(832px,64px)}33.97%{transform:translate(816px,64px)}34.92%{transform:translate(816px,16px)}35.24%{transform:translate(832px,16px)}35.56%{transform:translate(832px,0)}36.19%{transform:translate(800px,0)}37.46%{transform:translate(800px,64px)}39.05%{transform:translate(768px,16px)}48.57%{transform:translate(336px,64px)}49.84%{transform:translate(272px,64px)}50.48%{transform:translate(272px,96px)}51.43%{transform:translate(256px,64px)}52.38%{transform:translate(208px,64px)}52.7%{transform:translate(208px,80px)}53.02%{transform:translate(192px,80px)}53.33%{transform:translate(192px,96px)}53.65%{transform:translate(176px,96px)}54.92%{transform:translate(176px,32px)}58.1%{transform:translate(16px,32px)}58.41%{transform:translate(16px,16px)}64.13%{transform:translate(304px,16px)}64.44%{transform:translate(304px,0)}65.08%{transform:translate(336px,0)}66.03%{transform:translate(320px,32px)}66.35%{transform:translate(320px,48px)}67.62%{transform:translate(384px,48px)}67.94%{transform:translate(384px,32px)}69.84%{transform:translate(288px,32px)}71.11%{transform:translate(288px,96px)}80.95%{transform:translate(784px,96px)}82.54%{transform:translate(784px,16px)}94.29%{transform:translate(224px,48px)}95.56%{transform:translate(160px,48px)}95.87%{transform:translate(160px,32px)}96.19%{transform:translate(144px,32px)}96.51%{transform:translate(144px,16px)}97.46%{transform:translate(128px,-16px)}}@keyframes s2{0%,99.68%{transform:translate(32px,-16px)}.63%{transform:translate(0,-16px)}2.86%{transform:translate(0,96px)}5.71%{transform:translate(144px,96px)}7.62%{transform:translate(144px,0)}7.94%{transform:translate(128px,0)}8.25%,97.14%{transform:translate(128px,16px)}10.16%,93.97%{transform:translate(224px,16px)}10.48%{transform:translate(224px,32px)}10.79%{transform:translate(208px,32px)}11.11%{transform:translate(208px,48px)}11.43%{transform:translate(192px,48px)}11.75%{transform:translate(192px,32px)}12.7%{transform:translate(240px,32px)}13.65%{transform:translate(240px,80px)}13.97%{transform:translate(224px,80px)}14.29%{transform:translate(224px,96px)}14.92%,51.11%{transform:translate(256px,96px)}15.24%{transform:translate(256px,80px)}16.19%{transform:translate(304px,80px)}17.14%{transform:translate(304px,32px)}17.78%,66.03%{transform:translate(336px,32px)}18.1%,47.94%{transform:translate(336px,16px)}19.68%{transform:translate(416px,16px)}20.32%{transform:translate(416px,48px)}22.86%{transform:translate(544px,48px)}23.17%,25.71%{transform:translate(544px,32px)}23.49%{transform:translate(560px,32px)}24.13%{transform:translate(560px,0)}24.76%{transform:translate(528px,0)}25.4%{transform:translate(528px,32px)}26.98%{transform:translate(544px,96px)}30.79%{transform:translate(736px,96px)}31.43%{transform:translate(736px,64px)}32.06%,38.41%{transform:translate(768px,64px)}32.38%{transform:translate(768px,80px)}33.65%{transform:translate(832px,80px)}33.97%{transform:translate(832px,64px)}34.29%{transform:translate(816px,64px)}35.24%{transform:translate(816px,16px)}35.56%{transform:translate(832px,16px)}35.87%{transform:translate(832px,0)}36.51%{transform:translate(800px,0)}37.78%{transform:translate(800px,64px)}39.37%{transform:translate(768px,16px)}48.89%{transform:translate(336px,64px)}50.16%{transform:translate(272px,64px)}50.79%{transform:translate(272px,96px)}51.75%{transform:translate(256px,64px)}52.7%{transform:translate(208px,64px)}53.02%{transform:translate(208px,80px)}53.33%{transform:translate(192px,80px)}53.65%{transform:translate(192px,96px)}53.97%{transform:translate(176px,96px)}55.24%{transform:translate(176px,32px)}58.41%{transform:translate(16px,32px)}58.73%{transform:translate(16px,16px)}64.44%{transform:translate(304px,16px)}64.76%{transform:translate(304px,0)}65.4%{transform:translate(336px,0)}66.35%{transform:translate(320px,32px)}66.67%{transform:translate(320px,48px)}67.94%{transform:translate(384px,48px)}68.25%{transform:translate(384px,32px)}70.16%{transform:translate(288px,32px)}71.43%{transform:translate(288px,96px)}81.27%{transform:translate(784px,96px)}82.86%{transform:translate(784px,16px)}94.6%{transform:translate(224px,48px)}95.87%{transform:translate(160px,48px)}96.19%{transform:translate(160px,32px)}96.51%{transform:translate(144px,32px)}96.83%{transform:translate(144px,16px)}97.78%{transform:translate(128px,-16px)}}@keyframes s3{0%,99.68%{transform:translate(48px,-16px)}.95%{transform:translate(0,-16px)}3.17%{transform:translate(0,96px)}6.03%{transform:translate(144px,96px)}7.94%{transform:translate(144px,0)}8.25%{transform:translate(128px,0)}8.57%,97.46%{transform:translate(128px,16px)}10.48%,94.29%{transform:translate(224px,16px)}10.79%{transform:translate(224px,32px)}11.11%{transform:translate(208px,32px)}11.43%{transform:translate(208px,48px)}11.75%{transform:translate(192px,48px)}12.06%{transform:translate(192px,32px)}13.02%{transform:translate(240px,32px)}13.97%{transform:translate(240px,80px)}14.29%{transform:translate(224px,80px)}14.6%{transform:translate(224px,96px)}15.24%,51.43%{transform:translate(256px,96px)}15.56%{transform:translate(256px,80px)}16.51%{transform:translate(304px,80px)}17.46%{transform:translate(304px,32px)}18.1%,66.35%{transform:translate(336px,32px)}18.41%,48.25%{transform:translate(336px,16px)}20%{transform:translate(416px,16px)}20.63%{transform:translate(416px,48px)}23.17%{transform:translate(544px,48px)}23.49%,26.03%{transform:translate(544px,32px)}23.81%{transform:translate(560px,32px)}24.44%{transform:translate(560px,0)}25.08%{transform:translate(528px,0)}25.71%{transform:translate(528px,32px)}27.3%{transform:translate(544px,96px)}31.11%{transform:translate(736px,96px)}31.75%{transform:translate(736px,64px)}32.38%,38.73%{transform:translate(768px,64px)}32.7%{transform:translate(768px,80px)}33.97%{transform:translate(832px,80px)}34.29%{transform:translate(832px,64px)}34.6%{transform:translate(816px,64px)}35.56%{transform:translate(816px,16px)}35.87%{transform:translate(832px,16px)}36.19%{transform:translate(832px,0)}36.83%{transform:translate(800px,0)}38.1%{transform:translate(800px,64px)}39.68%{transform:translate(768px,16px)}49.21%{transform:translate(336px,64px)}50.48%{transform:translate(272px,64px)}51.11%{transform:translate(272px,96px)}52.06%{transform:translate(256px,64px)}53.02%{transform:translate(208px,64px)}53.33%{transform:translate(208px,80px)}53.65%{transform:translate(192px,80px)}53.97%{transform:translate(192px,96px)}54.29%{transform:translate(176px,96px)}55.56%{transform:translate(176px,32px)}58.73%{transform:translate(16px,32px)}59.05%{transform:translate(16px,16px)}64.76%{transform:translate(304px,16px)}65.08%{transform:translate(304px,0)}65.71%{transform:translate(336px,0)}66.67%{transform:translate(320px,32px)}66.98%{transform:translate(320px,48px)}68.25%{transform:translate(384px,48px)}68.57%{transform:translate(384px,32px)}70.48%{transform:translate(288px,32px)}71.75%{transform:translate(288px,96px)}81.59%{transform:translate(784px,96px)}83.17%{transform:translate(784px,16px)}94.92%{transform:translate(224px,48px)}96.19%{transform:translate(160px,48px)}96.51%{transform:translate(160px,32px)}96.83%{transform:translate(144px,32px)}97.14%{transform:translate(144px,16px)}98.1%{transform:translate(128px,-16px)}}:root{--cb:#1b1f230a;--cs:purple;--ce:#ebedf0;--c0:#ebedf0;--c1:#9be9a8;--c2:#40c463;--c3:#30a14e;--c4:#216e39}@media (prefers-color-scheme:dark){:root{--cb:#1b1f230a;--cs:purple;--ce:#161b22;--c1:#01311f;--c2:#034525;--c3:#0f6d31;--c4:#00c647}}.c{shape-rendering:geometricPrecision;fill:var(--ce);stroke-width:1px;stroke:var(--cb);animation:none 31500ms linear infinite}.c.c0{fill:var(--c1);animation-name:c0}.c.c1{fill:var(--c2);animation-name:c1}.c.c2,.c.c3,.c.c4{fill:var(--c1);animation-name:c2}.c.c3,.c.c4{animation-name:c3}.c.c4{animation-name:c4}.c.c5{fill:var(--c2);animation-name:c5}.c.c6,.c.c7{fill:var(--c1);animation-name:c6}.c.c7{animation-name:c7}.c.c8{fill:var(--c2);animation-name:c8}.c.c9{fill:var(--c1);animation-name:c9}.c.ca{fill:var(--c4);animation-name:ca}.c.cb{fill:var(--c2);animation-name:cb}.c.cc{fill:var(--c1);animation-name:cc}.c.cd{fill:var(--c2);animation-name:cd}.c.ce,.c.cf,.c.cg{fill:var(--c3);animation-name:ce}.c.cf,.c.cg{animation-name:cf}.c.cg{animation-name:cg}.c.ch{fill:var(--c4);animation-name:ch}.c.ci{fill:var(--c3);animation-name:ci}.c.cj{fill:var(--c1);animation-name:cj}.c.ck{fill:var(--c2);animation-name:ck}.c.cl{fill:var(--c1);animation-name:cl}.c.cm{fill:var(--c3);animation-name:cm}.c.cn,.c.co{fill:var(--c1);animation-name:cn}.c.co{animation-name:co}.c.cp{fill:var(--c2);animation-name:cp}.c.cq,.c.cr{fill:var(--c1);animation-name:cq}.c.cr{animation-name:cr}.c.cs,.c.ct,.c.cu{fill:var(--c1);animation-name:cs}.c.ct,.c.cu{animation-name:ct}.c.cu{animation-name:cu}.c.cv{fill:var(--c3);animation-name:cv}.c.cw{fill:var(--c2);animation-name:cw}.c.cx{fill:var(--c1);animation-name:cx}.c.c10,.c.cy,.c.cz{fill:var(--c1);animation-name:cy}.c.c10,.c.cz{animation-name:cz}.c.c10{animation-name:c10}.c.c11{fill:var(--c2);animation-name:c11}.c.c12,.c.c13{fill:var(--c1);animation-name:c12}.c.c13{animation-name:c13}.s,.u{animation:none linear 31500ms infinite}.u,.u.u0{transform-origin:0 0}.u{transform:scale(0,1)}.u.u0{fill:var(--c1);animation-name:u0}.u.u1{fill:var(--c2);animation-name:u1;transform-origin:487.6px 0}.u.u2{fill:var(--c3);animation-name:u2;transform-origin:678.4px 0}.u.u3{fill:var(--c4);animation-name:u3;transform-origin:805.6px 0}.s{shape-rendering:geometricPrecision;fill:var(--cs)}.s.s0{transform:translate(0,-16px);animation-name:s0}.s.s1{transform:translate(16px,-16px);animation-name:s1}.s.s2{transform:translate(32px,-16px);animation-name:s2}.s.s3{transform:translate(48px,-16px);animation-name:s3}</style><rect class="c" x="2" y="2" rx="2" ry="2" width="12" height="12"/><rect class="c" x="2" y="18" rx="2" ry="2" width="12" height="12"/><rect class="c" x="2" y="34" rx="2" ry="2" width="12" height="12"/><rect class="c" x="2" y="50" rx="2" ry="2" width="12" height="12"/><rect class="c" x="2" y="66" rx="2" ry="2" width="12" height="12"/><rect class="c" x="2" y="82" rx="2" ry="2" width="12" height="12"/><rect class="c c0" x="2" y="98" rx="2" ry="2" width="12" height="12"/><rect class="c" x="18" y="2" rx="2" ry="2" width="12" height="12"/><rect class="c" x="18" y="18" rx="2" ry="2" width="12" height="12"/><rect class="c c1" x="18" y="34" rx="2" ry="2" width="12" height="12"/><rect class="c" x="18" y="50" rx="2" ry="2" width="12" height="12"/><rect class="c" x="18" y="66" rx="2" ry="2" width="12" height="12"/><rect class="c" x="18" y="82" rx="2" ry="2" width="12" height="12"/><rect class="c" x="18" y="98" rx="2" ry="2" width="12" height="12"/><rect class="c" x="34" y="2" rx="2" ry="2" width="12" height="12"/><rect class="c" x="34" y="18" rx="2" ry="2" width="12" height="12"/><rect class="c" x="34" y="34" rx="2" ry="2" width="12" height="12"/><rect class="c" x="34" y="50" rx="2" ry="2" width="12" height="12"/><rect class="c" x="34" y="66" rx="2" ry="2" width="12" height="12"/><rect class="c" x="34" y="82" rx="2" ry="2" width="12" height="12"/><rect class="c" x="34" y="98" rx="2" ry="2" width="12" height="12"/><rect class="c" x="50" y="2" rx="2" ry="2" width="12" height="12"/><rect class="c" x="50" y="18" rx="2" ry="2" width="12" height="12"/><rect class="c" x="50" y="34" rx="2" ry="2" width="12" height="12"/><rect class="c" x="50" y="50" rx="2" ry="2" width="12" height="12"/><rect class="c" x="50" y="66" rx="2" ry="2" width="12" height="12"/><rect class="c" x="50" y="82" rx="2" ry="2" width="12" height="12"/><rect class="c" x="50" y="98" rx="2" ry="2" width="12" height="12"/><rect class="c" x="66" y="2" rx="2" ry="2" width="12" height="12"/><rect class="c" x="66" y="18" rx="2" ry="2" width="12" height="12"/><rect class="c" x="66" y="34" rx="2" ry="2" width="12" height="12"/><rect class="c" x="66" y="50" rx="2" ry="2" width="12" height="12"/><rect class="c" x="66" y="66" rx="2" ry="2" width="12" height="12"/><rect class="c" x="66" y="82" rx="2" ry="2" width="12" height="12"/><rect class="c" x="66" y="98" rx="2" ry="2" width="12" height="12"/><rect class="c" x="82" y="2" rx="2" ry="2" width="12" height="12"/><rect class="c" x="82" y="18" rx="2" ry="2" width="12" height="12"/><rect class="c" x="82" y="34" rx="2" ry="2" width="12" height="12"/><rect class="c" x="82" y="50" rx="2" ry="2" width="12" height="12"/><rect class="c" x="82" y="66" rx="2" ry="2" width="12" height="12"/><rect class="c" x="82" y="82" rx="2" ry="2" width="12" height="12"/><rect class="c" x="82" y="98" rx="2" ry="2" width="12" height="12"/><rect class="c" x="98" y="2" rx="2" ry="2" width="12" height="12"/><rect class="c" x="98" y="18" rx="2" ry="2" width="12" height="12"/><rect class="c" x="98" y="34" rx="2" ry="2" width="12" height="12"/><rect class="c" x="98" y="50" rx="2" ry="2" width="12" height="12"/><rect class="c" x="98" y="66" rx="2" ry="2" width="12" height="12"/><rect class="c" x="98" y="82" rx="2" ry="2" width="12" height="12"/><rect class="c" x="98" y="98" rx="2" ry="2" width="12" height="12"/><rect class="c" x="114" y="2" rx="2" ry="2" width="12" height="12"/><rect class="c" x="114" y="18" rx="2" ry="2" width="12" height="12"/><rect class="c" x="114" y="34" rx="2" ry="2" width="12" height="12"/><rect class="c" x="114" y="50" rx="2" ry="2" width="12" height="12"/><rect class="c" x="114" y="66" rx="2" ry="2" width="12" height="12"/><rect class="c" x="114" y="82" rx="2" ry="2" width="12" height="12"/><rect class="c" x="114" y="98" rx="2" ry="2" width="12" height="12"/><rect class="c c2" x="130" y="2" rx="2" ry="2" width="12" height="12"/><rect class="c" x="130" y="18" rx="2" ry="2" width="12" height="12"/><rect class="c" x="130" y="34" rx="2" ry="2" width="12" height="12"/><rect class="c" x="130" y="50" rx="2" ry="2" width="12" height="12"/><rect class="c" x="130" y="66" rx="2" ry="2" width="12" height="12"/><rect class="c" x="130" y="82" rx="2" ry="2" width="12" height="12"/><rect class="c" x="130" y="98" rx="2" ry="2" width="12" height="12"/><rect class="c" x="146" y="2" rx="2" ry="2" width="12" height="12"/><rect class="c c3" x="146" y="18" rx="2" ry="2" width="12" height="12"/><rect class="c c4" x="146" y="34" rx="2" ry="2" width="12" height="12"/><rect class="c" x="146" y="50" rx="2" ry="2" width="12" height="12"/><rect class="c" x="146" y="66" rx="2" ry="2" width="12" height="12"/><rect class="c" x="146" y="82" rx="2" ry="2" width="12" height="12"/><rect class="c" x="146" y="98" rx="2" ry="2" width="12" height="12"/><rect class="c" x="162" y="2" rx="2" ry="2" width="12" height="12"/><rect class="c" x="162" y="18" rx="2" ry="2" width="12" height="12"/><rect class="c" x="162" y="34" rx="2" ry="2" width="12" height="12"/><rect class="c" x="162" y="50" rx="2" ry="2" width="12" height="12"/><rect class="c" x="162" y="66" rx="2" ry="2" width="12" height="12"/><rect class="c" x="162" y="82" rx="2" ry="2" width="12" height="12"/><rect class="c" x="162" y="98" rx="2" ry="2" width="12" height="12"/><rect class="c" x="178" y="2" rx="2" ry="2" width="12" height="12"/><rect class="c" x="178" y="18" rx="2" ry="2" width="12" height="12"/><rect class="c" x="178" y="34" rx="2" ry="2" width="12" height="12"/><rect class="c" x="178" y="50" rx="2" ry="2" width="12" height="12"/><rect class="c" x="178" y="66" rx="2" ry="2" width="12" height="12"/><rect class="c" x="178" y="82" rx="2" ry="2" width="12" height="12"/><rect class="c" x="178" y="98" rx="2" ry="2" width="12" height="12"/><rect class="c" x="194" y="2" rx="2" ry="2" width="12" height="12"/><rect class="c" x="194" y="18" rx="2" ry="2" width="12" height="12"/><rect class="c" x="194" y="34" rx="2" ry="2" width="12" height="12"/><rect class="c" x="194" y="50" rx="2" ry="2" width="12" height="12"/><rect class="c" x="194" y="66" rx="2" ry="2" width="12" height="12"/><rect class="c" x="194" y="82" rx="2" ry="2" width="12" height="12"/><rect class="c c5" x="194" y="98" rx="2" ry="2" width="12" height="12"/><rect class="c" x="210" y="2" rx="2" ry="2" width="12" height="12"/><rect class="c" x="210" y="18" rx="2" ry="2" width="12" height="12"/><rect class="c c6" x="210" y="34" rx="2" ry="2" width="12" height="12"/><rect class="c c7" x="210" y="50" rx="2" ry="2" width="12" height="12"/><rect class="c" x="210" y="66" rx="2" ry="2" width="12" height="12"/><rect class="c c8" x="210" y="82" rx="2" ry="2" width="12" height="12"/><rect class="c" x="210" y="98" rx="2" ry="2" width="12" height="12"/><rect class="c" x="226" y="2" rx="2" ry="2" width="12" height="12"/><rect class="c c9" x="226" y="18" rx="2" ry="2" width="12" height="12"/><rect class="c" x="226" y="34" rx="2" ry="2" width="12" height="12"/><rect class="c ca" x="226" y="50" rx="2" ry="2" width="12" height="12"/><rect class="c cb" x="226" y="66" rx="2" ry="2" width="12" height="12"/><rect class="c" x="226" y="82" rx="2" ry="2" width="12" height="12"/><rect class="c cc" x="226" y="98" rx="2" ry="2" width="12" height="12"/><rect class="c" x="242" y="2" rx="2" ry="2" width="12" height="12"/><rect class="c" x="242" y="18" rx="2" ry="2" width="12" height="12"/><rect class="c" x="242" y="34" rx="2" ry="2" width="12" height="12"/><rect class="c" x="242" y="50" rx="2" ry="2" width="12" height="12"/><rect class="c" x="242" y="66" rx="2" ry="2" width="12" height="12"/><rect class="c" x="242" y="82" rx="2" ry="2" width="12" height="12"/><rect class="c" x="242" y="98" rx="2" ry="2" width="12" height="12"/><rect class="c" x="258" y="2" rx="2" ry="2" width="12" height="12"/><rect class="c" x="258" y="18" rx="2" ry="2" width="12" height="12"/><rect class="c" x="258" y="34" rx="2" ry="2" width="12" height="12"/><rect class="c" x="258" y="50" rx="2" ry="2" width="12" height="12"/><rect class="c" x="258" y="66" rx="2" ry="2" width="12" height="12"/><rect class="c" x="258" y="82" rx="2" ry="2" width="12" height="12"/><rect class="c" x="258" y="98" rx="2" ry="2" width="12" height="12"/><rect class="c" x="274" y="2" rx="2" ry="2" width="12" height="12"/><rect class="c" x="274" y="18" rx="2" ry="2" width="12" height="12"/><rect class="c" x="274" y="34" rx="2" ry="2" width="12" height="12"/><rect class="c" x="274" y="50" rx="2" ry="2" width="12" height="12"/><rect class="c" x="274" y="66" rx="2" ry="2" width="12" height="12"/><rect class="c" x="274" y="82" rx="2" ry="2" width="12" height="12"/><rect class="c cd" x="274" y="98" rx="2" ry="2" width="12" height="12"/><rect class="c" x="290" y="2" rx="2" ry="2" width="12" height="12"/><rect class="c" x="290" y="18" rx="2" ry="2" width="12" height="12"/><rect class="c" x="290" y="34" rx="2" ry="2" width="12" height="12"/><rect class="c" x="290" y="50" rx="2" ry="2" width="12" height="12"/><rect class="c" x="290" y="66" rx="2" ry="2" width="12" height="12"/><rect class="c" x="290" y="82" rx="2" ry="2" width="12" height="12"/><rect class="c ce" x="290" y="98" rx="2" ry="2" width="12" height="12"/><rect class="c cf" x="306" y="2" rx="2" ry="2" width="12" height="12"/><rect class="c" x="306" y="18" rx="2" ry="2" width="12" height="12"/><rect class="c" x="306" y="34" rx="2" ry="2" width="12" height="12"/><rect class="c" x="306" y="50" rx="2" ry="2" width="12" height="12"/><rect class="c" x="306" y="66" rx="2" ry="2" width="12" height="12"/><rect class="c" x="306" y="82" rx="2" ry="2" width="12" height="12"/><rect class="c" x="306" y="98" rx="2" ry="2" width="12" height="12"/><rect class="c cg" x="322" y="2" rx="2" ry="2" width="12" height="12"/><rect class="c ch" x="322" y="18" rx="2" ry="2" width="12" height="12"/><rect class="c" x="322" y="34" rx="2" ry="2" width="12" height="12"/><rect class="c ci" x="322" y="50" rx="2" ry="2" width="12" height="12"/><rect class="c" x="322" y="66" rx="2" ry="2" width="12" height="12"/><rect class="c" x="322" y="82" rx="2" ry="2" width="12" height="12"/><rect class="c" x="322" y="98" rx="2" ry="2" width="12" height="12"/><rect class="c" x="338" y="2" rx="2" ry="2" width="12" height="12"/><rect class="c cj" x="338" y="18" rx="2" ry="2" width="12" height="12"/><rect class="c" x="338" y="34" rx="2" ry="2" width="12" height="12"/><rect class="c ck" x="338" y="50" rx="2" ry="2" width="12" height="12"/><rect class="c" x="338" y="66" rx="2" ry="2" width="12" height="12"/><rect class="c" x="338" y="82" rx="2" ry="2" width="12" height="12"/><rect class="c" x="338" y="98" rx="2" ry="2" width="12" height="12"/><rect class="c" x="354" y="2" rx="2" ry="2" width="12" height="12"/><rect class="c cl" x="354" y="18" rx="2" ry="2" width="12" height="12"/><rect class="c" x="354" y="34" rx="2" ry="2" width="12" height="12"/><rect class="c" x="354" y="50" rx="2" ry="2" width="12" height="12"/><rect class="c" x="354" y="66" rx="2" ry="2" width="12" height="12"/><rect class="c" x="354" y="82" rx="2" ry="2" width="12" height="12"/><rect class="c" x="354" y="98" rx="2" ry="2" width="12" height="12"/><rect class="c" x="370" y="2" rx="2" ry="2" width="12" height="12"/><rect class="c" x="370" y="18" rx="2" ry="2" width="12" height="12"/><rect class="c" x="370" y="34" rx="2" ry="2" width="12" height="12"/><rect class="c" x="370" y="50" rx="2" ry="2" width="12" height="12"/><rect class="c" x="370" y="66" rx="2" ry="2" width="12" height="12"/><rect class="c" x="370" y="82" rx="2" ry="2" width="12" height="12"/><rect class="c" x="370" y="98" rx="2" ry="2" width="12" height="12"/><rect class="c" x="386" y="2" rx="2" ry="2" width="12" height="12"/><rect class="c" x="386" y="18" rx="2" ry="2" width="12" height="12"/><rect class="c cm" x="386" y="34" rx="2" ry="2" width="12" height="12"/><rect class="c" x="386" y="50" rx="2" ry="2" width="12" height="12"/><rect class="c" x="386" y="66" rx="2" ry="2" width="12" height="12"/><rect class="c" x="386" y="82" rx="2" ry="2" width="12" height="12"/><rect class="c" x="386" y="98" rx="2" ry="2" width="12" height="12"/><rect class="c" x="402" y="2" rx="2" ry="2" width="12" height="12"/><rect class="c" x="402" y="18" rx="2" ry="2" width="12" height="12"/><rect class="c" x="402" y="34" rx="2" ry="2" width="12" height="12"/><rect class="c" x="402" y="50" rx="2" ry="2" width="12" height="12"/><rect class="c" x="402" y="66" rx="2" ry="2" width="12" height="12"/><rect class="c" x="402" y="82" rx="2" ry="2" width="12" height="12"/><rect class="c" x="402" y="98" rx="2" ry="2" width="12" height="12"/><rect class="c" x="418" y="2" rx="2" ry="2" width="12" height="12"/><rect class="c" x="418" y="18" rx="2" ry="2" width="12" height="12"/><rect class="c" x="418" y="34" rx="2" ry="2" width="12" height="12"/><rect class="c cn" x="418" y="50" rx="2" ry="2" width="12" height="12"/><rect class="c" x="418" y="66" rx="2" ry="2" width="12" height="12"/><rect class="c" x="418" y="82" rx="2" ry="2" width="12" height="12"/><rect class="c" x="418" y="98" rx="2" ry="2" width="12" height="12"/><rect class="c" x="434" y="2" rx="2" ry="2" width="12" height="12"/><rect class="c" x="434" y="18" rx="2" ry="2" width="12" height="12"/><rect class="c" x="434" y="34" rx="2" ry="2" width="12" height="12"/><rect class="c" x="434" y="50" rx="2" ry="2" width="12" height="12"/><rect class="c" x="434" y="66" rx="2" ry="2" width="12" height="12"/><rect class="c" x="434" y="82" rx="2" ry="2" width="12" height="12"/><rect class="c" x="434" y="98" rx="2" ry="2" width="12" height="12"/><rect class="c" x="450" y="2" rx="2" ry="2" width="12" height="12"/><rect class="c" x="450" y="18" rx="2" ry="2" width="12" height="12"/><rect class="c" x="450" y="34" rx="2" ry="2" width="12" height="12"/><rect class="c" x="450" y="50" rx="2" ry="2" width="12" height="12"/><rect class="c" x="450" y="66" rx="2" ry="2" width="12" height="12"/><rect class="c" x="450" y="82" rx="2" ry="2" width="12" height="12"/><rect class="c" x="450" y="98" rx="2" ry="2" width="12" height="12"/><rect class="c" x="466" y="2" rx="2" ry="2" width="12" height="12"/><rect class="c" x="466" y="18" rx="2" ry="2" width="12" height="12"/><rect class="c" x="466" y="34" rx="2" ry="2" width="12" height="12"/><rect class="c" x="466" y="50" rx="2" ry="2" width="12" height="12"/><rect class="c" x="466" y="66" rx="2" ry="2" width="12" height="12"/><rect class="c" x="466" y="82" rx="2" ry="2" width="12" height="12"/><rect class="c" x="466" y="98" rx="2" ry="2" width="12" height="12"/><rect class="c" x="482" y="2" rx="2" ry="2" width="12" height="12"/><rect class="c" x="482" y="18" rx="2" ry="2" width="12" height="12"/><rect class="c" x="482" y="34" rx="2" ry="2" width="12" height="12"/><rect class="c" x="482" y="50" rx="2" ry="2" width="12" height="12"/><rect class="c" x="482" y="66" rx="2" ry="2" width="12" height="12"/><rect class="c" x="482" y="82" rx="2" ry="2" width="12" height="12"/><rect class="c" x="482" y="98" rx="2" ry="2" width="12" height="12"/><rect class="c" x="498" y="2" rx="2" ry="2" width="12" height="12"/><rect class="c" x="498" y="18" rx="2" ry="2" width="12" height="12"/><rect class="c" x="498" y="34" rx="2" ry="2" width="12" height="12"/><rect class="c" x="498" y="50" rx="2" ry="2" width="12" height="12"/><rect class="c" x="498" y="66" rx="2" ry="2" width="12" height="12"/><rect class="c" x="498" y="82" rx="2" ry="2" width="12" height="12"/><rect class="c" x="498" y="98" rx="2" ry="2" width="12" height="12"/><rect class="c" x="514" y="2" rx="2" ry="2" width="12" height="12"/><rect class="c" x="514" y="18" rx="2" ry="2" width="12" height="12"/><rect class="c" x="514" y="34" rx="2" ry="2" width="12" height="12"/><rect class="c" x="514" y="50" rx="2" ry="2" width="12" height="12"/><rect class="c" x="514" y="66" rx="2" ry="2" width="12" height="12"/><rect class="c" x="514" y="82" rx="2" ry="2" width="12" height="12"/><rect class="c" x="514" y="98" rx="2" ry="2" width="12" height="12"/><rect class="c" x="530" y="2" rx="2" ry="2" width="12" height="12"/><rect class="c" x="530" y="18" rx="2" ry="2" width="12" height="12"/><rect class="c" x="530" y="34" rx="2" ry="2" width="12" height="12"/><rect class="c" x="530" y="50" rx="2" ry="2" width="12" height="12"/><rect class="c" x="530" y="66" rx="2" ry="2" width="12" height="12"/><rect class="c" x="530" y="82" rx="2" ry="2" width="12" height="12"/><rect class="c" x="530" y="98" rx="2" ry="2" width="12" height="12"/><rect class="c co" x="546" y="2" rx="2" ry="2" width="12" height="12"/><rect class="c cp" x="546" y="18" rx="2" ry="2" width="12" height="12"/><rect class="c cq" x="546" y="34" rx="2" ry="2" width="12" height="12"/><rect class="c" x="546" y="50" rx="2" ry="2" width="12" height="12"/><rect class="c" x="546" y="66" rx="2" ry="2" width="12" height="12"/><rect class="c cr" x="546" y="82" rx="2" ry="2" width="12" height="12"/><rect class="c cs" x="546" y="98" rx="2" ry="2" width="12" height="12"/><rect class="c" x="562" y="2" rx="2" ry="2" width="12" height="12"/><rect class="c" x="562" y="18" rx="2" ry="2" width="12" height="12"/><rect class="c" x="562" y="34" rx="2" ry="2" width="12" height="12"/><rect class="c" x="562" y="50" rx="2" ry="2" width="12" height="12"/><rect class="c" x="562" y="66" rx="2" ry="2" width="12" height="12"/><rect class="c" x="562" y="82" rx="2" ry="2" width="12" height="12"/><rect class="c" x="562" y="98" rx="2" ry="2" width="12" height="12"/><rect class="c" x="578" y="2" rx="2" ry="2" width="12" height="12"/><rect class="c" x="578" y="18" rx="2" ry="2" width="12" height="12"/><rect class="c" x="578" y="34" rx="2" ry="2" width="12" height="12"/><rect class="c" x="578" y="50" rx="2" ry="2" width="12" height="12"/><rect class="c" x="578" y="66" rx="2" ry="2" width="12" height="12"/><rect class="c" x="578" y="82" rx="2" ry="2" width="12" height="12"/><rect class="c" x="578" y="98" rx="2" ry="2" width="12" height="12"/><rect class="c" x="594" y="2" rx="2" ry="2" width="12" height="12"/><rect class="c" x="594" y="18" rx="2" ry="2" width="12" height="12"/><rect class="c" x="594" y="34" rx="2" ry="2" width="12" height="12"/><rect class="c" x="594" y="50" rx="2" ry="2" width="12" height="12"/><rect class="c" x="594" y="66" rx="2" ry="2" width="12" height="12"/><rect class="c" x="594" y="82" rx="2" ry="2" width="12" height="12"/><rect class="c" x="594" y="98" rx="2" ry="2" width="12" height="12"/><rect class="c" x="610" y="2" rx="2" ry="2" width="12" height="12"/><rect class="c" x="610" y="18" rx="2" ry="2" width="12" height="12"/><rect class="c" x="610" y="34" rx="2" ry="2" width="12" height="12"/><rect class="c" x="610" y="50" rx="2" ry="2" width="12" height="12"/><rect class="c" x="610" y="66" rx="2" ry="2" width="12" height="12"/><rect class="c" x="610" y="82" rx="2" ry="2" width="12" height="12"/><rect class="c" x="610" y="98" rx="2" ry="2" width="12" height="12"/><rect class="c" x="626" y="2" rx="2" ry="2" width="12" height="12"/><rect class="c" x="626" y="18" rx="2" ry="2" width="12" height="12"/><rect class="c" x="626" y="34" rx="2" ry="2" width="12" height="12"/><rect class="c" x="626" y="50" rx="2" ry="2" width="12" height="12"/><rect class="c" x="626" y="66" rx="2" ry="2" width="12" height="12"/><rect class="c" x="626" y="82" rx="2" ry="2" width="12" height="12"/><rect class="c" x="626" y="98" rx="2" ry="2" width="12" height="12"/><rect class="c" x="642" y="2" rx="2" ry="2" width="12" height="12"/><rect class="c" x="642" y="18" rx="2" ry="2" width="12" height="12"/><rect class="c" x="642" y="34" rx="2" ry="2" width="12" height="12"/><rect class="c" x="642" y="50" rx="2" ry="2" width="12" height="12"/><rect class="c" x="642" y="66" rx="2" ry="2" width="12" height="12"/><rect class="c" x="642" y="82" rx="2" ry="2" width="12" height="12"/><rect class="c" x="642" y="98" rx="2" ry="2" width="12" height="12"/><rect class="c" x="658" y="2" rx="2" ry="2" width="12" height="12"/><rect class="c" x="658" y="18" rx="2" ry="2" width="12" height="12"/><rect class="c" x="658" y="34" rx="2" ry="2" width="12" height="12"/><rect class="c" x="658" y="50" rx="2" ry="2" width="12" height="12"/><rect class="c" x="658" y="66" rx="2" ry="2" width="12" height="12"/><rect class="c" x="658" y="82" rx="2" ry="2" width="12" height="12"/><rect class="c" x="658" y="98" rx="2" ry="2" width="12" height="12"/><rect class="c" x="674" y="2" rx="2" ry="2" width="12" height="12"/><rect class="c" x="674" y="18" rx="2" ry="2" width="12" height="12"/><rect class="c" x="674" y="34" rx="2" ry="2" width="12" height="12"/><rect class="c" x="674" y="50" rx="2" ry="2" width="12" height="12"/><rect class="c" x="674" y="66" rx="2" ry="2" width="12" height="12"/><rect class="c" x="674" y="82" rx="2" ry="2" width="12" height="12"/><rect class="c" x="674" y="98" rx="2" ry="2" width="12" height="12"/><rect class="c" x="690" y="2" rx="2" ry="2" width="12" height="12"/><rect class="c" x="690" y="18" rx="2" ry="2" width="12" height="12"/><rect class="c" x="690" y="34" rx="2" ry="2" width="12" height="12"/><rect class="c" x="690" y="50" rx="2" ry="2" width="12" height="12"/><rect class="c" x="690" y="66" rx="2" ry="2" width="12" height="12"/><rect class="c" x="690" y="82" rx="2" ry="2" width="12" height="12"/><rect class="c" x="690" y="98" rx="2" ry="2" width="12" height="12"/><rect class="c" x="706" y="2" rx="2" ry="2" width="12" height="12"/><rect class="c" x="706" y="18" rx="2" ry="2" width="12" height="12"/><rect class="c" x="706" y="34" rx="2" ry="2" width="12" height="12"/><rect class="c" x="706" y="50" rx="2" ry="2" width="12" height="12"/><rect class="c" x="706" y="66" rx="2" ry="2" width="12" height="12"/><rect class="c" x="706" y="82" rx="2" ry="2" width="12" height="12"/><rect class="c" x="706" y="98" rx="2" ry="2" width="12" height="12"/><rect class="c" x="722" y="2" rx="2" ry="2" width="12" height="12"/><rect class="c" x="722" y="18" rx="2" ry="2" width="12" height="12"/><rect class="c" x="722" y="34" rx="2" ry="2" width="12" height="12"/><rect class="c" x="722" y="50" rx="2" ry="2" width="12" height="12"/><rect class="c" x="722" y="66" rx="2" ry="2" width="12" height="12"/><rect class="c" x="722" y="82" rx="2" ry="2" width="12" height="12"/><rect class="c" x="722" y="98" rx="2" ry="2" width="12" height="12"/><rect class="c" x="738" y="2" rx="2" ry="2" width="12" height="12"/><rect class="c" x="738" y="18" rx="2" ry="2" width="12" height="12"/><rect class="c" x="738" y="34" rx="2" ry="2" width="12" height="12"/><rect class="c" x="738" y="50" rx="2" ry="2" width="12" height="12"/><rect class="c ct" x="738" y="66" rx="2" ry="2" width="12" height="12"/><rect class="c" x="738" y="82" rx="2" ry="2" width="12" height="12"/><rect class="c" x="738" y="98" rx="2" ry="2" width="12" height="12"/><rect class="c" x="754" y="2" rx="2" ry="2" width="12" height="12"/><rect class="c" x="754" y="18" rx="2" ry="2" width="12" height="12"/><rect class="c" x="754" y="34" rx="2" ry="2" width="12" height="12"/><rect class="c" x="754" y="50" rx="2" ry="2" width="12" height="12"/><rect class="c cu" x="754" y="66" rx="2" ry="2" width="12" height="12"/><rect class="c" x="754" y="82" rx="2" ry="2" width="12" height="12"/><rect class="c" x="754" y="98" rx="2" ry="2" width="12" height="12"/><rect class="c" x="770" y="2" rx="2" ry="2" width="12" height="12"/><rect class="c" x="770" y="18" rx="2" ry="2" width="12" height="12"/><rect class="c" x="770" y="34" rx="2" ry="2" width="12" height="12"/><rect class="c" x="770" y="50" rx="2" ry="2" width="12" height="12"/><rect class="c" x="770" y="66" rx="2" ry="2" width="12" height="12"/><rect class="c" x="770" y="82" rx="2" ry="2" width="12" height="12"/><rect class="c" x="770" y="98" rx="2" ry="2" width="12" height="12"/><rect class="c" x="786" y="2" rx="2" ry="2" width="12" height="12"/><rect class="c" x="786" y="18" rx="2" ry="2" width="12" height="12"/><rect class="c" x="786" y="34" rx="2" ry="2" width="12" height="12"/><rect class="c cv" x="786" y="50" rx="2" ry="2" width="12" height="12"/><rect class="c cw" x="786" y="66" rx="2" ry="2" width="12" height="12"/><rect class="c" x="786" y="82" rx="2" ry="2" width="12" height="12"/><rect class="c" x="786" y="98" rx="2" ry="2" width="12" height="12"/><rect class="c" x="802" y="2" rx="2" ry="2" width="12" height="12"/><rect class="c" x="802" y="18" rx="2" ry="2" width="12" height="12"/><rect class="c" x="802" y="34" rx="2" ry="2" width="12" height="12"/><rect class="c" x="802" y="50" rx="2" ry="2" width="12" height="12"/><rect class="c" x="802" y="66" rx="2" ry="2" width="12" height="12"/><rect class="c" x="802" y="82" rx="2" ry="2" width="12" height="12"/><rect class="c" x="802" y="98" rx="2" ry="2" width="12" height="12"/><rect class="c" x="818" y="2" rx="2" ry="2" width="12" height="12"/><rect class="c cx" x="818" y="18" rx="2" ry="2" width="12" height="12"/><rect class="c cy" x="818" y="34" rx="2" ry="2" width="12" height="12"/><rect class="c" x="818" y="50" rx="2" ry="2" width="12" height="12"/><rect class="c cz" x="818" y="66" rx="2" ry="2" width="12" height="12"/><rect class="c c10" x="818" y="82" rx="2" ry="2" width="12" height="12"/><rect class="c" x="818" y="98" rx="2" ry="2" width="12" height="12"/><rect class="c c11" x="834" y="2" rx="2" ry="2" width="12" height="12"/><rect class="c c12" x="834" y="18" rx="2" ry="2" width="12" height="12"/><rect class="c" x="834" y="34" rx="2" ry="2" width="12" height="12"/><rect class="c" x="834" y="50" rx="2" ry="2" width="12" height="12"/><rect class="c" x="834" y="66" rx="2" ry="2" width="12" height="12"/><rect class="c c13" x="834" y="82" rx="2" ry="2" width="12" height="12"/><rect class="u u0" height="12" width="488.2" x="0.0" y="144"/><rect class="u u1" height="12" width="191.4" x="487.6" y="144"/><rect class="u u2" height="12" width="127.8" x="678.4" y="144"/><rect class="u u3" height="12" width="43.0" x="805.6" y="144"/><rect class="s s0" x="0.8" y="0.8" width="14.4" height="14.4" rx="4.5" ry="4.5"/><rect class="s s1" x="1.8" y="1.8" width="12.3" height="12.3" rx="4.1" ry="4.1"/><rect class="s s2" x="2.6" y="2.6" width="10.8" height="10.8" rx="3.6" ry="3.6"/><rect class="s s3" x="3.0" y="3.0" width="9.9" height="9.9" rx="3.3" ry="3.3"/></svg>