<svg viewBox="-16 -32 880 192" width="880" height="192" xmlns="http://www.w3.org/2000/svg"><desc>Generated with https://github.com/Platane/snk</desc><style>@keyframes c0{.82%{fill:var(--c1)}.84%,to{fill:var(--ce)}}@keyframes c1{1.1%{fill:var(--c1)}1.12%,to{fill:var(--ce)}}@keyframes c2{3.04%{fill:var(--c1)}3.06%,to{fill:var(--ce)}}@keyframes c3{72.84%{fill:var(--c2)}72.86%,to{fill:var(--ce)}}@keyframes c4{1.93%{fill:var(--c1)}1.95%,to{fill:var(--ce)}}@keyframes c5{5.53%{fill:var(--c1)}5.55%,to{fill:var(--ce)}}@keyframes c6{10.52%{fill:var(--c1)}10.54%,to{fill:var(--ce)}}@keyframes c7{7.75%{fill:var(--c1)}7.77%,to{fill:var(--ce)}}@keyframes c8{11.9%{fill:var(--c1)}11.92%,to{fill:var(--ce)}}@keyframes c9{12.18%{fill:var(--c1)}12.2%,to{fill:var(--ce)}}@keyframes ca{13.29%{fill:var(--c1)}13.31%,to{fill:var(--ce)}}@keyframes cb{68.97%{fill:var(--c2)}68.99%,to{fill:var(--ce)}}@keyframes cc{9.96%{fill:var(--c1)}9.98%,to{fill:var(--ce)}}@keyframes cd{8.02%{fill:var(--c1)}8.04%,to{fill:var(--ce)}}@keyframes ce{12.46%{fill:var(--c1)}12.48%,to{fill:var(--ce)}}@keyframes cf{12.73%{fill:var(--c1)}12.75%,to{fill:var(--ce)}}@keyframes cg{13.01%{fill:var(--c1)}13.03%,to{fill:var(--ce)}}@keyframes ch{9.41%{fill:var(--c1)}9.43%,to{fill:var(--ce)}}@keyframes ci{8.3%{fill:var(--c1)}8.32%,to{fill:var(--ce)}}@keyframes cj{8.85%{fill:var(--c1)}8.87%,to{fill:var(--ce)}}@keyframes ck{14.67%{fill:var(--c1)}14.69%,to{fill:var(--ce)}}@keyframes cl{14.39%{fill:var(--c1)}14.41%,to{fill:var(--ce)}}@keyframes cm{34.62%{fill:var(--c1)}34.64%,to{fill:var(--ce)}}@keyframes cn{68.13%{fill:var(--c2)}68.15%,to{fill:var(--ce)}}@keyframes co{67.86%{fill:var(--c2)}67.88%,to{fill:var(--ce)}}@keyframes cp{17.44%{fill:var(--c1)}17.46%,to{fill:var(--ce)}}@keyframes cq{67.03%{fill:var(--c2)}67.05%,to{fill:var(--ce)}}@keyframes cr{15.23%{fill:var(--c1)}15.25%,to{fill:var(--ce)}}@keyframes cs{16.89%{fill:var(--c1)}16.91%,to{fill:var(--ce)}}@keyframes ct{18.83%{fill:var(--c1)}18.85%,to{fill:var(--ce)}}@keyframes cu{16.33%{fill:var(--c1)}16.35%,to{fill:var(--ce)}}@keyframes cv{16.06%{fill:var(--c1)}16.08%,to{fill:var(--ce)}}@keyframes cw{19.1%{fill:var(--c1)}19.12%,to{fill:var(--ce)}}@keyframes cx{21.32%{fill:var(--c1)}21.34%,to{fill:var(--ce)}}@keyframes cy{65.36%{fill:var(--c2)}65.38%,to{fill:var(--ce)}}@keyframes cz{19.93%{fill:var(--c1)}19.95%,to{fill:var(--ce)}}@keyframes c10{20.21%{fill:var(--c1)}20.23%,to{fill:var(--ce)}}@keyframes c11{30.46%{fill:var(--c1)}30.48%,to{fill:var(--ce)}}@keyframes c12{23.26%{fill:var(--c1)}23.28%,to{fill:var(--ce)}}@keyframes c13{63.15%{fill:var(--c2)}63.17%,to{fill:var(--ce)}}@keyframes c14{24.37%{fill:var(--c1)}24.39%,to{fill:var(--ce)}}@keyframes c15{23.54%{fill:var(--c1)}23.56%,to{fill:var(--ce)}}@keyframes c16{24.92%{fill:var(--c1)}24.94%,to{fill:var(--ce)}}@keyframes c17{29.08%{fill:var(--c1)}29.1%,to{fill:var(--ce)}}@keyframes c18{24.09%{fill:var(--c1)}24.11%,to{fill:var(--ce)}}@keyframes c19{23.81%{fill:var(--c1)}23.83%,to{fill:var(--ce)}}@keyframes c1a{25.2%{fill:var(--c1)}25.22%,to{fill:var(--ce)}}@keyframes c1b{60.38%{fill:var(--c2)}60.4%,to{fill:var(--ce)}}@keyframes c1c{60.65%{fill:var(--c2)}60.67%,to{fill:var(--ce)}}@keyframes c1d{62.32%{fill:var(--c2)}62.34%,to{fill:var(--ce)}}@keyframes c1e{26.31%{fill:var(--c1)}26.33%,to{fill:var(--ce)}}@keyframes c1f{27.69%{fill:var(--c1)}27.71%,to{fill:var(--ce)}}@keyframes c1g{43.48%{fill:var(--c1)}43.5%,to{fill:var(--ce)}}@keyframes c1h{42.93%{fill:var(--c1)}42.95%,to{fill:var(--ce)}}@keyframes c1i{42.65%{fill:var(--c1)}42.67%,to{fill:var(--ce)}}@keyframes c1j{47.91%{fill:var(--c1)}47.93%,to{fill:var(--ce)}}@keyframes c1k{45.97%{fill:var(--c1)}45.99%,to{fill:var(--ce)}}@keyframes c1l{46.25%{fill:var(--c1)}46.27%,to{fill:var(--ce)}}@keyframes c1m{56.22%{fill:var(--c2)}56.24%,to{fill:var(--ce)}}@keyframes c1n{45.42%{fill:var(--c1)}45.44%,to{fill:var(--ce)}}@keyframes c1o{85.86%{fill:var(--c4)}85.88%,to{fill:var(--ce)}}@keyframes c1p{46.8%{fill:var(--c1)}46.82%,to{fill:var(--ce)}}@keyframes c1q{47.36%{fill:var(--c1)}47.38%,to{fill:var(--ce)}}@keyframes c1r{49.85%{fill:var(--c1)}49.87%,to{fill:var(--ce)}}@keyframes c1s{54.56%{fill:var(--c2)}54.58%,to{fill:var(--ce)}}@keyframes c1t{52.07%{fill:var(--c1)}52.09%,to{fill:var(--ce)}}@keyframes c1u{52.34%{fill:var(--c1)}52.36%,to{fill:var(--ce)}}@keyframes u0{.82%{transform:scale(0,1)}.84%,1.1%{transform:scale(.02,1)}1.12%,1.93%{transform:scale(.04,1)}1.95%,3.04%{transform:scale(.06,1)}3.06%,5.53%{transform:scale(.07,1)}5.55%,7.75%{transform:scale(.09,1)}7.77%,8.02%{transform:scale(.11,1)}8.04%,8.3%{transform:scale(.13,1)}8.32%,8.85%{transform:scale(.15,1)}8.87%,9.41%{transform:scale(.17,1)}9.43%,9.96%{transform:scale(.19,1)}10.52%,9.98%{transform:scale(.2,1)}10.54%,11.9%{transform:scale(.22,1)}11.92%,12.18%{transform:scale(.24,1)}12.2%,12.46%{transform:scale(.26,1)}12.48%,12.73%{transform:scale(.28,1)}12.75%,13.01%{transform:scale(.3,1)}13.03%,13.29%{transform:scale(.31,1)}13.31%,14.39%{transform:scale(.33,1)}14.41%,14.67%{transform:scale(.35,1)}14.69%,15.23%{transform:scale(.37,1)}15.25%,16.06%{transform:scale(.39,1)}16.08%,16.33%{transform:scale(.41,1)}16.35%,16.89%{transform:scale(.43,1)}16.91%,17.44%{transform:scale(.44,1)}17.46%,18.83%{transform:scale(.46,1)}18.85%,19.1%{transform:scale(.48,1)}19.12%,19.93%{transform:scale(.5,1)}19.95%,20.21%{transform:scale(.52,1)}20.23%,21.32%{transform:scale(.54,1)}21.34%,23.26%{transform:scale(.56,1)}23.28%,23.54%{transform:scale(.57,1)}23.56%,23.81%{transform:scale(.59,1)}23.83%,24.09%{transform:scale(.61,1)}24.11%,24.37%{transform:scale(.63,1)}24.39%,24.92%{transform:scale(.65,1)}24.94%,25.2%{transform:scale(.67,1)}25.22%,26.31%{transform:scale(.69,1)}26.33%,27.69%{transform:scale(.7,1)}27.71%,29.08%{transform:scale(.72,1)}29.1%,30.46%{transform:scale(.74,1)}30.48%,34.62%{transform:scale(.76,1)}34.64%,42.65%{transform:scale(.78,1)}42.67%,42.93%{transform:scale(.8,1)}42.95%,43.48%{transform:scale(.81,1)}43.5%,45.42%{transform:scale(.83,1)}45.44%,45.97%{transform:scale(.85,1)}45.99%,46.25%{transform:scale(.87,1)}46.27%,46.8%{transform:scale(.89,1)}46.82%,47.36%{transform:scale(.91,1)}47.38%,47.91%{transform:scale(.93,1)}47.93%,49.85%{transform:scale(.94,1)}49.87%,52.07%{transform:scale(.96,1)}52.09%,52.34%{transform:scale(.98,1)}52.36%,to{transform:scale(1,1)}}@keyframes u1{54.56%{transform:scale(0,1)}54.58%,56.22%{transform:scale(.08,1)}56.24%,60.38%{transform:scale(.17,1)}60.4%,60.65%{transform:scale(.25,1)}60.67%,62.32%{transform:scale(.33,1)}62.34%,63.15%{transform:scale(.42,1)}63.17%,65.36%{transform:scale(.5,1)}65.38%,67.03%{transform:scale(.58,1)}67.05%,67.86%{transform:scale(.67,1)}67.88%,68.13%{transform:scale(.75,1)}68.15%,68.97%{transform:scale(.83,1)}68.99%,72.84%{transform:scale(.92,1)}72.86%,to{transform:scale(1,1)}}@keyframes u2{85.86%{transform:scale(0,1)}85.88%,to{transform:scale(1,1)}}@keyframes s0{0%,99.72%{transform:translate(0,-16px)}1.11%{transform:translate(0,48px)}1.66%{transform:translate(32px,48px)}1.94%{transform:translate(32px,64px)}2.49%{transform:translate(0,64px)}3.05%{transform:translate(0,96px)}4.43%{transform:translate(80px,96px)}5.54%{transform:translate(80px,32px)}33.52%,8.59%{transform:translate(256px,32px)}9.14%{transform:translate(256px,0)}9.42%{transform:translate(240px,0)}9.7%{transform:translate(240px,16px)}10.25%,11.36%{transform:translate(208px,16px)}10.53%{transform:translate(208px,0)}10.8%{transform:translate(192px,0)}11.08%{transform:translate(192px,16px)}12.19%{transform:translate(208px,64px)}12.47%{transform:translate(224px,64px)}13.02%{transform:translate(224px,96px)}13.3%{transform:translate(208px,96px)}13.57%{transform:translate(208px,80px)}14.4%{transform:translate(256px,80px)}14.68%{transform:translate(256px,64px)}15.79%{transform:translate(320px,64px)}16.62%{transform:translate(320px,16px)}17.17%,32.69%{transform:translate(288px,16px)}17.45%,32.96%,66.76%{transform:translate(288px,32px)}17.73%{transform:translate(304px,32px)}18.84%{transform:translate(304px,96px)}20.22%{transform:translate(384px,96px)}20.78%{transform:translate(384px,64px)}21.33%{transform:translate(352px,64px)}21.61%{transform:translate(352px,48px)}23.82%{transform:translate(480px,48px)}24.1%{transform:translate(480px,32px)}24.38%{transform:translate(464px,32px)}24.93%,38.78%{transform:translate(464px,64px)}25.76%{transform:translate(512px,64px)}26.32%{transform:translate(512px,96px)}26.59%{transform:translate(528px,96px)}28.25%{transform:translate(528px,0)}29.09%{transform:translate(480px,0)}29.36%{transform:translate(480px,16px)}34.63%{transform:translate(256px,96px)}38.23%{transform:translate(464px,96px)}42.11%{transform:translate(656px,64px)}43.21%{transform:translate(656px,0)}43.49%{transform:translate(640px,0)}43.77%{transform:translate(640px,16px)}45.43%,85.32%{transform:translate(736px,16px)}45.71%{transform:translate(736px,32px)}45.98%{transform:translate(720px,32px)}46.54%{transform:translate(720px,64px)}46.81%{transform:translate(736px,64px)}47.37%{transform:translate(736px,96px)}47.92%{transform:translate(704px,96px)}48.2%{transform:translate(704px,112px)}49.58%{transform:translate(784px,112px)}50.14%,55.12%{transform:translate(784px,80px)}50.69%{transform:translate(816px,80px)}52.08%{transform:translate(816px,0)}52.35%{transform:translate(832px,0)}52.63%{transform:translate(832px,16px)}53.19%{transform:translate(800px,16px)}54.57%{transform:translate(800px,96px)}54.85%{transform:translate(784px,96px)}60.39%{transform:translate(480px,80px)}60.66%{transform:translate(480px,96px)}60.94%{transform:translate(496px,96px)}62.6%{transform:translate(496px,0)}64.82%{transform:translate(368px,0)}65.37%{transform:translate(368px,32px)}67.04%{transform:translate(288px,48px)}67.31%{transform:translate(272px,48px)}68.14%{transform:translate(272px,0)}72.58%{transform:translate(16px,0)}72.85%{transform:translate(16px,16px)}85.87%{transform:translate(736px,48px)}96.4%{transform:translate(128px,48px)}97.23%{transform:translate(128px,0)}98.61%{transform:translate(48px,0)}98.89%{transform:translate(48px,-16px)}}@keyframes s1{0%,99.72%{transform:translate(16px,-16px)}.28%{transform:translate(0,-16px)}1.39%{transform:translate(0,48px)}1.94%{transform:translate(32px,48px)}2.22%{transform:translate(32px,64px)}2.77%{transform:translate(0,64px)}3.32%{transform:translate(0,96px)}4.71%{transform:translate(80px,96px)}5.82%{transform:translate(80px,32px)}33.8%,8.86%{transform:translate(256px,32px)}9.42%{transform:translate(256px,0)}9.7%{transform:translate(240px,0)}9.97%{transform:translate(240px,16px)}10.53%,11.63%{transform:translate(208px,16px)}10.8%{transform:translate(208px,0)}11.08%{transform:translate(192px,0)}11.36%{transform:translate(192px,16px)}12.47%{transform:translate(208px,64px)}12.74%{transform:translate(224px,64px)}13.3%{transform:translate(224px,96px)}13.57%{transform:translate(208px,96px)}13.85%{transform:translate(208px,80px)}14.68%{transform:translate(256px,80px)}14.96%{transform:translate(256px,64px)}16.07%{transform:translate(320px,64px)}16.9%{transform:translate(320px,16px)}17.45%,32.96%{transform:translate(288px,16px)}17.73%,33.24%,67.04%{transform:translate(288px,32px)}18.01%{transform:translate(304px,32px)}19.11%{transform:translate(304px,96px)}20.5%{transform:translate(384px,96px)}21.05%{transform:translate(384px,64px)}21.61%{transform:translate(352px,64px)}21.88%{transform:translate(352px,48px)}24.1%{transform:translate(480px,48px)}24.38%{transform:translate(480px,32px)}24.65%{transform:translate(464px,32px)}25.21%,39.06%{transform:translate(464px,64px)}26.04%{transform:translate(512px,64px)}26.59%{transform:translate(512px,96px)}26.87%{transform:translate(528px,96px)}28.53%{transform:translate(528px,0)}29.36%{transform:translate(480px,0)}29.64%{transform:translate(480px,16px)}34.9%{transform:translate(256px,96px)}38.5%{transform:translate(464px,96px)}42.38%{transform:translate(656px,64px)}43.49%{transform:translate(656px,0)}43.77%{transform:translate(640px,0)}44.04%{transform:translate(640px,16px)}45.71%,85.6%{transform:translate(736px,16px)}45.98%{transform:translate(736px,32px)}46.26%{transform:translate(720px,32px)}46.81%{transform:translate(720px,64px)}47.09%{transform:translate(736px,64px)}47.65%{transform:translate(736px,96px)}48.2%{transform:translate(704px,96px)}48.48%{transform:translate(704px,112px)}49.86%{transform:translate(784px,112px)}50.42%,55.4%{transform:translate(784px,80px)}50.97%{transform:translate(816px,80px)}52.35%{transform:translate(816px,0)}52.63%{transform:translate(832px,0)}52.91%{transform:translate(832px,16px)}53.46%{transform:translate(800px,16px)}54.85%{transform:translate(800px,96px)}55.12%{transform:translate(784px,96px)}60.66%{transform:translate(480px,80px)}60.94%{transform:translate(480px,96px)}61.22%{transform:translate(496px,96px)}62.88%{transform:translate(496px,0)}65.1%{transform:translate(368px,0)}65.65%{transform:translate(368px,32px)}67.31%{transform:translate(288px,48px)}67.59%{transform:translate(272px,48px)}68.42%{transform:translate(272px,0)}72.85%{transform:translate(16px,0)}73.13%{transform:translate(16px,16px)}86.15%{transform:translate(736px,48px)}96.68%{transform:translate(128px,48px)}97.51%{transform:translate(128px,0)}98.89%{transform:translate(48px,0)}99.17%{transform:translate(48px,-16px)}}@keyframes s2{0%,99.72%{transform:translate(32px,-16px)}.55%{transform:translate(0,-16px)}1.66%{transform:translate(0,48px)}2.22%{transform:translate(32px,48px)}2.49%{transform:translate(32px,64px)}3.05%{transform:translate(0,64px)}3.6%{transform:translate(0,96px)}4.99%{transform:translate(80px,96px)}6.09%{transform:translate(80px,32px)}34.07%,9.14%{transform:translate(256px,32px)}9.7%{transform:translate(256px,0)}9.97%{transform:translate(240px,0)}10.25%{transform:translate(240px,16px)}10.8%,11.91%{transform:translate(208px,16px)}11.08%{transform:translate(208px,0)}11.36%{transform:translate(192px,0)}11.63%{transform:translate(192px,16px)}12.74%{transform:translate(208px,64px)}13.02%{transform:translate(224px,64px)}13.57%{transform:translate(224px,96px)}13.85%{transform:translate(208px,96px)}14.13%{transform:translate(208px,80px)}14.96%{transform:translate(256px,80px)}15.24%{transform:translate(256px,64px)}16.34%{transform:translate(320px,64px)}17.17%{transform:translate(320px,16px)}17.73%,33.24%{transform:translate(288px,16px)}18.01%,33.52%,67.31%{transform:translate(288px,32px)}18.28%{transform:translate(304px,32px)}19.39%{transform:translate(304px,96px)}20.78%{transform:translate(384px,96px)}21.33%{transform:translate(384px,64px)}21.88%{transform:translate(352px,64px)}22.16%{transform:translate(352px,48px)}24.38%{transform:translate(480px,48px)}24.65%{transform:translate(480px,32px)}24.93%{transform:translate(464px,32px)}25.48%,39.34%{transform:translate(464px,64px)}26.32%{transform:translate(512px,64px)}26.87%{transform:translate(512px,96px)}27.15%{transform:translate(528px,96px)}28.81%{transform:translate(528px,0)}29.64%{transform:translate(480px,0)}29.92%{transform:translate(480px,16px)}35.18%{transform:translate(256px,96px)}38.78%{transform:translate(464px,96px)}42.66%{transform:translate(656px,64px)}43.77%{transform:translate(656px,0)}44.04%{transform:translate(640px,0)}44.32%{transform:translate(640px,16px)}45.98%,85.87%{transform:translate(736px,16px)}46.26%{transform:translate(736px,32px)}46.54%{transform:translate(720px,32px)}47.09%{transform:translate(720px,64px)}47.37%{transform:translate(736px,64px)}47.92%{transform:translate(736px,96px)}48.48%{transform:translate(704px,96px)}48.75%{transform:translate(704px,112px)}50.14%{transform:translate(784px,112px)}50.69%,55.68%{transform:translate(784px,80px)}51.25%{transform:translate(816px,80px)}52.63%{transform:translate(816px,0)}52.91%{transform:translate(832px,0)}53.19%{transform:translate(832px,16px)}53.74%{transform:translate(800px,16px)}55.12%{transform:translate(800px,96px)}55.4%{transform:translate(784px,96px)}60.94%{transform:translate(480px,80px)}61.22%{transform:translate(480px,96px)}61.5%{transform:translate(496px,96px)}63.16%{transform:translate(496px,0)}65.37%{transform:translate(368px,0)}65.93%{transform:translate(368px,32px)}67.59%{transform:translate(288px,48px)}67.87%{transform:translate(272px,48px)}68.7%{transform:translate(272px,0)}73.13%{transform:translate(16px,0)}73.41%{transform:translate(16px,16px)}86.43%{transform:translate(736px,48px)}96.95%{transform:translate(128px,48px)}97.78%{transform:translate(128px,0)}99.17%{transform:translate(48px,0)}99.45%{transform:translate(48px,-16px)}}@keyframes s3{0%,99.72%{transform:translate(48px,-16px)}.83%{transform:translate(0,-16px)}1.94%{transform:translate(0,48px)}2.49%{transform:translate(32px,48px)}2.77%{transform:translate(32px,64px)}3.32%{transform:translate(0,64px)}3.88%{transform:translate(0,96px)}5.26%{transform:translate(80px,96px)}6.37%{transform:translate(80px,32px)}34.35%,9.42%{transform:translate(256px,32px)}9.97%{transform:translate(256px,0)}10.25%{transform:translate(240px,0)}10.53%{transform:translate(240px,16px)}11.08%,12.19%{transform:translate(208px,16px)}11.36%{transform:translate(208px,0)}11.63%{transform:translate(192px,0)}11.91%{transform:translate(192px,16px)}13.02%{transform:translate(208px,64px)}13.3%{transform:translate(224px,64px)}13.85%{transform:translate(224px,96px)}14.13%{transform:translate(208px,96px)}14.4%{transform:translate(208px,80px)}15.24%{transform:translate(256px,80px)}15.51%{transform:translate(256px,64px)}16.62%{transform:translate(320px,64px)}17.45%{transform:translate(320px,16px)}18.01%,33.52%{transform:translate(288px,16px)}18.28%,33.8%,67.59%{transform:translate(288px,32px)}18.56%{transform:translate(304px,32px)}19.67%{transform:translate(304px,96px)}21.05%{transform:translate(384px,96px)}21.61%{transform:translate(384px,64px)}22.16%{transform:translate(352px,64px)}22.44%{transform:translate(352px,48px)}24.65%{transform:translate(480px,48px)}24.93%{transform:translate(480px,32px)}25.21%{transform:translate(464px,32px)}25.76%,39.61%{transform:translate(464px,64px)}26.59%{transform:translate(512px,64px)}27.15%{transform:translate(512px,96px)}27.42%{transform:translate(528px,96px)}29.09%{transform:translate(528px,0)}29.92%{transform:translate(480px,0)}30.19%{transform:translate(480px,16px)}35.46%{transform:translate(256px,96px)}39.06%{transform:translate(464px,96px)}42.94%{transform:translate(656px,64px)}44.04%{transform:translate(656px,0)}44.32%{transform:translate(640px,0)}44.6%{transform:translate(640px,16px)}46.26%,86.15%{transform:translate(736px,16px)}46.54%{transform:translate(736px,32px)}46.81%{transform:translate(720px,32px)}47.37%{transform:translate(720px,64px)}47.65%{transform:translate(736px,64px)}48.2%{transform:translate(736px,96px)}48.75%{transform:translate(704px,96px)}49.03%{transform:translate(704px,112px)}50.42%{transform:translate(784px,112px)}50.97%,55.96%{transform:translate(784px,80px)}51.52%{transform:translate(816px,80px)}52.91%{transform:translate(816px,0)}53.19%{transform:translate(832px,0)}53.46%{transform:translate(832px,16px)}54.02%{transform:translate(800px,16px)}55.4%{transform:translate(800px,96px)}55.68%{transform:translate(784px,96px)}61.22%{transform:translate(480px,80px)}61.5%{transform:translate(480px,96px)}61.77%{transform:translate(496px,96px)}63.43%{transform:translate(496px,0)}65.65%{transform:translate(368px,0)}66.2%{transform:translate(368px,32px)}67.87%{transform:translate(288px,48px)}68.14%{transform:translate(272px,48px)}68.98%{transform:translate(272px,0)}73.41%{transform:translate(16px,0)}73.68%{transform:translate(16px,16px)}86.7%{transform:translate(736px,48px)}97.23%{transform:translate(128px,48px)}98.06%{transform:translate(128px,0)}99.45%{transform:translate(48px,0)}}:root{--cb:#1b1f230a;--cs:purple;--ce:#ebedf0;--c0:#ebedf0;--c1:#9be9a8;--c2:#40c463;--c3:#30a14e;--c4:#216e39}@media (prefers-color-scheme:dark){:root{--cb:#1b1f230a;--cs:purple;--ce:#161b22;--c1:#01311f;--c2:#034525;--c3:#0f6d31;--c4:#00c647}}.c{shape-rendering:geometricPrecision;fill:var(--ce);stroke-width:1px;stroke:var(--cb);animation:none 36100ms linear infinite}.c.c0,.c.c1,.c.c2{fill:var(--c1);animation-name:c0}.c.c1,.c.c2{animation-name:c1}.c.c2{animation-name:c2}.c.c3{fill:var(--c2);animation-name:c3}.c.c4{fill:var(--c1);animation-name:c4}.c.c5,.c.c6,.c.c7{fill:var(--c1);animation-name:c5}.c.c6,.c.c7{animation-name:c6}.c.c7{animation-name:c7}.c.c8,.c.c9,.c.ca{fill:var(--c1);animation-name:c8}.c.c9,.c.ca{animation-name:c9}.c.ca{animation-name:ca}.c.cb{fill:var(--c2);animation-name:cb}.c.cc,.c.cd{fill:var(--c1);animation-name:cc}.c.cd{animation-name:cd}.c.ce,.c.cf,.c.cg{fill:var(--c1);animation-name:ce}.c.cf,.c.cg{animation-name:cf}.c.cg{animation-name:cg}.c.ch,.c.ci,.c.cj{fill:var(--c1);animation-name:ch}.c.ci,.c.cj{animation-name:ci}.c.cj{animation-name:cj}.c.ck,.c.cl,.c.cm{fill:var(--c1);animation-name:ck}.c.cl,.c.cm{animation-name:cl}.c.cm{animation-name:cm}.c.cn,.c.co{fill:var(--c2);animation-name:cn}.c.co{animation-name:co}.c.cp{fill:var(--c1);animation-name:cp}.c.cq{fill:var(--c2);animation-name:cq}.c.cr{fill:var(--c1);animation-name:cr}.c.cs,.c.ct,.c.cu{fill:var(--c1);animation-name:cs}.c.ct,.c.cu{animation-name:ct}.c.cu{animation-name:cu}.c.cv,.c.cw,.c.cx{fill:var(--c1);animation-name:cv}.c.cw,.c.cx{animation-name:cw}.c.cx{animation-name:cx}.c.cy{fill:var(--c2);animation-name:cy}.c.cz{fill:var(--c1);animation-name:cz}.c.c10,.c.c11,.c.c12{fill:var(--c1);animation-name:c10}.c.c11,.c.c12{animation-name:c11}.c.c12{animation-name:c12}.c.c13{fill:var(--c2);animation-name:c13}.c.c14{fill:var(--c1);animation-name:c14}.c.c15,.c.c16,.c.c17{fill:var(--c1);animation-name:c15}.c.c16,.c.c17{animation-name:c16}.c.c17{animation-name:c17}.c.c18,.c.c19,.c.c1a{fill:var(--c1);animation-name:c18}.c.c19,.c.c1a{animation-name:c19}.c.c1a{animation-name:c1a}.c.c1b,.c.c1c,.c.c1d{fill:var(--c2);animation-name:c1b}.c.c1c,.c.c1d{animation-name:c1c}.c.c1d{animation-name:c1d}.c.c1e,.c.c1f{fill:var(--c1);animation-name:c1e}.c.c1f{animation-name:c1f}.c.c1g,.c.c1h,.c.c1i{fill:var(--c1);animation-name:c1g}.c.c1h,.c.c1i{animation-name:c1h}.c.c1i{animation-name:c1i}.c.c1j,.c.c1k,.c.c1l{fill:var(--c1);animation-name:c1j}.c.c1k,.c.c1l{animation-name:c1k}.c.c1l{animation-name:c1l}.c.c1m{fill:var(--c2);animation-name:c1m}.c.c1n{fill:var(--c1);animation-name:c1n}.c.c1o{fill:var(--c4);animation-name:c1o}.c.c1p,.c.c1q,.c.c1r{fill:var(--c1);animation-name:c1p}.c.c1q,.c.c1r{animation-name:c1q}.c.c1r{animation-name:c1r}.c.c1s{fill:var(--c2);animation-name:c1s}.c.c1t,.c.c1u{fill:var(--c1);animation-name:c1t}.c.c1u{animation-name:c1u}.s,.u{animation:none linear 36100ms infinite}.u,.u.u0{transform-origin:0 0}.u{transform:scale(0,1)}.u.u0{fill:var(--c1);animation-name:u0}.u.u1{fill:var(--c2);animation-name:u1;transform-origin:683.5px 0}.u.u2{fill:var(--c4);animation-name:u2;transform-origin:835.3px 0}.s{shape-rendering:geometricPrecision;fill:var(--cs)}.s.s0{transform:translate(0,-16px);animation-name:s0}.s.s1{transform:translate(16px,-16px);animation-name:s1}.s.s2{transform:translate(32px,-16px);animation-name:s2}.s.s3{transform:translate(48px,-16px);animation-name:s3}</style><rect class="c" x="2" y="2" rx="2" ry="2" width="12" height="12"/><rect class="c" x="2" y="18" rx="2" ry="2" width="12" height="12"/><rect class="c c0" x="2" y="34" rx="2" ry="2" width="12" height="12"/><rect class="c c1" x="2" y="50" rx="2" ry="2" width="12" height="12"/><rect class="c" x="2" y="66" rx="2" ry="2" width="12" height="12"/><rect class="c" x="2" y="82" rx="2" ry="2" width="12" height="12"/><rect class="c c2" x="2" y="98" rx="2" ry="2" width="12" height="12"/><rect class="c" x="18" y="2" rx="2" ry="2" width="12" height="12"/><rect class="c c3" x="18" y="18" rx="2" ry="2" width="12" height="12"/><rect class="c" x="18" y="34" rx="2" ry="2" width="12" height="12"/><rect class="c" x="18" y="50" rx="2" ry="2" width="12" height="12"/><rect class="c" x="18" y="66" rx="2" ry="2" width="12" height="12"/><rect class="c" x="18" y="82" rx="2" ry="2" width="12" height="12"/><rect class="c" x="18" y="98" rx="2" ry="2" width="12" height="12"/><rect class="c" x="34" y="2" rx="2" ry="2" width="12" height="12"/><rect class="c" x="34" y="18" rx="2" ry="2" width="12" height="12"/><rect class="c" x="34" y="34" rx="2" ry="2" width="12" height="12"/><rect class="c" x="34" y="50" rx="2" ry="2" width="12" height="12"/><rect class="c c4" x="34" y="66" rx="2" ry="2" width="12" height="12"/><rect class="c" x="34" y="82" rx="2" ry="2" width="12" height="12"/><rect class="c" x="34" y="98" rx="2" ry="2" width="12" height="12"/><rect class="c" x="50" y="2" rx="2" ry="2" width="12" height="12"/><rect class="c" x="50" y="18" rx="2" ry="2" width="12" height="12"/><rect class="c" x="50" y="34" rx="2" ry="2" width="12" height="12"/><rect class="c" x="50" y="50" rx="2" ry="2" width="12" height="12"/><rect class="c" x="50" y="66" rx="2" ry="2" width="12" height="12"/><rect class="c" x="50" y="82" rx="2" ry="2" width="12" height="12"/><rect class="c" x="50" y="98" rx="2" ry="2" width="12" height="12"/><rect class="c" x="66" y="2" rx="2" ry="2" width="12" height="12"/><rect class="c" x="66" y="18" rx="2" ry="2" width="12" height="12"/><rect class="c" x="66" y="34" rx="2" ry="2" width="12" height="12"/><rect class="c" x="66" y="50" rx="2" ry="2" width="12" height="12"/><rect class="c" x="66" y="66" rx="2" ry="2" width="12" height="12"/><rect class="c" x="66" y="82" rx="2" ry="2" width="12" height="12"/><rect class="c" x="66" y="98" rx="2" ry="2" width="12" height="12"/><rect class="c" x="82" y="2" rx="2" ry="2" width="12" height="12"/><rect class="c" x="82" y="18" rx="2" ry="2" width="12" height="12"/><rect class="c c5" x="82" y="34" rx="2" ry="2" width="12" height="12"/><rect class="c" x="82" y="50" rx="2" ry="2" width="12" height="12"/><rect class="c" x="82" y="66" rx="2" ry="2" width="12" height="12"/><rect class="c" x="82" y="82" rx="2" ry="2" width="12" height="12"/><rect class="c" x="82" y="98" rx="2" ry="2" width="12" height="12"/><rect class="c" x="98" y="2" rx="2" ry="2" width="12" height="12"/><rect class="c" x="98" y="18" rx="2" ry="2" width="12" height="12"/><rect class="c" x="98" y="34" rx="2" ry="2" width="12" height="12"/><rect class="c" x="98" y="50" rx="2" ry="2" width="12" height="12"/><rect class="c" x="98" y="66" rx="2" ry="2" width="12" height="12"/><rect class="c" x="98" y="82" rx="2" ry="2" width="12" height="12"/><rect class="c" x="98" y="98" rx="2" ry="2" width="12" height="12"/><rect class="c" x="114" y="2" rx="2" ry="2" width="12" height="12"/><rect class="c" x="114" y="18" rx="2" ry="2" width="12" height="12"/><rect class="c" x="114" y="34" rx="2" ry="2" width="12" height="12"/><rect class="c" x="114" y="50" rx="2" ry="2" width="12" height="12"/><rect class="c" x="114" y="66" rx="2" ry="2" width="12" height="12"/><rect class="c" x="114" y="82" rx="2" ry="2" width="12" height="12"/><rect class="c" x="114" y="98" rx="2" ry="2" width="12" height="12"/><rect class="c" x="130" y="2" rx="2" ry="2" width="12" height="12"/><rect class="c" x="130" y="18" rx="2" ry="2" width="12" height="12"/><rect class="c" x="130" y="34" rx="2" ry="2" width="12" height="12"/><rect class="c" x="130" y="50" rx="2" ry="2" width="12" height="12"/><rect class="c" x="130" y="66" rx="2" ry="2" width="12" height="12"/><rect class="c" x="130" y="82" rx="2" ry="2" width="12" height="12"/><rect class="c" x="130" y="98" rx="2" ry="2" width="12" height="12"/><rect class="c" x="146" y="2" rx="2" ry="2" width="12" height="12"/><rect class="c" x="146" y="18" rx="2" ry="2" width="12" height="12"/><rect class="c" x="146" y="34" rx="2" ry="2" width="12" height="12"/><rect class="c" x="146" y="50" rx="2" ry="2" width="12" height="12"/><rect class="c" x="146" y="66" rx="2" ry="2" width="12" height="12"/><rect class="c" x="146" y="82" rx="2" ry="2" width="12" height="12"/><rect class="c" x="146" y="98" rx="2" ry="2" width="12" height="12"/><rect class="c" x="162" y="2" rx="2" ry="2" width="12" height="12"/><rect class="c" x="162" y="18" rx="2" ry="2" width="12" height="12"/><rect class="c" x="162" y="34" rx="2" ry="2" width="12" height="12"/><rect class="c" x="162" y="50" rx="2" ry="2" width="12" height="12"/><rect class="c" x="162" y="66" rx="2" ry="2" width="12" height="12"/><rect class="c" x="162" y="82" rx="2" ry="2" width="12" height="12"/><rect class="c" x="162" y="98" rx="2" ry="2" width="12" height="12"/><rect class="c" x="178" y="2" rx="2" ry="2" width="12" height="12"/><rect class="c" x="178" y="18" rx="2" ry="2" width="12" height="12"/><rect class="c" x="178" y="34" rx="2" ry="2" width="12" height="12"/><rect class="c" x="178" y="50" rx="2" ry="2" width="12" height="12"/><rect class="c" x="178" y="66" rx="2" ry="2" width="12" height="12"/><rect class="c" x="178" y="82" rx="2" ry="2" width="12" height="12"/><rect class="c" x="178" y="98" rx="2" ry="2" width="12" height="12"/><rect class="c" x="194" y="2" rx="2" ry="2" width="12" height="12"/><rect class="c" x="194" y="18" rx="2" ry="2" width="12" height="12"/><rect class="c" x="194" y="34" rx="2" ry="2" width="12" height="12"/><rect class="c" x="194" y="50" rx="2" ry="2" width="12" height="12"/><rect class="c" x="194" y="66" rx="2" ry="2" width="12" height="12"/><rect class="c" x="194" y="82" rx="2" ry="2" width="12" height="12"/><rect class="c" x="194" y="98" rx="2" ry="2" width="12" height="12"/><rect class="c c6" x="210" y="2" rx="2" ry="2" width="12" height="12"/><rect class="c" x="210" y="18" rx="2" ry="2" width="12" height="12"/><rect class="c c7" x="210" y="34" rx="2" ry="2" width="12" height="12"/><rect class="c c8" x="210" y="50" rx="2" ry="2" width="12" height="12"/><rect class="c c9" x="210" y="66" rx="2" ry="2" width="12" height="12"/><rect class="c" x="210" y="82" rx="2" ry="2" width="12" height="12"/><rect class="c ca" x="210" y="98" rx="2" ry="2" width="12" height="12"/><rect class="c cb" x="226" y="2" rx="2" ry="2" width="12" height="12"/><rect class="c cc" x="226" y="18" rx="2" ry="2" width="12" height="12"/><rect class="c cd" x="226" y="34" rx="2" ry="2" width="12" height="12"/><rect class="c" x="226" y="50" rx="2" ry="2" width="12" height="12"/><rect class="c ce" x="226" y="66" rx="2" ry="2" width="12" height="12"/><rect class="c cf" x="226" y="82" rx="2" ry="2" width="12" height="12"/><rect class="c cg" x="226" y="98" rx="2" ry="2" width="12" height="12"/><rect class="c ch" x="242" y="2" rx="2" ry="2" width="12" height="12"/><rect class="c" x="242" y="18" rx="2" ry="2" width="12" height="12"/><rect class="c ci" x="242" y="34" rx="2" ry="2" width="12" height="12"/><rect class="c" x="242" y="50" rx="2" ry="2" width="12" height="12"/><rect class="c" x="242" y="66" rx="2" ry="2" width="12" height="12"/><rect class="c" x="242" y="82" rx="2" ry="2" width="12" height="12"/><rect class="c" x="242" y="98" rx="2" ry="2" width="12" height="12"/><rect class="c" x="258" y="2" rx="2" ry="2" width="12" height="12"/><rect class="c cj" x="258" y="18" rx="2" ry="2" width="12" height="12"/><rect class="c" x="258" y="34" rx="2" ry="2" width="12" height="12"/><rect class="c" x="258" y="50" rx="2" ry="2" width="12" height="12"/><rect class="c ck" x="258" y="66" rx="2" ry="2" width="12" height="12"/><rect class="c cl" x="258" y="82" rx="2" ry="2" width="12" height="12"/><rect class="c cm" x="258" y="98" rx="2" ry="2" width="12" height="12"/><rect class="c cn" x="274" y="2" rx="2" ry="2" width="12" height="12"/><rect class="c co" x="274" y="18" rx="2" ry="2" width="12" height="12"/><rect class="c" x="274" y="34" rx="2" ry="2" width="12" height="12"/><rect class="c" x="274" y="50" rx="2" ry="2" width="12" height="12"/><rect class="c" x="274" y="66" rx="2" ry="2" width="12" height="12"/><rect class="c" x="274" y="82" rx="2" ry="2" width="12" height="12"/><rect class="c" x="274" y="98" rx="2" ry="2" width="12" height="12"/><rect class="c" x="290" y="2" rx="2" ry="2" width="12" height="12"/><rect class="c" x="290" y="18" rx="2" ry="2" width="12" height="12"/><rect class="c cp" x="290" y="34" rx="2" ry="2" width="12" height="12"/><rect class="c cq" x="290" y="50" rx="2" ry="2" width="12" height="12"/><rect class="c cr" x="290" y="66" rx="2" ry="2" width="12" height="12"/><rect class="c" x="290" y="82" rx="2" ry="2" width="12" height="12"/><rect class="c" x="290" y="98" rx="2" ry="2" width="12" height="12"/><rect class="c" x="306" y="2" rx="2" ry="2" width="12" height="12"/><rect class="c cs" x="306" y="18" rx="2" ry="2" width="12" height="12"/><rect class="c" x="306" y="34" rx="2" ry="2" width="12" height="12"/><rect class="c" x="306" y="50" rx="2" ry="2" width="12" height="12"/><rect class="c" x="306" y="66" rx="2" ry="2" width="12" height="12"/><rect class="c" x="306" y="82" rx="2" ry="2" width="12" height="12"/><rect class="c ct" x="306" y="98" rx="2" ry="2" width="12" height="12"/><rect class="c" x="322" y="2" rx="2" ry="2" width="12" height="12"/><rect class="c" x="322" y="18" rx="2" ry="2" width="12" height="12"/><rect class="c cu" x="322" y="34" rx="2" ry="2" width="12" height="12"/><rect class="c cv" x="322" y="50" rx="2" ry="2" width="12" height="12"/><rect class="c" x="322" y="66" rx="2" ry="2" width="12" height="12"/><rect class="c" x="322" y="82" rx="2" ry="2" width="12" height="12"/><rect class="c cw" x="322" y="98" rx="2" ry="2" width="12" height="12"/><rect class="c" x="338" y="2" rx="2" ry="2" width="12" height="12"/><rect class="c" x="338" y="18" rx="2" ry="2" width="12" height="12"/><rect class="c" x="338" y="34" rx="2" ry="2" width="12" height="12"/><rect class="c" x="338" y="50" rx="2" ry="2" width="12" height="12"/><rect class="c" x="338" y="66" rx="2" ry="2" width="12" height="12"/><rect class="c" x="338" y="82" rx="2" ry="2" width="12" height="12"/><rect class="c" x="338" y="98" rx="2" ry="2" width="12" height="12"/><rect class="c" x="354" y="2" rx="2" ry="2" width="12" height="12"/><rect class="c" x="354" y="18" rx="2" ry="2" width="12" height="12"/><rect class="c" x="354" y="34" rx="2" ry="2" width="12" height="12"/><rect class="c" x="354" y="50" rx="2" ry="2" width="12" height="12"/><rect class="c cx" x="354" y="66" rx="2" ry="2" width="12" height="12"/><rect class="c" x="354" y="82" rx="2" ry="2" width="12" height="12"/><rect class="c" x="354" y="98" rx="2" ry="2" width="12" height="12"/><rect class="c" x="370" y="2" rx="2" ry="2" width="12" height="12"/><rect class="c" x="370" y="18" rx="2" ry="2" width="12" height="12"/><rect class="c cy" x="370" y="34" rx="2" ry="2" width="12" height="12"/><rect class="c" x="370" y="50" rx="2" ry="2" width="12" height="12"/><rect class="c" x="370" y="66" rx="2" ry="2" width="12" height="12"/><rect class="c" x="370" y="82" rx="2" ry="2" width="12" height="12"/><rect class="c cz" x="370" y="98" rx="2" ry="2" width="12" height="12"/><rect class="c" x="386" y="2" rx="2" ry="2" width="12" height="12"/><rect class="c" x="386" y="18" rx="2" ry="2" width="12" height="12"/><rect class="c" x="386" y="34" rx="2" ry="2" width="12" height="12"/><rect class="c" x="386" y="50" rx="2" ry="2" width="12" height="12"/><rect class="c" x="386" y="66" rx="2" ry="2" width="12" height="12"/><rect class="c" x="386" y="82" rx="2" ry="2" width="12" height="12"/><rect class="c c10" x="386" y="98" rx="2" ry="2" width="12" height="12"/><rect class="c" x="402" y="2" rx="2" ry="2" width="12" height="12"/><rect class="c" x="402" y="18" rx="2" ry="2" width="12" height="12"/><rect class="c" x="402" y="34" rx="2" ry="2" width="12" height="12"/><rect class="c" x="402" y="50" rx="2" ry="2" width="12" height="12"/><rect class="c" x="402" y="66" rx="2" ry="2" width="12" height="12"/><rect class="c" x="402" y="82" rx="2" ry="2" width="12" height="12"/><rect class="c" x="402" y="98" rx="2" ry="2" width="12" height="12"/><rect class="c" x="418" y="2" rx="2" ry="2" width="12" height="12"/><rect class="c c11" x="418" y="18" rx="2" ry="2" width="12" height="12"/><rect class="c" x="418" y="34" rx="2" ry="2" width="12" height="12"/><rect class="c" x="418" y="50" rx="2" ry="2" width="12" height="12"/><rect class="c" x="418" y="66" rx="2" ry="2" width="12" height="12"/><rect class="c" x="418" y="82" rx="2" ry="2" width="12" height="12"/><rect class="c" x="418" y="98" rx="2" ry="2" width="12" height="12"/><rect class="c" x="434" y="2" rx="2" ry="2" width="12" height="12"/><rect class="c" x="434" y="18" rx="2" ry="2" width="12" height="12"/><rect class="c" x="434" y="34" rx="2" ry="2" width="12" height="12"/><rect class="c" x="434" y="50" rx="2" ry="2" width="12" height="12"/><rect class="c" x="434" y="66" rx="2" ry="2" width="12" height="12"/><rect class="c" x="434" y="82" rx="2" ry="2" width="12" height="12"/><rect class="c" x="434" y="98" rx="2" ry="2" width="12" height="12"/><rect class="c" x="450" y="2" rx="2" ry="2" width="12" height="12"/><rect class="c" x="450" y="18" rx="2" ry="2" width="12" height="12"/><rect class="c" x="450" y="34" rx="2" ry="2" width="12" height="12"/><rect class="c c12" x="450" y="50" rx="2" ry="2" width="12" height="12"/><rect class="c" x="450" y="66" rx="2" ry="2" width="12" height="12"/><rect class="c" x="450" y="82" rx="2" ry="2" width="12" height="12"/><rect class="c" x="450" y="98" rx="2" ry="2" width="12" height="12"/><rect class="c c13" x="466" y="2" rx="2" ry="2" width="12" height="12"/><rect class="c" x="466" y="18" rx="2" ry="2" width="12" height="12"/><rect class="c c14" x="466" y="34" rx="2" ry="2" width="12" height="12"/><rect class="c c15" x="466" y="50" rx="2" ry="2" width="12" height="12"/><rect class="c c16" x="466" y="66" rx="2" ry="2" width="12" height="12"/><rect class="c" x="466" y="82" rx="2" ry="2" width="12" height="12"/><rect class="c" x="466" y="98" rx="2" ry="2" width="12" height="12"/><rect class="c c17" x="482" y="2" rx="2" ry="2" width="12" height="12"/><rect class="c" x="482" y="18" rx="2" ry="2" width="12" height="12"/><rect class="c c18" x="482" y="34" rx="2" ry="2" width="12" height="12"/><rect class="c c19" x="482" y="50" rx="2" ry="2" width="12" height="12"/><rect class="c c1a" x="482" y="66" rx="2" ry="2" width="12" height="12"/><rect class="c c1b" x="482" y="82" rx="2" ry="2" width="12" height="12"/><rect class="c c1c" x="482" y="98" rx="2" ry="2" width="12" height="12"/><rect class="c" x="498" y="2" rx="2" ry="2" width="12" height="12"/><rect class="c c1d" x="498" y="18" rx="2" ry="2" width="12" height="12"/><rect class="c" x="498" y="34" rx="2" ry="2" width="12" height="12"/><rect class="c" x="498" y="50" rx="2" ry="2" width="12" height="12"/><rect class="c" x="498" y="66" rx="2" ry="2" width="12" height="12"/><rect class="c" x="498" y="82" rx="2" ry="2" width="12" height="12"/><rect class="c" x="498" y="98" rx="2" ry="2" width="12" height="12"/><rect class="c" x="514" y="2" rx="2" ry="2" width="12" height="12"/><rect class="c" x="514" y="18" rx="2" ry="2" width="12" height="12"/><rect class="c" x="514" y="34" rx="2" ry="2" width="12" height="12"/><rect class="c" x="514" y="50" rx="2" ry="2" width="12" height="12"/><rect class="c" x="514" y="66" rx="2" ry="2" width="12" height="12"/><rect class="c" x="514" y="82" rx="2" ry="2" width="12" height="12"/><rect class="c c1e" x="514" y="98" rx="2" ry="2" width="12" height="12"/><rect class="c" x="530" y="2" rx="2" ry="2" width="12" height="12"/><rect class="c" x="530" y="18" rx="2" ry="2" width="12" height="12"/><rect class="c c1f" x="530" y="34" rx="2" ry="2" width="12" height="12"/><rect class="c" x="530" y="50" rx="2" ry="2" width="12" height="12"/><rect class="c" x="530" y="66" rx="2" ry="2" width="12" height="12"/><rect class="c" x="530" y="82" rx="2" ry="2" width="12" height="12"/><rect class="c" x="530" y="98" rx="2" ry="2" width="12" height="12"/><rect class="c" x="546" y="2" rx="2" ry="2" width="12" height="12"/><rect class="c" x="546" y="18" rx="2" ry="2" width="12" height="12"/><rect class="c" x="546" y="34" rx="2" ry="2" width="12" height="12"/><rect class="c" x="546" y="50" rx="2" ry="2" width="12" height="12"/><rect class="c" x="546" y="66" rx="2" ry="2" width="12" height="12"/><rect class="c" x="546" y="82" rx="2" ry="2" width="12" height="12"/><rect class="c" x="546" y="98" rx="2" ry="2" width="12" height="12"/><rect class="c" x="562" y="2" rx="2" ry="2" width="12" height="12"/><rect class="c" x="562" y="18" rx="2" ry="2" width="12" height="12"/><rect class="c" x="562" y="34" rx="2" ry="2" width="12" height="12"/><rect class="c" x="562" y="50" rx="2" ry="2" width="12" height="12"/><rect class="c" x="562" y="66" rx="2" ry="2" width="12" height="12"/><rect class="c" x="562" y="82" rx="2" ry="2" width="12" height="12"/><rect class="c" x="562" y="98" rx="2" ry="2" width="12" height="12"/><rect class="c" x="578" y="2" rx="2" ry="2" width="12" height="12"/><rect class="c" x="578" y="18" rx="2" ry="2" width="12" height="12"/><rect class="c" x="578" y="34" rx="2" ry="2" width="12" height="12"/><rect class="c" x="578" y="50" rx="2" ry="2" width="12" height="12"/><rect class="c" x="578" y="66" rx="2" ry="2" width="12" height="12"/><rect class="c" x="578" y="82" rx="2" ry="2" width="12" height="12"/><rect class="c" x="578" y="98" rx="2" ry="2" width="12" height="12"/><rect class="c" x="594" y="2" rx="2" ry="2" width="12" height="12"/><rect class="c" x="594" y="18" rx="2" ry="2" width="12" height="12"/><rect class="c" x="594" y="34" rx="2" ry="2" width="12" height="12"/><rect class="c" x="594" y="50" rx="2" ry="2" width="12" height="12"/><rect class="c" x="594" y="66" rx="2" ry="2" width="12" height="12"/><rect class="c" x="594" y="82" rx="2" ry="2" width="12" height="12"/><rect class="c" x="594" y="98" rx="2" ry="2" width="12" height="12"/><rect class="c" x="610" y="2" rx="2" ry="2" width="12" height="12"/><rect class="c" x="610" y="18" rx="2" ry="2" width="12" height="12"/><rect class="c" x="610" y="34" rx="2" ry="2" width="12" height="12"/><rect class="c" x="610" y="50" rx="2" ry="2" width="12" height="12"/><rect class="c" x="610" y="66" rx="2" ry="2" width="12" height="12"/><rect class="c" x="610" y="82" rx="2" ry="2" width="12" height="12"/><rect class="c" x="610" y="98" rx="2" ry="2" width="12" height="12"/><rect class="c" x="626" y="2" rx="2" ry="2" width="12" height="12"/><rect class="c" x="626" y="18" rx="2" ry="2" width="12" height="12"/><rect class="c" x="626" y="34" rx="2" ry="2" width="12" height="12"/><rect class="c" x="626" y="50" rx="2" ry="2" width="12" height="12"/><rect class="c" x="626" y="66" rx="2" ry="2" width="12" height="12"/><rect class="c" x="626" y="82" rx="2" ry="2" width="12" height="12"/><rect class="c" x="626" y="98" rx="2" ry="2" width="12" height="12"/><rect class="c c1g" x="642" y="2" rx="2" ry="2" width="12" height="12"/><rect class="c" x="642" y="18" rx="2" ry="2" width="12" height="12"/><rect class="c" x="642" y="34" rx="2" ry="2" width="12" height="12"/><rect class="c" x="642" y="50" rx="2" ry="2" width="12" height="12"/><rect class="c" x="642" y="66" rx="2" ry="2" width="12" height="12"/><rect class="c" x="642" y="82" rx="2" ry="2" width="12" height="12"/><rect class="c" x="642" y="98" rx="2" ry="2" width="12" height="12"/><rect class="c" x="658" y="2" rx="2" ry="2" width="12" height="12"/><rect class="c c1h" x="658" y="18" rx="2" ry="2" width="12" height="12"/><rect class="c c1i" x="658" y="34" rx="2" ry="2" width="12" height="12"/><rect class="c" x="658" y="50" rx="2" ry="2" width="12" height="12"/><rect class="c" x="658" y="66" rx="2" ry="2" width="12" height="12"/><rect class="c" x="658" y="82" rx="2" ry="2" width="12" height="12"/><rect class="c" x="658" y="98" rx="2" ry="2" width="12" height="12"/><rect class="c" x="674" y="2" rx="2" ry="2" width="12" height="12"/><rect class="c" x="674" y="18" rx="2" ry="2" width="12" height="12"/><rect class="c" x="674" y="34" rx="2" ry="2" width="12" height="12"/><rect class="c" x="674" y="50" rx="2" ry="2" width="12" height="12"/><rect class="c" x="674" y="66" rx="2" ry="2" width="12" height="12"/><rect class="c" x="674" y="82" rx="2" ry="2" width="12" height="12"/><rect class="c" x="674" y="98" rx="2" ry="2" width="12" height="12"/><rect class="c" x="690" y="2" rx="2" ry="2" width="12" height="12"/><rect class="c" x="690" y="18" rx="2" ry="2" width="12" height="12"/><rect class="c" x="690" y="34" rx="2" ry="2" width="12" height="12"/><rect class="c" x="690" y="50" rx="2" ry="2" width="12" height="12"/><rect class="c" x="690" y="66" rx="2" ry="2" width="12" height="12"/><rect class="c" x="690" y="82" rx="2" ry="2" width="12" height="12"/><rect class="c" x="690" y="98" rx="2" ry="2" width="12" height="12"/><rect class="c" x="706" y="2" rx="2" ry="2" width="12" height="12"/><rect class="c" x="706" y="18" rx="2" ry="2" width="12" height="12"/><rect class="c" x="706" y="34" rx="2" ry="2" width="12" height="12"/><rect class="c" x="706" y="50" rx="2" ry="2" width="12" height="12"/><rect class="c" x="706" y="66" rx="2" ry="2" width="12" height="12"/><rect class="c" x="706" y="82" rx="2" ry="2" width="12" height="12"/><rect class="c c1j" x="706" y="98" rx="2" ry="2" width="12" height="12"/><rect class="c" x="722" y="2" rx="2" ry="2" width="12" height="12"/><rect class="c" x="722" y="18" rx="2" ry="2" width="12" height="12"/><rect class="c c1k" x="722" y="34" rx="2" ry="2" width="12" height="12"/><rect class="c c1l" x="722" y="50" rx="2" ry="2" width="12" height="12"/><rect class="c" x="722" y="66" rx="2" ry="2" width="12" height="12"/><rect class="c c1m" x="722" y="82" rx="2" ry="2" width="12" height="12"/><rect class="c" x="722" y="98" rx="2" ry="2" width="12" height="12"/><rect class="c" x="738" y="2" rx="2" ry="2" width="12" height="12"/><rect class="c c1n" x="738" y="18" rx="2" ry="2" width="12" height="12"/><rect class="c" x="738" y="34" rx="2" ry="2" width="12" height="12"/><rect class="c c1o" x="738" y="50" rx="2" ry="2" width="12" height="12"/><rect class="c c1p" x="738" y="66" rx="2" ry="2" width="12" height="12"/><rect class="c" x="738" y="82" rx="2" ry="2" width="12" height="12"/><rect class="c c1q" x="738" y="98" rx="2" ry="2" width="12" height="12"/><rect class="c" x="754" y="2" rx="2" ry="2" width="12" height="12"/><rect class="c" x="754" y="18" rx="2" ry="2" width="12" height="12"/><rect class="c" x="754" y="34" rx="2" ry="2" width="12" height="12"/><rect class="c" x="754" y="50" rx="2" ry="2" width="12" height="12"/><rect class="c" x="754" y="66" rx="2" ry="2" width="12" height="12"/><rect class="c" x="754" y="82" rx="2" ry="2" width="12" height="12"/><rect class="c" x="754" y="98" rx="2" ry="2" width="12" height="12"/><rect class="c" x="770" y="2" rx="2" ry="2" width="12" height="12"/><rect class="c" x="770" y="18" rx="2" ry="2" width="12" height="12"/><rect class="c" x="770" y="34" rx="2" ry="2" width="12" height="12"/><rect class="c" x="770" y="50" rx="2" ry="2" width="12" height="12"/><rect class="c" x="770" y="66" rx="2" ry="2" width="12" height="12"/><rect class="c" x="770" y="82" rx="2" ry="2" width="12" height="12"/><rect class="c" x="770" y="98" rx="2" ry="2" width="12" height="12"/><rect class="c" x="786" y="2" rx="2" ry="2" width="12" height="12"/><rect class="c" x="786" y="18" rx="2" ry="2" width="12" height="12"/><rect class="c" x="786" y="34" rx="2" ry="2" width="12" height="12"/><rect class="c" x="786" y="50" rx="2" ry="2" width="12" height="12"/><rect class="c" x="786" y="66" rx="2" ry="2" width="12" height="12"/><rect class="c" x="786" y="82" rx="2" ry="2" width="12" height="12"/><rect class="c c1r" x="786" y="98" rx="2" ry="2" width="12" height="12"/><rect class="c" x="802" y="2" rx="2" ry="2" width="12" height="12"/><rect class="c" x="802" y="18" rx="2" ry="2" width="12" height="12"/><rect class="c" x="802" y="34" rx="2" ry="2" width="12" height="12"/><rect class="c" x="802" y="50" rx="2" ry="2" width="12" height="12"/><rect class="c" x="802" y="66" rx="2" ry="2" width="12" height="12"/><rect class="c" x="802" y="82" rx="2" ry="2" width="12" height="12"/><rect class="c c1s" x="802" y="98" rx="2" ry="2" width="12" height="12"/><rect class="c c1t" x="818" y="2" rx="2" ry="2" width="12" height="12"/><rect class="c" x="818" y="18" rx="2" ry="2" width="12" height="12"/><rect class="c" x="818" y="34" rx="2" ry="2" width="12" height="12"/><rect class="c" x="818" y="50" rx="2" ry="2" width="12" height="12"/><rect class="c" x="818" y="66" rx="2" ry="2" width="12" height="12"/><rect class="c" x="818" y="82" rx="2" ry="2" width="12" height="12"/><rect class="c" x="818" y="98" rx="2" ry="2" width="12" height="12"/><rect class="c c1u" x="834" y="2" rx="2" ry="2" width="12" height="12"/><rect class="u u0" height="12" width="684.1" x="0.0" y="144"/><rect class="u u1" height="12" width="152.5" x="683.5" y="144"/><rect class="u u2" height="12" width="13.3" x="835.3" y="144"/><rect class="s s0" x="0.8" y="0.8" width="14.4" height="14.4" rx="4.5" ry="4.5"/><rect class="s s1" x="1.8" y="1.8" width="12.3" height="12.3" rx="4.1" ry="4.1"/><rect class="s s2" x="2.6" y="2.6" width="10.8" height="10.8" rx="3.6" ry="3.6"/><rect class="s s3" x="3.0" y="3.0" width="9.9" height="9.9" rx="3.3" ry="3.3"/></svg>