<svg viewBox="-16 -32 880 192" width="880" height="192" xmlns="http://www.w3.org/2000/svg"><style>@keyframes c0{5.91%{fill:var(--c1)}5.93%,to{fill:var(--ce)}}@keyframes c1{4.5%{fill:var(--c1)}4.52%,to{fill:var(--ce)}}@keyframes c2{3.37%{fill:var(--c1)}3.39%,to{fill:var(--ce)}}@keyframes c3{4.22%{fill:var(--c1)}4.24%,to{fill:var(--ce)}}@keyframes c4{66.47%{fill:var(--c3)}66.49%,to{fill:var(--ce)}}@keyframes c5{3.65%{fill:var(--c1)}3.67%,to{fill:var(--ce)}}@keyframes c6{3.93%{fill:var(--c1)}3.95%,to{fill:var(--ce)}}@keyframes c7{7.31%{fill:var(--c1)}7.33%,to{fill:var(--ce)}}@keyframes c8{7.03%{fill:var(--c1)}7.05%,to{fill:var(--ce)}}@keyframes c9{9%{fill:var(--c1)}9.02%,to{fill:var(--ce)}}@keyframes ca{8.16%{fill:var(--c1)}8.18%,to{fill:var(--ce)}}@keyframes cb{21.96%{fill:var(--c1)}21.98%,to{fill:var(--ce)}}@keyframes cc{21.68%{fill:var(--c1)}21.7%,to{fill:var(--ce)}}@keyframes cd{62.81%{fill:var(--c2)}62.83%,to{fill:var(--ce)}}@keyframes ce{63.09%{fill:var(--c2)}63.11%,to{fill:var(--ce)}}@keyframes cf{19.99%{fill:var(--c1)}20.01%,to{fill:var(--ce)}}@keyframes cg{19.71%{fill:var(--c1)}19.73%,to{fill:var(--ce)}}@keyframes ch{10.98%{fill:var(--c1)}11%,to{fill:var(--ce)}}@keyframes ci{11.82%{fill:var(--c1)}11.84%,to{fill:var(--ce)}}@keyframes cj{12.1%{fill:var(--c1)}12.12%,to{fill:var(--ce)}}@keyframes ck{19.14%{fill:var(--c1)}19.16%,to{fill:var(--ce)}}@keyframes cl{61.12%{fill:var(--c2)}61.14%,to{fill:var(--ce)}}@keyframes cm{60.84%{fill:var(--c2)}60.86%,to{fill:var(--ce)}}@keyframes cn{12.67%{fill:var(--c1)}12.69%,to{fill:var(--ce)}}@keyframes co{18.3%{fill:var(--c1)}18.32%,to{fill:var(--ce)}}@keyframes cp{59.71%{fill:var(--c2)}59.73%,to{fill:var(--ce)}}@keyframes cq{13.79%{fill:var(--c1)}13.81%,to{fill:var(--ce)}}@keyframes cr{13.51%{fill:var(--c1)}13.53%,to{fill:var(--ce)}}@keyframes cs{58.3%{fill:var(--c2)}58.32%,to{fill:var(--ce)}}@keyframes ct{16.33%{fill:var(--c1)}16.35%,to{fill:var(--ce)}}@keyframes cu{16.61%{fill:var(--c1)}16.63%,to{fill:var(--ce)}}@keyframes cv{15.2%{fill:var(--c1)}15.22%,to{fill:var(--ce)}}@keyframes cw{28.72%{fill:var(--c1)}28.74%,to{fill:var(--ce)}}@keyframes cx{44.5%{fill:var(--c1)}44.52%,to{fill:var(--ce)}}@keyframes cy{29%{fill:var(--c1)}29.02%,to{fill:var(--ce)}}@keyframes cz{29.29%{fill:var(--c1)}29.31%,to{fill:var(--ce)}}@keyframes c10{29.57%{fill:var(--c1)}29.59%,to{fill:var(--ce)}}@keyframes c11{43.93%{fill:var(--c1)}43.95%,to{fill:var(--ce)}}@keyframes c12{79.14%{fill:var(--c4)}79.16%,to{fill:var(--ce)}}@keyframes c13{45.06%{fill:var(--c2)}45.08%,to{fill:var(--ce)}}@keyframes c14{46.47%{fill:var(--c2)}46.49%,to{fill:var(--ce)}}@keyframes c15{40.27%{fill:var(--c1)}40.29%,to{fill:var(--ce)}}@keyframes c16{30.98%{fill:var(--c1)}31%,to{fill:var(--ce)}}@keyframes c17{30.69%{fill:var(--c1)}30.71%,to{fill:var(--ce)}}@keyframes c18{46.75%{fill:var(--c2)}46.77%,to{fill:var(--ce)}}@keyframes c19{39.71%{fill:var(--c1)}39.73%,to{fill:var(--ce)}}@keyframes c1a{41.96%{fill:var(--c1)}41.98%,to{fill:var(--ce)}}@keyframes c1b{31.26%{fill:var(--c1)}31.28%,to{fill:var(--ce)}}@keyframes c1c{54.07%{fill:var(--c2)}54.09%,to{fill:var(--ce)}}@keyframes c1d{39.43%{fill:var(--c1)}39.45%,to{fill:var(--ce)}}@keyframes c1e{40.84%{fill:var(--c1)}40.86%,to{fill:var(--ce)}}@keyframes c1f{32.1%{fill:var(--c1)}32.12%,to{fill:var(--ce)}}@keyframes c1g{31.54%{fill:var(--c1)}31.56%,to{fill:var(--ce)}}@keyframes c1h{47.31%{fill:var(--c2)}47.33%,to{fill:var(--ce)}}@keyframes c1i{39.14%{fill:var(--c1)}39.16%,to{fill:var(--ce)}}@keyframes c1j{41.12%{fill:var(--c1)}41.14%,to{fill:var(--ce)}}@keyframes c1k{32.38%{fill:var(--c1)}32.4%,to{fill:var(--ce)}}@keyframes c1l{76.89%{fill:var(--c3)}76.91%,to{fill:var(--ce)}}@keyframes c1m{48.16%{fill:var(--c2)}48.18%,to{fill:var(--ce)}}@keyframes c1n{32.67%{fill:var(--c1)}32.69%,to{fill:var(--ce)}}@keyframes c1o{52.95%{fill:var(--c2)}52.97%,to{fill:var(--ce)}}@keyframes c1p{33.79%{fill:var(--c1)}33.81%,to{fill:var(--ce)}}@keyframes c1q{33.51%{fill:var(--c1)}33.53%,to{fill:var(--ce)}}@keyframes c1r{49%{fill:var(--c2)}49.02%,to{fill:var(--ce)}}@keyframes c1s{36.89%{fill:var(--c1)}36.91%,to{fill:var(--ce)}}@keyframes c1t{34.92%{fill:var(--c1)}34.94%,to{fill:var(--ce)}}@keyframes c1u{35.2%{fill:var(--c1)}35.22%,to{fill:var(--ce)}}@keyframes c1v{35.76%{fill:var(--c1)}35.78%,to{fill:var(--ce)}}@keyframes c1w{51.54%{fill:var(--c2)}51.56%,to{fill:var(--ce)}}@keyframes c1x{50.13%{fill:var(--c2)}50.15%,to{fill:var(--ce)}}@keyframes c1y{83.65%{fill:var(--c4)}83.67%,to{fill:var(--ce)}}@keyframes u0{3.37%{transform:scale(0,1)}3.39%,3.65%{transform:scale(.02,1)}3.67%,3.93%{transform:scale(.04,1)}3.95%,4.22%{transform:scale(.06,1)}4.24%,4.5%{transform:scale(.08,1)}4.52%,5.91%{transform:scale(.1,1)}5.93%,7.03%{transform:scale(.12,1)}7.05%,7.31%{transform:scale(.14,1)}7.33%,8.16%{transform:scale(.16,1)}8.18%,9%{transform:scale(.18,1)}10.98%,9.02%{transform:scale(.2,1)}11%,11.82%{transform:scale(.22,1)}11.84%,12.1%{transform:scale(.24,1)}12.12%,12.67%{transform:scale(.25,1)}12.69%,13.51%{transform:scale(.27,1)}13.53%,13.79%{transform:scale(.29,1)}13.81%,15.2%{transform:scale(.31,1)}15.22%,16.33%{transform:scale(.33,1)}16.35%,16.61%{transform:scale(.35,1)}16.63%,18.3%{transform:scale(.37,1)}18.32%,19.14%{transform:scale(.39,1)}19.16%,19.71%{transform:scale(.41,1)}19.73%,19.99%{transform:scale(.43,1)}20.01%,21.68%{transform:scale(.45,1)}21.7%,21.96%{transform:scale(.47,1)}21.98%,28.72%{transform:scale(.49,1)}28.74%,29%{transform:scale(.51,1)}29.02%,29.29%{transform:scale(.53,1)}29.31%,29.57%{transform:scale(.55,1)}29.59%,30.69%{transform:scale(.57,1)}30.71%,30.98%{transform:scale(.59,1)}31%,31.26%{transform:scale(.61,1)}31.28%,31.54%{transform:scale(.63,1)}31.56%,32.1%{transform:scale(.65,1)}32.12%,32.38%{transform:scale(.67,1)}32.4%,32.67%{transform:scale(.69,1)}32.69%,33.51%{transform:scale(.71,1)}33.53%,33.79%{transform:scale(.73,1)}33.81%,34.92%{transform:scale(.75,1)}34.94%,35.2%{transform:scale(.76,1)}35.22%,35.76%{transform:scale(.78,1)}35.78%,36.89%{transform:scale(.8,1)}36.91%,39.14%{transform:scale(.82,1)}39.16%,39.43%{transform:scale(.84,1)}39.45%,39.71%{transform:scale(.86,1)}39.73%,40.27%{transform:scale(.88,1)}40.29%,40.84%{transform:scale(.9,1)}40.86%,41.12%{transform:scale(.92,1)}41.14%,41.96%{transform:scale(.94,1)}41.98%,43.93%{transform:scale(.96,1)}43.95%,44.5%{transform:scale(.98,1)}44.52%,to{transform:scale(1,1)}}@keyframes u1{45.06%{transform:scale(0,1)}45.08%,46.47%{transform:scale(.06,1)}46.49%,46.75%{transform:scale(.13,1)}46.77%,47.31%{transform:scale(.19,1)}47.33%,48.16%{transform:scale(.25,1)}48.18%,49%{transform:scale(.31,1)}49.02%,50.13%{transform:scale(.38,1)}50.15%,51.54%{transform:scale(.44,1)}51.56%,52.95%{transform:scale(.5,1)}52.97%,54.07%{transform:scale(.56,1)}54.09%,58.3%{transform:scale(.63,1)}58.32%,59.71%{transform:scale(.69,1)}59.73%,60.84%{transform:scale(.75,1)}60.86%,61.12%{transform:scale(.81,1)}61.14%,62.81%{transform:scale(.88,1)}62.83%,63.09%{transform:scale(.94,1)}63.11%,to{transform:scale(1,1)}}@keyframes u2{66.47%{transform:scale(0,1)}66.49%,76.89%{transform:scale(.5,1)}76.91%,to{transform:scale(1,1)}}@keyframes u3{79.14%{transform:scale(0,1)}79.16%,83.65%{transform:scale(.5,1)}83.67%,to{transform:scale(1,1)}}@keyframes s0{0%,99.72%{transform:translate(0,-16px)}.28%{transform:translate(0,0)}3.66%{transform:translate(192px,0)}3.94%{transform:translate(192px,16px)}4.79%{transform:translate(144px,16px)}5.92%{transform:translate(144px,80px)}7.04%{transform:translate(208px,80px)}7.32%{transform:translate(208px,64px)}7.89%{transform:translate(240px,64px)}9.01%{transform:translate(240px,0)}10.99%{transform:translate(352px,0)}11.83%{transform:translate(352px,48px)}12.39%{transform:translate(384px,48px)}12.68%{transform:translate(384px,32px)}13.24%{transform:translate(416px,32px)}13.8%{transform:translate(416px,0)}15.21%{transform:translate(496px,0)}15.49%{transform:translate(496px,16px)}15.77%{transform:translate(480px,16px)}16.62%{transform:translate(480px,64px)}18.59%,24.79%{transform:translate(368px,64px)}19.15%{transform:translate(368px,96px)}19.72%{transform:translate(336px,96px)}20%{transform:translate(336px,80px)}21.41%{transform:translate(256px,80px)}21.69%{transform:translate(256px,96px)}21.97%{transform:translate(240px,96px)}22.25%{transform:translate(240px,80px)}24.51%{transform:translate(368px,80px)}29.01%{transform:translate(608px,64px)}29.58%{transform:translate(608px,96px)}30.7%,54.37%{transform:translate(672px,96px)}30.99%,54.65%{transform:translate(672px,80px)}31.55%{transform:translate(704px,80px)}32.11%{transform:translate(704px,48px)}32.96%{transform:translate(752px,48px)}33.8%{transform:translate(752px,0)}34.65%{transform:translate(800px,0)}34.93%{transform:translate(800px,16px)}35.21%{transform:translate(816px,16px)}35.77%{transform:translate(816px,48px)}36.34%{transform:translate(784px,48px)}36.9%{transform:translate(784px,80px)}37.18%{transform:translate(768px,80px)}37.46%{transform:translate(768px,64px)}37.75%{transform:translate(752px,64px)}38.59%{transform:translate(752px,16px)}40%{transform:translate(672px,16px)}40.28%,45.92%{transform:translate(672px,32px)}41.13%{transform:translate(720px,32px)}41.41%{transform:translate(720px,48px)}41.97%{transform:translate(688px,48px)}42.54%{transform:translate(688px,16px)}43.1%{transform:translate(656px,16px)}43.38%{transform:translate(656px,0)}44.23%,74.65%{transform:translate(608px,0)}44.79%{transform:translate(608px,32px)}46.48%{transform:translate(672px,0)}47.32%{transform:translate(720px,0)}47.61%{transform:translate(720px,16px)}47.89%,77.18%{transform:translate(736px,16px)}48.17%{transform:translate(736px,32px)}48.73%{transform:translate(768px,32px)}49.01%{transform:translate(768px,48px)}50.42%{transform:translate(848px,48px)}50.99%{transform:translate(848px,80px)}53.8%{transform:translate(688px,80px)}54.08%{transform:translate(688px,96px)}59.72%{transform:translate(384px,80px)}61.13%{transform:translate(384px,0)}61.97%{transform:translate(336px,0)}63.1%{transform:translate(336px,64px)}63.38%{transform:translate(320px,64px)}63.94%{transform:translate(320px,32px)}66.48%{transform:translate(176px,32px)}66.76%{transform:translate(176px,16px)}74.37%{transform:translate(608px,16px)}76.9%{transform:translate(736px,0)}79.15%{transform:translate(624px,16px)}79.44%{transform:translate(624px,32px)}83.1%{transform:translate(832px,32px)}83.66%{transform:translate(832px,64px)}96.9%{transform:translate(80px,64px)}97.75%{transform:translate(80px,16px)}98.31%{transform:translate(48px,16px)}98.87%{transform:translate(48px,-16px)}}@keyframes s1{0%,99.72%{transform:translate(16px,-16px)}.28%{transform:translate(0,-16px)}.56%{transform:translate(0,0)}3.94%{transform:translate(192px,0)}4.23%{transform:translate(192px,16px)}5.07%{transform:translate(144px,16px)}6.2%{transform:translate(144px,80px)}7.32%{transform:translate(208px,80px)}7.61%{transform:translate(208px,64px)}8.17%{transform:translate(240px,64px)}9.3%{transform:translate(240px,0)}11.27%{transform:translate(352px,0)}12.11%{transform:translate(352px,48px)}12.68%{transform:translate(384px,48px)}12.96%{transform:translate(384px,32px)}13.52%{transform:translate(416px,32px)}14.08%{transform:translate(416px,0)}15.49%{transform:translate(496px,0)}15.77%{transform:translate(496px,16px)}16.06%{transform:translate(480px,16px)}16.9%{transform:translate(480px,64px)}18.87%,25.07%{transform:translate(368px,64px)}19.44%{transform:translate(368px,96px)}20%{transform:translate(336px,96px)}20.28%{transform:translate(336px,80px)}21.69%{transform:translate(256px,80px)}21.97%{transform:translate(256px,96px)}22.25%{transform:translate(240px,96px)}22.54%{transform:translate(240px,80px)}24.79%{transform:translate(368px,80px)}29.3%{transform:translate(608px,64px)}29.86%{transform:translate(608px,96px)}30.99%,54.65%{transform:translate(672px,96px)}31.27%,54.93%{transform:translate(672px,80px)}31.83%{transform:translate(704px,80px)}32.39%{transform:translate(704px,48px)}33.24%{transform:translate(752px,48px)}34.08%{transform:translate(752px,0)}34.93%{transform:translate(800px,0)}35.21%{transform:translate(800px,16px)}35.49%{transform:translate(816px,16px)}36.06%{transform:translate(816px,48px)}36.62%{transform:translate(784px,48px)}37.18%{transform:translate(784px,80px)}37.46%{transform:translate(768px,80px)}37.75%{transform:translate(768px,64px)}38.03%{transform:translate(752px,64px)}38.87%{transform:translate(752px,16px)}40.28%{transform:translate(672px,16px)}40.56%,46.2%{transform:translate(672px,32px)}41.41%{transform:translate(720px,32px)}41.69%{transform:translate(720px,48px)}42.25%{transform:translate(688px,48px)}42.82%{transform:translate(688px,16px)}43.38%{transform:translate(656px,16px)}43.66%{transform:translate(656px,0)}44.51%,74.93%{transform:translate(608px,0)}45.07%{transform:translate(608px,32px)}46.76%{transform:translate(672px,0)}47.61%{transform:translate(720px,0)}47.89%{transform:translate(720px,16px)}48.17%,77.46%{transform:translate(736px,16px)}48.45%{transform:translate(736px,32px)}49.01%{transform:translate(768px,32px)}49.3%{transform:translate(768px,48px)}50.7%{transform:translate(848px,48px)}51.27%{transform:translate(848px,80px)}54.08%{transform:translate(688px,80px)}54.37%{transform:translate(688px,96px)}60%{transform:translate(384px,80px)}61.41%{transform:translate(384px,0)}62.25%{transform:translate(336px,0)}63.38%{transform:translate(336px,64px)}63.66%{transform:translate(320px,64px)}64.23%{transform:translate(320px,32px)}66.76%{transform:translate(176px,32px)}67.04%{transform:translate(176px,16px)}74.65%{transform:translate(608px,16px)}77.18%{transform:translate(736px,0)}79.44%{transform:translate(624px,16px)}79.72%{transform:translate(624px,32px)}83.38%{transform:translate(832px,32px)}83.94%{transform:translate(832px,64px)}97.18%{transform:translate(80px,64px)}98.03%{transform:translate(80px,16px)}98.59%{transform:translate(48px,16px)}99.15%{transform:translate(48px,-16px)}}@keyframes s2{0%,99.72%{transform:translate(32px,-16px)}.56%{transform:translate(0,-16px)}.85%{transform:translate(0,0)}4.23%{transform:translate(192px,0)}4.51%{transform:translate(192px,16px)}5.35%{transform:translate(144px,16px)}6.48%{transform:translate(144px,80px)}7.61%{transform:translate(208px,80px)}7.89%{transform:translate(208px,64px)}8.45%{transform:translate(240px,64px)}9.58%{transform:translate(240px,0)}11.55%{transform:translate(352px,0)}12.39%{transform:translate(352px,48px)}12.96%{transform:translate(384px,48px)}13.24%{transform:translate(384px,32px)}13.8%{transform:translate(416px,32px)}14.37%{transform:translate(416px,0)}15.77%{transform:translate(496px,0)}16.06%{transform:translate(496px,16px)}16.34%{transform:translate(480px,16px)}17.18%{transform:translate(480px,64px)}19.15%,25.35%{transform:translate(368px,64px)}19.72%{transform:translate(368px,96px)}20.28%{transform:translate(336px,96px)}20.56%{transform:translate(336px,80px)}21.97%{transform:translate(256px,80px)}22.25%{transform:translate(256px,96px)}22.54%{transform:translate(240px,96px)}22.82%{transform:translate(240px,80px)}25.07%{transform:translate(368px,80px)}29.58%{transform:translate(608px,64px)}30.14%{transform:translate(608px,96px)}31.27%,54.93%{transform:translate(672px,96px)}31.55%,55.21%{transform:translate(672px,80px)}32.11%{transform:translate(704px,80px)}32.68%{transform:translate(704px,48px)}33.52%{transform:translate(752px,48px)}34.37%{transform:translate(752px,0)}35.21%{transform:translate(800px,0)}35.49%{transform:translate(800px,16px)}35.77%{transform:translate(816px,16px)}36.34%{transform:translate(816px,48px)}36.9%{transform:translate(784px,48px)}37.46%{transform:translate(784px,80px)}37.75%{transform:translate(768px,80px)}38.03%{transform:translate(768px,64px)}38.31%{transform:translate(752px,64px)}39.15%{transform:translate(752px,16px)}40.56%{transform:translate(672px,16px)}40.85%,46.48%{transform:translate(672px,32px)}41.69%{transform:translate(720px,32px)}41.97%{transform:translate(720px,48px)}42.54%{transform:translate(688px,48px)}43.1%{transform:translate(688px,16px)}43.66%{transform:translate(656px,16px)}43.94%{transform:translate(656px,0)}44.79%,75.21%{transform:translate(608px,0)}45.35%{transform:translate(608px,32px)}47.04%{transform:translate(672px,0)}47.89%{transform:translate(720px,0)}48.17%{transform:translate(720px,16px)}48.45%,77.75%{transform:translate(736px,16px)}48.73%{transform:translate(736px,32px)}49.3%{transform:translate(768px,32px)}49.58%{transform:translate(768px,48px)}50.99%{transform:translate(848px,48px)}51.55%{transform:translate(848px,80px)}54.37%{transform:translate(688px,80px)}54.65%{transform:translate(688px,96px)}60.28%{transform:translate(384px,80px)}61.69%{transform:translate(384px,0)}62.54%{transform:translate(336px,0)}63.66%{transform:translate(336px,64px)}63.94%{transform:translate(320px,64px)}64.51%{transform:translate(320px,32px)}67.04%{transform:translate(176px,32px)}67.32%{transform:translate(176px,16px)}74.93%{transform:translate(608px,16px)}77.46%{transform:translate(736px,0)}79.72%{transform:translate(624px,16px)}80%{transform:translate(624px,32px)}83.66%{transform:translate(832px,32px)}84.23%{transform:translate(832px,64px)}97.46%{transform:translate(80px,64px)}98.31%{transform:translate(80px,16px)}98.87%{transform:translate(48px,16px)}99.44%{transform:translate(48px,-16px)}}@keyframes s3{0%,99.72%{transform:translate(48px,-16px)}.85%{transform:translate(0,-16px)}1.13%{transform:translate(0,0)}4.51%{transform:translate(192px,0)}4.79%{transform:translate(192px,16px)}5.63%{transform:translate(144px,16px)}6.76%{transform:translate(144px,80px)}7.89%{transform:translate(208px,80px)}8.17%{transform:translate(208px,64px)}8.73%{transform:translate(240px,64px)}9.86%{transform:translate(240px,0)}11.83%{transform:translate(352px,0)}12.68%{transform:translate(352px,48px)}13.24%{transform:translate(384px,48px)}13.52%{transform:translate(384px,32px)}14.08%{transform:translate(416px,32px)}14.65%{transform:translate(416px,0)}16.06%{transform:translate(496px,0)}16.34%{transform:translate(496px,16px)}16.62%{transform:translate(480px,16px)}17.46%{transform:translate(480px,64px)}19.44%,25.63%{transform:translate(368px,64px)}20%{transform:translate(368px,96px)}20.56%{transform:translate(336px,96px)}20.85%{transform:translate(336px,80px)}22.25%{transform:translate(256px,80px)}22.54%{transform:translate(256px,96px)}22.82%{transform:translate(240px,96px)}23.1%{transform:translate(240px,80px)}25.35%{transform:translate(368px,80px)}29.86%{transform:translate(608px,64px)}30.42%{transform:translate(608px,96px)}31.55%,55.21%{transform:translate(672px,96px)}31.83%,55.49%{transform:translate(672px,80px)}32.39%{transform:translate(704px,80px)}32.96%{transform:translate(704px,48px)}33.8%{transform:translate(752px,48px)}34.65%{transform:translate(752px,0)}35.49%{transform:translate(800px,0)}35.77%{transform:translate(800px,16px)}36.06%{transform:translate(816px,16px)}36.62%{transform:translate(816px,48px)}37.18%{transform:translate(784px,48px)}37.75%{transform:translate(784px,80px)}38.03%{transform:translate(768px,80px)}38.31%{transform:translate(768px,64px)}38.59%{transform:translate(752px,64px)}39.44%{transform:translate(752px,16px)}40.85%{transform:translate(672px,16px)}41.13%,46.76%{transform:translate(672px,32px)}41.97%{transform:translate(720px,32px)}42.25%{transform:translate(720px,48px)}42.82%{transform:translate(688px,48px)}43.38%{transform:translate(688px,16px)}43.94%{transform:translate(656px,16px)}44.23%{transform:translate(656px,0)}45.07%,75.49%{transform:translate(608px,0)}45.63%{transform:translate(608px,32px)}47.32%{transform:translate(672px,0)}48.17%{transform:translate(720px,0)}48.45%{transform:translate(720px,16px)}48.73%,78.03%{transform:translate(736px,16px)}49.01%{transform:translate(736px,32px)}49.58%{transform:translate(768px,32px)}49.86%{transform:translate(768px,48px)}51.27%{transform:translate(848px,48px)}51.83%{transform:translate(848px,80px)}54.65%{transform:translate(688px,80px)}54.93%{transform:translate(688px,96px)}60.56%{transform:translate(384px,80px)}61.97%{transform:translate(384px,0)}62.82%{transform:translate(336px,0)}63.94%{transform:translate(336px,64px)}64.23%{transform:translate(320px,64px)}64.79%{transform:translate(320px,32px)}67.32%{transform:translate(176px,32px)}67.61%{transform:translate(176px,16px)}75.21%{transform:translate(608px,16px)}77.75%{transform:translate(736px,0)}80%{transform:translate(624px,16px)}80.28%{transform:translate(624px,32px)}83.94%{transform:translate(832px,32px)}84.51%{transform:translate(832px,64px)}97.75%{transform:translate(80px,64px)}98.59%{transform:translate(80px,16px)}99.15%{transform:translate(48px,16px)}}:root{--cb:#1b1f230a;--cs:purple;--ce:#ebedf0;--c0:#ebedf0;--c1:#9be9a8;--c2:#40c463;--c3:#30a14e;--c4:#216e39}@media (prefers-color-scheme:dark){:root{--cb:#1b1f230a;--cs:purple;--ce:#161b22;--c1:#01311f;--c2:#034525;--c3:#0f6d31;--c4:#00c647}}.c{shape-rendering:geometricPrecision;rx:2;ry:2;fill:var(--ce);stroke-width:1px;stroke:var(--cb);animation:none 35500ms linear infinite}.c.c0{fill:var(--c1);animation-name:c0}.c.c1,.c.c2,.c.c3{fill:var(--c1);animation-name:c1}.c.c2,.c.c3{animation-name:c2}.c.c3{animation-name:c3}.c.c4{fill:var(--c3);animation-name:c4}.c.c5,.c.c6{fill:var(--c1);animation-name:c5}.c.c6{animation-name:c6}.c.c7,.c.c8,.c.c9{fill:var(--c1);animation-name:c7}.c.c8,.c.c9{animation-name:c8}.c.c9{animation-name:c9}.c.ca,.c.cb,.c.cc{fill:var(--c1);animation-name:ca}.c.cb,.c.cc{animation-name:cb}.c.cc{animation-name:cc}.c.cd,.c.ce{fill:var(--c2);animation-name:cd}.c.ce{animation-name:ce}.c.cf,.c.cg,.c.ch{fill:var(--c1);animation-name:cf}.c.cg,.c.ch{animation-name:cg}.c.ch{animation-name:ch}.c.ci,.c.cj,.c.ck{fill:var(--c1);animation-name:ci}.c.cj,.c.ck{animation-name:cj}.c.ck{animation-name:ck}.c.cl,.c.cm{fill:var(--c2);animation-name:cl}.c.cm{animation-name:cm}.c.cn,.c.co{fill:var(--c1);animation-name:cn}.c.co{animation-name:co}.c.cp{fill:var(--c2);animation-name:cp}.c.cq,.c.cr{fill:var(--c1);animation-name:cq}.c.cr{animation-name:cr}.c.cs{fill:var(--c2);animation-name:cs}.c.ct,.c.cu,.c.cv{fill:var(--c1);animation-name:ct}.c.cu,.c.cv{animation-name:cu}.c.cv{animation-name:cv}.c.cw,.c.cx,.c.cy{fill:var(--c1);animation-name:cw}.c.cx,.c.cy{animation-name:cx}.c.cy{animation-name:cy}.c.c10,.c.c11,.c.cz{fill:var(--c1);animation-name:cz}.c.c10,.c.c11{animation-name:c10}.c.c11{animation-name:c11}.c.c12{fill:var(--c4);animation-name:c12}.c.c13,.c.c14{fill:var(--c2);animation-name:c13}.c.c14{animation-name:c14}.c.c15,.c.c16,.c.c17{fill:var(--c1);animation-name:c15}.c.c16,.c.c17{animation-name:c16}.c.c17{animation-name:c17}.c.c18{fill:var(--c2);animation-name:c18}.c.c19,.c.c1a,.c.c1b{fill:var(--c1);animation-name:c19}.c.c1a,.c.c1b{animation-name:c1a}.c.c1b{animation-name:c1b}.c.c1c{fill:var(--c2);animation-name:c1c}.c.c1d{fill:var(--c1);animation-name:c1d}.c.c1e,.c.c1f,.c.c1g{fill:var(--c1);animation-name:c1e}.c.c1f,.c.c1g{animation-name:c1f}.c.c1g{animation-name:c1g}.c.c1h{fill:var(--c2);animation-name:c1h}.c.c1i,.c.c1j,.c.c1k{fill:var(--c1);animation-name:c1i}.c.c1j,.c.c1k{animation-name:c1j}.c.c1k{animation-name:c1k}.c.c1l{fill:var(--c3);animation-name:c1l}.c.c1m{fill:var(--c2);animation-name:c1m}.c.c1n{fill:var(--c1);animation-name:c1n}.c.c1o{fill:var(--c2);animation-name:c1o}.c.c1p,.c.c1q{fill:var(--c1);animation-name:c1p}.c.c1q{animation-name:c1q}.c.c1r{fill:var(--c2);animation-name:c1r}.c.c1s{fill:var(--c1);animation-name:c1s}.c.c1t,.c.c1u,.c.c1v{fill:var(--c1);animation-name:c1t}.c.c1u,.c.c1v{animation-name:c1u}.c.c1v{animation-name:c1v}.c.c1w,.c.c1x{fill:var(--c2);animation-name:c1w}.c.c1x{animation-name:c1x}.c.c1y{fill:var(--c4);animation-name:c1y}.s,.u{animation:none linear 35500ms infinite}.u,.u.u0{transform-origin:0 0}.u{transform:scale(0,1)}.u.u0{fill:var(--c1);animation-name:u0}.u.u1{fill:var(--c2);animation-name:u1;transform-origin:609.1px 0}.u.u2{fill:var(--c3);animation-name:u2;transform-origin:800.2px 0}.u.u3{fill:var(--c4);animation-name:u3;transform-origin:824.1px 0}.s{shape-rendering:geometricPrecision;fill:var(--cs)}.s.s0{transform:translate(0,-16px);animation-name:s0}.s.s1{transform:translate(16px,-16px);animation-name:s1}.s.s2{transform:translate(32px,-16px);animation-name:s2}.s.s3{transform:translate(48px,-16px);animation-name:s3}</style><rect class="c" x="2" y="2" width="12" height="12"/><rect class="c" x="2" y="18" width="12" height="12"/><rect class="c" x="2" y="34" width="12" height="12"/><rect class="c" x="2" y="50" width="12" height="12"/><rect class="c" x="2" y="66" width="12" height="12"/><rect class="c" x="2" y="82" width="12" height="12"/><rect class="c" x="2" y="98" width="12" height="12"/><rect class="c" x="18" y="2" width="12" height="12"/><rect class="c" x="18" y="18" width="12" height="12"/><rect class="c" x="18" y="34" width="12" height="12"/><rect class="c" x="18" y="50" width="12" height="12"/><rect class="c" x="18" y="66" width="12" height="12"/><rect class="c" x="18" y="82" width="12" height="12"/><rect class="c" x="18" y="98" width="12" height="12"/><rect class="c" x="34" y="2" width="12" height="12"/><rect class="c" x="34" y="18" width="12" height="12"/><rect class="c" x="34" y="34" width="12" height="12"/><rect class="c" x="34" y="50" width="12" height="12"/><rect class="c" x="34" y="66" width="12" height="12"/><rect class="c" x="34" y="82" width="12" height="12"/><rect class="c" x="34" y="98" width="12" height="12"/><rect class="c" x="50" y="2" width="12" height="12"/><rect class="c" x="50" y="18" width="12" height="12"/><rect class="c" x="50" y="34" width="12" height="12"/><rect class="c" x="50" y="50" width="12" height="12"/><rect class="c" x="50" y="66" width="12" height="12"/><rect class="c" x="50" y="82" width="12" height="12"/><rect class="c" x="50" y="98" width="12" height="12"/><rect class="c" x="66" y="2" width="12" height="12"/><rect class="c" x="66" y="18" width="12" height="12"/><rect class="c" x="66" y="34" width="12" height="12"/><rect class="c" x="66" y="50" width="12" height="12"/><rect class="c" x="66" y="66" width="12" height="12"/><rect class="c" x="66" y="82" width="12" height="12"/><rect class="c" x="66" y="98" width="12" height="12"/><rect class="c" x="82" y="2" width="12" height="12"/><rect class="c" x="82" y="18" width="12" height="12"/><rect class="c" x="82" y="34" width="12" height="12"/><rect class="c" x="82" y="50" width="12" height="12"/><rect class="c" x="82" y="66" width="12" height="12"/><rect class="c" x="82" y="82" width="12" height="12"/><rect class="c" x="82" y="98" width="12" height="12"/><rect class="c" x="98" y="2" width="12" height="12"/><rect class="c" x="98" y="18" width="12" height="12"/><rect class="c" x="98" y="34" width="12" height="12"/><rect class="c" x="98" y="50" width="12" height="12"/><rect class="c" x="98" y="66" width="12" height="12"/><rect class="c" x="98" y="82" width="12" height="12"/><rect class="c" x="98" y="98" width="12" height="12"/><rect class="c" x="114" y="2" width="12" height="12"/><rect class="c" x="114" y="18" width="12" height="12"/><rect class="c" x="114" y="34" width="12" height="12"/><rect class="c" x="114" y="50" width="12" height="12"/><rect class="c" x="114" y="66" width="12" height="12"/><rect class="c" x="114" y="82" width="12" height="12"/><rect class="c" x="114" y="98" width="12" height="12"/><rect class="c" x="130" y="2" width="12" height="12"/><rect class="c" x="130" y="18" width="12" height="12"/><rect class="c" x="130" y="34" width="12" height="12"/><rect class="c" x="130" y="50" width="12" height="12"/><rect class="c" x="130" y="66" width="12" height="12"/><rect class="c" x="130" y="82" width="12" height="12"/><rect class="c" x="130" y="98" width="12" height="12"/><rect class="c" x="146" y="2" width="12" height="12"/><rect class="c" x="146" y="18" width="12" height="12"/><rect class="c" x="146" y="34" width="12" height="12"/><rect class="c" x="146" y="50" width="12" height="12"/><rect class="c" x="146" y="66" width="12" height="12"/><rect class="c c0" x="146" y="82" width="12" height="12"/><rect class="c" x="146" y="98" width="12" height="12"/><rect class="c" x="162" y="2" width="12" height="12"/><rect class="c c1" x="162" y="18" width="12" height="12"/><rect class="c" x="162" y="34" width="12" height="12"/><rect class="c" x="162" y="50" width="12" height="12"/><rect class="c" x="162" y="66" width="12" height="12"/><rect class="c" x="162" y="82" width="12" height="12"/><rect class="c" x="162" y="98" width="12" height="12"/><rect class="c c2" x="178" y="2" width="12" height="12"/><rect class="c c3" x="178" y="18" width="12" height="12"/><rect class="c c4" x="178" y="34" width="12" height="12"/><rect class="c" x="178" y="50" width="12" height="12"/><rect class="c" x="178" y="66" width="12" height="12"/><rect class="c" x="178" y="82" width="12" height="12"/><rect class="c" x="178" y="98" width="12" height="12"/><rect class="c c5" x="194" y="2" width="12" height="12"/><rect class="c c6" x="194" y="18" width="12" height="12"/><rect class="c" x="194" y="34" width="12" height="12"/><rect class="c" x="194" y="50" width="12" height="12"/><rect class="c" x="194" y="66" width="12" height="12"/><rect class="c" x="194" y="82" width="12" height="12"/><rect class="c" x="194" y="98" width="12" height="12"/><rect class="c" x="210" y="2" width="12" height="12"/><rect class="c" x="210" y="18" width="12" height="12"/><rect class="c" x="210" y="34" width="12" height="12"/><rect class="c" x="210" y="50" width="12" height="12"/><rect class="c c7" x="210" y="66" width="12" height="12"/><rect class="c c8" x="210" y="82" width="12" height="12"/><rect class="c" x="210" y="98" width="12" height="12"/><rect class="c" x="226" y="2" width="12" height="12"/><rect class="c" x="226" y="18" width="12" height="12"/><rect class="c" x="226" y="34" width="12" height="12"/><rect class="c" x="226" y="50" width="12" height="12"/><rect class="c" x="226" y="66" width="12" height="12"/><rect class="c" x="226" y="82" width="12" height="12"/><rect class="c" x="226" y="98" width="12" height="12"/><rect class="c c9" x="242" y="2" width="12" height="12"/><rect class="c" x="242" y="18" width="12" height="12"/><rect class="c" x="242" y="34" width="12" height="12"/><rect class="c ca" x="242" y="50" width="12" height="12"/><rect class="c" x="242" y="66" width="12" height="12"/><rect class="c" x="242" y="82" width="12" height="12"/><rect class="c cb" x="242" y="98" width="12" height="12"/><rect class="c" x="258" y="2" width="12" height="12"/><rect class="c" x="258" y="18" width="12" height="12"/><rect class="c" x="258" y="34" width="12" height="12"/><rect class="c" x="258" y="50" width="12" height="12"/><rect class="c" x="258" y="66" width="12" height="12"/><rect class="c" x="258" y="82" width="12" height="12"/><rect class="c cc" x="258" y="98" width="12" height="12"/><rect class="c" x="274" y="2" width="12" height="12"/><rect class="c" x="274" y="18" width="12" height="12"/><rect class="c" x="274" y="34" width="12" height="12"/><rect class="c" x="274" y="50" width="12" height="12"/><rect class="c" x="274" y="66" width="12" height="12"/><rect class="c" x="274" y="82" width="12" height="12"/><rect class="c" x="274" y="98" width="12" height="12"/><rect class="c" x="290" y="2" width="12" height="12"/><rect class="c" x="290" y="18" width="12" height="12"/><rect class="c" x="290" y="34" width="12" height="12"/><rect class="c" x="290" y="50" width="12" height="12"/><rect class="c" x="290" y="66" width="12" height="12"/><rect class="c" x="290" y="82" width="12" height="12"/><rect class="c" x="290" y="98" width="12" height="12"/><rect class="c" x="306" y="2" width="12" height="12"/><rect class="c" x="306" y="18" width="12" height="12"/><rect class="c" x="306" y="34" width="12" height="12"/><rect class="c" x="306" y="50" width="12" height="12"/><rect class="c" x="306" y="66" width="12" height="12"/><rect class="c" x="306" y="82" width="12" height="12"/><rect class="c" x="306" y="98" width="12" height="12"/><rect class="c" x="322" y="2" width="12" height="12"/><rect class="c" x="322" y="18" width="12" height="12"/><rect class="c" x="322" y="34" width="12" height="12"/><rect class="c" x="322" y="50" width="12" height="12"/><rect class="c" x="322" y="66" width="12" height="12"/><rect class="c" x="322" y="82" width="12" height="12"/><rect class="c" x="322" y="98" width="12" height="12"/><rect class="c" x="338" y="2" width="12" height="12"/><rect class="c" x="338" y="18" width="12" height="12"/><rect class="c" x="338" y="34" width="12" height="12"/><rect class="c cd" x="338" y="50" width="12" height="12"/><rect class="c ce" x="338" y="66" width="12" height="12"/><rect class="c cf" x="338" y="82" width="12" height="12"/><rect class="c cg" x="338" y="98" width="12" height="12"/><rect class="c ch" x="354" y="2" width="12" height="12"/><rect class="c" x="354" y="18" width="12" height="12"/><rect class="c" x="354" y="34" width="12" height="12"/><rect class="c ci" x="354" y="50" width="12" height="12"/><rect class="c" x="354" y="66" width="12" height="12"/><rect class="c" x="354" y="82" width="12" height="12"/><rect class="c" x="354" y="98" width="12" height="12"/><rect class="c" x="370" y="2" width="12" height="12"/><rect class="c" x="370" y="18" width="12" height="12"/><rect class="c" x="370" y="34" width="12" height="12"/><rect class="c cj" x="370" y="50" width="12" height="12"/><rect class="c" x="370" y="66" width="12" height="12"/><rect class="c" x="370" y="82" width="12" height="12"/><rect class="c ck" x="370" y="98" width="12" height="12"/><rect class="c cl" x="386" y="2" width="12" height="12"/><rect class="c cm" x="386" y="18" width="12" height="12"/><rect class="c cn" x="386" y="34" width="12" height="12"/><rect class="c" x="386" y="50" width="12" height="12"/><rect class="c co" x="386" y="66" width="12" height="12"/><rect class="c cp" x="386" y="82" width="12" height="12"/><rect class="c" x="386" y="98" width="12" height="12"/><rect class="c" x="402" y="2" width="12" height="12"/><rect class="c" x="402" y="18" width="12" height="12"/><rect class="c" x="402" y="34" width="12" height="12"/><rect class="c" x="402" y="50" width="12" height="12"/><rect class="c" x="402" y="66" width="12" height="12"/><rect class="c" x="402" y="82" width="12" height="12"/><rect class="c" x="402" y="98" width="12" height="12"/><rect class="c cq" x="418" y="2" width="12" height="12"/><rect class="c cr" x="418" y="18" width="12" height="12"/><rect class="c" x="418" y="34" width="12" height="12"/><rect class="c" x="418" y="50" width="12" height="12"/><rect class="c" x="418" y="66" width="12" height="12"/><rect class="c" x="418" y="82" width="12" height="12"/><rect class="c" x="418" y="98" width="12" height="12"/><rect class="c" x="434" y="2" width="12" height="12"/><rect class="c" x="434" y="18" width="12" height="12"/><rect class="c" x="434" y="34" width="12" height="12"/><rect class="c" x="434" y="50" width="12" height="12"/><rect class="c" x="434" y="66" width="12" height="12"/><rect class="c" x="434" y="82" width="12" height="12"/><rect class="c" x="434" y="98" width="12" height="12"/><rect class="c" x="450" y="2" width="12" height="12"/><rect class="c" x="450" y="18" width="12" height="12"/><rect class="c" x="450" y="34" width="12" height="12"/><rect class="c" x="450" y="50" width="12" height="12"/><rect class="c" x="450" y="66" width="12" height="12"/><rect class="c" x="450" y="82" width="12" height="12"/><rect class="c" x="450" y="98" width="12" height="12"/><rect class="c" x="466" y="2" width="12" height="12"/><rect class="c" x="466" y="18" width="12" height="12"/><rect class="c" x="466" y="34" width="12" height="12"/><rect class="c" x="466" y="50" width="12" height="12"/><rect class="c" x="466" y="66" width="12" height="12"/><rect class="c cs" x="466" y="82" width="12" height="12"/><rect class="c" x="466" y="98" width="12" height="12"/><rect class="c" x="482" y="2" width="12" height="12"/><rect class="c" x="482" y="18" width="12" height="12"/><rect class="c" x="482" y="34" width="12" height="12"/><rect class="c ct" x="482" y="50" width="12" height="12"/><rect class="c cu" x="482" y="66" width="12" height="12"/><rect class="c" x="482" y="82" width="12" height="12"/><rect class="c" x="482" y="98" width="12" height="12"/><rect class="c cv" x="498" y="2" width="12" height="12"/><rect class="c" x="498" y="18" width="12" height="12"/><rect class="c" x="498" y="34" width="12" height="12"/><rect class="c" x="498" y="50" width="12" height="12"/><rect class="c" x="498" y="66" width="12" height="12"/><rect class="c" x="498" y="82" width="12" height="12"/><rect class="c" x="498" y="98" width="12" height="12"/><rect class="c" x="514" y="2" width="12" height="12"/><rect class="c" x="514" y="18" width="12" height="12"/><rect class="c" x="514" y="34" width="12" height="12"/><rect class="c" x="514" y="50" width="12" height="12"/><rect class="c" x="514" y="66" width="12" height="12"/><rect class="c" x="514" y="82" width="12" height="12"/><rect class="c" x="514" y="98" width="12" height="12"/><rect class="c" x="530" y="2" width="12" height="12"/><rect class="c" x="530" y="18" width="12" height="12"/><rect class="c" x="530" y="34" width="12" height="12"/><rect class="c" x="530" y="50" width="12" height="12"/><rect class="c" x="530" y="66" width="12" height="12"/><rect class="c" x="530" y="82" width="12" height="12"/><rect class="c" x="530" y="98" width="12" height="12"/><rect class="c" x="546" y="2" width="12" height="12"/><rect class="c" x="546" y="18" width="12" height="12"/><rect class="c" x="546" y="34" width="12" height="12"/><rect class="c" x="546" y="50" width="12" height="12"/><rect class="c" x="546" y="66" width="12" height="12"/><rect class="c" x="546" y="82" width="12" height="12"/><rect class="c" x="546" y="98" width="12" height="12"/><rect class="c" x="562" y="2" width="12" height="12"/><rect class="c" x="562" y="18" width="12" height="12"/><rect class="c" x="562" y="34" width="12" height="12"/><rect class="c" x="562" y="50" width="12" height="12"/><rect class="c" x="562" y="66" width="12" height="12"/><rect class="c" x="562" y="82" width="12" height="12"/><rect class="c" x="562" y="98" width="12" height="12"/><rect class="c" x="578" y="2" width="12" height="12"/><rect class="c" x="578" y="18" width="12" height="12"/><rect class="c" x="578" y="34" width="12" height="12"/><rect class="c" x="578" y="50" width="12" height="12"/><rect class="c" x="578" y="66" width="12" height="12"/><rect class="c" x="578" y="82" width="12" height="12"/><rect class="c" x="578" y="98" width="12" height="12"/><rect class="c" x="594" y="2" width="12" height="12"/><rect class="c" x="594" y="18" width="12" height="12"/><rect class="c" x="594" y="34" width="12" height="12"/><rect class="c" x="594" y="50" width="12" height="12"/><rect class="c cw" x="594" y="66" width="12" height="12"/><rect class="c" x="594" y="82" width="12" height="12"/><rect class="c" x="594" y="98" width="12" height="12"/><rect class="c" x="610" y="2" width="12" height="12"/><rect class="c cx" x="610" y="18" width="12" height="12"/><rect class="c" x="610" y="34" width="12" height="12"/><rect class="c" x="610" y="50" width="12" height="12"/><rect class="c cy" x="610" y="66" width="12" height="12"/><rect class="c cz" x="610" y="82" width="12" height="12"/><rect class="c c10" x="610" y="98" width="12" height="12"/><rect class="c c11" x="626" y="2" width="12" height="12"/><rect class="c c12" x="626" y="18" width="12" height="12"/><rect class="c c13" x="626" y="34" width="12" height="12"/><rect class="c" x="626" y="50" width="12" height="12"/><rect class="c" x="626" y="66" width="12" height="12"/><rect class="c" x="626" y="82" width="12" height="12"/><rect class="c" x="626" y="98" width="12" height="12"/><rect class="c" x="642" y="2" width="12" height="12"/><rect class="c" x="642" y="18" width="12" height="12"/><rect class="c" x="642" y="34" width="12" height="12"/><rect class="c" x="642" y="50" width="12" height="12"/><rect class="c" x="642" y="66" width="12" height="12"/><rect class="c" x="642" y="82" width="12" height="12"/><rect class="c" x="642" y="98" width="12" height="12"/><rect class="c" x="658" y="2" width="12" height="12"/><rect class="c" x="658" y="18" width="12" height="12"/><rect class="c" x="658" y="34" width="12" height="12"/><rect class="c" x="658" y="50" width="12" height="12"/><rect class="c" x="658" y="66" width="12" height="12"/><rect class="c" x="658" y="82" width="12" height="12"/><rect class="c" x="658" y="98" width="12" height="12"/><rect class="c c14" x="674" y="2" width="12" height="12"/><rect class="c" x="674" y="18" width="12" height="12"/><rect class="c c15" x="674" y="34" width="12" height="12"/><rect class="c" x="674" y="50" width="12" height="12"/><rect class="c" x="674" y="66" width="12" height="12"/><rect class="c c16" x="674" y="82" width="12" height="12"/><rect class="c c17" x="674" y="98" width="12" height="12"/><rect class="c c18" x="690" y="2" width="12" height="12"/><rect class="c c19" x="690" y="18" width="12" height="12"/><rect class="c" x="690" y="34" width="12" height="12"/><rect class="c c1a" x="690" y="50" width="12" height="12"/><rect class="c" x="690" y="66" width="12" height="12"/><rect class="c c1b" x="690" y="82" width="12" height="12"/><rect class="c c1c" x="690" y="98" width="12" height="12"/><rect class="c" x="706" y="2" width="12" height="12"/><rect class="c c1d" x="706" y="18" width="12" height="12"/><rect class="c c1e" x="706" y="34" width="12" height="12"/><rect class="c c1f" x="706" y="50" width="12" height="12"/><rect class="c" x="706" y="66" width="12" height="12"/><rect class="c c1g" x="706" y="82" width="12" height="12"/><rect class="c" x="706" y="98" width="12" height="12"/><rect class="c c1h" x="722" y="2" width="12" height="12"/><rect class="c c1i" x="722" y="18" width="12" height="12"/><rect class="c c1j" x="722" y="34" width="12" height="12"/><rect class="c c1k" x="722" y="50" width="12" height="12"/><rect class="c" x="722" y="66" width="12" height="12"/><rect class="c" x="722" y="82" width="12" height="12"/><rect class="c" x="722" y="98" width="12" height="12"/><rect class="c c1l" x="738" y="2" width="12" height="12"/><rect class="c" x="738" y="18" width="12" height="12"/><rect class="c c1m" x="738" y="34" width="12" height="12"/><rect class="c c1n" x="738" y="50" width="12" height="12"/><rect class="c" x="738" y="66" width="12" height="12"/><rect class="c c1o" x="738" y="82" width="12" height="12"/><rect class="c" x="738" y="98" width="12" height="12"/><rect class="c c1p" x="754" y="2" width="12" height="12"/><rect class="c c1q" x="754" y="18" width="12" height="12"/><rect class="c" x="754" y="34" width="12" height="12"/><rect class="c" x="754" y="50" width="12" height="12"/><rect class="c" x="754" y="66" width="12" height="12"/><rect class="c" x="754" y="82" width="12" height="12"/><rect class="c" x="754" y="98" width="12" height="12"/><rect class="c" x="770" y="2" width="12" height="12"/><rect class="c" x="770" y="18" width="12" height="12"/><rect class="c" x="770" y="34" width="12" height="12"/><rect class="c c1r" x="770" y="50" width="12" height="12"/><rect class="c" x="770" y="66" width="12" height="12"/><rect class="c" x="770" y="82" width="12" height="12"/><rect class="c" x="770" y="98" width="12" height="12"/><rect class="c" x="786" y="2" width="12" height="12"/><rect class="c" x="786" y="18" width="12" height="12"/><rect class="c" x="786" y="34" width="12" height="12"/><rect class="c" x="786" y="50" width="12" height="12"/><rect class="c" x="786" y="66" width="12" height="12"/><rect class="c c1s" x="786" y="82" width="12" height="12"/><rect class="c" x="786" y="98" width="12" height="12"/><rect class="c" x="802" y="2" width="12" height="12"/><rect class="c c1t" x="802" y="18" width="12" height="12"/><rect class="c" x="802" y="34" width="12" height="12"/><rect class="c" x="802" y="50" width="12" height="12"/><rect class="c" x="802" y="66" width="12" height="12"/><rect class="c" x="802" y="82" width="12" height="12"/><rect class="c" x="802" y="98" width="12" height="12"/><rect class="c" x="818" y="2" width="12" height="12"/><rect class="c c1u" x="818" y="18" width="12" height="12"/><rect class="c" x="818" y="34" width="12" height="12"/><rect class="c c1v" x="818" y="50" width="12" height="12"/><rect class="c" x="818" y="66" width="12" height="12"/><rect class="c c1w" x="818" y="82" width="12" height="12"/><rect class="c" x="818" y="98" width="12" height="12"/><rect class="c" x="834" y="2" width="12" height="12"/><rect class="c" x="834" y="18" width="12" height="12"/><rect class="c" x="834" y="34" width="12" height="12"/><rect class="c c1x" x="834" y="50" width="12" height="12"/><rect class="c c1y" x="834" y="66" width="12" height="12"/><rect class="u u0" height="12" width="609.7" x="0.0" y="144"/><rect class="u u1" height="12" width="191.7" x="609.1" y="144"/><rect class="u u2" height="12" width="24.5" x="800.2" y="144"/><rect class="u u3" height="12" width="24.5" x="824.1" y="144"/><rect class="s s0" x="0.8" y="0.8" width="14.4" height="14.4" rx="4.5" ry="4.5"/><rect class="s s1" x="1.8" y="1.8" width="12.3" height="12.3" rx="4.1" ry="4.1"/><rect class="s s2" x="2.6" y="2.6" width="10.8" height="10.8" rx="3.6" ry="3.6"/><rect class="s s3" x="3.0" y="3.0" width="9.9" height="9.9" rx="3.3" ry="3.3"/></svg>