<svg viewBox="-16 -32 880 192" width="880" height="192" xmlns="http://www.w3.org/2000/svg"><desc>Generated with https://github.com/Platane/snk</desc><style>@keyframes c0{45.57%{fill:var(--c1)}45.59%,to{fill:var(--ce)}}@keyframes c1{1.4%{fill:var(--c1)}1.42%,to{fill:var(--ce)}}@keyframes c2{4.23%{fill:var(--c1)}4.25%,to{fill:var(--ce)}}@keyframes c3{49.46%{fill:var(--c2)}49.48%,to{fill:var(--ce)}}@keyframes c4{2.82%{fill:var(--c1)}2.84%,to{fill:var(--ce)}}@keyframes c5{3.88%{fill:var(--c1)}3.9%,to{fill:var(--ce)}}@keyframes c6{4.94%{fill:var(--c1)}4.96%,to{fill:var(--ce)}}@keyframes c7{9.53%{fill:var(--c1)}9.55%,to{fill:var(--ce)}}@keyframes c8{3.17%{fill:var(--c1)}3.19%,to{fill:var(--ce)}}@keyframes c9{3.52%{fill:var(--c1)}3.54%,to{fill:var(--ce)}}@keyframes ca{5.29%{fill:var(--c1)}5.31%,to{fill:var(--ce)}}@keyframes cb{78.44%{fill:var(--c3)}78.46%,to{fill:var(--ce)}}@keyframes cc{78.08%{fill:var(--c3)}78.1%,to{fill:var(--ce)}}@keyframes cd{80.2%{fill:var(--c3)}80.22%,to{fill:var(--ce)}}@keyframes ce{6.7%{fill:var(--c1)}6.72%,to{fill:var(--ce)}}@keyframes cf{51.58%{fill:var(--c2)}51.6%,to{fill:var(--ce)}}@keyframes cg{13.06%{fill:var(--c1)}13.08%,to{fill:var(--ce)}}@keyframes ch{13.77%{fill:var(--c1)}13.79%,to{fill:var(--ce)}}@keyframes ci{14.12%{fill:var(--c1)}14.14%,to{fill:var(--ce)}}@keyframes cj{57.59%{fill:var(--c2)}57.61%,to{fill:var(--ce)}}@keyframes ck{15.54%{fill:var(--c1)}15.56%,to{fill:var(--ce)}}@keyframes cl{15.89%{fill:var(--c1)}15.91%,to{fill:var(--ce)}}@keyframes cm{56.88%{fill:var(--c2)}56.9%,to{fill:var(--ce)}}@keyframes cn{19.78%{fill:var(--c1)}19.8%,to{fill:var(--ce)}}@keyframes co{86.21%{fill:var(--c4)}86.23%,to{fill:var(--ce)}}@keyframes cp{16.6%{fill:var(--c1)}16.62%,to{fill:var(--ce)}}@keyframes cq{17.3%{fill:var(--c1)}17.32%,to{fill:var(--ce)}}@keyframes cr{59.35%{fill:var(--c2)}59.37%,to{fill:var(--ce)}}@keyframes cs{71.01%{fill:var(--c3)}71.03%,to{fill:var(--ce)}}@keyframes ct{63.59%{fill:var(--c2)}63.61%,to{fill:var(--ce)}}@keyframes cu{63.95%{fill:var(--c3)}63.97%,to{fill:var(--ce)}}@keyframes cv{89.04%{fill:var(--c4)}89.06%,to{fill:var(--ce)}}@keyframes cw{65.71%{fill:var(--c3)}65.73%,to{fill:var(--ce)}}@keyframes cx{22.96%{fill:var(--c1)}22.98%,to{fill:var(--ce)}}@keyframes cy{61.83%{fill:var(--c2)}61.85%,to{fill:var(--ce)}}@keyframes cz{23.31%{fill:var(--c1)}23.33%,to{fill:var(--ce)}}@keyframes c10{67.48%{fill:var(--c3)}67.5%,to{fill:var(--ce)}}@keyframes c11{25.43%{fill:var(--c1)}25.45%,to{fill:var(--ce)}}@keyframes c12{28.97%{fill:var(--c1)}28.99%,to{fill:var(--ce)}}@keyframes c13{28.61%{fill:var(--c1)}28.63%,to{fill:var(--ce)}}@keyframes u0{1.4%{transform:scale(0,1)}1.42%,2.82%{transform:scale(.04,1)}2.84%,3.17%{transform:scale(.08,1)}3.19%,3.52%{transform:scale(.13,1)}3.54%,3.88%{transform:scale(.17,1)}3.9%,4.23%{transform:scale(.21,1)}4.25%,4.94%{transform:scale(.25,1)}4.96%,5.29%{transform:scale(.29,1)}5.31%,6.7%{transform:scale(.33,1)}6.72%,9.53%{transform:scale(.38,1)}13.06%,9.55%{transform:scale(.42,1)}13.08%,13.77%{transform:scale(.46,1)}13.79%,14.12%{transform:scale(.5,1)}14.14%,15.54%{transform:scale(.54,1)}15.56%,15.89%{transform:scale(.58,1)}15.91%,16.6%{transform:scale(.63,1)}16.62%,17.3%{transform:scale(.67,1)}17.32%,19.78%{transform:scale(.71,1)}19.8%,22.96%{transform:scale(.75,1)}22.98%,23.31%{transform:scale(.79,1)}23.33%,25.43%{transform:scale(.83,1)}25.45%,28.61%{transform:scale(.88,1)}28.63%,28.97%{transform:scale(.92,1)}28.99%,45.57%{transform:scale(.96,1)}45.59%,to{transform:scale(1,1)}}@keyframes u1{49.46%{transform:scale(0,1)}49.48%,51.58%{transform:scale(.14,1)}51.6%,56.88%{transform:scale(.29,1)}56.9%,57.59%{transform:scale(.43,1)}57.61%,59.35%{transform:scale(.57,1)}59.37%,61.83%{transform:scale(.71,1)}61.85%,63.59%{transform:scale(.86,1)}63.61%,to{transform:scale(1,1)}}@keyframes u2{63.95%{transform:scale(0,1)}63.97%,65.71%{transform:scale(.14,1)}65.73%,67.48%{transform:scale(.29,1)}67.5%,71.01%{transform:scale(.43,1)}71.03%,78.08%{transform:scale(.57,1)}78.1%,78.44%{transform:scale(.71,1)}78.46%,80.2%{transform:scale(.86,1)}80.22%,to{transform:scale(1,1)}}@keyframes u3{86.21%{transform:scale(0,1)}86.23%,89.04%{transform:scale(.5,1)}89.06%,to{transform:scale(1,1)}}@keyframes s0{0%,99.65%{transform:translate(0,-16px)}.35%{transform:translate(0,0)}1.06%{transform:translate(32px,0)}1.41%{transform:translate(32px,16px)}2.47%{transform:translate(80px,16px)}2.83%{transform:translate(80px,32px)}3.18%,8.83%{transform:translate(96px,32px)}3.53%{transform:translate(96px,48px)}4.24%{transform:translate(64px,48px)}4.59%{transform:translate(64px,64px)}6.01%{transform:translate(128px,64px)}6.71%{transform:translate(128px,96px)}7.07%{transform:translate(112px,96px)}8.48%{transform:translate(112px,32px)}9.54%,97.17%{transform:translate(96px,0)}13.43%{transform:translate(272px,0)}14.13%{transform:translate(272px,32px)}15.55%,55.83%{transform:translate(336px,32px)}16.25%{transform:translate(336px,64px)}16.61%{transform:translate(352px,64px)}17.31%{transform:translate(352px,96px)}17.67%{transform:translate(368px,96px)}19.43%{transform:translate(368px,16px)}19.79%,85.51%{transform:translate(352px,16px)}20.14%{transform:translate(352px,32px)}22.61%,33.92%,62.19%,65.02%{transform:translate(464px,32px)}22.97%,33.57%{transform:translate(464px,16px)}24.73%{transform:translate(544px,16px)}25.44%{transform:translate(544px,48px)}28.27%{transform:translate(672px,48px)}28.98%{transform:translate(672px,16px)}40.64%{transform:translate(160px,32px)}40.99%{transform:translate(160px,48px)}44.52%{transform:translate(0,48px)}45.58%{transform:translate(0,96px)}47.35%{transform:translate(80px,96px)}49.47%{transform:translate(80px,0)}50.88%{transform:translate(144px,0)}51.59%{transform:translate(144px,32px)}56.89%{transform:translate(336px,80px)}57.24%{transform:translate(320px,80px)}57.6%{transform:translate(320px,96px)}59.36%{transform:translate(400px,96px)}59.72%{transform:translate(400px,80px)}61.13%{transform:translate(464px,80px)}62.9%{transform:translate(432px,32px)}63.6%{transform:translate(432px,0)}64.31%{transform:translate(464px,0)}65.37%{transform:translate(448px,32px)}65.72%,88.34%{transform:translate(448px,48px)}67.14%{transform:translate(512px,48px)}67.49%{transform:translate(512px,32px)}69.61%{transform:translate(416px,32px)}71.02%{transform:translate(416px,96px)}78.09%{transform:translate(96px,96px)}78.45%{transform:translate(96px,80px)}78.8%{transform:translate(112px,80px)}80.21%{transform:translate(112px,16px)}86.22%{transform:translate(352px,48px)}89.05%{transform:translate(448px,16px)}96.82%{transform:translate(96px,16px)}98.23%{transform:translate(48px,0)}98.59%{transform:translate(48px,-16px)}}@keyframes s1{0%,99.65%{transform:translate(16px,-16px)}.35%{transform:translate(0,-16px)}.71%{transform:translate(0,0)}1.41%{transform:translate(32px,0)}1.77%{transform:translate(32px,16px)}2.83%{transform:translate(80px,16px)}3.18%{transform:translate(80px,32px)}3.53%,9.19%{transform:translate(96px,32px)}3.89%{transform:translate(96px,48px)}4.59%{transform:translate(64px,48px)}4.95%{transform:translate(64px,64px)}6.36%{transform:translate(128px,64px)}7.07%{transform:translate(128px,96px)}7.42%{transform:translate(112px,96px)}8.83%{transform:translate(112px,32px)}9.89%,97.53%{transform:translate(96px,0)}13.78%{transform:translate(272px,0)}14.49%{transform:translate(272px,32px)}15.9%,56.18%{transform:translate(336px,32px)}16.61%{transform:translate(336px,64px)}16.96%{transform:translate(352px,64px)}17.67%{transform:translate(352px,96px)}18.02%{transform:translate(368px,96px)}19.79%{transform:translate(368px,16px)}20.14%,85.87%{transform:translate(352px,16px)}20.49%{transform:translate(352px,32px)}22.97%,34.28%,62.54%,65.37%{transform:translate(464px,32px)}23.32%,33.92%{transform:translate(464px,16px)}25.09%{transform:translate(544px,16px)}25.8%{transform:translate(544px,48px)}28.62%{transform:translate(672px,48px)}29.33%{transform:translate(672px,16px)}40.99%{transform:translate(160px,32px)}41.34%{transform:translate(160px,48px)}44.88%{transform:translate(0,48px)}45.94%{transform:translate(0,96px)}47.7%{transform:translate(80px,96px)}49.82%{transform:translate(80px,0)}51.24%{transform:translate(144px,0)}51.94%{transform:translate(144px,32px)}57.24%{transform:translate(336px,80px)}57.6%{transform:translate(320px,80px)}57.95%{transform:translate(320px,96px)}59.72%{transform:translate(400px,96px)}60.07%{transform:translate(400px,80px)}61.48%{transform:translate(464px,80px)}63.25%{transform:translate(432px,32px)}63.96%{transform:translate(432px,0)}64.66%{transform:translate(464px,0)}65.72%{transform:translate(448px,32px)}66.08%,88.69%{transform:translate(448px,48px)}67.49%{transform:translate(512px,48px)}67.84%{transform:translate(512px,32px)}69.96%{transform:translate(416px,32px)}71.38%{transform:translate(416px,96px)}78.45%{transform:translate(96px,96px)}78.8%{transform:translate(96px,80px)}79.15%{transform:translate(112px,80px)}80.57%{transform:translate(112px,16px)}86.57%{transform:translate(352px,48px)}89.4%{transform:translate(448px,16px)}97.17%{transform:translate(96px,16px)}98.59%{transform:translate(48px,0)}98.94%{transform:translate(48px,-16px)}}@keyframes s2{0%,99.65%{transform:translate(32px,-16px)}.71%{transform:translate(0,-16px)}1.06%{transform:translate(0,0)}1.77%{transform:translate(32px,0)}2.12%{transform:translate(32px,16px)}3.18%{transform:translate(80px,16px)}3.53%{transform:translate(80px,32px)}3.89%,9.54%{transform:translate(96px,32px)}4.24%{transform:translate(96px,48px)}4.95%{transform:translate(64px,48px)}5.3%{transform:translate(64px,64px)}6.71%{transform:translate(128px,64px)}7.42%{transform:translate(128px,96px)}7.77%{transform:translate(112px,96px)}9.19%{transform:translate(112px,32px)}10.25%,97.88%{transform:translate(96px,0)}14.13%{transform:translate(272px,0)}14.84%{transform:translate(272px,32px)}16.25%,56.54%{transform:translate(336px,32px)}16.96%{transform:translate(336px,64px)}17.31%{transform:translate(352px,64px)}18.02%{transform:translate(352px,96px)}18.37%{transform:translate(368px,96px)}20.14%{transform:translate(368px,16px)}20.49%,86.22%{transform:translate(352px,16px)}20.85%{transform:translate(352px,32px)}23.32%,34.63%,62.9%,65.72%{transform:translate(464px,32px)}23.67%,34.28%{transform:translate(464px,16px)}25.44%{transform:translate(544px,16px)}26.15%{transform:translate(544px,48px)}28.98%{transform:translate(672px,48px)}29.68%{transform:translate(672px,16px)}41.34%{transform:translate(160px,32px)}41.7%{transform:translate(160px,48px)}45.23%{transform:translate(0,48px)}46.29%{transform:translate(0,96px)}48.06%{transform:translate(80px,96px)}50.18%{transform:translate(80px,0)}51.59%{transform:translate(144px,0)}52.3%{transform:translate(144px,32px)}57.6%{transform:translate(336px,80px)}57.95%{transform:translate(320px,80px)}58.3%{transform:translate(320px,96px)}60.07%{transform:translate(400px,96px)}60.42%{transform:translate(400px,80px)}61.84%{transform:translate(464px,80px)}63.6%{transform:translate(432px,32px)}64.31%{transform:translate(432px,0)}65.02%{transform:translate(464px,0)}66.08%{transform:translate(448px,32px)}66.43%,89.05%{transform:translate(448px,48px)}67.84%{transform:translate(512px,48px)}68.2%{transform:translate(512px,32px)}70.32%{transform:translate(416px,32px)}71.73%{transform:translate(416px,96px)}78.8%{transform:translate(96px,96px)}79.15%{transform:translate(96px,80px)}79.51%{transform:translate(112px,80px)}80.92%{transform:translate(112px,16px)}86.93%{transform:translate(352px,48px)}89.75%{transform:translate(448px,16px)}97.53%{transform:translate(96px,16px)}98.94%{transform:translate(48px,0)}99.29%{transform:translate(48px,-16px)}}@keyframes s3{0%,99.65%{transform:translate(48px,-16px)}1.06%{transform:translate(0,-16px)}1.41%{transform:translate(0,0)}2.12%{transform:translate(32px,0)}2.47%{transform:translate(32px,16px)}3.53%{transform:translate(80px,16px)}3.89%{transform:translate(80px,32px)}4.24%,9.89%{transform:translate(96px,32px)}4.59%{transform:translate(96px,48px)}5.3%{transform:translate(64px,48px)}5.65%{transform:translate(64px,64px)}7.07%{transform:translate(128px,64px)}7.77%{transform:translate(128px,96px)}8.13%{transform:translate(112px,96px)}9.54%{transform:translate(112px,32px)}10.6%,98.23%{transform:translate(96px,0)}14.49%{transform:translate(272px,0)}15.19%{transform:translate(272px,32px)}16.61%,56.89%{transform:translate(336px,32px)}17.31%{transform:translate(336px,64px)}17.67%{transform:translate(352px,64px)}18.37%{transform:translate(352px,96px)}18.73%{transform:translate(368px,96px)}20.49%{transform:translate(368px,16px)}20.85%,86.57%{transform:translate(352px,16px)}21.2%{transform:translate(352px,32px)}23.67%,34.98%,63.25%,66.08%{transform:translate(464px,32px)}24.03%,34.63%{transform:translate(464px,16px)}25.8%{transform:translate(544px,16px)}26.5%{transform:translate(544px,48px)}29.33%{transform:translate(672px,48px)}30.04%{transform:translate(672px,16px)}41.7%{transform:translate(160px,32px)}42.05%{transform:translate(160px,48px)}45.58%{transform:translate(0,48px)}46.64%{transform:translate(0,96px)}48.41%{transform:translate(80px,96px)}50.53%{transform:translate(80px,0)}51.94%{transform:translate(144px,0)}52.65%{transform:translate(144px,32px)}57.95%{transform:translate(336px,80px)}58.3%{transform:translate(320px,80px)}58.66%{transform:translate(320px,96px)}60.42%{transform:translate(400px,96px)}60.78%{transform:translate(400px,80px)}62.19%{transform:translate(464px,80px)}63.96%{transform:translate(432px,32px)}64.66%{transform:translate(432px,0)}65.37%{transform:translate(464px,0)}66.43%{transform:translate(448px,32px)}66.78%,89.4%{transform:translate(448px,48px)}68.2%{transform:translate(512px,48px)}68.55%{transform:translate(512px,32px)}70.67%{transform:translate(416px,32px)}72.08%{transform:translate(416px,96px)}79.15%{transform:translate(96px,96px)}79.51%{transform:translate(96px,80px)}79.86%{transform:translate(112px,80px)}81.27%{transform:translate(112px,16px)}87.28%{transform:translate(352px,48px)}90.11%{transform:translate(448px,16px)}97.88%{transform:translate(96px,16px)}99.29%{transform:translate(48px,0)}}:root{--cb:#1b1f230a;--cs:purple;--ce:#ebedf0;--c0:#ebedf0;--c1:#9be9a8;--c2:#40c463;--c3:#30a14e;--c4:#216e39}@media (prefers-color-scheme:dark){:root{--cb:#1b1f230a;--cs:purple;--ce:#161b22;--c1:#01311f;--c2:#034525;--c3:#0f6d31;--c4:#00c647}}.c{shape-rendering:geometricPrecision;fill:var(--ce);stroke-width:1px;stroke:var(--cb);animation:none 28300ms linear infinite}.c.c0,.c.c1,.c.c2{fill:var(--c1);animation-name:c0}.c.c1,.c.c2{animation-name:c1}.c.c2{animation-name:c2}.c.c3{fill:var(--c2);animation-name:c3}.c.c4{fill:var(--c1);animation-name:c4}.c.c5,.c.c6,.c.c7{fill:var(--c1);animation-name:c5}.c.c6,.c.c7{animation-name:c6}.c.c7{animation-name:c7}.c.c8,.c.c9,.c.ca{fill:var(--c1);animation-name:c8}.c.c9,.c.ca{animation-name:c9}.c.ca{animation-name:ca}.c.cb,.c.cc,.c.cd{fill:var(--c3);animation-name:cb}.c.cc,.c.cd{animation-name:cc}.c.cd{animation-name:cd}.c.ce{fill:var(--c1);animation-name:ce}.c.cf{fill:var(--c2);animation-name:cf}.c.cg,.c.ch,.c.ci{fill:var(--c1);animation-name:cg}.c.ch,.c.ci{animation-name:ch}.c.ci{animation-name:ci}.c.cj{fill:var(--c2);animation-name:cj}.c.ck,.c.cl{fill:var(--c1);animation-name:ck}.c.cl{animation-name:cl}.c.cm{fill:var(--c2);animation-name:cm}.c.cn{fill:var(--c1);animation-name:cn}.c.co{fill:var(--c4);animation-name:co}.c.cp,.c.cq{fill:var(--c1);animation-name:cp}.c.cq{animation-name:cq}.c.cr{fill:var(--c2);animation-name:cr}.c.cs{fill:var(--c3);animation-name:cs}.c.ct{fill:var(--c2);animation-name:ct}.c.cu{fill:var(--c3);animation-name:cu}.c.cv{fill:var(--c4);animation-name:cv}.c.cw{fill:var(--c3);animation-name:cw}.c.cx{fill:var(--c1);animation-name:cx}.c.cy{fill:var(--c2);animation-name:cy}.c.cz{fill:var(--c1);animation-name:cz}.c.c10{fill:var(--c3);animation-name:c10}.c.c11,.c.c12,.c.c13{fill:var(--c1);animation-name:c11}.c.c12,.c.c13{animation-name:c12}.c.c13{animation-name:c13}.s,.u{animation:none linear 28300ms infinite}.u,.u.u0{transform-origin:0 0}.u{transform:scale(0,1)}.u.u0{fill:var(--c1);animation-name:u0}.u.u1{fill:var(--c2);animation-name:u1;transform-origin:508.8px 0}.u.u2{fill:var(--c3);animation-name:u2;transform-origin:657.2px 0}.u.u3{fill:var(--c4);animation-name:u3;transform-origin:805.6px 0}.s{shape-rendering:geometricPrecision;fill:var(--cs)}.s.s0{transform:translate(0,-16px);animation-name:s0}.s.s1{transform:translate(16px,-16px);animation-name:s1}.s.s2{transform:translate(32px,-16px);animation-name:s2}.s.s3{transform:translate(48px,-16px);animation-name:s3}</style><rect class="c" x="2" y="2" rx="2" ry="2" width="12" height="12"/><rect class="c" x="2" y="18" rx="2" ry="2" width="12" height="12"/><rect class="c" x="2" y="34" rx="2" ry="2" width="12" height="12"/><rect class="c" x="2" y="50" rx="2" ry="2" width="12" height="12"/><rect class="c" x="2" y="66" rx="2" ry="2" width="12" height="12"/><rect class="c" x="2" y="82" rx="2" ry="2" width="12" height="12"/><rect class="c c0" x="2" y="98" rx="2" ry="2" width="12" height="12"/><rect class="c" x="18" y="2" rx="2" ry="2" width="12" height="12"/><rect class="c" x="18" y="18" rx="2" ry="2" width="12" height="12"/><rect class="c" x="18" y="34" rx="2" ry="2" width="12" height="12"/><rect class="c" x="18" y="50" rx="2" ry="2" width="12" height="12"/><rect class="c" x="18" y="66" rx="2" ry="2" width="12" height="12"/><rect class="c" x="18" y="82" rx="2" ry="2" width="12" height="12"/><rect class="c" x="18" y="98" rx="2" ry="2" width="12" height="12"/><rect class="c" x="34" y="2" rx="2" ry="2" width="12" height="12"/><rect class="c c1" x="34" y="18" rx="2" ry="2" width="12" height="12"/><rect class="c" x="34" y="34" rx="2" ry="2" width="12" height="12"/><rect class="c" x="34" y="50" rx="2" ry="2" width="12" height="12"/><rect class="c" x="34" y="66" rx="2" ry="2" width="12" height="12"/><rect class="c" x="34" y="82" rx="2" ry="2" width="12" height="12"/><rect class="c" x="34" y="98" rx="2" ry="2" width="12" height="12"/><rect class="c" x="50" y="2" rx="2" ry="2" width="12" height="12"/><rect class="c" x="50" y="18" rx="2" ry="2" width="12" height="12"/><rect class="c" x="50" y="34" rx="2" ry="2" width="12" height="12"/><rect class="c" x="50" y="50" rx="2" ry="2" width="12" height="12"/><rect class="c" x="50" y="66" rx="2" ry="2" width="12" height="12"/><rect class="c" x="50" y="82" rx="2" ry="2" width="12" height="12"/><rect class="c" x="50" y="98" rx="2" ry="2" width="12" height="12"/><rect class="c" x="66" y="2" rx="2" ry="2" width="12" height="12"/><rect class="c" x="66" y="18" rx="2" ry="2" width="12" height="12"/><rect class="c" x="66" y="34" rx="2" ry="2" width="12" height="12"/><rect class="c c2" x="66" y="50" rx="2" ry="2" width="12" height="12"/><rect class="c" x="66" y="66" rx="2" ry="2" width="12" height="12"/><rect class="c" x="66" y="82" rx="2" ry="2" width="12" height="12"/><rect class="c" x="66" y="98" rx="2" ry="2" width="12" height="12"/><rect class="c c3" x="82" y="2" rx="2" ry="2" width="12" height="12"/><rect class="c" x="82" y="18" rx="2" ry="2" width="12" height="12"/><rect class="c c4" x="82" y="34" rx="2" ry="2" width="12" height="12"/><rect class="c c5" x="82" y="50" rx="2" ry="2" width="12" height="12"/><rect class="c c6" x="82" y="66" rx="2" ry="2" width="12" height="12"/><rect class="c" x="82" y="82" rx="2" ry="2" width="12" height="12"/><rect class="c" x="82" y="98" rx="2" ry="2" width="12" height="12"/><rect class="c c7" x="98" y="2" rx="2" ry="2" width="12" height="12"/><rect class="c" x="98" y="18" rx="2" ry="2" width="12" height="12"/><rect class="c c8" x="98" y="34" rx="2" ry="2" width="12" height="12"/><rect class="c c9" x="98" y="50" rx="2" ry="2" width="12" height="12"/><rect class="c ca" x="98" y="66" rx="2" ry="2" width="12" height="12"/><rect class="c cb" x="98" y="82" rx="2" ry="2" width="12" height="12"/><rect class="c cc" x="98" y="98" rx="2" ry="2" width="12" height="12"/><rect class="c" x="114" y="2" rx="2" ry="2" width="12" height="12"/><rect class="c cd" x="114" y="18" rx="2" ry="2" width="12" height="12"/><rect class="c" x="114" y="34" rx="2" ry="2" width="12" height="12"/><rect class="c" x="114" y="50" rx="2" ry="2" width="12" height="12"/><rect class="c" x="114" y="66" rx="2" ry="2" width="12" height="12"/><rect class="c" x="114" y="82" rx="2" ry="2" width="12" height="12"/><rect class="c" x="114" y="98" rx="2" ry="2" width="12" height="12"/><rect class="c" x="130" y="2" rx="2" ry="2" width="12" height="12"/><rect class="c" x="130" y="18" rx="2" ry="2" width="12" height="12"/><rect class="c" x="130" y="34" rx="2" ry="2" width="12" height="12"/><rect class="c" x="130" y="50" rx="2" ry="2" width="12" height="12"/><rect class="c" x="130" y="66" rx="2" ry="2" width="12" height="12"/><rect class="c" x="130" y="82" rx="2" ry="2" width="12" height="12"/><rect class="c ce" x="130" y="98" rx="2" ry="2" width="12" height="12"/><rect class="c" x="146" y="2" rx="2" ry="2" width="12" height="12"/><rect class="c" x="146" y="18" rx="2" ry="2" width="12" height="12"/><rect class="c cf" x="146" y="34" rx="2" ry="2" width="12" height="12"/><rect class="c" x="146" y="50" rx="2" ry="2" width="12" height="12"/><rect class="c" x="146" y="66" rx="2" ry="2" width="12" height="12"/><rect class="c" x="146" y="82" rx="2" ry="2" width="12" height="12"/><rect class="c" x="146" y="98" rx="2" ry="2" width="12" height="12"/><rect class="c" x="162" y="2" rx="2" ry="2" width="12" height="12"/><rect class="c" x="162" y="18" rx="2" ry="2" width="12" height="12"/><rect class="c" x="162" y="34" rx="2" ry="2" width="12" height="12"/><rect class="c" x="162" y="50" rx="2" ry="2" width="12" height="12"/><rect class="c" x="162" y="66" rx="2" ry="2" width="12" height="12"/><rect class="c" x="162" y="82" rx="2" ry="2" width="12" height="12"/><rect class="c" x="162" y="98" rx="2" ry="2" width="12" height="12"/><rect class="c" x="178" y="2" rx="2" ry="2" width="12" height="12"/><rect class="c" x="178" y="18" rx="2" ry="2" width="12" height="12"/><rect class="c" x="178" y="34" rx="2" ry="2" width="12" height="12"/><rect class="c" x="178" y="50" rx="2" ry="2" width="12" height="12"/><rect class="c" x="178" y="66" rx="2" ry="2" width="12" height="12"/><rect class="c" x="178" y="82" rx="2" ry="2" width="12" height="12"/><rect class="c" x="178" y="98" rx="2" ry="2" width="12" height="12"/><rect class="c" x="194" y="2" rx="2" ry="2" width="12" height="12"/><rect class="c" x="194" y="18" rx="2" ry="2" width="12" height="12"/><rect class="c" x="194" y="34" rx="2" ry="2" width="12" height="12"/><rect class="c" x="194" y="50" rx="2" ry="2" width="12" height="12"/><rect class="c" x="194" y="66" rx="2" ry="2" width="12" height="12"/><rect class="c" x="194" y="82" rx="2" ry="2" width="12" height="12"/><rect class="c" x="194" y="98" rx="2" ry="2" width="12" height="12"/><rect class="c" x="210" y="2" rx="2" ry="2" width="12" height="12"/><rect class="c" x="210" y="18" rx="2" ry="2" width="12" height="12"/><rect class="c" x="210" y="34" rx="2" ry="2" width="12" height="12"/><rect class="c" x="210" y="50" rx="2" ry="2" width="12" height="12"/><rect class="c" x="210" y="66" rx="2" ry="2" width="12" height="12"/><rect class="c" x="210" y="82" rx="2" ry="2" width="12" height="12"/><rect class="c" x="210" y="98" rx="2" ry="2" width="12" height="12"/><rect class="c" x="226" y="2" rx="2" ry="2" width="12" height="12"/><rect class="c" x="226" y="18" rx="2" ry="2" width="12" height="12"/><rect class="c" x="226" y="34" rx="2" ry="2" width="12" height="12"/><rect class="c" x="226" y="50" rx="2" ry="2" width="12" height="12"/><rect class="c" x="226" y="66" rx="2" ry="2" width="12" height="12"/><rect class="c" x="226" y="82" rx="2" ry="2" width="12" height="12"/><rect class="c" x="226" y="98" rx="2" ry="2" width="12" height="12"/><rect class="c" x="242" y="2" rx="2" ry="2" width="12" height="12"/><rect class="c" x="242" y="18" rx="2" ry="2" width="12" height="12"/><rect class="c" x="242" y="34" rx="2" ry="2" width="12" height="12"/><rect class="c" x="242" y="50" rx="2" ry="2" width="12" height="12"/><rect class="c" x="242" y="66" rx="2" ry="2" width="12" height="12"/><rect class="c" x="242" y="82" rx="2" ry="2" width="12" height="12"/><rect class="c" x="242" y="98" rx="2" ry="2" width="12" height="12"/><rect class="c cg" x="258" y="2" rx="2" ry="2" width="12" height="12"/><rect class="c" x="258" y="18" rx="2" ry="2" width="12" height="12"/><rect class="c" x="258" y="34" rx="2" ry="2" width="12" height="12"/><rect class="c" x="258" y="50" rx="2" ry="2" width="12" height="12"/><rect class="c" x="258" y="66" rx="2" ry="2" width="12" height="12"/><rect class="c" x="258" y="82" rx="2" ry="2" width="12" height="12"/><rect class="c" x="258" y="98" rx="2" ry="2" width="12" height="12"/><rect class="c" x="274" y="2" rx="2" ry="2" width="12" height="12"/><rect class="c ch" x="274" y="18" rx="2" ry="2" width="12" height="12"/><rect class="c ci" x="274" y="34" rx="2" ry="2" width="12" height="12"/><rect class="c" x="274" y="50" rx="2" ry="2" width="12" height="12"/><rect class="c" x="274" y="66" rx="2" ry="2" width="12" height="12"/><rect class="c" x="274" y="82" rx="2" ry="2" width="12" height="12"/><rect class="c" x="274" y="98" rx="2" ry="2" width="12" height="12"/><rect class="c" x="290" y="2" rx="2" ry="2" width="12" height="12"/><rect class="c" x="290" y="18" rx="2" ry="2" width="12" height="12"/><rect class="c" x="290" y="34" rx="2" ry="2" width="12" height="12"/><rect class="c" x="290" y="50" rx="2" ry="2" width="12" height="12"/><rect class="c" x="290" y="66" rx="2" ry="2" width="12" height="12"/><rect class="c" x="290" y="82" rx="2" ry="2" width="12" height="12"/><rect class="c" x="290" y="98" rx="2" ry="2" width="12" height="12"/><rect class="c" x="306" y="2" rx="2" ry="2" width="12" height="12"/><rect class="c" x="306" y="18" rx="2" ry="2" width="12" height="12"/><rect class="c" x="306" y="34" rx="2" ry="2" width="12" height="12"/><rect class="c" x="306" y="50" rx="2" ry="2" width="12" height="12"/><rect class="c" x="306" y="66" rx="2" ry="2" width="12" height="12"/><rect class="c" x="306" y="82" rx="2" ry="2" width="12" height="12"/><rect class="c" x="306" y="98" rx="2" ry="2" width="12" height="12"/><rect class="c" x="322" y="2" rx="2" ry="2" width="12" height="12"/><rect class="c" x="322" y="18" rx="2" ry="2" width="12" height="12"/><rect class="c" x="322" y="34" rx="2" ry="2" width="12" height="12"/><rect class="c" x="322" y="50" rx="2" ry="2" width="12" height="12"/><rect class="c" x="322" y="66" rx="2" ry="2" width="12" height="12"/><rect class="c" x="322" y="82" rx="2" ry="2" width="12" height="12"/><rect class="c cj" x="322" y="98" rx="2" ry="2" width="12" height="12"/><rect class="c" x="338" y="2" rx="2" ry="2" width="12" height="12"/><rect class="c" x="338" y="18" rx="2" ry="2" width="12" height="12"/><rect class="c ck" x="338" y="34" rx="2" ry="2" width="12" height="12"/><rect class="c cl" x="338" y="50" rx="2" ry="2" width="12" height="12"/><rect class="c" x="338" y="66" rx="2" ry="2" width="12" height="12"/><rect class="c cm" x="338" y="82" rx="2" ry="2" width="12" height="12"/><rect class="c" x="338" y="98" rx="2" ry="2" width="12" height="12"/><rect class="c" x="354" y="2" rx="2" ry="2" width="12" height="12"/><rect class="c cn" x="354" y="18" rx="2" ry="2" width="12" height="12"/><rect class="c" x="354" y="34" rx="2" ry="2" width="12" height="12"/><rect class="c co" x="354" y="50" rx="2" ry="2" width="12" height="12"/><rect class="c cp" x="354" y="66" rx="2" ry="2" width="12" height="12"/><rect class="c" x="354" y="82" rx="2" ry="2" width="12" height="12"/><rect class="c cq" x="354" y="98" rx="2" ry="2" width="12" height="12"/><rect class="c" x="370" y="2" rx="2" ry="2" width="12" height="12"/><rect class="c" x="370" y="18" rx="2" ry="2" width="12" height="12"/><rect class="c" x="370" y="34" rx="2" ry="2" width="12" height="12"/><rect class="c" x="370" y="50" rx="2" ry="2" width="12" height="12"/><rect class="c" x="370" y="66" rx="2" ry="2" width="12" height="12"/><rect class="c" x="370" y="82" rx="2" ry="2" width="12" height="12"/><rect class="c" x="370" y="98" rx="2" ry="2" width="12" height="12"/><rect class="c" x="386" y="2" rx="2" ry="2" width="12" height="12"/><rect class="c" x="386" y="18" rx="2" ry="2" width="12" height="12"/><rect class="c" x="386" y="34" rx="2" ry="2" width="12" height="12"/><rect class="c" x="386" y="50" rx="2" ry="2" width="12" height="12"/><rect class="c" x="386" y="66" rx="2" ry="2" width="12" height="12"/><rect class="c" x="386" y="82" rx="2" ry="2" width="12" height="12"/><rect class="c" x="386" y="98" rx="2" ry="2" width="12" height="12"/><rect class="c" x="402" y="2" rx="2" ry="2" width="12" height="12"/><rect class="c" x="402" y="18" rx="2" ry="2" width="12" height="12"/><rect class="c" x="402" y="34" rx="2" ry="2" width="12" height="12"/><rect class="c" x="402" y="50" rx="2" ry="2" width="12" height="12"/><rect class="c" x="402" y="66" rx="2" ry="2" width="12" height="12"/><rect class="c" x="402" y="82" rx="2" ry="2" width="12" height="12"/><rect class="c cr" x="402" y="98" rx="2" ry="2" width="12" height="12"/><rect class="c" x="418" y="2" rx="2" ry="2" width="12" height="12"/><rect class="c" x="418" y="18" rx="2" ry="2" width="12" height="12"/><rect class="c" x="418" y="34" rx="2" ry="2" width="12" height="12"/><rect class="c" x="418" y="50" rx="2" ry="2" width="12" height="12"/><rect class="c" x="418" y="66" rx="2" ry="2" width="12" height="12"/><rect class="c" x="418" y="82" rx="2" ry="2" width="12" height="12"/><rect class="c cs" x="418" y="98" rx="2" ry="2" width="12" height="12"/><rect class="c ct" x="434" y="2" rx="2" ry="2" width="12" height="12"/><rect class="c" x="434" y="18" rx="2" ry="2" width="12" height="12"/><rect class="c" x="434" y="34" rx="2" ry="2" width="12" height="12"/><rect class="c" x="434" y="50" rx="2" ry="2" width="12" height="12"/><rect class="c" x="434" y="66" rx="2" ry="2" width="12" height="12"/><rect class="c" x="434" y="82" rx="2" ry="2" width="12" height="12"/><rect class="c" x="434" y="98" rx="2" ry="2" width="12" height="12"/><rect class="c cu" x="450" y="2" rx="2" ry="2" width="12" height="12"/><rect class="c cv" x="450" y="18" rx="2" ry="2" width="12" height="12"/><rect class="c" x="450" y="34" rx="2" ry="2" width="12" height="12"/><rect class="c cw" x="450" y="50" rx="2" ry="2" width="12" height="12"/><rect class="c" x="450" y="66" rx="2" ry="2" width="12" height="12"/><rect class="c" x="450" y="82" rx="2" ry="2" width="12" height="12"/><rect class="c" x="450" y="98" rx="2" ry="2" width="12" height="12"/><rect class="c" x="466" y="2" rx="2" ry="2" width="12" height="12"/><rect class="c cx" x="466" y="18" rx="2" ry="2" width="12" height="12"/><rect class="c" x="466" y="34" rx="2" ry="2" width="12" height="12"/><rect class="c cy" x="466" y="50" rx="2" ry="2" width="12" height="12"/><rect class="c" x="466" y="66" rx="2" ry="2" width="12" height="12"/><rect class="c" x="466" y="82" rx="2" ry="2" width="12" height="12"/><rect class="c" x="466" y="98" rx="2" ry="2" width="12" height="12"/><rect class="c" x="482" y="2" rx="2" ry="2" width="12" height="12"/><rect class="c cz" x="482" y="18" rx="2" ry="2" width="12" height="12"/><rect class="c" x="482" y="34" rx="2" ry="2" width="12" height="12"/><rect class="c" x="482" y="50" rx="2" ry="2" width="12" height="12"/><rect class="c" x="482" y="66" rx="2" ry="2" width="12" height="12"/><rect class="c" x="482" y="82" rx="2" ry="2" width="12" height="12"/><rect class="c" x="482" y="98" rx="2" ry="2" width="12" height="12"/><rect class="c" x="498" y="2" rx="2" ry="2" width="12" height="12"/><rect class="c" x="498" y="18" rx="2" ry="2" width="12" height="12"/><rect class="c" x="498" y="34" rx="2" ry="2" width="12" height="12"/><rect class="c" x="498" y="50" rx="2" ry="2" width="12" height="12"/><rect class="c" x="498" y="66" rx="2" ry="2" width="12" height="12"/><rect class="c" x="498" y="82" rx="2" ry="2" width="12" height="12"/><rect class="c" x="498" y="98" rx="2" ry="2" width="12" height="12"/><rect class="c" x="514" y="2" rx="2" ry="2" width="12" height="12"/><rect class="c" x="514" y="18" rx="2" ry="2" width="12" height="12"/><rect class="c c10" x="514" y="34" rx="2" ry="2" width="12" height="12"/><rect class="c" x="514" y="50" rx="2" ry="2" width="12" height="12"/><rect class="c" x="514" y="66" rx="2" ry="2" width="12" height="12"/><rect class="c" x="514" y="82" rx="2" ry="2" width="12" height="12"/><rect class="c" x="514" y="98" rx="2" ry="2" width="12" height="12"/><rect class="c" x="530" y="2" rx="2" ry="2" width="12" height="12"/><rect class="c" x="530" y="18" rx="2" ry="2" width="12" height="12"/><rect class="c" x="530" y="34" rx="2" ry="2" width="12" height="12"/><rect class="c" x="530" y="50" rx="2" ry="2" width="12" height="12"/><rect class="c" x="530" y="66" rx="2" ry="2" width="12" height="12"/><rect class="c" x="530" y="82" rx="2" ry="2" width="12" height="12"/><rect class="c" x="530" y="98" rx="2" ry="2" width="12" height="12"/><rect class="c" x="546" y="2" rx="2" ry="2" width="12" height="12"/><rect class="c" x="546" y="18" rx="2" ry="2" width="12" height="12"/><rect class="c" x="546" y="34" rx="2" ry="2" width="12" height="12"/><rect class="c c11" x="546" y="50" rx="2" ry="2" width="12" height="12"/><rect class="c" x="546" y="66" rx="2" ry="2" width="12" height="12"/><rect class="c" x="546" y="82" rx="2" ry="2" width="12" height="12"/><rect class="c" x="546" y="98" rx="2" ry="2" width="12" height="12"/><rect class="c" x="562" y="2" rx="2" ry="2" width="12" height="12"/><rect class="c" x="562" y="18" rx="2" ry="2" width="12" height="12"/><rect class="c" x="562" y="34" rx="2" ry="2" width="12" height="12"/><rect class="c" x="562" y="50" rx="2" ry="2" width="12" height="12"/><rect class="c" x="562" y="66" rx="2" ry="2" width="12" height="12"/><rect class="c" x="562" y="82" rx="2" ry="2" width="12" height="12"/><rect class="c" x="562" y="98" rx="2" ry="2" width="12" height="12"/><rect class="c" x="578" y="2" rx="2" ry="2" width="12" height="12"/><rect class="c" x="578" y="18" rx="2" ry="2" width="12" height="12"/><rect class="c" x="578" y="34" rx="2" ry="2" width="12" height="12"/><rect class="c" x="578" y="50" rx="2" ry="2" width="12" height="12"/><rect class="c" x="578" y="66" rx="2" ry="2" width="12" height="12"/><rect class="c" x="578" y="82" rx="2" ry="2" width="12" height="12"/><rect class="c" x="578" y="98" rx="2" ry="2" width="12" height="12"/><rect class="c" x="594" y="2" rx="2" ry="2" width="12" height="12"/><rect class="c" x="594" y="18" rx="2" ry="2" width="12" height="12"/><rect class="c" x="594" y="34" rx="2" ry="2" width="12" height="12"/><rect class="c" x="594" y="50" rx="2" ry="2" width="12" height="12"/><rect class="c" x="594" y="66" rx="2" ry="2" width="12" height="12"/><rect class="c" x="594" y="82" rx="2" ry="2" width="12" height="12"/><rect class="c" x="594" y="98" rx="2" ry="2" width="12" height="12"/><rect class="c" x="610" y="2" rx="2" ry="2" width="12" height="12"/><rect class="c" x="610" y="18" rx="2" ry="2" width="12" height="12"/><rect class="c" x="610" y="34" rx="2" ry="2" width="12" height="12"/><rect class="c" x="610" y="50" rx="2" ry="2" width="12" height="12"/><rect class="c" x="610" y="66" rx="2" ry="2" width="12" height="12"/><rect class="c" x="610" y="82" rx="2" ry="2" width="12" height="12"/><rect class="c" x="610" y="98" rx="2" ry="2" width="12" height="12"/><rect class="c" x="626" y="2" rx="2" ry="2" width="12" height="12"/><rect class="c" x="626" y="18" rx="2" ry="2" width="12" height="12"/><rect class="c" x="626" y="34" rx="2" ry="2" width="12" height="12"/><rect class="c" x="626" y="50" rx="2" ry="2" width="12" height="12"/><rect class="c" x="626" y="66" rx="2" ry="2" width="12" height="12"/><rect class="c" x="626" y="82" rx="2" ry="2" width="12" height="12"/><rect class="c" x="626" y="98" rx="2" ry="2" width="12" height="12"/><rect class="c" x="642" y="2" rx="2" ry="2" width="12" height="12"/><rect class="c" x="642" y="18" rx="2" ry="2" width="12" height="12"/><rect class="c" x="642" y="34" rx="2" ry="2" width="12" height="12"/><rect class="c" x="642" y="50" rx="2" ry="2" width="12" height="12"/><rect class="c" x="642" y="66" rx="2" ry="2" width="12" height="12"/><rect class="c" x="642" y="82" rx="2" ry="2" width="12" height="12"/><rect class="c" x="642" y="98" rx="2" ry="2" width="12" height="12"/><rect class="c" x="658" y="2" rx="2" ry="2" width="12" height="12"/><rect class="c" x="658" y="18" rx="2" ry="2" width="12" height="12"/><rect class="c" x="658" y="34" rx="2" ry="2" width="12" height="12"/><rect class="c" x="658" y="50" rx="2" ry="2" width="12" height="12"/><rect class="c" x="658" y="66" rx="2" ry="2" width="12" height="12"/><rect class="c" x="658" y="82" rx="2" ry="2" width="12" height="12"/><rect class="c" x="658" y="98" rx="2" ry="2" width="12" height="12"/><rect class="c" x="674" y="2" rx="2" ry="2" width="12" height="12"/><rect class="c c12" x="674" y="18" rx="2" ry="2" width="12" height="12"/><rect class="c c13" x="674" y="34" rx="2" ry="2" width="12" height="12"/><rect class="c" x="674" y="50" rx="2" ry="2" width="12" height="12"/><rect class="c" x="674" y="66" rx="2" ry="2" width="12" height="12"/><rect class="c" x="674" y="82" rx="2" ry="2" width="12" height="12"/><rect class="c" x="674" y="98" rx="2" ry="2" width="12" height="12"/><rect class="c" x="690" y="2" rx="2" ry="2" width="12" height="12"/><rect class="c" x="690" y="18" rx="2" ry="2" width="12" height="12"/><rect class="c" x="690" y="34" rx="2" ry="2" width="12" height="12"/><rect class="c" x="690" y="50" rx="2" ry="2" width="12" height="12"/><rect class="c" x="690" y="66" rx="2" ry="2" width="12" height="12"/><rect class="c" x="690" y="82" rx="2" ry="2" width="12" height="12"/><rect class="c" x="690" y="98" rx="2" ry="2" width="12" height="12"/><rect class="c" x="706" y="2" rx="2" ry="2" width="12" height="12"/><rect class="c" x="706" y="18" rx="2" ry="2" width="12" height="12"/><rect class="c" x="706" y="34" rx="2" ry="2" width="12" height="12"/><rect class="c" x="706" y="50" rx="2" ry="2" width="12" height="12"/><rect class="c" x="706" y="66" rx="2" ry="2" width="12" height="12"/><rect class="c" x="706" y="82" rx="2" ry="2" width="12" height="12"/><rect class="c" x="706" y="98" rx="2" ry="2" width="12" height="12"/><rect class="c" x="722" y="2" rx="2" ry="2" width="12" height="12"/><rect class="c" x="722" y="18" rx="2" ry="2" width="12" height="12"/><rect class="c" x="722" y="34" rx="2" ry="2" width="12" height="12"/><rect class="c" x="722" y="50" rx="2" ry="2" width="12" height="12"/><rect class="c" x="722" y="66" rx="2" ry="2" width="12" height="12"/><rect class="c" x="722" y="82" rx="2" ry="2" width="12" height="12"/><rect class="c" x="722" y="98" rx="2" ry="2" width="12" height="12"/><rect class="c" x="738" y="2" rx="2" ry="2" width="12" height="12"/><rect class="c" x="738" y="18" rx="2" ry="2" width="12" height="12"/><rect class="c" x="738" y="34" rx="2" ry="2" width="12" height="12"/><rect class="c" x="738" y="50" rx="2" ry="2" width="12" height="12"/><rect class="c" x="738" y="66" rx="2" ry="2" width="12" height="12"/><rect class="c" x="738" y="82" rx="2" ry="2" width="12" height="12"/><rect class="c" x="738" y="98" rx="2" ry="2" width="12" height="12"/><rect class="c" x="754" y="2" rx="2" ry="2" width="12" height="12"/><rect class="c" x="754" y="18" rx="2" ry="2" width="12" height="12"/><rect class="c" x="754" y="34" rx="2" ry="2" width="12" height="12"/><rect class="c" x="754" y="50" rx="2" ry="2" width="12" height="12"/><rect class="c" x="754" y="66" rx="2" ry="2" width="12" height="12"/><rect class="c" x="754" y="82" rx="2" ry="2" width="12" height="12"/><rect class="c" x="754" y="98" rx="2" ry="2" width="12" height="12"/><rect class="c" x="770" y="2" rx="2" ry="2" width="12" height="12"/><rect class="c" x="770" y="18" rx="2" ry="2" width="12" height="12"/><rect class="c" x="770" y="34" rx="2" ry="2" width="12" height="12"/><rect class="c" x="770" y="50" rx="2" ry="2" width="12" height="12"/><rect class="c" x="770" y="66" rx="2" ry="2" width="12" height="12"/><rect class="c" x="770" y="82" rx="2" ry="2" width="12" height="12"/><rect class="c" x="770" y="98" rx="2" ry="2" width="12" height="12"/><rect class="c" x="786" y="2" rx="2" ry="2" width="12" height="12"/><rect class="c" x="786" y="18" rx="2" ry="2" width="12" height="12"/><rect class="c" x="786" y="34" rx="2" ry="2" width="12" height="12"/><rect class="c" x="786" y="50" rx="2" ry="2" width="12" height="12"/><rect class="c" x="786" y="66" rx="2" ry="2" width="12" height="12"/><rect class="c" x="786" y="82" rx="2" ry="2" width="12" height="12"/><rect class="c" x="786" y="98" rx="2" ry="2" width="12" height="12"/><rect class="c" x="802" y="2" rx="2" ry="2" width="12" height="12"/><rect class="c" x="802" y="18" rx="2" ry="2" width="12" height="12"/><rect class="c" x="802" y="34" rx="2" ry="2" width="12" height="12"/><rect class="c" x="802" y="50" rx="2" ry="2" width="12" height="12"/><rect class="c" x="802" y="66" rx="2" ry="2" width="12" height="12"/><rect class="c" x="802" y="82" rx="2" ry="2" width="12" height="12"/><rect class="c" x="802" y="98" rx="2" ry="2" width="12" height="12"/><rect class="c" x="818" y="2" rx="2" ry="2" width="12" height="12"/><rect class="c" x="818" y="18" rx="2" ry="2" width="12" height="12"/><rect class="c" x="818" y="34" rx="2" ry="2" width="12" height="12"/><rect class="c" x="818" y="50" rx="2" ry="2" width="12" height="12"/><rect class="c" x="818" y="66" rx="2" ry="2" width="12" height="12"/><rect class="c" x="818" y="82" rx="2" ry="2" width="12" height="12"/><rect class="c" x="818" y="98" rx="2" ry="2" width="12" height="12"/><rect class="c" x="834" y="2" rx="2" ry="2" width="12" height="12"/><rect class="u u0" height="12" width="509.4" x="0.0" y="144"/><rect class="u u1" height="12" width="149.0" x="508.8" y="144"/><rect class="u u2" height="12" width="149.0" x="657.2" y="144"/><rect class="u u3" height="12" width="43.0" x="805.6" y="144"/><rect class="s s0" x="0.8" y="0.8" width="14.4" height="14.4" rx="4.5" ry="4.5"/><rect class="s s1" x="1.8" y="1.8" width="12.3" height="12.3" rx="4.1" ry="4.1"/><rect class="s s2" x="2.6" y="2.6" width="10.8" height="10.8" rx="3.6" ry="3.6"/><rect class="s s3" x="3.0" y="3.0" width="9.9" height="9.9" rx="3.3" ry="3.3"/></svg>