<svg viewBox="-16 -32 880 192" width="880" height="192" xmlns="http://www.w3.org/2000/svg"><desc>Generated with https://github.com/Platane/snk</desc><style>@keyframes c0{1.84%{fill:var(--c1)}1.86%,to{fill:var(--ce)}}@keyframes c1{2.57%{fill:var(--c1)}2.59%,to{fill:var(--ce)}}@keyframes c2{2.94%{fill:var(--c1)}2.96%,to{fill:var(--ce)}}@keyframes c3{62.35%{fill:var(--c2)}62.37%,to{fill:var(--ce)}}@keyframes c4{4.42%{fill:var(--c1)}4.44%,to{fill:var(--ce)}}@keyframes c5{4.79%{fill:var(--c1)}4.81%,to{fill:var(--ce)}}@keyframes c6{61.61%{fill:var(--c2)}61.63%,to{fill:var(--ce)}}@keyframes c7{6.63%{fill:var(--c1)}6.65%,to{fill:var(--ce)}}@keyframes c8{94.45%{fill:var(--c4)}94.47%,to{fill:var(--ce)}}@keyframes c9{60.88%{fill:var(--c2)}60.9%,to{fill:var(--ce)}}@keyframes ca{9.22%{fill:var(--c1)}9.24%,to{fill:var(--ce)}}@keyframes cb{59.03%{fill:var(--c2)}59.05%,to{fill:var(--ce)}}@keyframes cc{64.57%{fill:var(--c3)}64.59%,to{fill:var(--ce)}}@keyframes cd{67.89%{fill:var(--c3)}67.91%,to{fill:var(--ce)}}@keyframes ce{68.26%{fill:var(--c3)}68.28%,to{fill:var(--ce)}}@keyframes cf{91.5%{fill:var(--c4)}91.52%,to{fill:var(--ce)}}@keyframes cg{66.41%{fill:var(--c3)}66.43%,to{fill:var(--ce)}}@keyframes ch{13.64%{fill:var(--c1)}13.66%,to{fill:var(--ce)}}@keyframes ci{56.45%{fill:var(--c2)}56.47%,to{fill:var(--ce)}}@keyframes cj{14.01%{fill:var(--c1)}14.03%,to{fill:var(--ce)}}@keyframes ck{54.97%{fill:var(--c2)}54.99%,to{fill:var(--ce)}}@keyframes cl{16.23%{fill:var(--c1)}16.25%,to{fill:var(--ce)}}@keyframes cm{21.02%{fill:var(--c1)}21.04%,to{fill:var(--ce)}}@keyframes cn{50.91%{fill:var(--c2)}50.93%,to{fill:var(--ce)}}@keyframes co{19.55%{fill:var(--c1)}19.57%,to{fill:var(--ce)}}@keyframes cp{23.61%{fill:var(--c1)}23.63%,to{fill:var(--ce)}}@keyframes cq{23.98%{fill:var(--c1)}24%,to{fill:var(--ce)}}@keyframes cr{29.14%{fill:var(--c1)}29.16%,to{fill:var(--ce)}}@keyframes cs{29.51%{fill:var(--c1)}29.53%,to{fill:var(--ce)}}@keyframes ct{80.06%{fill:var(--c3)}80.08%,to{fill:var(--ce)}}@keyframes cu{40.58%{fill:var(--c2)}40.6%,to{fill:var(--ce)}}@keyframes cv{33.57%{fill:var(--c1)}33.59%,to{fill:var(--ce)}}@keyframes cw{33.2%{fill:var(--c1)}33.22%,to{fill:var(--ce)}}@keyframes cx{32.46%{fill:var(--c1)}32.48%,to{fill:var(--ce)}}@keyframes cy{31.36%{fill:var(--c1)}31.38%,to{fill:var(--ce)}}@keyframes cz{43.9%{fill:var(--c2)}43.92%,to{fill:var(--ce)}}@keyframes c10{33.94%{fill:var(--c1)}33.96%,to{fill:var(--ce)}}@keyframes c11{31.72%{fill:var(--c1)}31.74%,to{fill:var(--ce)}}@keyframes c12{38.74%{fill:var(--c2)}38.76%,to{fill:var(--ce)}}@keyframes c13{36.15%{fill:var(--c1)}36.17%,to{fill:var(--ce)}}@keyframes c14{36.52%{fill:var(--c1)}36.54%,to{fill:var(--ce)}}@keyframes u0{1.84%{transform:scale(0,1)}1.86%,2.57%{transform:scale(.04,1)}2.59%,2.94%{transform:scale(.08,1)}2.96%,4.42%{transform:scale(.13,1)}4.44%,4.79%{transform:scale(.17,1)}4.81%,6.63%{transform:scale(.21,1)}6.65%,9.22%{transform:scale(.25,1)}13.64%,9.24%{transform:scale(.29,1)}13.66%,14.01%{transform:scale(.33,1)}14.03%,16.23%{transform:scale(.38,1)}16.25%,19.55%{transform:scale(.42,1)}19.57%,21.02%{transform:scale(.46,1)}21.04%,23.61%{transform:scale(.5,1)}23.63%,23.98%{transform:scale(.54,1)}24%,29.14%{transform:scale(.58,1)}29.16%,29.51%{transform:scale(.63,1)}29.53%,31.36%{transform:scale(.67,1)}31.38%,31.72%{transform:scale(.71,1)}31.74%,32.46%{transform:scale(.75,1)}32.48%,33.2%{transform:scale(.79,1)}33.22%,33.57%{transform:scale(.83,1)}33.59%,33.94%{transform:scale(.88,1)}33.96%,36.15%{transform:scale(.92,1)}36.17%,36.52%{transform:scale(.96,1)}36.54%,to{transform:scale(1,1)}}@keyframes u1{38.74%{transform:scale(0,1)}38.76%,40.58%{transform:scale(.1,1)}40.6%,43.9%{transform:scale(.2,1)}43.92%,50.91%{transform:scale(.3,1)}50.93%,54.97%{transform:scale(.4,1)}54.99%,56.45%{transform:scale(.5,1)}56.47%,59.03%{transform:scale(.6,1)}59.05%,60.88%{transform:scale(.7,1)}60.9%,61.61%{transform:scale(.8,1)}61.63%,62.35%{transform:scale(.9,1)}62.37%,to{transform:scale(1,1)}}@keyframes u2{64.57%{transform:scale(0,1)}64.59%,66.41%{transform:scale(.2,1)}66.43%,67.89%{transform:scale(.4,1)}67.91%,68.26%{transform:scale(.6,1)}68.28%,80.06%{transform:scale(.8,1)}80.08%,to{transform:scale(1,1)}}@keyframes u3{91.5%{transform:scale(0,1)}91.52%,94.45%{transform:scale(.5,1)}94.47%,to{transform:scale(1,1)}}@keyframes s0{0%,99.63%{transform:translate(0,-16px)}.37%{transform:translate(0,0)}2.21%{transform:translate(80px,0)}2.95%,96.68%{transform:translate(80px,32px)}4.43%{transform:translate(144px,32px)}4.8%{transform:translate(144px,48px)}5.17%{transform:translate(128px,48px)}5.54%{transform:translate(128px,32px)}6.27%{transform:translate(160px,32px)}6.64%,93.73%{transform:translate(160px,16px)}7.01%{transform:translate(176px,16px)}8.49%{transform:translate(176px,80px)}8.86%{transform:translate(160px,80px)}9.23%{transform:translate(160px,96px)}59.41%,9.96%{transform:translate(192px,96px)}10.33%{transform:translate(192px,80px)}11.44%{transform:translate(240px,80px)}12.55%,67.16%{transform:translate(240px,32px)}13.28%,56.09%{transform:translate(272px,32px)}13.65%{transform:translate(272px,16px)}15.5%{transform:translate(352px,16px)}16.24%{transform:translate(352px,48px)}19.19%{transform:translate(480px,48px)}19.56%,22.51%{transform:translate(480px,32px)}19.93%{transform:translate(496px,32px)}20.66%{transform:translate(496px,0)}21.4%{transform:translate(464px,0)}22.14%{transform:translate(464px,32px)}23.99%{transform:translate(480px,96px)}28.41%{transform:translate(672px,96px)}29.15%{transform:translate(672px,64px)}29.89%,40.96%{transform:translate(704px,64px)}30.26%{transform:translate(704px,80px)}31.73%{transform:translate(768px,80px)}32.1%,38.01%{transform:translate(768px,64px)}32.47%,39.85%{transform:translate(752px,64px)}33.58%{transform:translate(752px,16px)}35.42%{transform:translate(832px,16px)}36.53%{transform:translate(832px,64px)}38.75%{transform:translate(768px,96px)}39.11%{transform:translate(752px,96px)}41.7%{transform:translate(704px,32px)}43.17%{transform:translate(768px,32px)}43.91%{transform:translate(768px,0)}50.55%{transform:translate(480px,0)}50.92%{transform:translate(480px,16px)}54.61%{transform:translate(320px,16px)}54.98%{transform:translate(320px,32px)}56.83%{transform:translate(272px,64px)}58.3%{transform:translate(208px,64px)}59.04%{transform:translate(208px,96px)}60.15%{transform:translate(192px,64px)}61.25%{transform:translate(144px,64px)}61.62%{transform:translate(144px,80px)}61.99%{transform:translate(128px,80px)}62.36%{transform:translate(128px,96px)}65.31%{transform:translate(256px,96px)}66.79%{transform:translate(256px,32px)}67.9%{transform:translate(240px,0)}78.97%{transform:translate(720px,0)}80.07%{transform:translate(720px,48px)}80.44%{transform:translate(704px,48px)}81.18%{transform:translate(704px,16px)}94.46%{transform:translate(160px,48px)}95.94%{transform:translate(96px,48px)}96.31%{transform:translate(96px,32px)}97.05%{transform:translate(80px,16px)}97.42%{transform:translate(64px,16px)}97.79%{transform:translate(64px,0)}98.15%{transform:translate(48px,0)}98.52%{transform:translate(48px,-16px)}}@keyframes s1{0%,99.63%{transform:translate(16px,-16px)}.37%{transform:translate(0,-16px)}.74%{transform:translate(0,0)}2.58%{transform:translate(80px,0)}3.32%,97.05%{transform:translate(80px,32px)}4.8%{transform:translate(144px,32px)}5.17%{transform:translate(144px,48px)}5.54%{transform:translate(128px,48px)}5.9%{transform:translate(128px,32px)}6.64%{transform:translate(160px,32px)}7.01%,94.1%{transform:translate(160px,16px)}7.38%{transform:translate(176px,16px)}8.86%{transform:translate(176px,80px)}9.23%{transform:translate(160px,80px)}9.59%{transform:translate(160px,96px)}10.33%,59.78%{transform:translate(192px,96px)}10.7%{transform:translate(192px,80px)}11.81%{transform:translate(240px,80px)}12.92%,67.53%{transform:translate(240px,32px)}13.65%,56.46%{transform:translate(272px,32px)}14.02%{transform:translate(272px,16px)}15.87%{transform:translate(352px,16px)}16.61%{transform:translate(352px,48px)}19.56%{transform:translate(480px,48px)}19.93%,22.88%{transform:translate(480px,32px)}20.3%{transform:translate(496px,32px)}21.03%{transform:translate(496px,0)}21.77%{transform:translate(464px,0)}22.51%{transform:translate(464px,32px)}24.35%{transform:translate(480px,96px)}28.78%{transform:translate(672px,96px)}29.52%{transform:translate(672px,64px)}30.26%,41.33%{transform:translate(704px,64px)}30.63%{transform:translate(704px,80px)}32.1%{transform:translate(768px,80px)}32.47%,38.38%{transform:translate(768px,64px)}32.84%,40.22%{transform:translate(752px,64px)}33.95%{transform:translate(752px,16px)}35.79%{transform:translate(832px,16px)}36.9%{transform:translate(832px,64px)}39.11%{transform:translate(768px,96px)}39.48%{transform:translate(752px,96px)}42.07%{transform:translate(704px,32px)}43.54%{transform:translate(768px,32px)}44.28%{transform:translate(768px,0)}50.92%{transform:translate(480px,0)}51.29%{transform:translate(480px,16px)}54.98%{transform:translate(320px,16px)}55.35%{transform:translate(320px,32px)}57.2%{transform:translate(272px,64px)}58.67%{transform:translate(208px,64px)}59.41%{transform:translate(208px,96px)}60.52%{transform:translate(192px,64px)}61.62%{transform:translate(144px,64px)}61.99%{transform:translate(144px,80px)}62.36%{transform:translate(128px,80px)}62.73%{transform:translate(128px,96px)}65.68%{transform:translate(256px,96px)}67.16%{transform:translate(256px,32px)}68.27%{transform:translate(240px,0)}79.34%{transform:translate(720px,0)}80.44%{transform:translate(720px,48px)}80.81%{transform:translate(704px,48px)}81.55%{transform:translate(704px,16px)}94.83%{transform:translate(160px,48px)}96.31%{transform:translate(96px,48px)}96.68%{transform:translate(96px,32px)}97.42%{transform:translate(80px,16px)}97.79%{transform:translate(64px,16px)}98.15%{transform:translate(64px,0)}98.52%{transform:translate(48px,0)}98.89%{transform:translate(48px,-16px)}}@keyframes s2{0%,99.63%{transform:translate(32px,-16px)}.74%{transform:translate(0,-16px)}1.11%{transform:translate(0,0)}2.95%{transform:translate(80px,0)}3.69%,97.42%{transform:translate(80px,32px)}5.17%{transform:translate(144px,32px)}5.54%{transform:translate(144px,48px)}5.9%{transform:translate(128px,48px)}6.27%{transform:translate(128px,32px)}7.01%{transform:translate(160px,32px)}7.38%,94.46%{transform:translate(160px,16px)}7.75%{transform:translate(176px,16px)}9.23%{transform:translate(176px,80px)}9.59%{transform:translate(160px,80px)}9.96%{transform:translate(160px,96px)}10.7%,60.15%{transform:translate(192px,96px)}11.07%{transform:translate(192px,80px)}12.18%{transform:translate(240px,80px)}13.28%,67.9%{transform:translate(240px,32px)}14.02%,56.83%{transform:translate(272px,32px)}14.39%{transform:translate(272px,16px)}16.24%{transform:translate(352px,16px)}16.97%{transform:translate(352px,48px)}19.93%{transform:translate(480px,48px)}20.3%,23.25%{transform:translate(480px,32px)}20.66%{transform:translate(496px,32px)}21.4%{transform:translate(496px,0)}22.14%{transform:translate(464px,0)}22.88%{transform:translate(464px,32px)}24.72%{transform:translate(480px,96px)}29.15%{transform:translate(672px,96px)}29.89%{transform:translate(672px,64px)}30.63%,41.7%{transform:translate(704px,64px)}31%{transform:translate(704px,80px)}32.47%{transform:translate(768px,80px)}32.84%,38.75%{transform:translate(768px,64px)}33.21%,40.59%{transform:translate(752px,64px)}34.32%{transform:translate(752px,16px)}36.16%{transform:translate(832px,16px)}37.27%{transform:translate(832px,64px)}39.48%{transform:translate(768px,96px)}39.85%{transform:translate(752px,96px)}42.44%{transform:translate(704px,32px)}43.91%{transform:translate(768px,32px)}44.65%{transform:translate(768px,0)}51.29%{transform:translate(480px,0)}51.66%{transform:translate(480px,16px)}55.35%{transform:translate(320px,16px)}55.72%{transform:translate(320px,32px)}57.56%{transform:translate(272px,64px)}59.04%{transform:translate(208px,64px)}59.78%{transform:translate(208px,96px)}60.89%{transform:translate(192px,64px)}61.99%{transform:translate(144px,64px)}62.36%{transform:translate(144px,80px)}62.73%{transform:translate(128px,80px)}63.1%{transform:translate(128px,96px)}66.05%{transform:translate(256px,96px)}67.53%{transform:translate(256px,32px)}68.63%{transform:translate(240px,0)}79.7%{transform:translate(720px,0)}80.81%{transform:translate(720px,48px)}81.18%{transform:translate(704px,48px)}81.92%{transform:translate(704px,16px)}95.2%{transform:translate(160px,48px)}96.68%{transform:translate(96px,48px)}97.05%{transform:translate(96px,32px)}97.79%{transform:translate(80px,16px)}98.15%{transform:translate(64px,16px)}98.52%{transform:translate(64px,0)}98.89%{transform:translate(48px,0)}99.26%{transform:translate(48px,-16px)}}@keyframes s3{0%,99.63%{transform:translate(48px,-16px)}1.11%{transform:translate(0,-16px)}1.48%{transform:translate(0,0)}3.32%{transform:translate(80px,0)}4.06%,97.79%{transform:translate(80px,32px)}5.54%{transform:translate(144px,32px)}5.9%{transform:translate(144px,48px)}6.27%{transform:translate(128px,48px)}6.64%{transform:translate(128px,32px)}7.38%{transform:translate(160px,32px)}7.75%,94.83%{transform:translate(160px,16px)}8.12%{transform:translate(176px,16px)}9.59%{transform:translate(176px,80px)}9.96%{transform:translate(160px,80px)}10.33%{transform:translate(160px,96px)}11.07%,60.52%{transform:translate(192px,96px)}11.44%{transform:translate(192px,80px)}12.55%{transform:translate(240px,80px)}13.65%,68.27%{transform:translate(240px,32px)}14.39%,57.2%{transform:translate(272px,32px)}14.76%{transform:translate(272px,16px)}16.61%{transform:translate(352px,16px)}17.34%{transform:translate(352px,48px)}20.3%{transform:translate(480px,48px)}20.66%,23.62%{transform:translate(480px,32px)}21.03%{transform:translate(496px,32px)}21.77%{transform:translate(496px,0)}22.51%{transform:translate(464px,0)}23.25%{transform:translate(464px,32px)}25.09%{transform:translate(480px,96px)}29.52%{transform:translate(672px,96px)}30.26%{transform:translate(672px,64px)}31%,42.07%{transform:translate(704px,64px)}31.37%{transform:translate(704px,80px)}32.84%{transform:translate(768px,80px)}33.21%,39.11%{transform:translate(768px,64px)}33.58%,40.96%{transform:translate(752px,64px)}34.69%{transform:translate(752px,16px)}36.53%{transform:translate(832px,16px)}37.64%{transform:translate(832px,64px)}39.85%{transform:translate(768px,96px)}40.22%{transform:translate(752px,96px)}42.8%{transform:translate(704px,32px)}44.28%{transform:translate(768px,32px)}45.02%{transform:translate(768px,0)}51.66%{transform:translate(480px,0)}52.03%{transform:translate(480px,16px)}55.72%{transform:translate(320px,16px)}56.09%{transform:translate(320px,32px)}57.93%{transform:translate(272px,64px)}59.41%{transform:translate(208px,64px)}60.15%{transform:translate(208px,96px)}61.25%{transform:translate(192px,64px)}62.36%{transform:translate(144px,64px)}62.73%{transform:translate(144px,80px)}63.1%{transform:translate(128px,80px)}63.47%{transform:translate(128px,96px)}66.42%{transform:translate(256px,96px)}67.9%{transform:translate(256px,32px)}69%{transform:translate(240px,0)}80.07%{transform:translate(720px,0)}81.18%{transform:translate(720px,48px)}81.55%{transform:translate(704px,48px)}82.29%{transform:translate(704px,16px)}95.57%{transform:translate(160px,48px)}97.05%{transform:translate(96px,48px)}97.42%{transform:translate(96px,32px)}98.15%{transform:translate(80px,16px)}98.52%{transform:translate(64px,16px)}98.89%{transform:translate(64px,0)}99.26%{transform:translate(48px,0)}}:root{--cb:#1b1f230a;--cs:purple;--ce:#ebedf0;--c0:#ebedf0;--c1:#9be9a8;--c2:#40c463;--c3:#30a14e;--c4:#216e39}@media (prefers-color-scheme:dark){:root{--cb:#1b1f230a;--cs:purple;--ce:#161b22;--c1:#01311f;--c2:#034525;--c3:#0f6d31;--c4:#00c647}}.c{shape-rendering:geometricPrecision;fill:var(--ce);stroke-width:1px;stroke:var(--cb);animation:none 27100ms linear infinite}.c.c0,.c.c1,.c.c2{fill:var(--c1);animation-name:c0}.c.c1,.c.c2{animation-name:c1}.c.c2{animation-name:c2}.c.c3{fill:var(--c2);animation-name:c3}.c.c4,.c.c5{fill:var(--c1);animation-name:c4}.c.c5{animation-name:c5}.c.c6{fill:var(--c2);animation-name:c6}.c.c7{fill:var(--c1);animation-name:c7}.c.c8{fill:var(--c4);animation-name:c8}.c.c9{fill:var(--c2);animation-name:c9}.c.ca{fill:var(--c1);animation-name:ca}.c.cb{fill:var(--c2);animation-name:cb}.c.cc,.c.cd,.c.ce{fill:var(--c3);animation-name:cc}.c.cd,.c.ce{animation-name:cd}.c.ce{animation-name:ce}.c.cf{fill:var(--c4);animation-name:cf}.c.cg{fill:var(--c3);animation-name:cg}.c.ch{fill:var(--c1);animation-name:ch}.c.ci{fill:var(--c2);animation-name:ci}.c.cj{fill:var(--c1);animation-name:cj}.c.ck{fill:var(--c2);animation-name:ck}.c.cl,.c.cm{fill:var(--c1);animation-name:cl}.c.cm{animation-name:cm}.c.cn{fill:var(--c2);animation-name:cn}.c.co,.c.cp{fill:var(--c1);animation-name:co}.c.cp{animation-name:cp}.c.cq,.c.cr,.c.cs{fill:var(--c1);animation-name:cq}.c.cr,.c.cs{animation-name:cr}.c.cs{animation-name:cs}.c.ct{fill:var(--c3);animation-name:ct}.c.cu{fill:var(--c2);animation-name:cu}.c.cv{fill:var(--c1);animation-name:cv}.c.cw,.c.cx,.c.cy{fill:var(--c1);animation-name:cw}.c.cx,.c.cy{animation-name:cx}.c.cy{animation-name:cy}.c.cz{fill:var(--c2);animation-name:cz}.c.c10,.c.c11{fill:var(--c1);animation-name:c10}.c.c11{animation-name:c11}.c.c12{fill:var(--c2);animation-name:c12}.c.c13,.c.c14{fill:var(--c1);animation-name:c13}.c.c14{animation-name:c14}.s,.u{animation:none linear 27100ms infinite}.u,.u.u0{transform-origin:0 0}.u{transform:scale(0,1)}.u.u0{fill:var(--c1);animation-name:u0}.u.u1{fill:var(--c2);animation-name:u1;transform-origin:496.4px 0}.u.u2{fill:var(--c3);animation-name:u2;transform-origin:703.2px 0}.u.u3{fill:var(--c4);animation-name:u3;transform-origin:806.6px 0}.s{shape-rendering:geometricPrecision;fill:var(--cs)}.s.s0{transform:translate(0,-16px);animation-name:s0}.s.s1{transform:translate(16px,-16px);animation-name:s1}.s.s2{transform:translate(32px,-16px);animation-name:s2}.s.s3{transform:translate(48px,-16px);animation-name:s3}</style><rect class="c" x="2" y="2" rx="2" ry="2" width="12" height="12"/><rect class="c" x="2" y="18" rx="2" ry="2" width="12" height="12"/><rect class="c" x="2" y="34" rx="2" ry="2" width="12" height="12"/><rect class="c" x="2" y="50" rx="2" ry="2" width="12" height="12"/><rect class="c" x="2" y="66" rx="2" ry="2" width="12" height="12"/><rect class="c" x="2" y="82" rx="2" ry="2" width="12" height="12"/><rect class="c" x="2" y="98" rx="2" ry="2" width="12" height="12"/><rect class="c" x="18" y="2" rx="2" ry="2" width="12" height="12"/><rect class="c" x="18" y="18" rx="2" ry="2" width="12" height="12"/><rect class="c" x="18" y="34" rx="2" ry="2" width="12" height="12"/><rect class="c" x="18" y="50" rx="2" ry="2" width="12" height="12"/><rect class="c" x="18" y="66" rx="2" ry="2" width="12" height="12"/><rect class="c" x="18" y="82" rx="2" ry="2" width="12" height="12"/><rect class="c" x="18" y="98" rx="2" ry="2" width="12" height="12"/><rect class="c" x="34" y="2" rx="2" ry="2" width="12" height="12"/><rect class="c" x="34" y="18" rx="2" ry="2" width="12" height="12"/><rect class="c" x="34" y="34" rx="2" ry="2" width="12" height="12"/><rect class="c" x="34" y="50" rx="2" ry="2" width="12" height="12"/><rect class="c" x="34" y="66" rx="2" ry="2" width="12" height="12"/><rect class="c" x="34" y="82" rx="2" ry="2" width="12" height="12"/><rect class="c" x="34" y="98" rx="2" ry="2" width="12" height="12"/><rect class="c" x="50" y="2" rx="2" ry="2" width="12" height="12"/><rect class="c" x="50" y="18" rx="2" ry="2" width="12" height="12"/><rect class="c" x="50" y="34" rx="2" ry="2" width="12" height="12"/><rect class="c" x="50" y="50" rx="2" ry="2" width="12" height="12"/><rect class="c" x="50" y="66" rx="2" ry="2" width="12" height="12"/><rect class="c" x="50" y="82" rx="2" ry="2" width="12" height="12"/><rect class="c" x="50" y="98" rx="2" ry="2" width="12" height="12"/><rect class="c c0" x="66" y="2" rx="2" ry="2" width="12" height="12"/><rect class="c" x="66" y="18" rx="2" ry="2" width="12" height="12"/><rect class="c" x="66" y="34" rx="2" ry="2" width="12" height="12"/><rect class="c" x="66" y="50" rx="2" ry="2" width="12" height="12"/><rect class="c" x="66" y="66" rx="2" ry="2" width="12" height="12"/><rect class="c" x="66" y="82" rx="2" ry="2" width="12" height="12"/><rect class="c" x="66" y="98" rx="2" ry="2" width="12" height="12"/><rect class="c" x="82" y="2" rx="2" ry="2" width="12" height="12"/><rect class="c c1" x="82" y="18" rx="2" ry="2" width="12" height="12"/><rect class="c c2" x="82" y="34" rx="2" ry="2" width="12" height="12"/><rect class="c" x="82" y="50" rx="2" ry="2" width="12" height="12"/><rect class="c" x="82" y="66" rx="2" ry="2" width="12" height="12"/><rect class="c" x="82" y="82" rx="2" ry="2" width="12" height="12"/><rect class="c" x="82" y="98" rx="2" ry="2" width="12" height="12"/><rect class="c" x="98" y="2" rx="2" ry="2" width="12" height="12"/><rect class="c" x="98" y="18" rx="2" ry="2" width="12" height="12"/><rect class="c" x="98" y="34" rx="2" ry="2" width="12" height="12"/><rect class="c" x="98" y="50" rx="2" ry="2" width="12" height="12"/><rect class="c" x="98" y="66" rx="2" ry="2" width="12" height="12"/><rect class="c" x="98" y="82" rx="2" ry="2" width="12" height="12"/><rect class="c" x="98" y="98" rx="2" ry="2" width="12" height="12"/><rect class="c" x="114" y="2" rx="2" ry="2" width="12" height="12"/><rect class="c" x="114" y="18" rx="2" ry="2" width="12" height="12"/><rect class="c" x="114" y="34" rx="2" ry="2" width="12" height="12"/><rect class="c" x="114" y="50" rx="2" ry="2" width="12" height="12"/><rect class="c" x="114" y="66" rx="2" ry="2" width="12" height="12"/><rect class="c" x="114" y="82" rx="2" ry="2" width="12" height="12"/><rect class="c" x="114" y="98" rx="2" ry="2" width="12" height="12"/><rect class="c" x="130" y="2" rx="2" ry="2" width="12" height="12"/><rect class="c" x="130" y="18" rx="2" ry="2" width="12" height="12"/><rect class="c" x="130" y="34" rx="2" ry="2" width="12" height="12"/><rect class="c" x="130" y="50" rx="2" ry="2" width="12" height="12"/><rect class="c" x="130" y="66" rx="2" ry="2" width="12" height="12"/><rect class="c" x="130" y="82" rx="2" ry="2" width="12" height="12"/><rect class="c c3" x="130" y="98" rx="2" ry="2" width="12" height="12"/><rect class="c" x="146" y="2" rx="2" ry="2" width="12" height="12"/><rect class="c" x="146" y="18" rx="2" ry="2" width="12" height="12"/><rect class="c c4" x="146" y="34" rx="2" ry="2" width="12" height="12"/><rect class="c c5" x="146" y="50" rx="2" ry="2" width="12" height="12"/><rect class="c" x="146" y="66" rx="2" ry="2" width="12" height="12"/><rect class="c c6" x="146" y="82" rx="2" ry="2" width="12" height="12"/><rect class="c" x="146" y="98" rx="2" ry="2" width="12" height="12"/><rect class="c" x="162" y="2" rx="2" ry="2" width="12" height="12"/><rect class="c c7" x="162" y="18" rx="2" ry="2" width="12" height="12"/><rect class="c" x="162" y="34" rx="2" ry="2" width="12" height="12"/><rect class="c c8" x="162" y="50" rx="2" ry="2" width="12" height="12"/><rect class="c c9" x="162" y="66" rx="2" ry="2" width="12" height="12"/><rect class="c" x="162" y="82" rx="2" ry="2" width="12" height="12"/><rect class="c ca" x="162" y="98" rx="2" ry="2" width="12" height="12"/><rect class="c" x="178" y="2" rx="2" ry="2" width="12" height="12"/><rect class="c" x="178" y="18" rx="2" ry="2" width="12" height="12"/><rect class="c" x="178" y="34" rx="2" ry="2" width="12" height="12"/><rect class="c" x="178" y="50" rx="2" ry="2" width="12" height="12"/><rect class="c" x="178" y="66" rx="2" ry="2" width="12" height="12"/><rect class="c" x="178" y="82" rx="2" ry="2" width="12" height="12"/><rect class="c" x="178" y="98" rx="2" ry="2" width="12" height="12"/><rect class="c" x="194" y="2" rx="2" ry="2" width="12" height="12"/><rect class="c" x="194" y="18" rx="2" ry="2" width="12" height="12"/><rect class="c" x="194" y="34" rx="2" ry="2" width="12" height="12"/><rect class="c" x="194" y="50" rx="2" ry="2" width="12" height="12"/><rect class="c" x="194" y="66" rx="2" ry="2" width="12" height="12"/><rect class="c" x="194" y="82" rx="2" ry="2" width="12" height="12"/><rect class="c" x="194" y="98" rx="2" ry="2" width="12" height="12"/><rect class="c" x="210" y="2" rx="2" ry="2" width="12" height="12"/><rect class="c" x="210" y="18" rx="2" ry="2" width="12" height="12"/><rect class="c" x="210" y="34" rx="2" ry="2" width="12" height="12"/><rect class="c" x="210" y="50" rx="2" ry="2" width="12" height="12"/><rect class="c" x="210" y="66" rx="2" ry="2" width="12" height="12"/><rect class="c" x="210" y="82" rx="2" ry="2" width="12" height="12"/><rect class="c cb" x="210" y="98" rx="2" ry="2" width="12" height="12"/><rect class="c" x="226" y="2" rx="2" ry="2" width="12" height="12"/><rect class="c" x="226" y="18" rx="2" ry="2" width="12" height="12"/><rect class="c" x="226" y="34" rx="2" ry="2" width="12" height="12"/><rect class="c" x="226" y="50" rx="2" ry="2" width="12" height="12"/><rect class="c" x="226" y="66" rx="2" ry="2" width="12" height="12"/><rect class="c" x="226" y="82" rx="2" ry="2" width="12" height="12"/><rect class="c cc" x="226" y="98" rx="2" ry="2" width="12" height="12"/><rect class="c cd" x="242" y="2" rx="2" ry="2" width="12" height="12"/><rect class="c" x="242" y="18" rx="2" ry="2" width="12" height="12"/><rect class="c" x="242" y="34" rx="2" ry="2" width="12" height="12"/><rect class="c" x="242" y="50" rx="2" ry="2" width="12" height="12"/><rect class="c" x="242" y="66" rx="2" ry="2" width="12" height="12"/><rect class="c" x="242" y="82" rx="2" ry="2" width="12" height="12"/><rect class="c" x="242" y="98" rx="2" ry="2" width="12" height="12"/><rect class="c ce" x="258" y="2" rx="2" ry="2" width="12" height="12"/><rect class="c cf" x="258" y="18" rx="2" ry="2" width="12" height="12"/><rect class="c" x="258" y="34" rx="2" ry="2" width="12" height="12"/><rect class="c cg" x="258" y="50" rx="2" ry="2" width="12" height="12"/><rect class="c" x="258" y="66" rx="2" ry="2" width="12" height="12"/><rect class="c" x="258" y="82" rx="2" ry="2" width="12" height="12"/><rect class="c" x="258" y="98" rx="2" ry="2" width="12" height="12"/><rect class="c" x="274" y="2" rx="2" ry="2" width="12" height="12"/><rect class="c ch" x="274" y="18" rx="2" ry="2" width="12" height="12"/><rect class="c" x="274" y="34" rx="2" ry="2" width="12" height="12"/><rect class="c ci" x="274" y="50" rx="2" ry="2" width="12" height="12"/><rect class="c" x="274" y="66" rx="2" ry="2" width="12" height="12"/><rect class="c" x="274" y="82" rx="2" ry="2" width="12" height="12"/><rect class="c" x="274" y="98" rx="2" ry="2" width="12" height="12"/><rect class="c" x="290" y="2" rx="2" ry="2" width="12" height="12"/><rect class="c cj" x="290" y="18" rx="2" ry="2" width="12" height="12"/><rect class="c" x="290" y="34" rx="2" ry="2" width="12" height="12"/><rect class="c" x="290" y="50" rx="2" ry="2" width="12" height="12"/><rect class="c" x="290" y="66" rx="2" ry="2" width="12" height="12"/><rect class="c" x="290" y="82" rx="2" ry="2" width="12" height="12"/><rect class="c" x="290" y="98" rx="2" ry="2" width="12" height="12"/><rect class="c" x="306" y="2" rx="2" ry="2" width="12" height="12"/><rect class="c" x="306" y="18" rx="2" ry="2" width="12" height="12"/><rect class="c" x="306" y="34" rx="2" ry="2" width="12" height="12"/><rect class="c" x="306" y="50" rx="2" ry="2" width="12" height="12"/><rect class="c" x="306" y="66" rx="2" ry="2" width="12" height="12"/><rect class="c" x="306" y="82" rx="2" ry="2" width="12" height="12"/><rect class="c" x="306" y="98" rx="2" ry="2" width="12" height="12"/><rect class="c" x="322" y="2" rx="2" ry="2" width="12" height="12"/><rect class="c" x="322" y="18" rx="2" ry="2" width="12" height="12"/><rect class="c ck" x="322" y="34" rx="2" ry="2" width="12" height="12"/><rect class="c" x="322" y="50" rx="2" ry="2" width="12" height="12"/><rect class="c" x="322" y="66" rx="2" ry="2" width="12" height="12"/><rect class="c" x="322" y="82" rx="2" ry="2" width="12" height="12"/><rect class="c" x="322" y="98" rx="2" ry="2" width="12" height="12"/><rect class="c" x="338" y="2" rx="2" ry="2" width="12" height="12"/><rect class="c" x="338" y="18" rx="2" ry="2" width="12" height="12"/><rect class="c" x="338" y="34" rx="2" ry="2" width="12" height="12"/><rect class="c" x="338" y="50" rx="2" ry="2" width="12" height="12"/><rect class="c" x="338" y="66" rx="2" ry="2" width="12" height="12"/><rect class="c" x="338" y="82" rx="2" ry="2" width="12" height="12"/><rect class="c" x="338" y="98" rx="2" ry="2" width="12" height="12"/><rect class="c" x="354" y="2" rx="2" ry="2" width="12" height="12"/><rect class="c" x="354" y="18" rx="2" ry="2" width="12" height="12"/><rect class="c" x="354" y="34" rx="2" ry="2" width="12" height="12"/><rect class="c cl" x="354" y="50" rx="2" ry="2" width="12" height="12"/><rect class="c" x="354" y="66" rx="2" ry="2" width="12" height="12"/><rect class="c" x="354" y="82" rx="2" ry="2" width="12" height="12"/><rect class="c" x="354" y="98" rx="2" ry="2" width="12" height="12"/><rect class="c" x="370" y="2" rx="2" ry="2" width="12" height="12"/><rect class="c" x="370" y="18" rx="2" ry="2" width="12" height="12"/><rect class="c" x="370" y="34" rx="2" ry="2" width="12" height="12"/><rect class="c" x="370" y="50" rx="2" ry="2" width="12" height="12"/><rect class="c" x="370" y="66" rx="2" ry="2" width="12" height="12"/><rect class="c" x="370" y="82" rx="2" ry="2" width="12" height="12"/><rect class="c" x="370" y="98" rx="2" ry="2" width="12" height="12"/><rect class="c" x="386" y="2" rx="2" ry="2" width="12" height="12"/><rect class="c" x="386" y="18" rx="2" ry="2" width="12" height="12"/><rect class="c" x="386" y="34" rx="2" ry="2" width="12" height="12"/><rect class="c" x="386" y="50" rx="2" ry="2" width="12" height="12"/><rect class="c" x="386" y="66" rx="2" ry="2" width="12" height="12"/><rect class="c" x="386" y="82" rx="2" ry="2" width="12" height="12"/><rect class="c" x="386" y="98" rx="2" ry="2" width="12" height="12"/><rect class="c" x="402" y="2" rx="2" ry="2" width="12" height="12"/><rect class="c" x="402" y="18" rx="2" ry="2" width="12" height="12"/><rect class="c" x="402" y="34" rx="2" ry="2" width="12" height="12"/><rect class="c" x="402" y="50" rx="2" ry="2" width="12" height="12"/><rect class="c" x="402" y="66" rx="2" ry="2" width="12" height="12"/><rect class="c" x="402" y="82" rx="2" ry="2" width="12" height="12"/><rect class="c" x="402" y="98" rx="2" ry="2" width="12" height="12"/><rect class="c" x="418" y="2" rx="2" ry="2" width="12" height="12"/><rect class="c" x="418" y="18" rx="2" ry="2" width="12" height="12"/><rect class="c" x="418" y="34" rx="2" ry="2" width="12" height="12"/><rect class="c" x="418" y="50" rx="2" ry="2" width="12" height="12"/><rect class="c" x="418" y="66" rx="2" ry="2" width="12" height="12"/><rect class="c" x="418" y="82" rx="2" ry="2" width="12" height="12"/><rect class="c" x="418" y="98" rx="2" ry="2" width="12" height="12"/><rect class="c" x="434" y="2" rx="2" ry="2" width="12" height="12"/><rect class="c" x="434" y="18" rx="2" ry="2" width="12" height="12"/><rect class="c" x="434" y="34" rx="2" ry="2" width="12" height="12"/><rect class="c" x="434" y="50" rx="2" ry="2" width="12" height="12"/><rect class="c" x="434" y="66" rx="2" ry="2" width="12" height="12"/><rect class="c" x="434" y="82" rx="2" ry="2" width="12" height="12"/><rect class="c" x="434" y="98" rx="2" ry="2" width="12" height="12"/><rect class="c" x="450" y="2" rx="2" ry="2" width="12" height="12"/><rect class="c" x="450" y="18" rx="2" ry="2" width="12" height="12"/><rect class="c" x="450" y="34" rx="2" ry="2" width="12" height="12"/><rect class="c" x="450" y="50" rx="2" ry="2" width="12" height="12"/><rect class="c" x="450" y="66" rx="2" ry="2" width="12" height="12"/><rect class="c" x="450" y="82" rx="2" ry="2" width="12" height="12"/><rect class="c" x="450" y="98" rx="2" ry="2" width="12" height="12"/><rect class="c" x="466" y="2" rx="2" ry="2" width="12" height="12"/><rect class="c" x="466" y="18" rx="2" ry="2" width="12" height="12"/><rect class="c" x="466" y="34" rx="2" ry="2" width="12" height="12"/><rect class="c" x="466" y="50" rx="2" ry="2" width="12" height="12"/><rect class="c" x="466" y="66" rx="2" ry="2" width="12" height="12"/><rect class="c" x="466" y="82" rx="2" ry="2" width="12" height="12"/><rect class="c" x="466" y="98" rx="2" ry="2" width="12" height="12"/><rect class="c cm" x="482" y="2" rx="2" ry="2" width="12" height="12"/><rect class="c cn" x="482" y="18" rx="2" ry="2" width="12" height="12"/><rect class="c co" x="482" y="34" rx="2" ry="2" width="12" height="12"/><rect class="c" x="482" y="50" rx="2" ry="2" width="12" height="12"/><rect class="c" x="482" y="66" rx="2" ry="2" width="12" height="12"/><rect class="c cp" x="482" y="82" rx="2" ry="2" width="12" height="12"/><rect class="c cq" x="482" y="98" rx="2" ry="2" width="12" height="12"/><rect class="c" x="498" y="2" rx="2" ry="2" width="12" height="12"/><rect class="c" x="498" y="18" rx="2" ry="2" width="12" height="12"/><rect class="c" x="498" y="34" rx="2" ry="2" width="12" height="12"/><rect class="c" x="498" y="50" rx="2" ry="2" width="12" height="12"/><rect class="c" x="498" y="66" rx="2" ry="2" width="12" height="12"/><rect class="c" x="498" y="82" rx="2" ry="2" width="12" height="12"/><rect class="c" x="498" y="98" rx="2" ry="2" width="12" height="12"/><rect class="c" x="514" y="2" rx="2" ry="2" width="12" height="12"/><rect class="c" x="514" y="18" rx="2" ry="2" width="12" height="12"/><rect class="c" x="514" y="34" rx="2" ry="2" width="12" height="12"/><rect class="c" x="514" y="50" rx="2" ry="2" width="12" height="12"/><rect class="c" x="514" y="66" rx="2" ry="2" width="12" height="12"/><rect class="c" x="514" y="82" rx="2" ry="2" width="12" height="12"/><rect class="c" x="514" y="98" rx="2" ry="2" width="12" height="12"/><rect class="c" x="530" y="2" rx="2" ry="2" width="12" height="12"/><rect class="c" x="530" y="18" rx="2" ry="2" width="12" height="12"/><rect class="c" x="530" y="34" rx="2" ry="2" width="12" height="12"/><rect class="c" x="530" y="50" rx="2" ry="2" width="12" height="12"/><rect class="c" x="530" y="66" rx="2" ry="2" width="12" height="12"/><rect class="c" x="530" y="82" rx="2" ry="2" width="12" height="12"/><rect class="c" x="530" y="98" rx="2" ry="2" width="12" height="12"/><rect class="c" x="546" y="2" rx="2" ry="2" width="12" height="12"/><rect class="c" x="546" y="18" rx="2" ry="2" width="12" height="12"/><rect class="c" x="546" y="34" rx="2" ry="2" width="12" height="12"/><rect class="c" x="546" y="50" rx="2" ry="2" width="12" height="12"/><rect class="c" x="546" y="66" rx="2" ry="2" width="12" height="12"/><rect class="c" x="546" y="82" rx="2" ry="2" width="12" height="12"/><rect class="c" x="546" y="98" rx="2" ry="2" width="12" height="12"/><rect class="c" x="562" y="2" rx="2" ry="2" width="12" height="12"/><rect class="c" x="562" y="18" rx="2" ry="2" width="12" height="12"/><rect class="c" x="562" y="34" rx="2" ry="2" width="12" height="12"/><rect class="c" x="562" y="50" rx="2" ry="2" width="12" height="12"/><rect class="c" x="562" y="66" rx="2" ry="2" width="12" height="12"/><rect class="c" x="562" y="82" rx="2" ry="2" width="12" height="12"/><rect class="c" x="562" y="98" rx="2" ry="2" width="12" height="12"/><rect class="c" x="578" y="2" rx="2" ry="2" width="12" height="12"/><rect class="c" x="578" y="18" rx="2" ry="2" width="12" height="12"/><rect class="c" x="578" y="34" rx="2" ry="2" width="12" height="12"/><rect class="c" x="578" y="50" rx="2" ry="2" width="12" height="12"/><rect class="c" x="578" y="66" rx="2" ry="2" width="12" height="12"/><rect class="c" x="578" y="82" rx="2" ry="2" width="12" height="12"/><rect class="c" x="578" y="98" rx="2" ry="2" width="12" height="12"/><rect class="c" x="594" y="2" rx="2" ry="2" width="12" height="12"/><rect class="c" x="594" y="18" rx="2" ry="2" width="12" height="12"/><rect class="c" x="594" y="34" rx="2" ry="2" width="12" height="12"/><rect class="c" x="594" y="50" rx="2" ry="2" width="12" height="12"/><rect class="c" x="594" y="66" rx="2" ry="2" width="12" height="12"/><rect class="c" x="594" y="82" rx="2" ry="2" width="12" height="12"/><rect class="c" x="594" y="98" rx="2" ry="2" width="12" height="12"/><rect class="c" x="610" y="2" rx="2" ry="2" width="12" height="12"/><rect class="c" x="610" y="18" rx="2" ry="2" width="12" height="12"/><rect class="c" x="610" y="34" rx="2" ry="2" width="12" height="12"/><rect class="c" x="610" y="50" rx="2" ry="2" width="12" height="12"/><rect class="c" x="610" y="66" rx="2" ry="2" width="12" height="12"/><rect class="c" x="610" y="82" rx="2" ry="2" width="12" height="12"/><rect class="c" x="610" y="98" rx="2" ry="2" width="12" height="12"/><rect class="c" x="626" y="2" rx="2" ry="2" width="12" height="12"/><rect class="c" x="626" y="18" rx="2" ry="2" width="12" height="12"/><rect class="c" x="626" y="34" rx="2" ry="2" width="12" height="12"/><rect class="c" x="626" y="50" rx="2" ry="2" width="12" height="12"/><rect class="c" x="626" y="66" rx="2" ry="2" width="12" height="12"/><rect class="c" x="626" y="82" rx="2" ry="2" width="12" height="12"/><rect class="c" x="626" y="98" rx="2" ry="2" width="12" height="12"/><rect class="c" x="642" y="2" rx="2" ry="2" width="12" height="12"/><rect class="c" x="642" y="18" rx="2" ry="2" width="12" height="12"/><rect class="c" x="642" y="34" rx="2" ry="2" width="12" height="12"/><rect class="c" x="642" y="50" rx="2" ry="2" width="12" height="12"/><rect class="c" x="642" y="66" rx="2" ry="2" width="12" height="12"/><rect class="c" x="642" y="82" rx="2" ry="2" width="12" height="12"/><rect class="c" x="642" y="98" rx="2" ry="2" width="12" height="12"/><rect class="c" x="658" y="2" rx="2" ry="2" width="12" height="12"/><rect class="c" x="658" y="18" rx="2" ry="2" width="12" height="12"/><rect class="c" x="658" y="34" rx="2" ry="2" width="12" height="12"/><rect class="c" x="658" y="50" rx="2" ry="2" width="12" height="12"/><rect class="c" x="658" y="66" rx="2" ry="2" width="12" height="12"/><rect class="c" x="658" y="82" rx="2" ry="2" width="12" height="12"/><rect class="c" x="658" y="98" rx="2" ry="2" width="12" height="12"/><rect class="c" x="674" y="2" rx="2" ry="2" width="12" height="12"/><rect class="c" x="674" y="18" rx="2" ry="2" width="12" height="12"/><rect class="c" x="674" y="34" rx="2" ry="2" width="12" height="12"/><rect class="c" x="674" y="50" rx="2" ry="2" width="12" height="12"/><rect class="c cr" x="674" y="66" rx="2" ry="2" width="12" height="12"/><rect class="c" x="674" y="82" rx="2" ry="2" width="12" height="12"/><rect class="c" x="674" y="98" rx="2" ry="2" width="12" height="12"/><rect class="c" x="690" y="2" rx="2" ry="2" width="12" height="12"/><rect class="c" x="690" y="18" rx="2" ry="2" width="12" height="12"/><rect class="c" x="690" y="34" rx="2" ry="2" width="12" height="12"/><rect class="c" x="690" y="50" rx="2" ry="2" width="12" height="12"/><rect class="c cs" x="690" y="66" rx="2" ry="2" width="12" height="12"/><rect class="c" x="690" y="82" rx="2" ry="2" width="12" height="12"/><rect class="c" x="690" y="98" rx="2" ry="2" width="12" height="12"/><rect class="c" x="706" y="2" rx="2" ry="2" width="12" height="12"/><rect class="c" x="706" y="18" rx="2" ry="2" width="12" height="12"/><rect class="c" x="706" y="34" rx="2" ry="2" width="12" height="12"/><rect class="c" x="706" y="50" rx="2" ry="2" width="12" height="12"/><rect class="c" x="706" y="66" rx="2" ry="2" width="12" height="12"/><rect class="c" x="706" y="82" rx="2" ry="2" width="12" height="12"/><rect class="c" x="706" y="98" rx="2" ry="2" width="12" height="12"/><rect class="c" x="722" y="2" rx="2" ry="2" width="12" height="12"/><rect class="c" x="722" y="18" rx="2" ry="2" width="12" height="12"/><rect class="c" x="722" y="34" rx="2" ry="2" width="12" height="12"/><rect class="c ct" x="722" y="50" rx="2" ry="2" width="12" height="12"/><rect class="c cu" x="722" y="66" rx="2" ry="2" width="12" height="12"/><rect class="c" x="722" y="82" rx="2" ry="2" width="12" height="12"/><rect class="c" x="722" y="98" rx="2" ry="2" width="12" height="12"/><rect class="c" x="738" y="2" rx="2" ry="2" width="12" height="12"/><rect class="c" x="738" y="18" rx="2" ry="2" width="12" height="12"/><rect class="c" x="738" y="34" rx="2" ry="2" width="12" height="12"/><rect class="c" x="738" y="50" rx="2" ry="2" width="12" height="12"/><rect class="c" x="738" y="66" rx="2" ry="2" width="12" height="12"/><rect class="c" x="738" y="82" rx="2" ry="2" width="12" height="12"/><rect class="c" x="738" y="98" rx="2" ry="2" width="12" height="12"/><rect class="c" x="754" y="2" rx="2" ry="2" width="12" height="12"/><rect class="c cv" x="754" y="18" rx="2" ry="2" width="12" height="12"/><rect class="c cw" x="754" y="34" rx="2" ry="2" width="12" height="12"/><rect class="c" x="754" y="50" rx="2" ry="2" width="12" height="12"/><rect class="c cx" x="754" y="66" rx="2" ry="2" width="12" height="12"/><rect class="c cy" x="754" y="82" rx="2" ry="2" width="12" height="12"/><rect class="c" x="754" y="98" rx="2" ry="2" width="12" height="12"/><rect class="c cz" x="770" y="2" rx="2" ry="2" width="12" height="12"/><rect class="c c10" x="770" y="18" rx="2" ry="2" width="12" height="12"/><rect class="c" x="770" y="34" rx="2" ry="2" width="12" height="12"/><rect class="c" x="770" y="50" rx="2" ry="2" width="12" height="12"/><rect class="c" x="770" y="66" rx="2" ry="2" width="12" height="12"/><rect class="c c11" x="770" y="82" rx="2" ry="2" width="12" height="12"/><rect class="c c12" x="770" y="98" rx="2" ry="2" width="12" height="12"/><rect class="c" x="786" y="2" rx="2" ry="2" width="12" height="12"/><rect class="c" x="786" y="18" rx="2" ry="2" width="12" height="12"/><rect class="c" x="786" y="34" rx="2" ry="2" width="12" height="12"/><rect class="c" x="786" y="50" rx="2" ry="2" width="12" height="12"/><rect class="c" x="786" y="66" rx="2" ry="2" width="12" height="12"/><rect class="c" x="786" y="82" rx="2" ry="2" width="12" height="12"/><rect class="c" x="786" y="98" rx="2" ry="2" width="12" height="12"/><rect class="c" x="802" y="2" rx="2" ry="2" width="12" height="12"/><rect class="c" x="802" y="18" rx="2" ry="2" width="12" height="12"/><rect class="c" x="802" y="34" rx="2" ry="2" width="12" height="12"/><rect class="c" x="802" y="50" rx="2" ry="2" width="12" height="12"/><rect class="c" x="802" y="66" rx="2" ry="2" width="12" height="12"/><rect class="c" x="802" y="82" rx="2" ry="2" width="12" height="12"/><rect class="c" x="802" y="98" rx="2" ry="2" width="12" height="12"/><rect class="c" x="818" y="2" rx="2" ry="2" width="12" height="12"/><rect class="c" x="818" y="18" rx="2" ry="2" width="12" height="12"/><rect class="c" x="818" y="34" rx="2" ry="2" width="12" height="12"/><rect class="c" x="818" y="50" rx="2" ry="2" width="12" height="12"/><rect class="c" x="818" y="66" rx="2" ry="2" width="12" height="12"/><rect class="c" x="818" y="82" rx="2" ry="2" width="12" height="12"/><rect class="c" x="818" y="98" rx="2" ry="2" width="12" height="12"/><rect class="c" x="834" y="2" rx="2" ry="2" width="12" height="12"/><rect class="c" x="834" y="18" rx="2" ry="2" width="12" height="12"/><rect class="c" x="834" y="34" rx="2" ry="2" width="12" height="12"/><rect class="c c13" x="834" y="50" rx="2" ry="2" width="12" height="12"/><rect class="c c14" x="834" y="66" rx="2" ry="2" width="12" height="12"/><rect class="c" x="834" y="82" rx="2" ry="2" width="12" height="12"/><rect class="u u0" height="12" width="497.0" x="0.0" y="144"/><rect class="u u1" height="12" width="207.4" x="496.4" y="144"/><rect class="u u2" height="12" width="104.0" x="703.2" y="144"/><rect class="u u3" height="12" width="42.0" x="806.6" y="144"/><rect class="s s0" x="0.8" y="0.8" width="14.4" height="14.4" rx="4.5" ry="4.5"/><rect class="s s1" x="1.8" y="1.8" width="12.3" height="12.3" rx="4.1" ry="4.1"/><rect class="s s2" x="2.6" y="2.6" width="10.8" height="10.8" rx="3.6" ry="3.6"/><rect class="s s3" x="3.0" y="3.0" width="9.9" height="9.9" rx="3.3" ry="3.3"/></svg>