<svg viewBox="-16 -32 880 192" width="880" height="192" xmlns="http://www.w3.org/2000/svg"><desc>Generated with https://github.com/Platane/snk</desc><style>@keyframes c0{2.14%{fill:var(--c1)}2.16%,to{fill:var(--ce)}}@keyframes c1{59.07%{fill:var(--c2)}59.09%,to{fill:var(--ce)}}@keyframes c2{7.07%{fill:var(--c1)}7.09%,to{fill:var(--ce)}}@keyframes c3{6.45%{fill:var(--c1)}6.47%,to{fill:var(--ce)}}@keyframes c4{6.14%{fill:var(--c1)}6.16%,to{fill:var(--ce)}}@keyframes c5{54.45%{fill:var(--c2)}54.47%,to{fill:var(--ce)}}@keyframes c6{9.84%{fill:var(--c1)}9.86%,to{fill:var(--ce)}}@keyframes c7{10.14%{fill:var(--c1)}10.16%,to{fill:var(--ce)}}@keyframes c8{53.84%{fill:var(--c2)}53.86%,to{fill:var(--ce)}}@keyframes c9{9.22%{fill:var(--c1)}9.24%,to{fill:var(--ce)}}@keyframes ca{94.14%{fill:var(--c4)}94.16%,to{fill:var(--ce)}}@keyframes cb{53.22%{fill:var(--c2)}53.24%,to{fill:var(--ce)}}@keyframes cc{13.22%{fill:var(--c1)}13.24%,to{fill:var(--ce)}}@keyframes cd{51.68%{fill:var(--c2)}51.7%,to{fill:var(--ce)}}@keyframes ce{71.68%{fill:var(--c3)}71.7%,to{fill:var(--ce)}}@keyframes cf{65.22%{fill:var(--c3)}65.24%,to{fill:var(--ce)}}@keyframes cg{65.53%{fill:var(--c3)}65.55%,to{fill:var(--ce)}}@keyframes ch{91.68%{fill:var(--c4)}91.7%,to{fill:var(--ce)}}@keyframes ci{67.07%{fill:var(--c3)}67.09%,to{fill:var(--ce)}}@keyframes cj{16.91%{fill:var(--c1)}16.93%,to{fill:var(--ce)}}@keyframes ck{49.53%{fill:var(--c2)}49.55%,to{fill:var(--ce)}}@keyframes cl{17.22%{fill:var(--c1)}17.24%,to{fill:var(--ce)}}@keyframes cm{68.61%{fill:var(--c3)}68.63%,to{fill:var(--ce)}}@keyframes cn{19.07%{fill:var(--c1)}19.09%,to{fill:var(--ce)}}@keyframes co{23.07%{fill:var(--c1)}23.09%,to{fill:var(--ce)}}@keyframes cp{44.91%{fill:var(--c2)}44.93%,to{fill:var(--ce)}}@keyframes cq{21.84%{fill:var(--c1)}21.86%,to{fill:var(--ce)}}@keyframes cr{25.22%{fill:var(--c1)}25.24%,to{fill:var(--ce)}}@keyframes cs{25.53%{fill:var(--c1)}25.55%,to{fill:var(--ce)}}@keyframes ct{29.84%{fill:var(--c1)}29.86%,to{fill:var(--ce)}}@keyframes cu{30.14%{fill:var(--c1)}30.16%,to{fill:var(--ce)}}@keyframes cv{82.14%{fill:var(--c3)}82.16%,to{fill:var(--ce)}}@keyframes cw{36.3%{fill:var(--c2)}36.32%,to{fill:var(--ce)}}@keyframes cx{33.53%{fill:var(--c1)}33.55%,to{fill:var(--ce)}}@keyframes cy{33.22%{fill:var(--c1)}33.24%,to{fill:var(--ce)}}@keyframes cz{32.61%{fill:var(--c1)}32.63%,to{fill:var(--ce)}}@keyframes c10{31.68%{fill:var(--c1)}31.7%,to{fill:var(--ce)}}@keyframes c11{34.14%{fill:var(--c2)}34.16%,to{fill:var(--ce)}}@keyframes c12{33.84%{fill:var(--c1)}33.86%,to{fill:var(--ce)}}@keyframes c13{31.99%{fill:var(--c1)}32.01%,to{fill:var(--ce)}}@keyframes c14{37.84%{fill:var(--c2)}37.86%,to{fill:var(--ce)}}@keyframes u0{2.14%{transform:scale(0,1)}2.16%,6.14%{transform:scale(.04,1)}6.16%,6.45%{transform:scale(.09,1)}6.47%,7.07%{transform:scale(.13,1)}7.09%,9.22%{transform:scale(.17,1)}9.24%,9.84%{transform:scale(.22,1)}10.14%,9.86%{transform:scale(.26,1)}10.16%,13.22%{transform:scale(.3,1)}13.24%,16.91%{transform:scale(.35,1)}16.93%,17.22%{transform:scale(.39,1)}17.24%,19.07%{transform:scale(.43,1)}19.09%,21.84%{transform:scale(.48,1)}21.86%,23.07%{transform:scale(.52,1)}23.09%,25.22%{transform:scale(.57,1)}25.24%,25.53%{transform:scale(.61,1)}25.55%,29.84%{transform:scale(.65,1)}29.86%,30.14%{transform:scale(.7,1)}30.16%,31.68%{transform:scale(.74,1)}31.7%,31.99%{transform:scale(.78,1)}32.01%,32.61%{transform:scale(.83,1)}32.63%,33.22%{transform:scale(.87,1)}33.24%,33.53%{transform:scale(.91,1)}33.55%,33.84%{transform:scale(.96,1)}33.86%,to{transform:scale(1,1)}}@keyframes u1{34.14%{transform:scale(0,1)}34.16%,36.3%{transform:scale(.1,1)}36.32%,37.84%{transform:scale(.2,1)}37.86%,44.91%{transform:scale(.3,1)}44.93%,49.53%{transform:scale(.4,1)}49.55%,51.68%{transform:scale(.5,1)}51.7%,53.22%{transform:scale(.6,1)}53.24%,53.84%{transform:scale(.7,1)}53.86%,54.45%{transform:scale(.8,1)}54.47%,59.07%{transform:scale(.9,1)}59.09%,to{transform:scale(1,1)}}@keyframes u2{65.22%{transform:scale(0,1)}65.24%,65.53%{transform:scale(.17,1)}65.55%,67.07%{transform:scale(.33,1)}67.09%,68.61%{transform:scale(.5,1)}68.63%,71.68%{transform:scale(.67,1)}71.7%,82.14%{transform:scale(.83,1)}82.16%,to{transform:scale(1,1)}}@keyframes u3{91.68%{transform:scale(0,1)}91.7%,94.14%{transform:scale(.5,1)}94.16%,to{transform:scale(1,1)}}@keyframes s0{0%,99.69%{transform:translate(0,-16px)}2.15%{transform:translate(0,96px)}4.92%{transform:translate(144px,96px)}6.77%{transform:translate(144px,0)}7.08%{transform:translate(128px,0)}7.38%,96.62%{transform:translate(128px,16px)}9.23%,93.54%{transform:translate(224px,16px)}9.54%{transform:translate(224px,32px)}9.85%{transform:translate(208px,32px)}10.15%{transform:translate(208px,48px)}10.46%{transform:translate(192px,48px)}10.77%{transform:translate(192px,32px)}11.69%{transform:translate(240px,32px)}12.62%{transform:translate(240px,80px)}12.92%{transform:translate(224px,80px)}13.23%{transform:translate(224px,96px)}13.85%,52%{transform:translate(256px,96px)}14.15%{transform:translate(256px,80px)}15.08%{transform:translate(304px,80px)}16%{transform:translate(304px,32px)}16.62%,66.46%{transform:translate(336px,32px)}16.92%,48.92%{transform:translate(336px,16px)}18.46%{transform:translate(416px,16px)}19.08%{transform:translate(416px,48px)}21.54%{transform:translate(544px,48px)}21.85%,24.31%{transform:translate(544px,32px)}22.15%{transform:translate(560px,32px)}22.77%{transform:translate(560px,0)}23.38%{transform:translate(528px,0)}24%{transform:translate(528px,32px)}25.54%{transform:translate(544px,96px)}29.23%{transform:translate(736px,96px)}29.85%{transform:translate(736px,64px)}30.46%{transform:translate(768px,64px)}30.77%{transform:translate(768px,80px)}32%,37.54%{transform:translate(832px,80px)}32.31%{transform:translate(832px,64px)}32.62%{transform:translate(816px,64px)}33.54%,39.69%{transform:translate(816px,16px)}33.85%{transform:translate(832px,16px)}34.15%{transform:translate(832px,0)}34.77%{transform:translate(800px,0)}36%{transform:translate(800px,64px)}36.31%{transform:translate(784px,64px)}36.62%{transform:translate(784px,80px)}37.85%{transform:translate(832px,96px)}38.15%{transform:translate(816px,96px)}49.85%{transform:translate(336px,64px)}51.08%{transform:translate(272px,64px)}51.69%{transform:translate(272px,96px)}52.62%{transform:translate(256px,64px)}53.54%{transform:translate(208px,64px)}53.85%{transform:translate(208px,80px)}54.15%{transform:translate(192px,80px)}54.46%{transform:translate(192px,96px)}54.77%{transform:translate(176px,96px)}56%{transform:translate(176px,32px)}59.08%{transform:translate(16px,32px)}59.38%{transform:translate(16px,16px)}64.92%{transform:translate(304px,16px)}65.23%{transform:translate(304px,0)}65.85%{transform:translate(336px,0)}66.77%{transform:translate(320px,32px)}67.08%{transform:translate(320px,48px)}68.31%{transform:translate(384px,48px)}68.62%{transform:translate(384px,32px)}70.46%{transform:translate(288px,32px)}71.69%{transform:translate(288px,96px)}81.23%{transform:translate(784px,96px)}82.77%{transform:translate(784px,16px)}94.15%{transform:translate(224px,48px)}95.38%{transform:translate(160px,48px)}95.69%{transform:translate(160px,32px)}96%{transform:translate(144px,32px)}96.31%{transform:translate(144px,16px)}97.23%{transform:translate(128px,-16px)}}@keyframes s1{0%,99.69%{transform:translate(16px,-16px)}.31%{transform:translate(0,-16px)}2.46%{transform:translate(0,96px)}5.23%{transform:translate(144px,96px)}7.08%{transform:translate(144px,0)}7.38%{transform:translate(128px,0)}7.69%,96.92%{transform:translate(128px,16px)}9.54%,93.85%{transform:translate(224px,16px)}9.85%{transform:translate(224px,32px)}10.15%{transform:translate(208px,32px)}10.46%{transform:translate(208px,48px)}10.77%{transform:translate(192px,48px)}11.08%{transform:translate(192px,32px)}12%{transform:translate(240px,32px)}12.92%{transform:translate(240px,80px)}13.23%{transform:translate(224px,80px)}13.54%{transform:translate(224px,96px)}14.15%,52.31%{transform:translate(256px,96px)}14.46%{transform:translate(256px,80px)}15.38%{transform:translate(304px,80px)}16.31%{transform:translate(304px,32px)}16.92%,66.77%{transform:translate(336px,32px)}17.23%,49.23%{transform:translate(336px,16px)}18.77%{transform:translate(416px,16px)}19.38%{transform:translate(416px,48px)}21.85%{transform:translate(544px,48px)}22.15%,24.62%{transform:translate(544px,32px)}22.46%{transform:translate(560px,32px)}23.08%{transform:translate(560px,0)}23.69%{transform:translate(528px,0)}24.31%{transform:translate(528px,32px)}25.85%{transform:translate(544px,96px)}29.54%{transform:translate(736px,96px)}30.15%{transform:translate(736px,64px)}30.77%{transform:translate(768px,64px)}31.08%{transform:translate(768px,80px)}32.31%,37.85%{transform:translate(832px,80px)}32.62%{transform:translate(832px,64px)}32.92%{transform:translate(816px,64px)}33.85%,40%{transform:translate(816px,16px)}34.15%{transform:translate(832px,16px)}34.46%{transform:translate(832px,0)}35.08%{transform:translate(800px,0)}36.31%{transform:translate(800px,64px)}36.62%{transform:translate(784px,64px)}36.92%{transform:translate(784px,80px)}38.15%{transform:translate(832px,96px)}38.46%{transform:translate(816px,96px)}50.15%{transform:translate(336px,64px)}51.38%{transform:translate(272px,64px)}52%{transform:translate(272px,96px)}52.92%{transform:translate(256px,64px)}53.85%{transform:translate(208px,64px)}54.15%{transform:translate(208px,80px)}54.46%{transform:translate(192px,80px)}54.77%{transform:translate(192px,96px)}55.08%{transform:translate(176px,96px)}56.31%{transform:translate(176px,32px)}59.38%{transform:translate(16px,32px)}59.69%{transform:translate(16px,16px)}65.23%{transform:translate(304px,16px)}65.54%{transform:translate(304px,0)}66.15%{transform:translate(336px,0)}67.08%{transform:translate(320px,32px)}67.38%{transform:translate(320px,48px)}68.62%{transform:translate(384px,48px)}68.92%{transform:translate(384px,32px)}70.77%{transform:translate(288px,32px)}72%{transform:translate(288px,96px)}81.54%{transform:translate(784px,96px)}83.08%{transform:translate(784px,16px)}94.46%{transform:translate(224px,48px)}95.69%{transform:translate(160px,48px)}96%{transform:translate(160px,32px)}96.31%{transform:translate(144px,32px)}96.62%{transform:translate(144px,16px)}97.54%{transform:translate(128px,-16px)}}@keyframes s2{0%,99.69%{transform:translate(32px,-16px)}.62%{transform:translate(0,-16px)}2.77%{transform:translate(0,96px)}5.54%{transform:translate(144px,96px)}7.38%{transform:translate(144px,0)}7.69%{transform:translate(128px,0)}8%,97.23%{transform:translate(128px,16px)}9.85%,94.15%{transform:translate(224px,16px)}10.15%{transform:translate(224px,32px)}10.46%{transform:translate(208px,32px)}10.77%{transform:translate(208px,48px)}11.08%{transform:translate(192px,48px)}11.38%{transform:translate(192px,32px)}12.31%{transform:translate(240px,32px)}13.23%{transform:translate(240px,80px)}13.54%{transform:translate(224px,80px)}13.85%{transform:translate(224px,96px)}14.46%,52.62%{transform:translate(256px,96px)}14.77%{transform:translate(256px,80px)}15.69%{transform:translate(304px,80px)}16.62%{transform:translate(304px,32px)}17.23%,67.08%{transform:translate(336px,32px)}17.54%,49.54%{transform:translate(336px,16px)}19.08%{transform:translate(416px,16px)}19.69%{transform:translate(416px,48px)}22.15%{transform:translate(544px,48px)}22.46%,24.92%{transform:translate(544px,32px)}22.77%{transform:translate(560px,32px)}23.38%{transform:translate(560px,0)}24%{transform:translate(528px,0)}24.62%{transform:translate(528px,32px)}26.15%{transform:translate(544px,96px)}29.85%{transform:translate(736px,96px)}30.46%{transform:translate(736px,64px)}31.08%{transform:translate(768px,64px)}31.38%{transform:translate(768px,80px)}32.62%,38.15%{transform:translate(832px,80px)}32.92%{transform:translate(832px,64px)}33.23%{transform:translate(816px,64px)}34.15%,40.31%{transform:translate(816px,16px)}34.46%{transform:translate(832px,16px)}34.77%{transform:translate(832px,0)}35.38%{transform:translate(800px,0)}36.62%{transform:translate(800px,64px)}36.92%{transform:translate(784px,64px)}37.23%{transform:translate(784px,80px)}38.46%{transform:translate(832px,96px)}38.77%{transform:translate(816px,96px)}50.46%{transform:translate(336px,64px)}51.69%{transform:translate(272px,64px)}52.31%{transform:translate(272px,96px)}53.23%{transform:translate(256px,64px)}54.15%{transform:translate(208px,64px)}54.46%{transform:translate(208px,80px)}54.77%{transform:translate(192px,80px)}55.08%{transform:translate(192px,96px)}55.38%{transform:translate(176px,96px)}56.62%{transform:translate(176px,32px)}59.69%{transform:translate(16px,32px)}60%{transform:translate(16px,16px)}65.54%{transform:translate(304px,16px)}65.85%{transform:translate(304px,0)}66.46%{transform:translate(336px,0)}67.38%{transform:translate(320px,32px)}67.69%{transform:translate(320px,48px)}68.92%{transform:translate(384px,48px)}69.23%{transform:translate(384px,32px)}71.08%{transform:translate(288px,32px)}72.31%{transform:translate(288px,96px)}81.85%{transform:translate(784px,96px)}83.38%{transform:translate(784px,16px)}94.77%{transform:translate(224px,48px)}96%{transform:translate(160px,48px)}96.31%{transform:translate(160px,32px)}96.62%{transform:translate(144px,32px)}96.92%{transform:translate(144px,16px)}97.85%{transform:translate(128px,-16px)}}@keyframes s3{0%,99.69%{transform:translate(48px,-16px)}.92%{transform:translate(0,-16px)}3.08%{transform:translate(0,96px)}5.85%{transform:translate(144px,96px)}7.69%{transform:translate(144px,0)}8%{transform:translate(128px,0)}8.31%,97.54%{transform:translate(128px,16px)}10.15%,94.46%{transform:translate(224px,16px)}10.46%{transform:translate(224px,32px)}10.77%{transform:translate(208px,32px)}11.08%{transform:translate(208px,48px)}11.38%{transform:translate(192px,48px)}11.69%{transform:translate(192px,32px)}12.62%{transform:translate(240px,32px)}13.54%{transform:translate(240px,80px)}13.85%{transform:translate(224px,80px)}14.15%{transform:translate(224px,96px)}14.77%,52.92%{transform:translate(256px,96px)}15.08%{transform:translate(256px,80px)}16%{transform:translate(304px,80px)}16.92%{transform:translate(304px,32px)}17.54%,67.38%{transform:translate(336px,32px)}17.85%,49.85%{transform:translate(336px,16px)}19.38%{transform:translate(416px,16px)}20%{transform:translate(416px,48px)}22.46%{transform:translate(544px,48px)}22.77%,25.23%{transform:translate(544px,32px)}23.08%{transform:translate(560px,32px)}23.69%{transform:translate(560px,0)}24.31%{transform:translate(528px,0)}24.92%{transform:translate(528px,32px)}26.46%{transform:translate(544px,96px)}30.15%{transform:translate(736px,96px)}30.77%{transform:translate(736px,64px)}31.38%{transform:translate(768px,64px)}31.69%{transform:translate(768px,80px)}32.92%,38.46%{transform:translate(832px,80px)}33.23%{transform:translate(832px,64px)}33.54%{transform:translate(816px,64px)}34.46%,40.62%{transform:translate(816px,16px)}34.77%{transform:translate(832px,16px)}35.08%{transform:translate(832px,0)}35.69%{transform:translate(800px,0)}36.92%{transform:translate(800px,64px)}37.23%{transform:translate(784px,64px)}37.54%{transform:translate(784px,80px)}38.77%{transform:translate(832px,96px)}39.08%{transform:translate(816px,96px)}50.77%{transform:translate(336px,64px)}52%{transform:translate(272px,64px)}52.62%{transform:translate(272px,96px)}53.54%{transform:translate(256px,64px)}54.46%{transform:translate(208px,64px)}54.77%{transform:translate(208px,80px)}55.08%{transform:translate(192px,80px)}55.38%{transform:translate(192px,96px)}55.69%{transform:translate(176px,96px)}56.92%{transform:translate(176px,32px)}60%{transform:translate(16px,32px)}60.31%{transform:translate(16px,16px)}65.85%{transform:translate(304px,16px)}66.15%{transform:translate(304px,0)}66.77%{transform:translate(336px,0)}67.69%{transform:translate(320px,32px)}68%{transform:translate(320px,48px)}69.23%{transform:translate(384px,48px)}69.54%{transform:translate(384px,32px)}71.38%{transform:translate(288px,32px)}72.62%{transform:translate(288px,96px)}82.15%{transform:translate(784px,96px)}83.69%{transform:translate(784px,16px)}95.08%{transform:translate(224px,48px)}96.31%{transform:translate(160px,48px)}96.62%{transform:translate(160px,32px)}96.92%{transform:translate(144px,32px)}97.23%{transform:translate(144px,16px)}98.15%{transform:translate(128px,-16px)}}:root{--cb:#1b1f230a;--cs:purple;--ce:#ebedf0;--c0:#ebedf0;--c1:#9be9a8;--c2:#40c463;--c3:#30a14e;--c4:#216e39}@media (prefers-color-scheme:dark){:root{--cb:#1b1f230a;--cs:purple;--ce:#161b22;--c1:#01311f;--c2:#034525;--c3:#0f6d31;--c4:#00c647}}.c{shape-rendering:geometricPrecision;fill:var(--ce);stroke-width:1px;stroke:var(--cb);animation:none 32500ms linear infinite}.c.c0{fill:var(--c1);animation-name:c0}.c.c1{fill:var(--c2);animation-name:c1}.c.c2,.c.c3,.c.c4{fill:var(--c1);animation-name:c2}.c.c3,.c.c4{animation-name:c3}.c.c4{animation-name:c4}.c.c5{fill:var(--c2);animation-name:c5}.c.c6,.c.c7{fill:var(--c1);animation-name:c6}.c.c7{animation-name:c7}.c.c8{fill:var(--c2);animation-name:c8}.c.c9{fill:var(--c1);animation-name:c9}.c.ca{fill:var(--c4);animation-name:ca}.c.cb{fill:var(--c2);animation-name:cb}.c.cc{fill:var(--c1);animation-name:cc}.c.cd{fill:var(--c2);animation-name:cd}.c.ce,.c.cf,.c.cg{fill:var(--c3);animation-name:ce}.c.cf,.c.cg{animation-name:cf}.c.cg{animation-name:cg}.c.ch{fill:var(--c4);animation-name:ch}.c.ci{fill:var(--c3);animation-name:ci}.c.cj{fill:var(--c1);animation-name:cj}.c.ck{fill:var(--c2);animation-name:ck}.c.cl{fill:var(--c1);animation-name:cl}.c.cm{fill:var(--c3);animation-name:cm}.c.cn,.c.co{fill:var(--c1);animation-name:cn}.c.co{animation-name:co}.c.cp{fill:var(--c2);animation-name:cp}.c.cq,.c.cr{fill:var(--c1);animation-name:cq}.c.cr{animation-name:cr}.c.cs,.c.ct,.c.cu{fill:var(--c1);animation-name:cs}.c.ct,.c.cu{animation-name:ct}.c.cu{animation-name:cu}.c.cv{fill:var(--c3);animation-name:cv}.c.cw{fill:var(--c2);animation-name:cw}.c.cx{fill:var(--c1);animation-name:cx}.c.c10,.c.cy,.c.cz{fill:var(--c1);animation-name:cy}.c.c10,.c.cz{animation-name:cz}.c.c10{animation-name:c10}.c.c11{fill:var(--c2);animation-name:c11}.c.c12,.c.c13{fill:var(--c1);animation-name:c12}.c.c13{animation-name:c13}.c.c14{fill:var(--c2);animation-name:c14}.s,.u{animation:none linear 32500ms infinite}.u,.u.u0{transform-origin:0 0}.u{transform:scale(0,1)}.u.u0{fill:var(--c1);animation-name:u0}.u.u1{fill:var(--c2);animation-name:u1;transform-origin:475.7px 0}.u.u2{fill:var(--c3);animation-name:u2;transform-origin:682.5px 0}.u.u3{fill:var(--c4);animation-name:u3;transform-origin:806.6px 0}.s{shape-rendering:geometricPrecision;fill:var(--cs)}.s.s0{transform:translate(0,-16px);animation-name:s0}.s.s1{transform:translate(16px,-16px);animation-name:s1}.s.s2{transform:translate(32px,-16px);animation-name:s2}.s.s3{transform:translate(48px,-16px);animation-name:s3}</style><rect class="c" x="2" y="2" rx="2" ry="2" width="12" height="12"/><rect class="c" x="2" y="18" rx="2" ry="2" width="12" height="12"/><rect class="c" x="2" y="34" rx="2" ry="2" width="12" height="12"/><rect class="c" x="2" y="50" rx="2" ry="2" width="12" height="12"/><rect class="c" x="2" y="66" rx="2" ry="2" width="12" height="12"/><rect class="c" x="2" y="82" rx="2" ry="2" width="12" height="12"/><rect class="c c0" x="2" y="98" rx="2" ry="2" width="12" height="12"/><rect class="c" x="18" y="2" rx="2" ry="2" width="12" height="12"/><rect class="c" x="18" y="18" rx="2" ry="2" width="12" height="12"/><rect class="c c1" x="18" y="34" rx="2" ry="2" width="12" height="12"/><rect class="c" x="18" y="50" rx="2" ry="2" width="12" height="12"/><rect class="c" x="18" y="66" rx="2" ry="2" width="12" height="12"/><rect class="c" x="18" y="82" rx="2" ry="2" width="12" height="12"/><rect class="c" x="18" y="98" rx="2" ry="2" width="12" height="12"/><rect class="c" x="34" y="2" rx="2" ry="2" width="12" height="12"/><rect class="c" x="34" y="18" rx="2" ry="2" width="12" height="12"/><rect class="c" x="34" y="34" rx="2" ry="2" width="12" height="12"/><rect class="c" x="34" y="50" rx="2" ry="2" width="12" height="12"/><rect class="c" x="34" y="66" rx="2" ry="2" width="12" height="12"/><rect class="c" x="34" y="82" rx="2" ry="2" width="12" height="12"/><rect class="c" x="34" y="98" rx="2" ry="2" width="12" height="12"/><rect class="c" x="50" y="2" rx="2" ry="2" width="12" height="12"/><rect class="c" x="50" y="18" rx="2" ry="2" width="12" height="12"/><rect class="c" x="50" y="34" rx="2" ry="2" width="12" height="12"/><rect class="c" x="50" y="50" rx="2" ry="2" width="12" height="12"/><rect class="c" x="50" y="66" rx="2" ry="2" width="12" height="12"/><rect class="c" x="50" y="82" rx="2" ry="2" width="12" height="12"/><rect class="c" x="50" y="98" rx="2" ry="2" width="12" height="12"/><rect class="c" x="66" y="2" rx="2" ry="2" width="12" height="12"/><rect class="c" x="66" y="18" rx="2" ry="2" width="12" height="12"/><rect class="c" x="66" y="34" rx="2" ry="2" width="12" height="12"/><rect class="c" x="66" y="50" rx="2" ry="2" width="12" height="12"/><rect class="c" x="66" y="66" rx="2" ry="2" width="12" height="12"/><rect class="c" x="66" y="82" rx="2" ry="2" width="12" height="12"/><rect class="c" x="66" y="98" rx="2" ry="2" width="12" height="12"/><rect class="c" x="82" y="2" rx="2" ry="2" width="12" height="12"/><rect class="c" x="82" y="18" rx="2" ry="2" width="12" height="12"/><rect class="c" x="82" y="34" rx="2" ry="2" width="12" height="12"/><rect class="c" x="82" y="50" rx="2" ry="2" width="12" height="12"/><rect class="c" x="82" y="66" rx="2" ry="2" width="12" height="12"/><rect class="c" x="82" y="82" rx="2" ry="2" width="12" height="12"/><rect class="c" x="82" y="98" rx="2" ry="2" width="12" height="12"/><rect class="c" x="98" y="2" rx="2" ry="2" width="12" height="12"/><rect class="c" x="98" y="18" rx="2" ry="2" width="12" height="12"/><rect class="c" x="98" y="34" rx="2" ry="2" width="12" height="12"/><rect class="c" x="98" y="50" rx="2" ry="2" width="12" height="12"/><rect class="c" x="98" y="66" rx="2" ry="2" width="12" height="12"/><rect class="c" x="98" y="82" rx="2" ry="2" width="12" height="12"/><rect class="c" x="98" y="98" rx="2" ry="2" width="12" height="12"/><rect class="c" x="114" y="2" rx="2" ry="2" width="12" height="12"/><rect class="c" x="114" y="18" rx="2" ry="2" width="12" height="12"/><rect class="c" x="114" y="34" rx="2" ry="2" width="12" height="12"/><rect class="c" x="114" y="50" rx="2" ry="2" width="12" height="12"/><rect class="c" x="114" y="66" rx="2" ry="2" width="12" height="12"/><rect class="c" x="114" y="82" rx="2" ry="2" width="12" height="12"/><rect class="c" x="114" y="98" rx="2" ry="2" width="12" height="12"/><rect class="c c2" x="130" y="2" rx="2" ry="2" width="12" height="12"/><rect class="c" x="130" y="18" rx="2" ry="2" width="12" height="12"/><rect class="c" x="130" y="34" rx="2" ry="2" width="12" height="12"/><rect class="c" x="130" y="50" rx="2" ry="2" width="12" height="12"/><rect class="c" x="130" y="66" rx="2" ry="2" width="12" height="12"/><rect class="c" x="130" y="82" rx="2" ry="2" width="12" height="12"/><rect class="c" x="130" y="98" rx="2" ry="2" width="12" height="12"/><rect class="c" x="146" y="2" rx="2" ry="2" width="12" height="12"/><rect class="c c3" x="146" y="18" rx="2" ry="2" width="12" height="12"/><rect class="c c4" x="146" y="34" rx="2" ry="2" width="12" height="12"/><rect class="c" x="146" y="50" rx="2" ry="2" width="12" height="12"/><rect class="c" x="146" y="66" rx="2" ry="2" width="12" height="12"/><rect class="c" x="146" y="82" rx="2" ry="2" width="12" height="12"/><rect class="c" x="146" y="98" rx="2" ry="2" width="12" height="12"/><rect class="c" x="162" y="2" rx="2" ry="2" width="12" height="12"/><rect class="c" x="162" y="18" rx="2" ry="2" width="12" height="12"/><rect class="c" x="162" y="34" rx="2" ry="2" width="12" height="12"/><rect class="c" x="162" y="50" rx="2" ry="2" width="12" height="12"/><rect class="c" x="162" y="66" rx="2" ry="2" width="12" height="12"/><rect class="c" x="162" y="82" rx="2" ry="2" width="12" height="12"/><rect class="c" x="162" y="98" rx="2" ry="2" width="12" height="12"/><rect class="c" x="178" y="2" rx="2" ry="2" width="12" height="12"/><rect class="c" x="178" y="18" rx="2" ry="2" width="12" height="12"/><rect class="c" x="178" y="34" rx="2" ry="2" width="12" height="12"/><rect class="c" x="178" y="50" rx="2" ry="2" width="12" height="12"/><rect class="c" x="178" y="66" rx="2" ry="2" width="12" height="12"/><rect class="c" x="178" y="82" rx="2" ry="2" width="12" height="12"/><rect class="c" x="178" y="98" rx="2" ry="2" width="12" height="12"/><rect class="c" x="194" y="2" rx="2" ry="2" width="12" height="12"/><rect class="c" x="194" y="18" rx="2" ry="2" width="12" height="12"/><rect class="c" x="194" y="34" rx="2" ry="2" width="12" height="12"/><rect class="c" x="194" y="50" rx="2" ry="2" width="12" height="12"/><rect class="c" x="194" y="66" rx="2" ry="2" width="12" height="12"/><rect class="c" x="194" y="82" rx="2" ry="2" width="12" height="12"/><rect class="c c5" x="194" y="98" rx="2" ry="2" width="12" height="12"/><rect class="c" x="210" y="2" rx="2" ry="2" width="12" height="12"/><rect class="c" x="210" y="18" rx="2" ry="2" width="12" height="12"/><rect class="c c6" x="210" y="34" rx="2" ry="2" width="12" height="12"/><rect class="c c7" x="210" y="50" rx="2" ry="2" width="12" height="12"/><rect class="c" x="210" y="66" rx="2" ry="2" width="12" height="12"/><rect class="c c8" x="210" y="82" rx="2" ry="2" width="12" height="12"/><rect class="c" x="210" y="98" rx="2" ry="2" width="12" height="12"/><rect class="c" x="226" y="2" rx="2" ry="2" width="12" height="12"/><rect class="c c9" x="226" y="18" rx="2" ry="2" width="12" height="12"/><rect class="c" x="226" y="34" rx="2" ry="2" width="12" height="12"/><rect class="c ca" x="226" y="50" rx="2" ry="2" width="12" height="12"/><rect class="c cb" x="226" y="66" rx="2" ry="2" width="12" height="12"/><rect class="c" x="226" y="82" rx="2" ry="2" width="12" height="12"/><rect class="c cc" x="226" y="98" rx="2" ry="2" width="12" height="12"/><rect class="c" x="242" y="2" rx="2" ry="2" width="12" height="12"/><rect class="c" x="242" y="18" rx="2" ry="2" width="12" height="12"/><rect class="c" x="242" y="34" rx="2" ry="2" width="12" height="12"/><rect class="c" x="242" y="50" rx="2" ry="2" width="12" height="12"/><rect class="c" x="242" y="66" rx="2" ry="2" width="12" height="12"/><rect class="c" x="242" y="82" rx="2" ry="2" width="12" height="12"/><rect class="c" x="242" y="98" rx="2" ry="2" width="12" height="12"/><rect class="c" x="258" y="2" rx="2" ry="2" width="12" height="12"/><rect class="c" x="258" y="18" rx="2" ry="2" width="12" height="12"/><rect class="c" x="258" y="34" rx="2" ry="2" width="12" height="12"/><rect class="c" x="258" y="50" rx="2" ry="2" width="12" height="12"/><rect class="c" x="258" y="66" rx="2" ry="2" width="12" height="12"/><rect class="c" x="258" y="82" rx="2" ry="2" width="12" height="12"/><rect class="c" x="258" y="98" rx="2" ry="2" width="12" height="12"/><rect class="c" x="274" y="2" rx="2" ry="2" width="12" height="12"/><rect class="c" x="274" y="18" rx="2" ry="2" width="12" height="12"/><rect class="c" x="274" y="34" rx="2" ry="2" width="12" height="12"/><rect class="c" x="274" y="50" rx="2" ry="2" width="12" height="12"/><rect class="c" x="274" y="66" rx="2" ry="2" width="12" height="12"/><rect class="c" x="274" y="82" rx="2" ry="2" width="12" height="12"/><rect class="c cd" x="274" y="98" rx="2" ry="2" width="12" height="12"/><rect class="c" x="290" y="2" rx="2" ry="2" width="12" height="12"/><rect class="c" x="290" y="18" rx="2" ry="2" width="12" height="12"/><rect class="c" x="290" y="34" rx="2" ry="2" width="12" height="12"/><rect class="c" x="290" y="50" rx="2" ry="2" width="12" height="12"/><rect class="c" x="290" y="66" rx="2" ry="2" width="12" height="12"/><rect class="c" x="290" y="82" rx="2" ry="2" width="12" height="12"/><rect class="c ce" x="290" y="98" rx="2" ry="2" width="12" height="12"/><rect class="c cf" x="306" y="2" rx="2" ry="2" width="12" height="12"/><rect class="c" x="306" y="18" rx="2" ry="2" width="12" height="12"/><rect class="c" x="306" y="34" rx="2" ry="2" width="12" height="12"/><rect class="c" x="306" y="50" rx="2" ry="2" width="12" height="12"/><rect class="c" x="306" y="66" rx="2" ry="2" width="12" height="12"/><rect class="c" x="306" y="82" rx="2" ry="2" width="12" height="12"/><rect class="c" x="306" y="98" rx="2" ry="2" width="12" height="12"/><rect class="c cg" x="322" y="2" rx="2" ry="2" width="12" height="12"/><rect class="c ch" x="322" y="18" rx="2" ry="2" width="12" height="12"/><rect class="c" x="322" y="34" rx="2" ry="2" width="12" height="12"/><rect class="c ci" x="322" y="50" rx="2" ry="2" width="12" height="12"/><rect class="c" x="322" y="66" rx="2" ry="2" width="12" height="12"/><rect class="c" x="322" y="82" rx="2" ry="2" width="12" height="12"/><rect class="c" x="322" y="98" rx="2" ry="2" width="12" height="12"/><rect class="c" x="338" y="2" rx="2" ry="2" width="12" height="12"/><rect class="c cj" x="338" y="18" rx="2" ry="2" width="12" height="12"/><rect class="c" x="338" y="34" rx="2" ry="2" width="12" height="12"/><rect class="c ck" x="338" y="50" rx="2" ry="2" width="12" height="12"/><rect class="c" x="338" y="66" rx="2" ry="2" width="12" height="12"/><rect class="c" x="338" y="82" rx="2" ry="2" width="12" height="12"/><rect class="c" x="338" y="98" rx="2" ry="2" width="12" height="12"/><rect class="c" x="354" y="2" rx="2" ry="2" width="12" height="12"/><rect class="c cl" x="354" y="18" rx="2" ry="2" width="12" height="12"/><rect class="c" x="354" y="34" rx="2" ry="2" width="12" height="12"/><rect class="c" x="354" y="50" rx="2" ry="2" width="12" height="12"/><rect class="c" x="354" y="66" rx="2" ry="2" width="12" height="12"/><rect class="c" x="354" y="82" rx="2" ry="2" width="12" height="12"/><rect class="c" x="354" y="98" rx="2" ry="2" width="12" height="12"/><rect class="c" x="370" y="2" rx="2" ry="2" width="12" height="12"/><rect class="c" x="370" y="18" rx="2" ry="2" width="12" height="12"/><rect class="c" x="370" y="34" rx="2" ry="2" width="12" height="12"/><rect class="c" x="370" y="50" rx="2" ry="2" width="12" height="12"/><rect class="c" x="370" y="66" rx="2" ry="2" width="12" height="12"/><rect class="c" x="370" y="82" rx="2" ry="2" width="12" height="12"/><rect class="c" x="370" y="98" rx="2" ry="2" width="12" height="12"/><rect class="c" x="386" y="2" rx="2" ry="2" width="12" height="12"/><rect class="c" x="386" y="18" rx="2" ry="2" width="12" height="12"/><rect class="c cm" x="386" y="34" rx="2" ry="2" width="12" height="12"/><rect class="c" x="386" y="50" rx="2" ry="2" width="12" height="12"/><rect class="c" x="386" y="66" rx="2" ry="2" width="12" height="12"/><rect class="c" x="386" y="82" rx="2" ry="2" width="12" height="12"/><rect class="c" x="386" y="98" rx="2" ry="2" width="12" height="12"/><rect class="c" x="402" y="2" rx="2" ry="2" width="12" height="12"/><rect class="c" x="402" y="18" rx="2" ry="2" width="12" height="12"/><rect class="c" x="402" y="34" rx="2" ry="2" width="12" height="12"/><rect class="c" x="402" y="50" rx="2" ry="2" width="12" height="12"/><rect class="c" x="402" y="66" rx="2" ry="2" width="12" height="12"/><rect class="c" x="402" y="82" rx="2" ry="2" width="12" height="12"/><rect class="c" x="402" y="98" rx="2" ry="2" width="12" height="12"/><rect class="c" x="418" y="2" rx="2" ry="2" width="12" height="12"/><rect class="c" x="418" y="18" rx="2" ry="2" width="12" height="12"/><rect class="c" x="418" y="34" rx="2" ry="2" width="12" height="12"/><rect class="c cn" x="418" y="50" rx="2" ry="2" width="12" height="12"/><rect class="c" x="418" y="66" rx="2" ry="2" width="12" height="12"/><rect class="c" x="418" y="82" rx="2" ry="2" width="12" height="12"/><rect class="c" x="418" y="98" rx="2" ry="2" width="12" height="12"/><rect class="c" x="434" y="2" rx="2" ry="2" width="12" height="12"/><rect class="c" x="434" y="18" rx="2" ry="2" width="12" height="12"/><rect class="c" x="434" y="34" rx="2" ry="2" width="12" height="12"/><rect class="c" x="434" y="50" rx="2" ry="2" width="12" height="12"/><rect class="c" x="434" y="66" rx="2" ry="2" width="12" height="12"/><rect class="c" x="434" y="82" rx="2" ry="2" width="12" height="12"/><rect class="c" x="434" y="98" rx="2" ry="2" width="12" height="12"/><rect class="c" x="450" y="2" rx="2" ry="2" width="12" height="12"/><rect class="c" x="450" y="18" rx="2" ry="2" width="12" height="12"/><rect class="c" x="450" y="34" rx="2" ry="2" width="12" height="12"/><rect class="c" x="450" y="50" rx="2" ry="2" width="12" height="12"/><rect class="c" x="450" y="66" rx="2" ry="2" width="12" height="12"/><rect class="c" x="450" y="82" rx="2" ry="2" width="12" height="12"/><rect class="c" x="450" y="98" rx="2" ry="2" width="12" height="12"/><rect class="c" x="466" y="2" rx="2" ry="2" width="12" height="12"/><rect class="c" x="466" y="18" rx="2" ry="2" width="12" height="12"/><rect class="c" x="466" y="34" rx="2" ry="2" width="12" height="12"/><rect class="c" x="466" y="50" rx="2" ry="2" width="12" height="12"/><rect class="c" x="466" y="66" rx="2" ry="2" width="12" height="12"/><rect class="c" x="466" y="82" rx="2" ry="2" width="12" height="12"/><rect class="c" x="466" y="98" rx="2" ry="2" width="12" height="12"/><rect class="c" x="482" y="2" rx="2" ry="2" width="12" height="12"/><rect class="c" x="482" y="18" rx="2" ry="2" width="12" height="12"/><rect class="c" x="482" y="34" rx="2" ry="2" width="12" height="12"/><rect class="c" x="482" y="50" rx="2" ry="2" width="12" height="12"/><rect class="c" x="482" y="66" rx="2" ry="2" width="12" height="12"/><rect class="c" x="482" y="82" rx="2" ry="2" width="12" height="12"/><rect class="c" x="482" y="98" rx="2" ry="2" width="12" height="12"/><rect class="c" x="498" y="2" rx="2" ry="2" width="12" height="12"/><rect class="c" x="498" y="18" rx="2" ry="2" width="12" height="12"/><rect class="c" x="498" y="34" rx="2" ry="2" width="12" height="12"/><rect class="c" x="498" y="50" rx="2" ry="2" width="12" height="12"/><rect class="c" x="498" y="66" rx="2" ry="2" width="12" height="12"/><rect class="c" x="498" y="82" rx="2" ry="2" width="12" height="12"/><rect class="c" x="498" y="98" rx="2" ry="2" width="12" height="12"/><rect class="c" x="514" y="2" rx="2" ry="2" width="12" height="12"/><rect class="c" x="514" y="18" rx="2" ry="2" width="12" height="12"/><rect class="c" x="514" y="34" rx="2" ry="2" width="12" height="12"/><rect class="c" x="514" y="50" rx="2" ry="2" width="12" height="12"/><rect class="c" x="514" y="66" rx="2" ry="2" width="12" height="12"/><rect class="c" x="514" y="82" rx="2" ry="2" width="12" height="12"/><rect class="c" x="514" y="98" rx="2" ry="2" width="12" height="12"/><rect class="c" x="530" y="2" rx="2" ry="2" width="12" height="12"/><rect class="c" x="530" y="18" rx="2" ry="2" width="12" height="12"/><rect class="c" x="530" y="34" rx="2" ry="2" width="12" height="12"/><rect class="c" x="530" y="50" rx="2" ry="2" width="12" height="12"/><rect class="c" x="530" y="66" rx="2" ry="2" width="12" height="12"/><rect class="c" x="530" y="82" rx="2" ry="2" width="12" height="12"/><rect class="c" x="530" y="98" rx="2" ry="2" width="12" height="12"/><rect class="c co" x="546" y="2" rx="2" ry="2" width="12" height="12"/><rect class="c cp" x="546" y="18" rx="2" ry="2" width="12" height="12"/><rect class="c cq" x="546" y="34" rx="2" ry="2" width="12" height="12"/><rect class="c" x="546" y="50" rx="2" ry="2" width="12" height="12"/><rect class="c" x="546" y="66" rx="2" ry="2" width="12" height="12"/><rect class="c cr" x="546" y="82" rx="2" ry="2" width="12" height="12"/><rect class="c cs" x="546" y="98" rx="2" ry="2" width="12" height="12"/><rect class="c" x="562" y="2" rx="2" ry="2" width="12" height="12"/><rect class="c" x="562" y="18" rx="2" ry="2" width="12" height="12"/><rect class="c" x="562" y="34" rx="2" ry="2" width="12" height="12"/><rect class="c" x="562" y="50" rx="2" ry="2" width="12" height="12"/><rect class="c" x="562" y="66" rx="2" ry="2" width="12" height="12"/><rect class="c" x="562" y="82" rx="2" ry="2" width="12" height="12"/><rect class="c" x="562" y="98" rx="2" ry="2" width="12" height="12"/><rect class="c" x="578" y="2" rx="2" ry="2" width="12" height="12"/><rect class="c" x="578" y="18" rx="2" ry="2" width="12" height="12"/><rect class="c" x="578" y="34" rx="2" ry="2" width="12" height="12"/><rect class="c" x="578" y="50" rx="2" ry="2" width="12" height="12"/><rect class="c" x="578" y="66" rx="2" ry="2" width="12" height="12"/><rect class="c" x="578" y="82" rx="2" ry="2" width="12" height="12"/><rect class="c" x="578" y="98" rx="2" ry="2" width="12" height="12"/><rect class="c" x="594" y="2" rx="2" ry="2" width="12" height="12"/><rect class="c" x="594" y="18" rx="2" ry="2" width="12" height="12"/><rect class="c" x="594" y="34" rx="2" ry="2" width="12" height="12"/><rect class="c" x="594" y="50" rx="2" ry="2" width="12" height="12"/><rect class="c" x="594" y="66" rx="2" ry="2" width="12" height="12"/><rect class="c" x="594" y="82" rx="2" ry="2" width="12" height="12"/><rect class="c" x="594" y="98" rx="2" ry="2" width="12" height="12"/><rect class="c" x="610" y="2" rx="2" ry="2" width="12" height="12"/><rect class="c" x="610" y="18" rx="2" ry="2" width="12" height="12"/><rect class="c" x="610" y="34" rx="2" ry="2" width="12" height="12"/><rect class="c" x="610" y="50" rx="2" ry="2" width="12" height="12"/><rect class="c" x="610" y="66" rx="2" ry="2" width="12" height="12"/><rect class="c" x="610" y="82" rx="2" ry="2" width="12" height="12"/><rect class="c" x="610" y="98" rx="2" ry="2" width="12" height="12"/><rect class="c" x="626" y="2" rx="2" ry="2" width="12" height="12"/><rect class="c" x="626" y="18" rx="2" ry="2" width="12" height="12"/><rect class="c" x="626" y="34" rx="2" ry="2" width="12" height="12"/><rect class="c" x="626" y="50" rx="2" ry="2" width="12" height="12"/><rect class="c" x="626" y="66" rx="2" ry="2" width="12" height="12"/><rect class="c" x="626" y="82" rx="2" ry="2" width="12" height="12"/><rect class="c" x="626" y="98" rx="2" ry="2" width="12" height="12"/><rect class="c" x="642" y="2" rx="2" ry="2" width="12" height="12"/><rect class="c" x="642" y="18" rx="2" ry="2" width="12" height="12"/><rect class="c" x="642" y="34" rx="2" ry="2" width="12" height="12"/><rect class="c" x="642" y="50" rx="2" ry="2" width="12" height="12"/><rect class="c" x="642" y="66" rx="2" ry="2" width="12" height="12"/><rect class="c" x="642" y="82" rx="2" ry="2" width="12" height="12"/><rect class="c" x="642" y="98" rx="2" ry="2" width="12" height="12"/><rect class="c" x="658" y="2" rx="2" ry="2" width="12" height="12"/><rect class="c" x="658" y="18" rx="2" ry="2" width="12" height="12"/><rect class="c" x="658" y="34" rx="2" ry="2" width="12" height="12"/><rect class="c" x="658" y="50" rx="2" ry="2" width="12" height="12"/><rect class="c" x="658" y="66" rx="2" ry="2" width="12" height="12"/><rect class="c" x="658" y="82" rx="2" ry="2" width="12" height="12"/><rect class="c" x="658" y="98" rx="2" ry="2" width="12" height="12"/><rect class="c" x="674" y="2" rx="2" ry="2" width="12" height="12"/><rect class="c" x="674" y="18" rx="2" ry="2" width="12" height="12"/><rect class="c" x="674" y="34" rx="2" ry="2" width="12" height="12"/><rect class="c" x="674" y="50" rx="2" ry="2" width="12" height="12"/><rect class="c" x="674" y="66" rx="2" ry="2" width="12" height="12"/><rect class="c" x="674" y="82" rx="2" ry="2" width="12" height="12"/><rect class="c" x="674" y="98" rx="2" ry="2" width="12" height="12"/><rect class="c" x="690" y="2" rx="2" ry="2" width="12" height="12"/><rect class="c" x="690" y="18" rx="2" ry="2" width="12" height="12"/><rect class="c" x="690" y="34" rx="2" ry="2" width="12" height="12"/><rect class="c" x="690" y="50" rx="2" ry="2" width="12" height="12"/><rect class="c" x="690" y="66" rx="2" ry="2" width="12" height="12"/><rect class="c" x="690" y="82" rx="2" ry="2" width="12" height="12"/><rect class="c" x="690" y="98" rx="2" ry="2" width="12" height="12"/><rect class="c" x="706" y="2" rx="2" ry="2" width="12" height="12"/><rect class="c" x="706" y="18" rx="2" ry="2" width="12" height="12"/><rect class="c" x="706" y="34" rx="2" ry="2" width="12" height="12"/><rect class="c" x="706" y="50" rx="2" ry="2" width="12" height="12"/><rect class="c" x="706" y="66" rx="2" ry="2" width="12" height="12"/><rect class="c" x="706" y="82" rx="2" ry="2" width="12" height="12"/><rect class="c" x="706" y="98" rx="2" ry="2" width="12" height="12"/><rect class="c" x="722" y="2" rx="2" ry="2" width="12" height="12"/><rect class="c" x="722" y="18" rx="2" ry="2" width="12" height="12"/><rect class="c" x="722" y="34" rx="2" ry="2" width="12" height="12"/><rect class="c" x="722" y="50" rx="2" ry="2" width="12" height="12"/><rect class="c" x="722" y="66" rx="2" ry="2" width="12" height="12"/><rect class="c" x="722" y="82" rx="2" ry="2" width="12" height="12"/><rect class="c" x="722" y="98" rx="2" ry="2" width="12" height="12"/><rect class="c" x="738" y="2" rx="2" ry="2" width="12" height="12"/><rect class="c" x="738" y="18" rx="2" ry="2" width="12" height="12"/><rect class="c" x="738" y="34" rx="2" ry="2" width="12" height="12"/><rect class="c" x="738" y="50" rx="2" ry="2" width="12" height="12"/><rect class="c ct" x="738" y="66" rx="2" ry="2" width="12" height="12"/><rect class="c" x="738" y="82" rx="2" ry="2" width="12" height="12"/><rect class="c" x="738" y="98" rx="2" ry="2" width="12" height="12"/><rect class="c" x="754" y="2" rx="2" ry="2" width="12" height="12"/><rect class="c" x="754" y="18" rx="2" ry="2" width="12" height="12"/><rect class="c" x="754" y="34" rx="2" ry="2" width="12" height="12"/><rect class="c" x="754" y="50" rx="2" ry="2" width="12" height="12"/><rect class="c cu" x="754" y="66" rx="2" ry="2" width="12" height="12"/><rect class="c" x="754" y="82" rx="2" ry="2" width="12" height="12"/><rect class="c" x="754" y="98" rx="2" ry="2" width="12" height="12"/><rect class="c" x="770" y="2" rx="2" ry="2" width="12" height="12"/><rect class="c" x="770" y="18" rx="2" ry="2" width="12" height="12"/><rect class="c" x="770" y="34" rx="2" ry="2" width="12" height="12"/><rect class="c" x="770" y="50" rx="2" ry="2" width="12" height="12"/><rect class="c" x="770" y="66" rx="2" ry="2" width="12" height="12"/><rect class="c" x="770" y="82" rx="2" ry="2" width="12" height="12"/><rect class="c" x="770" y="98" rx="2" ry="2" width="12" height="12"/><rect class="c" x="786" y="2" rx="2" ry="2" width="12" height="12"/><rect class="c" x="786" y="18" rx="2" ry="2" width="12" height="12"/><rect class="c" x="786" y="34" rx="2" ry="2" width="12" height="12"/><rect class="c cv" x="786" y="50" rx="2" ry="2" width="12" height="12"/><rect class="c cw" x="786" y="66" rx="2" ry="2" width="12" height="12"/><rect class="c" x="786" y="82" rx="2" ry="2" width="12" height="12"/><rect class="c" x="786" y="98" rx="2" ry="2" width="12" height="12"/><rect class="c" x="802" y="2" rx="2" ry="2" width="12" height="12"/><rect class="c" x="802" y="18" rx="2" ry="2" width="12" height="12"/><rect class="c" x="802" y="34" rx="2" ry="2" width="12" height="12"/><rect class="c" x="802" y="50" rx="2" ry="2" width="12" height="12"/><rect class="c" x="802" y="66" rx="2" ry="2" width="12" height="12"/><rect class="c" x="802" y="82" rx="2" ry="2" width="12" height="12"/><rect class="c" x="802" y="98" rx="2" ry="2" width="12" height="12"/><rect class="c" x="818" y="2" rx="2" ry="2" width="12" height="12"/><rect class="c cx" x="818" y="18" rx="2" ry="2" width="12" height="12"/><rect class="c cy" x="818" y="34" rx="2" ry="2" width="12" height="12"/><rect class="c" x="818" y="50" rx="2" ry="2" width="12" height="12"/><rect class="c cz" x="818" y="66" rx="2" ry="2" width="12" height="12"/><rect class="c c10" x="818" y="82" rx="2" ry="2" width="12" height="12"/><rect class="c" x="818" y="98" rx="2" ry="2" width="12" height="12"/><rect class="c c11" x="834" y="2" rx="2" ry="2" width="12" height="12"/><rect class="c c12" x="834" y="18" rx="2" ry="2" width="12" height="12"/><rect class="c" x="834" y="34" rx="2" ry="2" width="12" height="12"/><rect class="c" x="834" y="50" rx="2" ry="2" width="12" height="12"/><rect class="c" x="834" y="66" rx="2" ry="2" width="12" height="12"/><rect class="c c13" x="834" y="82" rx="2" ry="2" width="12" height="12"/><rect class="c c14" x="834" y="98" rx="2" ry="2" width="12" height="12"/><rect class="u u0" height="12" width="476.3" x="0.0" y="144"/><rect class="u u1" height="12" width="207.4" x="475.7" y="144"/><rect class="u u2" height="12" width="124.7" x="682.5" y="144"/><rect class="u u3" height="12" width="42.0" x="806.6" y="144"/><rect class="s s0" x="0.8" y="0.8" width="14.4" height="14.4" rx="4.5" ry="4.5"/><rect class="s s1" x="1.8" y="1.8" width="12.3" height="12.3" rx="4.1" ry="4.1"/><rect class="s s2" x="2.6" y="2.6" width="10.8" height="10.8" rx="3.6" ry="3.6"/><rect class="s s3" x="3.0" y="3.0" width="9.9" height="9.9" rx="3.3" ry="3.3"/></svg>