<svg viewBox="-16 -32 880 192" width="880" height="192" xmlns="http://www.w3.org/2000/svg"><desc>Generated with https://github.com/Platane/snk</desc><style>@keyframes c0{1.09%{fill:var(--c1)}1.11%,to{fill:var(--ce)}}@keyframes c1{1.82%{fill:var(--c1)}1.84%,to{fill:var(--ce)}}@keyframes c2{2.19%{fill:var(--c1)}2.21%,to{fill:var(--ce)}}@keyframes c3{63.36%{fill:var(--c2)}63.38%,to{fill:var(--ce)}}@keyframes c4{3.65%{fill:var(--c1)}3.67%,to{fill:var(--ce)}}@keyframes c5{4.02%{fill:var(--c1)}4.04%,to{fill:var(--ce)}}@keyframes c6{62.63%{fill:var(--c2)}62.65%,to{fill:var(--ce)}}@keyframes c7{5.85%{fill:var(--c1)}5.87%,to{fill:var(--ce)}}@keyframes c8{95.23%{fill:var(--c4)}95.25%,to{fill:var(--ce)}}@keyframes c9{61.89%{fill:var(--c2)}61.91%,to{fill:var(--ce)}}@keyframes ca{8.41%{fill:var(--c1)}8.43%,to{fill:var(--ce)}}@keyframes cb{60.06%{fill:var(--c2)}60.08%,to{fill:var(--ce)}}@keyframes cc{65.56%{fill:var(--c3)}65.58%,to{fill:var(--ce)}}@keyframes cd{68.85%{fill:var(--c3)}68.87%,to{fill:var(--ce)}}@keyframes ce{69.22%{fill:var(--c3)}69.24%,to{fill:var(--ce)}}@keyframes cf{92.3%{fill:var(--c4)}92.32%,to{fill:var(--ce)}}@keyframes cg{67.39%{fill:var(--c3)}67.41%,to{fill:var(--ce)}}@keyframes ch{12.81%{fill:var(--c1)}12.83%,to{fill:var(--ce)}}@keyframes ci{57.5%{fill:var(--c2)}57.52%,to{fill:var(--ce)}}@keyframes cj{13.18%{fill:var(--c1)}13.2%,to{fill:var(--ce)}}@keyframes ck{56.03%{fill:var(--c2)}56.05%,to{fill:var(--ce)}}@keyframes cl{15.37%{fill:var(--c1)}15.39%,to{fill:var(--ce)}}@keyframes cm{20.14%{fill:var(--c1)}20.16%,to{fill:var(--ce)}}@keyframes cn{52%{fill:var(--c2)}52.02%,to{fill:var(--ce)}}@keyframes co{18.67%{fill:var(--c1)}18.69%,to{fill:var(--ce)}}@keyframes cp{22.7%{fill:var(--c1)}22.72%,to{fill:var(--ce)}}@keyframes cq{23.07%{fill:var(--c1)}23.09%,to{fill:var(--ce)}}@keyframes cr{28.2%{fill:var(--c1)}28.22%,to{fill:var(--ce)}}@keyframes cs{28.56%{fill:var(--c1)}28.58%,to{fill:var(--ce)}}@keyframes ct{80.94%{fill:var(--c3)}80.96%,to{fill:var(--ce)}}@keyframes cu{41.75%{fill:var(--c2)}41.77%,to{fill:var(--ce)}}@keyframes cv{32.59%{fill:var(--c1)}32.61%,to{fill:var(--ce)}}@keyframes cw{32.22%{fill:var(--c1)}32.24%,to{fill:var(--ce)}}@keyframes cx{31.49%{fill:var(--c1)}31.51%,to{fill:var(--ce)}}@keyframes cy{30.39%{fill:var(--c1)}30.41%,to{fill:var(--ce)}}@keyframes cz{45.04%{fill:var(--c2)}45.06%,to{fill:var(--ce)}}@keyframes c10{32.96%{fill:var(--c1)}32.98%,to{fill:var(--ce)}}@keyframes c11{30.76%{fill:var(--c1)}30.78%,to{fill:var(--ce)}}@keyframes c12{39.92%{fill:var(--c2)}39.94%,to{fill:var(--ce)}}@keyframes c13{35.15%{fill:var(--c1)}35.17%,to{fill:var(--ce)}}@keyframes c14{35.52%{fill:var(--c1)}35.54%,to{fill:var(--ce)}}@keyframes c15{37.35%{fill:var(--c2)}37.37%,to{fill:var(--ce)}}@keyframes c16{36.99%{fill:var(--c1)}37.01%,to{fill:var(--ce)}}@keyframes u0{1.09%{transform:scale(0,1)}1.11%,1.82%{transform:scale(.04,1)}1.84%,2.19%{transform:scale(.08,1)}2.21%,3.65%{transform:scale(.12,1)}3.67%,4.02%{transform:scale(.16,1)}4.04%,5.85%{transform:scale(.2,1)}5.87%,8.41%{transform:scale(.24,1)}12.81%,8.43%{transform:scale(.28,1)}12.83%,13.18%{transform:scale(.32,1)}13.2%,15.37%{transform:scale(.36,1)}15.39%,18.67%{transform:scale(.4,1)}18.69%,20.14%{transform:scale(.44,1)}20.16%,22.7%{transform:scale(.48,1)}22.72%,23.07%{transform:scale(.52,1)}23.09%,28.2%{transform:scale(.56,1)}28.22%,28.56%{transform:scale(.6,1)}28.58%,30.39%{transform:scale(.64,1)}30.41%,30.76%{transform:scale(.68,1)}30.78%,31.49%{transform:scale(.72,1)}31.51%,32.22%{transform:scale(.76,1)}32.24%,32.59%{transform:scale(.8,1)}32.61%,32.96%{transform:scale(.84,1)}32.98%,35.15%{transform:scale(.88,1)}35.17%,35.52%{transform:scale(.92,1)}35.54%,36.99%{transform:scale(.96,1)}37.01%,to{transform:scale(1,1)}}@keyframes u1{37.35%{transform:scale(0,1)}37.37%,39.92%{transform:scale(.09,1)}39.94%,41.75%{transform:scale(.18,1)}41.77%,45.04%{transform:scale(.27,1)}45.06%,52%{transform:scale(.36,1)}52.02%,56.03%{transform:scale(.45,1)}56.05%,57.5%{transform:scale(.55,1)}57.52%,60.06%{transform:scale(.64,1)}60.08%,61.89%{transform:scale(.73,1)}61.91%,62.63%{transform:scale(.82,1)}62.65%,63.36%{transform:scale(.91,1)}63.38%,to{transform:scale(1,1)}}@keyframes u2{65.56%{transform:scale(0,1)}65.58%,67.39%{transform:scale(.2,1)}67.41%,68.85%{transform:scale(.4,1)}68.87%,69.22%{transform:scale(.6,1)}69.24%,80.94%{transform:scale(.8,1)}80.96%,to{transform:scale(1,1)}}@keyframes u3{92.3%{transform:scale(0,1)}92.32%,95.23%{transform:scale(.5,1)}95.25%,to{transform:scale(1,1)}}@keyframes s0{0%,99.63%{transform:translate(0,-16px)}.37%{transform:translate(0,0)}1.47%{transform:translate(48px,0)}2.2%{transform:translate(48px,32px)}3.66%{transform:translate(112px,32px)}4.03%{transform:translate(112px,48px)}4.4%,95.97%{transform:translate(96px,48px)}4.76%{transform:translate(96px,32px)}5.49%{transform:translate(128px,32px)}5.86%,94.51%{transform:translate(128px,16px)}6.23%{transform:translate(144px,16px)}7.69%{transform:translate(144px,80px)}8.06%{transform:translate(128px,80px)}8.42%{transform:translate(128px,96px)}60.44%,9.16%{transform:translate(160px,96px)}9.52%{transform:translate(160px,80px)}10.62%{transform:translate(208px,80px)}11.72%,68.13%{transform:translate(208px,32px)}12.45%,57.14%{transform:translate(240px,32px)}12.82%{transform:translate(240px,16px)}14.65%{transform:translate(320px,16px)}15.38%{transform:translate(320px,48px)}18.32%{transform:translate(448px,48px)}18.68%,21.61%{transform:translate(448px,32px)}19.05%{transform:translate(464px,32px)}19.78%{transform:translate(464px,0)}20.51%{transform:translate(432px,0)}21.25%{transform:translate(432px,32px)}23.08%{transform:translate(448px,96px)}27.47%{transform:translate(640px,96px)}28.21%{transform:translate(640px,64px)}28.94%,42.12%{transform:translate(672px,64px)}29.3%{transform:translate(672px,80px)}30.77%,39.56%{transform:translate(736px,80px)}31.14%{transform:translate(736px,64px)}31.5%,41.03%{transform:translate(720px,64px)}32.6%{transform:translate(720px,16px)}34.43%{transform:translate(800px,16px)}35.53%{transform:translate(800px,64px)}35.9%{transform:translate(816px,64px)}36.63%{transform:translate(816px,96px)}37%{transform:translate(832px,96px)}37.36%{transform:translate(832px,80px)}39.93%{transform:translate(736px,96px)}40.29%{transform:translate(720px,96px)}42.86%{transform:translate(672px,32px)}44.32%{transform:translate(736px,32px)}45.05%{transform:translate(736px,0)}51.65%{transform:translate(448px,0)}52.01%{transform:translate(448px,16px)}55.68%{transform:translate(288px,16px)}56.04%{transform:translate(288px,32px)}57.88%{transform:translate(240px,64px)}59.34%{transform:translate(176px,64px)}60.07%{transform:translate(176px,96px)}61.17%{transform:translate(160px,64px)}62.27%{transform:translate(112px,64px)}62.64%{transform:translate(112px,80px)}63%{transform:translate(96px,80px)}63.37%{transform:translate(96px,96px)}66.3%{transform:translate(224px,96px)}67.77%{transform:translate(224px,32px)}68.86%{transform:translate(208px,0)}79.85%{transform:translate(688px,0)}80.95%{transform:translate(688px,48px)}81.32%{transform:translate(672px,48px)}82.05%{transform:translate(672px,16px)}95.24%{transform:translate(128px,48px)}96.7%{transform:translate(96px,16px)}97.44%{transform:translate(64px,16px)}98.17%{transform:translate(64px,-16px)}}@keyframes s1{0%,99.63%{transform:translate(16px,-16px)}.37%{transform:translate(0,-16px)}.73%{transform:translate(0,0)}1.83%{transform:translate(48px,0)}2.56%{transform:translate(48px,32px)}4.03%{transform:translate(112px,32px)}4.4%{transform:translate(112px,48px)}4.76%,96.34%{transform:translate(96px,48px)}5.13%{transform:translate(96px,32px)}5.86%{transform:translate(128px,32px)}6.23%,94.87%{transform:translate(128px,16px)}6.59%{transform:translate(144px,16px)}8.06%{transform:translate(144px,80px)}8.42%{transform:translate(128px,80px)}8.79%{transform:translate(128px,96px)}60.81%,9.52%{transform:translate(160px,96px)}9.89%{transform:translate(160px,80px)}10.99%{transform:translate(208px,80px)}12.09%,68.5%{transform:translate(208px,32px)}12.82%,57.51%{transform:translate(240px,32px)}13.19%{transform:translate(240px,16px)}15.02%{transform:translate(320px,16px)}15.75%{transform:translate(320px,48px)}18.68%{transform:translate(448px,48px)}19.05%,21.98%{transform:translate(448px,32px)}19.41%{transform:translate(464px,32px)}20.15%{transform:translate(464px,0)}20.88%{transform:translate(432px,0)}21.61%{transform:translate(432px,32px)}23.44%{transform:translate(448px,96px)}27.84%{transform:translate(640px,96px)}28.57%{transform:translate(640px,64px)}29.3%,42.49%{transform:translate(672px,64px)}29.67%{transform:translate(672px,80px)}31.14%,39.93%{transform:translate(736px,80px)}31.5%{transform:translate(736px,64px)}31.87%,41.39%{transform:translate(720px,64px)}32.97%{transform:translate(720px,16px)}34.8%{transform:translate(800px,16px)}35.9%{transform:translate(800px,64px)}36.26%{transform:translate(816px,64px)}37%{transform:translate(816px,96px)}37.36%{transform:translate(832px,96px)}37.73%{transform:translate(832px,80px)}40.29%{transform:translate(736px,96px)}40.66%{transform:translate(720px,96px)}43.22%{transform:translate(672px,32px)}44.69%{transform:translate(736px,32px)}45.42%{transform:translate(736px,0)}52.01%{transform:translate(448px,0)}52.38%{transform:translate(448px,16px)}56.04%{transform:translate(288px,16px)}56.41%{transform:translate(288px,32px)}58.24%{transform:translate(240px,64px)}59.71%{transform:translate(176px,64px)}60.44%{transform:translate(176px,96px)}61.54%{transform:translate(160px,64px)}62.64%{transform:translate(112px,64px)}63%{transform:translate(112px,80px)}63.37%{transform:translate(96px,80px)}63.74%{transform:translate(96px,96px)}66.67%{transform:translate(224px,96px)}68.13%{transform:translate(224px,32px)}69.23%{transform:translate(208px,0)}80.22%{transform:translate(688px,0)}81.32%{transform:translate(688px,48px)}81.68%{transform:translate(672px,48px)}82.42%{transform:translate(672px,16px)}95.6%{transform:translate(128px,48px)}97.07%{transform:translate(96px,16px)}97.8%{transform:translate(64px,16px)}98.53%{transform:translate(64px,-16px)}}@keyframes s2{0%,99.63%{transform:translate(32px,-16px)}.73%{transform:translate(0,-16px)}1.1%{transform:translate(0,0)}2.2%{transform:translate(48px,0)}2.93%{transform:translate(48px,32px)}4.4%{transform:translate(112px,32px)}4.76%{transform:translate(112px,48px)}5.13%,96.7%{transform:translate(96px,48px)}5.49%{transform:translate(96px,32px)}6.23%{transform:translate(128px,32px)}6.59%,95.24%{transform:translate(128px,16px)}6.96%{transform:translate(144px,16px)}8.42%{transform:translate(144px,80px)}8.79%{transform:translate(128px,80px)}9.16%{transform:translate(128px,96px)}61.17%,9.89%{transform:translate(160px,96px)}10.26%{transform:translate(160px,80px)}11.36%{transform:translate(208px,80px)}12.45%,68.86%{transform:translate(208px,32px)}13.19%,57.88%{transform:translate(240px,32px)}13.55%{transform:translate(240px,16px)}15.38%{transform:translate(320px,16px)}16.12%{transform:translate(320px,48px)}19.05%{transform:translate(448px,48px)}19.41%,22.34%{transform:translate(448px,32px)}19.78%{transform:translate(464px,32px)}20.51%{transform:translate(464px,0)}21.25%{transform:translate(432px,0)}21.98%{transform:translate(432px,32px)}23.81%{transform:translate(448px,96px)}28.21%{transform:translate(640px,96px)}28.94%{transform:translate(640px,64px)}29.67%,42.86%{transform:translate(672px,64px)}30.04%{transform:translate(672px,80px)}31.5%,40.29%{transform:translate(736px,80px)}31.87%{transform:translate(736px,64px)}32.23%,41.76%{transform:translate(720px,64px)}33.33%{transform:translate(720px,16px)}35.16%{transform:translate(800px,16px)}36.26%{transform:translate(800px,64px)}36.63%{transform:translate(816px,64px)}37.36%{transform:translate(816px,96px)}37.73%{transform:translate(832px,96px)}38.1%{transform:translate(832px,80px)}40.66%{transform:translate(736px,96px)}41.03%{transform:translate(720px,96px)}43.59%{transform:translate(672px,32px)}45.05%{transform:translate(736px,32px)}45.79%{transform:translate(736px,0)}52.38%{transform:translate(448px,0)}52.75%{transform:translate(448px,16px)}56.41%{transform:translate(288px,16px)}56.78%{transform:translate(288px,32px)}58.61%{transform:translate(240px,64px)}60.07%{transform:translate(176px,64px)}60.81%{transform:translate(176px,96px)}61.9%{transform:translate(160px,64px)}63%{transform:translate(112px,64px)}63.37%{transform:translate(112px,80px)}63.74%{transform:translate(96px,80px)}64.1%{transform:translate(96px,96px)}67.03%{transform:translate(224px,96px)}68.5%{transform:translate(224px,32px)}69.6%{transform:translate(208px,0)}80.59%{transform:translate(688px,0)}81.68%{transform:translate(688px,48px)}82.05%{transform:translate(672px,48px)}82.78%{transform:translate(672px,16px)}95.97%{transform:translate(128px,48px)}97.44%{transform:translate(96px,16px)}98.17%{transform:translate(64px,16px)}98.9%{transform:translate(64px,-16px)}}@keyframes s3{0%,99.63%{transform:translate(48px,-16px)}1.1%{transform:translate(0,-16px)}1.47%{transform:translate(0,0)}2.56%{transform:translate(48px,0)}3.3%{transform:translate(48px,32px)}4.76%{transform:translate(112px,32px)}5.13%{transform:translate(112px,48px)}5.49%,97.07%{transform:translate(96px,48px)}5.86%{transform:translate(96px,32px)}6.59%{transform:translate(128px,32px)}6.96%,95.6%{transform:translate(128px,16px)}7.33%{transform:translate(144px,16px)}8.79%{transform:translate(144px,80px)}9.16%{transform:translate(128px,80px)}9.52%{transform:translate(128px,96px)}10.26%,61.54%{transform:translate(160px,96px)}10.62%{transform:translate(160px,80px)}11.72%{transform:translate(208px,80px)}12.82%,69.23%{transform:translate(208px,32px)}13.55%,58.24%{transform:translate(240px,32px)}13.92%{transform:translate(240px,16px)}15.75%{transform:translate(320px,16px)}16.48%{transform:translate(320px,48px)}19.41%{transform:translate(448px,48px)}19.78%,22.71%{transform:translate(448px,32px)}20.15%{transform:translate(464px,32px)}20.88%{transform:translate(464px,0)}21.61%{transform:translate(432px,0)}22.34%{transform:translate(432px,32px)}24.18%{transform:translate(448px,96px)}28.57%{transform:translate(640px,96px)}29.3%{transform:translate(640px,64px)}30.04%,43.22%{transform:translate(672px,64px)}30.4%{transform:translate(672px,80px)}31.87%,40.66%{transform:translate(736px,80px)}32.23%{transform:translate(736px,64px)}32.6%,42.12%{transform:translate(720px,64px)}33.7%{transform:translate(720px,16px)}35.53%{transform:translate(800px,16px)}36.63%{transform:translate(800px,64px)}37%{transform:translate(816px,64px)}37.73%{transform:translate(816px,96px)}38.1%{transform:translate(832px,96px)}38.46%{transform:translate(832px,80px)}41.03%{transform:translate(736px,96px)}41.39%{transform:translate(720px,96px)}43.96%{transform:translate(672px,32px)}45.42%{transform:translate(736px,32px)}46.15%{transform:translate(736px,0)}52.75%{transform:translate(448px,0)}53.11%{transform:translate(448px,16px)}56.78%{transform:translate(288px,16px)}57.14%{transform:translate(288px,32px)}58.97%{transform:translate(240px,64px)}60.44%{transform:translate(176px,64px)}61.17%{transform:translate(176px,96px)}62.27%{transform:translate(160px,64px)}63.37%{transform:translate(112px,64px)}63.74%{transform:translate(112px,80px)}64.1%{transform:translate(96px,80px)}64.47%{transform:translate(96px,96px)}67.4%{transform:translate(224px,96px)}68.86%{transform:translate(224px,32px)}69.96%{transform:translate(208px,0)}80.95%{transform:translate(688px,0)}82.05%{transform:translate(688px,48px)}82.42%{transform:translate(672px,48px)}83.15%{transform:translate(672px,16px)}96.34%{transform:translate(128px,48px)}97.8%{transform:translate(96px,16px)}98.53%{transform:translate(64px,16px)}99.27%{transform:translate(64px,-16px)}}:root{--cb:#1b1f230a;--cs:purple;--ce:#ebedf0;--c0:#ebedf0;--c1:#9be9a8;--c2:#40c463;--c3:#30a14e;--c4:#216e39}@media (prefers-color-scheme:dark){:root{--cb:#1b1f230a;--cs:purple;--ce:#161b22;--c1:#01311f;--c2:#034525;--c3:#0f6d31;--c4:#00c647}}.c{shape-rendering:geometricPrecision;fill:var(--ce);stroke-width:1px;stroke:var(--cb);animation:none 27300ms linear infinite}.c.c0,.c.c1,.c.c2{fill:var(--c1);animation-name:c0}.c.c1,.c.c2{animation-name:c1}.c.c2{animation-name:c2}.c.c3{fill:var(--c2);animation-name:c3}.c.c4,.c.c5{fill:var(--c1);animation-name:c4}.c.c5{animation-name:c5}.c.c6{fill:var(--c2);animation-name:c6}.c.c7{fill:var(--c1);animation-name:c7}.c.c8{fill:var(--c4);animation-name:c8}.c.c9{fill:var(--c2);animation-name:c9}.c.ca{fill:var(--c1);animation-name:ca}.c.cb{fill:var(--c2);animation-name:cb}.c.cc,.c.cd,.c.ce{fill:var(--c3);animation-name:cc}.c.cd,.c.ce{animation-name:cd}.c.ce{animation-name:ce}.c.cf{fill:var(--c4);animation-name:cf}.c.cg{fill:var(--c3);animation-name:cg}.c.ch{fill:var(--c1);animation-name:ch}.c.ci{fill:var(--c2);animation-name:ci}.c.cj{fill:var(--c1);animation-name:cj}.c.ck{fill:var(--c2);animation-name:ck}.c.cl,.c.cm{fill:var(--c1);animation-name:cl}.c.cm{animation-name:cm}.c.cn{fill:var(--c2);animation-name:cn}.c.co,.c.cp{fill:var(--c1);animation-name:co}.c.cp{animation-name:cp}.c.cq,.c.cr,.c.cs{fill:var(--c1);animation-name:cq}.c.cr,.c.cs{animation-name:cr}.c.cs{animation-name:cs}.c.ct{fill:var(--c3);animation-name:ct}.c.cu{fill:var(--c2);animation-name:cu}.c.cv{fill:var(--c1);animation-name:cv}.c.cw,.c.cx,.c.cy{fill:var(--c1);animation-name:cw}.c.cx,.c.cy{animation-name:cx}.c.cy{animation-name:cy}.c.cz{fill:var(--c2);animation-name:cz}.c.c10,.c.c11{fill:var(--c1);animation-name:c10}.c.c11{animation-name:c11}.c.c12{fill:var(--c2);animation-name:c12}.c.c13,.c.c14{fill:var(--c1);animation-name:c13}.c.c14{animation-name:c14}.c.c15{fill:var(--c2);animation-name:c15}.c.c16{fill:var(--c1);animation-name:c16}.s,.u{animation:none linear 27300ms infinite}.u,.u.u0{transform-origin:0 0}.u{transform:scale(0,1)}.u.u0{fill:var(--c1);animation-name:u0}.u.u1{fill:var(--c2);animation-name:u1;transform-origin:493px 0}.u.u2{fill:var(--c3);animation-name:u2;transform-origin:710px 0}.u.u3{fill:var(--c4);animation-name:u3;transform-origin:808.6px 0}.s{shape-rendering:geometricPrecision;fill:var(--cs)}.s.s0{transform:translate(0,-16px);animation-name:s0}.s.s1{transform:translate(16px,-16px);animation-name:s1}.s.s2{transform:translate(32px,-16px);animation-name:s2}.s.s3{transform:translate(48px,-16px);animation-name:s3}</style><rect class="c" x="2" y="2" rx="2" ry="2" width="12" height="12"/><rect class="c" x="2" y="18" rx="2" ry="2" width="12" height="12"/><rect class="c" x="2" y="34" rx="2" ry="2" width="12" height="12"/><rect class="c" x="2" y="50" rx="2" ry="2" width="12" height="12"/><rect class="c" x="2" y="66" rx="2" ry="2" width="12" height="12"/><rect class="c" x="2" y="82" rx="2" ry="2" width="12" height="12"/><rect class="c" x="2" y="98" rx="2" ry="2" width="12" height="12"/><rect class="c" x="18" y="2" rx="2" ry="2" width="12" height="12"/><rect class="c" x="18" y="18" rx="2" ry="2" width="12" height="12"/><rect class="c" x="18" y="34" rx="2" ry="2" width="12" height="12"/><rect class="c" x="18" y="50" rx="2" ry="2" width="12" height="12"/><rect class="c" x="18" y="66" rx="2" ry="2" width="12" height="12"/><rect class="c" x="18" y="82" rx="2" ry="2" width="12" height="12"/><rect class="c" x="18" y="98" rx="2" ry="2" width="12" height="12"/><rect class="c c0" x="34" y="2" rx="2" ry="2" width="12" height="12"/><rect class="c" x="34" y="18" rx="2" ry="2" width="12" height="12"/><rect class="c" x="34" y="34" rx="2" ry="2" width="12" height="12"/><rect class="c" x="34" y="50" rx="2" ry="2" width="12" height="12"/><rect class="c" x="34" y="66" rx="2" ry="2" width="12" height="12"/><rect class="c" x="34" y="82" rx="2" ry="2" width="12" height="12"/><rect class="c" x="34" y="98" rx="2" ry="2" width="12" height="12"/><rect class="c" x="50" y="2" rx="2" ry="2" width="12" height="12"/><rect class="c c1" x="50" y="18" rx="2" ry="2" width="12" height="12"/><rect class="c c2" x="50" y="34" rx="2" ry="2" width="12" height="12"/><rect class="c" x="50" y="50" rx="2" ry="2" width="12" height="12"/><rect class="c" x="50" y="66" rx="2" ry="2" width="12" height="12"/><rect class="c" x="50" y="82" rx="2" ry="2" width="12" height="12"/><rect class="c" x="50" y="98" rx="2" ry="2" width="12" height="12"/><rect class="c" x="66" y="2" rx="2" ry="2" width="12" height="12"/><rect class="c" x="66" y="18" rx="2" ry="2" width="12" height="12"/><rect class="c" x="66" y="34" rx="2" ry="2" width="12" height="12"/><rect class="c" x="66" y="50" rx="2" ry="2" width="12" height="12"/><rect class="c" x="66" y="66" rx="2" ry="2" width="12" height="12"/><rect class="c" x="66" y="82" rx="2" ry="2" width="12" height="12"/><rect class="c" x="66" y="98" rx="2" ry="2" width="12" height="12"/><rect class="c" x="82" y="2" rx="2" ry="2" width="12" height="12"/><rect class="c" x="82" y="18" rx="2" ry="2" width="12" height="12"/><rect class="c" x="82" y="34" rx="2" ry="2" width="12" height="12"/><rect class="c" x="82" y="50" rx="2" ry="2" width="12" height="12"/><rect class="c" x="82" y="66" rx="2" ry="2" width="12" height="12"/><rect class="c" x="82" y="82" rx="2" ry="2" width="12" height="12"/><rect class="c" x="82" y="98" rx="2" ry="2" width="12" height="12"/><rect class="c" x="98" y="2" rx="2" ry="2" width="12" height="12"/><rect class="c" x="98" y="18" rx="2" ry="2" width="12" height="12"/><rect class="c" x="98" y="34" rx="2" ry="2" width="12" height="12"/><rect class="c" x="98" y="50" rx="2" ry="2" width="12" height="12"/><rect class="c" x="98" y="66" rx="2" ry="2" width="12" height="12"/><rect class="c" x="98" y="82" rx="2" ry="2" width="12" height="12"/><rect class="c c3" x="98" y="98" rx="2" ry="2" width="12" height="12"/><rect class="c" x="114" y="2" rx="2" ry="2" width="12" height="12"/><rect class="c" x="114" y="18" rx="2" ry="2" width="12" height="12"/><rect class="c c4" x="114" y="34" rx="2" ry="2" width="12" height="12"/><rect class="c c5" x="114" y="50" rx="2" ry="2" width="12" height="12"/><rect class="c" x="114" y="66" rx="2" ry="2" width="12" height="12"/><rect class="c c6" x="114" y="82" rx="2" ry="2" width="12" height="12"/><rect class="c" x="114" y="98" rx="2" ry="2" width="12" height="12"/><rect class="c" x="130" y="2" rx="2" ry="2" width="12" height="12"/><rect class="c c7" x="130" y="18" rx="2" ry="2" width="12" height="12"/><rect class="c" x="130" y="34" rx="2" ry="2" width="12" height="12"/><rect class="c c8" x="130" y="50" rx="2" ry="2" width="12" height="12"/><rect class="c c9" x="130" y="66" rx="2" ry="2" width="12" height="12"/><rect class="c" x="130" y="82" rx="2" ry="2" width="12" height="12"/><rect class="c ca" x="130" y="98" rx="2" ry="2" width="12" height="12"/><rect class="c" x="146" y="2" rx="2" ry="2" width="12" height="12"/><rect class="c" x="146" y="18" rx="2" ry="2" width="12" height="12"/><rect class="c" x="146" y="34" rx="2" ry="2" width="12" height="12"/><rect class="c" x="146" y="50" rx="2" ry="2" width="12" height="12"/><rect class="c" x="146" y="66" rx="2" ry="2" width="12" height="12"/><rect class="c" x="146" y="82" rx="2" ry="2" width="12" height="12"/><rect class="c" x="146" y="98" rx="2" ry="2" width="12" height="12"/><rect class="c" x="162" y="2" rx="2" ry="2" width="12" height="12"/><rect class="c" x="162" y="18" rx="2" ry="2" width="12" height="12"/><rect class="c" x="162" y="34" rx="2" ry="2" width="12" height="12"/><rect class="c" x="162" y="50" rx="2" ry="2" width="12" height="12"/><rect class="c" x="162" y="66" rx="2" ry="2" width="12" height="12"/><rect class="c" x="162" y="82" rx="2" ry="2" width="12" height="12"/><rect class="c" x="162" y="98" rx="2" ry="2" width="12" height="12"/><rect class="c" x="178" y="2" rx="2" ry="2" width="12" height="12"/><rect class="c" x="178" y="18" rx="2" ry="2" width="12" height="12"/><rect class="c" x="178" y="34" rx="2" ry="2" width="12" height="12"/><rect class="c" x="178" y="50" rx="2" ry="2" width="12" height="12"/><rect class="c" x="178" y="66" rx="2" ry="2" width="12" height="12"/><rect class="c" x="178" y="82" rx="2" ry="2" width="12" height="12"/><rect class="c cb" x="178" y="98" rx="2" ry="2" width="12" height="12"/><rect class="c" x="194" y="2" rx="2" ry="2" width="12" height="12"/><rect class="c" x="194" y="18" rx="2" ry="2" width="12" height="12"/><rect class="c" x="194" y="34" rx="2" ry="2" width="12" height="12"/><rect class="c" x="194" y="50" rx="2" ry="2" width="12" height="12"/><rect class="c" x="194" y="66" rx="2" ry="2" width="12" height="12"/><rect class="c" x="194" y="82" rx="2" ry="2" width="12" height="12"/><rect class="c cc" x="194" y="98" rx="2" ry="2" width="12" height="12"/><rect class="c cd" x="210" y="2" rx="2" ry="2" width="12" height="12"/><rect class="c" x="210" y="18" rx="2" ry="2" width="12" height="12"/><rect class="c" x="210" y="34" rx="2" ry="2" width="12" height="12"/><rect class="c" x="210" y="50" rx="2" ry="2" width="12" height="12"/><rect class="c" x="210" y="66" rx="2" ry="2" width="12" height="12"/><rect class="c" x="210" y="82" rx="2" ry="2" width="12" height="12"/><rect class="c" x="210" y="98" rx="2" ry="2" width="12" height="12"/><rect class="c ce" x="226" y="2" rx="2" ry="2" width="12" height="12"/><rect class="c cf" x="226" y="18" rx="2" ry="2" width="12" height="12"/><rect class="c" x="226" y="34" rx="2" ry="2" width="12" height="12"/><rect class="c cg" x="226" y="50" rx="2" ry="2" width="12" height="12"/><rect class="c" x="226" y="66" rx="2" ry="2" width="12" height="12"/><rect class="c" x="226" y="82" rx="2" ry="2" width="12" height="12"/><rect class="c" x="226" y="98" rx="2" ry="2" width="12" height="12"/><rect class="c" x="242" y="2" rx="2" ry="2" width="12" height="12"/><rect class="c ch" x="242" y="18" rx="2" ry="2" width="12" height="12"/><rect class="c" x="242" y="34" rx="2" ry="2" width="12" height="12"/><rect class="c ci" x="242" y="50" rx="2" ry="2" width="12" height="12"/><rect class="c" x="242" y="66" rx="2" ry="2" width="12" height="12"/><rect class="c" x="242" y="82" rx="2" ry="2" width="12" height="12"/><rect class="c" x="242" y="98" rx="2" ry="2" width="12" height="12"/><rect class="c" x="258" y="2" rx="2" ry="2" width="12" height="12"/><rect class="c cj" x="258" y="18" rx="2" ry="2" width="12" height="12"/><rect class="c" x="258" y="34" rx="2" ry="2" width="12" height="12"/><rect class="c" x="258" y="50" rx="2" ry="2" width="12" height="12"/><rect class="c" x="258" y="66" rx="2" ry="2" width="12" height="12"/><rect class="c" x="258" y="82" rx="2" ry="2" width="12" height="12"/><rect class="c" x="258" y="98" rx="2" ry="2" width="12" height="12"/><rect class="c" x="274" y="2" rx="2" ry="2" width="12" height="12"/><rect class="c" x="274" y="18" rx="2" ry="2" width="12" height="12"/><rect class="c" x="274" y="34" rx="2" ry="2" width="12" height="12"/><rect class="c" x="274" y="50" rx="2" ry="2" width="12" height="12"/><rect class="c" x="274" y="66" rx="2" ry="2" width="12" height="12"/><rect class="c" x="274" y="82" rx="2" ry="2" width="12" height="12"/><rect class="c" x="274" y="98" rx="2" ry="2" width="12" height="12"/><rect class="c" x="290" y="2" rx="2" ry="2" width="12" height="12"/><rect class="c" x="290" y="18" rx="2" ry="2" width="12" height="12"/><rect class="c ck" x="290" y="34" rx="2" ry="2" width="12" height="12"/><rect class="c" x="290" y="50" rx="2" ry="2" width="12" height="12"/><rect class="c" x="290" y="66" rx="2" ry="2" width="12" height="12"/><rect class="c" x="290" y="82" rx="2" ry="2" width="12" height="12"/><rect class="c" x="290" y="98" rx="2" ry="2" width="12" height="12"/><rect class="c" x="306" y="2" rx="2" ry="2" width="12" height="12"/><rect class="c" x="306" y="18" rx="2" ry="2" width="12" height="12"/><rect class="c" x="306" y="34" rx="2" ry="2" width="12" height="12"/><rect class="c" x="306" y="50" rx="2" ry="2" width="12" height="12"/><rect class="c" x="306" y="66" rx="2" ry="2" width="12" height="12"/><rect class="c" x="306" y="82" rx="2" ry="2" width="12" height="12"/><rect class="c" x="306" y="98" rx="2" ry="2" width="12" height="12"/><rect class="c" x="322" y="2" rx="2" ry="2" width="12" height="12"/><rect class="c" x="322" y="18" rx="2" ry="2" width="12" height="12"/><rect class="c" x="322" y="34" rx="2" ry="2" width="12" height="12"/><rect class="c cl" x="322" y="50" rx="2" ry="2" width="12" height="12"/><rect class="c" x="322" y="66" rx="2" ry="2" width="12" height="12"/><rect class="c" x="322" y="82" rx="2" ry="2" width="12" height="12"/><rect class="c" x="322" y="98" rx="2" ry="2" width="12" height="12"/><rect class="c" x="338" y="2" rx="2" ry="2" width="12" height="12"/><rect class="c" x="338" y="18" rx="2" ry="2" width="12" height="12"/><rect class="c" x="338" y="34" rx="2" ry="2" width="12" height="12"/><rect class="c" x="338" y="50" rx="2" ry="2" width="12" height="12"/><rect class="c" x="338" y="66" rx="2" ry="2" width="12" height="12"/><rect class="c" x="338" y="82" rx="2" ry="2" width="12" height="12"/><rect class="c" x="338" y="98" rx="2" ry="2" width="12" height="12"/><rect class="c" x="354" y="2" rx="2" ry="2" width="12" height="12"/><rect class="c" x="354" y="18" rx="2" ry="2" width="12" height="12"/><rect class="c" x="354" y="34" rx="2" ry="2" width="12" height="12"/><rect class="c" x="354" y="50" rx="2" ry="2" width="12" height="12"/><rect class="c" x="354" y="66" rx="2" ry="2" width="12" height="12"/><rect class="c" x="354" y="82" rx="2" ry="2" width="12" height="12"/><rect class="c" x="354" y="98" rx="2" ry="2" width="12" height="12"/><rect class="c" x="370" y="2" rx="2" ry="2" width="12" height="12"/><rect class="c" x="370" y="18" rx="2" ry="2" width="12" height="12"/><rect class="c" x="370" y="34" rx="2" ry="2" width="12" height="12"/><rect class="c" x="370" y="50" rx="2" ry="2" width="12" height="12"/><rect class="c" x="370" y="66" rx="2" ry="2" width="12" height="12"/><rect class="c" x="370" y="82" rx="2" ry="2" width="12" height="12"/><rect class="c" x="370" y="98" rx="2" ry="2" width="12" height="12"/><rect class="c" x="386" y="2" rx="2" ry="2" width="12" height="12"/><rect class="c" x="386" y="18" rx="2" ry="2" width="12" height="12"/><rect class="c" x="386" y="34" rx="2" ry="2" width="12" height="12"/><rect class="c" x="386" y="50" rx="2" ry="2" width="12" height="12"/><rect class="c" x="386" y="66" rx="2" ry="2" width="12" height="12"/><rect class="c" x="386" y="82" rx="2" ry="2" width="12" height="12"/><rect class="c" x="386" y="98" rx="2" ry="2" width="12" height="12"/><rect class="c" x="402" y="2" rx="2" ry="2" width="12" height="12"/><rect class="c" x="402" y="18" rx="2" ry="2" width="12" height="12"/><rect class="c" x="402" y="34" rx="2" ry="2" width="12" height="12"/><rect class="c" x="402" y="50" rx="2" ry="2" width="12" height="12"/><rect class="c" x="402" y="66" rx="2" ry="2" width="12" height="12"/><rect class="c" x="402" y="82" rx="2" ry="2" width="12" height="12"/><rect class="c" x="402" y="98" rx="2" ry="2" width="12" height="12"/><rect class="c" x="418" y="2" rx="2" ry="2" width="12" height="12"/><rect class="c" x="418" y="18" rx="2" ry="2" width="12" height="12"/><rect class="c" x="418" y="34" rx="2" ry="2" width="12" height="12"/><rect class="c" x="418" y="50" rx="2" ry="2" width="12" height="12"/><rect class="c" x="418" y="66" rx="2" ry="2" width="12" height="12"/><rect class="c" x="418" y="82" rx="2" ry="2" width="12" height="12"/><rect class="c" x="418" y="98" rx="2" ry="2" width="12" height="12"/><rect class="c" x="434" y="2" rx="2" ry="2" width="12" height="12"/><rect class="c" x="434" y="18" rx="2" ry="2" width="12" height="12"/><rect class="c" x="434" y="34" rx="2" ry="2" width="12" height="12"/><rect class="c" x="434" y="50" rx="2" ry="2" width="12" height="12"/><rect class="c" x="434" y="66" rx="2" ry="2" width="12" height="12"/><rect class="c" x="434" y="82" rx="2" ry="2" width="12" height="12"/><rect class="c" x="434" y="98" rx="2" ry="2" width="12" height="12"/><rect class="c cm" x="450" y="2" rx="2" ry="2" width="12" height="12"/><rect class="c cn" x="450" y="18" rx="2" ry="2" width="12" height="12"/><rect class="c co" x="450" y="34" rx="2" ry="2" width="12" height="12"/><rect class="c" x="450" y="50" rx="2" ry="2" width="12" height="12"/><rect class="c" x="450" y="66" rx="2" ry="2" width="12" height="12"/><rect class="c cp" x="450" y="82" rx="2" ry="2" width="12" height="12"/><rect class="c cq" x="450" y="98" rx="2" ry="2" width="12" height="12"/><rect class="c" x="466" y="2" rx="2" ry="2" width="12" height="12"/><rect class="c" x="466" y="18" rx="2" ry="2" width="12" height="12"/><rect class="c" x="466" y="34" rx="2" ry="2" width="12" height="12"/><rect class="c" x="466" y="50" rx="2" ry="2" width="12" height="12"/><rect class="c" x="466" y="66" rx="2" ry="2" width="12" height="12"/><rect class="c" x="466" y="82" rx="2" ry="2" width="12" height="12"/><rect class="c" x="466" y="98" rx="2" ry="2" width="12" height="12"/><rect class="c" x="482" y="2" rx="2" ry="2" width="12" height="12"/><rect class="c" x="482" y="18" rx="2" ry="2" width="12" height="12"/><rect class="c" x="482" y="34" rx="2" ry="2" width="12" height="12"/><rect class="c" x="482" y="50" rx="2" ry="2" width="12" height="12"/><rect class="c" x="482" y="66" rx="2" ry="2" width="12" height="12"/><rect class="c" x="482" y="82" rx="2" ry="2" width="12" height="12"/><rect class="c" x="482" y="98" rx="2" ry="2" width="12" height="12"/><rect class="c" x="498" y="2" rx="2" ry="2" width="12" height="12"/><rect class="c" x="498" y="18" rx="2" ry="2" width="12" height="12"/><rect class="c" x="498" y="34" rx="2" ry="2" width="12" height="12"/><rect class="c" x="498" y="50" rx="2" ry="2" width="12" height="12"/><rect class="c" x="498" y="66" rx="2" ry="2" width="12" height="12"/><rect class="c" x="498" y="82" rx="2" ry="2" width="12" height="12"/><rect class="c" x="498" y="98" rx="2" ry="2" width="12" height="12"/><rect class="c" x="514" y="2" rx="2" ry="2" width="12" height="12"/><rect class="c" x="514" y="18" rx="2" ry="2" width="12" height="12"/><rect class="c" x="514" y="34" rx="2" ry="2" width="12" height="12"/><rect class="c" x="514" y="50" rx="2" ry="2" width="12" height="12"/><rect class="c" x="514" y="66" rx="2" ry="2" width="12" height="12"/><rect class="c" x="514" y="82" rx="2" ry="2" width="12" height="12"/><rect class="c" x="514" y="98" rx="2" ry="2" width="12" height="12"/><rect class="c" x="530" y="2" rx="2" ry="2" width="12" height="12"/><rect class="c" x="530" y="18" rx="2" ry="2" width="12" height="12"/><rect class="c" x="530" y="34" rx="2" ry="2" width="12" height="12"/><rect class="c" x="530" y="50" rx="2" ry="2" width="12" height="12"/><rect class="c" x="530" y="66" rx="2" ry="2" width="12" height="12"/><rect class="c" x="530" y="82" rx="2" ry="2" width="12" height="12"/><rect class="c" x="530" y="98" rx="2" ry="2" width="12" height="12"/><rect class="c" x="546" y="2" rx="2" ry="2" width="12" height="12"/><rect class="c" x="546" y="18" rx="2" ry="2" width="12" height="12"/><rect class="c" x="546" y="34" rx="2" ry="2" width="12" height="12"/><rect class="c" x="546" y="50" rx="2" ry="2" width="12" height="12"/><rect class="c" x="546" y="66" rx="2" ry="2" width="12" height="12"/><rect class="c" x="546" y="82" rx="2" ry="2" width="12" height="12"/><rect class="c" x="546" y="98" rx="2" ry="2" width="12" height="12"/><rect class="c" x="562" y="2" rx="2" ry="2" width="12" height="12"/><rect class="c" x="562" y="18" rx="2" ry="2" width="12" height="12"/><rect class="c" x="562" y="34" rx="2" ry="2" width="12" height="12"/><rect class="c" x="562" y="50" rx="2" ry="2" width="12" height="12"/><rect class="c" x="562" y="66" rx="2" ry="2" width="12" height="12"/><rect class="c" x="562" y="82" rx="2" ry="2" width="12" height="12"/><rect class="c" x="562" y="98" rx="2" ry="2" width="12" height="12"/><rect class="c" x="578" y="2" rx="2" ry="2" width="12" height="12"/><rect class="c" x="578" y="18" rx="2" ry="2" width="12" height="12"/><rect class="c" x="578" y="34" rx="2" ry="2" width="12" height="12"/><rect class="c" x="578" y="50" rx="2" ry="2" width="12" height="12"/><rect class="c" x="578" y="66" rx="2" ry="2" width="12" height="12"/><rect class="c" x="578" y="82" rx="2" ry="2" width="12" height="12"/><rect class="c" x="578" y="98" rx="2" ry="2" width="12" height="12"/><rect class="c" x="594" y="2" rx="2" ry="2" width="12" height="12"/><rect class="c" x="594" y="18" rx="2" ry="2" width="12" height="12"/><rect class="c" x="594" y="34" rx="2" ry="2" width="12" height="12"/><rect class="c" x="594" y="50" rx="2" ry="2" width="12" height="12"/><rect class="c" x="594" y="66" rx="2" ry="2" width="12" height="12"/><rect class="c" x="594" y="82" rx="2" ry="2" width="12" height="12"/><rect class="c" x="594" y="98" rx="2" ry="2" width="12" height="12"/><rect class="c" x="610" y="2" rx="2" ry="2" width="12" height="12"/><rect class="c" x="610" y="18" rx="2" ry="2" width="12" height="12"/><rect class="c" x="610" y="34" rx="2" ry="2" width="12" height="12"/><rect class="c" x="610" y="50" rx="2" ry="2" width="12" height="12"/><rect class="c" x="610" y="66" rx="2" ry="2" width="12" height="12"/><rect class="c" x="610" y="82" rx="2" ry="2" width="12" height="12"/><rect class="c" x="610" y="98" rx="2" ry="2" width="12" height="12"/><rect class="c" x="626" y="2" rx="2" ry="2" width="12" height="12"/><rect class="c" x="626" y="18" rx="2" ry="2" width="12" height="12"/><rect class="c" x="626" y="34" rx="2" ry="2" width="12" height="12"/><rect class="c" x="626" y="50" rx="2" ry="2" width="12" height="12"/><rect class="c" x="626" y="66" rx="2" ry="2" width="12" height="12"/><rect class="c" x="626" y="82" rx="2" ry="2" width="12" height="12"/><rect class="c" x="626" y="98" rx="2" ry="2" width="12" height="12"/><rect class="c" x="642" y="2" rx="2" ry="2" width="12" height="12"/><rect class="c" x="642" y="18" rx="2" ry="2" width="12" height="12"/><rect class="c" x="642" y="34" rx="2" ry="2" width="12" height="12"/><rect class="c" x="642" y="50" rx="2" ry="2" width="12" height="12"/><rect class="c cr" x="642" y="66" rx="2" ry="2" width="12" height="12"/><rect class="c" x="642" y="82" rx="2" ry="2" width="12" height="12"/><rect class="c" x="642" y="98" rx="2" ry="2" width="12" height="12"/><rect class="c" x="658" y="2" rx="2" ry="2" width="12" height="12"/><rect class="c" x="658" y="18" rx="2" ry="2" width="12" height="12"/><rect class="c" x="658" y="34" rx="2" ry="2" width="12" height="12"/><rect class="c" x="658" y="50" rx="2" ry="2" width="12" height="12"/><rect class="c cs" x="658" y="66" rx="2" ry="2" width="12" height="12"/><rect class="c" x="658" y="82" rx="2" ry="2" width="12" height="12"/><rect class="c" x="658" y="98" rx="2" ry="2" width="12" height="12"/><rect class="c" x="674" y="2" rx="2" ry="2" width="12" height="12"/><rect class="c" x="674" y="18" rx="2" ry="2" width="12" height="12"/><rect class="c" x="674" y="34" rx="2" ry="2" width="12" height="12"/><rect class="c" x="674" y="50" rx="2" ry="2" width="12" height="12"/><rect class="c" x="674" y="66" rx="2" ry="2" width="12" height="12"/><rect class="c" x="674" y="82" rx="2" ry="2" width="12" height="12"/><rect class="c" x="674" y="98" rx="2" ry="2" width="12" height="12"/><rect class="c" x="690" y="2" rx="2" ry="2" width="12" height="12"/><rect class="c" x="690" y="18" rx="2" ry="2" width="12" height="12"/><rect class="c" x="690" y="34" rx="2" ry="2" width="12" height="12"/><rect class="c ct" x="690" y="50" rx="2" ry="2" width="12" height="12"/><rect class="c cu" x="690" y="66" rx="2" ry="2" width="12" height="12"/><rect class="c" x="690" y="82" rx="2" ry="2" width="12" height="12"/><rect class="c" x="690" y="98" rx="2" ry="2" width="12" height="12"/><rect class="c" x="706" y="2" rx="2" ry="2" width="12" height="12"/><rect class="c" x="706" y="18" rx="2" ry="2" width="12" height="12"/><rect class="c" x="706" y="34" rx="2" ry="2" width="12" height="12"/><rect class="c" x="706" y="50" rx="2" ry="2" width="12" height="12"/><rect class="c" x="706" y="66" rx="2" ry="2" width="12" height="12"/><rect class="c" x="706" y="82" rx="2" ry="2" width="12" height="12"/><rect class="c" x="706" y="98" rx="2" ry="2" width="12" height="12"/><rect class="c" x="722" y="2" rx="2" ry="2" width="12" height="12"/><rect class="c cv" x="722" y="18" rx="2" ry="2" width="12" height="12"/><rect class="c cw" x="722" y="34" rx="2" ry="2" width="12" height="12"/><rect class="c" x="722" y="50" rx="2" ry="2" width="12" height="12"/><rect class="c cx" x="722" y="66" rx="2" ry="2" width="12" height="12"/><rect class="c cy" x="722" y="82" rx="2" ry="2" width="12" height="12"/><rect class="c" x="722" y="98" rx="2" ry="2" width="12" height="12"/><rect class="c cz" x="738" y="2" rx="2" ry="2" width="12" height="12"/><rect class="c c10" x="738" y="18" rx="2" ry="2" width="12" height="12"/><rect class="c" x="738" y="34" rx="2" ry="2" width="12" height="12"/><rect class="c" x="738" y="50" rx="2" ry="2" width="12" height="12"/><rect class="c" x="738" y="66" rx="2" ry="2" width="12" height="12"/><rect class="c c11" x="738" y="82" rx="2" ry="2" width="12" height="12"/><rect class="c c12" x="738" y="98" rx="2" ry="2" width="12" height="12"/><rect class="c" x="754" y="2" rx="2" ry="2" width="12" height="12"/><rect class="c" x="754" y="18" rx="2" ry="2" width="12" height="12"/><rect class="c" x="754" y="34" rx="2" ry="2" width="12" height="12"/><rect class="c" x="754" y="50" rx="2" ry="2" width="12" height="12"/><rect class="c" x="754" y="66" rx="2" ry="2" width="12" height="12"/><rect class="c" x="754" y="82" rx="2" ry="2" width="12" height="12"/><rect class="c" x="754" y="98" rx="2" ry="2" width="12" height="12"/><rect class="c" x="770" y="2" rx="2" ry="2" width="12" height="12"/><rect class="c" x="770" y="18" rx="2" ry="2" width="12" height="12"/><rect class="c" x="770" y="34" rx="2" ry="2" width="12" height="12"/><rect class="c" x="770" y="50" rx="2" ry="2" width="12" height="12"/><rect class="c" x="770" y="66" rx="2" ry="2" width="12" height="12"/><rect class="c" x="770" y="82" rx="2" ry="2" width="12" height="12"/><rect class="c" x="770" y="98" rx="2" ry="2" width="12" height="12"/><rect class="c" x="786" y="2" rx="2" ry="2" width="12" height="12"/><rect class="c" x="786" y="18" rx="2" ry="2" width="12" height="12"/><rect class="c" x="786" y="34" rx="2" ry="2" width="12" height="12"/><rect class="c" x="786" y="50" rx="2" ry="2" width="12" height="12"/><rect class="c" x="786" y="66" rx="2" ry="2" width="12" height="12"/><rect class="c" x="786" y="82" rx="2" ry="2" width="12" height="12"/><rect class="c" x="786" y="98" rx="2" ry="2" width="12" height="12"/><rect class="c" x="802" y="2" rx="2" ry="2" width="12" height="12"/><rect class="c" x="802" y="18" rx="2" ry="2" width="12" height="12"/><rect class="c" x="802" y="34" rx="2" ry="2" width="12" height="12"/><rect class="c c13" x="802" y="50" rx="2" ry="2" width="12" height="12"/><rect class="c c14" x="802" y="66" rx="2" ry="2" width="12" height="12"/><rect class="c" x="802" y="82" rx="2" ry="2" width="12" height="12"/><rect class="c" x="802" y="98" rx="2" ry="2" width="12" height="12"/><rect class="c" x="818" y="2" rx="2" ry="2" width="12" height="12"/><rect class="c" x="818" y="18" rx="2" ry="2" width="12" height="12"/><rect class="c" x="818" y="34" rx="2" ry="2" width="12" height="12"/><rect class="c" x="818" y="50" rx="2" ry="2" width="12" height="12"/><rect class="c" x="818" y="66" rx="2" ry="2" width="12" height="12"/><rect class="c" x="818" y="82" rx="2" ry="2" width="12" height="12"/><rect class="c" x="818" y="98" rx="2" ry="2" width="12" height="12"/><rect class="c" x="834" y="2" rx="2" ry="2" width="12" height="12"/><rect class="c" x="834" y="18" rx="2" ry="2" width="12" height="12"/><rect class="c" x="834" y="34" rx="2" ry="2" width="12" height="12"/><rect class="c" x="834" y="50" rx="2" ry="2" width="12" height="12"/><rect class="c" x="834" y="66" rx="2" ry="2" width="12" height="12"/><rect class="c c15" x="834" y="82" rx="2" ry="2" width="12" height="12"/><rect class="c c16" x="834" y="98" rx="2" ry="2" width="12" height="12"/><rect class="u u0" height="12" width="493.6" x="0.0" y="144"/><rect class="u u1" height="12" width="217.5" x="493.0" y="144"/><rect class="u u2" height="12" width="99.2" x="710.0" y="144"/><rect class="u u3" height="12" width="40.0" x="808.6" y="144"/><rect class="s s0" x="0.8" y="0.8" width="14.4" height="14.4" rx="4.5" ry="4.5"/><rect class="s s1" x="1.8" y="1.8" width="12.3" height="12.3" rx="4.1" ry="4.1"/><rect class="s s2" x="2.6" y="2.6" width="10.8" height="10.8" rx="3.6" ry="3.6"/><rect class="s s3" x="3.0" y="3.0" width="9.9" height="9.9" rx="3.3" ry="3.3"/></svg>