<svg viewBox="-16 -32 880 192" width="880" height="192" xmlns="http://www.w3.org/2000/svg"><style>@keyframes c0{5.08%{fill:var(--c1)}5.1%,to{fill:var(--ce)}}@keyframes c1{3.81%{fill:var(--c1)}3.83%,to{fill:var(--ce)}}@keyframes c2{2.79%{fill:var(--c1)}2.81%,to{fill:var(--ce)}}@keyframes c3{3.55%{fill:var(--c1)}3.57%,to{fill:var(--ce)}}@keyframes c4{74.04%{fill:var(--c2)}74.06%,to{fill:var(--ce)}}@keyframes c5{3.04%{fill:var(--c1)}3.06%,to{fill:var(--ce)}}@keyframes c6{3.3%{fill:var(--c1)}3.32%,to{fill:var(--ce)}}@keyframes c7{6.35%{fill:var(--c1)}6.37%,to{fill:var(--ce)}}@keyframes c8{6.1%{fill:var(--c1)}6.12%,to{fill:var(--ce)}}@keyframes c9{7.88%{fill:var(--c1)}7.9%,to{fill:var(--ce)}}@keyframes ca{7.11%{fill:var(--c1)}7.13%,to{fill:var(--ce)}}@keyframes cb{51.39%{fill:var(--c1)}51.41%,to{fill:var(--ce)}}@keyframes cc{11.69%{fill:var(--c1)}11.71%,to{fill:var(--ce)}}@keyframes cd{11.95%{fill:var(--c1)}11.97%,to{fill:var(--ce)}}@keyframes ce{12.2%{fill:var(--c1)}12.22%,to{fill:var(--ce)}}@keyframes cf{12.46%{fill:var(--c1)}12.48%,to{fill:var(--ce)}}@keyframes cg{9.66%{fill:var(--c1)}9.68%,to{fill:var(--ce)}}@keyframes ch{11.44%{fill:var(--c1)}11.46%,to{fill:var(--ce)}}@keyframes ci{11.19%{fill:var(--c1)}11.21%,to{fill:var(--ce)}}@keyframes cj{12.97%{fill:var(--c1)}12.99%,to{fill:var(--ce)}}@keyframes ck{10.17%{fill:var(--c1)}10.19%,to{fill:var(--ce)}}@keyframes cl{10.42%{fill:var(--c1)}10.44%,to{fill:var(--ce)}}@keyframes cm{10.68%{fill:var(--c1)}10.7%,to{fill:var(--ce)}}@keyframes cn{13.73%{fill:var(--c1)}13.75%,to{fill:var(--ce)}}@keyframes co{53.68%{fill:var(--c2)}53.7%,to{fill:var(--ce)}}@keyframes cp{15.26%{fill:var(--c1)}15.28%,to{fill:var(--ce)}}@keyframes cq{15%{fill:var(--c1)}15.02%,to{fill:var(--ce)}}@keyframes cr{54.95%{fill:var(--c2)}54.97%,to{fill:var(--ce)}}@keyframes cs{17.55%{fill:var(--c1)}17.57%,to{fill:var(--ce)}}@keyframes ct{17.8%{fill:var(--c1)}17.82%,to{fill:var(--ce)}}@keyframes cu{16.53%{fill:var(--c1)}16.55%,to{fill:var(--ce)}}@keyframes cv{19.58%{fill:var(--c1)}19.6%,to{fill:var(--ce)}}@keyframes cw{35.87%{fill:var(--c1)}35.89%,to{fill:var(--ce)}}@keyframes cx{19.84%{fill:var(--c1)}19.86%,to{fill:var(--ce)}}@keyframes cy{20.09%{fill:var(--c1)}20.11%,to{fill:var(--ce)}}@keyframes cz{20.35%{fill:var(--c1)}20.37%,to{fill:var(--ce)}}@keyframes c10{36.38%{fill:var(--c1)}36.4%,to{fill:var(--ce)}}@keyframes c11{81.41%{fill:var(--c4)}81.43%,to{fill:var(--ce)}}@keyframes c12{35.36%{fill:var(--c1)}35.38%,to{fill:var(--ce)}}@keyframes c13{59.53%{fill:var(--c2)}59.55%,to{fill:var(--ce)}}@keyframes c14{32.56%{fill:var(--c1)}32.58%,to{fill:var(--ce)}}@keyframes c15{33.83%{fill:var(--c1)}33.85%,to{fill:var(--ce)}}@keyframes c16{21.36%{fill:var(--c1)}21.38%,to{fill:var(--ce)}}@keyframes c17{59.79%{fill:var(--c2)}59.81%,to{fill:var(--ce)}}@keyframes c18{32.05%{fill:var(--c1)}32.07%,to{fill:var(--ce)}}@keyframes c19{33.07%{fill:var(--c1)}33.09%,to{fill:var(--ce)}}@keyframes c1a{21.87%{fill:var(--c1)}21.89%,to{fill:var(--ce)}}@keyframes c1b{21.62%{fill:var(--c1)}21.64%,to{fill:var(--ce)}}@keyframes c1c{31.8%{fill:var(--c1)}31.82%,to{fill:var(--ce)}}@keyframes c1d{31.54%{fill:var(--c1)}31.56%,to{fill:var(--ce)}}@keyframes c1e{31.29%{fill:var(--c1)}31.31%,to{fill:var(--ce)}}@keyframes c1f{22.13%{fill:var(--c1)}22.15%,to{fill:var(--ce)}}@keyframes c1g{60.3%{fill:var(--c2)}60.32%,to{fill:var(--ce)}}@keyframes c1h{23.91%{fill:var(--c1)}23.93%,to{fill:var(--ce)}}@keyframes c1i{23.65%{fill:var(--c1)}23.67%,to{fill:var(--ce)}}@keyframes c1j{23.4%{fill:var(--c1)}23.42%,to{fill:var(--ce)}}@keyframes c1k{60.55%{fill:var(--c2)}60.57%,to{fill:var(--ce)}}@keyframes c1l{61.06%{fill:var(--c2)}61.08%,to{fill:var(--ce)}}@keyframes c1m{23.15%{fill:var(--c1)}23.17%,to{fill:var(--ce)}}@keyframes c1n{22.64%{fill:var(--c1)}22.66%,to{fill:var(--ce)}}@keyframes c1o{24.67%{fill:var(--c1)}24.69%,to{fill:var(--ce)}}@keyframes c1p{24.42%{fill:var(--c1)}24.44%,to{fill:var(--ce)}}@keyframes c1q{30.27%{fill:var(--c1)}30.29%,to{fill:var(--ce)}}@keyframes c1r{29.51%{fill:var(--c1)}29.53%,to{fill:var(--ce)}}@keyframes c1s{25.69%{fill:var(--c1)}25.71%,to{fill:var(--ce)}}@keyframes c1t{25.94%{fill:var(--c1)}25.96%,to{fill:var(--ce)}}@keyframes c1u{28.49%{fill:var(--c1)}28.51%,to{fill:var(--ce)}}@keyframes c1v{29%{fill:var(--c1)}29.02%,to{fill:var(--ce)}}@keyframes c1w{62.84%{fill:var(--c2)}62.86%,to{fill:var(--ce)}}@keyframes c1x{85.49%{fill:var(--c4)}85.51%,to{fill:var(--ce)}}@keyframes c1y{26.71%{fill:var(--c1)}26.73%,to{fill:var(--ce)}}@keyframes c1z{26.45%{fill:var(--c1)}26.47%,to{fill:var(--ce)}}@keyframes c20{27.73%{fill:var(--c1)}27.75%,to{fill:var(--ce)}}@keyframes c21{63.09%{fill:var(--c2)}63.11%,to{fill:var(--ce)}}@keyframes c22{41.47%{fill:var(--c1)}41.49%,to{fill:var(--ce)}}@keyframes u0{2.79%{transform:scale(0,1)}2.81%,3.04%{transform:scale(.02,1)}3.06%,3.3%{transform:scale(.03,1)}3.32%,3.55%{transform:scale(.05,1)}3.57%,3.81%{transform:scale(.06,1)}3.83%,5.08%{transform:scale(.08,1)}5.1%,6.1%{transform:scale(.1,1)}6.12%,6.35%{transform:scale(.11,1)}6.37%,7.11%{transform:scale(.13,1)}7.13%,7.88%{transform:scale(.14,1)}7.9%,9.66%{transform:scale(.16,1)}10.17%,9.68%{transform:scale(.17,1)}10.19%,10.42%{transform:scale(.19,1)}10.44%,10.68%{transform:scale(.21,1)}10.7%,11.19%{transform:scale(.22,1)}11.21%,11.44%{transform:scale(.24,1)}11.46%,11.69%{transform:scale(.25,1)}11.71%,11.95%{transform:scale(.27,1)}11.97%,12.2%{transform:scale(.29,1)}12.22%,12.46%{transform:scale(.3,1)}12.48%,12.97%{transform:scale(.32,1)}12.99%,13.73%{transform:scale(.33,1)}13.75%,15%{transform:scale(.35,1)}15.02%,15.26%{transform:scale(.37,1)}15.28%,16.53%{transform:scale(.38,1)}16.55%,17.55%{transform:scale(.4,1)}17.57%,17.8%{transform:scale(.41,1)}17.82%,19.58%{transform:scale(.43,1)}19.6%,19.84%{transform:scale(.44,1)}19.86%,20.09%{transform:scale(.46,1)}20.11%,20.35%{transform:scale(.48,1)}20.37%,21.36%{transform:scale(.49,1)}21.38%,21.62%{transform:scale(.51,1)}21.64%,21.87%{transform:scale(.52,1)}21.89%,22.13%{transform:scale(.54,1)}22.15%,22.64%{transform:scale(.56,1)}22.66%,23.15%{transform:scale(.57,1)}23.17%,23.4%{transform:scale(.59,1)}23.42%,23.65%{transform:scale(.6,1)}23.67%,23.91%{transform:scale(.62,1)}23.93%,24.42%{transform:scale(.63,1)}24.44%,24.67%{transform:scale(.65,1)}24.69%,25.69%{transform:scale(.67,1)}25.71%,25.94%{transform:scale(.68,1)}25.96%,26.45%{transform:scale(.7,1)}26.47%,26.71%{transform:scale(.71,1)}26.73%,27.73%{transform:scale(.73,1)}27.75%,28.49%{transform:scale(.75,1)}28.51%,29%{transform:scale(.76,1)}29.02%,29.51%{transform:scale(.78,1)}29.53%,30.27%{transform:scale(.79,1)}30.29%,31.29%{transform:scale(.81,1)}31.31%,31.54%{transform:scale(.83,1)}31.56%,31.8%{transform:scale(.84,1)}31.82%,32.05%{transform:scale(.86,1)}32.07%,32.56%{transform:scale(.87,1)}32.58%,33.07%{transform:scale(.89,1)}33.09%,33.83%{transform:scale(.9,1)}33.85%,35.36%{transform:scale(.92,1)}35.38%,35.87%{transform:scale(.94,1)}35.89%,36.38%{transform:scale(.95,1)}36.4%,41.47%{transform:scale(.97,1)}41.49%,51.39%{transform:scale(.98,1)}51.41%,to{transform:scale(1,1)}}@keyframes u1{53.68%{transform:scale(0,1)}53.7%,54.95%{transform:scale(.1,1)}54.97%,59.53%{transform:scale(.2,1)}59.55%,59.79%{transform:scale(.3,1)}59.81%,60.3%{transform:scale(.4,1)}60.32%,60.55%{transform:scale(.5,1)}60.57%,61.06%{transform:scale(.6,1)}61.08%,62.84%{transform:scale(.7,1)}62.86%,63.09%{transform:scale(.8,1)}63.11%,74.04%{transform:scale(.9,1)}74.06%,to{transform:scale(1,1)}}@keyframes u2{81.41%{transform:scale(0,1)}81.43%,85.49%{transform:scale(.5,1)}85.51%,to{transform:scale(1,1)}}@keyframes s0{0%,99.75%{transform:translate(0,-16px)}.25%{transform:translate(0,0)}3.05%{transform:translate(176px,0)}3.31%{transform:translate(176px,16px)}4.07%,97.2%{transform:translate(128px,16px)}5.09%{transform:translate(128px,80px)}6.11%{transform:translate(192px,80px)}6.36%{transform:translate(192px,64px)}6.87%{transform:translate(224px,64px)}7.89%{transform:translate(224px,0)}10.18%{transform:translate(368px,0)}10.69%{transform:translate(368px,32px)}10.94%{transform:translate(352px,32px)}11.2%{transform:translate(352px,48px)}11.7%{transform:translate(320px,48px)}12.47%{transform:translate(320px,96px)}12.98%{transform:translate(352px,96px)}13.49%{transform:translate(352px,64px)}14.25%{transform:translate(400px,64px)}15.27%{transform:translate(400px,0)}16.54%{transform:translate(480px,0)}16.79%{transform:translate(480px,16px)}17.05%{transform:translate(464px,16px)}17.81%{transform:translate(464px,64px)}19.85%{transform:translate(592px,64px)}20.36%{transform:translate(592px,96px)}21.63%{transform:translate(672px,96px)}21.88%{transform:translate(672px,80px)}22.65%{transform:translate(720px,80px)}23.16%{transform:translate(720px,48px)}23.41%{transform:translate(704px,48px)}23.92%{transform:translate(704px,16px)}24.43%{transform:translate(736px,16px)}24.68%{transform:translate(736px,0)}25.45%{transform:translate(784px,0)}25.7%{transform:translate(784px,16px)}26.46%,27.48%{transform:translate(832px,16px)}26.72%{transform:translate(832px,0)}26.97%{transform:translate(848px,0)}27.23%,40.46%{transform:translate(848px,16px)}27.74%,63.36%{transform:translate(832px,32px)}28.24%{transform:translate(800px,32px)}29.01%{transform:translate(800px,80px)}29.52%{transform:translate(768px,80px)}30.03%{transform:translate(768px,48px)}31.3%{transform:translate(688px,48px)}31.81%{transform:translate(688px,16px)}32.32%{transform:translate(656px,16px)}32.57%{transform:translate(656px,32px)}32.82%{transform:translate(672px,32px)}33.08%{transform:translate(672px,48px)}33.33%{transform:translate(656px,48px)}33.84%,58.27%{transform:translate(656px,80px)}34.1%{transform:translate(640px,80px)}34.86%{transform:translate(640px,32px)}35.62%{transform:translate(592px,32px)}36.13%{transform:translate(592px,0)}36.9%{transform:translate(640px,0)}37.15%{transform:translate(640px,16px)}41.22%{transform:translate(848px,64px)}41.48%{transform:translate(832px,64px)}41.73%{transform:translate(832px,80px)}47.58%{transform:translate(464px,80px)}47.84%{transform:translate(464px,96px)}51.4%{transform:translate(240px,96px)}51.65%{transform:translate(240px,80px)}59.54%{transform:translate(656px,0)}60.56%{transform:translate(720px,0)}61.07%{transform:translate(720px,32px)}62.6%{transform:translate(816px,32px)}62.85%{transform:translate(816px,48px)}63.1%{transform:translate(832px,48px)}74.05%{transform:translate(160px,32px)}74.3%{transform:translate(160px,16px)}84.73%{transform:translate(816px,16px)}85.5%{transform:translate(816px,64px)}96.18%{transform:translate(144px,64px)}96.44%{transform:translate(144px,48px)}96.69%{transform:translate(128px,48px)}97.46%{transform:translate(112px,16px)}97.71%{transform:translate(112px,0)}98.22%{transform:translate(80px,0)}98.47%{transform:translate(80px,-16px)}}@keyframes s1{0%,99.75%{transform:translate(16px,-16px)}.25%{transform:translate(0,-16px)}.51%{transform:translate(0,0)}3.31%{transform:translate(176px,0)}3.56%{transform:translate(176px,16px)}4.33%,97.46%{transform:translate(128px,16px)}5.34%{transform:translate(128px,80px)}6.36%{transform:translate(192px,80px)}6.62%{transform:translate(192px,64px)}7.12%{transform:translate(224px,64px)}8.14%{transform:translate(224px,0)}10.43%{transform:translate(368px,0)}10.94%{transform:translate(368px,32px)}11.2%{transform:translate(352px,32px)}11.45%{transform:translate(352px,48px)}11.96%{transform:translate(320px,48px)}12.72%{transform:translate(320px,96px)}13.23%{transform:translate(352px,96px)}13.74%{transform:translate(352px,64px)}14.5%{transform:translate(400px,64px)}15.52%{transform:translate(400px,0)}16.79%{transform:translate(480px,0)}17.05%{transform:translate(480px,16px)}17.3%{transform:translate(464px,16px)}18.07%{transform:translate(464px,64px)}20.1%{transform:translate(592px,64px)}20.61%{transform:translate(592px,96px)}21.88%{transform:translate(672px,96px)}22.14%{transform:translate(672px,80px)}22.9%{transform:translate(720px,80px)}23.41%{transform:translate(720px,48px)}23.66%{transform:translate(704px,48px)}24.17%{transform:translate(704px,16px)}24.68%{transform:translate(736px,16px)}24.94%{transform:translate(736px,0)}25.7%{transform:translate(784px,0)}25.95%{transform:translate(784px,16px)}26.72%,27.74%{transform:translate(832px,16px)}26.97%{transform:translate(832px,0)}27.23%{transform:translate(848px,0)}27.48%,40.71%{transform:translate(848px,16px)}27.99%,63.61%{transform:translate(832px,32px)}28.5%{transform:translate(800px,32px)}29.26%{transform:translate(800px,80px)}29.77%{transform:translate(768px,80px)}30.28%{transform:translate(768px,48px)}31.55%{transform:translate(688px,48px)}32.06%{transform:translate(688px,16px)}32.57%{transform:translate(656px,16px)}32.82%{transform:translate(656px,32px)}33.08%{transform:translate(672px,32px)}33.33%{transform:translate(672px,48px)}33.59%{transform:translate(656px,48px)}34.1%,58.52%{transform:translate(656px,80px)}34.35%{transform:translate(640px,80px)}35.11%{transform:translate(640px,32px)}35.88%{transform:translate(592px,32px)}36.39%{transform:translate(592px,0)}37.15%{transform:translate(640px,0)}37.4%{transform:translate(640px,16px)}41.48%{transform:translate(848px,64px)}41.73%{transform:translate(832px,64px)}41.98%{transform:translate(832px,80px)}47.84%{transform:translate(464px,80px)}48.09%{transform:translate(464px,96px)}51.65%{transform:translate(240px,96px)}51.91%{transform:translate(240px,80px)}59.8%{transform:translate(656px,0)}60.81%{transform:translate(720px,0)}61.32%{transform:translate(720px,32px)}62.85%{transform:translate(816px,32px)}63.1%{transform:translate(816px,48px)}63.36%{transform:translate(832px,48px)}74.3%{transform:translate(160px,32px)}74.55%{transform:translate(160px,16px)}84.99%{transform:translate(816px,16px)}85.75%{transform:translate(816px,64px)}96.44%{transform:translate(144px,64px)}96.69%{transform:translate(144px,48px)}96.95%{transform:translate(128px,48px)}97.71%{transform:translate(112px,16px)}97.96%{transform:translate(112px,0)}98.47%{transform:translate(80px,0)}98.73%{transform:translate(80px,-16px)}}@keyframes s2{0%,99.75%{transform:translate(32px,-16px)}.51%{transform:translate(0,-16px)}.76%{transform:translate(0,0)}3.56%{transform:translate(176px,0)}3.82%{transform:translate(176px,16px)}4.58%,97.71%{transform:translate(128px,16px)}5.6%{transform:translate(128px,80px)}6.62%{transform:translate(192px,80px)}6.87%{transform:translate(192px,64px)}7.38%{transform:translate(224px,64px)}8.4%{transform:translate(224px,0)}10.69%{transform:translate(368px,0)}11.2%{transform:translate(368px,32px)}11.45%{transform:translate(352px,32px)}11.7%{transform:translate(352px,48px)}12.21%{transform:translate(320px,48px)}12.98%{transform:translate(320px,96px)}13.49%{transform:translate(352px,96px)}13.99%{transform:translate(352px,64px)}14.76%{transform:translate(400px,64px)}15.78%{transform:translate(400px,0)}17.05%{transform:translate(480px,0)}17.3%{transform:translate(480px,16px)}17.56%{transform:translate(464px,16px)}18.32%{transform:translate(464px,64px)}20.36%{transform:translate(592px,64px)}20.87%{transform:translate(592px,96px)}22.14%{transform:translate(672px,96px)}22.39%{transform:translate(672px,80px)}23.16%{transform:translate(720px,80px)}23.66%{transform:translate(720px,48px)}23.92%{transform:translate(704px,48px)}24.43%{transform:translate(704px,16px)}24.94%{transform:translate(736px,16px)}25.19%{transform:translate(736px,0)}25.95%{transform:translate(784px,0)}26.21%{transform:translate(784px,16px)}26.97%,27.99%{transform:translate(832px,16px)}27.23%{transform:translate(832px,0)}27.48%{transform:translate(848px,0)}27.74%,40.97%{transform:translate(848px,16px)}28.24%,63.87%{transform:translate(832px,32px)}28.75%{transform:translate(800px,32px)}29.52%{transform:translate(800px,80px)}30.03%{transform:translate(768px,80px)}30.53%{transform:translate(768px,48px)}31.81%{transform:translate(688px,48px)}32.32%{transform:translate(688px,16px)}32.82%{transform:translate(656px,16px)}33.08%{transform:translate(656px,32px)}33.33%{transform:translate(672px,32px)}33.59%{transform:translate(672px,48px)}33.84%{transform:translate(656px,48px)}34.35%,58.78%{transform:translate(656px,80px)}34.61%{transform:translate(640px,80px)}35.37%{transform:translate(640px,32px)}36.13%{transform:translate(592px,32px)}36.64%{transform:translate(592px,0)}37.4%{transform:translate(640px,0)}37.66%{transform:translate(640px,16px)}41.73%{transform:translate(848px,64px)}41.98%{transform:translate(832px,64px)}42.24%{transform:translate(832px,80px)}48.09%{transform:translate(464px,80px)}48.35%{transform:translate(464px,96px)}51.91%{transform:translate(240px,96px)}52.16%{transform:translate(240px,80px)}60.05%{transform:translate(656px,0)}61.07%{transform:translate(720px,0)}61.58%{transform:translate(720px,32px)}63.1%{transform:translate(816px,32px)}63.36%{transform:translate(816px,48px)}63.61%{transform:translate(832px,48px)}74.55%{transform:translate(160px,32px)}74.81%{transform:translate(160px,16px)}85.24%{transform:translate(816px,16px)}86.01%{transform:translate(816px,64px)}96.69%{transform:translate(144px,64px)}96.95%{transform:translate(144px,48px)}97.2%{transform:translate(128px,48px)}97.96%{transform:translate(112px,16px)}98.22%{transform:translate(112px,0)}98.73%{transform:translate(80px,0)}98.98%{transform:translate(80px,-16px)}}@keyframes s3{0%,99.75%{transform:translate(48px,-16px)}.76%{transform:translate(0,-16px)}1.02%{transform:translate(0,0)}3.82%{transform:translate(176px,0)}4.07%{transform:translate(176px,16px)}4.83%,97.96%{transform:translate(128px,16px)}5.85%{transform:translate(128px,80px)}6.87%{transform:translate(192px,80px)}7.12%{transform:translate(192px,64px)}7.63%{transform:translate(224px,64px)}8.65%{transform:translate(224px,0)}10.94%{transform:translate(368px,0)}11.45%{transform:translate(368px,32px)}11.7%{transform:translate(352px,32px)}11.96%{transform:translate(352px,48px)}12.47%{transform:translate(320px,48px)}13.23%{transform:translate(320px,96px)}13.74%{transform:translate(352px,96px)}14.25%{transform:translate(352px,64px)}15.01%{transform:translate(400px,64px)}16.03%{transform:translate(400px,0)}17.3%{transform:translate(480px,0)}17.56%{transform:translate(480px,16px)}17.81%{transform:translate(464px,16px)}18.58%{transform:translate(464px,64px)}20.61%{transform:translate(592px,64px)}21.12%{transform:translate(592px,96px)}22.39%{transform:translate(672px,96px)}22.65%{transform:translate(672px,80px)}23.41%{transform:translate(720px,80px)}23.92%{transform:translate(720px,48px)}24.17%{transform:translate(704px,48px)}24.68%{transform:translate(704px,16px)}25.19%{transform:translate(736px,16px)}25.45%{transform:translate(736px,0)}26.21%{transform:translate(784px,0)}26.46%{transform:translate(784px,16px)}27.23%,28.24%{transform:translate(832px,16px)}27.48%{transform:translate(832px,0)}27.74%{transform:translate(848px,0)}27.99%,41.22%{transform:translate(848px,16px)}28.5%,64.12%{transform:translate(832px,32px)}29.01%{transform:translate(800px,32px)}29.77%{transform:translate(800px,80px)}30.28%{transform:translate(768px,80px)}30.79%{transform:translate(768px,48px)}32.06%{transform:translate(688px,48px)}32.57%{transform:translate(688px,16px)}33.08%{transform:translate(656px,16px)}33.33%{transform:translate(656px,32px)}33.59%{transform:translate(672px,32px)}33.84%{transform:translate(672px,48px)}34.1%{transform:translate(656px,48px)}34.61%,59.03%{transform:translate(656px,80px)}34.86%{transform:translate(640px,80px)}35.62%{transform:translate(640px,32px)}36.39%{transform:translate(592px,32px)}36.9%{transform:translate(592px,0)}37.66%{transform:translate(640px,0)}37.91%{transform:translate(640px,16px)}41.98%{transform:translate(848px,64px)}42.24%{transform:translate(832px,64px)}42.49%{transform:translate(832px,80px)}48.35%{transform:translate(464px,80px)}48.6%{transform:translate(464px,96px)}52.16%{transform:translate(240px,96px)}52.42%{transform:translate(240px,80px)}60.31%{transform:translate(656px,0)}61.32%{transform:translate(720px,0)}61.83%{transform:translate(720px,32px)}63.36%{transform:translate(816px,32px)}63.61%{transform:translate(816px,48px)}63.87%{transform:translate(832px,48px)}74.81%{transform:translate(160px,32px)}75.06%{transform:translate(160px,16px)}85.5%{transform:translate(816px,16px)}86.26%{transform:translate(816px,64px)}96.95%{transform:translate(144px,64px)}97.2%{transform:translate(144px,48px)}97.46%{transform:translate(128px,48px)}98.22%{transform:translate(112px,16px)}98.47%{transform:translate(112px,0)}98.98%{transform:translate(80px,0)}99.24%{transform:translate(80px,-16px)}}:root{--cb:#1b1f230a;--cs:purple;--ce:#ebedf0;--c0:#ebedf0;--c1:#9be9a8;--c2:#40c463;--c3:#30a14e;--c4:#216e39}@media (prefers-color-scheme:dark){:root{--cb:#1b1f230a;--cs:purple;--ce:#161b22;--c1:#01311f;--c2:#034525;--c3:#0f6d31;--c4:#00c647}}.c{shape-rendering:geometricPrecision;rx:2;ry:2;fill:var(--ce);stroke-width:1px;stroke:var(--cb);animation:none 39300ms linear infinite}.c.c0{fill:var(--c1);animation-name:c0}.c.c1,.c.c2,.c.c3{fill:var(--c1);animation-name:c1}.c.c2,.c.c3{animation-name:c2}.c.c3{animation-name:c3}.c.c4{fill:var(--c2);animation-name:c4}.c.c5{fill:var(--c1);animation-name:c5}.c.c6,.c.c7,.c.c8{fill:var(--c1);animation-name:c6}.c.c7,.c.c8{animation-name:c7}.c.c8{animation-name:c8}.c.c9,.c.ca,.c.cb{fill:var(--c1);animation-name:c9}.c.ca,.c.cb{animation-name:ca}.c.cb{animation-name:cb}.c.cc,.c.cd,.c.ce{fill:var(--c1);animation-name:cc}.c.cd,.c.ce{animation-name:cd}.c.ce{animation-name:ce}.c.cf,.c.cg,.c.ch{fill:var(--c1);animation-name:cf}.c.cg,.c.ch{animation-name:cg}.c.ch{animation-name:ch}.c.ci,.c.cj,.c.ck{fill:var(--c1);animation-name:ci}.c.cj,.c.ck{animation-name:cj}.c.ck{animation-name:ck}.c.cl,.c.cm,.c.cn{fill:var(--c1);animation-name:cl}.c.cm,.c.cn{animation-name:cm}.c.cn{animation-name:cn}.c.co{fill:var(--c2);animation-name:co}.c.cp,.c.cq{fill:var(--c1);animation-name:cp}.c.cq{animation-name:cq}.c.cr{fill:var(--c2);animation-name:cr}.c.cs,.c.ct,.c.cu{fill:var(--c1);animation-name:cs}.c.ct,.c.cu{animation-name:ct}.c.cu{animation-name:cu}.c.cv,.c.cw,.c.cx{fill:var(--c1);animation-name:cv}.c.cw,.c.cx{animation-name:cw}.c.cx{animation-name:cx}.c.c10,.c.cy,.c.cz{fill:var(--c1);animation-name:cy}.c.c10,.c.cz{animation-name:cz}.c.c10{animation-name:c10}.c.c11{fill:var(--c4);animation-name:c11}.c.c12{fill:var(--c1);animation-name:c12}.c.c13{fill:var(--c2);animation-name:c13}.c.c14,.c.c15,.c.c16{fill:var(--c1);animation-name:c14}.c.c15,.c.c16{animation-name:c15}.c.c16{animation-name:c16}.c.c17{fill:var(--c2);animation-name:c17}.c.c18,.c.c19{fill:var(--c1);animation-name:c18}.c.c19{animation-name:c19}.c.c1a,.c.c1b,.c.c1c{fill:var(--c1);animation-name:c1a}.c.c1b,.c.c1c{animation-name:c1b}.c.c1c{animation-name:c1c}.c.c1d,.c.c1e,.c.c1f{fill:var(--c1);animation-name:c1d}.c.c1e,.c.c1f{animation-name:c1e}.c.c1f{animation-name:c1f}.c.c1g{fill:var(--c2);animation-name:c1g}.c.c1h,.c.c1i,.c.c1j{fill:var(--c1);animation-name:c1h}.c.c1i,.c.c1j{animation-name:c1i}.c.c1j{animation-name:c1j}.c.c1k,.c.c1l{fill:var(--c2);animation-name:c1k}.c.c1l{animation-name:c1l}.c.c1m{fill:var(--c1);animation-name:c1m}.c.c1n,.c.c1o,.c.c1p{fill:var(--c1);animation-name:c1n}.c.c1o,.c.c1p{animation-name:c1o}.c.c1p{animation-name:c1p}.c.c1q,.c.c1r,.c.c1s{fill:var(--c1);animation-name:c1q}.c.c1r,.c.c1s{animation-name:c1r}.c.c1s{animation-name:c1s}.c.c1t,.c.c1u,.c.c1v{fill:var(--c1);animation-name:c1t}.c.c1u,.c.c1v{animation-name:c1u}.c.c1v{animation-name:c1v}.c.c1w{fill:var(--c2);animation-name:c1w}.c.c1x{fill:var(--c4);animation-name:c1x}.c.c1y,.c.c1z,.c.c20{fill:var(--c1);animation-name:c1y}.c.c1z,.c.c20{animation-name:c1z}.c.c20{animation-name:c20}.c.c21{fill:var(--c2);animation-name:c21}.c.c22{fill:var(--c1);animation-name:c22}.s,.u{animation:none linear 39300ms infinite}.u,.u.u0{transform-origin:0 0}.u{transform:scale(0,1)}.u.u0{fill:var(--c1);animation-name:u0}.u.u1{fill:var(--c2);animation-name:u1;transform-origin:712.3px 0}.u.u2{fill:var(--c4);animation-name:u2;transform-origin:825.4px 0}.s{shape-rendering:geometricPrecision;fill:var(--cs)}.s.s0{transform:translate(0,-16px);animation-name:s0}.s.s1{transform:translate(16px,-16px);animation-name:s1}.s.s2{transform:translate(32px,-16px);animation-name:s2}.s.s3{transform:translate(48px,-16px);animation-name:s3}</style><rect class="c" x="2" y="2" width="12" height="12"/><rect class="c" x="2" y="18" width="12" height="12"/><rect class="c" x="2" y="34" width="12" height="12"/><rect class="c" x="2" y="50" width="12" height="12"/><rect class="c" x="2" y="66" width="12" height="12"/><rect class="c" x="2" y="82" width="12" height="12"/><rect class="c" x="2" y="98" width="12" height="12"/><rect class="c" x="18" y="2" width="12" height="12"/><rect class="c" x="18" y="18" width="12" height="12"/><rect class="c" x="18" y="34" width="12" height="12"/><rect class="c" x="18" y="50" width="12" height="12"/><rect class="c" x="18" y="66" width="12" height="12"/><rect class="c" x="18" y="82" width="12" height="12"/><rect class="c" x="18" y="98" width="12" height="12"/><rect class="c" x="34" y="2" width="12" height="12"/><rect class="c" x="34" y="18" width="12" height="12"/><rect class="c" x="34" y="34" width="12" height="12"/><rect class="c" x="34" y="50" width="12" height="12"/><rect class="c" x="34" y="66" width="12" height="12"/><rect class="c" x="34" y="82" width="12" height="12"/><rect class="c" x="34" y="98" width="12" height="12"/><rect class="c" x="50" y="2" width="12" height="12"/><rect class="c" x="50" y="18" width="12" height="12"/><rect class="c" x="50" y="34" width="12" height="12"/><rect class="c" x="50" y="50" width="12" height="12"/><rect class="c" x="50" y="66" width="12" height="12"/><rect class="c" x="50" y="82" width="12" height="12"/><rect class="c" x="50" y="98" width="12" height="12"/><rect class="c" x="66" y="2" width="12" height="12"/><rect class="c" x="66" y="18" width="12" height="12"/><rect class="c" x="66" y="34" width="12" height="12"/><rect class="c" x="66" y="50" width="12" height="12"/><rect class="c" x="66" y="66" width="12" height="12"/><rect class="c" x="66" y="82" width="12" height="12"/><rect class="c" x="66" y="98" width="12" height="12"/><rect class="c" x="82" y="2" width="12" height="12"/><rect class="c" x="82" y="18" width="12" height="12"/><rect class="c" x="82" y="34" width="12" height="12"/><rect class="c" x="82" y="50" width="12" height="12"/><rect class="c" x="82" y="66" width="12" height="12"/><rect class="c" x="82" y="82" width="12" height="12"/><rect class="c" x="82" y="98" width="12" height="12"/><rect class="c" x="98" y="2" width="12" height="12"/><rect class="c" x="98" y="18" width="12" height="12"/><rect class="c" x="98" y="34" width="12" height="12"/><rect class="c" x="98" y="50" width="12" height="12"/><rect class="c" x="98" y="66" width="12" height="12"/><rect class="c" x="98" y="82" width="12" height="12"/><rect class="c" x="98" y="98" width="12" height="12"/><rect class="c" x="114" y="2" width="12" height="12"/><rect class="c" x="114" y="18" width="12" height="12"/><rect class="c" x="114" y="34" width="12" height="12"/><rect class="c" x="114" y="50" width="12" height="12"/><rect class="c" x="114" y="66" width="12" height="12"/><rect class="c" x="114" y="82" width="12" height="12"/><rect class="c" x="114" y="98" width="12" height="12"/><rect class="c" x="130" y="2" width="12" height="12"/><rect class="c" x="130" y="18" width="12" height="12"/><rect class="c" x="130" y="34" width="12" height="12"/><rect class="c" x="130" y="50" width="12" height="12"/><rect class="c" x="130" y="66" width="12" height="12"/><rect class="c c0" x="130" y="82" width="12" height="12"/><rect class="c" x="130" y="98" width="12" height="12"/><rect class="c" x="146" y="2" width="12" height="12"/><rect class="c c1" x="146" y="18" width="12" height="12"/><rect class="c" x="146" y="34" width="12" height="12"/><rect class="c" x="146" y="50" width="12" height="12"/><rect class="c" x="146" y="66" width="12" height="12"/><rect class="c" x="146" y="82" width="12" height="12"/><rect class="c" x="146" y="98" width="12" height="12"/><rect class="c c2" x="162" y="2" width="12" height="12"/><rect class="c c3" x="162" y="18" width="12" height="12"/><rect class="c c4" x="162" y="34" width="12" height="12"/><rect class="c" x="162" y="50" width="12" height="12"/><rect class="c" x="162" y="66" width="12" height="12"/><rect class="c" x="162" y="82" width="12" height="12"/><rect class="c" x="162" y="98" width="12" height="12"/><rect class="c c5" x="178" y="2" width="12" height="12"/><rect class="c c6" x="178" y="18" width="12" height="12"/><rect class="c" x="178" y="34" width="12" height="12"/><rect class="c" x="178" y="50" width="12" height="12"/><rect class="c" x="178" y="66" width="12" height="12"/><rect class="c" x="178" y="82" width="12" height="12"/><rect class="c" x="178" y="98" width="12" height="12"/><rect class="c" x="194" y="2" width="12" height="12"/><rect class="c" x="194" y="18" width="12" height="12"/><rect class="c" x="194" y="34" width="12" height="12"/><rect class="c" x="194" y="50" width="12" height="12"/><rect class="c c7" x="194" y="66" width="12" height="12"/><rect class="c c8" x="194" y="82" width="12" height="12"/><rect class="c" x="194" y="98" width="12" height="12"/><rect class="c" x="210" y="2" width="12" height="12"/><rect class="c" x="210" y="18" width="12" height="12"/><rect class="c" x="210" y="34" width="12" height="12"/><rect class="c" x="210" y="50" width="12" height="12"/><rect class="c" x="210" y="66" width="12" height="12"/><rect class="c" x="210" y="82" width="12" height="12"/><rect class="c" x="210" y="98" width="12" height="12"/><rect class="c c9" x="226" y="2" width="12" height="12"/><rect class="c" x="226" y="18" width="12" height="12"/><rect class="c" x="226" y="34" width="12" height="12"/><rect class="c ca" x="226" y="50" width="12" height="12"/><rect class="c" x="226" y="66" width="12" height="12"/><rect class="c" x="226" y="82" width="12" height="12"/><rect class="c" x="226" y="98" width="12" height="12"/><rect class="c" x="242" y="2" width="12" height="12"/><rect class="c" x="242" y="18" width="12" height="12"/><rect class="c" x="242" y="34" width="12" height="12"/><rect class="c" x="242" y="50" width="12" height="12"/><rect class="c" x="242" y="66" width="12" height="12"/><rect class="c" x="242" y="82" width="12" height="12"/><rect class="c cb" x="242" y="98" width="12" height="12"/><rect class="c" x="258" y="2" width="12" height="12"/><rect class="c" x="258" y="18" width="12" height="12"/><rect class="c" x="258" y="34" width="12" height="12"/><rect class="c" x="258" y="50" width="12" height="12"/><rect class="c" x="258" y="66" width="12" height="12"/><rect class="c" x="258" y="82" width="12" height="12"/><rect class="c" x="258" y="98" width="12" height="12"/><rect class="c" x="274" y="2" width="12" height="12"/><rect class="c" x="274" y="18" width="12" height="12"/><rect class="c" x="274" y="34" width="12" height="12"/><rect class="c" x="274" y="50" width="12" height="12"/><rect class="c" x="274" y="66" width="12" height="12"/><rect class="c" x="274" y="82" width="12" height="12"/><rect class="c" x="274" y="98" width="12" height="12"/><rect class="c" x="290" y="2" width="12" height="12"/><rect class="c" x="290" y="18" width="12" height="12"/><rect class="c" x="290" y="34" width="12" height="12"/><rect class="c" x="290" y="50" width="12" height="12"/><rect class="c" x="290" y="66" width="12" height="12"/><rect class="c" x="290" y="82" width="12" height="12"/><rect class="c" x="290" y="98" width="12" height="12"/><rect class="c" x="306" y="2" width="12" height="12"/><rect class="c" x="306" y="18" width="12" height="12"/><rect class="c" x="306" y="34" width="12" height="12"/><rect class="c" x="306" y="50" width="12" height="12"/><rect class="c" x="306" y="66" width="12" height="12"/><rect class="c" x="306" y="82" width="12" height="12"/><rect class="c" x="306" y="98" width="12" height="12"/><rect class="c" x="322" y="2" width="12" height="12"/><rect class="c" x="322" y="18" width="12" height="12"/><rect class="c" x="322" y="34" width="12" height="12"/><rect class="c cc" x="322" y="50" width="12" height="12"/><rect class="c cd" x="322" y="66" width="12" height="12"/><rect class="c ce" x="322" y="82" width="12" height="12"/><rect class="c cf" x="322" y="98" width="12" height="12"/><rect class="c cg" x="338" y="2" width="12" height="12"/><rect class="c" x="338" y="18" width="12" height="12"/><rect class="c" x="338" y="34" width="12" height="12"/><rect class="c ch" x="338" y="50" width="12" height="12"/><rect class="c" x="338" y="66" width="12" height="12"/><rect class="c" x="338" y="82" width="12" height="12"/><rect class="c" x="338" y="98" width="12" height="12"/><rect class="c" x="354" y="2" width="12" height="12"/><rect class="c" x="354" y="18" width="12" height="12"/><rect class="c" x="354" y="34" width="12" height="12"/><rect class="c ci" x="354" y="50" width="12" height="12"/><rect class="c" x="354" y="66" width="12" height="12"/><rect class="c" x="354" y="82" width="12" height="12"/><rect class="c cj" x="354" y="98" width="12" height="12"/><rect class="c ck" x="370" y="2" width="12" height="12"/><rect class="c cl" x="370" y="18" width="12" height="12"/><rect class="c cm" x="370" y="34" width="12" height="12"/><rect class="c" x="370" y="50" width="12" height="12"/><rect class="c cn" x="370" y="66" width="12" height="12"/><rect class="c co" x="370" y="82" width="12" height="12"/><rect class="c" x="370" y="98" width="12" height="12"/><rect class="c" x="386" y="2" width="12" height="12"/><rect class="c" x="386" y="18" width="12" height="12"/><rect class="c" x="386" y="34" width="12" height="12"/><rect class="c" x="386" y="50" width="12" height="12"/><rect class="c" x="386" y="66" width="12" height="12"/><rect class="c" x="386" y="82" width="12" height="12"/><rect class="c" x="386" y="98" width="12" height="12"/><rect class="c cp" x="402" y="2" width="12" height="12"/><rect class="c cq" x="402" y="18" width="12" height="12"/><rect class="c" x="402" y="34" width="12" height="12"/><rect class="c" x="402" y="50" width="12" height="12"/><rect class="c" x="402" y="66" width="12" height="12"/><rect class="c" x="402" y="82" width="12" height="12"/><rect class="c" x="402" y="98" width="12" height="12"/><rect class="c" x="418" y="2" width="12" height="12"/><rect class="c" x="418" y="18" width="12" height="12"/><rect class="c" x="418" y="34" width="12" height="12"/><rect class="c" x="418" y="50" width="12" height="12"/><rect class="c" x="418" y="66" width="12" height="12"/><rect class="c" x="418" y="82" width="12" height="12"/><rect class="c" x="418" y="98" width="12" height="12"/><rect class="c" x="434" y="2" width="12" height="12"/><rect class="c" x="434" y="18" width="12" height="12"/><rect class="c" x="434" y="34" width="12" height="12"/><rect class="c" x="434" y="50" width="12" height="12"/><rect class="c" x="434" y="66" width="12" height="12"/><rect class="c" x="434" y="82" width="12" height="12"/><rect class="c" x="434" y="98" width="12" height="12"/><rect class="c" x="450" y="2" width="12" height="12"/><rect class="c" x="450" y="18" width="12" height="12"/><rect class="c" x="450" y="34" width="12" height="12"/><rect class="c" x="450" y="50" width="12" height="12"/><rect class="c" x="450" y="66" width="12" height="12"/><rect class="c cr" x="450" y="82" width="12" height="12"/><rect class="c" x="450" y="98" width="12" height="12"/><rect class="c" x="466" y="2" width="12" height="12"/><rect class="c" x="466" y="18" width="12" height="12"/><rect class="c" x="466" y="34" width="12" height="12"/><rect class="c cs" x="466" y="50" width="12" height="12"/><rect class="c ct" x="466" y="66" width="12" height="12"/><rect class="c" x="466" y="82" width="12" height="12"/><rect class="c" x="466" y="98" width="12" height="12"/><rect class="c cu" x="482" y="2" width="12" height="12"/><rect class="c" x="482" y="18" width="12" height="12"/><rect class="c" x="482" y="34" width="12" height="12"/><rect class="c" x="482" y="50" width="12" height="12"/><rect class="c" x="482" y="66" width="12" height="12"/><rect class="c" x="482" y="82" width="12" height="12"/><rect class="c" x="482" y="98" width="12" height="12"/><rect class="c" x="498" y="2" width="12" height="12"/><rect class="c" x="498" y="18" width="12" height="12"/><rect class="c" x="498" y="34" width="12" height="12"/><rect class="c" x="498" y="50" width="12" height="12"/><rect class="c" x="498" y="66" width="12" height="12"/><rect class="c" x="498" y="82" width="12" height="12"/><rect class="c" x="498" y="98" width="12" height="12"/><rect class="c" x="514" y="2" width="12" height="12"/><rect class="c" x="514" y="18" width="12" height="12"/><rect class="c" x="514" y="34" width="12" height="12"/><rect class="c" x="514" y="50" width="12" height="12"/><rect class="c" x="514" y="66" width="12" height="12"/><rect class="c" x="514" y="82" width="12" height="12"/><rect class="c" x="514" y="98" width="12" height="12"/><rect class="c" x="530" y="2" width="12" height="12"/><rect class="c" x="530" y="18" width="12" height="12"/><rect class="c" x="530" y="34" width="12" height="12"/><rect class="c" x="530" y="50" width="12" height="12"/><rect class="c" x="530" y="66" width="12" height="12"/><rect class="c" x="530" y="82" width="12" height="12"/><rect class="c" x="530" y="98" width="12" height="12"/><rect class="c" x="546" y="2" width="12" height="12"/><rect class="c" x="546" y="18" width="12" height="12"/><rect class="c" x="546" y="34" width="12" height="12"/><rect class="c" x="546" y="50" width="12" height="12"/><rect class="c" x="546" y="66" width="12" height="12"/><rect class="c" x="546" y="82" width="12" height="12"/><rect class="c" x="546" y="98" width="12" height="12"/><rect class="c" x="562" y="2" width="12" height="12"/><rect class="c" x="562" y="18" width="12" height="12"/><rect class="c" x="562" y="34" width="12" height="12"/><rect class="c" x="562" y="50" width="12" height="12"/><rect class="c" x="562" y="66" width="12" height="12"/><rect class="c" x="562" y="82" width="12" height="12"/><rect class="c" x="562" y="98" width="12" height="12"/><rect class="c" x="578" y="2" width="12" height="12"/><rect class="c" x="578" y="18" width="12" height="12"/><rect class="c" x="578" y="34" width="12" height="12"/><rect class="c" x="578" y="50" width="12" height="12"/><rect class="c cv" x="578" y="66" width="12" height="12"/><rect class="c" x="578" y="82" width="12" height="12"/><rect class="c" x="578" y="98" width="12" height="12"/><rect class="c" x="594" y="2" width="12" height="12"/><rect class="c cw" x="594" y="18" width="12" height="12"/><rect class="c" x="594" y="34" width="12" height="12"/><rect class="c" x="594" y="50" width="12" height="12"/><rect class="c cx" x="594" y="66" width="12" height="12"/><rect class="c cy" x="594" y="82" width="12" height="12"/><rect class="c cz" x="594" y="98" width="12" height="12"/><rect class="c c10" x="610" y="2" width="12" height="12"/><rect class="c c11" x="610" y="18" width="12" height="12"/><rect class="c c12" x="610" y="34" width="12" height="12"/><rect class="c" x="610" y="50" width="12" height="12"/><rect class="c" x="610" y="66" width="12" height="12"/><rect class="c" x="610" y="82" width="12" height="12"/><rect class="c" x="610" y="98" width="12" height="12"/><rect class="c" x="626" y="2" width="12" height="12"/><rect class="c" x="626" y="18" width="12" height="12"/><rect class="c" x="626" y="34" width="12" height="12"/><rect class="c" x="626" y="50" width="12" height="12"/><rect class="c" x="626" y="66" width="12" height="12"/><rect class="c" x="626" y="82" width="12" height="12"/><rect class="c" x="626" y="98" width="12" height="12"/><rect class="c" x="642" y="2" width="12" height="12"/><rect class="c" x="642" y="18" width="12" height="12"/><rect class="c" x="642" y="34" width="12" height="12"/><rect class="c" x="642" y="50" width="12" height="12"/><rect class="c" x="642" y="66" width="12" height="12"/><rect class="c" x="642" y="82" width="12" height="12"/><rect class="c" x="642" y="98" width="12" height="12"/><rect class="c c13" x="658" y="2" width="12" height="12"/><rect class="c" x="658" y="18" width="12" height="12"/><rect class="c c14" x="658" y="34" width="12" height="12"/><rect class="c" x="658" y="50" width="12" height="12"/><rect class="c" x="658" y="66" width="12" height="12"/><rect class="c c15" x="658" y="82" width="12" height="12"/><rect class="c c16" x="658" y="98" width="12" height="12"/><rect class="c c17" x="674" y="2" width="12" height="12"/><rect class="c c18" x="674" y="18" width="12" height="12"/><rect class="c" x="674" y="34" width="12" height="12"/><rect class="c c19" x="674" y="50" width="12" height="12"/><rect class="c" x="674" y="66" width="12" height="12"/><rect class="c c1a" x="674" y="82" width="12" height="12"/><rect class="c c1b" x="674" y="98" width="12" height="12"/><rect class="c" x="690" y="2" width="12" height="12"/><rect class="c c1c" x="690" y="18" width="12" height="12"/><rect class="c c1d" x="690" y="34" width="12" height="12"/><rect class="c c1e" x="690" y="50" width="12" height="12"/><rect class="c" x="690" y="66" width="12" height="12"/><rect class="c c1f" x="690" y="82" width="12" height="12"/><rect class="c" x="690" y="98" width="12" height="12"/><rect class="c c1g" x="706" y="2" width="12" height="12"/><rect class="c c1h" x="706" y="18" width="12" height="12"/><rect class="c c1i" x="706" y="34" width="12" height="12"/><rect class="c c1j" x="706" y="50" width="12" height="12"/><rect class="c" x="706" y="66" width="12" height="12"/><rect class="c" x="706" y="82" width="12" height="12"/><rect class="c" x="706" y="98" width="12" height="12"/><rect class="c c1k" x="722" y="2" width="12" height="12"/><rect class="c" x="722" y="18" width="12" height="12"/><rect class="c c1l" x="722" y="34" width="12" height="12"/><rect class="c c1m" x="722" y="50" width="12" height="12"/><rect class="c" x="722" y="66" width="12" height="12"/><rect class="c c1n" x="722" y="82" width="12" height="12"/><rect class="c" x="722" y="98" width="12" height="12"/><rect class="c c1o" x="738" y="2" width="12" height="12"/><rect class="c c1p" x="738" y="18" width="12" height="12"/><rect class="c" x="738" y="34" width="12" height="12"/><rect class="c" x="738" y="50" width="12" height="12"/><rect class="c" x="738" y="66" width="12" height="12"/><rect class="c" x="738" y="82" width="12" height="12"/><rect class="c" x="738" y="98" width="12" height="12"/><rect class="c" x="754" y="2" width="12" height="12"/><rect class="c" x="754" y="18" width="12" height="12"/><rect class="c" x="754" y="34" width="12" height="12"/><rect class="c c1q" x="754" y="50" width="12" height="12"/><rect class="c" x="754" y="66" width="12" height="12"/><rect class="c" x="754" y="82" width="12" height="12"/><rect class="c" x="754" y="98" width="12" height="12"/><rect class="c" x="770" y="2" width="12" height="12"/><rect class="c" x="770" y="18" width="12" height="12"/><rect class="c" x="770" y="34" width="12" height="12"/><rect class="c" x="770" y="50" width="12" height="12"/><rect class="c" x="770" y="66" width="12" height="12"/><rect class="c c1r" x="770" y="82" width="12" height="12"/><rect class="c" x="770" y="98" width="12" height="12"/><rect class="c" x="786" y="2" width="12" height="12"/><rect class="c c1s" x="786" y="18" width="12" height="12"/><rect class="c" x="786" y="34" width="12" height="12"/><rect class="c" x="786" y="50" width="12" height="12"/><rect class="c" x="786" y="66" width="12" height="12"/><rect class="c" x="786" y="82" width="12" height="12"/><rect class="c" x="786" y="98" width="12" height="12"/><rect class="c" x="802" y="2" width="12" height="12"/><rect class="c c1t" x="802" y="18" width="12" height="12"/><rect class="c" x="802" y="34" width="12" height="12"/><rect class="c c1u" x="802" y="50" width="12" height="12"/><rect class="c" x="802" y="66" width="12" height="12"/><rect class="c c1v" x="802" y="82" width="12" height="12"/><rect class="c" x="802" y="98" width="12" height="12"/><rect class="c" x="818" y="2" width="12" height="12"/><rect class="c" x="818" y="18" width="12" height="12"/><rect class="c" x="818" y="34" width="12" height="12"/><rect class="c c1w" x="818" y="50" width="12" height="12"/><rect class="c c1x" x="818" y="66" width="12" height="12"/><rect class="c" x="818" y="82" width="12" height="12"/><rect class="c" x="818" y="98" width="12" height="12"/><rect class="c c1y" x="834" y="2" width="12" height="12"/><rect class="c c1z" x="834" y="18" width="12" height="12"/><rect class="c c20" x="834" y="34" width="12" height="12"/><rect class="c c21" x="834" y="50" width="12" height="12"/><rect class="c c22" x="834" y="66" width="12" height="12"/><rect class="u u0" height="12" width="712.9" x="0.0" y="144"/><rect class="u u1" height="12" width="113.7" x="712.3" y="144"/><rect class="u u2" height="12" width="23.2" x="825.4" y="144"/><rect class="s s0" x="0.8" y="0.8" width="14.4" height="14.4" rx="4.5" ry="4.5"/><rect class="s s1" x="1.8" y="1.8" width="12.3" height="12.3" rx="4.1" ry="4.1"/><rect class="s s2" x="2.6" y="2.6" width="10.8" height="10.8" rx="3.6" ry="3.6"/><rect class="s s3" x="3.0" y="3.0" width="9.9" height="9.9" rx="3.3" ry="3.3"/></svg>