<svg viewBox="-16 -32 880 192" width="880" height="192" xmlns="http://www.w3.org/2000/svg"><desc>Generated with https://github.com/Platane/snk</desc><style>@keyframes c0{66.12%{fill:var(--c3)}66.14%,to{fill:var(--ce)}}@keyframes c1{3.18%{fill:var(--c1)}3.2%,to{fill:var(--ce)}}@keyframes c2{61.65%{fill:var(--c2)}61.67%,to{fill:var(--ce)}}@keyframes c3{4.78%{fill:var(--c1)}4.8%,to{fill:var(--ce)}}@keyframes c4{5.1%{fill:var(--c1)}5.12%,to{fill:var(--ce)}}@keyframes c5{5.42%{fill:var(--c1)}5.44%,to{fill:var(--ce)}}@keyframes c6{1.27%{fill:var(--c1)}1.29%,to{fill:var(--ce)}}@keyframes c7{2.55%{fill:var(--c1)}2.57%,to{fill:var(--ce)}}@keyframes c8{1.91%{fill:var(--c1)}1.93%,to{fill:var(--ce)}}@keyframes c9{14.37%{fill:var(--c1)}14.39%,to{fill:var(--ce)}}@keyframes ca{63.25%{fill:var(--c2)}63.27%,to{fill:var(--ce)}}@keyframes cb{6.06%{fill:var(--c1)}6.08%,to{fill:var(--ce)}}@keyframes cc{65.17%{fill:var(--c3)}65.19%,to{fill:var(--ce)}}@keyframes cd{60.37%{fill:var(--c2)}60.39%,to{fill:var(--ce)}}@keyframes ce{12.45%{fill:var(--c1)}12.47%,to{fill:var(--ce)}}@keyframes cf{59.41%{fill:var(--c2)}59.43%,to{fill:var(--ce)}}@keyframes cg{13.73%{fill:var(--c1)}13.75%,to{fill:var(--ce)}}@keyframes ch{11.81%{fill:var(--c1)}11.83%,to{fill:var(--ce)}}@keyframes ci{7.02%{fill:var(--c1)}7.04%,to{fill:var(--ce)}}@keyframes cj{11.17%{fill:var(--c1)}11.19%,to{fill:var(--ce)}}@keyframes ck{10.85%{fill:var(--c1)}10.87%,to{fill:var(--ce)}}@keyframes cl{7.34%{fill:var(--c1)}7.36%,to{fill:var(--ce)}}@keyframes cm{9.89%{fill:var(--c1)}9.91%,to{fill:var(--ce)}}@keyframes cn{57.5%{fill:var(--c2)}57.52%,to{fill:var(--ce)}}@keyframes co{8.3%{fill:var(--c1)}8.32%,to{fill:var(--ce)}}@keyframes cp{8.62%{fill:var(--c1)}8.64%,to{fill:var(--ce)}}@keyframes cq{18.52%{fill:var(--c1)}18.54%,to{fill:var(--ce)}}@keyframes cr{21.08%{fill:var(--c1)}21.1%,to{fill:var(--ce)}}@keyframes cs{54.94%{fill:var(--c2)}54.96%,to{fill:var(--ce)}}@keyframes ct{19.8%{fill:var(--c1)}19.82%,to{fill:var(--ce)}}@keyframes cu{20.76%{fill:var(--c1)}20.78%,to{fill:var(--ce)}}@keyframes cv{21.72%{fill:var(--c1)}21.74%,to{fill:var(--ce)}}@keyframes cw{25.87%{fill:var(--c1)}25.89%,to{fill:var(--ce)}}@keyframes cx{20.12%{fill:var(--c1)}20.14%,to{fill:var(--ce)}}@keyframes cy{20.44%{fill:var(--c1)}20.46%,to{fill:var(--ce)}}@keyframes cz{22.03%{fill:var(--c1)}22.05%,to{fill:var(--ce)}}@keyframes c10{73.47%{fill:var(--c3)}73.49%,to{fill:var(--ce)}}@keyframes c11{73.79%{fill:var(--c3)}73.81%,to{fill:var(--ce)}}@keyframes c12{71.87%{fill:var(--c3)}71.89%,to{fill:var(--ce)}}@keyframes c13{23.31%{fill:var(--c1)}23.33%,to{fill:var(--ce)}}@keyframes c14{53.03%{fill:var(--c2)}53.05%,to{fill:var(--ce)}}@keyframes c15{29.06%{fill:var(--c1)}29.08%,to{fill:var(--ce)}}@keyframes c16{29.7%{fill:var(--c1)}29.72%,to{fill:var(--ce)}}@keyframes c17{30.02%{fill:var(--c1)}30.04%,to{fill:var(--ce)}}@keyframes c18{48.23%{fill:var(--c2)}48.25%,to{fill:var(--ce)}}@keyframes c19{31.3%{fill:var(--c1)}31.32%,to{fill:var(--ce)}}@keyframes c1a{31.62%{fill:var(--c1)}31.64%,to{fill:var(--ce)}}@keyframes c1b{47.59%{fill:var(--c2)}47.61%,to{fill:var(--ce)}}@keyframes c1c{35.13%{fill:var(--c1)}35.15%,to{fill:var(--ce)}}@keyframes c1d{88.17%{fill:var(--c4)}88.19%,to{fill:var(--ce)}}@keyframes c1e{32.26%{fill:var(--c1)}32.28%,to{fill:var(--ce)}}@keyframes c1f{32.9%{fill:var(--c1)}32.92%,to{fill:var(--ce)}}@keyframes c1g{46%{fill:var(--c2)}46.02%,to{fill:var(--ce)}}@keyframes c1h{80.18%{fill:var(--c3)}80.2%,to{fill:var(--ce)}}@keyframes c1i{43.44%{fill:var(--c2)}43.46%,to{fill:var(--ce)}}@keyframes c1j{85.29%{fill:var(--c3)}85.31%,to{fill:var(--ce)}}@keyframes c1k{85.61%{fill:var(--c4)}85.63%,to{fill:var(--ce)}}@keyframes c1l{81.78%{fill:var(--c3)}81.8%,to{fill:var(--ce)}}@keyframes c1m{38.01%{fill:var(--c1)}38.03%,to{fill:var(--ce)}}@keyframes c1n{41.84%{fill:var(--c2)}41.86%,to{fill:var(--ce)}}@keyframes c1o{38.33%{fill:var(--c1)}38.35%,to{fill:var(--ce)}}@keyframes c1p{83.38%{fill:var(--c3)}83.4%,to{fill:var(--ce)}}@keyframes c1q{40.25%{fill:var(--c1)}40.27%,to{fill:var(--ce)}}@keyframes u0{1.27%{transform:scale(0,1)}1.29%,1.91%{transform:scale(.03,1)}1.93%,2.55%{transform:scale(.05,1)}2.57%,3.18%{transform:scale(.07,1)}3.2%,4.78%{transform:scale(.1,1)}4.8%,5.1%{transform:scale(.13,1)}5.12%,5.42%{transform:scale(.15,1)}5.44%,6.06%{transform:scale(.17,1)}6.08%,7.02%{transform:scale(.2,1)}7.04%,7.34%{transform:scale(.23,1)}7.36%,8.3%{transform:scale(.25,1)}8.32%,8.62%{transform:scale(.28,1)}8.64%,9.89%{transform:scale(.3,1)}10.85%,9.91%{transform:scale(.33,1)}10.87%,11.17%{transform:scale(.35,1)}11.19%,11.81%{transform:scale(.38,1)}11.83%,12.45%{transform:scale(.4,1)}12.47%,13.73%{transform:scale(.42,1)}13.75%,14.37%{transform:scale(.45,1)}14.39%,18.52%{transform:scale(.47,1)}18.54%,19.8%{transform:scale(.5,1)}19.82%,20.12%{transform:scale(.53,1)}20.14%,20.44%{transform:scale(.55,1)}20.46%,20.76%{transform:scale(.57,1)}20.78%,21.08%{transform:scale(.6,1)}21.1%,21.72%{transform:scale(.63,1)}21.74%,22.03%{transform:scale(.65,1)}22.05%,23.31%{transform:scale(.68,1)}23.33%,25.87%{transform:scale(.7,1)}25.89%,29.06%{transform:scale(.72,1)}29.08%,29.7%{transform:scale(.75,1)}29.72%,30.02%{transform:scale(.78,1)}30.04%,31.3%{transform:scale(.8,1)}31.32%,31.62%{transform:scale(.82,1)}31.64%,32.26%{transform:scale(.85,1)}32.28%,32.9%{transform:scale(.88,1)}32.92%,35.13%{transform:scale(.9,1)}35.15%,38.01%{transform:scale(.93,1)}38.03%,38.33%{transform:scale(.95,1)}38.35%,40.25%{transform:scale(.97,1)}40.27%,to{transform:scale(1,1)}}@keyframes u1{41.84%{transform:scale(0,1)}41.86%,43.44%{transform:scale(.08,1)}43.46%,46%{transform:scale(.17,1)}46.02%,47.59%{transform:scale(.25,1)}47.61%,48.23%{transform:scale(.33,1)}48.25%,53.03%{transform:scale(.42,1)}53.05%,54.94%{transform:scale(.5,1)}54.96%,57.5%{transform:scale(.58,1)}57.52%,59.41%{transform:scale(.67,1)}59.43%,60.37%{transform:scale(.75,1)}60.39%,61.65%{transform:scale(.83,1)}61.67%,63.25%{transform:scale(.92,1)}63.27%,to{transform:scale(1,1)}}@keyframes u2{65.17%{transform:scale(0,1)}65.19%,66.12%{transform:scale(.11,1)}66.14%,71.87%{transform:scale(.22,1)}71.89%,73.47%{transform:scale(.33,1)}73.49%,73.79%{transform:scale(.44,1)}73.81%,80.18%{transform:scale(.56,1)}80.2%,81.78%{transform:scale(.67,1)}81.8%,83.38%{transform:scale(.78,1)}83.4%,85.29%{transform:scale(.89,1)}85.31%,to{transform:scale(1,1)}}@keyframes u3{85.61%{transform:scale(0,1)}85.63%,88.17%{transform:scale(.5,1)}88.19%,to{transform:scale(1,1)}}@keyframes s0{0%,99.68%{transform:translate(0,-16px)}.32%{transform:translate(0,-32px)}.64%{transform:translate(16px,-32px)}1.6%,2.88%{transform:translate(16px,16px)}1.92%{transform:translate(32px,16px)}2.24%,62.3%{transform:translate(32px,32px)}2.56%{transform:translate(16px,32px)}3.51%{transform:translate(-16px,16px)}4.15%{transform:translate(-16px,48px)}4.47%{transform:translate(0,48px)}5.43%{transform:translate(0,96px)}8.63%{transform:translate(160px,96px)}9.27%{transform:translate(160px,64px)}9.9%{transform:translate(128px,64px)}10.22%{transform:translate(128px,48px)}10.86%{transform:translate(96px,48px)}11.5%{transform:translate(96px,16px)}12.14%{transform:translate(64px,16px)}12.46%,59.11%{transform:translate(64px,32px)}12.78%{transform:translate(80px,32px)}13.42%{transform:translate(80px,64px)}14.38%{transform:translate(32px,64px)}14.7%{transform:translate(32px,48px)}15.02%,59.74%,97.44%{transform:translate(48px,48px)}15.34%{transform:translate(48px,32px)}16.93%{transform:translate(128px,32px)}17.25%{transform:translate(128px,16px)}19.49%{transform:translate(240px,16px)}19.81%{transform:translate(240px,32px)}20.13%,25.24%,72.52%{transform:translate(256px,32px)}20.45%{transform:translate(256px,48px)}21.09%{transform:translate(224px,48px)}21.41%{transform:translate(224px,64px)}22.68%{transform:translate(288px,64px)}23.32%{transform:translate(288px,96px)}23.64%{transform:translate(272px,96px)}24.92%,72.2%{transform:translate(272px,32px)}25.88%{transform:translate(256px,0)}29.39%{transform:translate(432px,0)}30.03%{transform:translate(432px,32px)}31.31%{transform:translate(496px,32px)}31.95%{transform:translate(496px,64px)}32.27%{transform:translate(512px,64px)}32.91%{transform:translate(512px,96px)}33.23%{transform:translate(528px,96px)}34.82%{transform:translate(528px,16px)}35.14%,87.54%{transform:translate(512px,16px)}35.46%{transform:translate(512px,32px)}37.7%,42.17%{transform:translate(624px,32px)}38.02%{transform:translate(624px,16px)}39.62%{transform:translate(704px,16px)}40.26%{transform:translate(704px,48px)}41.85%{transform:translate(624px,48px)}42.81%{transform:translate(592px,32px)}43.45%{transform:translate(592px,0)}44.09%{transform:translate(560px,0)}46.01%{transform:translate(560px,96px)}46.33%{transform:translate(544px,96px)}46.65%{transform:translate(544px,80px)}47.92%{transform:translate(480px,80px)}48.24%{transform:translate(480px,96px)}48.56%{transform:translate(464px,96px)}49.84%{transform:translate(464px,32px)}53.04%{transform:translate(304px,32px)}53.67%{transform:translate(304px,0)}56.87%{transform:translate(144px,0)}57.51%{transform:translate(144px,32px)}59.42%{transform:translate(64px,48px)}60.38%{transform:translate(48px,16px)}61.34%,66.45%{transform:translate(0,16px)}61.66%{transform:translate(0,32px)}63.26%{transform:translate(32px,80px)}63.58%{transform:translate(48px,80px)}65.18%{transform:translate(48px,0)}66.13%{transform:translate(0,0)}71.88%{transform:translate(272px,16px)}73.8%{transform:translate(256px,96px)}80.83%{transform:translate(608px,96px)}81.79%{transform:translate(608px,48px)}83.07%{transform:translate(672px,48px)}84.03%{transform:translate(672px,0)}85.3%{transform:translate(608px,0)}85.62%{transform:translate(608px,16px)}88.18%{transform:translate(512px,48px)}98.72%{transform:translate(48px,-16px)}}@keyframes s1{0%,99.68%{transform:translate(16px,-16px)}.32%{transform:translate(0,-16px)}.64%{transform:translate(0,-32px)}.96%{transform:translate(16px,-32px)}1.92%,3.19%{transform:translate(16px,16px)}2.24%{transform:translate(32px,16px)}2.56%,62.62%{transform:translate(32px,32px)}2.88%{transform:translate(16px,32px)}3.83%{transform:translate(-16px,16px)}4.47%{transform:translate(-16px,48px)}4.79%{transform:translate(0,48px)}5.75%{transform:translate(0,96px)}8.95%{transform:translate(160px,96px)}9.58%{transform:translate(160px,64px)}10.22%{transform:translate(128px,64px)}10.54%{transform:translate(128px,48px)}11.18%{transform:translate(96px,48px)}11.82%{transform:translate(96px,16px)}12.46%{transform:translate(64px,16px)}12.78%,59.42%{transform:translate(64px,32px)}13.1%{transform:translate(80px,32px)}13.74%{transform:translate(80px,64px)}14.7%{transform:translate(32px,64px)}15.02%{transform:translate(32px,48px)}15.34%,60.06%,97.76%{transform:translate(48px,48px)}15.65%{transform:translate(48px,32px)}17.25%{transform:translate(128px,32px)}17.57%{transform:translate(128px,16px)}19.81%{transform:translate(240px,16px)}20.13%{transform:translate(240px,32px)}20.45%,25.56%,72.84%{transform:translate(256px,32px)}20.77%{transform:translate(256px,48px)}21.41%{transform:translate(224px,48px)}21.73%{transform:translate(224px,64px)}23%{transform:translate(288px,64px)}23.64%{transform:translate(288px,96px)}23.96%{transform:translate(272px,96px)}25.24%,72.52%{transform:translate(272px,32px)}26.2%{transform:translate(256px,0)}29.71%{transform:translate(432px,0)}30.35%{transform:translate(432px,32px)}31.63%{transform:translate(496px,32px)}32.27%{transform:translate(496px,64px)}32.59%{transform:translate(512px,64px)}33.23%{transform:translate(512px,96px)}33.55%{transform:translate(528px,96px)}35.14%{transform:translate(528px,16px)}35.46%,87.86%{transform:translate(512px,16px)}35.78%{transform:translate(512px,32px)}38.02%,42.49%{transform:translate(624px,32px)}38.34%{transform:translate(624px,16px)}39.94%{transform:translate(704px,16px)}40.58%{transform:translate(704px,48px)}42.17%{transform:translate(624px,48px)}43.13%{transform:translate(592px,32px)}43.77%{transform:translate(592px,0)}44.41%{transform:translate(560px,0)}46.33%{transform:translate(560px,96px)}46.65%{transform:translate(544px,96px)}46.96%{transform:translate(544px,80px)}48.24%{transform:translate(480px,80px)}48.56%{transform:translate(480px,96px)}48.88%{transform:translate(464px,96px)}50.16%{transform:translate(464px,32px)}53.35%{transform:translate(304px,32px)}53.99%{transform:translate(304px,0)}57.19%{transform:translate(144px,0)}57.83%{transform:translate(144px,32px)}59.74%{transform:translate(64px,48px)}60.7%{transform:translate(48px,16px)}61.66%,66.77%{transform:translate(0,16px)}61.98%{transform:translate(0,32px)}63.58%{transform:translate(32px,80px)}63.9%{transform:translate(48px,80px)}65.5%{transform:translate(48px,0)}66.45%{transform:translate(0,0)}72.2%{transform:translate(272px,16px)}74.12%{transform:translate(256px,96px)}81.15%{transform:translate(608px,96px)}82.11%{transform:translate(608px,48px)}83.39%{transform:translate(672px,48px)}84.35%{transform:translate(672px,0)}85.62%{transform:translate(608px,0)}85.94%{transform:translate(608px,16px)}88.5%{transform:translate(512px,48px)}99.04%{transform:translate(48px,-16px)}}@keyframes s2{0%,99.68%{transform:translate(32px,-16px)}.64%{transform:translate(0,-16px)}.96%{transform:translate(0,-32px)}1.28%{transform:translate(16px,-32px)}2.24%,3.51%{transform:translate(16px,16px)}2.56%{transform:translate(32px,16px)}2.88%,62.94%{transform:translate(32px,32px)}3.19%{transform:translate(16px,32px)}4.15%{transform:translate(-16px,16px)}4.79%{transform:translate(-16px,48px)}5.11%{transform:translate(0,48px)}6.07%{transform:translate(0,96px)}9.27%{transform:translate(160px,96px)}9.9%{transform:translate(160px,64px)}10.54%{transform:translate(128px,64px)}10.86%{transform:translate(128px,48px)}11.5%{transform:translate(96px,48px)}12.14%{transform:translate(96px,16px)}12.78%{transform:translate(64px,16px)}13.1%,59.74%{transform:translate(64px,32px)}13.42%{transform:translate(80px,32px)}14.06%{transform:translate(80px,64px)}15.02%{transform:translate(32px,64px)}15.34%{transform:translate(32px,48px)}15.65%,60.38%,98.08%{transform:translate(48px,48px)}15.97%{transform:translate(48px,32px)}17.57%{transform:translate(128px,32px)}17.89%{transform:translate(128px,16px)}20.13%{transform:translate(240px,16px)}20.45%{transform:translate(240px,32px)}20.77%,25.88%,73.16%{transform:translate(256px,32px)}21.09%{transform:translate(256px,48px)}21.73%{transform:translate(224px,48px)}22.04%{transform:translate(224px,64px)}23.32%{transform:translate(288px,64px)}23.96%{transform:translate(288px,96px)}24.28%{transform:translate(272px,96px)}25.56%,72.84%{transform:translate(272px,32px)}26.52%{transform:translate(256px,0)}30.03%{transform:translate(432px,0)}30.67%{transform:translate(432px,32px)}31.95%{transform:translate(496px,32px)}32.59%{transform:translate(496px,64px)}32.91%{transform:translate(512px,64px)}33.55%{transform:translate(512px,96px)}33.87%{transform:translate(528px,96px)}35.46%{transform:translate(528px,16px)}35.78%,88.18%{transform:translate(512px,16px)}36.1%{transform:translate(512px,32px)}38.34%,42.81%{transform:translate(624px,32px)}38.66%{transform:translate(624px,16px)}40.26%{transform:translate(704px,16px)}40.89%{transform:translate(704px,48px)}42.49%{transform:translate(624px,48px)}43.45%{transform:translate(592px,32px)}44.09%{transform:translate(592px,0)}44.73%{transform:translate(560px,0)}46.65%{transform:translate(560px,96px)}46.96%{transform:translate(544px,96px)}47.28%{transform:translate(544px,80px)}48.56%{transform:translate(480px,80px)}48.88%{transform:translate(480px,96px)}49.2%{transform:translate(464px,96px)}50.48%{transform:translate(464px,32px)}53.67%{transform:translate(304px,32px)}54.31%{transform:translate(304px,0)}57.51%{transform:translate(144px,0)}58.15%{transform:translate(144px,32px)}60.06%{transform:translate(64px,48px)}61.02%{transform:translate(48px,16px)}61.98%,67.09%{transform:translate(0,16px)}62.3%{transform:translate(0,32px)}63.9%{transform:translate(32px,80px)}64.22%{transform:translate(48px,80px)}65.81%{transform:translate(48px,0)}66.77%{transform:translate(0,0)}72.52%{transform:translate(272px,16px)}74.44%{transform:translate(256px,96px)}81.47%{transform:translate(608px,96px)}82.43%{transform:translate(608px,48px)}83.71%{transform:translate(672px,48px)}84.66%{transform:translate(672px,0)}85.94%{transform:translate(608px,0)}86.26%{transform:translate(608px,16px)}88.82%{transform:translate(512px,48px)}99.36%{transform:translate(48px,-16px)}}@keyframes s3{0%,99.68%{transform:translate(48px,-16px)}.96%{transform:translate(0,-16px)}1.28%{transform:translate(0,-32px)}1.6%{transform:translate(16px,-32px)}2.56%,3.83%{transform:translate(16px,16px)}2.88%{transform:translate(32px,16px)}3.19%,63.26%{transform:translate(32px,32px)}3.51%{transform:translate(16px,32px)}4.47%{transform:translate(-16px,16px)}5.11%{transform:translate(-16px,48px)}5.43%{transform:translate(0,48px)}6.39%{transform:translate(0,96px)}9.58%{transform:translate(160px,96px)}10.22%{transform:translate(160px,64px)}10.86%{transform:translate(128px,64px)}11.18%{transform:translate(128px,48px)}11.82%{transform:translate(96px,48px)}12.46%{transform:translate(96px,16px)}13.1%{transform:translate(64px,16px)}13.42%,60.06%{transform:translate(64px,32px)}13.74%{transform:translate(80px,32px)}14.38%{transform:translate(80px,64px)}15.34%{transform:translate(32px,64px)}15.65%{transform:translate(32px,48px)}15.97%,60.7%,98.4%{transform:translate(48px,48px)}16.29%{transform:translate(48px,32px)}17.89%{transform:translate(128px,32px)}18.21%{transform:translate(128px,16px)}20.45%{transform:translate(240px,16px)}20.77%{transform:translate(240px,32px)}21.09%,26.2%,73.48%{transform:translate(256px,32px)}21.41%{transform:translate(256px,48px)}22.04%{transform:translate(224px,48px)}22.36%{transform:translate(224px,64px)}23.64%{transform:translate(288px,64px)}24.28%{transform:translate(288px,96px)}24.6%{transform:translate(272px,96px)}25.88%,73.16%{transform:translate(272px,32px)}26.84%{transform:translate(256px,0)}30.35%{transform:translate(432px,0)}30.99%{transform:translate(432px,32px)}32.27%{transform:translate(496px,32px)}32.91%{transform:translate(496px,64px)}33.23%{transform:translate(512px,64px)}33.87%{transform:translate(512px,96px)}34.19%{transform:translate(528px,96px)}35.78%{transform:translate(528px,16px)}36.1%,88.5%{transform:translate(512px,16px)}36.42%{transform:translate(512px,32px)}38.66%,43.13%{transform:translate(624px,32px)}38.98%{transform:translate(624px,16px)}40.58%{transform:translate(704px,16px)}41.21%{transform:translate(704px,48px)}42.81%{transform:translate(624px,48px)}43.77%{transform:translate(592px,32px)}44.41%{transform:translate(592px,0)}45.05%{transform:translate(560px,0)}46.96%{transform:translate(560px,96px)}47.28%{transform:translate(544px,96px)}47.6%{transform:translate(544px,80px)}48.88%{transform:translate(480px,80px)}49.2%{transform:translate(480px,96px)}49.52%{transform:translate(464px,96px)}50.8%{transform:translate(464px,32px)}53.99%{transform:translate(304px,32px)}54.63%{transform:translate(304px,0)}57.83%{transform:translate(144px,0)}58.47%{transform:translate(144px,32px)}60.38%{transform:translate(64px,48px)}61.34%{transform:translate(48px,16px)}62.3%,67.41%{transform:translate(0,16px)}62.62%{transform:translate(0,32px)}64.22%{transform:translate(32px,80px)}64.54%{transform:translate(48px,80px)}66.13%{transform:translate(48px,0)}67.09%{transform:translate(0,0)}72.84%{transform:translate(272px,16px)}74.76%{transform:translate(256px,96px)}81.79%{transform:translate(608px,96px)}82.75%{transform:translate(608px,48px)}84.03%{transform:translate(672px,48px)}84.98%{transform:translate(672px,0)}86.26%{transform:translate(608px,0)}86.58%{transform:translate(608px,16px)}89.14%{transform:translate(512px,48px)}}:root{--cb:#1b1f230a;--cs:purple;--ce:#ebedf0;--c0:#ebedf0;--c1:#9be9a8;--c2:#40c463;--c3:#30a14e;--c4:#216e39}@media (prefers-color-scheme:dark){:root{--cb:#1b1f230a;--cs:purple;--ce:#161b22;--c1:#01311f;--c2:#034525;--c3:#0f6d31;--c4:#00c647}}.c{shape-rendering:geometricPrecision;fill:var(--ce);stroke-width:1px;stroke:var(--cb);animation:none 31300ms linear infinite}.c.c0{fill:var(--c3);animation-name:c0}.c.c1{fill:var(--c1);animation-name:c1}.c.c2{fill:var(--c2);animation-name:c2}.c.c3{fill:var(--c1);animation-name:c3}.c.c4,.c.c5,.c.c6{fill:var(--c1);animation-name:c4}.c.c5,.c.c6{animation-name:c5}.c.c6{animation-name:c6}.c.c7,.c.c8,.c.c9{fill:var(--c1);animation-name:c7}.c.c8,.c.c9{animation-name:c8}.c.c9{animation-name:c9}.c.ca{fill:var(--c2);animation-name:ca}.c.cb{fill:var(--c1);animation-name:cb}.c.cc{fill:var(--c3);animation-name:cc}.c.cd{fill:var(--c2);animation-name:cd}.c.ce{fill:var(--c1);animation-name:ce}.c.cf{fill:var(--c2);animation-name:cf}.c.cg{fill:var(--c1);animation-name:cg}.c.ch,.c.ci,.c.cj{fill:var(--c1);animation-name:ch}.c.ci,.c.cj{animation-name:ci}.c.cj{animation-name:cj}.c.ck,.c.cl,.c.cm{fill:var(--c1);animation-name:ck}.c.cl,.c.cm{animation-name:cl}.c.cm{animation-name:cm}.c.cn{fill:var(--c2);animation-name:cn}.c.co{fill:var(--c1);animation-name:co}.c.cp,.c.cq,.c.cr{fill:var(--c1);animation-name:cp}.c.cq,.c.cr{animation-name:cq}.c.cr{animation-name:cr}.c.cs{fill:var(--c2);animation-name:cs}.c.ct{fill:var(--c1);animation-name:ct}.c.cu,.c.cv,.c.cw{fill:var(--c1);animation-name:cu}.c.cv,.c.cw{animation-name:cv}.c.cw{animation-name:cw}.c.cx,.c.cy,.c.cz{fill:var(--c1);animation-name:cx}.c.cy,.c.cz{animation-name:cy}.c.cz{animation-name:cz}.c.c10,.c.c11,.c.c12{fill:var(--c3);animation-name:c10}.c.c11,.c.c12{animation-name:c11}.c.c12{animation-name:c12}.c.c13{fill:var(--c1);animation-name:c13}.c.c14{fill:var(--c2);animation-name:c14}.c.c15,.c.c16,.c.c17{fill:var(--c1);animation-name:c15}.c.c16,.c.c17{animation-name:c16}.c.c17{animation-name:c17}.c.c18{fill:var(--c2);animation-name:c18}.c.c19,.c.c1a{fill:var(--c1);animation-name:c19}.c.c1a{animation-name:c1a}.c.c1b{fill:var(--c2);animation-name:c1b}.c.c1c{fill:var(--c1);animation-name:c1c}.c.c1d{fill:var(--c4);animation-name:c1d}.c.c1e,.c.c1f{fill:var(--c1);animation-name:c1e}.c.c1f{animation-name:c1f}.c.c1g{fill:var(--c2);animation-name:c1g}.c.c1h{fill:var(--c3);animation-name:c1h}.c.c1i{fill:var(--c2);animation-name:c1i}.c.c1j{fill:var(--c3);animation-name:c1j}.c.c1k{fill:var(--c4);animation-name:c1k}.c.c1l{fill:var(--c3);animation-name:c1l}.c.c1m{fill:var(--c1);animation-name:c1m}.c.c1n{fill:var(--c2);animation-name:c1n}.c.c1o{fill:var(--c1);animation-name:c1o}.c.c1p{fill:var(--c3);animation-name:c1p}.c.c1q{fill:var(--c1);animation-name:c1q}.s,.u{animation:none linear 31300ms infinite}.u,.u.u0{transform-origin:0 0}.u{transform:scale(0,1)}.u.u0{fill:var(--c1);animation-name:u0}.u.u1{fill:var(--c2);animation-name:u1;transform-origin:538.4px 0}.u.u2{fill:var(--c3);animation-name:u2;transform-origin:699.9px 0}.u.u3{fill:var(--c4);animation-name:u3;transform-origin:821.1px 0}.s{shape-rendering:geometricPrecision;fill:var(--cs)}.s.s0{transform:translate(0,-16px);animation-name:s0}.s.s1{transform:translate(16px,-16px);animation-name:s1}.s.s2{transform:translate(32px,-16px);animation-name:s2}.s.s3{transform:translate(48px,-16px);animation-name:s3}</style><rect class="c c0" x="2" y="2" rx="2" ry="2" width="12" height="12"/><rect class="c c1" x="2" y="18" rx="2" ry="2" width="12" height="12"/><rect class="c c2" x="2" y="34" rx="2" ry="2" width="12" height="12"/><rect class="c" x="2" y="50" rx="2" ry="2" width="12" height="12"/><rect class="c c3" x="2" y="66" rx="2" ry="2" width="12" height="12"/><rect class="c c4" x="2" y="82" rx="2" ry="2" width="12" height="12"/><rect class="c c5" x="2" y="98" rx="2" ry="2" width="12" height="12"/><rect class="c c6" x="18" y="2" rx="2" ry="2" width="12" height="12"/><rect class="c" x="18" y="18" rx="2" ry="2" width="12" height="12"/><rect class="c c7" x="18" y="34" rx="2" ry="2" width="12" height="12"/><rect class="c" x="18" y="50" rx="2" ry="2" width="12" height="12"/><rect class="c" x="18" y="66" rx="2" ry="2" width="12" height="12"/><rect class="c" x="18" y="82" rx="2" ry="2" width="12" height="12"/><rect class="c" x="18" y="98" rx="2" ry="2" width="12" height="12"/><rect class="c" x="34" y="2" rx="2" ry="2" width="12" height="12"/><rect class="c c8" x="34" y="18" rx="2" ry="2" width="12" height="12"/><rect class="c" x="34" y="34" rx="2" ry="2" width="12" height="12"/><rect class="c" x="34" y="50" rx="2" ry="2" width="12" height="12"/><rect class="c c9" x="34" y="66" rx="2" ry="2" width="12" height="12"/><rect class="c ca" x="34" y="82" rx="2" ry="2" width="12" height="12"/><rect class="c cb" x="34" y="98" rx="2" ry="2" width="12" height="12"/><rect class="c cc" x="50" y="2" rx="2" ry="2" width="12" height="12"/><rect class="c cd" x="50" y="18" rx="2" ry="2" width="12" height="12"/><rect class="c" x="50" y="34" rx="2" ry="2" width="12" height="12"/><rect class="c" x="50" y="50" rx="2" ry="2" width="12" height="12"/><rect class="c" x="50" y="66" rx="2" ry="2" width="12" height="12"/><rect class="c" x="50" y="82" rx="2" ry="2" width="12" height="12"/><rect class="c" x="50" y="98" rx="2" ry="2" width="12" height="12"/><rect class="c" x="66" y="2" rx="2" ry="2" width="12" height="12"/><rect class="c" x="66" y="18" rx="2" ry="2" width="12" height="12"/><rect class="c ce" x="66" y="34" rx="2" ry="2" width="12" height="12"/><rect class="c cf" x="66" y="50" rx="2" ry="2" width="12" height="12"/><rect class="c cg" x="66" y="66" rx="2" ry="2" width="12" height="12"/><rect class="c" x="66" y="82" rx="2" ry="2" width="12" height="12"/><rect class="c" x="66" y="98" rx="2" ry="2" width="12" height="12"/><rect class="c" x="82" y="2" rx="2" ry="2" width="12" height="12"/><rect class="c ch" x="82" y="18" rx="2" ry="2" width="12" height="12"/><rect class="c" x="82" y="34" rx="2" ry="2" width="12" height="12"/><rect class="c" x="82" y="50" rx="2" ry="2" width="12" height="12"/><rect class="c" x="82" y="66" rx="2" ry="2" width="12" height="12"/><rect class="c" x="82" y="82" rx="2" ry="2" width="12" height="12"/><rect class="c ci" x="82" y="98" rx="2" ry="2" width="12" height="12"/><rect class="c" x="98" y="2" rx="2" ry="2" width="12" height="12"/><rect class="c" x="98" y="18" rx="2" ry="2" width="12" height="12"/><rect class="c cj" x="98" y="34" rx="2" ry="2" width="12" height="12"/><rect class="c ck" x="98" y="50" rx="2" ry="2" width="12" height="12"/><rect class="c" x="98" y="66" rx="2" ry="2" width="12" height="12"/><rect class="c" x="98" y="82" rx="2" ry="2" width="12" height="12"/><rect class="c cl" x="98" y="98" rx="2" ry="2" width="12" height="12"/><rect class="c" x="114" y="2" rx="2" ry="2" width="12" height="12"/><rect class="c" x="114" y="18" rx="2" ry="2" width="12" height="12"/><rect class="c" x="114" y="34" rx="2" ry="2" width="12" height="12"/><rect class="c" x="114" y="50" rx="2" ry="2" width="12" height="12"/><rect class="c" x="114" y="66" rx="2" ry="2" width="12" height="12"/><rect class="c" x="114" y="82" rx="2" ry="2" width="12" height="12"/><rect class="c" x="114" y="98" rx="2" ry="2" width="12" height="12"/><rect class="c" x="130" y="2" rx="2" ry="2" width="12" height="12"/><rect class="c" x="130" y="18" rx="2" ry="2" width="12" height="12"/><rect class="c" x="130" y="34" rx="2" ry="2" width="12" height="12"/><rect class="c" x="130" y="50" rx="2" ry="2" width="12" height="12"/><rect class="c cm" x="130" y="66" rx="2" ry="2" width="12" height="12"/><rect class="c" x="130" y="82" rx="2" ry="2" width="12" height="12"/><rect class="c" x="130" y="98" rx="2" ry="2" width="12" height="12"/><rect class="c" x="146" y="2" rx="2" ry="2" width="12" height="12"/><rect class="c" x="146" y="18" rx="2" ry="2" width="12" height="12"/><rect class="c cn" x="146" y="34" rx="2" ry="2" width="12" height="12"/><rect class="c" x="146" y="50" rx="2" ry="2" width="12" height="12"/><rect class="c" x="146" y="66" rx="2" ry="2" width="12" height="12"/><rect class="c" x="146" y="82" rx="2" ry="2" width="12" height="12"/><rect class="c co" x="146" y="98" rx="2" ry="2" width="12" height="12"/><rect class="c" x="162" y="2" rx="2" ry="2" width="12" height="12"/><rect class="c" x="162" y="18" rx="2" ry="2" width="12" height="12"/><rect class="c" x="162" y="34" rx="2" ry="2" width="12" height="12"/><rect class="c" x="162" y="50" rx="2" ry="2" width="12" height="12"/><rect class="c" x="162" y="66" rx="2" ry="2" width="12" height="12"/><rect class="c" x="162" y="82" rx="2" ry="2" width="12" height="12"/><rect class="c cp" x="162" y="98" rx="2" ry="2" width="12" height="12"/><rect class="c" x="178" y="2" rx="2" ry="2" width="12" height="12"/><rect class="c" x="178" y="18" rx="2" ry="2" width="12" height="12"/><rect class="c" x="178" y="34" rx="2" ry="2" width="12" height="12"/><rect class="c" x="178" y="50" rx="2" ry="2" width="12" height="12"/><rect class="c" x="178" y="66" rx="2" ry="2" width="12" height="12"/><rect class="c" x="178" y="82" rx="2" ry="2" width="12" height="12"/><rect class="c" x="178" y="98" rx="2" ry="2" width="12" height="12"/><rect class="c" x="194" y="2" rx="2" ry="2" width="12" height="12"/><rect class="c cq" x="194" y="18" rx="2" ry="2" width="12" height="12"/><rect class="c" x="194" y="34" rx="2" ry="2" width="12" height="12"/><rect class="c" x="194" y="50" rx="2" ry="2" width="12" height="12"/><rect class="c" x="194" y="66" rx="2" ry="2" width="12" height="12"/><rect class="c" x="194" y="82" rx="2" ry="2" width="12" height="12"/><rect class="c" x="194" y="98" rx="2" ry="2" width="12" height="12"/><rect class="c" x="210" y="2" rx="2" ry="2" width="12" height="12"/><rect class="c" x="210" y="18" rx="2" ry="2" width="12" height="12"/><rect class="c" x="210" y="34" rx="2" ry="2" width="12" height="12"/><rect class="c" x="210" y="50" rx="2" ry="2" width="12" height="12"/><rect class="c" x="210" y="66" rx="2" ry="2" width="12" height="12"/><rect class="c" x="210" y="82" rx="2" ry="2" width="12" height="12"/><rect class="c" x="210" y="98" rx="2" ry="2" width="12" height="12"/><rect class="c" x="226" y="2" rx="2" ry="2" width="12" height="12"/><rect class="c" x="226" y="18" rx="2" ry="2" width="12" height="12"/><rect class="c" x="226" y="34" rx="2" ry="2" width="12" height="12"/><rect class="c cr" x="226" y="50" rx="2" ry="2" width="12" height="12"/><rect class="c" x="226" y="66" rx="2" ry="2" width="12" height="12"/><rect class="c" x="226" y="82" rx="2" ry="2" width="12" height="12"/><rect class="c" x="226" y="98" rx="2" ry="2" width="12" height="12"/><rect class="c cs" x="242" y="2" rx="2" ry="2" width="12" height="12"/><rect class="c" x="242" y="18" rx="2" ry="2" width="12" height="12"/><rect class="c ct" x="242" y="34" rx="2" ry="2" width="12" height="12"/><rect class="c cu" x="242" y="50" rx="2" ry="2" width="12" height="12"/><rect class="c cv" x="242" y="66" rx="2" ry="2" width="12" height="12"/><rect class="c" x="242" y="82" rx="2" ry="2" width="12" height="12"/><rect class="c" x="242" y="98" rx="2" ry="2" width="12" height="12"/><rect class="c cw" x="258" y="2" rx="2" ry="2" width="12" height="12"/><rect class="c" x="258" y="18" rx="2" ry="2" width="12" height="12"/><rect class="c cx" x="258" y="34" rx="2" ry="2" width="12" height="12"/><rect class="c cy" x="258" y="50" rx="2" ry="2" width="12" height="12"/><rect class="c cz" x="258" y="66" rx="2" ry="2" width="12" height="12"/><rect class="c c10" x="258" y="82" rx="2" ry="2" width="12" height="12"/><rect class="c c11" x="258" y="98" rx="2" ry="2" width="12" height="12"/><rect class="c" x="274" y="2" rx="2" ry="2" width="12" height="12"/><rect class="c c12" x="274" y="18" rx="2" ry="2" width="12" height="12"/><rect class="c" x="274" y="34" rx="2" ry="2" width="12" height="12"/><rect class="c" x="274" y="50" rx="2" ry="2" width="12" height="12"/><rect class="c" x="274" y="66" rx="2" ry="2" width="12" height="12"/><rect class="c" x="274" y="82" rx="2" ry="2" width="12" height="12"/><rect class="c" x="274" y="98" rx="2" ry="2" width="12" height="12"/><rect class="c" x="290" y="2" rx="2" ry="2" width="12" height="12"/><rect class="c" x="290" y="18" rx="2" ry="2" width="12" height="12"/><rect class="c" x="290" y="34" rx="2" ry="2" width="12" height="12"/><rect class="c" x="290" y="50" rx="2" ry="2" width="12" height="12"/><rect class="c" x="290" y="66" rx="2" ry="2" width="12" height="12"/><rect class="c" x="290" y="82" rx="2" ry="2" width="12" height="12"/><rect class="c c13" x="290" y="98" rx="2" ry="2" width="12" height="12"/><rect class="c" x="306" y="2" rx="2" ry="2" width="12" height="12"/><rect class="c" x="306" y="18" rx="2" ry="2" width="12" height="12"/><rect class="c c14" x="306" y="34" rx="2" ry="2" width="12" height="12"/><rect class="c" x="306" y="50" rx="2" ry="2" width="12" height="12"/><rect class="c" x="306" y="66" rx="2" ry="2" width="12" height="12"/><rect class="c" x="306" y="82" rx="2" ry="2" width="12" height="12"/><rect class="c" x="306" y="98" rx="2" ry="2" width="12" height="12"/><rect class="c" x="322" y="2" rx="2" ry="2" width="12" height="12"/><rect class="c" x="322" y="18" rx="2" ry="2" width="12" height="12"/><rect class="c" x="322" y="34" rx="2" ry="2" width="12" height="12"/><rect class="c" x="322" y="50" rx="2" ry="2" width="12" height="12"/><rect class="c" x="322" y="66" rx="2" ry="2" width="12" height="12"/><rect class="c" x="322" y="82" rx="2" ry="2" width="12" height="12"/><rect class="c" x="322" y="98" rx="2" ry="2" width="12" height="12"/><rect class="c" x="338" y="2" rx="2" ry="2" width="12" height="12"/><rect class="c" x="338" y="18" rx="2" ry="2" width="12" height="12"/><rect class="c" x="338" y="34" rx="2" ry="2" width="12" height="12"/><rect class="c" x="338" y="50" rx="2" ry="2" width="12" height="12"/><rect class="c" x="338" y="66" rx="2" ry="2" width="12" height="12"/><rect class="c" x="338" y="82" rx="2" ry="2" width="12" height="12"/><rect class="c" x="338" y="98" rx="2" ry="2" width="12" height="12"/><rect class="c" x="354" y="2" rx="2" ry="2" width="12" height="12"/><rect class="c" x="354" y="18" rx="2" ry="2" width="12" height="12"/><rect class="c" x="354" y="34" rx="2" ry="2" width="12" height="12"/><rect class="c" x="354" y="50" rx="2" ry="2" width="12" height="12"/><rect class="c" x="354" y="66" rx="2" ry="2" width="12" height="12"/><rect class="c" x="354" y="82" rx="2" ry="2" width="12" height="12"/><rect class="c" x="354" y="98" rx="2" ry="2" width="12" height="12"/><rect class="c" x="370" y="2" rx="2" ry="2" width="12" height="12"/><rect class="c" x="370" y="18" rx="2" ry="2" width="12" height="12"/><rect class="c" x="370" y="34" rx="2" ry="2" width="12" height="12"/><rect class="c" x="370" y="50" rx="2" ry="2" width="12" height="12"/><rect class="c" x="370" y="66" rx="2" ry="2" width="12" height="12"/><rect class="c" x="370" y="82" rx="2" ry="2" width="12" height="12"/><rect class="c" x="370" y="98" rx="2" ry="2" width="12" height="12"/><rect class="c" x="386" y="2" rx="2" ry="2" width="12" height="12"/><rect class="c" x="386" y="18" rx="2" ry="2" width="12" height="12"/><rect class="c" x="386" y="34" rx="2" ry="2" width="12" height="12"/><rect class="c" x="386" y="50" rx="2" ry="2" width="12" height="12"/><rect class="c" x="386" y="66" rx="2" ry="2" width="12" height="12"/><rect class="c" x="386" y="82" rx="2" ry="2" width="12" height="12"/><rect class="c" x="386" y="98" rx="2" ry="2" width="12" height="12"/><rect class="c" x="402" y="2" rx="2" ry="2" width="12" height="12"/><rect class="c" x="402" y="18" rx="2" ry="2" width="12" height="12"/><rect class="c" x="402" y="34" rx="2" ry="2" width="12" height="12"/><rect class="c" x="402" y="50" rx="2" ry="2" width="12" height="12"/><rect class="c" x="402" y="66" rx="2" ry="2" width="12" height="12"/><rect class="c" x="402" y="82" rx="2" ry="2" width="12" height="12"/><rect class="c" x="402" y="98" rx="2" ry="2" width="12" height="12"/><rect class="c c15" x="418" y="2" rx="2" ry="2" width="12" height="12"/><rect class="c" x="418" y="18" rx="2" ry="2" width="12" height="12"/><rect class="c" x="418" y="34" rx="2" ry="2" width="12" height="12"/><rect class="c" x="418" y="50" rx="2" ry="2" width="12" height="12"/><rect class="c" x="418" y="66" rx="2" ry="2" width="12" height="12"/><rect class="c" x="418" y="82" rx="2" ry="2" width="12" height="12"/><rect class="c" x="418" y="98" rx="2" ry="2" width="12" height="12"/><rect class="c" x="434" y="2" rx="2" ry="2" width="12" height="12"/><rect class="c c16" x="434" y="18" rx="2" ry="2" width="12" height="12"/><rect class="c c17" x="434" y="34" rx="2" ry="2" width="12" height="12"/><rect class="c" x="434" y="50" rx="2" ry="2" width="12" height="12"/><rect class="c" x="434" y="66" rx="2" ry="2" width="12" height="12"/><rect class="c" x="434" y="82" rx="2" ry="2" width="12" height="12"/><rect class="c" x="434" y="98" rx="2" ry="2" width="12" height="12"/><rect class="c" x="450" y="2" rx="2" ry="2" width="12" height="12"/><rect class="c" x="450" y="18" rx="2" ry="2" width="12" height="12"/><rect class="c" x="450" y="34" rx="2" ry="2" width="12" height="12"/><rect class="c" x="450" y="50" rx="2" ry="2" width="12" height="12"/><rect class="c" x="450" y="66" rx="2" ry="2" width="12" height="12"/><rect class="c" x="450" y="82" rx="2" ry="2" width="12" height="12"/><rect class="c" x="450" y="98" rx="2" ry="2" width="12" height="12"/><rect class="c" x="466" y="2" rx="2" ry="2" width="12" height="12"/><rect class="c" x="466" y="18" rx="2" ry="2" width="12" height="12"/><rect class="c" x="466" y="34" rx="2" ry="2" width="12" height="12"/><rect class="c" x="466" y="50" rx="2" ry="2" width="12" height="12"/><rect class="c" x="466" y="66" rx="2" ry="2" width="12" height="12"/><rect class="c" x="466" y="82" rx="2" ry="2" width="12" height="12"/><rect class="c" x="466" y="98" rx="2" ry="2" width="12" height="12"/><rect class="c" x="482" y="2" rx="2" ry="2" width="12" height="12"/><rect class="c" x="482" y="18" rx="2" ry="2" width="12" height="12"/><rect class="c" x="482" y="34" rx="2" ry="2" width="12" height="12"/><rect class="c" x="482" y="50" rx="2" ry="2" width="12" height="12"/><rect class="c" x="482" y="66" rx="2" ry="2" width="12" height="12"/><rect class="c" x="482" y="82" rx="2" ry="2" width="12" height="12"/><rect class="c c18" x="482" y="98" rx="2" ry="2" width="12" height="12"/><rect class="c" x="498" y="2" rx="2" ry="2" width="12" height="12"/><rect class="c" x="498" y="18" rx="2" ry="2" width="12" height="12"/><rect class="c c19" x="498" y="34" rx="2" ry="2" width="12" height="12"/><rect class="c c1a" x="498" y="50" rx="2" ry="2" width="12" height="12"/><rect class="c" x="498" y="66" rx="2" ry="2" width="12" height="12"/><rect class="c c1b" x="498" y="82" rx="2" ry="2" width="12" height="12"/><rect class="c" x="498" y="98" rx="2" ry="2" width="12" height="12"/><rect class="c" x="514" y="2" rx="2" ry="2" width="12" height="12"/><rect class="c c1c" x="514" y="18" rx="2" ry="2" width="12" height="12"/><rect class="c" x="514" y="34" rx="2" ry="2" width="12" height="12"/><rect class="c c1d" x="514" y="50" rx="2" ry="2" width="12" height="12"/><rect class="c c1e" x="514" y="66" rx="2" ry="2" width="12" height="12"/><rect class="c" x="514" y="82" rx="2" ry="2" width="12" height="12"/><rect class="c c1f" x="514" y="98" rx="2" ry="2" width="12" height="12"/><rect class="c" x="530" y="2" rx="2" ry="2" width="12" height="12"/><rect class="c" x="530" y="18" rx="2" ry="2" width="12" height="12"/><rect class="c" x="530" y="34" rx="2" ry="2" width="12" height="12"/><rect class="c" x="530" y="50" rx="2" ry="2" width="12" height="12"/><rect class="c" x="530" y="66" rx="2" ry="2" width="12" height="12"/><rect class="c" x="530" y="82" rx="2" ry="2" width="12" height="12"/><rect class="c" x="530" y="98" rx="2" ry="2" width="12" height="12"/><rect class="c" x="546" y="2" rx="2" ry="2" width="12" height="12"/><rect class="c" x="546" y="18" rx="2" ry="2" width="12" height="12"/><rect class="c" x="546" y="34" rx="2" ry="2" width="12" height="12"/><rect class="c" x="546" y="50" rx="2" ry="2" width="12" height="12"/><rect class="c" x="546" y="66" rx="2" ry="2" width="12" height="12"/><rect class="c" x="546" y="82" rx="2" ry="2" width="12" height="12"/><rect class="c" x="546" y="98" rx="2" ry="2" width="12" height="12"/><rect class="c" x="562" y="2" rx="2" ry="2" width="12" height="12"/><rect class="c" x="562" y="18" rx="2" ry="2" width="12" height="12"/><rect class="c" x="562" y="34" rx="2" ry="2" width="12" height="12"/><rect class="c" x="562" y="50" rx="2" ry="2" width="12" height="12"/><rect class="c" x="562" y="66" rx="2" ry="2" width="12" height="12"/><rect class="c" x="562" y="82" rx="2" ry="2" width="12" height="12"/><rect class="c c1g" x="562" y="98" rx="2" ry="2" width="12" height="12"/><rect class="c" x="578" y="2" rx="2" ry="2" width="12" height="12"/><rect class="c" x="578" y="18" rx="2" ry="2" width="12" height="12"/><rect class="c" x="578" y="34" rx="2" ry="2" width="12" height="12"/><rect class="c" x="578" y="50" rx="2" ry="2" width="12" height="12"/><rect class="c" x="578" y="66" rx="2" ry="2" width="12" height="12"/><rect class="c" x="578" y="82" rx="2" ry="2" width="12" height="12"/><rect class="c c1h" x="578" y="98" rx="2" ry="2" width="12" height="12"/><rect class="c c1i" x="594" y="2" rx="2" ry="2" width="12" height="12"/><rect class="c" x="594" y="18" rx="2" ry="2" width="12" height="12"/><rect class="c" x="594" y="34" rx="2" ry="2" width="12" height="12"/><rect class="c" x="594" y="50" rx="2" ry="2" width="12" height="12"/><rect class="c" x="594" y="66" rx="2" ry="2" width="12" height="12"/><rect class="c" x="594" y="82" rx="2" ry="2" width="12" height="12"/><rect class="c" x="594" y="98" rx="2" ry="2" width="12" height="12"/><rect class="c c1j" x="610" y="2" rx="2" ry="2" width="12" height="12"/><rect class="c c1k" x="610" y="18" rx="2" ry="2" width="12" height="12"/><rect class="c" x="610" y="34" rx="2" ry="2" width="12" height="12"/><rect class="c c1l" x="610" y="50" rx="2" ry="2" width="12" height="12"/><rect class="c" x="610" y="66" rx="2" ry="2" width="12" height="12"/><rect class="c" x="610" y="82" rx="2" ry="2" width="12" height="12"/><rect class="c" x="610" y="98" rx="2" ry="2" width="12" height="12"/><rect class="c" x="626" y="2" rx="2" ry="2" width="12" height="12"/><rect class="c c1m" x="626" y="18" rx="2" ry="2" width="12" height="12"/><rect class="c" x="626" y="34" rx="2" ry="2" width="12" height="12"/><rect class="c c1n" x="626" y="50" rx="2" ry="2" width="12" height="12"/><rect class="c" x="626" y="66" rx="2" ry="2" width="12" height="12"/><rect class="c" x="626" y="82" rx="2" ry="2" width="12" height="12"/><rect class="c" x="626" y="98" rx="2" ry="2" width="12" height="12"/><rect class="c" x="642" y="2" rx="2" ry="2" width="12" height="12"/><rect class="c c1o" x="642" y="18" rx="2" ry="2" width="12" height="12"/><rect class="c" x="642" y="34" rx="2" ry="2" width="12" height="12"/><rect class="c" x="642" y="50" rx="2" ry="2" width="12" height="12"/><rect class="c" x="642" y="66" rx="2" ry="2" width="12" height="12"/><rect class="c" x="642" y="82" rx="2" ry="2" width="12" height="12"/><rect class="c" x="642" y="98" rx="2" ry="2" width="12" height="12"/><rect class="c" x="658" y="2" rx="2" ry="2" width="12" height="12"/><rect class="c" x="658" y="18" rx="2" ry="2" width="12" height="12"/><rect class="c" x="658" y="34" rx="2" ry="2" width="12" height="12"/><rect class="c" x="658" y="50" rx="2" ry="2" width="12" height="12"/><rect class="c" x="658" y="66" rx="2" ry="2" width="12" height="12"/><rect class="c" x="658" y="82" rx="2" ry="2" width="12" height="12"/><rect class="c" x="658" y="98" rx="2" ry="2" width="12" height="12"/><rect class="c" x="674" y="2" rx="2" ry="2" width="12" height="12"/><rect class="c" x="674" y="18" rx="2" ry="2" width="12" height="12"/><rect class="c c1p" x="674" y="34" rx="2" ry="2" width="12" height="12"/><rect class="c" x="674" y="50" rx="2" ry="2" width="12" height="12"/><rect class="c" x="674" y="66" rx="2" ry="2" width="12" height="12"/><rect class="c" x="674" y="82" rx="2" ry="2" width="12" height="12"/><rect class="c" x="674" y="98" rx="2" ry="2" width="12" height="12"/><rect class="c" x="690" y="2" rx="2" ry="2" width="12" height="12"/><rect class="c" x="690" y="18" rx="2" ry="2" width="12" height="12"/><rect class="c" x="690" y="34" rx="2" ry="2" width="12" height="12"/><rect class="c" x="690" y="50" rx="2" ry="2" width="12" height="12"/><rect class="c" x="690" y="66" rx="2" ry="2" width="12" height="12"/><rect class="c" x="690" y="82" rx="2" ry="2" width="12" height="12"/><rect class="c" x="690" y="98" rx="2" ry="2" width="12" height="12"/><rect class="c" x="706" y="2" rx="2" ry="2" width="12" height="12"/><rect class="c" x="706" y="18" rx="2" ry="2" width="12" height="12"/><rect class="c" x="706" y="34" rx="2" ry="2" width="12" height="12"/><rect class="c c1q" x="706" y="50" rx="2" ry="2" width="12" height="12"/><rect class="c" x="706" y="66" rx="2" ry="2" width="12" height="12"/><rect class="c" x="706" y="82" rx="2" ry="2" width="12" height="12"/><rect class="c" x="706" y="98" rx="2" ry="2" width="12" height="12"/><rect class="c" x="722" y="2" rx="2" ry="2" width="12" height="12"/><rect class="c" x="722" y="18" rx="2" ry="2" width="12" height="12"/><rect class="c" x="722" y="34" rx="2" ry="2" width="12" height="12"/><rect class="c" x="722" y="50" rx="2" ry="2" width="12" height="12"/><rect class="c" x="722" y="66" rx="2" ry="2" width="12" height="12"/><rect class="c" x="722" y="82" rx="2" ry="2" width="12" height="12"/><rect class="c" x="722" y="98" rx="2" ry="2" width="12" height="12"/><rect class="c" x="738" y="2" rx="2" ry="2" width="12" height="12"/><rect class="c" x="738" y="18" rx="2" ry="2" width="12" height="12"/><rect class="c" x="738" y="34" rx="2" ry="2" width="12" height="12"/><rect class="c" x="738" y="50" rx="2" ry="2" width="12" height="12"/><rect class="c" x="738" y="66" rx="2" ry="2" width="12" height="12"/><rect class="c" x="738" y="82" rx="2" ry="2" width="12" height="12"/><rect class="c" x="738" y="98" rx="2" ry="2" width="12" height="12"/><rect class="c" x="754" y="2" rx="2" ry="2" width="12" height="12"/><rect class="c" x="754" y="18" rx="2" ry="2" width="12" height="12"/><rect class="c" x="754" y="34" rx="2" ry="2" width="12" height="12"/><rect class="c" x="754" y="50" rx="2" ry="2" width="12" height="12"/><rect class="c" x="754" y="66" rx="2" ry="2" width="12" height="12"/><rect class="c" x="754" y="82" rx="2" ry="2" width="12" height="12"/><rect class="c" x="754" y="98" rx="2" ry="2" width="12" height="12"/><rect class="c" x="770" y="2" rx="2" ry="2" width="12" height="12"/><rect class="c" x="770" y="18" rx="2" ry="2" width="12" height="12"/><rect class="c" x="770" y="34" rx="2" ry="2" width="12" height="12"/><rect class="c" x="770" y="50" rx="2" ry="2" width="12" height="12"/><rect class="c" x="770" y="66" rx="2" ry="2" width="12" height="12"/><rect class="c" x="770" y="82" rx="2" ry="2" width="12" height="12"/><rect class="c" x="770" y="98" rx="2" ry="2" width="12" height="12"/><rect class="c" x="786" y="2" rx="2" ry="2" width="12" height="12"/><rect class="c" x="786" y="18" rx="2" ry="2" width="12" height="12"/><rect class="c" x="786" y="34" rx="2" ry="2" width="12" height="12"/><rect class="c" x="786" y="50" rx="2" ry="2" width="12" height="12"/><rect class="c" x="786" y="66" rx="2" ry="2" width="12" height="12"/><rect class="c" x="786" y="82" rx="2" ry="2" width="12" height="12"/><rect class="c" x="786" y="98" rx="2" ry="2" width="12" height="12"/><rect class="c" x="802" y="2" rx="2" ry="2" width="12" height="12"/><rect class="c" x="802" y="18" rx="2" ry="2" width="12" height="12"/><rect class="c" x="802" y="34" rx="2" ry="2" width="12" height="12"/><rect class="c" x="802" y="50" rx="2" ry="2" width="12" height="12"/><rect class="c" x="802" y="66" rx="2" ry="2" width="12" height="12"/><rect class="c" x="802" y="82" rx="2" ry="2" width="12" height="12"/><rect class="c" x="802" y="98" rx="2" ry="2" width="12" height="12"/><rect class="c" x="818" y="2" rx="2" ry="2" width="12" height="12"/><rect class="c" x="818" y="18" rx="2" ry="2" width="12" height="12"/><rect class="c" x="818" y="34" rx="2" ry="2" width="12" height="12"/><rect class="c" x="818" y="50" rx="2" ry="2" width="12" height="12"/><rect class="c" x="818" y="66" rx="2" ry="2" width="12" height="12"/><rect class="c" x="818" y="82" rx="2" ry="2" width="12" height="12"/><rect class="c" x="818" y="98" rx="2" ry="2" width="12" height="12"/><rect class="c" x="834" y="2" rx="2" ry="2" width="12" height="12"/><rect class="c" x="834" y="18" rx="2" ry="2" width="12" height="12"/><rect class="u u0" height="12" width="539.0" x="0.0" y="144"/><rect class="u u1" height="12" width="162.1" x="538.4" y="144"/><rect class="u u2" height="12" width="121.7" x="699.9" y="144"/><rect class="u u3" height="12" width="27.5" x="821.1" y="144"/><rect class="s s0" x="0.8" y="0.8" width="14.4" height="14.4" rx="4.5" ry="4.5"/><rect class="s s1" x="1.8" y="1.8" width="12.3" height="12.3" rx="4.1" ry="4.1"/><rect class="s s2" x="2.6" y="2.6" width="10.8" height="10.8" rx="3.6" ry="3.6"/><rect class="s s3" x="3.0" y="3.0" width="9.9" height="9.9" rx="3.3" ry="3.3"/></svg>