<svg viewBox="-16 -32 880 192" width="880" height="192" xmlns="http://www.w3.org/2000/svg"><desc>Generated with https://github.com/Platane/snk</desc><style>@keyframes c0{.31%{fill:var(--c1)}.33%,to{fill:var(--ce)}}@keyframes c1{1.58%{fill:var(--c1)}1.6%,to{fill:var(--ce)}}@keyframes c2{.94%{fill:var(--c1)}.96%,to{fill:var(--ce)}}@keyframes c3{9.51%{fill:var(--c1)}9.53%,to{fill:var(--ce)}}@keyframes c4{65.7%{fill:var(--c2)}65.72%,to{fill:var(--ce)}}@keyframes c5{10.78%{fill:var(--c1)}10.8%,to{fill:var(--ce)}}@keyframes c6{67.61%{fill:var(--c3)}67.63%,to{fill:var(--ce)}}@keyframes c7{64.12%{fill:var(--c2)}64.14%,to{fill:var(--ce)}}@keyframes c8{2.53%{fill:var(--c1)}2.55%,to{fill:var(--ce)}}@keyframes c9{63.16%{fill:var(--c2)}63.18%,to{fill:var(--ce)}}@keyframes ca{8.88%{fill:var(--c1)}8.9%,to{fill:var(--ce)}}@keyframes cb{13.32%{fill:var(--c1)}13.34%,to{fill:var(--ce)}}@keyframes cc{7.93%{fill:var(--c1)}7.95%,to{fill:var(--ce)}}@keyframes cd{3.16%{fill:var(--c1)}3.18%,to{fill:var(--ce)}}@keyframes ce{3.48%{fill:var(--c1)}3.5%,to{fill:var(--ce)}}@keyframes cf{7.61%{fill:var(--c1)}7.63%,to{fill:var(--ce)}}@keyframes cg{4.43%{fill:var(--c1)}4.45%,to{fill:var(--ce)}}@keyframes ch{61.26%{fill:var(--c2)}61.28%,to{fill:var(--ce)}}@keyframes ci{5.39%{fill:var(--c1)}5.41%,to{fill:var(--ce)}}@keyframes cj{5.7%{fill:var(--c1)}5.72%,to{fill:var(--ce)}}@keyframes ck{15.55%{fill:var(--c1)}15.57%,to{fill:var(--ce)}}@keyframes cl{18.09%{fill:var(--c1)}18.11%,to{fill:var(--ce)}}@keyframes cm{58.72%{fill:var(--c2)}58.74%,to{fill:var(--ce)}}@keyframes cn{16.82%{fill:var(--c1)}16.84%,to{fill:var(--ce)}}@keyframes co{17.77%{fill:var(--c1)}17.79%,to{fill:var(--ce)}}@keyframes cp{18.72%{fill:var(--c1)}18.74%,to{fill:var(--ce)}}@keyframes cq{22.85%{fill:var(--c1)}22.87%,to{fill:var(--ce)}}@keyframes cr{17.13%{fill:var(--c1)}17.15%,to{fill:var(--ce)}}@keyframes cs{17.45%{fill:var(--c1)}17.47%,to{fill:var(--ce)}}@keyframes ct{19.04%{fill:var(--c1)}19.06%,to{fill:var(--ce)}}@keyframes cu{73.96%{fill:var(--c3)}73.98%,to{fill:var(--ce)}}@keyframes cv{74.28%{fill:var(--c3)}74.3%,to{fill:var(--ce)}}@keyframes cw{72.37%{fill:var(--c3)}72.39%,to{fill:var(--ce)}}@keyframes cx{20.31%{fill:var(--c1)}20.33%,to{fill:var(--ce)}}@keyframes cy{56.82%{fill:var(--c2)}56.84%,to{fill:var(--ce)}}@keyframes cz{26.02%{fill:var(--c1)}26.04%,to{fill:var(--ce)}}@keyframes c10{26.66%{fill:var(--c1)}26.68%,to{fill:var(--ce)}}@keyframes c11{26.97%{fill:var(--c1)}26.99%,to{fill:var(--ce)}}@keyframes c12{52.05%{fill:var(--c2)}52.07%,to{fill:var(--ce)}}@keyframes c13{28.24%{fill:var(--c1)}28.26%,to{fill:var(--ce)}}@keyframes c14{28.56%{fill:var(--c1)}28.58%,to{fill:var(--ce)}}@keyframes c15{51.42%{fill:var(--c2)}51.44%,to{fill:var(--ce)}}@keyframes c16{32.05%{fill:var(--c1)}32.07%,to{fill:var(--ce)}}@keyframes c17{88.56%{fill:var(--c4)}88.58%,to{fill:var(--ce)}}@keyframes c18{29.2%{fill:var(--c1)}29.22%,to{fill:var(--ce)}}@keyframes c19{29.83%{fill:var(--c1)}29.85%,to{fill:var(--ce)}}@keyframes c1a{49.83%{fill:var(--c2)}49.85%,to{fill:var(--ce)}}@keyframes c1b{80.62%{fill:var(--c3)}80.64%,to{fill:var(--ce)}}@keyframes c1c{47.29%{fill:var(--c2)}47.31%,to{fill:var(--ce)}}@keyframes c1d{85.7%{fill:var(--c3)}85.72%,to{fill:var(--ce)}}@keyframes c1e{86.02%{fill:var(--c4)}86.04%,to{fill:var(--ce)}}@keyframes c1f{82.21%{fill:var(--c3)}82.23%,to{fill:var(--ce)}}@keyframes c1g{34.91%{fill:var(--c1)}34.93%,to{fill:var(--ce)}}@keyframes c1h{45.07%{fill:var(--c2)}45.09%,to{fill:var(--ce)}}@keyframes c1i{35.23%{fill:var(--c1)}35.25%,to{fill:var(--ce)}}@keyframes c1j{83.8%{fill:var(--c3)}83.82%,to{fill:var(--ce)}}@keyframes c1k{37.13%{fill:var(--c1)}37.15%,to{fill:var(--ce)}}@keyframes c1l{40.31%{fill:var(--c1)}40.33%,to{fill:var(--ce)}}@keyframes c1m{39.99%{fill:var(--c1)}40.01%,to{fill:var(--ce)}}@keyframes u0{.31%{transform:scale(0,1)}.33%,.94%{transform:scale(.03,1)}.96%,1.58%{transform:scale(.05,1)}1.6%,2.53%{transform:scale(.08,1)}2.55%,3.16%{transform:scale(.11,1)}3.18%,3.48%{transform:scale(.13,1)}3.5%,4.43%{transform:scale(.16,1)}4.45%,5.39%{transform:scale(.18,1)}5.41%,5.7%{transform:scale(.21,1)}5.72%,7.61%{transform:scale(.24,1)}7.63%,7.93%{transform:scale(.26,1)}7.95%,8.88%{transform:scale(.29,1)}8.9%,9.51%{transform:scale(.32,1)}10.78%,9.53%{transform:scale(.34,1)}10.8%,13.32%{transform:scale(.37,1)}13.34%,15.55%{transform:scale(.39,1)}15.57%,16.82%{transform:scale(.42,1)}16.84%,17.13%{transform:scale(.45,1)}17.15%,17.45%{transform:scale(.47,1)}17.47%,17.77%{transform:scale(.5,1)}17.79%,18.09%{transform:scale(.53,1)}18.11%,18.72%{transform:scale(.55,1)}18.74%,19.04%{transform:scale(.58,1)}19.06%,20.31%{transform:scale(.61,1)}20.33%,22.85%{transform:scale(.63,1)}22.87%,26.02%{transform:scale(.66,1)}26.04%,26.66%{transform:scale(.68,1)}26.68%,26.97%{transform:scale(.71,1)}26.99%,28.24%{transform:scale(.74,1)}28.26%,28.56%{transform:scale(.76,1)}28.58%,29.2%{transform:scale(.79,1)}29.22%,29.83%{transform:scale(.82,1)}29.85%,32.05%{transform:scale(.84,1)}32.07%,34.91%{transform:scale(.87,1)}34.93%,35.23%{transform:scale(.89,1)}35.25%,37.13%{transform:scale(.92,1)}37.15%,39.99%{transform:scale(.95,1)}40.01%,40.31%{transform:scale(.97,1)}40.33%,to{transform:scale(1,1)}}@keyframes u1{45.07%{transform:scale(0,1)}45.09%,47.29%{transform:scale(.09,1)}47.31%,49.83%{transform:scale(.18,1)}49.85%,51.42%{transform:scale(.27,1)}51.44%,52.05%{transform:scale(.36,1)}52.07%,56.82%{transform:scale(.45,1)}56.84%,58.72%{transform:scale(.55,1)}58.74%,61.26%{transform:scale(.64,1)}61.28%,63.16%{transform:scale(.73,1)}63.18%,64.12%{transform:scale(.82,1)}64.14%,65.7%{transform:scale(.91,1)}65.72%,to{transform:scale(1,1)}}@keyframes u2{67.61%{transform:scale(0,1)}67.63%,72.37%{transform:scale(.13,1)}72.39%,73.96%{transform:scale(.25,1)}73.98%,74.28%{transform:scale(.38,1)}74.3%,80.62%{transform:scale(.5,1)}80.64%,82.21%{transform:scale(.63,1)}82.23%,83.8%{transform:scale(.75,1)}83.82%,85.7%{transform:scale(.88,1)}85.72%,to{transform:scale(1,1)}}@keyframes u3{86.02%{transform:scale(0,1)}86.04%,88.56%{transform:scale(.5,1)}88.58%,to{transform:scale(1,1)}}@keyframes s0{0%,99.68%{transform:translate(0,-16px)}.32%{transform:translate(0,0)}.63%{transform:translate(16px,0)}.95%,64.44%{transform:translate(16px,16px)}1.27%{transform:translate(0,16px)}1.59%{transform:translate(0,32px)}3.17%{transform:translate(80px,32px)}3.49%{transform:translate(80px,48px)}4.13%{transform:translate(112px,48px)}4.44%{transform:translate(112px,64px)}4.76%{transform:translate(128px,64px)}5.4%{transform:translate(128px,96px)}5.71%{transform:translate(144px,96px)}6.03%{transform:translate(144px,80px)}7.3%{transform:translate(80px,80px)}7.62%{transform:translate(80px,96px)}11.75%,7.94%{transform:translate(64px,96px)}8.57%{transform:translate(64px,64px)}9.84%{transform:translate(0,64px)}10.48%{transform:translate(0,96px)}13.33%{transform:translate(64px,16px)}16.51%{transform:translate(224px,16px)}16.83%{transform:translate(224px,32px)}17.14%,22.22%{transform:translate(240px,32px)}17.46%{transform:translate(240px,48px)}18.1%{transform:translate(208px,48px)}18.41%{transform:translate(208px,64px)}19.68%{transform:translate(272px,64px)}20.32%{transform:translate(272px,96px)}20.63%{transform:translate(256px,96px)}21.9%{transform:translate(256px,32px)}22.86%{transform:translate(240px,0)}26.35%{transform:translate(416px,0)}26.98%{transform:translate(416px,32px)}28.25%{transform:translate(480px,32px)}28.89%{transform:translate(480px,64px)}29.21%{transform:translate(496px,64px)}29.84%{transform:translate(496px,96px)}30.16%{transform:translate(512px,96px)}31.75%{transform:translate(512px,16px)}32.06%,87.94%{transform:translate(496px,16px)}32.38%{transform:translate(496px,32px)}34.6%{transform:translate(608px,32px)}34.92%,44.44%{transform:translate(608px,16px)}36.51%{transform:translate(688px,16px)}37.14%{transform:translate(688px,48px)}39.68%{transform:translate(816px,48px)}40.32%{transform:translate(816px,16px)}45.08%{transform:translate(608px,48px)}45.4%{transform:translate(624px,48px)}45.71%{transform:translate(624px,32px)}46.67%{transform:translate(576px,32px)}47.3%{transform:translate(576px,0)}47.94%{transform:translate(544px,0)}49.84%{transform:translate(544px,96px)}50.16%{transform:translate(528px,96px)}50.48%{transform:translate(528px,80px)}51.75%{transform:translate(464px,80px)}52.06%{transform:translate(464px,96px)}52.38%{transform:translate(448px,96px)}53.65%{transform:translate(448px,32px)}56.83%{transform:translate(288px,32px)}57.46%{transform:translate(288px,0)}60.63%,96.83%{transform:translate(128px,0)}61.27%,96.19%{transform:translate(128px,32px)}62.86%{transform:translate(48px,32px)}63.17%{transform:translate(48px,48px)}63.49%{transform:translate(32px,48px)}64.13%{transform:translate(32px,16px)}65.71%{transform:translate(16px,80px)}66.03%{transform:translate(32px,80px)}67.62%{transform:translate(32px,0)}72.06%{transform:translate(256px,0)}72.38%{transform:translate(256px,16px)}72.7%{transform:translate(240px,16px)}74.29%{transform:translate(240px,96px)}81.27%{transform:translate(592px,96px)}82.22%{transform:translate(592px,48px)}83.49%{transform:translate(656px,48px)}84.44%{transform:translate(656px,0)}85.71%{transform:translate(592px,0)}86.03%{transform:translate(592px,16px)}88.57%{transform:translate(496px,48px)}95.56%{transform:translate(144px,48px)}95.87%{transform:translate(144px,32px)}98.1%{transform:translate(64px,0)}98.41%{transform:translate(64px,-16px)}}@keyframes s1{0%,99.68%{transform:translate(16px,-16px)}.32%{transform:translate(0,-16px)}.63%{transform:translate(0,0)}.95%{transform:translate(16px,0)}1.27%,64.76%{transform:translate(16px,16px)}1.59%{transform:translate(0,16px)}1.9%{transform:translate(0,32px)}3.49%{transform:translate(80px,32px)}3.81%{transform:translate(80px,48px)}4.44%{transform:translate(112px,48px)}4.76%{transform:translate(112px,64px)}5.08%{transform:translate(128px,64px)}5.71%{transform:translate(128px,96px)}6.03%{transform:translate(144px,96px)}6.35%{transform:translate(144px,80px)}7.62%{transform:translate(80px,80px)}7.94%{transform:translate(80px,96px)}12.06%,8.25%{transform:translate(64px,96px)}8.89%{transform:translate(64px,64px)}10.16%{transform:translate(0,64px)}10.79%{transform:translate(0,96px)}13.65%{transform:translate(64px,16px)}16.83%{transform:translate(224px,16px)}17.14%{transform:translate(224px,32px)}17.46%,22.54%{transform:translate(240px,32px)}17.78%{transform:translate(240px,48px)}18.41%{transform:translate(208px,48px)}18.73%{transform:translate(208px,64px)}20%{transform:translate(272px,64px)}20.63%{transform:translate(272px,96px)}20.95%{transform:translate(256px,96px)}22.22%{transform:translate(256px,32px)}23.17%{transform:translate(240px,0)}26.67%{transform:translate(416px,0)}27.3%{transform:translate(416px,32px)}28.57%{transform:translate(480px,32px)}29.21%{transform:translate(480px,64px)}29.52%{transform:translate(496px,64px)}30.16%{transform:translate(496px,96px)}30.48%{transform:translate(512px,96px)}32.06%{transform:translate(512px,16px)}32.38%,88.25%{transform:translate(496px,16px)}32.7%{transform:translate(496px,32px)}34.92%{transform:translate(608px,32px)}35.24%,44.76%{transform:translate(608px,16px)}36.83%{transform:translate(688px,16px)}37.46%{transform:translate(688px,48px)}40%{transform:translate(816px,48px)}40.63%{transform:translate(816px,16px)}45.4%{transform:translate(608px,48px)}45.71%{transform:translate(624px,48px)}46.03%{transform:translate(624px,32px)}46.98%{transform:translate(576px,32px)}47.62%{transform:translate(576px,0)}48.25%{transform:translate(544px,0)}50.16%{transform:translate(544px,96px)}50.48%{transform:translate(528px,96px)}50.79%{transform:translate(528px,80px)}52.06%{transform:translate(464px,80px)}52.38%{transform:translate(464px,96px)}52.7%{transform:translate(448px,96px)}53.97%{transform:translate(448px,32px)}57.14%{transform:translate(288px,32px)}57.78%{transform:translate(288px,0)}60.95%,97.14%{transform:translate(128px,0)}61.59%,96.51%{transform:translate(128px,32px)}63.17%{transform:translate(48px,32px)}63.49%{transform:translate(48px,48px)}63.81%{transform:translate(32px,48px)}64.44%{transform:translate(32px,16px)}66.03%{transform:translate(16px,80px)}66.35%{transform:translate(32px,80px)}67.94%{transform:translate(32px,0)}72.38%{transform:translate(256px,0)}72.7%{transform:translate(256px,16px)}73.02%{transform:translate(240px,16px)}74.6%{transform:translate(240px,96px)}81.59%{transform:translate(592px,96px)}82.54%{transform:translate(592px,48px)}83.81%{transform:translate(656px,48px)}84.76%{transform:translate(656px,0)}86.03%{transform:translate(592px,0)}86.35%{transform:translate(592px,16px)}88.89%{transform:translate(496px,48px)}95.87%{transform:translate(144px,48px)}96.19%{transform:translate(144px,32px)}98.41%{transform:translate(64px,0)}98.73%{transform:translate(64px,-16px)}}@keyframes s2{0%,99.68%{transform:translate(32px,-16px)}.63%{transform:translate(0,-16px)}.95%{transform:translate(0,0)}1.27%{transform:translate(16px,0)}1.59%,65.08%{transform:translate(16px,16px)}1.9%{transform:translate(0,16px)}2.22%{transform:translate(0,32px)}3.81%{transform:translate(80px,32px)}4.13%{transform:translate(80px,48px)}4.76%{transform:translate(112px,48px)}5.08%{transform:translate(112px,64px)}5.4%{transform:translate(128px,64px)}6.03%{transform:translate(128px,96px)}6.35%{transform:translate(144px,96px)}6.67%{transform:translate(144px,80px)}7.94%{transform:translate(80px,80px)}8.25%{transform:translate(80px,96px)}12.38%,8.57%{transform:translate(64px,96px)}9.21%{transform:translate(64px,64px)}10.48%{transform:translate(0,64px)}11.11%{transform:translate(0,96px)}13.97%{transform:translate(64px,16px)}17.14%{transform:translate(224px,16px)}17.46%{transform:translate(224px,32px)}17.78%,22.86%{transform:translate(240px,32px)}18.1%{transform:translate(240px,48px)}18.73%{transform:translate(208px,48px)}19.05%{transform:translate(208px,64px)}20.32%{transform:translate(272px,64px)}20.95%{transform:translate(272px,96px)}21.27%{transform:translate(256px,96px)}22.54%{transform:translate(256px,32px)}23.49%{transform:translate(240px,0)}26.98%{transform:translate(416px,0)}27.62%{transform:translate(416px,32px)}28.89%{transform:translate(480px,32px)}29.52%{transform:translate(480px,64px)}29.84%{transform:translate(496px,64px)}30.48%{transform:translate(496px,96px)}30.79%{transform:translate(512px,96px)}32.38%{transform:translate(512px,16px)}32.7%,88.57%{transform:translate(496px,16px)}33.02%{transform:translate(496px,32px)}35.24%{transform:translate(608px,32px)}35.56%,45.08%{transform:translate(608px,16px)}37.14%{transform:translate(688px,16px)}37.78%{transform:translate(688px,48px)}40.32%{transform:translate(816px,48px)}40.95%{transform:translate(816px,16px)}45.71%{transform:translate(608px,48px)}46.03%{transform:translate(624px,48px)}46.35%{transform:translate(624px,32px)}47.3%{transform:translate(576px,32px)}47.94%{transform:translate(576px,0)}48.57%{transform:translate(544px,0)}50.48%{transform:translate(544px,96px)}50.79%{transform:translate(528px,96px)}51.11%{transform:translate(528px,80px)}52.38%{transform:translate(464px,80px)}52.7%{transform:translate(464px,96px)}53.02%{transform:translate(448px,96px)}54.29%{transform:translate(448px,32px)}57.46%{transform:translate(288px,32px)}58.1%{transform:translate(288px,0)}61.27%,97.46%{transform:translate(128px,0)}61.9%,96.83%{transform:translate(128px,32px)}63.49%{transform:translate(48px,32px)}63.81%{transform:translate(48px,48px)}64.13%{transform:translate(32px,48px)}64.76%{transform:translate(32px,16px)}66.35%{transform:translate(16px,80px)}66.67%{transform:translate(32px,80px)}68.25%{transform:translate(32px,0)}72.7%{transform:translate(256px,0)}73.02%{transform:translate(256px,16px)}73.33%{transform:translate(240px,16px)}74.92%{transform:translate(240px,96px)}81.9%{transform:translate(592px,96px)}82.86%{transform:translate(592px,48px)}84.13%{transform:translate(656px,48px)}85.08%{transform:translate(656px,0)}86.35%{transform:translate(592px,0)}86.67%{transform:translate(592px,16px)}89.21%{transform:translate(496px,48px)}96.19%{transform:translate(144px,48px)}96.51%{transform:translate(144px,32px)}98.73%{transform:translate(64px,0)}99.05%{transform:translate(64px,-16px)}}@keyframes s3{0%,99.68%{transform:translate(48px,-16px)}.95%{transform:translate(0,-16px)}1.27%{transform:translate(0,0)}1.59%{transform:translate(16px,0)}1.9%,65.4%{transform:translate(16px,16px)}2.22%{transform:translate(0,16px)}2.54%{transform:translate(0,32px)}4.13%{transform:translate(80px,32px)}4.44%{transform:translate(80px,48px)}5.08%{transform:translate(112px,48px)}5.4%{transform:translate(112px,64px)}5.71%{transform:translate(128px,64px)}6.35%{transform:translate(128px,96px)}6.67%{transform:translate(144px,96px)}6.98%{transform:translate(144px,80px)}8.25%{transform:translate(80px,80px)}8.57%{transform:translate(80px,96px)}12.7%,8.89%{transform:translate(64px,96px)}9.52%{transform:translate(64px,64px)}10.79%{transform:translate(0,64px)}11.43%{transform:translate(0,96px)}14.29%{transform:translate(64px,16px)}17.46%{transform:translate(224px,16px)}17.78%{transform:translate(224px,32px)}18.1%,23.17%{transform:translate(240px,32px)}18.41%{transform:translate(240px,48px)}19.05%{transform:translate(208px,48px)}19.37%{transform:translate(208px,64px)}20.63%{transform:translate(272px,64px)}21.27%{transform:translate(272px,96px)}21.59%{transform:translate(256px,96px)}22.86%{transform:translate(256px,32px)}23.81%{transform:translate(240px,0)}27.3%{transform:translate(416px,0)}27.94%{transform:translate(416px,32px)}29.21%{transform:translate(480px,32px)}29.84%{transform:translate(480px,64px)}30.16%{transform:translate(496px,64px)}30.79%{transform:translate(496px,96px)}31.11%{transform:translate(512px,96px)}32.7%{transform:translate(512px,16px)}33.02%,88.89%{transform:translate(496px,16px)}33.33%{transform:translate(496px,32px)}35.56%{transform:translate(608px,32px)}35.87%,45.4%{transform:translate(608px,16px)}37.46%{transform:translate(688px,16px)}38.1%{transform:translate(688px,48px)}40.63%{transform:translate(816px,48px)}41.27%{transform:translate(816px,16px)}46.03%{transform:translate(608px,48px)}46.35%{transform:translate(624px,48px)}46.67%{transform:translate(624px,32px)}47.62%{transform:translate(576px,32px)}48.25%{transform:translate(576px,0)}48.89%{transform:translate(544px,0)}50.79%{transform:translate(544px,96px)}51.11%{transform:translate(528px,96px)}51.43%{transform:translate(528px,80px)}52.7%{transform:translate(464px,80px)}53.02%{transform:translate(464px,96px)}53.33%{transform:translate(448px,96px)}54.6%{transform:translate(448px,32px)}57.78%{transform:translate(288px,32px)}58.41%{transform:translate(288px,0)}61.59%,97.78%{transform:translate(128px,0)}62.22%,97.14%{transform:translate(128px,32px)}63.81%{transform:translate(48px,32px)}64.13%{transform:translate(48px,48px)}64.44%{transform:translate(32px,48px)}65.08%{transform:translate(32px,16px)}66.67%{transform:translate(16px,80px)}66.98%{transform:translate(32px,80px)}68.57%{transform:translate(32px,0)}73.02%{transform:translate(256px,0)}73.33%{transform:translate(256px,16px)}73.65%{transform:translate(240px,16px)}75.24%{transform:translate(240px,96px)}82.22%{transform:translate(592px,96px)}83.17%{transform:translate(592px,48px)}84.44%{transform:translate(656px,48px)}85.4%{transform:translate(656px,0)}86.67%{transform:translate(592px,0)}86.98%{transform:translate(592px,16px)}89.52%{transform:translate(496px,48px)}96.51%{transform:translate(144px,48px)}96.83%{transform:translate(144px,32px)}99.05%{transform:translate(64px,0)}99.37%{transform:translate(64px,-16px)}}:root{--cb:#1b1f230a;--cs:purple;--ce:#ebedf0;--c0:#ebedf0;--c1:#9be9a8;--c2:#40c463;--c3:#30a14e;--c4:#216e39}@media (prefers-color-scheme:dark){:root{--cb:#1b1f230a;--cs:purple;--ce:#161b22;--c1:#01311f;--c2:#034525;--c3:#0f6d31;--c4:#00c647}}.c{shape-rendering:geometricPrecision;fill:var(--ce);stroke-width:1px;stroke:var(--cb);animation:none 31500ms linear infinite}.c.c0{fill:var(--c1);animation-name:c0}.c.c1,.c.c2,.c.c3{fill:var(--c1);animation-name:c1}.c.c2,.c.c3{animation-name:c2}.c.c3{animation-name:c3}.c.c4{fill:var(--c2);animation-name:c4}.c.c5{fill:var(--c1);animation-name:c5}.c.c6{fill:var(--c3);animation-name:c6}.c.c7{fill:var(--c2);animation-name:c7}.c.c8{fill:var(--c1);animation-name:c8}.c.c9{fill:var(--c2);animation-name:c9}.c.ca{fill:var(--c1);animation-name:ca}.c.cb,.c.cc,.c.cd{fill:var(--c1);animation-name:cb}.c.cc,.c.cd{animation-name:cc}.c.cd{animation-name:cd}.c.ce,.c.cf,.c.cg{fill:var(--c1);animation-name:ce}.c.cf,.c.cg{animation-name:cf}.c.cg{animation-name:cg}.c.ch{fill:var(--c2);animation-name:ch}.c.ci{fill:var(--c1);animation-name:ci}.c.cj,.c.ck,.c.cl{fill:var(--c1);animation-name:cj}.c.ck,.c.cl{animation-name:ck}.c.cl{animation-name:cl}.c.cm{fill:var(--c2);animation-name:cm}.c.cn{fill:var(--c1);animation-name:cn}.c.co,.c.cp,.c.cq{fill:var(--c1);animation-name:co}.c.cp,.c.cq{animation-name:cp}.c.cq{animation-name:cq}.c.cr,.c.cs,.c.ct{fill:var(--c1);animation-name:cr}.c.cs,.c.ct{animation-name:cs}.c.ct{animation-name:ct}.c.cu,.c.cv,.c.cw{fill:var(--c3);animation-name:cu}.c.cv,.c.cw{animation-name:cv}.c.cw{animation-name:cw}.c.cx{fill:var(--c1);animation-name:cx}.c.cy{fill:var(--c2);animation-name:cy}.c.c10,.c.c11,.c.cz{fill:var(--c1);animation-name:cz}.c.c10,.c.c11{animation-name:c10}.c.c11{animation-name:c11}.c.c12{fill:var(--c2);animation-name:c12}.c.c13,.c.c14{fill:var(--c1);animation-name:c13}.c.c14{animation-name:c14}.c.c15{fill:var(--c2);animation-name:c15}.c.c16{fill:var(--c1);animation-name:c16}.c.c17{fill:var(--c4);animation-name:c17}.c.c18,.c.c19{fill:var(--c1);animation-name:c18}.c.c19{animation-name:c19}.c.c1a{fill:var(--c2);animation-name:c1a}.c.c1b{fill:var(--c3);animation-name:c1b}.c.c1c{fill:var(--c2);animation-name:c1c}.c.c1d{fill:var(--c3);animation-name:c1d}.c.c1e{fill:var(--c4);animation-name:c1e}.c.c1f{fill:var(--c3);animation-name:c1f}.c.c1g{fill:var(--c1);animation-name:c1g}.c.c1h{fill:var(--c2);animation-name:c1h}.c.c1i{fill:var(--c1);animation-name:c1i}.c.c1j{fill:var(--c3);animation-name:c1j}.c.c1k,.c.c1l,.c.c1m{fill:var(--c1);animation-name:c1k}.c.c1l,.c.c1m{animation-name:c1l}.c.c1m{animation-name:c1m}.s,.u{animation:none linear 31500ms infinite}.u,.u.u0{transform-origin:0 0}.u{transform:scale(0,1)}.u.u0{fill:var(--c1);animation-name:u0}.u.u1{fill:var(--c2);animation-name:u1;transform-origin:546.2px 0}.u.u2{fill:var(--c3);animation-name:u2;transform-origin:704.3px 0}.u.u3{fill:var(--c4);animation-name:u3;transform-origin:819.3px 0}.s{shape-rendering:geometricPrecision;fill:var(--cs)}.s.s0{transform:translate(0,-16px);animation-name:s0}.s.s1{transform:translate(16px,-16px);animation-name:s1}.s.s2{transform:translate(32px,-16px);animation-name:s2}.s.s3{transform:translate(48px,-16px);animation-name:s3}</style><rect class="c c0" x="2" y="2" rx="2" ry="2" width="12" height="12"/><rect class="c" x="2" y="18" rx="2" ry="2" width="12" height="12"/><rect class="c c1" x="2" y="34" rx="2" ry="2" width="12" height="12"/><rect class="c" x="2" y="50" rx="2" ry="2" width="12" height="12"/><rect class="c" x="2" y="66" rx="2" ry="2" width="12" height="12"/><rect class="c" x="2" y="82" rx="2" ry="2" width="12" height="12"/><rect class="c" x="2" y="98" rx="2" ry="2" width="12" height="12"/><rect class="c" x="18" y="2" rx="2" ry="2" width="12" height="12"/><rect class="c c2" x="18" y="18" rx="2" ry="2" width="12" height="12"/><rect class="c" x="18" y="34" rx="2" ry="2" width="12" height="12"/><rect class="c" x="18" y="50" rx="2" ry="2" width="12" height="12"/><rect class="c c3" x="18" y="66" rx="2" ry="2" width="12" height="12"/><rect class="c c4" x="18" y="82" rx="2" ry="2" width="12" height="12"/><rect class="c c5" x="18" y="98" rx="2" ry="2" width="12" height="12"/><rect class="c c6" x="34" y="2" rx="2" ry="2" width="12" height="12"/><rect class="c c7" x="34" y="18" rx="2" ry="2" width="12" height="12"/><rect class="c" x="34" y="34" rx="2" ry="2" width="12" height="12"/><rect class="c" x="34" y="50" rx="2" ry="2" width="12" height="12"/><rect class="c" x="34" y="66" rx="2" ry="2" width="12" height="12"/><rect class="c" x="34" y="82" rx="2" ry="2" width="12" height="12"/><rect class="c" x="34" y="98" rx="2" ry="2" width="12" height="12"/><rect class="c" x="50" y="2" rx="2" ry="2" width="12" height="12"/><rect class="c" x="50" y="18" rx="2" ry="2" width="12" height="12"/><rect class="c c8" x="50" y="34" rx="2" ry="2" width="12" height="12"/><rect class="c c9" x="50" y="50" rx="2" ry="2" width="12" height="12"/><rect class="c ca" x="50" y="66" rx="2" ry="2" width="12" height="12"/><rect class="c" x="50" y="82" rx="2" ry="2" width="12" height="12"/><rect class="c" x="50" y="98" rx="2" ry="2" width="12" height="12"/><rect class="c" x="66" y="2" rx="2" ry="2" width="12" height="12"/><rect class="c cb" x="66" y="18" rx="2" ry="2" width="12" height="12"/><rect class="c" x="66" y="34" rx="2" ry="2" width="12" height="12"/><rect class="c" x="66" y="50" rx="2" ry="2" width="12" height="12"/><rect class="c" x="66" y="66" rx="2" ry="2" width="12" height="12"/><rect class="c" x="66" y="82" rx="2" ry="2" width="12" height="12"/><rect class="c cc" x="66" y="98" rx="2" ry="2" width="12" height="12"/><rect class="c" x="82" y="2" rx="2" ry="2" width="12" height="12"/><rect class="c" x="82" y="18" rx="2" ry="2" width="12" height="12"/><rect class="c cd" x="82" y="34" rx="2" ry="2" width="12" height="12"/><rect class="c ce" x="82" y="50" rx="2" ry="2" width="12" height="12"/><rect class="c" x="82" y="66" rx="2" ry="2" width="12" height="12"/><rect class="c" x="82" y="82" rx="2" ry="2" width="12" height="12"/><rect class="c cf" x="82" y="98" rx="2" ry="2" width="12" height="12"/><rect class="c" x="98" y="2" rx="2" ry="2" width="12" height="12"/><rect class="c" x="98" y="18" rx="2" ry="2" width="12" height="12"/><rect class="c" x="98" y="34" rx="2" ry="2" width="12" height="12"/><rect class="c" x="98" y="50" rx="2" ry="2" width="12" height="12"/><rect class="c" x="98" y="66" rx="2" ry="2" width="12" height="12"/><rect class="c" x="98" y="82" rx="2" ry="2" width="12" height="12"/><rect class="c" x="98" y="98" rx="2" ry="2" width="12" height="12"/><rect class="c" x="114" y="2" rx="2" ry="2" width="12" height="12"/><rect class="c" x="114" y="18" rx="2" ry="2" width="12" height="12"/><rect class="c" x="114" y="34" rx="2" ry="2" width="12" height="12"/><rect class="c" x="114" y="50" rx="2" ry="2" width="12" height="12"/><rect class="c cg" x="114" y="66" rx="2" ry="2" width="12" height="12"/><rect class="c" x="114" y="82" rx="2" ry="2" width="12" height="12"/><rect class="c" x="114" y="98" rx="2" ry="2" width="12" height="12"/><rect class="c" x="130" y="2" rx="2" ry="2" width="12" height="12"/><rect class="c" x="130" y="18" rx="2" ry="2" width="12" height="12"/><rect class="c ch" x="130" y="34" rx="2" ry="2" width="12" height="12"/><rect class="c" x="130" y="50" rx="2" ry="2" width="12" height="12"/><rect class="c" x="130" y="66" rx="2" ry="2" width="12" height="12"/><rect class="c" x="130" y="82" rx="2" ry="2" width="12" height="12"/><rect class="c ci" x="130" y="98" rx="2" ry="2" width="12" height="12"/><rect class="c" x="146" y="2" rx="2" ry="2" width="12" height="12"/><rect class="c" x="146" y="18" rx="2" ry="2" width="12" height="12"/><rect class="c" x="146" y="34" rx="2" ry="2" width="12" height="12"/><rect class="c" x="146" y="50" rx="2" ry="2" width="12" height="12"/><rect class="c" x="146" y="66" rx="2" ry="2" width="12" height="12"/><rect class="c" x="146" y="82" rx="2" ry="2" width="12" height="12"/><rect class="c cj" x="146" y="98" rx="2" ry="2" width="12" height="12"/><rect class="c" x="162" y="2" rx="2" ry="2" width="12" height="12"/><rect class="c" x="162" y="18" rx="2" ry="2" width="12" height="12"/><rect class="c" x="162" y="34" rx="2" ry="2" width="12" height="12"/><rect class="c" x="162" y="50" rx="2" ry="2" width="12" height="12"/><rect class="c" x="162" y="66" rx="2" ry="2" width="12" height="12"/><rect class="c" x="162" y="82" rx="2" ry="2" width="12" height="12"/><rect class="c" x="162" y="98" rx="2" ry="2" width="12" height="12"/><rect class="c" x="178" y="2" rx="2" ry="2" width="12" height="12"/><rect class="c ck" x="178" y="18" rx="2" ry="2" width="12" height="12"/><rect class="c" x="178" y="34" rx="2" ry="2" width="12" height="12"/><rect class="c" x="178" y="50" rx="2" ry="2" width="12" height="12"/><rect class="c" x="178" y="66" rx="2" ry="2" width="12" height="12"/><rect class="c" x="178" y="82" rx="2" ry="2" width="12" height="12"/><rect class="c" x="178" y="98" rx="2" ry="2" width="12" height="12"/><rect class="c" x="194" y="2" rx="2" ry="2" width="12" height="12"/><rect class="c" x="194" y="18" rx="2" ry="2" width="12" height="12"/><rect class="c" x="194" y="34" rx="2" ry="2" width="12" height="12"/><rect class="c" x="194" y="50" rx="2" ry="2" width="12" height="12"/><rect class="c" x="194" y="66" rx="2" ry="2" width="12" height="12"/><rect class="c" x="194" y="82" rx="2" ry="2" width="12" height="12"/><rect class="c" x="194" y="98" rx="2" ry="2" width="12" height="12"/><rect class="c" x="210" y="2" rx="2" ry="2" width="12" height="12"/><rect class="c" x="210" y="18" rx="2" ry="2" width="12" height="12"/><rect class="c" x="210" y="34" rx="2" ry="2" width="12" height="12"/><rect class="c cl" x="210" y="50" rx="2" ry="2" width="12" height="12"/><rect class="c" x="210" y="66" rx="2" ry="2" width="12" height="12"/><rect class="c" x="210" y="82" rx="2" ry="2" width="12" height="12"/><rect class="c" x="210" y="98" rx="2" ry="2" width="12" height="12"/><rect class="c cm" x="226" y="2" rx="2" ry="2" width="12" height="12"/><rect class="c" x="226" y="18" rx="2" ry="2" width="12" height="12"/><rect class="c cn" x="226" y="34" rx="2" ry="2" width="12" height="12"/><rect class="c co" x="226" y="50" rx="2" ry="2" width="12" height="12"/><rect class="c cp" x="226" y="66" rx="2" ry="2" width="12" height="12"/><rect class="c" x="226" y="82" rx="2" ry="2" width="12" height="12"/><rect class="c" x="226" y="98" rx="2" ry="2" width="12" height="12"/><rect class="c cq" x="242" y="2" rx="2" ry="2" width="12" height="12"/><rect class="c" x="242" y="18" rx="2" ry="2" width="12" height="12"/><rect class="c cr" x="242" y="34" rx="2" ry="2" width="12" height="12"/><rect class="c cs" x="242" y="50" rx="2" ry="2" width="12" height="12"/><rect class="c ct" x="242" y="66" rx="2" ry="2" width="12" height="12"/><rect class="c cu" x="242" y="82" rx="2" ry="2" width="12" height="12"/><rect class="c cv" x="242" y="98" rx="2" ry="2" width="12" height="12"/><rect class="c" x="258" y="2" rx="2" ry="2" width="12" height="12"/><rect class="c cw" x="258" y="18" rx="2" ry="2" width="12" height="12"/><rect class="c" x="258" y="34" rx="2" ry="2" width="12" height="12"/><rect class="c" x="258" y="50" rx="2" ry="2" width="12" height="12"/><rect class="c" x="258" y="66" rx="2" ry="2" width="12" height="12"/><rect class="c" x="258" y="82" rx="2" ry="2" width="12" height="12"/><rect class="c" x="258" y="98" rx="2" ry="2" width="12" height="12"/><rect class="c" x="274" y="2" rx="2" ry="2" width="12" height="12"/><rect class="c" x="274" y="18" rx="2" ry="2" width="12" height="12"/><rect class="c" x="274" y="34" rx="2" ry="2" width="12" height="12"/><rect class="c" x="274" y="50" rx="2" ry="2" width="12" height="12"/><rect class="c" x="274" y="66" rx="2" ry="2" width="12" height="12"/><rect class="c" x="274" y="82" rx="2" ry="2" width="12" height="12"/><rect class="c cx" x="274" y="98" rx="2" ry="2" width="12" height="12"/><rect class="c" x="290" y="2" rx="2" ry="2" width="12" height="12"/><rect class="c" x="290" y="18" rx="2" ry="2" width="12" height="12"/><rect class="c cy" x="290" y="34" rx="2" ry="2" width="12" height="12"/><rect class="c" x="290" y="50" rx="2" ry="2" width="12" height="12"/><rect class="c" x="290" y="66" rx="2" ry="2" width="12" height="12"/><rect class="c" x="290" y="82" rx="2" ry="2" width="12" height="12"/><rect class="c" x="290" y="98" rx="2" ry="2" width="12" height="12"/><rect class="c" x="306" y="2" rx="2" ry="2" width="12" height="12"/><rect class="c" x="306" y="18" rx="2" ry="2" width="12" height="12"/><rect class="c" x="306" y="34" rx="2" ry="2" width="12" height="12"/><rect class="c" x="306" y="50" rx="2" ry="2" width="12" height="12"/><rect class="c" x="306" y="66" rx="2" ry="2" width="12" height="12"/><rect class="c" x="306" y="82" rx="2" ry="2" width="12" height="12"/><rect class="c" x="306" y="98" rx="2" ry="2" width="12" height="12"/><rect class="c" x="322" y="2" rx="2" ry="2" width="12" height="12"/><rect class="c" x="322" y="18" rx="2" ry="2" width="12" height="12"/><rect class="c" x="322" y="34" rx="2" ry="2" width="12" height="12"/><rect class="c" x="322" y="50" rx="2" ry="2" width="12" height="12"/><rect class="c" x="322" y="66" rx="2" ry="2" width="12" height="12"/><rect class="c" x="322" y="82" rx="2" ry="2" width="12" height="12"/><rect class="c" x="322" y="98" rx="2" ry="2" width="12" height="12"/><rect class="c" x="338" y="2" rx="2" ry="2" width="12" height="12"/><rect class="c" x="338" y="18" rx="2" ry="2" width="12" height="12"/><rect class="c" x="338" y="34" rx="2" ry="2" width="12" height="12"/><rect class="c" x="338" y="50" rx="2" ry="2" width="12" height="12"/><rect class="c" x="338" y="66" rx="2" ry="2" width="12" height="12"/><rect class="c" x="338" y="82" rx="2" ry="2" width="12" height="12"/><rect class="c" x="338" y="98" rx="2" ry="2" width="12" height="12"/><rect class="c" x="354" y="2" rx="2" ry="2" width="12" height="12"/><rect class="c" x="354" y="18" rx="2" ry="2" width="12" height="12"/><rect class="c" x="354" y="34" rx="2" ry="2" width="12" height="12"/><rect class="c" x="354" y="50" rx="2" ry="2" width="12" height="12"/><rect class="c" x="354" y="66" rx="2" ry="2" width="12" height="12"/><rect class="c" x="354" y="82" rx="2" ry="2" width="12" height="12"/><rect class="c" x="354" y="98" rx="2" ry="2" width="12" height="12"/><rect class="c" x="370" y="2" rx="2" ry="2" width="12" height="12"/><rect class="c" x="370" y="18" rx="2" ry="2" width="12" height="12"/><rect class="c" x="370" y="34" rx="2" ry="2" width="12" height="12"/><rect class="c" x="370" y="50" rx="2" ry="2" width="12" height="12"/><rect class="c" x="370" y="66" rx="2" ry="2" width="12" height="12"/><rect class="c" x="370" y="82" rx="2" ry="2" width="12" height="12"/><rect class="c" x="370" y="98" rx="2" ry="2" width="12" height="12"/><rect class="c" x="386" y="2" rx="2" ry="2" width="12" height="12"/><rect class="c" x="386" y="18" rx="2" ry="2" width="12" height="12"/><rect class="c" x="386" y="34" rx="2" ry="2" width="12" height="12"/><rect class="c" x="386" y="50" rx="2" ry="2" width="12" height="12"/><rect class="c" x="386" y="66" rx="2" ry="2" width="12" height="12"/><rect class="c" x="386" y="82" rx="2" ry="2" width="12" height="12"/><rect class="c" x="386" y="98" rx="2" ry="2" width="12" height="12"/><rect class="c cz" x="402" y="2" rx="2" ry="2" width="12" height="12"/><rect class="c" x="402" y="18" rx="2" ry="2" width="12" height="12"/><rect class="c" x="402" y="34" rx="2" ry="2" width="12" height="12"/><rect class="c" x="402" y="50" rx="2" ry="2" width="12" height="12"/><rect class="c" x="402" y="66" rx="2" ry="2" width="12" height="12"/><rect class="c" x="402" y="82" rx="2" ry="2" width="12" height="12"/><rect class="c" x="402" y="98" rx="2" ry="2" width="12" height="12"/><rect class="c" x="418" y="2" rx="2" ry="2" width="12" height="12"/><rect class="c c10" x="418" y="18" rx="2" ry="2" width="12" height="12"/><rect class="c c11" x="418" y="34" rx="2" ry="2" width="12" height="12"/><rect class="c" x="418" y="50" rx="2" ry="2" width="12" height="12"/><rect class="c" x="418" y="66" rx="2" ry="2" width="12" height="12"/><rect class="c" x="418" y="82" rx="2" ry="2" width="12" height="12"/><rect class="c" x="418" y="98" rx="2" ry="2" width="12" height="12"/><rect class="c" x="434" y="2" rx="2" ry="2" width="12" height="12"/><rect class="c" x="434" y="18" rx="2" ry="2" width="12" height="12"/><rect class="c" x="434" y="34" rx="2" ry="2" width="12" height="12"/><rect class="c" x="434" y="50" rx="2" ry="2" width="12" height="12"/><rect class="c" x="434" y="66" rx="2" ry="2" width="12" height="12"/><rect class="c" x="434" y="82" rx="2" ry="2" width="12" height="12"/><rect class="c" x="434" y="98" rx="2" ry="2" width="12" height="12"/><rect class="c" x="450" y="2" rx="2" ry="2" width="12" height="12"/><rect class="c" x="450" y="18" rx="2" ry="2" width="12" height="12"/><rect class="c" x="450" y="34" rx="2" ry="2" width="12" height="12"/><rect class="c" x="450" y="50" rx="2" ry="2" width="12" height="12"/><rect class="c" x="450" y="66" rx="2" ry="2" width="12" height="12"/><rect class="c" x="450" y="82" rx="2" ry="2" width="12" height="12"/><rect class="c" x="450" y="98" rx="2" ry="2" width="12" height="12"/><rect class="c" x="466" y="2" rx="2" ry="2" width="12" height="12"/><rect class="c" x="466" y="18" rx="2" ry="2" width="12" height="12"/><rect class="c" x="466" y="34" rx="2" ry="2" width="12" height="12"/><rect class="c" x="466" y="50" rx="2" ry="2" width="12" height="12"/><rect class="c" x="466" y="66" rx="2" ry="2" width="12" height="12"/><rect class="c" x="466" y="82" rx="2" ry="2" width="12" height="12"/><rect class="c c12" x="466" y="98" rx="2" ry="2" width="12" height="12"/><rect class="c" x="482" y="2" rx="2" ry="2" width="12" height="12"/><rect class="c" x="482" y="18" rx="2" ry="2" width="12" height="12"/><rect class="c c13" x="482" y="34" rx="2" ry="2" width="12" height="12"/><rect class="c c14" x="482" y="50" rx="2" ry="2" width="12" height="12"/><rect class="c" x="482" y="66" rx="2" ry="2" width="12" height="12"/><rect class="c c15" x="482" y="82" rx="2" ry="2" width="12" height="12"/><rect class="c" x="482" y="98" rx="2" ry="2" width="12" height="12"/><rect class="c" x="498" y="2" rx="2" ry="2" width="12" height="12"/><rect class="c c16" x="498" y="18" rx="2" ry="2" width="12" height="12"/><rect class="c" x="498" y="34" rx="2" ry="2" width="12" height="12"/><rect class="c c17" x="498" y="50" rx="2" ry="2" width="12" height="12"/><rect class="c c18" x="498" y="66" rx="2" ry="2" width="12" height="12"/><rect class="c" x="498" y="82" rx="2" ry="2" width="12" height="12"/><rect class="c c19" x="498" y="98" rx="2" ry="2" width="12" height="12"/><rect class="c" x="514" y="2" rx="2" ry="2" width="12" height="12"/><rect class="c" x="514" y="18" rx="2" ry="2" width="12" height="12"/><rect class="c" x="514" y="34" rx="2" ry="2" width="12" height="12"/><rect class="c" x="514" y="50" rx="2" ry="2" width="12" height="12"/><rect class="c" x="514" y="66" rx="2" ry="2" width="12" height="12"/><rect class="c" x="514" y="82" rx="2" ry="2" width="12" height="12"/><rect class="c" x="514" y="98" rx="2" ry="2" width="12" height="12"/><rect class="c" x="530" y="2" rx="2" ry="2" width="12" height="12"/><rect class="c" x="530" y="18" rx="2" ry="2" width="12" height="12"/><rect class="c" x="530" y="34" rx="2" ry="2" width="12" height="12"/><rect class="c" x="530" y="50" rx="2" ry="2" width="12" height="12"/><rect class="c" x="530" y="66" rx="2" ry="2" width="12" height="12"/><rect class="c" x="530" y="82" rx="2" ry="2" width="12" height="12"/><rect class="c" x="530" y="98" rx="2" ry="2" width="12" height="12"/><rect class="c" x="546" y="2" rx="2" ry="2" width="12" height="12"/><rect class="c" x="546" y="18" rx="2" ry="2" width="12" height="12"/><rect class="c" x="546" y="34" rx="2" ry="2" width="12" height="12"/><rect class="c" x="546" y="50" rx="2" ry="2" width="12" height="12"/><rect class="c" x="546" y="66" rx="2" ry="2" width="12" height="12"/><rect class="c" x="546" y="82" rx="2" ry="2" width="12" height="12"/><rect class="c c1a" x="546" y="98" rx="2" ry="2" width="12" height="12"/><rect class="c" x="562" y="2" rx="2" ry="2" width="12" height="12"/><rect class="c" x="562" y="18" rx="2" ry="2" width="12" height="12"/><rect class="c" x="562" y="34" rx="2" ry="2" width="12" height="12"/><rect class="c" x="562" y="50" rx="2" ry="2" width="12" height="12"/><rect class="c" x="562" y="66" rx="2" ry="2" width="12" height="12"/><rect class="c" x="562" y="82" rx="2" ry="2" width="12" height="12"/><rect class="c c1b" x="562" y="98" rx="2" ry="2" width="12" height="12"/><rect class="c c1c" x="578" y="2" rx="2" ry="2" width="12" height="12"/><rect class="c" x="578" y="18" rx="2" ry="2" width="12" height="12"/><rect class="c" x="578" y="34" rx="2" ry="2" width="12" height="12"/><rect class="c" x="578" y="50" rx="2" ry="2" width="12" height="12"/><rect class="c" x="578" y="66" rx="2" ry="2" width="12" height="12"/><rect class="c" x="578" y="82" rx="2" ry="2" width="12" height="12"/><rect class="c" x="578" y="98" rx="2" ry="2" width="12" height="12"/><rect class="c c1d" x="594" y="2" rx="2" ry="2" width="12" height="12"/><rect class="c c1e" x="594" y="18" rx="2" ry="2" width="12" height="12"/><rect class="c" x="594" y="34" rx="2" ry="2" width="12" height="12"/><rect class="c c1f" x="594" y="50" rx="2" ry="2" width="12" height="12"/><rect class="c" x="594" y="66" rx="2" ry="2" width="12" height="12"/><rect class="c" x="594" y="82" rx="2" ry="2" width="12" height="12"/><rect class="c" x="594" y="98" rx="2" ry="2" width="12" height="12"/><rect class="c" x="610" y="2" rx="2" ry="2" width="12" height="12"/><rect class="c c1g" x="610" y="18" rx="2" ry="2" width="12" height="12"/><rect class="c" x="610" y="34" rx="2" ry="2" width="12" height="12"/><rect class="c c1h" x="610" y="50" rx="2" ry="2" width="12" height="12"/><rect class="c" x="610" y="66" rx="2" ry="2" width="12" height="12"/><rect class="c" x="610" y="82" rx="2" ry="2" width="12" height="12"/><rect class="c" x="610" y="98" rx="2" ry="2" width="12" height="12"/><rect class="c" x="626" y="2" rx="2" ry="2" width="12" height="12"/><rect class="c c1i" x="626" y="18" rx="2" ry="2" width="12" height="12"/><rect class="c" x="626" y="34" rx="2" ry="2" width="12" height="12"/><rect class="c" x="626" y="50" rx="2" ry="2" width="12" height="12"/><rect class="c" x="626" y="66" rx="2" ry="2" width="12" height="12"/><rect class="c" x="626" y="82" rx="2" ry="2" width="12" height="12"/><rect class="c" x="626" y="98" rx="2" ry="2" width="12" height="12"/><rect class="c" x="642" y="2" rx="2" ry="2" width="12" height="12"/><rect class="c" x="642" y="18" rx="2" ry="2" width="12" height="12"/><rect class="c" x="642" y="34" rx="2" ry="2" width="12" height="12"/><rect class="c" x="642" y="50" rx="2" ry="2" width="12" height="12"/><rect class="c" x="642" y="66" rx="2" ry="2" width="12" height="12"/><rect class="c" x="642" y="82" rx="2" ry="2" width="12" height="12"/><rect class="c" x="642" y="98" rx="2" ry="2" width="12" height="12"/><rect class="c" x="658" y="2" rx="2" ry="2" width="12" height="12"/><rect class="c" x="658" y="18" rx="2" ry="2" width="12" height="12"/><rect class="c c1j" x="658" y="34" rx="2" ry="2" width="12" height="12"/><rect class="c" x="658" y="50" rx="2" ry="2" width="12" height="12"/><rect class="c" x="658" y="66" rx="2" ry="2" width="12" height="12"/><rect class="c" x="658" y="82" rx="2" ry="2" width="12" height="12"/><rect class="c" x="658" y="98" rx="2" ry="2" width="12" height="12"/><rect class="c" x="674" y="2" rx="2" ry="2" width="12" height="12"/><rect class="c" x="674" y="18" rx="2" ry="2" width="12" height="12"/><rect class="c" x="674" y="34" rx="2" ry="2" width="12" height="12"/><rect class="c" x="674" y="50" rx="2" ry="2" width="12" height="12"/><rect class="c" x="674" y="66" rx="2" ry="2" width="12" height="12"/><rect class="c" x="674" y="82" rx="2" ry="2" width="12" height="12"/><rect class="c" x="674" y="98" rx="2" ry="2" width="12" height="12"/><rect class="c" x="690" y="2" rx="2" ry="2" width="12" height="12"/><rect class="c" x="690" y="18" rx="2" ry="2" width="12" height="12"/><rect class="c" x="690" y="34" rx="2" ry="2" width="12" height="12"/><rect class="c c1k" x="690" y="50" rx="2" ry="2" width="12" height="12"/><rect class="c" x="690" y="66" rx="2" ry="2" width="12" height="12"/><rect class="c" x="690" y="82" rx="2" ry="2" width="12" height="12"/><rect class="c" x="690" y="98" rx="2" ry="2" width="12" height="12"/><rect class="c" x="706" y="2" rx="2" ry="2" width="12" height="12"/><rect class="c" x="706" y="18" rx="2" ry="2" width="12" height="12"/><rect class="c" x="706" y="34" rx="2" ry="2" width="12" height="12"/><rect class="c" x="706" y="50" rx="2" ry="2" width="12" height="12"/><rect class="c" x="706" y="66" rx="2" ry="2" width="12" height="12"/><rect class="c" x="706" y="82" rx="2" ry="2" width="12" height="12"/><rect class="c" x="706" y="98" rx="2" ry="2" width="12" height="12"/><rect class="c" x="722" y="2" rx="2" ry="2" width="12" height="12"/><rect class="c" x="722" y="18" rx="2" ry="2" width="12" height="12"/><rect class="c" x="722" y="34" rx="2" ry="2" width="12" height="12"/><rect class="c" x="722" y="50" rx="2" ry="2" width="12" height="12"/><rect class="c" x="722" y="66" rx="2" ry="2" width="12" height="12"/><rect class="c" x="722" y="82" rx="2" ry="2" width="12" height="12"/><rect class="c" x="722" y="98" rx="2" ry="2" width="12" height="12"/><rect class="c" x="738" y="2" rx="2" ry="2" width="12" height="12"/><rect class="c" x="738" y="18" rx="2" ry="2" width="12" height="12"/><rect class="c" x="738" y="34" rx="2" ry="2" width="12" height="12"/><rect class="c" x="738" y="50" rx="2" ry="2" width="12" height="12"/><rect class="c" x="738" y="66" rx="2" ry="2" width="12" height="12"/><rect class="c" x="738" y="82" rx="2" ry="2" width="12" height="12"/><rect class="c" x="738" y="98" rx="2" ry="2" width="12" height="12"/><rect class="c" x="754" y="2" rx="2" ry="2" width="12" height="12"/><rect class="c" x="754" y="18" rx="2" ry="2" width="12" height="12"/><rect class="c" x="754" y="34" rx="2" ry="2" width="12" height="12"/><rect class="c" x="754" y="50" rx="2" ry="2" width="12" height="12"/><rect class="c" x="754" y="66" rx="2" ry="2" width="12" height="12"/><rect class="c" x="754" y="82" rx="2" ry="2" width="12" height="12"/><rect class="c" x="754" y="98" rx="2" ry="2" width="12" height="12"/><rect class="c" x="770" y="2" rx="2" ry="2" width="12" height="12"/><rect class="c" x="770" y="18" rx="2" ry="2" width="12" height="12"/><rect class="c" x="770" y="34" rx="2" ry="2" width="12" height="12"/><rect class="c" x="770" y="50" rx="2" ry="2" width="12" height="12"/><rect class="c" x="770" y="66" rx="2" ry="2" width="12" height="12"/><rect class="c" x="770" y="82" rx="2" ry="2" width="12" height="12"/><rect class="c" x="770" y="98" rx="2" ry="2" width="12" height="12"/><rect class="c" x="786" y="2" rx="2" ry="2" width="12" height="12"/><rect class="c" x="786" y="18" rx="2" ry="2" width="12" height="12"/><rect class="c" x="786" y="34" rx="2" ry="2" width="12" height="12"/><rect class="c" x="786" y="50" rx="2" ry="2" width="12" height="12"/><rect class="c" x="786" y="66" rx="2" ry="2" width="12" height="12"/><rect class="c" x="786" y="82" rx="2" ry="2" width="12" height="12"/><rect class="c" x="786" y="98" rx="2" ry="2" width="12" height="12"/><rect class="c" x="802" y="2" rx="2" ry="2" width="12" height="12"/><rect class="c" x="802" y="18" rx="2" ry="2" width="12" height="12"/><rect class="c" x="802" y="34" rx="2" ry="2" width="12" height="12"/><rect class="c" x="802" y="50" rx="2" ry="2" width="12" height="12"/><rect class="c" x="802" y="66" rx="2" ry="2" width="12" height="12"/><rect class="c" x="802" y="82" rx="2" ry="2" width="12" height="12"/><rect class="c" x="802" y="98" rx="2" ry="2" width="12" height="12"/><rect class="c" x="818" y="2" rx="2" ry="2" width="12" height="12"/><rect class="c c1l" x="818" y="18" rx="2" ry="2" width="12" height="12"/><rect class="c c1m" x="818" y="34" rx="2" ry="2" width="12" height="12"/><rect class="c" x="818" y="50" rx="2" ry="2" width="12" height="12"/><rect class="c" x="818" y="66" rx="2" ry="2" width="12" height="12"/><rect class="c" x="818" y="82" rx="2" ry="2" width="12" height="12"/><rect class="c" x="818" y="98" rx="2" ry="2" width="12" height="12"/><rect class="c" x="834" y="2" rx="2" ry="2" width="12" height="12"/><rect class="c" x="834" y="18" rx="2" ry="2" width="12" height="12"/><rect class="u u0" height="12" width="546.8" x="0.0" y="144"/><rect class="u u1" height="12" width="158.7" x="546.2" y="144"/><rect class="u u2" height="12" width="115.6" x="704.3" y="144"/><rect class="u u3" height="12" width="29.3" x="819.3" y="144"/><rect class="s s0" x="0.8" y="0.8" width="14.4" height="14.4" rx="4.5" ry="4.5"/><rect class="s s1" x="1.8" y="1.8" width="12.3" height="12.3" rx="4.1" ry="4.1"/><rect class="s s2" x="2.6" y="2.6" width="10.8" height="10.8" rx="3.6" ry="3.6"/><rect class="s s3" x="3.0" y="3.0" width="9.9" height="9.9" rx="3.3" ry="3.3"/></svg>