<svg viewBox="-16 -32 880 192" width="880" height="192" xmlns="http://www.w3.org/2000/svg"><desc>Generated with https://github.com/Platane/snk</desc><style>@keyframes c0{1.86%{fill:var(--c1)}1.88%,to{fill:var(--ce)}}@keyframes c1{2.61%{fill:var(--c1)}2.63%,to{fill:var(--ce)}}@keyframes c2{2.99%{fill:var(--c1)}3.01%,to{fill:var(--ce)}}@keyframes c3{61.79%{fill:var(--c2)}61.81%,to{fill:var(--ce)}}@keyframes c4{4.48%{fill:var(--c1)}4.5%,to{fill:var(--ce)}}@keyframes c5{4.86%{fill:var(--c1)}4.88%,to{fill:var(--ce)}}@keyframes c6{61.04%{fill:var(--c2)}61.06%,to{fill:var(--ce)}}@keyframes c7{6.73%{fill:var(--c1)}6.75%,to{fill:var(--ce)}}@keyframes c8{94.37%{fill:var(--c4)}94.39%,to{fill:var(--ce)}}@keyframes c9{60.29%{fill:var(--c2)}60.31%,to{fill:var(--ce)}}@keyframes ca{9.35%{fill:var(--c1)}9.37%,to{fill:var(--ce)}}@keyframes cb{58.42%{fill:var(--c2)}58.44%,to{fill:var(--ce)}}@keyframes cc{64.03%{fill:var(--c3)}64.05%,to{fill:var(--ce)}}@keyframes cd{67.41%{fill:var(--c3)}67.43%,to{fill:var(--ce)}}@keyframes ce{67.78%{fill:var(--c3)}67.8%,to{fill:var(--ce)}}@keyframes cf{91.38%{fill:var(--c4)}91.4%,to{fill:var(--ce)}}@keyframes cg{65.91%{fill:var(--c3)}65.93%,to{fill:var(--ce)}}@keyframes ch{13.85%{fill:var(--c1)}13.87%,to{fill:var(--ce)}}@keyframes ci{55.8%{fill:var(--c2)}55.82%,to{fill:var(--ce)}}@keyframes cj{14.22%{fill:var(--c1)}14.24%,to{fill:var(--ce)}}@keyframes ck{70.03%{fill:var(--c3)}70.05%,to{fill:var(--ce)}}@keyframes cl{16.47%{fill:var(--c1)}16.49%,to{fill:var(--ce)}}@keyframes cm{21.34%{fill:var(--c1)}21.36%,to{fill:var(--ce)}}@keyframes cn{50.18%{fill:var(--c2)}50.2%,to{fill:var(--ce)}}@keyframes co{19.84%{fill:var(--c1)}19.86%,to{fill:var(--ce)}}@keyframes cp{23.96%{fill:var(--c1)}23.98%,to{fill:var(--ce)}}@keyframes cq{24.33%{fill:var(--c1)}24.35%,to{fill:var(--ce)}}@keyframes cr{29.58%{fill:var(--c1)}29.6%,to{fill:var(--ce)}}@keyframes cs{29.95%{fill:var(--c1)}29.97%,to{fill:var(--ce)}}@keyframes ct{79.77%{fill:var(--c3)}79.79%,to{fill:var(--ce)}}@keyframes cu{43.44%{fill:var(--c2)}43.46%,to{fill:var(--ce)}}@keyframes cv{34.07%{fill:var(--c1)}34.09%,to{fill:var(--ce)}}@keyframes cw{33.7%{fill:var(--c1)}33.72%,to{fill:var(--ce)}}@keyframes cx{32.95%{fill:var(--c1)}32.97%,to{fill:var(--ce)}}@keyframes cy{31.83%{fill:var(--c1)}31.85%,to{fill:var(--ce)}}@keyframes cz{39.32%{fill:var(--c2)}39.34%,to{fill:var(--ce)}}@keyframes c10{34.45%{fill:var(--c1)}34.47%,to{fill:var(--ce)}}@keyframes c11{32.2%{fill:var(--c1)}32.22%,to{fill:var(--ce)}}@keyframes c12{41.56%{fill:var(--c2)}41.58%,to{fill:var(--ce)}}@keyframes c13{36.69%{fill:var(--c1)}36.71%,to{fill:var(--ce)}}@keyframes u0{1.86%{transform:scale(0,1)}1.88%,2.61%{transform:scale(.04,1)}2.63%,2.99%{transform:scale(.09,1)}3.01%,4.48%{transform:scale(.13,1)}4.5%,4.86%{transform:scale(.17,1)}4.88%,6.73%{transform:scale(.22,1)}6.75%,9.35%{transform:scale(.26,1)}13.85%,9.37%{transform:scale(.3,1)}13.87%,14.22%{transform:scale(.35,1)}14.24%,16.47%{transform:scale(.39,1)}16.49%,19.84%{transform:scale(.43,1)}19.86%,21.34%{transform:scale(.48,1)}21.36%,23.96%{transform:scale(.52,1)}23.98%,24.33%{transform:scale(.57,1)}24.35%,29.58%{transform:scale(.61,1)}29.6%,29.95%{transform:scale(.65,1)}29.97%,31.83%{transform:scale(.7,1)}31.85%,32.2%{transform:scale(.74,1)}32.22%,32.95%{transform:scale(.78,1)}32.97%,33.7%{transform:scale(.83,1)}33.72%,34.07%{transform:scale(.87,1)}34.09%,34.45%{transform:scale(.91,1)}34.47%,36.69%{transform:scale(.96,1)}36.71%,to{transform:scale(1,1)}}@keyframes u1{39.32%{transform:scale(0,1)}39.34%,41.56%{transform:scale(.11,1)}41.58%,43.44%{transform:scale(.22,1)}43.46%,50.18%{transform:scale(.33,1)}50.2%,55.8%{transform:scale(.44,1)}55.82%,58.42%{transform:scale(.56,1)}58.44%,60.29%{transform:scale(.67,1)}60.31%,61.04%{transform:scale(.78,1)}61.06%,61.79%{transform:scale(.89,1)}61.81%,to{transform:scale(1,1)}}@keyframes u2{64.03%{transform:scale(0,1)}64.05%,65.91%{transform:scale(.17,1)}65.93%,67.41%{transform:scale(.33,1)}67.43%,67.78%{transform:scale(.5,1)}67.8%,70.03%{transform:scale(.67,1)}70.05%,79.77%{transform:scale(.83,1)}79.79%,to{transform:scale(1,1)}}@keyframes u3{91.38%{transform:scale(0,1)}91.4%,94.37%{transform:scale(.5,1)}94.39%,to{transform:scale(1,1)}}@keyframes s0{0%,99.63%{transform:translate(0,-16px)}.37%{transform:translate(0,0)}2.25%{transform:translate(80px,0)}3%,96.63%{transform:translate(80px,32px)}4.49%{transform:translate(144px,32px)}4.87%{transform:translate(144px,48px)}5.24%{transform:translate(128px,48px)}5.62%{transform:translate(128px,32px)}6.37%{transform:translate(160px,32px)}6.74%,93.63%{transform:translate(160px,16px)}7.12%{transform:translate(176px,16px)}8.61%{transform:translate(176px,80px)}8.99%{transform:translate(160px,80px)}9.36%{transform:translate(160px,96px)}10.11%,58.8%{transform:translate(192px,96px)}10.49%{transform:translate(192px,80px)}11.61%{transform:translate(240px,80px)}12.73%,66.67%{transform:translate(240px,32px)}13.48%{transform:translate(272px,32px)}13.86%,55.06%{transform:translate(272px,16px)}15.73%{transform:translate(352px,16px)}16.48%{transform:translate(352px,48px)}19.48%{transform:translate(480px,48px)}19.85%,22.85%{transform:translate(480px,32px)}20.22%{transform:translate(496px,32px)}20.97%{transform:translate(496px,0)}21.72%{transform:translate(464px,0)}22.47%{transform:translate(464px,32px)}24.34%{transform:translate(480px,96px)}28.84%{transform:translate(672px,96px)}29.59%{transform:translate(672px,64px)}30.34%,43.82%{transform:translate(704px,64px)}30.71%{transform:translate(704px,80px)}32.21%{transform:translate(768px,80px)}32.58%{transform:translate(768px,64px)}32.96%,42.7%{transform:translate(752px,64px)}34.08%{transform:translate(752px,16px)}35.96%{transform:translate(832px,16px)}36.7%{transform:translate(832px,48px)}37.08%{transform:translate(816px,48px)}38.2%{transform:translate(816px,0)}39.33%{transform:translate(768px,0)}41.57%{transform:translate(768px,96px)}41.95%{transform:translate(752px,96px)}44.94%,80.9%{transform:translate(704px,16px)}56.18%{transform:translate(272px,64px)}57.68%{transform:translate(208px,64px)}58.43%{transform:translate(208px,96px)}59.55%{transform:translate(192px,64px)}60.67%{transform:translate(144px,64px)}61.05%{transform:translate(144px,80px)}61.42%{transform:translate(128px,80px)}61.8%{transform:translate(128px,96px)}64.79%{transform:translate(256px,96px)}66.29%{transform:translate(256px,32px)}67.42%{transform:translate(240px,0)}69.29%{transform:translate(320px,0)}70.04%{transform:translate(320px,32px)}79.4%{transform:translate(720px,32px)}79.78%{transform:translate(720px,48px)}80.15%{transform:translate(704px,48px)}94.38%{transform:translate(160px,48px)}95.88%{transform:translate(96px,48px)}96.25%{transform:translate(96px,32px)}97%{transform:translate(80px,16px)}97.38%{transform:translate(64px,16px)}97.75%{transform:translate(64px,0)}98.13%{transform:translate(48px,0)}98.5%{transform:translate(48px,-16px)}}@keyframes s1{0%,99.63%{transform:translate(16px,-16px)}.37%{transform:translate(0,-16px)}.75%{transform:translate(0,0)}2.62%{transform:translate(80px,0)}3.37%,97%{transform:translate(80px,32px)}4.87%{transform:translate(144px,32px)}5.24%{transform:translate(144px,48px)}5.62%{transform:translate(128px,48px)}5.99%{transform:translate(128px,32px)}6.74%{transform:translate(160px,32px)}7.12%,94.01%{transform:translate(160px,16px)}7.49%{transform:translate(176px,16px)}8.99%{transform:translate(176px,80px)}9.36%{transform:translate(160px,80px)}9.74%{transform:translate(160px,96px)}10.49%,59.18%{transform:translate(192px,96px)}10.86%{transform:translate(192px,80px)}11.99%{transform:translate(240px,80px)}13.11%,67.04%{transform:translate(240px,32px)}13.86%{transform:translate(272px,32px)}14.23%,55.43%{transform:translate(272px,16px)}16.1%{transform:translate(352px,16px)}16.85%{transform:translate(352px,48px)}19.85%{transform:translate(480px,48px)}20.22%,23.22%{transform:translate(480px,32px)}20.6%{transform:translate(496px,32px)}21.35%{transform:translate(496px,0)}22.1%{transform:translate(464px,0)}22.85%{transform:translate(464px,32px)}24.72%{transform:translate(480px,96px)}29.21%{transform:translate(672px,96px)}29.96%{transform:translate(672px,64px)}30.71%,44.19%{transform:translate(704px,64px)}31.09%{transform:translate(704px,80px)}32.58%{transform:translate(768px,80px)}32.96%{transform:translate(768px,64px)}33.33%,43.07%{transform:translate(752px,64px)}34.46%{transform:translate(752px,16px)}36.33%{transform:translate(832px,16px)}37.08%{transform:translate(832px,48px)}37.45%{transform:translate(816px,48px)}38.58%{transform:translate(816px,0)}39.7%{transform:translate(768px,0)}41.95%{transform:translate(768px,96px)}42.32%{transform:translate(752px,96px)}45.32%,81.27%{transform:translate(704px,16px)}56.55%{transform:translate(272px,64px)}58.05%{transform:translate(208px,64px)}58.8%{transform:translate(208px,96px)}59.93%{transform:translate(192px,64px)}61.05%{transform:translate(144px,64px)}61.42%{transform:translate(144px,80px)}61.8%{transform:translate(128px,80px)}62.17%{transform:translate(128px,96px)}65.17%{transform:translate(256px,96px)}66.67%{transform:translate(256px,32px)}67.79%{transform:translate(240px,0)}69.66%{transform:translate(320px,0)}70.41%{transform:translate(320px,32px)}79.78%{transform:translate(720px,32px)}80.15%{transform:translate(720px,48px)}80.52%{transform:translate(704px,48px)}94.76%{transform:translate(160px,48px)}96.25%{transform:translate(96px,48px)}96.63%{transform:translate(96px,32px)}97.38%{transform:translate(80px,16px)}97.75%{transform:translate(64px,16px)}98.13%{transform:translate(64px,0)}98.5%{transform:translate(48px,0)}98.88%{transform:translate(48px,-16px)}}@keyframes s2{0%,99.63%{transform:translate(32px,-16px)}.75%{transform:translate(0,-16px)}1.12%{transform:translate(0,0)}3%{transform:translate(80px,0)}3.75%,97.38%{transform:translate(80px,32px)}5.24%{transform:translate(144px,32px)}5.62%{transform:translate(144px,48px)}5.99%{transform:translate(128px,48px)}6.37%{transform:translate(128px,32px)}7.12%{transform:translate(160px,32px)}7.49%,94.38%{transform:translate(160px,16px)}7.87%{transform:translate(176px,16px)}9.36%{transform:translate(176px,80px)}9.74%{transform:translate(160px,80px)}10.11%{transform:translate(160px,96px)}10.86%,59.55%{transform:translate(192px,96px)}11.24%{transform:translate(192px,80px)}12.36%{transform:translate(240px,80px)}13.48%,67.42%{transform:translate(240px,32px)}14.23%{transform:translate(272px,32px)}14.61%,55.81%{transform:translate(272px,16px)}16.48%{transform:translate(352px,16px)}17.23%{transform:translate(352px,48px)}20.22%{transform:translate(480px,48px)}20.6%,23.6%{transform:translate(480px,32px)}20.97%{transform:translate(496px,32px)}21.72%{transform:translate(496px,0)}22.47%{transform:translate(464px,0)}23.22%{transform:translate(464px,32px)}25.09%{transform:translate(480px,96px)}29.59%{transform:translate(672px,96px)}30.34%{transform:translate(672px,64px)}31.09%,44.57%{transform:translate(704px,64px)}31.46%{transform:translate(704px,80px)}32.96%{transform:translate(768px,80px)}33.33%{transform:translate(768px,64px)}33.71%,43.45%{transform:translate(752px,64px)}34.83%{transform:translate(752px,16px)}36.7%{transform:translate(832px,16px)}37.45%{transform:translate(832px,48px)}37.83%{transform:translate(816px,48px)}38.95%{transform:translate(816px,0)}40.07%{transform:translate(768px,0)}42.32%{transform:translate(768px,96px)}42.7%{transform:translate(752px,96px)}45.69%,81.65%{transform:translate(704px,16px)}56.93%{transform:translate(272px,64px)}58.43%{transform:translate(208px,64px)}59.18%{transform:translate(208px,96px)}60.3%{transform:translate(192px,64px)}61.42%{transform:translate(144px,64px)}61.8%{transform:translate(144px,80px)}62.17%{transform:translate(128px,80px)}62.55%{transform:translate(128px,96px)}65.54%{transform:translate(256px,96px)}67.04%{transform:translate(256px,32px)}68.16%{transform:translate(240px,0)}70.04%{transform:translate(320px,0)}70.79%{transform:translate(320px,32px)}80.15%{transform:translate(720px,32px)}80.52%{transform:translate(720px,48px)}80.9%{transform:translate(704px,48px)}95.13%{transform:translate(160px,48px)}96.63%{transform:translate(96px,48px)}97%{transform:translate(96px,32px)}97.75%{transform:translate(80px,16px)}98.13%{transform:translate(64px,16px)}98.5%{transform:translate(64px,0)}98.88%{transform:translate(48px,0)}99.25%{transform:translate(48px,-16px)}}@keyframes s3{0%,99.63%{transform:translate(48px,-16px)}1.12%{transform:translate(0,-16px)}1.5%{transform:translate(0,0)}3.37%{transform:translate(80px,0)}4.12%,97.75%{transform:translate(80px,32px)}5.62%{transform:translate(144px,32px)}5.99%{transform:translate(144px,48px)}6.37%{transform:translate(128px,48px)}6.74%{transform:translate(128px,32px)}7.49%{transform:translate(160px,32px)}7.87%,94.76%{transform:translate(160px,16px)}8.24%{transform:translate(176px,16px)}9.74%{transform:translate(176px,80px)}10.11%{transform:translate(160px,80px)}10.49%{transform:translate(160px,96px)}11.24%,59.93%{transform:translate(192px,96px)}11.61%{transform:translate(192px,80px)}12.73%{transform:translate(240px,80px)}13.86%,67.79%{transform:translate(240px,32px)}14.61%{transform:translate(272px,32px)}14.98%,56.18%{transform:translate(272px,16px)}16.85%{transform:translate(352px,16px)}17.6%{transform:translate(352px,48px)}20.6%{transform:translate(480px,48px)}20.97%,23.97%{transform:translate(480px,32px)}21.35%{transform:translate(496px,32px)}22.1%{transform:translate(496px,0)}22.85%{transform:translate(464px,0)}23.6%{transform:translate(464px,32px)}25.47%{transform:translate(480px,96px)}29.96%{transform:translate(672px,96px)}30.71%{transform:translate(672px,64px)}31.46%,44.94%{transform:translate(704px,64px)}31.84%{transform:translate(704px,80px)}33.33%{transform:translate(768px,80px)}33.71%{transform:translate(768px,64px)}34.08%,43.82%{transform:translate(752px,64px)}35.21%{transform:translate(752px,16px)}37.08%{transform:translate(832px,16px)}37.83%{transform:translate(832px,48px)}38.2%{transform:translate(816px,48px)}39.33%{transform:translate(816px,0)}40.45%{transform:translate(768px,0)}42.7%{transform:translate(768px,96px)}43.07%{transform:translate(752px,96px)}46.07%,82.02%{transform:translate(704px,16px)}57.3%{transform:translate(272px,64px)}58.8%{transform:translate(208px,64px)}59.55%{transform:translate(208px,96px)}60.67%{transform:translate(192px,64px)}61.8%{transform:translate(144px,64px)}62.17%{transform:translate(144px,80px)}62.55%{transform:translate(128px,80px)}62.92%{transform:translate(128px,96px)}65.92%{transform:translate(256px,96px)}67.42%{transform:translate(256px,32px)}68.54%{transform:translate(240px,0)}70.41%{transform:translate(320px,0)}71.16%{transform:translate(320px,32px)}80.52%{transform:translate(720px,32px)}80.9%{transform:translate(720px,48px)}81.27%{transform:translate(704px,48px)}95.51%{transform:translate(160px,48px)}97%{transform:translate(96px,48px)}97.38%{transform:translate(96px,32px)}98.13%{transform:translate(80px,16px)}98.5%{transform:translate(64px,16px)}98.88%{transform:translate(64px,0)}99.25%{transform:translate(48px,0)}}:root{--cb:#1b1f230a;--cs:purple;--ce:#ebedf0;--c0:#ebedf0;--c1:#9be9a8;--c2:#40c463;--c3:#30a14e;--c4:#216e39}@media (prefers-color-scheme:dark){:root{--cb:#1b1f230a;--cs:purple;--ce:#161b22;--c1:#01311f;--c2:#034525;--c3:#0f6d31;--c4:#00c647}}.c{shape-rendering:geometricPrecision;fill:var(--ce);stroke-width:1px;stroke:var(--cb);animation:none 26700ms linear infinite}.c.c0,.c.c1,.c.c2{fill:var(--c1);animation-name:c0}.c.c1,.c.c2{animation-name:c1}.c.c2{animation-name:c2}.c.c3{fill:var(--c2);animation-name:c3}.c.c4,.c.c5{fill:var(--c1);animation-name:c4}.c.c5{animation-name:c5}.c.c6{fill:var(--c2);animation-name:c6}.c.c7{fill:var(--c1);animation-name:c7}.c.c8{fill:var(--c4);animation-name:c8}.c.c9{fill:var(--c2);animation-name:c9}.c.ca{fill:var(--c1);animation-name:ca}.c.cb{fill:var(--c2);animation-name:cb}.c.cc,.c.cd,.c.ce{fill:var(--c3);animation-name:cc}.c.cd,.c.ce{animation-name:cd}.c.ce{animation-name:ce}.c.cf{fill:var(--c4);animation-name:cf}.c.cg{fill:var(--c3);animation-name:cg}.c.ch{fill:var(--c1);animation-name:ch}.c.ci{fill:var(--c2);animation-name:ci}.c.cj{fill:var(--c1);animation-name:cj}.c.ck{fill:var(--c3);animation-name:ck}.c.cl,.c.cm{fill:var(--c1);animation-name:cl}.c.cm{animation-name:cm}.c.cn{fill:var(--c2);animation-name:cn}.c.co,.c.cp{fill:var(--c1);animation-name:co}.c.cp{animation-name:cp}.c.cq,.c.cr,.c.cs{fill:var(--c1);animation-name:cq}.c.cr,.c.cs{animation-name:cr}.c.cs{animation-name:cs}.c.ct{fill:var(--c3);animation-name:ct}.c.cu{fill:var(--c2);animation-name:cu}.c.cv{fill:var(--c1);animation-name:cv}.c.cw,.c.cx,.c.cy{fill:var(--c1);animation-name:cw}.c.cx,.c.cy{animation-name:cx}.c.cy{animation-name:cy}.c.cz{fill:var(--c2);animation-name:cz}.c.c10,.c.c11{fill:var(--c1);animation-name:c10}.c.c11{animation-name:c11}.c.c12{fill:var(--c2);animation-name:c12}.c.c13{fill:var(--c1);animation-name:c13}.s,.u{animation:none linear 26700ms infinite}.u,.u.u0{transform-origin:0 0}.u{transform:scale(0,1)}.u.u0{fill:var(--c1);animation-name:u0}.u.u1{fill:var(--c2);animation-name:u1;transform-origin:487.6px 0}.u.u2{fill:var(--c3);animation-name:u2;transform-origin:678.4px 0}.u.u3{fill:var(--c4);animation-name:u3;transform-origin:805.6px 0}.s{shape-rendering:geometricPrecision;fill:var(--cs)}.s.s0{transform:translate(0,-16px);animation-name:s0}.s.s1{transform:translate(16px,-16px);animation-name:s1}.s.s2{transform:translate(32px,-16px);animation-name:s2}.s.s3{transform:translate(48px,-16px);animation-name:s3}</style><rect class="c" x="2" y="2" rx="2" ry="2" width="12" height="12"/><rect class="c" x="2" y="18" rx="2" ry="2" width="12" height="12"/><rect class="c" x="2" y="34" rx="2" ry="2" width="12" height="12"/><rect class="c" x="2" y="50" rx="2" ry="2" width="12" height="12"/><rect class="c" x="2" y="66" rx="2" ry="2" width="12" height="12"/><rect class="c" x="2" y="82" rx="2" ry="2" width="12" height="12"/><rect class="c" x="2" y="98" rx="2" ry="2" width="12" height="12"/><rect class="c" x="18" y="2" rx="2" ry="2" width="12" height="12"/><rect class="c" x="18" y="18" rx="2" ry="2" width="12" height="12"/><rect class="c" x="18" y="34" rx="2" ry="2" width="12" height="12"/><rect class="c" x="18" y="50" rx="2" ry="2" width="12" height="12"/><rect class="c" x="18" y="66" rx="2" ry="2" width="12" height="12"/><rect class="c" x="18" y="82" rx="2" ry="2" width="12" height="12"/><rect class="c" x="18" y="98" rx="2" ry="2" width="12" height="12"/><rect class="c" x="34" y="2" rx="2" ry="2" width="12" height="12"/><rect class="c" x="34" y="18" rx="2" ry="2" width="12" height="12"/><rect class="c" x="34" y="34" rx="2" ry="2" width="12" height="12"/><rect class="c" x="34" y="50" rx="2" ry="2" width="12" height="12"/><rect class="c" x="34" y="66" rx="2" ry="2" width="12" height="12"/><rect class="c" x="34" y="82" rx="2" ry="2" width="12" height="12"/><rect class="c" x="34" y="98" rx="2" ry="2" width="12" height="12"/><rect class="c" x="50" y="2" rx="2" ry="2" width="12" height="12"/><rect class="c" x="50" y="18" rx="2" ry="2" width="12" height="12"/><rect class="c" x="50" y="34" rx="2" ry="2" width="12" height="12"/><rect class="c" x="50" y="50" rx="2" ry="2" width="12" height="12"/><rect class="c" x="50" y="66" rx="2" ry="2" width="12" height="12"/><rect class="c" x="50" y="82" rx="2" ry="2" width="12" height="12"/><rect class="c" x="50" y="98" rx="2" ry="2" width="12" height="12"/><rect class="c c0" x="66" y="2" rx="2" ry="2" width="12" height="12"/><rect class="c" x="66" y="18" rx="2" ry="2" width="12" height="12"/><rect class="c" x="66" y="34" rx="2" ry="2" width="12" height="12"/><rect class="c" x="66" y="50" rx="2" ry="2" width="12" height="12"/><rect class="c" x="66" y="66" rx="2" ry="2" width="12" height="12"/><rect class="c" x="66" y="82" rx="2" ry="2" width="12" height="12"/><rect class="c" x="66" y="98" rx="2" ry="2" width="12" height="12"/><rect class="c" x="82" y="2" rx="2" ry="2" width="12" height="12"/><rect class="c c1" x="82" y="18" rx="2" ry="2" width="12" height="12"/><rect class="c c2" x="82" y="34" rx="2" ry="2" width="12" height="12"/><rect class="c" x="82" y="50" rx="2" ry="2" width="12" height="12"/><rect class="c" x="82" y="66" rx="2" ry="2" width="12" height="12"/><rect class="c" x="82" y="82" rx="2" ry="2" width="12" height="12"/><rect class="c" x="82" y="98" rx="2" ry="2" width="12" height="12"/><rect class="c" x="98" y="2" rx="2" ry="2" width="12" height="12"/><rect class="c" x="98" y="18" rx="2" ry="2" width="12" height="12"/><rect class="c" x="98" y="34" rx="2" ry="2" width="12" height="12"/><rect class="c" x="98" y="50" rx="2" ry="2" width="12" height="12"/><rect class="c" x="98" y="66" rx="2" ry="2" width="12" height="12"/><rect class="c" x="98" y="82" rx="2" ry="2" width="12" height="12"/><rect class="c" x="98" y="98" rx="2" ry="2" width="12" height="12"/><rect class="c" x="114" y="2" rx="2" ry="2" width="12" height="12"/><rect class="c" x="114" y="18" rx="2" ry="2" width="12" height="12"/><rect class="c" x="114" y="34" rx="2" ry="2" width="12" height="12"/><rect class="c" x="114" y="50" rx="2" ry="2" width="12" height="12"/><rect class="c" x="114" y="66" rx="2" ry="2" width="12" height="12"/><rect class="c" x="114" y="82" rx="2" ry="2" width="12" height="12"/><rect class="c" x="114" y="98" rx="2" ry="2" width="12" height="12"/><rect class="c" x="130" y="2" rx="2" ry="2" width="12" height="12"/><rect class="c" x="130" y="18" rx="2" ry="2" width="12" height="12"/><rect class="c" x="130" y="34" rx="2" ry="2" width="12" height="12"/><rect class="c" x="130" y="50" rx="2" ry="2" width="12" height="12"/><rect class="c" x="130" y="66" rx="2" ry="2" width="12" height="12"/><rect class="c" x="130" y="82" rx="2" ry="2" width="12" height="12"/><rect class="c c3" x="130" y="98" rx="2" ry="2" width="12" height="12"/><rect class="c" x="146" y="2" rx="2" ry="2" width="12" height="12"/><rect class="c" x="146" y="18" rx="2" ry="2" width="12" height="12"/><rect class="c c4" x="146" y="34" rx="2" ry="2" width="12" height="12"/><rect class="c c5" x="146" y="50" rx="2" ry="2" width="12" height="12"/><rect class="c" x="146" y="66" rx="2" ry="2" width="12" height="12"/><rect class="c c6" x="146" y="82" rx="2" ry="2" width="12" height="12"/><rect class="c" x="146" y="98" rx="2" ry="2" width="12" height="12"/><rect class="c" x="162" y="2" rx="2" ry="2" width="12" height="12"/><rect class="c c7" x="162" y="18" rx="2" ry="2" width="12" height="12"/><rect class="c" x="162" y="34" rx="2" ry="2" width="12" height="12"/><rect class="c c8" x="162" y="50" rx="2" ry="2" width="12" height="12"/><rect class="c c9" x="162" y="66" rx="2" ry="2" width="12" height="12"/><rect class="c" x="162" y="82" rx="2" ry="2" width="12" height="12"/><rect class="c ca" x="162" y="98" rx="2" ry="2" width="12" height="12"/><rect class="c" x="178" y="2" rx="2" ry="2" width="12" height="12"/><rect class="c" x="178" y="18" rx="2" ry="2" width="12" height="12"/><rect class="c" x="178" y="34" rx="2" ry="2" width="12" height="12"/><rect class="c" x="178" y="50" rx="2" ry="2" width="12" height="12"/><rect class="c" x="178" y="66" rx="2" ry="2" width="12" height="12"/><rect class="c" x="178" y="82" rx="2" ry="2" width="12" height="12"/><rect class="c" x="178" y="98" rx="2" ry="2" width="12" height="12"/><rect class="c" x="194" y="2" rx="2" ry="2" width="12" height="12"/><rect class="c" x="194" y="18" rx="2" ry="2" width="12" height="12"/><rect class="c" x="194" y="34" rx="2" ry="2" width="12" height="12"/><rect class="c" x="194" y="50" rx="2" ry="2" width="12" height="12"/><rect class="c" x="194" y="66" rx="2" ry="2" width="12" height="12"/><rect class="c" x="194" y="82" rx="2" ry="2" width="12" height="12"/><rect class="c" x="194" y="98" rx="2" ry="2" width="12" height="12"/><rect class="c" x="210" y="2" rx="2" ry="2" width="12" height="12"/><rect class="c" x="210" y="18" rx="2" ry="2" width="12" height="12"/><rect class="c" x="210" y="34" rx="2" ry="2" width="12" height="12"/><rect class="c" x="210" y="50" rx="2" ry="2" width="12" height="12"/><rect class="c" x="210" y="66" rx="2" ry="2" width="12" height="12"/><rect class="c" x="210" y="82" rx="2" ry="2" width="12" height="12"/><rect class="c cb" x="210" y="98" rx="2" ry="2" width="12" height="12"/><rect class="c" x="226" y="2" rx="2" ry="2" width="12" height="12"/><rect class="c" x="226" y="18" rx="2" ry="2" width="12" height="12"/><rect class="c" x="226" y="34" rx="2" ry="2" width="12" height="12"/><rect class="c" x="226" y="50" rx="2" ry="2" width="12" height="12"/><rect class="c" x="226" y="66" rx="2" ry="2" width="12" height="12"/><rect class="c" x="226" y="82" rx="2" ry="2" width="12" height="12"/><rect class="c cc" x="226" y="98" rx="2" ry="2" width="12" height="12"/><rect class="c cd" x="242" y="2" rx="2" ry="2" width="12" height="12"/><rect class="c" x="242" y="18" rx="2" ry="2" width="12" height="12"/><rect class="c" x="242" y="34" rx="2" ry="2" width="12" height="12"/><rect class="c" x="242" y="50" rx="2" ry="2" width="12" height="12"/><rect class="c" x="242" y="66" rx="2" ry="2" width="12" height="12"/><rect class="c" x="242" y="82" rx="2" ry="2" width="12" height="12"/><rect class="c" x="242" y="98" rx="2" ry="2" width="12" height="12"/><rect class="c ce" x="258" y="2" rx="2" ry="2" width="12" height="12"/><rect class="c cf" x="258" y="18" rx="2" ry="2" width="12" height="12"/><rect class="c" x="258" y="34" rx="2" ry="2" width="12" height="12"/><rect class="c cg" x="258" y="50" rx="2" ry="2" width="12" height="12"/><rect class="c" x="258" y="66" rx="2" ry="2" width="12" height="12"/><rect class="c" x="258" y="82" rx="2" ry="2" width="12" height="12"/><rect class="c" x="258" y="98" rx="2" ry="2" width="12" height="12"/><rect class="c" x="274" y="2" rx="2" ry="2" width="12" height="12"/><rect class="c ch" x="274" y="18" rx="2" ry="2" width="12" height="12"/><rect class="c" x="274" y="34" rx="2" ry="2" width="12" height="12"/><rect class="c ci" x="274" y="50" rx="2" ry="2" width="12" height="12"/><rect class="c" x="274" y="66" rx="2" ry="2" width="12" height="12"/><rect class="c" x="274" y="82" rx="2" ry="2" width="12" height="12"/><rect class="c" x="274" y="98" rx="2" ry="2" width="12" height="12"/><rect class="c" x="290" y="2" rx="2" ry="2" width="12" height="12"/><rect class="c cj" x="290" y="18" rx="2" ry="2" width="12" height="12"/><rect class="c" x="290" y="34" rx="2" ry="2" width="12" height="12"/><rect class="c" x="290" y="50" rx="2" ry="2" width="12" height="12"/><rect class="c" x="290" y="66" rx="2" ry="2" width="12" height="12"/><rect class="c" x="290" y="82" rx="2" ry="2" width="12" height="12"/><rect class="c" x="290" y="98" rx="2" ry="2" width="12" height="12"/><rect class="c" x="306" y="2" rx="2" ry="2" width="12" height="12"/><rect class="c" x="306" y="18" rx="2" ry="2" width="12" height="12"/><rect class="c" x="306" y="34" rx="2" ry="2" width="12" height="12"/><rect class="c" x="306" y="50" rx="2" ry="2" width="12" height="12"/><rect class="c" x="306" y="66" rx="2" ry="2" width="12" height="12"/><rect class="c" x="306" y="82" rx="2" ry="2" width="12" height="12"/><rect class="c" x="306" y="98" rx="2" ry="2" width="12" height="12"/><rect class="c" x="322" y="2" rx="2" ry="2" width="12" height="12"/><rect class="c" x="322" y="18" rx="2" ry="2" width="12" height="12"/><rect class="c ck" x="322" y="34" rx="2" ry="2" width="12" height="12"/><rect class="c" x="322" y="50" rx="2" ry="2" width="12" height="12"/><rect class="c" x="322" y="66" rx="2" ry="2" width="12" height="12"/><rect class="c" x="322" y="82" rx="2" ry="2" width="12" height="12"/><rect class="c" x="322" y="98" rx="2" ry="2" width="12" height="12"/><rect class="c" x="338" y="2" rx="2" ry="2" width="12" height="12"/><rect class="c" x="338" y="18" rx="2" ry="2" width="12" height="12"/><rect class="c" x="338" y="34" rx="2" ry="2" width="12" height="12"/><rect class="c" x="338" y="50" rx="2" ry="2" width="12" height="12"/><rect class="c" x="338" y="66" rx="2" ry="2" width="12" height="12"/><rect class="c" x="338" y="82" rx="2" ry="2" width="12" height="12"/><rect class="c" x="338" y="98" rx="2" ry="2" width="12" height="12"/><rect class="c" x="354" y="2" rx="2" ry="2" width="12" height="12"/><rect class="c" x="354" y="18" rx="2" ry="2" width="12" height="12"/><rect class="c" x="354" y="34" rx="2" ry="2" width="12" height="12"/><rect class="c cl" x="354" y="50" rx="2" ry="2" width="12" height="12"/><rect class="c" x="354" y="66" rx="2" ry="2" width="12" height="12"/><rect class="c" x="354" y="82" rx="2" ry="2" width="12" height="12"/><rect class="c" x="354" y="98" rx="2" ry="2" width="12" height="12"/><rect class="c" x="370" y="2" rx="2" ry="2" width="12" height="12"/><rect class="c" x="370" y="18" rx="2" ry="2" width="12" height="12"/><rect class="c" x="370" y="34" rx="2" ry="2" width="12" height="12"/><rect class="c" x="370" y="50" rx="2" ry="2" width="12" height="12"/><rect class="c" x="370" y="66" rx="2" ry="2" width="12" height="12"/><rect class="c" x="370" y="82" rx="2" ry="2" width="12" height="12"/><rect class="c" x="370" y="98" rx="2" ry="2" width="12" height="12"/><rect class="c" x="386" y="2" rx="2" ry="2" width="12" height="12"/><rect class="c" x="386" y="18" rx="2" ry="2" width="12" height="12"/><rect class="c" x="386" y="34" rx="2" ry="2" width="12" height="12"/><rect class="c" x="386" y="50" rx="2" ry="2" width="12" height="12"/><rect class="c" x="386" y="66" rx="2" ry="2" width="12" height="12"/><rect class="c" x="386" y="82" rx="2" ry="2" width="12" height="12"/><rect class="c" x="386" y="98" rx="2" ry="2" width="12" height="12"/><rect class="c" x="402" y="2" rx="2" ry="2" width="12" height="12"/><rect class="c" x="402" y="18" rx="2" ry="2" width="12" height="12"/><rect class="c" x="402" y="34" rx="2" ry="2" width="12" height="12"/><rect class="c" x="402" y="50" rx="2" ry="2" width="12" height="12"/><rect class="c" x="402" y="66" rx="2" ry="2" width="12" height="12"/><rect class="c" x="402" y="82" rx="2" ry="2" width="12" height="12"/><rect class="c" x="402" y="98" rx="2" ry="2" width="12" height="12"/><rect class="c" x="418" y="2" rx="2" ry="2" width="12" height="12"/><rect class="c" x="418" y="18" rx="2" ry="2" width="12" height="12"/><rect class="c" x="418" y="34" rx="2" ry="2" width="12" height="12"/><rect class="c" x="418" y="50" rx="2" ry="2" width="12" height="12"/><rect class="c" x="418" y="66" rx="2" ry="2" width="12" height="12"/><rect class="c" x="418" y="82" rx="2" ry="2" width="12" height="12"/><rect class="c" x="418" y="98" rx="2" ry="2" width="12" height="12"/><rect class="c" x="434" y="2" rx="2" ry="2" width="12" height="12"/><rect class="c" x="434" y="18" rx="2" ry="2" width="12" height="12"/><rect class="c" x="434" y="34" rx="2" ry="2" width="12" height="12"/><rect class="c" x="434" y="50" rx="2" ry="2" width="12" height="12"/><rect class="c" x="434" y="66" rx="2" ry="2" width="12" height="12"/><rect class="c" x="434" y="82" rx="2" ry="2" width="12" height="12"/><rect class="c" x="434" y="98" rx="2" ry="2" width="12" height="12"/><rect class="c" x="450" y="2" rx="2" ry="2" width="12" height="12"/><rect class="c" x="450" y="18" rx="2" ry="2" width="12" height="12"/><rect class="c" x="450" y="34" rx="2" ry="2" width="12" height="12"/><rect class="c" x="450" y="50" rx="2" ry="2" width="12" height="12"/><rect class="c" x="450" y="66" rx="2" ry="2" width="12" height="12"/><rect class="c" x="450" y="82" rx="2" ry="2" width="12" height="12"/><rect class="c" x="450" y="98" rx="2" ry="2" width="12" height="12"/><rect class="c" x="466" y="2" rx="2" ry="2" width="12" height="12"/><rect class="c" x="466" y="18" rx="2" ry="2" width="12" height="12"/><rect class="c" x="466" y="34" rx="2" ry="2" width="12" height="12"/><rect class="c" x="466" y="50" rx="2" ry="2" width="12" height="12"/><rect class="c" x="466" y="66" rx="2" ry="2" width="12" height="12"/><rect class="c" x="466" y="82" rx="2" ry="2" width="12" height="12"/><rect class="c" x="466" y="98" rx="2" ry="2" width="12" height="12"/><rect class="c cm" x="482" y="2" rx="2" ry="2" width="12" height="12"/><rect class="c cn" x="482" y="18" rx="2" ry="2" width="12" height="12"/><rect class="c co" x="482" y="34" rx="2" ry="2" width="12" height="12"/><rect class="c" x="482" y="50" rx="2" ry="2" width="12" height="12"/><rect class="c" x="482" y="66" rx="2" ry="2" width="12" height="12"/><rect class="c cp" x="482" y="82" rx="2" ry="2" width="12" height="12"/><rect class="c cq" x="482" y="98" rx="2" ry="2" width="12" height="12"/><rect class="c" x="498" y="2" rx="2" ry="2" width="12" height="12"/><rect class="c" x="498" y="18" rx="2" ry="2" width="12" height="12"/><rect class="c" x="498" y="34" rx="2" ry="2" width="12" height="12"/><rect class="c" x="498" y="50" rx="2" ry="2" width="12" height="12"/><rect class="c" x="498" y="66" rx="2" ry="2" width="12" height="12"/><rect class="c" x="498" y="82" rx="2" ry="2" width="12" height="12"/><rect class="c" x="498" y="98" rx="2" ry="2" width="12" height="12"/><rect class="c" x="514" y="2" rx="2" ry="2" width="12" height="12"/><rect class="c" x="514" y="18" rx="2" ry="2" width="12" height="12"/><rect class="c" x="514" y="34" rx="2" ry="2" width="12" height="12"/><rect class="c" x="514" y="50" rx="2" ry="2" width="12" height="12"/><rect class="c" x="514" y="66" rx="2" ry="2" width="12" height="12"/><rect class="c" x="514" y="82" rx="2" ry="2" width="12" height="12"/><rect class="c" x="514" y="98" rx="2" ry="2" width="12" height="12"/><rect class="c" x="530" y="2" rx="2" ry="2" width="12" height="12"/><rect class="c" x="530" y="18" rx="2" ry="2" width="12" height="12"/><rect class="c" x="530" y="34" rx="2" ry="2" width="12" height="12"/><rect class="c" x="530" y="50" rx="2" ry="2" width="12" height="12"/><rect class="c" x="530" y="66" rx="2" ry="2" width="12" height="12"/><rect class="c" x="530" y="82" rx="2" ry="2" width="12" height="12"/><rect class="c" x="530" y="98" rx="2" ry="2" width="12" height="12"/><rect class="c" x="546" y="2" rx="2" ry="2" width="12" height="12"/><rect class="c" x="546" y="18" rx="2" ry="2" width="12" height="12"/><rect class="c" x="546" y="34" rx="2" ry="2" width="12" height="12"/><rect class="c" x="546" y="50" rx="2" ry="2" width="12" height="12"/><rect class="c" x="546" y="66" rx="2" ry="2" width="12" height="12"/><rect class="c" x="546" y="82" rx="2" ry="2" width="12" height="12"/><rect class="c" x="546" y="98" rx="2" ry="2" width="12" height="12"/><rect class="c" x="562" y="2" rx="2" ry="2" width="12" height="12"/><rect class="c" x="562" y="18" rx="2" ry="2" width="12" height="12"/><rect class="c" x="562" y="34" rx="2" ry="2" width="12" height="12"/><rect class="c" x="562" y="50" rx="2" ry="2" width="12" height="12"/><rect class="c" x="562" y="66" rx="2" ry="2" width="12" height="12"/><rect class="c" x="562" y="82" rx="2" ry="2" width="12" height="12"/><rect class="c" x="562" y="98" rx="2" ry="2" width="12" height="12"/><rect class="c" x="578" y="2" rx="2" ry="2" width="12" height="12"/><rect class="c" x="578" y="18" rx="2" ry="2" width="12" height="12"/><rect class="c" x="578" y="34" rx="2" ry="2" width="12" height="12"/><rect class="c" x="578" y="50" rx="2" ry="2" width="12" height="12"/><rect class="c" x="578" y="66" rx="2" ry="2" width="12" height="12"/><rect class="c" x="578" y="82" rx="2" ry="2" width="12" height="12"/><rect class="c" x="578" y="98" rx="2" ry="2" width="12" height="12"/><rect class="c" x="594" y="2" rx="2" ry="2" width="12" height="12"/><rect class="c" x="594" y="18" rx="2" ry="2" width="12" height="12"/><rect class="c" x="594" y="34" rx="2" ry="2" width="12" height="12"/><rect class="c" x="594" y="50" rx="2" ry="2" width="12" height="12"/><rect class="c" x="594" y="66" rx="2" ry="2" width="12" height="12"/><rect class="c" x="594" y="82" rx="2" ry="2" width="12" height="12"/><rect class="c" x="594" y="98" rx="2" ry="2" width="12" height="12"/><rect class="c" x="610" y="2" rx="2" ry="2" width="12" height="12"/><rect class="c" x="610" y="18" rx="2" ry="2" width="12" height="12"/><rect class="c" x="610" y="34" rx="2" ry="2" width="12" height="12"/><rect class="c" x="610" y="50" rx="2" ry="2" width="12" height="12"/><rect class="c" x="610" y="66" rx="2" ry="2" width="12" height="12"/><rect class="c" x="610" y="82" rx="2" ry="2" width="12" height="12"/><rect class="c" x="610" y="98" rx="2" ry="2" width="12" height="12"/><rect class="c" x="626" y="2" rx="2" ry="2" width="12" height="12"/><rect class="c" x="626" y="18" rx="2" ry="2" width="12" height="12"/><rect class="c" x="626" y="34" rx="2" ry="2" width="12" height="12"/><rect class="c" x="626" y="50" rx="2" ry="2" width="12" height="12"/><rect class="c" x="626" y="66" rx="2" ry="2" width="12" height="12"/><rect class="c" x="626" y="82" rx="2" ry="2" width="12" height="12"/><rect class="c" x="626" y="98" rx="2" ry="2" width="12" height="12"/><rect class="c" x="642" y="2" rx="2" ry="2" width="12" height="12"/><rect class="c" x="642" y="18" rx="2" ry="2" width="12" height="12"/><rect class="c" x="642" y="34" rx="2" ry="2" width="12" height="12"/><rect class="c" x="642" y="50" rx="2" ry="2" width="12" height="12"/><rect class="c" x="642" y="66" rx="2" ry="2" width="12" height="12"/><rect class="c" x="642" y="82" rx="2" ry="2" width="12" height="12"/><rect class="c" x="642" y="98" rx="2" ry="2" width="12" height="12"/><rect class="c" x="658" y="2" rx="2" ry="2" width="12" height="12"/><rect class="c" x="658" y="18" rx="2" ry="2" width="12" height="12"/><rect class="c" x="658" y="34" rx="2" ry="2" width="12" height="12"/><rect class="c" x="658" y="50" rx="2" ry="2" width="12" height="12"/><rect class="c" x="658" y="66" rx="2" ry="2" width="12" height="12"/><rect class="c" x="658" y="82" rx="2" ry="2" width="12" height="12"/><rect class="c" x="658" y="98" rx="2" ry="2" width="12" height="12"/><rect class="c" x="674" y="2" rx="2" ry="2" width="12" height="12"/><rect class="c" x="674" y="18" rx="2" ry="2" width="12" height="12"/><rect class="c" x="674" y="34" rx="2" ry="2" width="12" height="12"/><rect class="c" x="674" y="50" rx="2" ry="2" width="12" height="12"/><rect class="c cr" x="674" y="66" rx="2" ry="2" width="12" height="12"/><rect class="c" x="674" y="82" rx="2" ry="2" width="12" height="12"/><rect class="c" x="674" y="98" rx="2" ry="2" width="12" height="12"/><rect class="c" x="690" y="2" rx="2" ry="2" width="12" height="12"/><rect class="c" x="690" y="18" rx="2" ry="2" width="12" height="12"/><rect class="c" x="690" y="34" rx="2" ry="2" width="12" height="12"/><rect class="c" x="690" y="50" rx="2" ry="2" width="12" height="12"/><rect class="c cs" x="690" y="66" rx="2" ry="2" width="12" height="12"/><rect class="c" x="690" y="82" rx="2" ry="2" width="12" height="12"/><rect class="c" x="690" y="98" rx="2" ry="2" width="12" height="12"/><rect class="c" x="706" y="2" rx="2" ry="2" width="12" height="12"/><rect class="c" x="706" y="18" rx="2" ry="2" width="12" height="12"/><rect class="c" x="706" y="34" rx="2" ry="2" width="12" height="12"/><rect class="c" x="706" y="50" rx="2" ry="2" width="12" height="12"/><rect class="c" x="706" y="66" rx="2" ry="2" width="12" height="12"/><rect class="c" x="706" y="82" rx="2" ry="2" width="12" height="12"/><rect class="c" x="706" y="98" rx="2" ry="2" width="12" height="12"/><rect class="c" x="722" y="2" rx="2" ry="2" width="12" height="12"/><rect class="c" x="722" y="18" rx="2" ry="2" width="12" height="12"/><rect class="c" x="722" y="34" rx="2" ry="2" width="12" height="12"/><rect class="c ct" x="722" y="50" rx="2" ry="2" width="12" height="12"/><rect class="c cu" x="722" y="66" rx="2" ry="2" width="12" height="12"/><rect class="c" x="722" y="82" rx="2" ry="2" width="12" height="12"/><rect class="c" x="722" y="98" rx="2" ry="2" width="12" height="12"/><rect class="c" x="738" y="2" rx="2" ry="2" width="12" height="12"/><rect class="c" x="738" y="18" rx="2" ry="2" width="12" height="12"/><rect class="c" x="738" y="34" rx="2" ry="2" width="12" height="12"/><rect class="c" x="738" y="50" rx="2" ry="2" width="12" height="12"/><rect class="c" x="738" y="66" rx="2" ry="2" width="12" height="12"/><rect class="c" x="738" y="82" rx="2" ry="2" width="12" height="12"/><rect class="c" x="738" y="98" rx="2" ry="2" width="12" height="12"/><rect class="c" x="754" y="2" rx="2" ry="2" width="12" height="12"/><rect class="c cv" x="754" y="18" rx="2" ry="2" width="12" height="12"/><rect class="c cw" x="754" y="34" rx="2" ry="2" width="12" height="12"/><rect class="c" x="754" y="50" rx="2" ry="2" width="12" height="12"/><rect class="c cx" x="754" y="66" rx="2" ry="2" width="12" height="12"/><rect class="c cy" x="754" y="82" rx="2" ry="2" width="12" height="12"/><rect class="c" x="754" y="98" rx="2" ry="2" width="12" height="12"/><rect class="c cz" x="770" y="2" rx="2" ry="2" width="12" height="12"/><rect class="c c10" x="770" y="18" rx="2" ry="2" width="12" height="12"/><rect class="c" x="770" y="34" rx="2" ry="2" width="12" height="12"/><rect class="c" x="770" y="50" rx="2" ry="2" width="12" height="12"/><rect class="c" x="770" y="66" rx="2" ry="2" width="12" height="12"/><rect class="c c11" x="770" y="82" rx="2" ry="2" width="12" height="12"/><rect class="c c12" x="770" y="98" rx="2" ry="2" width="12" height="12"/><rect class="c" x="786" y="2" rx="2" ry="2" width="12" height="12"/><rect class="c" x="786" y="18" rx="2" ry="2" width="12" height="12"/><rect class="c" x="786" y="34" rx="2" ry="2" width="12" height="12"/><rect class="c" x="786" y="50" rx="2" ry="2" width="12" height="12"/><rect class="c" x="786" y="66" rx="2" ry="2" width="12" height="12"/><rect class="c" x="786" y="82" rx="2" ry="2" width="12" height="12"/><rect class="c" x="786" y="98" rx="2" ry="2" width="12" height="12"/><rect class="c" x="802" y="2" rx="2" ry="2" width="12" height="12"/><rect class="c" x="802" y="18" rx="2" ry="2" width="12" height="12"/><rect class="c" x="802" y="34" rx="2" ry="2" width="12" height="12"/><rect class="c" x="802" y="50" rx="2" ry="2" width="12" height="12"/><rect class="c" x="802" y="66" rx="2" ry="2" width="12" height="12"/><rect class="c" x="802" y="82" rx="2" ry="2" width="12" height="12"/><rect class="c" x="802" y="98" rx="2" ry="2" width="12" height="12"/><rect class="c" x="818" y="2" rx="2" ry="2" width="12" height="12"/><rect class="c" x="818" y="18" rx="2" ry="2" width="12" height="12"/><rect class="c" x="818" y="34" rx="2" ry="2" width="12" height="12"/><rect class="c" x="818" y="50" rx="2" ry="2" width="12" height="12"/><rect class="c" x="818" y="66" rx="2" ry="2" width="12" height="12"/><rect class="c" x="818" y="82" rx="2" ry="2" width="12" height="12"/><rect class="c" x="818" y="98" rx="2" ry="2" width="12" height="12"/><rect class="c" x="834" y="2" rx="2" ry="2" width="12" height="12"/><rect class="c" x="834" y="18" rx="2" ry="2" width="12" height="12"/><rect class="c" x="834" y="34" rx="2" ry="2" width="12" height="12"/><rect class="c c13" x="834" y="50" rx="2" ry="2" width="12" height="12"/><rect class="u u0" height="12" width="488.2" x="0.0" y="144"/><rect class="u u1" height="12" width="191.4" x="487.6" y="144"/><rect class="u u2" height="12" width="127.8" x="678.4" y="144"/><rect class="u u3" height="12" width="43.0" x="805.6" y="144"/><rect class="s s0" x="0.8" y="0.8" width="14.4" height="14.4" rx="4.5" ry="4.5"/><rect class="s s1" x="1.8" y="1.8" width="12.3" height="12.3" rx="4.1" ry="4.1"/><rect class="s s2" x="2.6" y="2.6" width="10.8" height="10.8" rx="3.6" ry="3.6"/><rect class="s s3" x="3.0" y="3.0" width="9.9" height="9.9" rx="3.3" ry="3.3"/></svg>