<svg viewBox="-16 -32 880 192" width="880" height="192" xmlns="http://www.w3.org/2000/svg"><style>@keyframes c0{38.69%{fill:var(--c1)}38.71%,to{fill:var(--ce)}}@keyframes c1{37.39%{fill:var(--c1)}37.41%,to{fill:var(--ce)}}@keyframes c2{3.11%{fill:var(--c1)}3.13%,to{fill:var(--ce)}}@keyframes c3{40.25%{fill:var(--c2)}40.27%,to{fill:var(--ce)}}@keyframes c4{77.91%{fill:var(--c4)}77.93%,to{fill:var(--ce)}}@keyframes c5{3.37%{fill:var(--c1)}3.39%,to{fill:var(--ce)}}@keyframes c6{3.63%{fill:var(--c1)}3.65%,to{fill:var(--ce)}}@keyframes c7{6.74%{fill:var(--c1)}6.76%,to{fill:var(--ce)}}@keyframes c8{7%{fill:var(--c1)}7.02%,to{fill:var(--ce)}}@keyframes c9{4.67%{fill:var(--c1)}4.69%,to{fill:var(--ce)}}@keyframes ca{5.96%{fill:var(--c1)}5.98%,to{fill:var(--ce)}}@keyframes cb{7.78%{fill:var(--c1)}7.8%,to{fill:var(--ce)}}@keyframes cc{8.04%{fill:var(--c1)}8.06%,to{fill:var(--ce)}}@keyframes cd{43.37%{fill:var(--c2)}43.39%,to{fill:var(--ce)}}@keyframes ce{43.63%{fill:var(--c2)}43.65%,to{fill:var(--ce)}}@keyframes cf{9.6%{fill:var(--c1)}9.62%,to{fill:var(--ce)}}@keyframes cg{9.34%{fill:var(--c1)}9.36%,to{fill:var(--ce)}}@keyframes ch{34.02%{fill:var(--c1)}34.04%,to{fill:var(--ce)}}@keyframes ci{11.42%{fill:var(--c1)}11.44%,to{fill:var(--ce)}}@keyframes cj{11.68%{fill:var(--c1)}11.7%,to{fill:var(--ce)}}@keyframes ck{10.38%{fill:var(--c1)}10.4%,to{fill:var(--ce)}}@keyframes cl{45.44%{fill:var(--c2)}45.46%,to{fill:var(--ce)}}@keyframes cm{45.18%{fill:var(--c2)}45.2%,to{fill:var(--ce)}}@keyframes cn{12.2%{fill:var(--c1)}12.22%,to{fill:var(--ce)}}@keyframes co{44.41%{fill:var(--c2)}44.43%,to{fill:var(--ce)}}@keyframes cp{73.76%{fill:var(--c3)}73.78%,to{fill:var(--ce)}}@keyframes cq{13.24%{fill:var(--c1)}13.26%,to{fill:var(--ce)}}@keyframes cr{12.98%{fill:var(--c1)}13%,to{fill:var(--ce)}}@keyframes cs{72.46%{fill:var(--c3)}72.48%,to{fill:var(--ce)}}@keyframes ct{15.57%{fill:var(--c1)}15.59%,to{fill:var(--ce)}}@keyframes cu{15.83%{fill:var(--c1)}15.85%,to{fill:var(--ce)}}@keyframes cv{14.54%{fill:var(--c1)}14.56%,to{fill:var(--ce)}}@keyframes cw{17.65%{fill:var(--c1)}17.67%,to{fill:var(--ce)}}@keyframes cx{29.08%{fill:var(--c1)}29.1%,to{fill:var(--ce)}}@keyframes cy{17.91%{fill:var(--c1)}17.93%,to{fill:var(--ce)}}@keyframes cz{18.17%{fill:var(--c1)}18.19%,to{fill:var(--ce)}}@keyframes c10{18.43%{fill:var(--c1)}18.45%,to{fill:var(--ce)}}@keyframes c11{28.56%{fill:var(--c1)}28.58%,to{fill:var(--ce)}}@keyframes c12{85.44%{fill:var(--c4)}85.46%,to{fill:var(--ce)}}@keyframes c13{49.86%{fill:var(--c2)}49.88%,to{fill:var(--ce)}}@keyframes c14{62.59%{fill:var(--c3)}62.61%,to{fill:var(--ce)}}@keyframes c15{26.22%{fill:var(--c1)}26.24%,to{fill:var(--ce)}}@keyframes c16{19.73%{fill:var(--c1)}19.75%,to{fill:var(--ce)}}@keyframes c17{56.87%{fill:var(--c2)}56.89%,to{fill:var(--ce)}}@keyframes c18{62.33%{fill:var(--c3)}62.35%,to{fill:var(--ce)}}@keyframes c19{51.16%{fill:var(--c2)}51.18%,to{fill:var(--ce)}}@keyframes c1a{26.74%{fill:var(--c1)}26.76%,to{fill:var(--ce)}}@keyframes c1b{19.99%{fill:var(--c1)}20.01%,to{fill:var(--ce)}}@keyframes c1c{56.61%{fill:var(--c2)}56.63%,to{fill:var(--ce)}}@keyframes c1d{25.44%{fill:var(--c1)}25.46%,to{fill:var(--ce)}}@keyframes c1e{25.7%{fill:var(--c1)}25.72%,to{fill:var(--ce)}}@keyframes c1f{51.94%{fill:var(--c2)}51.96%,to{fill:var(--ce)}}@keyframes c1g{20.25%{fill:var(--c1)}20.27%,to{fill:var(--ce)}}@keyframes c1h{87.26%{fill:var(--c4)}87.28%,to{fill:var(--ce)}}@keyframes c1i{21.55%{fill:var(--c1)}21.57%,to{fill:var(--ce)}}@keyframes c1j{21.29%{fill:var(--c1)}21.31%,to{fill:var(--ce)}}@keyframes c1k{21.03%{fill:var(--c1)}21.05%,to{fill:var(--ce)}}@keyframes c1l{87.52%{fill:var(--c4)}87.54%,to{fill:var(--ce)}}@keyframes c1m{61.03%{fill:var(--c3)}61.05%,to{fill:var(--ce)}}@keyframes c1n{52.46%{fill:var(--c2)}52.48%,to{fill:var(--ce)}}@keyframes c1o{55.57%{fill:var(--c2)}55.59%,to{fill:var(--ce)}}@keyframes c1p{59.73%{fill:var(--c2)}59.75%,to{fill:var(--ce)}}@keyframes c1q{22.07%{fill:var(--c1)}22.09%,to{fill:var(--ce)}}@keyframes c1r{52.98%{fill:var(--c2)}53%,to{fill:var(--ce)}}@keyframes c1s{54.8%{fill:var(--c2)}54.82%,to{fill:var(--ce)}}@keyframes c1t{22.85%{fill:var(--c1)}22.87%,to{fill:var(--ce)}}@keyframes c1u{23.11%{fill:var(--c1)}23.13%,to{fill:var(--ce)}}@keyframes c1v{53.76%{fill:var(--c2)}53.78%,to{fill:var(--ce)}}@keyframes c1w{54.28%{fill:var(--c2)}54.3%,to{fill:var(--ce)}}@keyframes c1x{65.96%{fill:var(--c3)}65.98%,to{fill:var(--ce)}}@keyframes u0{3.11%{transform:scale(0,1)}3.13%,3.37%{transform:scale(.02,1)}3.39%,3.63%{transform:scale(.05,1)}3.65%,4.67%{transform:scale(.07,1)}4.69%,5.96%{transform:scale(.1,1)}5.98%,6.74%{transform:scale(.12,1)}6.76%,7%{transform:scale(.14,1)}7.02%,7.78%{transform:scale(.17,1)}7.8%,8.04%{transform:scale(.19,1)}8.06%,9.34%{transform:scale(.21,1)}9.36%,9.6%{transform:scale(.24,1)}10.38%,9.62%{transform:scale(.26,1)}10.4%,11.42%{transform:scale(.29,1)}11.44%,11.68%{transform:scale(.31,1)}11.7%,12.2%{transform:scale(.33,1)}12.22%,12.98%{transform:scale(.36,1)}13%,13.24%{transform:scale(.38,1)}13.26%,14.54%{transform:scale(.4,1)}14.56%,15.57%{transform:scale(.43,1)}15.59%,15.83%{transform:scale(.45,1)}15.85%,17.65%{transform:scale(.48,1)}17.67%,17.91%{transform:scale(.5,1)}17.93%,18.17%{transform:scale(.52,1)}18.19%,18.43%{transform:scale(.55,1)}18.45%,19.73%{transform:scale(.57,1)}19.75%,19.99%{transform:scale(.6,1)}20.01%,20.25%{transform:scale(.62,1)}20.27%,21.03%{transform:scale(.64,1)}21.05%,21.29%{transform:scale(.67,1)}21.31%,21.55%{transform:scale(.69,1)}21.57%,22.07%{transform:scale(.71,1)}22.09%,22.85%{transform:scale(.74,1)}22.87%,23.11%{transform:scale(.76,1)}23.13%,25.44%{transform:scale(.79,1)}25.46%,25.7%{transform:scale(.81,1)}25.72%,26.22%{transform:scale(.83,1)}26.24%,26.74%{transform:scale(.86,1)}26.76%,28.56%{transform:scale(.88,1)}28.58%,29.08%{transform:scale(.9,1)}29.1%,34.02%{transform:scale(.93,1)}34.04%,37.39%{transform:scale(.95,1)}37.41%,38.69%{transform:scale(.98,1)}38.71%,to{transform:scale(1,1)}}@keyframes u1{40.25%{transform:scale(0,1)}40.27%,43.37%{transform:scale(.06,1)}43.39%,43.63%{transform:scale(.11,1)}43.65%,44.41%{transform:scale(.17,1)}44.43%,45.18%{transform:scale(.22,1)}45.2%,45.44%{transform:scale(.28,1)}45.46%,49.86%{transform:scale(.33,1)}49.88%,51.16%{transform:scale(.39,1)}51.18%,51.94%{transform:scale(.44,1)}51.96%,52.46%{transform:scale(.5,1)}52.48%,52.98%{transform:scale(.56,1)}53%,53.76%{transform:scale(.61,1)}53.78%,54.28%{transform:scale(.67,1)}54.3%,54.8%{transform:scale(.72,1)}54.82%,55.57%{transform:scale(.78,1)}55.59%,56.61%{transform:scale(.83,1)}56.63%,56.87%{transform:scale(.89,1)}56.89%,59.73%{transform:scale(.94,1)}59.75%,to{transform:scale(1,1)}}@keyframes u2{61.03%{transform:scale(0,1)}61.05%,62.33%{transform:scale(.17,1)}62.35%,62.59%{transform:scale(.33,1)}62.61%,65.96%{transform:scale(.5,1)}65.98%,72.46%{transform:scale(.67,1)}72.48%,73.76%{transform:scale(.83,1)}73.78%,to{transform:scale(1,1)}}@keyframes u3{77.91%{transform:scale(0,1)}77.93%,85.44%{transform:scale(.25,1)}85.46%,87.26%{transform:scale(.5,1)}87.28%,87.52%{transform:scale(.75,1)}87.54%,to{transform:scale(1,1)}}@keyframes s0{0%,99.74%{transform:translate(0,-16px)}.26%{transform:translate(0,0)}3.38%{transform:translate(192px,0)}3.64%{transform:translate(192px,16px)}4.42%,5.45%{transform:translate(240px,16px)}4.68%{transform:translate(240px,0)}4.94%{transform:translate(256px,0)}5.19%{transform:translate(256px,16px)}5.97%{transform:translate(240px,48px)}6.49%{transform:translate(208px,48px)}7.01%{transform:translate(208px,80px)}7.53%{transform:translate(240px,80px)}7.79%{transform:translate(240px,96px)}9.35%{transform:translate(336px,96px)}9.61%{transform:translate(336px,80px)}10.13%{transform:translate(368px,80px)}10.39%{transform:translate(368px,96px)}10.65%{transform:translate(352px,96px)}11.43%{transform:translate(352px,48px)}11.95%{transform:translate(384px,48px)}12.21%,74.55%{transform:translate(384px,32px)}12.73%{transform:translate(416px,32px)}13.25%{transform:translate(416px,0)}14.55%{transform:translate(496px,0)}14.81%{transform:translate(496px,16px)}15.06%{transform:translate(480px,16px)}15.84%{transform:translate(480px,64px)}17.92%{transform:translate(608px,64px)}18.44%{transform:translate(608px,96px)}19.22%{transform:translate(656px,96px)}19.48%{transform:translate(656px,80px)}20.52%{transform:translate(720px,80px)}21.56%,61.56%,87.01%{transform:translate(720px,16px)}23.12%{transform:translate(816px,16px)}23.38%{transform:translate(816px,0)}24.16%,60%{transform:translate(768px,0)}24.42%,60.26%{transform:translate(768px,16px)}25.45%,51.43%,61.82%{transform:translate(704px,16px)}25.71%{transform:translate(704px,32px)}26.23%,27.27%{transform:translate(672px,32px)}26.49%{transform:translate(672px,48px)}26.75%{transform:translate(688px,48px)}27.01%,50.91%{transform:translate(688px,32px)}27.53%,62.86%{transform:translate(672px,16px)}27.79%{transform:translate(656px,16px)}28.05%{transform:translate(656px,0)}28.83%,49.09%{transform:translate(608px,0)}29.09%{transform:translate(608px,16px)}29.35%{transform:translate(592px,16px)}29.87%{transform:translate(592px,-16px)}33.77%{transform:translate(352px,-16px)}34.03%{transform:translate(352px,0)}37.14%{transform:translate(160px,0)}37.4%,40%{transform:translate(160px,16px)}37.66%{transform:translate(144px,16px)}38.7%{transform:translate(144px,80px)}38.96%{transform:translate(160px,80px)}42.86%{transform:translate(336px,16px)}43.64%{transform:translate(336px,64px)}44.42%{transform:translate(384px,64px)}45.45%{transform:translate(384px,0)}49.61%{transform:translate(608px,32px)}51.17%{transform:translate(688px,16px)}51.95%{transform:translate(704px,48px)}53.77%{transform:translate(816px,48px)}54.29%{transform:translate(816px,80px)}56.36%{transform:translate(688px,80px)}56.62%{transform:translate(688px,96px)}56.88%{transform:translate(672px,96px)}57.14%{transform:translate(672px,80px)}58.44%{transform:translate(752px,80px)}59.74%{transform:translate(752px,0)}60.78%{transform:translate(736px,16px)}61.04%{transform:translate(736px,32px)}61.3%{transform:translate(720px,32px)}62.08%{transform:translate(704px,0)}62.6%{transform:translate(672px,0)}65.45%{transform:translate(832px,16px)}65.97%{transform:translate(832px,48px)}71.95%{transform:translate(464px,48px)}72.47%{transform:translate(464px,80px)}73.77%{transform:translate(384px,80px)}77.92%{transform:translate(176px,32px)}78.18%{transform:translate(176px,16px)}87.27%{transform:translate(720px,0)}87.53%{transform:translate(736px,0)}87.79%{transform:translate(736px,-16px)}}@keyframes s1{0%,99.74%{transform:translate(16px,-16px)}.26%{transform:translate(0,-16px)}.52%{transform:translate(0,0)}3.64%{transform:translate(192px,0)}3.9%{transform:translate(192px,16px)}4.68%,5.71%{transform:translate(240px,16px)}4.94%{transform:translate(240px,0)}5.19%{transform:translate(256px,0)}5.45%{transform:translate(256px,16px)}6.23%{transform:translate(240px,48px)}6.75%{transform:translate(208px,48px)}7.27%{transform:translate(208px,80px)}7.79%{transform:translate(240px,80px)}8.05%{transform:translate(240px,96px)}9.61%{transform:translate(336px,96px)}9.87%{transform:translate(336px,80px)}10.39%{transform:translate(368px,80px)}10.65%{transform:translate(368px,96px)}10.91%{transform:translate(352px,96px)}11.69%{transform:translate(352px,48px)}12.21%{transform:translate(384px,48px)}12.47%,74.81%{transform:translate(384px,32px)}12.99%{transform:translate(416px,32px)}13.51%{transform:translate(416px,0)}14.81%{transform:translate(496px,0)}15.06%{transform:translate(496px,16px)}15.32%{transform:translate(480px,16px)}16.1%{transform:translate(480px,64px)}18.18%{transform:translate(608px,64px)}18.7%{transform:translate(608px,96px)}19.48%{transform:translate(656px,96px)}19.74%{transform:translate(656px,80px)}20.78%{transform:translate(720px,80px)}21.82%,61.82%,87.27%{transform:translate(720px,16px)}23.38%{transform:translate(816px,16px)}23.64%{transform:translate(816px,0)}24.42%,60.26%{transform:translate(768px,0)}24.68%,60.52%{transform:translate(768px,16px)}25.71%,51.69%,62.08%{transform:translate(704px,16px)}25.97%{transform:translate(704px,32px)}26.49%,27.53%{transform:translate(672px,32px)}26.75%{transform:translate(672px,48px)}27.01%{transform:translate(688px,48px)}27.27%,51.17%{transform:translate(688px,32px)}27.79%,63.12%{transform:translate(672px,16px)}28.05%{transform:translate(656px,16px)}28.31%{transform:translate(656px,0)}29.09%,49.35%{transform:translate(608px,0)}29.35%{transform:translate(608px,16px)}29.61%{transform:translate(592px,16px)}30.13%{transform:translate(592px,-16px)}34.03%{transform:translate(352px,-16px)}34.29%{transform:translate(352px,0)}37.4%{transform:translate(160px,0)}37.66%,40.26%{transform:translate(160px,16px)}37.92%{transform:translate(144px,16px)}38.96%{transform:translate(144px,80px)}39.22%{transform:translate(160px,80px)}43.12%{transform:translate(336px,16px)}43.9%{transform:translate(336px,64px)}44.68%{transform:translate(384px,64px)}45.71%{transform:translate(384px,0)}49.87%{transform:translate(608px,32px)}51.43%{transform:translate(688px,16px)}52.21%{transform:translate(704px,48px)}54.03%{transform:translate(816px,48px)}54.55%{transform:translate(816px,80px)}56.62%{transform:translate(688px,80px)}56.88%{transform:translate(688px,96px)}57.14%{transform:translate(672px,96px)}57.4%{transform:translate(672px,80px)}58.7%{transform:translate(752px,80px)}60%{transform:translate(752px,0)}61.04%{transform:translate(736px,16px)}61.3%{transform:translate(736px,32px)}61.56%{transform:translate(720px,32px)}62.34%{transform:translate(704px,0)}62.86%{transform:translate(672px,0)}65.71%{transform:translate(832px,16px)}66.23%{transform:translate(832px,48px)}72.21%{transform:translate(464px,48px)}72.73%{transform:translate(464px,80px)}74.03%{transform:translate(384px,80px)}78.18%{transform:translate(176px,32px)}78.44%{transform:translate(176px,16px)}87.53%{transform:translate(720px,0)}87.79%{transform:translate(736px,0)}88.05%{transform:translate(736px,-16px)}}@keyframes s2{0%,99.74%{transform:translate(32px,-16px)}.52%{transform:translate(0,-16px)}.78%{transform:translate(0,0)}3.9%{transform:translate(192px,0)}4.16%{transform:translate(192px,16px)}4.94%,5.97%{transform:translate(240px,16px)}5.19%{transform:translate(240px,0)}5.45%{transform:translate(256px,0)}5.71%{transform:translate(256px,16px)}6.49%{transform:translate(240px,48px)}7.01%{transform:translate(208px,48px)}7.53%{transform:translate(208px,80px)}8.05%{transform:translate(240px,80px)}8.31%{transform:translate(240px,96px)}9.87%{transform:translate(336px,96px)}10.13%{transform:translate(336px,80px)}10.65%{transform:translate(368px,80px)}10.91%{transform:translate(368px,96px)}11.17%{transform:translate(352px,96px)}11.95%{transform:translate(352px,48px)}12.47%{transform:translate(384px,48px)}12.73%,75.06%{transform:translate(384px,32px)}13.25%{transform:translate(416px,32px)}13.77%{transform:translate(416px,0)}15.06%{transform:translate(496px,0)}15.32%{transform:translate(496px,16px)}15.58%{transform:translate(480px,16px)}16.36%{transform:translate(480px,64px)}18.44%{transform:translate(608px,64px)}18.96%{transform:translate(608px,96px)}19.74%{transform:translate(656px,96px)}20%{transform:translate(656px,80px)}21.04%{transform:translate(720px,80px)}22.08%,62.08%,87.53%{transform:translate(720px,16px)}23.64%{transform:translate(816px,16px)}23.9%{transform:translate(816px,0)}24.68%,60.52%{transform:translate(768px,0)}24.94%,60.78%{transform:translate(768px,16px)}25.97%,51.95%,62.34%{transform:translate(704px,16px)}26.23%{transform:translate(704px,32px)}26.75%,27.79%{transform:translate(672px,32px)}27.01%{transform:translate(672px,48px)}27.27%{transform:translate(688px,48px)}27.53%,51.43%{transform:translate(688px,32px)}28.05%,63.38%{transform:translate(672px,16px)}28.31%{transform:translate(656px,16px)}28.57%{transform:translate(656px,0)}29.35%,49.61%{transform:translate(608px,0)}29.61%{transform:translate(608px,16px)}29.87%{transform:translate(592px,16px)}30.39%{transform:translate(592px,-16px)}34.29%{transform:translate(352px,-16px)}34.55%{transform:translate(352px,0)}37.66%{transform:translate(160px,0)}37.92%,40.52%{transform:translate(160px,16px)}38.18%{transform:translate(144px,16px)}39.22%{transform:translate(144px,80px)}39.48%{transform:translate(160px,80px)}43.38%{transform:translate(336px,16px)}44.16%{transform:translate(336px,64px)}44.94%{transform:translate(384px,64px)}45.97%{transform:translate(384px,0)}50.13%{transform:translate(608px,32px)}51.69%{transform:translate(688px,16px)}52.47%{transform:translate(704px,48px)}54.29%{transform:translate(816px,48px)}54.81%{transform:translate(816px,80px)}56.88%{transform:translate(688px,80px)}57.14%{transform:translate(688px,96px)}57.4%{transform:translate(672px,96px)}57.66%{transform:translate(672px,80px)}58.96%{transform:translate(752px,80px)}60.26%{transform:translate(752px,0)}61.3%{transform:translate(736px,16px)}61.56%{transform:translate(736px,32px)}61.82%{transform:translate(720px,32px)}62.6%{transform:translate(704px,0)}63.12%{transform:translate(672px,0)}65.97%{transform:translate(832px,16px)}66.49%{transform:translate(832px,48px)}72.47%{transform:translate(464px,48px)}72.99%{transform:translate(464px,80px)}74.29%{transform:translate(384px,80px)}78.44%{transform:translate(176px,32px)}78.7%{transform:translate(176px,16px)}87.79%{transform:translate(720px,0)}88.05%{transform:translate(736px,0)}88.31%{transform:translate(736px,-16px)}}@keyframes s3{0%,99.74%{transform:translate(48px,-16px)}.78%{transform:translate(0,-16px)}1.04%{transform:translate(0,0)}4.16%{transform:translate(192px,0)}4.42%{transform:translate(192px,16px)}5.19%,6.23%{transform:translate(240px,16px)}5.45%{transform:translate(240px,0)}5.71%{transform:translate(256px,0)}5.97%{transform:translate(256px,16px)}6.75%{transform:translate(240px,48px)}7.27%{transform:translate(208px,48px)}7.79%{transform:translate(208px,80px)}8.31%{transform:translate(240px,80px)}8.57%{transform:translate(240px,96px)}10.13%{transform:translate(336px,96px)}10.39%{transform:translate(336px,80px)}10.91%{transform:translate(368px,80px)}11.17%{transform:translate(368px,96px)}11.43%{transform:translate(352px,96px)}12.21%{transform:translate(352px,48px)}12.73%{transform:translate(384px,48px)}12.99%,75.32%{transform:translate(384px,32px)}13.51%{transform:translate(416px,32px)}14.03%{transform:translate(416px,0)}15.32%{transform:translate(496px,0)}15.58%{transform:translate(496px,16px)}15.84%{transform:translate(480px,16px)}16.62%{transform:translate(480px,64px)}18.7%{transform:translate(608px,64px)}19.22%{transform:translate(608px,96px)}20%{transform:translate(656px,96px)}20.26%{transform:translate(656px,80px)}21.3%{transform:translate(720px,80px)}22.34%,62.34%,87.79%{transform:translate(720px,16px)}23.9%{transform:translate(816px,16px)}24.16%{transform:translate(816px,0)}24.94%,60.78%{transform:translate(768px,0)}25.19%,61.04%{transform:translate(768px,16px)}26.23%,52.21%,62.6%{transform:translate(704px,16px)}26.49%{transform:translate(704px,32px)}27.01%,28.05%{transform:translate(672px,32px)}27.27%{transform:translate(672px,48px)}27.53%{transform:translate(688px,48px)}27.79%,51.69%{transform:translate(688px,32px)}28.31%,63.64%{transform:translate(672px,16px)}28.57%{transform:translate(656px,16px)}28.83%{transform:translate(656px,0)}29.61%,49.87%{transform:translate(608px,0)}29.87%{transform:translate(608px,16px)}30.13%{transform:translate(592px,16px)}30.65%{transform:translate(592px,-16px)}34.55%{transform:translate(352px,-16px)}34.81%{transform:translate(352px,0)}37.92%{transform:translate(160px,0)}38.18%,40.78%{transform:translate(160px,16px)}38.44%{transform:translate(144px,16px)}39.48%{transform:translate(144px,80px)}39.74%{transform:translate(160px,80px)}43.64%{transform:translate(336px,16px)}44.42%{transform:translate(336px,64px)}45.19%{transform:translate(384px,64px)}46.23%{transform:translate(384px,0)}50.39%{transform:translate(608px,32px)}51.95%{transform:translate(688px,16px)}52.73%{transform:translate(704px,48px)}54.55%{transform:translate(816px,48px)}55.06%{transform:translate(816px,80px)}57.14%{transform:translate(688px,80px)}57.4%{transform:translate(688px,96px)}57.66%{transform:translate(672px,96px)}57.92%{transform:translate(672px,80px)}59.22%{transform:translate(752px,80px)}60.52%{transform:translate(752px,0)}61.56%{transform:translate(736px,16px)}61.82%{transform:translate(736px,32px)}62.08%{transform:translate(720px,32px)}62.86%{transform:translate(704px,0)}63.38%{transform:translate(672px,0)}66.23%{transform:translate(832px,16px)}66.75%{transform:translate(832px,48px)}72.73%{transform:translate(464px,48px)}73.25%{transform:translate(464px,80px)}74.55%{transform:translate(384px,80px)}78.7%{transform:translate(176px,32px)}78.96%{transform:translate(176px,16px)}88.05%{transform:translate(720px,0)}88.31%{transform:translate(736px,0)}88.57%{transform:translate(736px,-16px)}}:root{--cb:#1b1f230a;--cs:purple;--ce:#ebedf0;--c0:#ebedf0;--c1:#9be9a8;--c2:#40c463;--c3:#30a14e;--c4:#216e39}@media (prefers-color-scheme:dark){:root{--cb:#1b1f230a;--cs:purple;--ce:#161b22;--c1:#01311f;--c2:#034525;--c3:#0f6d31;--c4:#00c647}}.c{shape-rendering:geometricPrecision;rx:2;ry:2;fill:var(--ce);stroke-width:1px;stroke:var(--cb);animation:none 38500ms linear infinite}.c.c0,.c.c1,.c.c2{fill:var(--c1);animation-name:c0}.c.c1,.c.c2{animation-name:c1}.c.c2{animation-name:c2}.c.c3{fill:var(--c2);animation-name:c3}.c.c4{fill:var(--c4);animation-name:c4}.c.c5,.c.c6{fill:var(--c1);animation-name:c5}.c.c6{animation-name:c6}.c.c7,.c.c8,.c.c9{fill:var(--c1);animation-name:c7}.c.c8,.c.c9{animation-name:c8}.c.c9{animation-name:c9}.c.ca,.c.cb,.c.cc{fill:var(--c1);animation-name:ca}.c.cb,.c.cc{animation-name:cb}.c.cc{animation-name:cc}.c.cd,.c.ce{fill:var(--c2);animation-name:cd}.c.ce{animation-name:ce}.c.cf,.c.cg,.c.ch{fill:var(--c1);animation-name:cf}.c.cg,.c.ch{animation-name:cg}.c.ch{animation-name:ch}.c.ci,.c.cj,.c.ck{fill:var(--c1);animation-name:ci}.c.cj,.c.ck{animation-name:cj}.c.ck{animation-name:ck}.c.cl,.c.cm{fill:var(--c2);animation-name:cl}.c.cm{animation-name:cm}.c.cn{fill:var(--c1);animation-name:cn}.c.co{fill:var(--c2);animation-name:co}.c.cp{fill:var(--c3);animation-name:cp}.c.cq,.c.cr{fill:var(--c1);animation-name:cq}.c.cr{animation-name:cr}.c.cs{fill:var(--c3);animation-name:cs}.c.ct,.c.cu,.c.cv{fill:var(--c1);animation-name:ct}.c.cu,.c.cv{animation-name:cu}.c.cv{animation-name:cv}.c.cw,.c.cx,.c.cy{fill:var(--c1);animation-name:cw}.c.cx,.c.cy{animation-name:cx}.c.cy{animation-name:cy}.c.c10,.c.c11,.c.cz{fill:var(--c1);animation-name:cz}.c.c10,.c.c11{animation-name:c10}.c.c11{animation-name:c11}.c.c12{fill:var(--c4);animation-name:c12}.c.c13{fill:var(--c2);animation-name:c13}.c.c14{fill:var(--c3);animation-name:c14}.c.c15,.c.c16{fill:var(--c1);animation-name:c15}.c.c16{animation-name:c16}.c.c17{fill:var(--c2);animation-name:c17}.c.c18{fill:var(--c3);animation-name:c18}.c.c19{fill:var(--c2);animation-name:c19}.c.c1a,.c.c1b{fill:var(--c1);animation-name:c1a}.c.c1b{animation-name:c1b}.c.c1c{fill:var(--c2);animation-name:c1c}.c.c1d,.c.c1e{fill:var(--c1);animation-name:c1d}.c.c1e{animation-name:c1e}.c.c1f{fill:var(--c2);animation-name:c1f}.c.c1g{fill:var(--c1);animation-name:c1g}.c.c1h{fill:var(--c4);animation-name:c1h}.c.c1i,.c.c1j,.c.c1k{fill:var(--c1);animation-name:c1i}.c.c1j,.c.c1k{animation-name:c1j}.c.c1k{animation-name:c1k}.c.c1l{fill:var(--c4);animation-name:c1l}.c.c1m{fill:var(--c3);animation-name:c1m}.c.c1n,.c.c1o,.c.c1p{fill:var(--c2);animation-name:c1n}.c.c1o,.c.c1p{animation-name:c1o}.c.c1p{animation-name:c1p}.c.c1q{fill:var(--c1);animation-name:c1q}.c.c1r,.c.c1s{fill:var(--c2);animation-name:c1r}.c.c1s{animation-name:c1s}.c.c1t,.c.c1u{fill:var(--c1);animation-name:c1t}.c.c1u{animation-name:c1u}.c.c1v,.c.c1w{fill:var(--c2);animation-name:c1v}.c.c1w{animation-name:c1w}.c.c1x{fill:var(--c3);animation-name:c1x}.s,.u{animation:none linear 38500ms infinite}.u,.u.u0{transform-origin:0 0}.u{transform:scale(0,1)}.u.u0{fill:var(--c1);animation-name:u0}.u.u1{fill:var(--c2);animation-name:u1;transform-origin:508.8px 0}.u.u2{fill:var(--c3);animation-name:u2;transform-origin:726.9px 0}.u.u3{fill:var(--c4);animation-name:u3;transform-origin:799.5px 0}.s{shape-rendering:geometricPrecision;fill:var(--cs)}.s.s0{transform:translate(0,-16px);animation-name:s0}.s.s1{transform:translate(16px,-16px);animation-name:s1}.s.s2{transform:translate(32px,-16px);animation-name:s2}.s.s3{transform:translate(48px,-16px);animation-name:s3}</style><rect class="c" x="2" y="2" width="12" height="12"/><rect class="c" x="2" y="18" width="12" height="12"/><rect class="c" x="2" y="34" width="12" height="12"/><rect class="c" x="2" y="50" width="12" height="12"/><rect class="c" x="2" y="66" width="12" height="12"/><rect class="c" x="2" y="82" width="12" height="12"/><rect class="c" x="2" y="98" width="12" height="12"/><rect class="c" x="18" y="2" width="12" height="12"/><rect class="c" x="18" y="18" width="12" height="12"/><rect class="c" x="18" y="34" width="12" height="12"/><rect class="c" x="18" y="50" width="12" height="12"/><rect class="c" x="18" y="66" width="12" height="12"/><rect class="c" x="18" y="82" width="12" height="12"/><rect class="c" x="18" y="98" width="12" height="12"/><rect class="c" x="34" y="2" width="12" height="12"/><rect class="c" x="34" y="18" width="12" height="12"/><rect class="c" x="34" y="34" width="12" height="12"/><rect class="c" x="34" y="50" width="12" height="12"/><rect class="c" x="34" y="66" width="12" height="12"/><rect class="c" x="34" y="82" width="12" height="12"/><rect class="c" x="34" y="98" width="12" height="12"/><rect class="c" x="50" y="2" width="12" height="12"/><rect class="c" x="50" y="18" width="12" height="12"/><rect class="c" x="50" y="34" width="12" height="12"/><rect class="c" x="50" y="50" width="12" height="12"/><rect class="c" x="50" y="66" width="12" height="12"/><rect class="c" x="50" y="82" width="12" height="12"/><rect class="c" x="50" y="98" width="12" height="12"/><rect class="c" x="66" y="2" width="12" height="12"/><rect class="c" x="66" y="18" width="12" height="12"/><rect class="c" x="66" y="34" width="12" height="12"/><rect class="c" x="66" y="50" width="12" height="12"/><rect class="c" x="66" y="66" width="12" height="12"/><rect class="c" x="66" y="82" width="12" height="12"/><rect class="c" x="66" y="98" width="12" height="12"/><rect class="c" x="82" y="2" width="12" height="12"/><rect class="c" x="82" y="18" width="12" height="12"/><rect class="c" x="82" y="34" width="12" height="12"/><rect class="c" x="82" y="50" width="12" height="12"/><rect class="c" x="82" y="66" width="12" height="12"/><rect class="c" x="82" y="82" width="12" height="12"/><rect class="c" x="82" y="98" width="12" height="12"/><rect class="c" x="98" y="2" width="12" height="12"/><rect class="c" x="98" y="18" width="12" height="12"/><rect class="c" x="98" y="34" width="12" height="12"/><rect class="c" x="98" y="50" width="12" height="12"/><rect class="c" x="98" y="66" width="12" height="12"/><rect class="c" x="98" y="82" width="12" height="12"/><rect class="c" x="98" y="98" width="12" height="12"/><rect class="c" x="114" y="2" width="12" height="12"/><rect class="c" x="114" y="18" width="12" height="12"/><rect class="c" x="114" y="34" width="12" height="12"/><rect class="c" x="114" y="50" width="12" height="12"/><rect class="c" x="114" y="66" width="12" height="12"/><rect class="c" x="114" y="82" width="12" height="12"/><rect class="c" x="114" y="98" width="12" height="12"/><rect class="c" x="130" y="2" width="12" height="12"/><rect class="c" x="130" y="18" width="12" height="12"/><rect class="c" x="130" y="34" width="12" height="12"/><rect class="c" x="130" y="50" width="12" height="12"/><rect class="c" x="130" y="66" width="12" height="12"/><rect class="c" x="130" y="82" width="12" height="12"/><rect class="c" x="130" y="98" width="12" height="12"/><rect class="c" x="146" y="2" width="12" height="12"/><rect class="c" x="146" y="18" width="12" height="12"/><rect class="c" x="146" y="34" width="12" height="12"/><rect class="c" x="146" y="50" width="12" height="12"/><rect class="c" x="146" y="66" width="12" height="12"/><rect class="c c0" x="146" y="82" width="12" height="12"/><rect class="c" x="146" y="98" width="12" height="12"/><rect class="c" x="162" y="2" width="12" height="12"/><rect class="c c1" x="162" y="18" width="12" height="12"/><rect class="c" x="162" y="34" width="12" height="12"/><rect class="c" x="162" y="50" width="12" height="12"/><rect class="c" x="162" y="66" width="12" height="12"/><rect class="c" x="162" y="82" width="12" height="12"/><rect class="c" x="162" y="98" width="12" height="12"/><rect class="c c2" x="178" y="2" width="12" height="12"/><rect class="c c3" x="178" y="18" width="12" height="12"/><rect class="c c4" x="178" y="34" width="12" height="12"/><rect class="c" x="178" y="50" width="12" height="12"/><rect class="c" x="178" y="66" width="12" height="12"/><rect class="c" x="178" y="82" width="12" height="12"/><rect class="c" x="178" y="98" width="12" height="12"/><rect class="c c5" x="194" y="2" width="12" height="12"/><rect class="c c6" x="194" y="18" width="12" height="12"/><rect class="c" x="194" y="34" width="12" height="12"/><rect class="c" x="194" y="50" width="12" height="12"/><rect class="c" x="194" y="66" width="12" height="12"/><rect class="c" x="194" y="82" width="12" height="12"/><rect class="c" x="194" y="98" width="12" height="12"/><rect class="c" x="210" y="2" width="12" height="12"/><rect class="c" x="210" y="18" width="12" height="12"/><rect class="c" x="210" y="34" width="12" height="12"/><rect class="c" x="210" y="50" width="12" height="12"/><rect class="c c7" x="210" y="66" width="12" height="12"/><rect class="c c8" x="210" y="82" width="12" height="12"/><rect class="c" x="210" y="98" width="12" height="12"/><rect class="c" x="226" y="2" width="12" height="12"/><rect class="c" x="226" y="18" width="12" height="12"/><rect class="c" x="226" y="34" width="12" height="12"/><rect class="c" x="226" y="50" width="12" height="12"/><rect class="c" x="226" y="66" width="12" height="12"/><rect class="c" x="226" y="82" width="12" height="12"/><rect class="c" x="226" y="98" width="12" height="12"/><rect class="c c9" x="242" y="2" width="12" height="12"/><rect class="c" x="242" y="18" width="12" height="12"/><rect class="c" x="242" y="34" width="12" height="12"/><rect class="c ca" x="242" y="50" width="12" height="12"/><rect class="c" x="242" y="66" width="12" height="12"/><rect class="c" x="242" y="82" width="12" height="12"/><rect class="c cb" x="242" y="98" width="12" height="12"/><rect class="c" x="258" y="2" width="12" height="12"/><rect class="c" x="258" y="18" width="12" height="12"/><rect class="c" x="258" y="34" width="12" height="12"/><rect class="c" x="258" y="50" width="12" height="12"/><rect class="c" x="258" y="66" width="12" height="12"/><rect class="c" x="258" y="82" width="12" height="12"/><rect class="c cc" x="258" y="98" width="12" height="12"/><rect class="c" x="274" y="2" width="12" height="12"/><rect class="c" x="274" y="18" width="12" height="12"/><rect class="c" x="274" y="34" width="12" height="12"/><rect class="c" x="274" y="50" width="12" height="12"/><rect class="c" x="274" y="66" width="12" height="12"/><rect class="c" x="274" y="82" width="12" height="12"/><rect class="c" x="274" y="98" width="12" height="12"/><rect class="c" x="290" y="2" width="12" height="12"/><rect class="c" x="290" y="18" width="12" height="12"/><rect class="c" x="290" y="34" width="12" height="12"/><rect class="c" x="290" y="50" width="12" height="12"/><rect class="c" x="290" y="66" width="12" height="12"/><rect class="c" x="290" y="82" width="12" height="12"/><rect class="c" x="290" y="98" width="12" height="12"/><rect class="c" x="306" y="2" width="12" height="12"/><rect class="c" x="306" y="18" width="12" height="12"/><rect class="c" x="306" y="34" width="12" height="12"/><rect class="c" x="306" y="50" width="12" height="12"/><rect class="c" x="306" y="66" width="12" height="12"/><rect class="c" x="306" y="82" width="12" height="12"/><rect class="c" x="306" y="98" width="12" height="12"/><rect class="c" x="322" y="2" width="12" height="12"/><rect class="c" x="322" y="18" width="12" height="12"/><rect class="c" x="322" y="34" width="12" height="12"/><rect class="c" x="322" y="50" width="12" height="12"/><rect class="c" x="322" y="66" width="12" height="12"/><rect class="c" x="322" y="82" width="12" height="12"/><rect class="c" x="322" y="98" width="12" height="12"/><rect class="c" x="338" y="2" width="12" height="12"/><rect class="c" x="338" y="18" width="12" height="12"/><rect class="c" x="338" y="34" width="12" height="12"/><rect class="c cd" x="338" y="50" width="12" height="12"/><rect class="c ce" x="338" y="66" width="12" height="12"/><rect class="c cf" x="338" y="82" width="12" height="12"/><rect class="c cg" x="338" y="98" width="12" height="12"/><rect class="c ch" x="354" y="2" width="12" height="12"/><rect class="c" x="354" y="18" width="12" height="12"/><rect class="c" x="354" y="34" width="12" height="12"/><rect class="c ci" x="354" y="50" width="12" height="12"/><rect class="c" x="354" y="66" width="12" height="12"/><rect class="c" x="354" y="82" width="12" height="12"/><rect class="c" x="354" y="98" width="12" height="12"/><rect class="c" x="370" y="2" width="12" height="12"/><rect class="c" x="370" y="18" width="12" height="12"/><rect class="c" x="370" y="34" width="12" height="12"/><rect class="c cj" x="370" y="50" width="12" height="12"/><rect class="c" x="370" y="66" width="12" height="12"/><rect class="c" x="370" y="82" width="12" height="12"/><rect class="c ck" x="370" y="98" width="12" height="12"/><rect class="c cl" x="386" y="2" width="12" height="12"/><rect class="c cm" x="386" y="18" width="12" height="12"/><rect class="c cn" x="386" y="34" width="12" height="12"/><rect class="c" x="386" y="50" width="12" height="12"/><rect class="c co" x="386" y="66" width="12" height="12"/><rect class="c cp" x="386" y="82" width="12" height="12"/><rect class="c" x="386" y="98" width="12" height="12"/><rect class="c" x="402" y="2" width="12" height="12"/><rect class="c" x="402" y="18" width="12" height="12"/><rect class="c" x="402" y="34" width="12" height="12"/><rect class="c" x="402" y="50" width="12" height="12"/><rect class="c" x="402" y="66" width="12" height="12"/><rect class="c" x="402" y="82" width="12" height="12"/><rect class="c" x="402" y="98" width="12" height="12"/><rect class="c cq" x="418" y="2" width="12" height="12"/><rect class="c cr" x="418" y="18" width="12" height="12"/><rect class="c" x="418" y="34" width="12" height="12"/><rect class="c" x="418" y="50" width="12" height="12"/><rect class="c" x="418" y="66" width="12" height="12"/><rect class="c" x="418" y="82" width="12" height="12"/><rect class="c" x="418" y="98" width="12" height="12"/><rect class="c" x="434" y="2" width="12" height="12"/><rect class="c" x="434" y="18" width="12" height="12"/><rect class="c" x="434" y="34" width="12" height="12"/><rect class="c" x="434" y="50" width="12" height="12"/><rect class="c" x="434" y="66" width="12" height="12"/><rect class="c" x="434" y="82" width="12" height="12"/><rect class="c" x="434" y="98" width="12" height="12"/><rect class="c" x="450" y="2" width="12" height="12"/><rect class="c" x="450" y="18" width="12" height="12"/><rect class="c" x="450" y="34" width="12" height="12"/><rect class="c" x="450" y="50" width="12" height="12"/><rect class="c" x="450" y="66" width="12" height="12"/><rect class="c" x="450" y="82" width="12" height="12"/><rect class="c" x="450" y="98" width="12" height="12"/><rect class="c" x="466" y="2" width="12" height="12"/><rect class="c" x="466" y="18" width="12" height="12"/><rect class="c" x="466" y="34" width="12" height="12"/><rect class="c" x="466" y="50" width="12" height="12"/><rect class="c" x="466" y="66" width="12" height="12"/><rect class="c cs" x="466" y="82" width="12" height="12"/><rect class="c" x="466" y="98" width="12" height="12"/><rect class="c" x="482" y="2" width="12" height="12"/><rect class="c" x="482" y="18" width="12" height="12"/><rect class="c" x="482" y="34" width="12" height="12"/><rect class="c ct" x="482" y="50" width="12" height="12"/><rect class="c cu" x="482" y="66" width="12" height="12"/><rect class="c" x="482" y="82" width="12" height="12"/><rect class="c" x="482" y="98" width="12" height="12"/><rect class="c cv" x="498" y="2" width="12" height="12"/><rect class="c" x="498" y="18" width="12" height="12"/><rect class="c" x="498" y="34" width="12" height="12"/><rect class="c" x="498" y="50" width="12" height="12"/><rect class="c" x="498" y="66" width="12" height="12"/><rect class="c" x="498" y="82" width="12" height="12"/><rect class="c" x="498" y="98" width="12" height="12"/><rect class="c" x="514" y="2" width="12" height="12"/><rect class="c" x="514" y="18" width="12" height="12"/><rect class="c" x="514" y="34" width="12" height="12"/><rect class="c" x="514" y="50" width="12" height="12"/><rect class="c" x="514" y="66" width="12" height="12"/><rect class="c" x="514" y="82" width="12" height="12"/><rect class="c" x="514" y="98" width="12" height="12"/><rect class="c" x="530" y="2" width="12" height="12"/><rect class="c" x="530" y="18" width="12" height="12"/><rect class="c" x="530" y="34" width="12" height="12"/><rect class="c" x="530" y="50" width="12" height="12"/><rect class="c" x="530" y="66" width="12" height="12"/><rect class="c" x="530" y="82" width="12" height="12"/><rect class="c" x="530" y="98" width="12" height="12"/><rect class="c" x="546" y="2" width="12" height="12"/><rect class="c" x="546" y="18" width="12" height="12"/><rect class="c" x="546" y="34" width="12" height="12"/><rect class="c" x="546" y="50" width="12" height="12"/><rect class="c" x="546" y="66" width="12" height="12"/><rect class="c" x="546" y="82" width="12" height="12"/><rect class="c" x="546" y="98" width="12" height="12"/><rect class="c" x="562" y="2" width="12" height="12"/><rect class="c" x="562" y="18" width="12" height="12"/><rect class="c" x="562" y="34" width="12" height="12"/><rect class="c" x="562" y="50" width="12" height="12"/><rect class="c" x="562" y="66" width="12" height="12"/><rect class="c" x="562" y="82" width="12" height="12"/><rect class="c" x="562" y="98" width="12" height="12"/><rect class="c" x="578" y="2" width="12" height="12"/><rect class="c" x="578" y="18" width="12" height="12"/><rect class="c" x="578" y="34" width="12" height="12"/><rect class="c" x="578" y="50" width="12" height="12"/><rect class="c" x="578" y="66" width="12" height="12"/><rect class="c" x="578" y="82" width="12" height="12"/><rect class="c" x="578" y="98" width="12" height="12"/><rect class="c" x="594" y="2" width="12" height="12"/><rect class="c" x="594" y="18" width="12" height="12"/><rect class="c" x="594" y="34" width="12" height="12"/><rect class="c" x="594" y="50" width="12" height="12"/><rect class="c cw" x="594" y="66" width="12" height="12"/><rect class="c" x="594" y="82" width="12" height="12"/><rect class="c" x="594" y="98" width="12" height="12"/><rect class="c" x="610" y="2" width="12" height="12"/><rect class="c cx" x="610" y="18" width="12" height="12"/><rect class="c" x="610" y="34" width="12" height="12"/><rect class="c" x="610" y="50" width="12" height="12"/><rect class="c cy" x="610" y="66" width="12" height="12"/><rect class="c cz" x="610" y="82" width="12" height="12"/><rect class="c c10" x="610" y="98" width="12" height="12"/><rect class="c c11" x="626" y="2" width="12" height="12"/><rect class="c c12" x="626" y="18" width="12" height="12"/><rect class="c c13" x="626" y="34" width="12" height="12"/><rect class="c" x="626" y="50" width="12" height="12"/><rect class="c" x="626" y="66" width="12" height="12"/><rect class="c" x="626" y="82" width="12" height="12"/><rect class="c" x="626" y="98" width="12" height="12"/><rect class="c" x="642" y="2" width="12" height="12"/><rect class="c" x="642" y="18" width="12" height="12"/><rect class="c" x="642" y="34" width="12" height="12"/><rect class="c" x="642" y="50" width="12" height="12"/><rect class="c" x="642" y="66" width="12" height="12"/><rect class="c" x="642" y="82" width="12" height="12"/><rect class="c" x="642" y="98" width="12" height="12"/><rect class="c" x="658" y="2" width="12" height="12"/><rect class="c" x="658" y="18" width="12" height="12"/><rect class="c" x="658" y="34" width="12" height="12"/><rect class="c" x="658" y="50" width="12" height="12"/><rect class="c" x="658" y="66" width="12" height="12"/><rect class="c" x="658" y="82" width="12" height="12"/><rect class="c" x="658" y="98" width="12" height="12"/><rect class="c c14" x="674" y="2" width="12" height="12"/><rect class="c" x="674" y="18" width="12" height="12"/><rect class="c c15" x="674" y="34" width="12" height="12"/><rect class="c" x="674" y="50" width="12" height="12"/><rect class="c" x="674" y="66" width="12" height="12"/><rect class="c c16" x="674" y="82" width="12" height="12"/><rect class="c c17" x="674" y="98" width="12" height="12"/><rect class="c c18" x="690" y="2" width="12" height="12"/><rect class="c c19" x="690" y="18" width="12" height="12"/><rect class="c" x="690" y="34" width="12" height="12"/><rect class="c c1a" x="690" y="50" width="12" height="12"/><rect class="c" x="690" y="66" width="12" height="12"/><rect class="c c1b" x="690" y="82" width="12" height="12"/><rect class="c c1c" x="690" y="98" width="12" height="12"/><rect class="c" x="706" y="2" width="12" height="12"/><rect class="c c1d" x="706" y="18" width="12" height="12"/><rect class="c c1e" x="706" y="34" width="12" height="12"/><rect class="c c1f" x="706" y="50" width="12" height="12"/><rect class="c" x="706" y="66" width="12" height="12"/><rect class="c c1g" x="706" y="82" width="12" height="12"/><rect class="c" x="706" y="98" width="12" height="12"/><rect class="c c1h" x="722" y="2" width="12" height="12"/><rect class="c c1i" x="722" y="18" width="12" height="12"/><rect class="c c1j" x="722" y="34" width="12" height="12"/><rect class="c c1k" x="722" y="50" width="12" height="12"/><rect class="c" x="722" y="66" width="12" height="12"/><rect class="c" x="722" y="82" width="12" height="12"/><rect class="c" x="722" y="98" width="12" height="12"/><rect class="c c1l" x="738" y="2" width="12" height="12"/><rect class="c" x="738" y="18" width="12" height="12"/><rect class="c c1m" x="738" y="34" width="12" height="12"/><rect class="c c1n" x="738" y="50" width="12" height="12"/><rect class="c" x="738" y="66" width="12" height="12"/><rect class="c c1o" x="738" y="82" width="12" height="12"/><rect class="c" x="738" y="98" width="12" height="12"/><rect class="c c1p" x="754" y="2" width="12" height="12"/><rect class="c c1q" x="754" y="18" width="12" height="12"/><rect class="c" x="754" y="34" width="12" height="12"/><rect class="c" x="754" y="50" width="12" height="12"/><rect class="c" x="754" y="66" width="12" height="12"/><rect class="c" x="754" y="82" width="12" height="12"/><rect class="c" x="754" y="98" width="12" height="12"/><rect class="c" x="770" y="2" width="12" height="12"/><rect class="c" x="770" y="18" width="12" height="12"/><rect class="c" x="770" y="34" width="12" height="12"/><rect class="c c1r" x="770" y="50" width="12" height="12"/><rect class="c" x="770" y="66" width="12" height="12"/><rect class="c" x="770" y="82" width="12" height="12"/><rect class="c" x="770" y="98" width="12" height="12"/><rect class="c" x="786" y="2" width="12" height="12"/><rect class="c" x="786" y="18" width="12" height="12"/><rect class="c" x="786" y="34" width="12" height="12"/><rect class="c" x="786" y="50" width="12" height="12"/><rect class="c" x="786" y="66" width="12" height="12"/><rect class="c c1s" x="786" y="82" width="12" height="12"/><rect class="c" x="786" y="98" width="12" height="12"/><rect class="c" x="802" y="2" width="12" height="12"/><rect class="c c1t" x="802" y="18" width="12" height="12"/><rect class="c" x="802" y="34" width="12" height="12"/><rect class="c" x="802" y="50" width="12" height="12"/><rect class="c" x="802" y="66" width="12" height="12"/><rect class="c" x="802" y="82" width="12" height="12"/><rect class="c" x="802" y="98" width="12" height="12"/><rect class="c" x="818" y="2" width="12" height="12"/><rect class="c c1u" x="818" y="18" width="12" height="12"/><rect class="c" x="818" y="34" width="12" height="12"/><rect class="c c1v" x="818" y="50" width="12" height="12"/><rect class="c" x="818" y="66" width="12" height="12"/><rect class="c c1w" x="818" y="82" width="12" height="12"/><rect class="c" x="818" y="98" width="12" height="12"/><rect class="c" x="834" y="2" width="12" height="12"/><rect class="c" x="834" y="18" width="12" height="12"/><rect class="c" x="834" y="34" width="12" height="12"/><rect class="c c1x" x="834" y="50" width="12" height="12"/><rect class="u u0" height="12" width="509.4" x="0.0" y="144"/><rect class="u u1" height="12" width="218.7" x="508.8" y="144"/><rect class="u u2" height="12" width="73.3" x="726.9" y="144"/><rect class="u u3" height="12" width="49.1" x="799.5" y="144"/><rect class="s s0" x="0.8" y="0.8" width="14.4" height="14.4" rx="4.5" ry="4.5"/><rect class="s s1" x="1.8" y="1.8" width="12.3" height="12.3" rx="4.1" ry="4.1"/><rect class="s s2" x="2.6" y="2.6" width="10.8" height="10.8" rx="3.6" ry="3.6"/><rect class="s s3" x="3.0" y="3.0" width="9.9" height="9.9" rx="3.3" ry="3.3"/></svg>