<svg viewBox="-16 -32 880 192" width="880" height="192" xmlns="http://www.w3.org/2000/svg"><desc>Generated with https://github.com/Platane/snk</desc><style>@keyframes c0{1.48%{fill:var(--c1)}1.5%,to{fill:var(--ce)}}@keyframes c1{2.22%{fill:var(--c1)}2.24%,to{fill:var(--ce)}}@keyframes c2{2.59%{fill:var(--c1)}2.61%,to{fill:var(--ce)}}@keyframes c3{62.44%{fill:var(--c2)}62.46%,to{fill:var(--ce)}}@keyframes c4{4.08%{fill:var(--c1)}4.1%,to{fill:var(--ce)}}@keyframes c5{4.45%{fill:var(--c1)}4.47%,to{fill:var(--ce)}}@keyframes c6{61.7%{fill:var(--c2)}61.72%,to{fill:var(--ce)}}@keyframes c7{6.31%{fill:var(--c1)}6.33%,to{fill:var(--ce)}}@keyframes c8{94.79%{fill:var(--c4)}94.81%,to{fill:var(--ce)}}@keyframes c9{60.96%{fill:var(--c2)}60.98%,to{fill:var(--ce)}}@keyframes ca{8.91%{fill:var(--c1)}8.93%,to{fill:var(--ce)}}@keyframes cb{59.1%{fill:var(--c2)}59.12%,to{fill:var(--ce)}}@keyframes cc{64.67%{fill:var(--c3)}64.69%,to{fill:var(--ce)}}@keyframes cd{68.02%{fill:var(--c3)}68.04%,to{fill:var(--ce)}}@keyframes ce{68.39%{fill:var(--c3)}68.41%,to{fill:var(--ce)}}@keyframes cf{91.81%{fill:var(--c4)}91.83%,to{fill:var(--ce)}}@keyframes cg{66.53%{fill:var(--c3)}66.55%,to{fill:var(--ce)}}@keyframes ch{13.37%{fill:var(--c1)}13.39%,to{fill:var(--ce)}}@keyframes ci{56.5%{fill:var(--c2)}56.52%,to{fill:var(--ce)}}@keyframes cj{13.74%{fill:var(--c1)}13.76%,to{fill:var(--ce)}}@keyframes ck{55.01%{fill:var(--c2)}55.03%,to{fill:var(--ce)}}@keyframes cl{15.98%{fill:var(--c1)}16%,to{fill:var(--ce)}}@keyframes cm{20.81%{fill:var(--c1)}20.83%,to{fill:var(--ce)}}@keyframes cn{50.92%{fill:var(--c2)}50.94%,to{fill:var(--ce)}}@keyframes co{19.32%{fill:var(--c1)}19.34%,to{fill:var(--ce)}}@keyframes cp{23.41%{fill:var(--c1)}23.43%,to{fill:var(--ce)}}@keyframes cq{23.78%{fill:var(--c1)}23.8%,to{fill:var(--ce)}}@keyframes cr{28.99%{fill:var(--c1)}29.01%,to{fill:var(--ce)}}@keyframes cs{29.36%{fill:var(--c1)}29.38%,to{fill:var(--ce)}}@keyframes ct{80.29%{fill:var(--c3)}80.31%,to{fill:var(--ce)}}@keyframes cu{40.51%{fill:var(--c2)}40.53%,to{fill:var(--ce)}}@keyframes cv{33.45%{fill:var(--c1)}33.47%,to{fill:var(--ce)}}@keyframes cw{33.08%{fill:var(--c1)}33.1%,to{fill:var(--ce)}}@keyframes cx{32.33%{fill:var(--c1)}32.35%,to{fill:var(--ce)}}@keyframes cy{31.22%{fill:var(--c1)}31.24%,to{fill:var(--ce)}}@keyframes cz{43.86%{fill:var(--c2)}43.88%,to{fill:var(--ce)}}@keyframes c10{33.82%{fill:var(--c1)}33.84%,to{fill:var(--ce)}}@keyframes c11{31.59%{fill:var(--c1)}31.61%,to{fill:var(--ce)}}@keyframes c12{38.65%{fill:var(--c2)}38.67%,to{fill:var(--ce)}}@keyframes c13{36.05%{fill:var(--c1)}36.07%,to{fill:var(--ce)}}@keyframes c14{36.42%{fill:var(--c1)}36.44%,to{fill:var(--ce)}}@keyframes u0{1.48%{transform:scale(0,1)}1.5%,2.22%{transform:scale(.04,1)}2.24%,2.59%{transform:scale(.08,1)}2.61%,4.08%{transform:scale(.13,1)}4.1%,4.45%{transform:scale(.17,1)}4.47%,6.31%{transform:scale(.21,1)}6.33%,8.91%{transform:scale(.25,1)}13.37%,8.93%{transform:scale(.29,1)}13.39%,13.74%{transform:scale(.33,1)}13.76%,15.98%{transform:scale(.38,1)}16%,19.32%{transform:scale(.42,1)}19.34%,20.81%{transform:scale(.46,1)}20.83%,23.41%{transform:scale(.5,1)}23.43%,23.78%{transform:scale(.54,1)}23.8%,28.99%{transform:scale(.58,1)}29.01%,29.36%{transform:scale(.63,1)}29.38%,31.22%{transform:scale(.67,1)}31.24%,31.59%{transform:scale(.71,1)}31.61%,32.33%{transform:scale(.75,1)}32.35%,33.08%{transform:scale(.79,1)}33.1%,33.45%{transform:scale(.83,1)}33.47%,33.82%{transform:scale(.88,1)}33.84%,36.05%{transform:scale(.92,1)}36.07%,36.42%{transform:scale(.96,1)}36.44%,to{transform:scale(1,1)}}@keyframes u1{38.65%{transform:scale(0,1)}38.67%,40.51%{transform:scale(.1,1)}40.53%,43.86%{transform:scale(.2,1)}43.88%,50.92%{transform:scale(.3,1)}50.94%,55.01%{transform:scale(.4,1)}55.03%,56.5%{transform:scale(.5,1)}56.52%,59.1%{transform:scale(.6,1)}59.12%,60.96%{transform:scale(.7,1)}60.98%,61.7%{transform:scale(.8,1)}61.72%,62.44%{transform:scale(.9,1)}62.46%,to{transform:scale(1,1)}}@keyframes u2{64.67%{transform:scale(0,1)}64.69%,66.53%{transform:scale(.2,1)}66.55%,68.02%{transform:scale(.4,1)}68.04%,68.39%{transform:scale(.6,1)}68.41%,80.29%{transform:scale(.8,1)}80.31%,to{transform:scale(1,1)}}@keyframes u3{91.81%{transform:scale(0,1)}91.83%,94.79%{transform:scale(.5,1)}94.81%,to{transform:scale(1,1)}}@keyframes s0{0%,99.63%{transform:translate(0,-16px)}.37%{transform:translate(0,0)}1.86%,97.77%{transform:translate(64px,0)}2.6%{transform:translate(64px,32px)}4.09%{transform:translate(128px,32px)}4.46%{transform:translate(128px,48px)}4.83%{transform:translate(112px,48px)}5.2%{transform:translate(112px,32px)}5.95%{transform:translate(144px,32px)}6.32%,94.05%{transform:translate(144px,16px)}6.69%{transform:translate(160px,16px)}8.18%{transform:translate(160px,80px)}8.55%{transform:translate(144px,80px)}8.92%{transform:translate(144px,96px)}59.48%,9.67%{transform:translate(176px,96px)}10.04%{transform:translate(176px,80px)}11.15%{transform:translate(224px,80px)}12.27%,67.29%{transform:translate(224px,32px)}13.01%,56.13%{transform:translate(256px,32px)}13.38%{transform:translate(256px,16px)}15.24%{transform:translate(336px,16px)}15.99%{transform:translate(336px,48px)}18.96%{transform:translate(464px,48px)}19.33%,22.3%{transform:translate(464px,32px)}19.7%{transform:translate(480px,32px)}20.45%{transform:translate(480px,0)}21.19%{transform:translate(448px,0)}21.93%{transform:translate(448px,32px)}23.79%{transform:translate(464px,96px)}28.25%{transform:translate(656px,96px)}29%{transform:translate(656px,64px)}29.74%,40.89%{transform:translate(688px,64px)}30.11%{transform:translate(688px,80px)}31.6%{transform:translate(752px,80px)}31.97%,37.92%{transform:translate(752px,64px)}32.34%,39.78%{transform:translate(736px,64px)}33.46%{transform:translate(736px,16px)}35.32%{transform:translate(816px,16px)}36.43%{transform:translate(816px,64px)}38.66%{transform:translate(752px,96px)}39.03%{transform:translate(736px,96px)}41.64%{transform:translate(688px,32px)}43.12%{transform:translate(752px,32px)}43.87%{transform:translate(752px,0)}50.56%{transform:translate(464px,0)}50.93%{transform:translate(464px,16px)}54.65%{transform:translate(304px,16px)}55.02%{transform:translate(304px,32px)}56.88%{transform:translate(256px,64px)}58.36%{transform:translate(192px,64px)}59.11%{transform:translate(192px,96px)}60.22%{transform:translate(176px,64px)}61.34%{transform:translate(128px,64px)}61.71%{transform:translate(128px,80px)}62.08%{transform:translate(112px,80px)}62.45%{transform:translate(112px,96px)}65.43%{transform:translate(240px,96px)}66.91%{transform:translate(240px,32px)}68.03%{transform:translate(224px,0)}79.18%{transform:translate(704px,0)}80.3%{transform:translate(704px,48px)}80.67%{transform:translate(688px,48px)}81.41%{transform:translate(688px,16px)}94.8%{transform:translate(144px,48px)}95.91%{transform:translate(96px,48px)}97.03%{transform:translate(96px,0)}98.14%{transform:translate(64px,-16px)}}@keyframes s1{0%,99.63%{transform:translate(16px,-16px)}.37%{transform:translate(0,-16px)}.74%{transform:translate(0,0)}2.23%,98.14%{transform:translate(64px,0)}2.97%{transform:translate(64px,32px)}4.46%{transform:translate(128px,32px)}4.83%{transform:translate(128px,48px)}5.2%{transform:translate(112px,48px)}5.58%{transform:translate(112px,32px)}6.32%{transform:translate(144px,32px)}6.69%,94.42%{transform:translate(144px,16px)}7.06%{transform:translate(160px,16px)}8.55%{transform:translate(160px,80px)}8.92%{transform:translate(144px,80px)}9.29%{transform:translate(144px,96px)}10.04%,59.85%{transform:translate(176px,96px)}10.41%{transform:translate(176px,80px)}11.52%{transform:translate(224px,80px)}12.64%,67.66%{transform:translate(224px,32px)}13.38%,56.51%{transform:translate(256px,32px)}13.75%{transform:translate(256px,16px)}15.61%{transform:translate(336px,16px)}16.36%{transform:translate(336px,48px)}19.33%{transform:translate(464px,48px)}19.7%,22.68%{transform:translate(464px,32px)}20.07%{transform:translate(480px,32px)}20.82%{transform:translate(480px,0)}21.56%{transform:translate(448px,0)}22.3%{transform:translate(448px,32px)}24.16%{transform:translate(464px,96px)}28.62%{transform:translate(656px,96px)}29.37%{transform:translate(656px,64px)}30.11%,41.26%{transform:translate(688px,64px)}30.48%{transform:translate(688px,80px)}31.97%{transform:translate(752px,80px)}32.34%,38.29%{transform:translate(752px,64px)}32.71%,40.15%{transform:translate(736px,64px)}33.83%{transform:translate(736px,16px)}35.69%{transform:translate(816px,16px)}36.8%{transform:translate(816px,64px)}39.03%{transform:translate(752px,96px)}39.41%{transform:translate(736px,96px)}42.01%{transform:translate(688px,32px)}43.49%{transform:translate(752px,32px)}44.24%{transform:translate(752px,0)}50.93%{transform:translate(464px,0)}51.3%{transform:translate(464px,16px)}55.02%{transform:translate(304px,16px)}55.39%{transform:translate(304px,32px)}57.25%{transform:translate(256px,64px)}58.74%{transform:translate(192px,64px)}59.48%{transform:translate(192px,96px)}60.59%{transform:translate(176px,64px)}61.71%{transform:translate(128px,64px)}62.08%{transform:translate(128px,80px)}62.45%{transform:translate(112px,80px)}62.83%{transform:translate(112px,96px)}65.8%{transform:translate(240px,96px)}67.29%{transform:translate(240px,32px)}68.4%{transform:translate(224px,0)}79.55%{transform:translate(704px,0)}80.67%{transform:translate(704px,48px)}81.04%{transform:translate(688px,48px)}81.78%{transform:translate(688px,16px)}95.17%{transform:translate(144px,48px)}96.28%{transform:translate(96px,48px)}97.4%{transform:translate(96px,0)}98.51%{transform:translate(64px,-16px)}}@keyframes s2{0%,99.63%{transform:translate(32px,-16px)}.74%{transform:translate(0,-16px)}1.12%{transform:translate(0,0)}2.6%,98.51%{transform:translate(64px,0)}3.35%{transform:translate(64px,32px)}4.83%{transform:translate(128px,32px)}5.2%{transform:translate(128px,48px)}5.58%{transform:translate(112px,48px)}5.95%{transform:translate(112px,32px)}6.69%{transform:translate(144px,32px)}7.06%,94.8%{transform:translate(144px,16px)}7.43%{transform:translate(160px,16px)}8.92%{transform:translate(160px,80px)}9.29%{transform:translate(144px,80px)}9.67%{transform:translate(144px,96px)}10.41%,60.22%{transform:translate(176px,96px)}10.78%{transform:translate(176px,80px)}11.9%{transform:translate(224px,80px)}13.01%,68.03%{transform:translate(224px,32px)}13.75%,56.88%{transform:translate(256px,32px)}14.13%{transform:translate(256px,16px)}15.99%{transform:translate(336px,16px)}16.73%{transform:translate(336px,48px)}19.7%{transform:translate(464px,48px)}20.07%,23.05%{transform:translate(464px,32px)}20.45%{transform:translate(480px,32px)}21.19%{transform:translate(480px,0)}21.93%{transform:translate(448px,0)}22.68%{transform:translate(448px,32px)}24.54%{transform:translate(464px,96px)}29%{transform:translate(656px,96px)}29.74%{transform:translate(656px,64px)}30.48%,41.64%{transform:translate(688px,64px)}30.86%{transform:translate(688px,80px)}32.34%{transform:translate(752px,80px)}32.71%,38.66%{transform:translate(752px,64px)}33.09%,40.52%{transform:translate(736px,64px)}34.2%{transform:translate(736px,16px)}36.06%{transform:translate(816px,16px)}37.17%{transform:translate(816px,64px)}39.41%{transform:translate(752px,96px)}39.78%{transform:translate(736px,96px)}42.38%{transform:translate(688px,32px)}43.87%{transform:translate(752px,32px)}44.61%{transform:translate(752px,0)}51.3%{transform:translate(464px,0)}51.67%{transform:translate(464px,16px)}55.39%{transform:translate(304px,16px)}55.76%{transform:translate(304px,32px)}57.62%{transform:translate(256px,64px)}59.11%{transform:translate(192px,64px)}59.85%{transform:translate(192px,96px)}60.97%{transform:translate(176px,64px)}62.08%{transform:translate(128px,64px)}62.45%{transform:translate(128px,80px)}62.83%{transform:translate(112px,80px)}63.2%{transform:translate(112px,96px)}66.17%{transform:translate(240px,96px)}67.66%{transform:translate(240px,32px)}68.77%{transform:translate(224px,0)}79.93%{transform:translate(704px,0)}81.04%{transform:translate(704px,48px)}81.41%{transform:translate(688px,48px)}82.16%{transform:translate(688px,16px)}95.54%{transform:translate(144px,48px)}96.65%{transform:translate(96px,48px)}97.77%{transform:translate(96px,0)}98.88%{transform:translate(64px,-16px)}}@keyframes s3{0%,99.63%{transform:translate(48px,-16px)}1.12%{transform:translate(0,-16px)}1.49%{transform:translate(0,0)}2.97%,98.88%{transform:translate(64px,0)}3.72%{transform:translate(64px,32px)}5.2%{transform:translate(128px,32px)}5.58%{transform:translate(128px,48px)}5.95%{transform:translate(112px,48px)}6.32%{transform:translate(112px,32px)}7.06%{transform:translate(144px,32px)}7.43%,95.17%{transform:translate(144px,16px)}7.81%{transform:translate(160px,16px)}9.29%{transform:translate(160px,80px)}9.67%{transform:translate(144px,80px)}10.04%{transform:translate(144px,96px)}10.78%,60.59%{transform:translate(176px,96px)}11.15%{transform:translate(176px,80px)}12.27%{transform:translate(224px,80px)}13.38%,68.4%{transform:translate(224px,32px)}14.13%,57.25%{transform:translate(256px,32px)}14.5%{transform:translate(256px,16px)}16.36%{transform:translate(336px,16px)}17.1%{transform:translate(336px,48px)}20.07%{transform:translate(464px,48px)}20.45%,23.42%{transform:translate(464px,32px)}20.82%{transform:translate(480px,32px)}21.56%{transform:translate(480px,0)}22.3%{transform:translate(448px,0)}23.05%{transform:translate(448px,32px)}24.91%{transform:translate(464px,96px)}29.37%{transform:translate(656px,96px)}30.11%{transform:translate(656px,64px)}30.86%,42.01%{transform:translate(688px,64px)}31.23%{transform:translate(688px,80px)}32.71%{transform:translate(752px,80px)}33.09%,39.03%{transform:translate(752px,64px)}33.46%,40.89%{transform:translate(736px,64px)}34.57%{transform:translate(736px,16px)}36.43%{transform:translate(816px,16px)}37.55%{transform:translate(816px,64px)}39.78%{transform:translate(752px,96px)}40.15%{transform:translate(736px,96px)}42.75%{transform:translate(688px,32px)}44.24%{transform:translate(752px,32px)}44.98%{transform:translate(752px,0)}51.67%{transform:translate(464px,0)}52.04%{transform:translate(464px,16px)}55.76%{transform:translate(304px,16px)}56.13%{transform:translate(304px,32px)}57.99%{transform:translate(256px,64px)}59.48%{transform:translate(192px,64px)}60.22%{transform:translate(192px,96px)}61.34%{transform:translate(176px,64px)}62.45%{transform:translate(128px,64px)}62.83%{transform:translate(128px,80px)}63.2%{transform:translate(112px,80px)}63.57%{transform:translate(112px,96px)}66.54%{transform:translate(240px,96px)}68.03%{transform:translate(240px,32px)}69.14%{transform:translate(224px,0)}80.3%{transform:translate(704px,0)}81.41%{transform:translate(704px,48px)}81.78%{transform:translate(688px,48px)}82.53%{transform:translate(688px,16px)}95.91%{transform:translate(144px,48px)}97.03%{transform:translate(96px,48px)}98.14%{transform:translate(96px,0)}99.26%{transform:translate(64px,-16px)}}:root{--cb:#1b1f230a;--cs:purple;--ce:#ebedf0;--c0:#ebedf0;--c1:#9be9a8;--c2:#40c463;--c3:#30a14e;--c4:#216e39}@media (prefers-color-scheme:dark){:root{--cb:#1b1f230a;--cs:purple;--ce:#161b22;--c1:#01311f;--c2:#034525;--c3:#0f6d31;--c4:#00c647}}.c{shape-rendering:geometricPrecision;fill:var(--ce);stroke-width:1px;stroke:var(--cb);animation:none 26900ms linear infinite}.c.c0,.c.c1,.c.c2{fill:var(--c1);animation-name:c0}.c.c1,.c.c2{animation-name:c1}.c.c2{animation-name:c2}.c.c3{fill:var(--c2);animation-name:c3}.c.c4,.c.c5{fill:var(--c1);animation-name:c4}.c.c5{animation-name:c5}.c.c6{fill:var(--c2);animation-name:c6}.c.c7{fill:var(--c1);animation-name:c7}.c.c8{fill:var(--c4);animation-name:c8}.c.c9{fill:var(--c2);animation-name:c9}.c.ca{fill:var(--c1);animation-name:ca}.c.cb{fill:var(--c2);animation-name:cb}.c.cc,.c.cd,.c.ce{fill:var(--c3);animation-name:cc}.c.cd,.c.ce{animation-name:cd}.c.ce{animation-name:ce}.c.cf{fill:var(--c4);animation-name:cf}.c.cg{fill:var(--c3);animation-name:cg}.c.ch{fill:var(--c1);animation-name:ch}.c.ci{fill:var(--c2);animation-name:ci}.c.cj{fill:var(--c1);animation-name:cj}.c.ck{fill:var(--c2);animation-name:ck}.c.cl,.c.cm{fill:var(--c1);animation-name:cl}.c.cm{animation-name:cm}.c.cn{fill:var(--c2);animation-name:cn}.c.co,.c.cp{fill:var(--c1);animation-name:co}.c.cp{animation-name:cp}.c.cq,.c.cr,.c.cs{fill:var(--c1);animation-name:cq}.c.cr,.c.cs{animation-name:cr}.c.cs{animation-name:cs}.c.ct{fill:var(--c3);animation-name:ct}.c.cu{fill:var(--c2);animation-name:cu}.c.cv{fill:var(--c1);animation-name:cv}.c.cw,.c.cx,.c.cy{fill:var(--c1);animation-name:cw}.c.cx,.c.cy{animation-name:cx}.c.cy{animation-name:cy}.c.cz{fill:var(--c2);animation-name:cz}.c.c10,.c.c11{fill:var(--c1);animation-name:c10}.c.c11{animation-name:c11}.c.c12{fill:var(--c2);animation-name:c12}.c.c13,.c.c14{fill:var(--c1);animation-name:c13}.c.c14{animation-name:c14}.s,.u{animation:none linear 26900ms infinite}.u,.u.u0{transform-origin:0 0}.u{transform:scale(0,1)}.u.u0{fill:var(--c1);animation-name:u0}.u.u1{fill:var(--c2);animation-name:u1;transform-origin:496.4px 0}.u.u2{fill:var(--c3);animation-name:u2;transform-origin:703.2px 0}.u.u3{fill:var(--c4);animation-name:u3;transform-origin:806.6px 0}.s{shape-rendering:geometricPrecision;fill:var(--cs)}.s.s0{transform:translate(0,-16px);animation-name:s0}.s.s1{transform:translate(16px,-16px);animation-name:s1}.s.s2{transform:translate(32px,-16px);animation-name:s2}.s.s3{transform:translate(48px,-16px);animation-name:s3}</style><rect class="c" x="2" y="2" rx="2" ry="2" width="12" height="12"/><rect class="c" x="2" y="18" rx="2" ry="2" width="12" height="12"/><rect class="c" x="2" y="34" rx="2" ry="2" width="12" height="12"/><rect class="c" x="2" y="50" rx="2" ry="2" width="12" height="12"/><rect class="c" x="2" y="66" rx="2" ry="2" width="12" height="12"/><rect class="c" x="2" y="82" rx="2" ry="2" width="12" height="12"/><rect class="c" x="2" y="98" rx="2" ry="2" width="12" height="12"/><rect class="c" x="18" y="2" rx="2" ry="2" width="12" height="12"/><rect class="c" x="18" y="18" rx="2" ry="2" width="12" height="12"/><rect class="c" x="18" y="34" rx="2" ry="2" width="12" height="12"/><rect class="c" x="18" y="50" rx="2" ry="2" width="12" height="12"/><rect class="c" x="18" y="66" rx="2" ry="2" width="12" height="12"/><rect class="c" x="18" y="82" rx="2" ry="2" width="12" height="12"/><rect class="c" x="18" y="98" rx="2" ry="2" width="12" height="12"/><rect class="c" x="34" y="2" rx="2" ry="2" width="12" height="12"/><rect class="c" x="34" y="18" rx="2" ry="2" width="12" height="12"/><rect class="c" x="34" y="34" rx="2" ry="2" width="12" height="12"/><rect class="c" x="34" y="50" rx="2" ry="2" width="12" height="12"/><rect class="c" x="34" y="66" rx="2" ry="2" width="12" height="12"/><rect class="c" x="34" y="82" rx="2" ry="2" width="12" height="12"/><rect class="c" x="34" y="98" rx="2" ry="2" width="12" height="12"/><rect class="c c0" x="50" y="2" rx="2" ry="2" width="12" height="12"/><rect class="c" x="50" y="18" rx="2" ry="2" width="12" height="12"/><rect class="c" x="50" y="34" rx="2" ry="2" width="12" height="12"/><rect class="c" x="50" y="50" rx="2" ry="2" width="12" height="12"/><rect class="c" x="50" y="66" rx="2" ry="2" width="12" height="12"/><rect class="c" x="50" y="82" rx="2" ry="2" width="12" height="12"/><rect class="c" x="50" y="98" rx="2" ry="2" width="12" height="12"/><rect class="c" x="66" y="2" rx="2" ry="2" width="12" height="12"/><rect class="c c1" x="66" y="18" rx="2" ry="2" width="12" height="12"/><rect class="c c2" x="66" y="34" rx="2" ry="2" width="12" height="12"/><rect class="c" x="66" y="50" rx="2" ry="2" width="12" height="12"/><rect class="c" x="66" y="66" rx="2" ry="2" width="12" height="12"/><rect class="c" x="66" y="82" rx="2" ry="2" width="12" height="12"/><rect class="c" x="66" y="98" rx="2" ry="2" width="12" height="12"/><rect class="c" x="82" y="2" rx="2" ry="2" width="12" height="12"/><rect class="c" x="82" y="18" rx="2" ry="2" width="12" height="12"/><rect class="c" x="82" y="34" rx="2" ry="2" width="12" height="12"/><rect class="c" x="82" y="50" rx="2" ry="2" width="12" height="12"/><rect class="c" x="82" y="66" rx="2" ry="2" width="12" height="12"/><rect class="c" x="82" y="82" rx="2" ry="2" width="12" height="12"/><rect class="c" x="82" y="98" rx="2" ry="2" width="12" height="12"/><rect class="c" x="98" y="2" rx="2" ry="2" width="12" height="12"/><rect class="c" x="98" y="18" rx="2" ry="2" width="12" height="12"/><rect class="c" x="98" y="34" rx="2" ry="2" width="12" height="12"/><rect class="c" x="98" y="50" rx="2" ry="2" width="12" height="12"/><rect class="c" x="98" y="66" rx="2" ry="2" width="12" height="12"/><rect class="c" x="98" y="82" rx="2" ry="2" width="12" height="12"/><rect class="c" x="98" y="98" rx="2" ry="2" width="12" height="12"/><rect class="c" x="114" y="2" rx="2" ry="2" width="12" height="12"/><rect class="c" x="114" y="18" rx="2" ry="2" width="12" height="12"/><rect class="c" x="114" y="34" rx="2" ry="2" width="12" height="12"/><rect class="c" x="114" y="50" rx="2" ry="2" width="12" height="12"/><rect class="c" x="114" y="66" rx="2" ry="2" width="12" height="12"/><rect class="c" x="114" y="82" rx="2" ry="2" width="12" height="12"/><rect class="c c3" x="114" y="98" rx="2" ry="2" width="12" height="12"/><rect class="c" x="130" y="2" rx="2" ry="2" width="12" height="12"/><rect class="c" x="130" y="18" rx="2" ry="2" width="12" height="12"/><rect class="c c4" x="130" y="34" rx="2" ry="2" width="12" height="12"/><rect class="c c5" x="130" y="50" rx="2" ry="2" width="12" height="12"/><rect class="c" x="130" y="66" rx="2" ry="2" width="12" height="12"/><rect class="c c6" x="130" y="82" rx="2" ry="2" width="12" height="12"/><rect class="c" x="130" y="98" rx="2" ry="2" width="12" height="12"/><rect class="c" x="146" y="2" rx="2" ry="2" width="12" height="12"/><rect class="c c7" x="146" y="18" rx="2" ry="2" width="12" height="12"/><rect class="c" x="146" y="34" rx="2" ry="2" width="12" height="12"/><rect class="c c8" x="146" y="50" rx="2" ry="2" width="12" height="12"/><rect class="c c9" x="146" y="66" rx="2" ry="2" width="12" height="12"/><rect class="c" x="146" y="82" rx="2" ry="2" width="12" height="12"/><rect class="c ca" x="146" y="98" rx="2" ry="2" width="12" height="12"/><rect class="c" x="162" y="2" rx="2" ry="2" width="12" height="12"/><rect class="c" x="162" y="18" rx="2" ry="2" width="12" height="12"/><rect class="c" x="162" y="34" rx="2" ry="2" width="12" height="12"/><rect class="c" x="162" y="50" rx="2" ry="2" width="12" height="12"/><rect class="c" x="162" y="66" rx="2" ry="2" width="12" height="12"/><rect class="c" x="162" y="82" rx="2" ry="2" width="12" height="12"/><rect class="c" x="162" y="98" rx="2" ry="2" width="12" height="12"/><rect class="c" x="178" y="2" rx="2" ry="2" width="12" height="12"/><rect class="c" x="178" y="18" rx="2" ry="2" width="12" height="12"/><rect class="c" x="178" y="34" rx="2" ry="2" width="12" height="12"/><rect class="c" x="178" y="50" rx="2" ry="2" width="12" height="12"/><rect class="c" x="178" y="66" rx="2" ry="2" width="12" height="12"/><rect class="c" x="178" y="82" rx="2" ry="2" width="12" height="12"/><rect class="c" x="178" y="98" rx="2" ry="2" width="12" height="12"/><rect class="c" x="194" y="2" rx="2" ry="2" width="12" height="12"/><rect class="c" x="194" y="18" rx="2" ry="2" width="12" height="12"/><rect class="c" x="194" y="34" rx="2" ry="2" width="12" height="12"/><rect class="c" x="194" y="50" rx="2" ry="2" width="12" height="12"/><rect class="c" x="194" y="66" rx="2" ry="2" width="12" height="12"/><rect class="c" x="194" y="82" rx="2" ry="2" width="12" height="12"/><rect class="c cb" x="194" y="98" rx="2" ry="2" width="12" height="12"/><rect class="c" x="210" y="2" rx="2" ry="2" width="12" height="12"/><rect class="c" x="210" y="18" rx="2" ry="2" width="12" height="12"/><rect class="c" x="210" y="34" rx="2" ry="2" width="12" height="12"/><rect class="c" x="210" y="50" rx="2" ry="2" width="12" height="12"/><rect class="c" x="210" y="66" rx="2" ry="2" width="12" height="12"/><rect class="c" x="210" y="82" rx="2" ry="2" width="12" height="12"/><rect class="c cc" x="210" y="98" rx="2" ry="2" width="12" height="12"/><rect class="c cd" x="226" y="2" rx="2" ry="2" width="12" height="12"/><rect class="c" x="226" y="18" rx="2" ry="2" width="12" height="12"/><rect class="c" x="226" y="34" rx="2" ry="2" width="12" height="12"/><rect class="c" x="226" y="50" rx="2" ry="2" width="12" height="12"/><rect class="c" x="226" y="66" rx="2" ry="2" width="12" height="12"/><rect class="c" x="226" y="82" rx="2" ry="2" width="12" height="12"/><rect class="c" x="226" y="98" rx="2" ry="2" width="12" height="12"/><rect class="c ce" x="242" y="2" rx="2" ry="2" width="12" height="12"/><rect class="c cf" x="242" y="18" rx="2" ry="2" width="12" height="12"/><rect class="c" x="242" y="34" rx="2" ry="2" width="12" height="12"/><rect class="c cg" x="242" y="50" rx="2" ry="2" width="12" height="12"/><rect class="c" x="242" y="66" rx="2" ry="2" width="12" height="12"/><rect class="c" x="242" y="82" rx="2" ry="2" width="12" height="12"/><rect class="c" x="242" y="98" rx="2" ry="2" width="12" height="12"/><rect class="c" x="258" y="2" rx="2" ry="2" width="12" height="12"/><rect class="c ch" x="258" y="18" rx="2" ry="2" width="12" height="12"/><rect class="c" x="258" y="34" rx="2" ry="2" width="12" height="12"/><rect class="c ci" x="258" y="50" rx="2" ry="2" width="12" height="12"/><rect class="c" x="258" y="66" rx="2" ry="2" width="12" height="12"/><rect class="c" x="258" y="82" rx="2" ry="2" width="12" height="12"/><rect class="c" x="258" y="98" rx="2" ry="2" width="12" height="12"/><rect class="c" x="274" y="2" rx="2" ry="2" width="12" height="12"/><rect class="c cj" x="274" y="18" rx="2" ry="2" width="12" height="12"/><rect class="c" x="274" y="34" rx="2" ry="2" width="12" height="12"/><rect class="c" x="274" y="50" rx="2" ry="2" width="12" height="12"/><rect class="c" x="274" y="66" rx="2" ry="2" width="12" height="12"/><rect class="c" x="274" y="82" rx="2" ry="2" width="12" height="12"/><rect class="c" x="274" y="98" rx="2" ry="2" width="12" height="12"/><rect class="c" x="290" y="2" rx="2" ry="2" width="12" height="12"/><rect class="c" x="290" y="18" rx="2" ry="2" width="12" height="12"/><rect class="c" x="290" y="34" rx="2" ry="2" width="12" height="12"/><rect class="c" x="290" y="50" rx="2" ry="2" width="12" height="12"/><rect class="c" x="290" y="66" rx="2" ry="2" width="12" height="12"/><rect class="c" x="290" y="82" rx="2" ry="2" width="12" height="12"/><rect class="c" x="290" y="98" rx="2" ry="2" width="12" height="12"/><rect class="c" x="306" y="2" rx="2" ry="2" width="12" height="12"/><rect class="c" x="306" y="18" rx="2" ry="2" width="12" height="12"/><rect class="c ck" x="306" y="34" rx="2" ry="2" width="12" height="12"/><rect class="c" x="306" y="50" rx="2" ry="2" width="12" height="12"/><rect class="c" x="306" y="66" rx="2" ry="2" width="12" height="12"/><rect class="c" x="306" y="82" rx="2" ry="2" width="12" height="12"/><rect class="c" x="306" y="98" rx="2" ry="2" width="12" height="12"/><rect class="c" x="322" y="2" rx="2" ry="2" width="12" height="12"/><rect class="c" x="322" y="18" rx="2" ry="2" width="12" height="12"/><rect class="c" x="322" y="34" rx="2" ry="2" width="12" height="12"/><rect class="c" x="322" y="50" rx="2" ry="2" width="12" height="12"/><rect class="c" x="322" y="66" rx="2" ry="2" width="12" height="12"/><rect class="c" x="322" y="82" rx="2" ry="2" width="12" height="12"/><rect class="c" x="322" y="98" rx="2" ry="2" width="12" height="12"/><rect class="c" x="338" y="2" rx="2" ry="2" width="12" height="12"/><rect class="c" x="338" y="18" rx="2" ry="2" width="12" height="12"/><rect class="c" x="338" y="34" rx="2" ry="2" width="12" height="12"/><rect class="c cl" x="338" y="50" rx="2" ry="2" width="12" height="12"/><rect class="c" x="338" y="66" rx="2" ry="2" width="12" height="12"/><rect class="c" x="338" y="82" rx="2" ry="2" width="12" height="12"/><rect class="c" x="338" y="98" rx="2" ry="2" width="12" height="12"/><rect class="c" x="354" y="2" rx="2" ry="2" width="12" height="12"/><rect class="c" x="354" y="18" rx="2" ry="2" width="12" height="12"/><rect class="c" x="354" y="34" rx="2" ry="2" width="12" height="12"/><rect class="c" x="354" y="50" rx="2" ry="2" width="12" height="12"/><rect class="c" x="354" y="66" rx="2" ry="2" width="12" height="12"/><rect class="c" x="354" y="82" rx="2" ry="2" width="12" height="12"/><rect class="c" x="354" y="98" rx="2" ry="2" width="12" height="12"/><rect class="c" x="370" y="2" rx="2" ry="2" width="12" height="12"/><rect class="c" x="370" y="18" rx="2" ry="2" width="12" height="12"/><rect class="c" x="370" y="34" rx="2" ry="2" width="12" height="12"/><rect class="c" x="370" y="50" rx="2" ry="2" width="12" height="12"/><rect class="c" x="370" y="66" rx="2" ry="2" width="12" height="12"/><rect class="c" x="370" y="82" rx="2" ry="2" width="12" height="12"/><rect class="c" x="370" y="98" rx="2" ry="2" width="12" height="12"/><rect class="c" x="386" y="2" rx="2" ry="2" width="12" height="12"/><rect class="c" x="386" y="18" rx="2" ry="2" width="12" height="12"/><rect class="c" x="386" y="34" rx="2" ry="2" width="12" height="12"/><rect class="c" x="386" y="50" rx="2" ry="2" width="12" height="12"/><rect class="c" x="386" y="66" rx="2" ry="2" width="12" height="12"/><rect class="c" x="386" y="82" rx="2" ry="2" width="12" height="12"/><rect class="c" x="386" y="98" rx="2" ry="2" width="12" height="12"/><rect class="c" x="402" y="2" rx="2" ry="2" width="12" height="12"/><rect class="c" x="402" y="18" rx="2" ry="2" width="12" height="12"/><rect class="c" x="402" y="34" rx="2" ry="2" width="12" height="12"/><rect class="c" x="402" y="50" rx="2" ry="2" width="12" height="12"/><rect class="c" x="402" y="66" rx="2" ry="2" width="12" height="12"/><rect class="c" x="402" y="82" rx="2" ry="2" width="12" height="12"/><rect class="c" x="402" y="98" rx="2" ry="2" width="12" height="12"/><rect class="c" x="418" y="2" rx="2" ry="2" width="12" height="12"/><rect class="c" x="418" y="18" rx="2" ry="2" width="12" height="12"/><rect class="c" x="418" y="34" rx="2" ry="2" width="12" height="12"/><rect class="c" x="418" y="50" rx="2" ry="2" width="12" height="12"/><rect class="c" x="418" y="66" rx="2" ry="2" width="12" height="12"/><rect class="c" x="418" y="82" rx="2" ry="2" width="12" height="12"/><rect class="c" x="418" y="98" rx="2" ry="2" width="12" height="12"/><rect class="c" x="434" y="2" rx="2" ry="2" width="12" height="12"/><rect class="c" x="434" y="18" rx="2" ry="2" width="12" height="12"/><rect class="c" x="434" y="34" rx="2" ry="2" width="12" height="12"/><rect class="c" x="434" y="50" rx="2" ry="2" width="12" height="12"/><rect class="c" x="434" y="66" rx="2" ry="2" width="12" height="12"/><rect class="c" x="434" y="82" rx="2" ry="2" width="12" height="12"/><rect class="c" x="434" y="98" rx="2" ry="2" width="12" height="12"/><rect class="c" x="450" y="2" rx="2" ry="2" width="12" height="12"/><rect class="c" x="450" y="18" rx="2" ry="2" width="12" height="12"/><rect class="c" x="450" y="34" rx="2" ry="2" width="12" height="12"/><rect class="c" x="450" y="50" rx="2" ry="2" width="12" height="12"/><rect class="c" x="450" y="66" rx="2" ry="2" width="12" height="12"/><rect class="c" x="450" y="82" rx="2" ry="2" width="12" height="12"/><rect class="c" x="450" y="98" rx="2" ry="2" width="12" height="12"/><rect class="c cm" x="466" y="2" rx="2" ry="2" width="12" height="12"/><rect class="c cn" x="466" y="18" rx="2" ry="2" width="12" height="12"/><rect class="c co" x="466" y="34" rx="2" ry="2" width="12" height="12"/><rect class="c" x="466" y="50" rx="2" ry="2" width="12" height="12"/><rect class="c" x="466" y="66" rx="2" ry="2" width="12" height="12"/><rect class="c cp" x="466" y="82" rx="2" ry="2" width="12" height="12"/><rect class="c cq" x="466" y="98" rx="2" ry="2" width="12" height="12"/><rect class="c" x="482" y="2" rx="2" ry="2" width="12" height="12"/><rect class="c" x="482" y="18" rx="2" ry="2" width="12" height="12"/><rect class="c" x="482" y="34" rx="2" ry="2" width="12" height="12"/><rect class="c" x="482" y="50" rx="2" ry="2" width="12" height="12"/><rect class="c" x="482" y="66" rx="2" ry="2" width="12" height="12"/><rect class="c" x="482" y="82" rx="2" ry="2" width="12" height="12"/><rect class="c" x="482" y="98" rx="2" ry="2" width="12" height="12"/><rect class="c" x="498" y="2" rx="2" ry="2" width="12" height="12"/><rect class="c" x="498" y="18" rx="2" ry="2" width="12" height="12"/><rect class="c" x="498" y="34" rx="2" ry="2" width="12" height="12"/><rect class="c" x="498" y="50" rx="2" ry="2" width="12" height="12"/><rect class="c" x="498" y="66" rx="2" ry="2" width="12" height="12"/><rect class="c" x="498" y="82" rx="2" ry="2" width="12" height="12"/><rect class="c" x="498" y="98" rx="2" ry="2" width="12" height="12"/><rect class="c" x="514" y="2" rx="2" ry="2" width="12" height="12"/><rect class="c" x="514" y="18" rx="2" ry="2" width="12" height="12"/><rect class="c" x="514" y="34" rx="2" ry="2" width="12" height="12"/><rect class="c" x="514" y="50" rx="2" ry="2" width="12" height="12"/><rect class="c" x="514" y="66" rx="2" ry="2" width="12" height="12"/><rect class="c" x="514" y="82" rx="2" ry="2" width="12" height="12"/><rect class="c" x="514" y="98" rx="2" ry="2" width="12" height="12"/><rect class="c" x="530" y="2" rx="2" ry="2" width="12" height="12"/><rect class="c" x="530" y="18" rx="2" ry="2" width="12" height="12"/><rect class="c" x="530" y="34" rx="2" ry="2" width="12" height="12"/><rect class="c" x="530" y="50" rx="2" ry="2" width="12" height="12"/><rect class="c" x="530" y="66" rx="2" ry="2" width="12" height="12"/><rect class="c" x="530" y="82" rx="2" ry="2" width="12" height="12"/><rect class="c" x="530" y="98" rx="2" ry="2" width="12" height="12"/><rect class="c" x="546" y="2" rx="2" ry="2" width="12" height="12"/><rect class="c" x="546" y="18" rx="2" ry="2" width="12" height="12"/><rect class="c" x="546" y="34" rx="2" ry="2" width="12" height="12"/><rect class="c" x="546" y="50" rx="2" ry="2" width="12" height="12"/><rect class="c" x="546" y="66" rx="2" ry="2" width="12" height="12"/><rect class="c" x="546" y="82" rx="2" ry="2" width="12" height="12"/><rect class="c" x="546" y="98" rx="2" ry="2" width="12" height="12"/><rect class="c" x="562" y="2" rx="2" ry="2" width="12" height="12"/><rect class="c" x="562" y="18" rx="2" ry="2" width="12" height="12"/><rect class="c" x="562" y="34" rx="2" ry="2" width="12" height="12"/><rect class="c" x="562" y="50" rx="2" ry="2" width="12" height="12"/><rect class="c" x="562" y="66" rx="2" ry="2" width="12" height="12"/><rect class="c" x="562" y="82" rx="2" ry="2" width="12" height="12"/><rect class="c" x="562" y="98" rx="2" ry="2" width="12" height="12"/><rect class="c" x="578" y="2" rx="2" ry="2" width="12" height="12"/><rect class="c" x="578" y="18" rx="2" ry="2" width="12" height="12"/><rect class="c" x="578" y="34" rx="2" ry="2" width="12" height="12"/><rect class="c" x="578" y="50" rx="2" ry="2" width="12" height="12"/><rect class="c" x="578" y="66" rx="2" ry="2" width="12" height="12"/><rect class="c" x="578" y="82" rx="2" ry="2" width="12" height="12"/><rect class="c" x="578" y="98" rx="2" ry="2" width="12" height="12"/><rect class="c" x="594" y="2" rx="2" ry="2" width="12" height="12"/><rect class="c" x="594" y="18" rx="2" ry="2" width="12" height="12"/><rect class="c" x="594" y="34" rx="2" ry="2" width="12" height="12"/><rect class="c" x="594" y="50" rx="2" ry="2" width="12" height="12"/><rect class="c" x="594" y="66" rx="2" ry="2" width="12" height="12"/><rect class="c" x="594" y="82" rx="2" ry="2" width="12" height="12"/><rect class="c" x="594" y="98" rx="2" ry="2" width="12" height="12"/><rect class="c" x="610" y="2" rx="2" ry="2" width="12" height="12"/><rect class="c" x="610" y="18" rx="2" ry="2" width="12" height="12"/><rect class="c" x="610" y="34" rx="2" ry="2" width="12" height="12"/><rect class="c" x="610" y="50" rx="2" ry="2" width="12" height="12"/><rect class="c" x="610" y="66" rx="2" ry="2" width="12" height="12"/><rect class="c" x="610" y="82" rx="2" ry="2" width="12" height="12"/><rect class="c" x="610" y="98" rx="2" ry="2" width="12" height="12"/><rect class="c" x="626" y="2" rx="2" ry="2" width="12" height="12"/><rect class="c" x="626" y="18" rx="2" ry="2" width="12" height="12"/><rect class="c" x="626" y="34" rx="2" ry="2" width="12" height="12"/><rect class="c" x="626" y="50" rx="2" ry="2" width="12" height="12"/><rect class="c" x="626" y="66" rx="2" ry="2" width="12" height="12"/><rect class="c" x="626" y="82" rx="2" ry="2" width="12" height="12"/><rect class="c" x="626" y="98" rx="2" ry="2" width="12" height="12"/><rect class="c" x="642" y="2" rx="2" ry="2" width="12" height="12"/><rect class="c" x="642" y="18" rx="2" ry="2" width="12" height="12"/><rect class="c" x="642" y="34" rx="2" ry="2" width="12" height="12"/><rect class="c" x="642" y="50" rx="2" ry="2" width="12" height="12"/><rect class="c" x="642" y="66" rx="2" ry="2" width="12" height="12"/><rect class="c" x="642" y="82" rx="2" ry="2" width="12" height="12"/><rect class="c" x="642" y="98" rx="2" ry="2" width="12" height="12"/><rect class="c" x="658" y="2" rx="2" ry="2" width="12" height="12"/><rect class="c" x="658" y="18" rx="2" ry="2" width="12" height="12"/><rect class="c" x="658" y="34" rx="2" ry="2" width="12" height="12"/><rect class="c" x="658" y="50" rx="2" ry="2" width="12" height="12"/><rect class="c cr" x="658" y="66" rx="2" ry="2" width="12" height="12"/><rect class="c" x="658" y="82" rx="2" ry="2" width="12" height="12"/><rect class="c" x="658" y="98" rx="2" ry="2" width="12" height="12"/><rect class="c" x="674" y="2" rx="2" ry="2" width="12" height="12"/><rect class="c" x="674" y="18" rx="2" ry="2" width="12" height="12"/><rect class="c" x="674" y="34" rx="2" ry="2" width="12" height="12"/><rect class="c" x="674" y="50" rx="2" ry="2" width="12" height="12"/><rect class="c cs" x="674" y="66" rx="2" ry="2" width="12" height="12"/><rect class="c" x="674" y="82" rx="2" ry="2" width="12" height="12"/><rect class="c" x="674" y="98" rx="2" ry="2" width="12" height="12"/><rect class="c" x="690" y="2" rx="2" ry="2" width="12" height="12"/><rect class="c" x="690" y="18" rx="2" ry="2" width="12" height="12"/><rect class="c" x="690" y="34" rx="2" ry="2" width="12" height="12"/><rect class="c" x="690" y="50" rx="2" ry="2" width="12" height="12"/><rect class="c" x="690" y="66" rx="2" ry="2" width="12" height="12"/><rect class="c" x="690" y="82" rx="2" ry="2" width="12" height="12"/><rect class="c" x="690" y="98" rx="2" ry="2" width="12" height="12"/><rect class="c" x="706" y="2" rx="2" ry="2" width="12" height="12"/><rect class="c" x="706" y="18" rx="2" ry="2" width="12" height="12"/><rect class="c" x="706" y="34" rx="2" ry="2" width="12" height="12"/><rect class="c ct" x="706" y="50" rx="2" ry="2" width="12" height="12"/><rect class="c cu" x="706" y="66" rx="2" ry="2" width="12" height="12"/><rect class="c" x="706" y="82" rx="2" ry="2" width="12" height="12"/><rect class="c" x="706" y="98" rx="2" ry="2" width="12" height="12"/><rect class="c" x="722" y="2" rx="2" ry="2" width="12" height="12"/><rect class="c" x="722" y="18" rx="2" ry="2" width="12" height="12"/><rect class="c" x="722" y="34" rx="2" ry="2" width="12" height="12"/><rect class="c" x="722" y="50" rx="2" ry="2" width="12" height="12"/><rect class="c" x="722" y="66" rx="2" ry="2" width="12" height="12"/><rect class="c" x="722" y="82" rx="2" ry="2" width="12" height="12"/><rect class="c" x="722" y="98" rx="2" ry="2" width="12" height="12"/><rect class="c" x="738" y="2" rx="2" ry="2" width="12" height="12"/><rect class="c cv" x="738" y="18" rx="2" ry="2" width="12" height="12"/><rect class="c cw" x="738" y="34" rx="2" ry="2" width="12" height="12"/><rect class="c" x="738" y="50" rx="2" ry="2" width="12" height="12"/><rect class="c cx" x="738" y="66" rx="2" ry="2" width="12" height="12"/><rect class="c cy" x="738" y="82" rx="2" ry="2" width="12" height="12"/><rect class="c" x="738" y="98" rx="2" ry="2" width="12" height="12"/><rect class="c cz" x="754" y="2" rx="2" ry="2" width="12" height="12"/><rect class="c c10" x="754" y="18" rx="2" ry="2" width="12" height="12"/><rect class="c" x="754" y="34" rx="2" ry="2" width="12" height="12"/><rect class="c" x="754" y="50" rx="2" ry="2" width="12" height="12"/><rect class="c" x="754" y="66" rx="2" ry="2" width="12" height="12"/><rect class="c c11" x="754" y="82" rx="2" ry="2" width="12" height="12"/><rect class="c c12" x="754" y="98" rx="2" ry="2" width="12" height="12"/><rect class="c" x="770" y="2" rx="2" ry="2" width="12" height="12"/><rect class="c" x="770" y="18" rx="2" ry="2" width="12" height="12"/><rect class="c" x="770" y="34" rx="2" ry="2" width="12" height="12"/><rect class="c" x="770" y="50" rx="2" ry="2" width="12" height="12"/><rect class="c" x="770" y="66" rx="2" ry="2" width="12" height="12"/><rect class="c" x="770" y="82" rx="2" ry="2" width="12" height="12"/><rect class="c" x="770" y="98" rx="2" ry="2" width="12" height="12"/><rect class="c" x="786" y="2" rx="2" ry="2" width="12" height="12"/><rect class="c" x="786" y="18" rx="2" ry="2" width="12" height="12"/><rect class="c" x="786" y="34" rx="2" ry="2" width="12" height="12"/><rect class="c" x="786" y="50" rx="2" ry="2" width="12" height="12"/><rect class="c" x="786" y="66" rx="2" ry="2" width="12" height="12"/><rect class="c" x="786" y="82" rx="2" ry="2" width="12" height="12"/><rect class="c" x="786" y="98" rx="2" ry="2" width="12" height="12"/><rect class="c" x="802" y="2" rx="2" ry="2" width="12" height="12"/><rect class="c" x="802" y="18" rx="2" ry="2" width="12" height="12"/><rect class="c" x="802" y="34" rx="2" ry="2" width="12" height="12"/><rect class="c" x="802" y="50" rx="2" ry="2" width="12" height="12"/><rect class="c" x="802" y="66" rx="2" ry="2" width="12" height="12"/><rect class="c" x="802" y="82" rx="2" ry="2" width="12" height="12"/><rect class="c" x="802" y="98" rx="2" ry="2" width="12" height="12"/><rect class="c" x="818" y="2" rx="2" ry="2" width="12" height="12"/><rect class="c" x="818" y="18" rx="2" ry="2" width="12" height="12"/><rect class="c" x="818" y="34" rx="2" ry="2" width="12" height="12"/><rect class="c c13" x="818" y="50" rx="2" ry="2" width="12" height="12"/><rect class="c c14" x="818" y="66" rx="2" ry="2" width="12" height="12"/><rect class="c" x="818" y="82" rx="2" ry="2" width="12" height="12"/><rect class="c" x="818" y="98" rx="2" ry="2" width="12" height="12"/><rect class="c" x="834" y="2" rx="2" ry="2" width="12" height="12"/><rect class="u u0" height="12" width="497.0" x="0.0" y="144"/><rect class="u u1" height="12" width="207.4" x="496.4" y="144"/><rect class="u u2" height="12" width="104.0" x="703.2" y="144"/><rect class="u u3" height="12" width="42.0" x="806.6" y="144"/><rect class="s s0" x="0.8" y="0.8" width="14.4" height="14.4" rx="4.5" ry="4.5"/><rect class="s s1" x="1.8" y="1.8" width="12.3" height="12.3" rx="4.1" ry="4.1"/><rect class="s s2" x="2.6" y="2.6" width="10.8" height="10.8" rx="3.6" ry="3.6"/><rect class="s s3" x="3.0" y="3.0" width="9.9" height="9.9" rx="3.3" ry="3.3"/></svg>