<svg viewBox="-16 -32 880 192" width="880" height="192" xmlns="http://www.w3.org/2000/svg"><desc>Generated with https://github.com/Platane/snk</desc><style>@keyframes c0{78.3%{fill:var(--c2)}78.32%,to{fill:var(--ce)}}@keyframes c1{2.8%{fill:var(--c1)}2.82%,to{fill:var(--ce)}}@keyframes c2{3.2%{fill:var(--c1)}3.22%,to{fill:var(--ce)}}@keyframes c3{4.41%{fill:var(--c1)}4.43%,to{fill:var(--ce)}}@keyframes c4{1.6%{fill:var(--c1)}1.62%,to{fill:var(--ce)}}@keyframes c5{2.4%{fill:var(--c1)}2.42%,to{fill:var(--ce)}}@keyframes c6{3.6%{fill:var(--c1)}3.62%,to{fill:var(--ce)}}@keyframes c7{4.01%{fill:var(--c1)}4.03%,to{fill:var(--ce)}}@keyframes c8{74.29%{fill:var(--c2)}74.31%,to{fill:var(--ce)}}@keyframes c9{74.69%{fill:var(--c2)}74.71%,to{fill:var(--ce)}}@keyframes ca{77.1%{fill:var(--c2)}77.12%,to{fill:var(--ce)}}@keyframes cb{8.83%{fill:var(--c1)}8.85%,to{fill:var(--ce)}}@keyframes cc{6.82%{fill:var(--c1)}6.84%,to{fill:var(--ce)}}@keyframes cd{20.87%{fill:var(--c1)}20.89%,to{fill:var(--ce)}}@keyframes ce{19.27%{fill:var(--c1)}19.29%,to{fill:var(--ce)}}@keyframes cf{19.67%{fill:var(--c1)}19.69%,to{fill:var(--ce)}}@keyframes cg{13.64%{fill:var(--c1)}13.66%,to{fill:var(--ce)}}@keyframes ch{16.46%{fill:var(--c1)}16.48%,to{fill:var(--ce)}}@keyframes ci{16.05%{fill:var(--c1)}16.07%,to{fill:var(--ce)}}@keyframes cj{68.26%{fill:var(--c2)}68.28%,to{fill:var(--ce)}}@keyframes ck{17.26%{fill:var(--c1)}17.28%,to{fill:var(--ce)}}@keyframes cl{91.15%{fill:var(--c4)}91.17%,to{fill:var(--ce)}}@keyframes cm{15.25%{fill:var(--c1)}15.27%,to{fill:var(--ce)}}@keyframes cn{14.45%{fill:var(--c1)}14.47%,to{fill:var(--ce)}}@keyframes co{56.62%{fill:var(--c1)}56.64%,to{fill:var(--ce)}}@keyframes cp{57.02%{fill:var(--c2)}57.04%,to{fill:var(--ce)}}@keyframes cq{25.29%{fill:var(--c1)}25.31%,to{fill:var(--ce)}}@keyframes cr{63.44%{fill:var(--c2)}63.46%,to{fill:var(--ce)}}@keyframes cs{87.94%{fill:var(--c3)}87.96%,to{fill:var(--ce)}}@keyframes ct{59.03%{fill:var(--c2)}59.05%,to{fill:var(--ce)}}@keyframes cu{27.3%{fill:var(--c1)}27.32%,to{fill:var(--ce)}}@keyframes cv{28.91%{fill:var(--c1)}28.93%,to{fill:var(--ce)}}@keyframes cw{27.7%{fill:var(--c1)}27.72%,to{fill:var(--ce)}}@keyframes cx{61.03%{fill:var(--c2)}61.05%,to{fill:var(--ce)}}@keyframes cy{30.91%{fill:var(--c1)}30.93%,to{fill:var(--ce)}}@keyframes cz{34.93%{fill:var(--c1)}34.95%,to{fill:var(--ce)}}@keyframes c10{34.53%{fill:var(--c1)}34.55%,to{fill:var(--ce)}}@keyframes c11{40.95%{fill:var(--c1)}40.97%,to{fill:var(--ce)}}@keyframes c12{41.36%{fill:var(--c1)}41.38%,to{fill:var(--ce)}}@keyframes c13{42.56%{fill:var(--c1)}42.58%,to{fill:var(--ce)}}@keyframes u0{1.6%{transform:scale(0,1)}1.62%,2.4%{transform:scale(.03,1)}2.42%,2.8%{transform:scale(.07,1)}2.82%,3.2%{transform:scale(.1,1)}3.22%,3.6%{transform:scale(.14,1)}3.62%,4.01%{transform:scale(.17,1)}4.03%,4.41%{transform:scale(.21,1)}4.43%,6.82%{transform:scale(.24,1)}6.84%,8.83%{transform:scale(.28,1)}13.64%,8.85%{transform:scale(.31,1)}13.66%,14.45%{transform:scale(.34,1)}14.47%,15.25%{transform:scale(.38,1)}15.27%,16.05%{transform:scale(.41,1)}16.07%,16.46%{transform:scale(.45,1)}16.48%,17.26%{transform:scale(.48,1)}17.28%,19.27%{transform:scale(.52,1)}19.29%,19.67%{transform:scale(.55,1)}19.69%,20.87%{transform:scale(.59,1)}20.89%,25.29%{transform:scale(.62,1)}25.31%,27.3%{transform:scale(.66,1)}27.32%,27.7%{transform:scale(.69,1)}27.72%,28.91%{transform:scale(.72,1)}28.93%,30.91%{transform:scale(.76,1)}30.93%,34.53%{transform:scale(.79,1)}34.55%,34.93%{transform:scale(.83,1)}34.95%,40.95%{transform:scale(.86,1)}40.97%,41.36%{transform:scale(.9,1)}41.38%,42.56%{transform:scale(.93,1)}42.58%,56.62%{transform:scale(.97,1)}56.64%,to{transform:scale(1,1)}}@keyframes u1{57.02%{transform:scale(0,1)}57.04%,59.03%{transform:scale(.11,1)}59.05%,61.03%{transform:scale(.22,1)}61.05%,63.44%{transform:scale(.33,1)}63.46%,68.26%{transform:scale(.44,1)}68.28%,74.29%{transform:scale(.56,1)}74.31%,74.69%{transform:scale(.67,1)}74.71%,77.1%{transform:scale(.78,1)}77.12%,78.3%{transform:scale(.89,1)}78.32%,to{transform:scale(1,1)}}@keyframes u2{87.94%{transform:scale(0,1)}87.96%,to{transform:scale(1,1)}}@keyframes u3{91.15%{transform:scale(0,1)}91.17%,to{transform:scale(1,1)}}@keyframes s0{0%,99.6%{transform:translate(0,-16px)}.4%{transform:translate(0,-32px)}.8%{transform:translate(16px,-32px)}2.41%{transform:translate(16px,32px)}2.81%{transform:translate(0,32px)}3.21%,4.82%{transform:translate(0,48px)}3.61%{transform:translate(16px,48px)}4.02%{transform:translate(16px,64px)}4.42%{transform:translate(0,64px)}6.43%,96.39%{transform:translate(64px,48px)}6.83%{transform:translate(64px,32px)}7.23%{transform:translate(48px,32px)}8.84%{transform:translate(48px,96px)}14.46%{transform:translate(272px,96px)}15.26%{transform:translate(272px,64px)}15.66%{transform:translate(256px,64px)}16.47%{transform:translate(256px,32px)}16.87%,90.76%{transform:translate(272px,32px)}17.27%{transform:translate(272px,16px)}19.28%{transform:translate(192px,16px)}19.68%{transform:translate(192px,32px)}20.08%{transform:translate(176px,32px)}20.88%{transform:translate(176px,0)}25.3%{transform:translate(352px,0)}25.7%{transform:translate(352px,-16px)}26.51%{transform:translate(384px,-16px)}27.31%{transform:translate(384px,16px)}27.71%{transform:translate(400px,16px)}28.11%{transform:translate(400px,32px)}28.51%{transform:translate(384px,32px)}28.92%,53.82%{transform:translate(384px,48px)}34.14%{transform:translate(592px,48px)}34.94%{transform:translate(592px,16px)}39.76%{transform:translate(784px,16px)}40.96%{transform:translate(784px,64px)}42.17%{transform:translate(832px,64px)}42.57%{transform:translate(832px,48px)}54.22%{transform:translate(384px,64px)}55.82%{transform:translate(320px,64px)}56.63%{transform:translate(320px,96px)}57.83%{transform:translate(368px,96px)}59.04%{transform:translate(368px,48px)}60.64%{transform:translate(432px,48px)}61.85%{transform:translate(432px,0)}66.27%{transform:translate(256px,0)}68.27%{transform:translate(256px,80px)}74.3%{transform:translate(16px,80px)}74.7%{transform:translate(16px,96px)}75.1%{transform:translate(32px,96px)}77.51%{transform:translate(32px,0)}78.31%{transform:translate(0,0)}78.71%{transform:translate(0,16px)}87.95%{transform:translate(368px,16px)}88.35%{transform:translate(368px,32px)}91.16%{transform:translate(272px,48px)}97.99%{transform:translate(64px,-16px)}}@keyframes s1{0%,99.6%{transform:translate(16px,-16px)}.4%{transform:translate(0,-16px)}.8%{transform:translate(0,-32px)}1.2%{transform:translate(16px,-32px)}2.81%{transform:translate(16px,32px)}3.21%{transform:translate(0,32px)}3.61%,5.22%{transform:translate(0,48px)}4.02%{transform:translate(16px,48px)}4.42%{transform:translate(16px,64px)}4.82%{transform:translate(0,64px)}6.83%,96.79%{transform:translate(64px,48px)}7.23%{transform:translate(64px,32px)}7.63%{transform:translate(48px,32px)}9.24%{transform:translate(48px,96px)}14.86%{transform:translate(272px,96px)}15.66%{transform:translate(272px,64px)}16.06%{transform:translate(256px,64px)}16.87%{transform:translate(256px,32px)}17.27%,91.16%{transform:translate(272px,32px)}17.67%{transform:translate(272px,16px)}19.68%{transform:translate(192px,16px)}20.08%{transform:translate(192px,32px)}20.48%{transform:translate(176px,32px)}21.29%{transform:translate(176px,0)}25.7%{transform:translate(352px,0)}26.1%{transform:translate(352px,-16px)}26.91%{transform:translate(384px,-16px)}27.71%{transform:translate(384px,16px)}28.11%{transform:translate(400px,16px)}28.51%{transform:translate(400px,32px)}28.92%{transform:translate(384px,32px)}29.32%,54.22%{transform:translate(384px,48px)}34.54%{transform:translate(592px,48px)}35.34%{transform:translate(592px,16px)}40.16%{transform:translate(784px,16px)}41.37%{transform:translate(784px,64px)}42.57%{transform:translate(832px,64px)}42.97%{transform:translate(832px,48px)}54.62%{transform:translate(384px,64px)}56.22%{transform:translate(320px,64px)}57.03%{transform:translate(320px,96px)}58.23%{transform:translate(368px,96px)}59.44%{transform:translate(368px,48px)}61.04%{transform:translate(432px,48px)}62.25%{transform:translate(432px,0)}66.67%{transform:translate(256px,0)}68.67%{transform:translate(256px,80px)}74.7%{transform:translate(16px,80px)}75.1%{transform:translate(16px,96px)}75.5%{transform:translate(32px,96px)}77.91%{transform:translate(32px,0)}78.71%{transform:translate(0,0)}79.12%{transform:translate(0,16px)}88.35%{transform:translate(368px,16px)}88.76%{transform:translate(368px,32px)}91.57%{transform:translate(272px,48px)}98.39%{transform:translate(64px,-16px)}}@keyframes s2{0%,99.6%{transform:translate(32px,-16px)}.8%{transform:translate(0,-16px)}1.2%{transform:translate(0,-32px)}1.61%{transform:translate(16px,-32px)}3.21%{transform:translate(16px,32px)}3.61%{transform:translate(0,32px)}4.02%,5.62%{transform:translate(0,48px)}4.42%{transform:translate(16px,48px)}4.82%{transform:translate(16px,64px)}5.22%{transform:translate(0,64px)}7.23%,97.19%{transform:translate(64px,48px)}7.63%{transform:translate(64px,32px)}8.03%{transform:translate(48px,32px)}9.64%{transform:translate(48px,96px)}15.26%{transform:translate(272px,96px)}16.06%{transform:translate(272px,64px)}16.47%{transform:translate(256px,64px)}17.27%{transform:translate(256px,32px)}17.67%,91.57%{transform:translate(272px,32px)}18.07%{transform:translate(272px,16px)}20.08%{transform:translate(192px,16px)}20.48%{transform:translate(192px,32px)}20.88%{transform:translate(176px,32px)}21.69%{transform:translate(176px,0)}26.1%{transform:translate(352px,0)}26.51%{transform:translate(352px,-16px)}27.31%{transform:translate(384px,-16px)}28.11%{transform:translate(384px,16px)}28.51%{transform:translate(400px,16px)}28.92%{transform:translate(400px,32px)}29.32%{transform:translate(384px,32px)}29.72%,54.62%{transform:translate(384px,48px)}34.94%{transform:translate(592px,48px)}35.74%{transform:translate(592px,16px)}40.56%{transform:translate(784px,16px)}41.77%{transform:translate(784px,64px)}42.97%{transform:translate(832px,64px)}43.37%{transform:translate(832px,48px)}55.02%{transform:translate(384px,64px)}56.63%{transform:translate(320px,64px)}57.43%{transform:translate(320px,96px)}58.63%{transform:translate(368px,96px)}59.84%{transform:translate(368px,48px)}61.45%{transform:translate(432px,48px)}62.65%{transform:translate(432px,0)}67.07%{transform:translate(256px,0)}69.08%{transform:translate(256px,80px)}75.1%{transform:translate(16px,80px)}75.5%{transform:translate(16px,96px)}75.9%{transform:translate(32px,96px)}78.31%{transform:translate(32px,0)}79.12%{transform:translate(0,0)}79.52%{transform:translate(0,16px)}88.76%{transform:translate(368px,16px)}89.16%{transform:translate(368px,32px)}91.97%{transform:translate(272px,48px)}98.8%{transform:translate(64px,-16px)}}@keyframes s3{0%,99.6%{transform:translate(48px,-16px)}1.2%{transform:translate(0,-16px)}1.61%{transform:translate(0,-32px)}2.01%{transform:translate(16px,-32px)}3.61%{transform:translate(16px,32px)}4.02%{transform:translate(0,32px)}4.42%,6.02%{transform:translate(0,48px)}4.82%{transform:translate(16px,48px)}5.22%{transform:translate(16px,64px)}5.62%{transform:translate(0,64px)}7.63%,97.59%{transform:translate(64px,48px)}8.03%{transform:translate(64px,32px)}8.43%{transform:translate(48px,32px)}10.04%{transform:translate(48px,96px)}15.66%{transform:translate(272px,96px)}16.47%{transform:translate(272px,64px)}16.87%{transform:translate(256px,64px)}17.67%{transform:translate(256px,32px)}18.07%,91.97%{transform:translate(272px,32px)}18.47%{transform:translate(272px,16px)}20.48%{transform:translate(192px,16px)}20.88%{transform:translate(192px,32px)}21.29%{transform:translate(176px,32px)}22.09%{transform:translate(176px,0)}26.51%{transform:translate(352px,0)}26.91%{transform:translate(352px,-16px)}27.71%{transform:translate(384px,-16px)}28.51%{transform:translate(384px,16px)}28.92%{transform:translate(400px,16px)}29.32%{transform:translate(400px,32px)}29.72%{transform:translate(384px,32px)}30.12%,55.02%{transform:translate(384px,48px)}35.34%{transform:translate(592px,48px)}36.14%{transform:translate(592px,16px)}40.96%{transform:translate(784px,16px)}42.17%{transform:translate(784px,64px)}43.37%{transform:translate(832px,64px)}43.78%{transform:translate(832px,48px)}55.42%{transform:translate(384px,64px)}57.03%{transform:translate(320px,64px)}57.83%{transform:translate(320px,96px)}59.04%{transform:translate(368px,96px)}60.24%{transform:translate(368px,48px)}61.85%{transform:translate(432px,48px)}63.05%{transform:translate(432px,0)}67.47%{transform:translate(256px,0)}69.48%{transform:translate(256px,80px)}75.5%{transform:translate(16px,80px)}75.9%{transform:translate(16px,96px)}76.31%{transform:translate(32px,96px)}78.71%{transform:translate(32px,0)}79.52%{transform:translate(0,0)}79.92%{transform:translate(0,16px)}89.16%{transform:translate(368px,16px)}89.56%{transform:translate(368px,32px)}92.37%{transform:translate(272px,48px)}99.2%{transform:translate(64px,-16px)}}:root{--cb:#1b1f230a;--cs:purple;--ce:#ebedf0;--c0:#ebedf0;--c1:#9be9a8;--c2:#40c463;--c3:#30a14e;--c4:#216e39}@media (prefers-color-scheme:dark){:root{--cb:#1b1f230a;--cs:purple;--ce:#161b22;--c1:#01311f;--c2:#034525;--c3:#0f6d31;--c4:#00c647}}.c{shape-rendering:geometricPrecision;fill:var(--ce);stroke-width:1px;stroke:var(--cb);animation:none 24900ms linear infinite}.c.c0{fill:var(--c2);animation-name:c0}.c.c1{fill:var(--c1);animation-name:c1}.c.c2,.c.c3,.c.c4{fill:var(--c1);animation-name:c2}.c.c3,.c.c4{animation-name:c3}.c.c4{animation-name:c4}.c.c5,.c.c6,.c.c7{fill:var(--c1);animation-name:c5}.c.c6,.c.c7{animation-name:c6}.c.c7{animation-name:c7}.c.c8,.c.c9,.c.ca{fill:var(--c2);animation-name:c8}.c.c9,.c.ca{animation-name:c9}.c.ca{animation-name:ca}.c.cb,.c.cc{fill:var(--c1);animation-name:cb}.c.cc{animation-name:cc}.c.cd,.c.ce,.c.cf{fill:var(--c1);animation-name:cd}.c.ce,.c.cf{animation-name:ce}.c.cf{animation-name:cf}.c.cg,.c.ch,.c.ci{fill:var(--c1);animation-name:cg}.c.ch,.c.ci{animation-name:ch}.c.ci{animation-name:ci}.c.cj{fill:var(--c2);animation-name:cj}.c.ck{fill:var(--c1);animation-name:ck}.c.cl{fill:var(--c4);animation-name:cl}.c.cm,.c.cn,.c.co{fill:var(--c1);animation-name:cm}.c.cn,.c.co{animation-name:cn}.c.co{animation-name:co}.c.cp{fill:var(--c2);animation-name:cp}.c.cq{fill:var(--c1);animation-name:cq}.c.cr{fill:var(--c2);animation-name:cr}.c.cs{fill:var(--c3);animation-name:cs}.c.ct{fill:var(--c2);animation-name:ct}.c.cu,.c.cv,.c.cw{fill:var(--c1);animation-name:cu}.c.cv,.c.cw{animation-name:cv}.c.cw{animation-name:cw}.c.cx{fill:var(--c2);animation-name:cx}.c.c10,.c.cy,.c.cz{fill:var(--c1);animation-name:cy}.c.c10,.c.cz{animation-name:cz}.c.c10{animation-name:c10}.c.c11,.c.c12,.c.c13{fill:var(--c1);animation-name:c11}.c.c12,.c.c13{animation-name:c12}.c.c13{animation-name:c13}.s,.u{animation:none linear 24900ms infinite}.u,.u.u0{transform-origin:0 0}.u{transform:scale(0,1)}.u.u0{fill:var(--c1);animation-name:u0}.u.u1{fill:var(--c2);animation-name:u1;transform-origin:614.8px 0}.u.u2{fill:var(--c3);animation-name:u2;transform-origin:805.6px 0}.u.u3{fill:var(--c4);animation-name:u3;transform-origin:826.8px 0}.s{shape-rendering:geometricPrecision;fill:var(--cs)}.s.s0{transform:translate(0,-16px);animation-name:s0}.s.s1{transform:translate(16px,-16px);animation-name:s1}.s.s2{transform:translate(32px,-16px);animation-name:s2}.s.s3{transform:translate(48px,-16px);animation-name:s3}</style><rect class="c c0" x="2" y="2" rx="2" ry="2" width="12" height="12"/><rect class="c" x="2" y="18" rx="2" ry="2" width="12" height="12"/><rect class="c c1" x="2" y="34" rx="2" ry="2" width="12" height="12"/><rect class="c c2" x="2" y="50" rx="2" ry="2" width="12" height="12"/><rect class="c c3" x="2" y="66" rx="2" ry="2" width="12" height="12"/><rect class="c" x="2" y="82" rx="2" ry="2" width="12" height="12"/><rect class="c" x="2" y="98" rx="2" ry="2" width="12" height="12"/><rect class="c c4" x="18" y="2" rx="2" ry="2" width="12" height="12"/><rect class="c" x="18" y="18" rx="2" ry="2" width="12" height="12"/><rect class="c c5" x="18" y="34" rx="2" ry="2" width="12" height="12"/><rect class="c c6" x="18" y="50" rx="2" ry="2" width="12" height="12"/><rect class="c c7" x="18" y="66" rx="2" ry="2" width="12" height="12"/><rect class="c c8" x="18" y="82" rx="2" ry="2" width="12" height="12"/><rect class="c c9" x="18" y="98" rx="2" ry="2" width="12" height="12"/><rect class="c" x="34" y="2" rx="2" ry="2" width="12" height="12"/><rect class="c ca" x="34" y="18" rx="2" ry="2" width="12" height="12"/><rect class="c" x="34" y="34" rx="2" ry="2" width="12" height="12"/><rect class="c" x="34" y="50" rx="2" ry="2" width="12" height="12"/><rect class="c" x="34" y="66" rx="2" ry="2" width="12" height="12"/><rect class="c" x="34" y="82" rx="2" ry="2" width="12" height="12"/><rect class="c" x="34" y="98" rx="2" ry="2" width="12" height="12"/><rect class="c" x="50" y="2" rx="2" ry="2" width="12" height="12"/><rect class="c" x="50" y="18" rx="2" ry="2" width="12" height="12"/><rect class="c" x="50" y="34" rx="2" ry="2" width="12" height="12"/><rect class="c" x="50" y="50" rx="2" ry="2" width="12" height="12"/><rect class="c" x="50" y="66" rx="2" ry="2" width="12" height="12"/><rect class="c" x="50" y="82" rx="2" ry="2" width="12" height="12"/><rect class="c cb" x="50" y="98" rx="2" ry="2" width="12" height="12"/><rect class="c" x="66" y="2" rx="2" ry="2" width="12" height="12"/><rect class="c" x="66" y="18" rx="2" ry="2" width="12" height="12"/><rect class="c cc" x="66" y="34" rx="2" ry="2" width="12" height="12"/><rect class="c" x="66" y="50" rx="2" ry="2" width="12" height="12"/><rect class="c" x="66" y="66" rx="2" ry="2" width="12" height="12"/><rect class="c" x="66" y="82" rx="2" ry="2" width="12" height="12"/><rect class="c" x="66" y="98" rx="2" ry="2" width="12" height="12"/><rect class="c" x="82" y="2" rx="2" ry="2" width="12" height="12"/><rect class="c" x="82" y="18" rx="2" ry="2" width="12" height="12"/><rect class="c" x="82" y="34" rx="2" ry="2" width="12" height="12"/><rect class="c" x="82" y="50" rx="2" ry="2" width="12" height="12"/><rect class="c" x="82" y="66" rx="2" ry="2" width="12" height="12"/><rect class="c" x="82" y="82" rx="2" ry="2" width="12" height="12"/><rect class="c" x="82" y="98" rx="2" ry="2" width="12" height="12"/><rect class="c" x="98" y="2" rx="2" ry="2" width="12" height="12"/><rect class="c" x="98" y="18" rx="2" ry="2" width="12" height="12"/><rect class="c" x="98" y="34" rx="2" ry="2" width="12" height="12"/><rect class="c" x="98" y="50" rx="2" ry="2" width="12" height="12"/><rect class="c" x="98" y="66" rx="2" ry="2" width="12" height="12"/><rect class="c" x="98" y="82" rx="2" ry="2" width="12" height="12"/><rect class="c" x="98" y="98" rx="2" ry="2" width="12" height="12"/><rect class="c" x="114" y="2" rx="2" ry="2" width="12" height="12"/><rect class="c" x="114" y="18" rx="2" ry="2" width="12" height="12"/><rect class="c" x="114" y="34" rx="2" ry="2" width="12" height="12"/><rect class="c" x="114" y="50" rx="2" ry="2" width="12" height="12"/><rect class="c" x="114" y="66" rx="2" ry="2" width="12" height="12"/><rect class="c" x="114" y="82" rx="2" ry="2" width="12" height="12"/><rect class="c" x="114" y="98" rx="2" ry="2" width="12" height="12"/><rect class="c" x="130" y="2" rx="2" ry="2" width="12" height="12"/><rect class="c" x="130" y="18" rx="2" ry="2" width="12" height="12"/><rect class="c" x="130" y="34" rx="2" ry="2" width="12" height="12"/><rect class="c" x="130" y="50" rx="2" ry="2" width="12" height="12"/><rect class="c" x="130" y="66" rx="2" ry="2" width="12" height="12"/><rect class="c" x="130" y="82" rx="2" ry="2" width="12" height="12"/><rect class="c" x="130" y="98" rx="2" ry="2" width="12" height="12"/><rect class="c" x="146" y="2" rx="2" ry="2" width="12" height="12"/><rect class="c" x="146" y="18" rx="2" ry="2" width="12" height="12"/><rect class="c" x="146" y="34" rx="2" ry="2" width="12" height="12"/><rect class="c" x="146" y="50" rx="2" ry="2" width="12" height="12"/><rect class="c" x="146" y="66" rx="2" ry="2" width="12" height="12"/><rect class="c" x="146" y="82" rx="2" ry="2" width="12" height="12"/><rect class="c" x="146" y="98" rx="2" ry="2" width="12" height="12"/><rect class="c" x="162" y="2" rx="2" ry="2" width="12" height="12"/><rect class="c" x="162" y="18" rx="2" ry="2" width="12" height="12"/><rect class="c" x="162" y="34" rx="2" ry="2" width="12" height="12"/><rect class="c" x="162" y="50" rx="2" ry="2" width="12" height="12"/><rect class="c" x="162" y="66" rx="2" ry="2" width="12" height="12"/><rect class="c" x="162" y="82" rx="2" ry="2" width="12" height="12"/><rect class="c" x="162" y="98" rx="2" ry="2" width="12" height="12"/><rect class="c cd" x="178" y="2" rx="2" ry="2" width="12" height="12"/><rect class="c" x="178" y="18" rx="2" ry="2" width="12" height="12"/><rect class="c" x="178" y="34" rx="2" ry="2" width="12" height="12"/><rect class="c" x="178" y="50" rx="2" ry="2" width="12" height="12"/><rect class="c" x="178" y="66" rx="2" ry="2" width="12" height="12"/><rect class="c" x="178" y="82" rx="2" ry="2" width="12" height="12"/><rect class="c" x="178" y="98" rx="2" ry="2" width="12" height="12"/><rect class="c" x="194" y="2" rx="2" ry="2" width="12" height="12"/><rect class="c ce" x="194" y="18" rx="2" ry="2" width="12" height="12"/><rect class="c cf" x="194" y="34" rx="2" ry="2" width="12" height="12"/><rect class="c" x="194" y="50" rx="2" ry="2" width="12" height="12"/><rect class="c" x="194" y="66" rx="2" ry="2" width="12" height="12"/><rect class="c" x="194" y="82" rx="2" ry="2" width="12" height="12"/><rect class="c" x="194" y="98" rx="2" ry="2" width="12" height="12"/><rect class="c" x="210" y="2" rx="2" ry="2" width="12" height="12"/><rect class="c" x="210" y="18" rx="2" ry="2" width="12" height="12"/><rect class="c" x="210" y="34" rx="2" ry="2" width="12" height="12"/><rect class="c" x="210" y="50" rx="2" ry="2" width="12" height="12"/><rect class="c" x="210" y="66" rx="2" ry="2" width="12" height="12"/><rect class="c" x="210" y="82" rx="2" ry="2" width="12" height="12"/><rect class="c" x="210" y="98" rx="2" ry="2" width="12" height="12"/><rect class="c" x="226" y="2" rx="2" ry="2" width="12" height="12"/><rect class="c" x="226" y="18" rx="2" ry="2" width="12" height="12"/><rect class="c" x="226" y="34" rx="2" ry="2" width="12" height="12"/><rect class="c" x="226" y="50" rx="2" ry="2" width="12" height="12"/><rect class="c" x="226" y="66" rx="2" ry="2" width="12" height="12"/><rect class="c" x="226" y="82" rx="2" ry="2" width="12" height="12"/><rect class="c" x="226" y="98" rx="2" ry="2" width="12" height="12"/><rect class="c" x="242" y="2" rx="2" ry="2" width="12" height="12"/><rect class="c" x="242" y="18" rx="2" ry="2" width="12" height="12"/><rect class="c" x="242" y="34" rx="2" ry="2" width="12" height="12"/><rect class="c" x="242" y="50" rx="2" ry="2" width="12" height="12"/><rect class="c" x="242" y="66" rx="2" ry="2" width="12" height="12"/><rect class="c" x="242" y="82" rx="2" ry="2" width="12" height="12"/><rect class="c cg" x="242" y="98" rx="2" ry="2" width="12" height="12"/><rect class="c" x="258" y="2" rx="2" ry="2" width="12" height="12"/><rect class="c" x="258" y="18" rx="2" ry="2" width="12" height="12"/><rect class="c ch" x="258" y="34" rx="2" ry="2" width="12" height="12"/><rect class="c ci" x="258" y="50" rx="2" ry="2" width="12" height="12"/><rect class="c" x="258" y="66" rx="2" ry="2" width="12" height="12"/><rect class="c cj" x="258" y="82" rx="2" ry="2" width="12" height="12"/><rect class="c" x="258" y="98" rx="2" ry="2" width="12" height="12"/><rect class="c" x="274" y="2" rx="2" ry="2" width="12" height="12"/><rect class="c ck" x="274" y="18" rx="2" ry="2" width="12" height="12"/><rect class="c" x="274" y="34" rx="2" ry="2" width="12" height="12"/><rect class="c cl" x="274" y="50" rx="2" ry="2" width="12" height="12"/><rect class="c cm" x="274" y="66" rx="2" ry="2" width="12" height="12"/><rect class="c" x="274" y="82" rx="2" ry="2" width="12" height="12"/><rect class="c cn" x="274" y="98" rx="2" ry="2" width="12" height="12"/><rect class="c" x="290" y="2" rx="2" ry="2" width="12" height="12"/><rect class="c" x="290" y="18" rx="2" ry="2" width="12" height="12"/><rect class="c" x="290" y="34" rx="2" ry="2" width="12" height="12"/><rect class="c" x="290" y="50" rx="2" ry="2" width="12" height="12"/><rect class="c" x="290" y="66" rx="2" ry="2" width="12" height="12"/><rect class="c" x="290" y="82" rx="2" ry="2" width="12" height="12"/><rect class="c" x="290" y="98" rx="2" ry="2" width="12" height="12"/><rect class="c" x="306" y="2" rx="2" ry="2" width="12" height="12"/><rect class="c" x="306" y="18" rx="2" ry="2" width="12" height="12"/><rect class="c" x="306" y="34" rx="2" ry="2" width="12" height="12"/><rect class="c" x="306" y="50" rx="2" ry="2" width="12" height="12"/><rect class="c" x="306" y="66" rx="2" ry="2" width="12" height="12"/><rect class="c" x="306" y="82" rx="2" ry="2" width="12" height="12"/><rect class="c" x="306" y="98" rx="2" ry="2" width="12" height="12"/><rect class="c" x="322" y="2" rx="2" ry="2" width="12" height="12"/><rect class="c" x="322" y="18" rx="2" ry="2" width="12" height="12"/><rect class="c" x="322" y="34" rx="2" ry="2" width="12" height="12"/><rect class="c" x="322" y="50" rx="2" ry="2" width="12" height="12"/><rect class="c" x="322" y="66" rx="2" ry="2" width="12" height="12"/><rect class="c" x="322" y="82" rx="2" ry="2" width="12" height="12"/><rect class="c co" x="322" y="98" rx="2" ry="2" width="12" height="12"/><rect class="c" x="338" y="2" rx="2" ry="2" width="12" height="12"/><rect class="c" x="338" y="18" rx="2" ry="2" width="12" height="12"/><rect class="c" x="338" y="34" rx="2" ry="2" width="12" height="12"/><rect class="c" x="338" y="50" rx="2" ry="2" width="12" height="12"/><rect class="c" x="338" y="66" rx="2" ry="2" width="12" height="12"/><rect class="c" x="338" y="82" rx="2" ry="2" width="12" height="12"/><rect class="c cp" x="338" y="98" rx="2" ry="2" width="12" height="12"/><rect class="c cq" x="354" y="2" rx="2" ry="2" width="12" height="12"/><rect class="c" x="354" y="18" rx="2" ry="2" width="12" height="12"/><rect class="c" x="354" y="34" rx="2" ry="2" width="12" height="12"/><rect class="c" x="354" y="50" rx="2" ry="2" width="12" height="12"/><rect class="c" x="354" y="66" rx="2" ry="2" width="12" height="12"/><rect class="c" x="354" y="82" rx="2" ry="2" width="12" height="12"/><rect class="c" x="354" y="98" rx="2" ry="2" width="12" height="12"/><rect class="c cr" x="370" y="2" rx="2" ry="2" width="12" height="12"/><rect class="c cs" x="370" y="18" rx="2" ry="2" width="12" height="12"/><rect class="c" x="370" y="34" rx="2" ry="2" width="12" height="12"/><rect class="c ct" x="370" y="50" rx="2" ry="2" width="12" height="12"/><rect class="c" x="370" y="66" rx="2" ry="2" width="12" height="12"/><rect class="c" x="370" y="82" rx="2" ry="2" width="12" height="12"/><rect class="c" x="370" y="98" rx="2" ry="2" width="12" height="12"/><rect class="c" x="386" y="2" rx="2" ry="2" width="12" height="12"/><rect class="c cu" x="386" y="18" rx="2" ry="2" width="12" height="12"/><rect class="c" x="386" y="34" rx="2" ry="2" width="12" height="12"/><rect class="c cv" x="386" y="50" rx="2" ry="2" width="12" height="12"/><rect class="c" x="386" y="66" rx="2" ry="2" width="12" height="12"/><rect class="c" x="386" y="82" rx="2" ry="2" width="12" height="12"/><rect class="c" x="386" y="98" rx="2" ry="2" width="12" height="12"/><rect class="c" x="402" y="2" rx="2" ry="2" width="12" height="12"/><rect class="c cw" x="402" y="18" rx="2" ry="2" width="12" height="12"/><rect class="c" x="402" y="34" rx="2" ry="2" width="12" height="12"/><rect class="c" x="402" y="50" rx="2" ry="2" width="12" height="12"/><rect class="c" x="402" y="66" rx="2" ry="2" width="12" height="12"/><rect class="c" x="402" y="82" rx="2" ry="2" width="12" height="12"/><rect class="c" x="402" y="98" rx="2" ry="2" width="12" height="12"/><rect class="c" x="418" y="2" rx="2" ry="2" width="12" height="12"/><rect class="c" x="418" y="18" rx="2" ry="2" width="12" height="12"/><rect class="c" x="418" y="34" rx="2" ry="2" width="12" height="12"/><rect class="c" x="418" y="50" rx="2" ry="2" width="12" height="12"/><rect class="c" x="418" y="66" rx="2" ry="2" width="12" height="12"/><rect class="c" x="418" y="82" rx="2" ry="2" width="12" height="12"/><rect class="c" x="418" y="98" rx="2" ry="2" width="12" height="12"/><rect class="c" x="434" y="2" rx="2" ry="2" width="12" height="12"/><rect class="c" x="434" y="18" rx="2" ry="2" width="12" height="12"/><rect class="c cx" x="434" y="34" rx="2" ry="2" width="12" height="12"/><rect class="c" x="434" y="50" rx="2" ry="2" width="12" height="12"/><rect class="c" x="434" y="66" rx="2" ry="2" width="12" height="12"/><rect class="c" x="434" y="82" rx="2" ry="2" width="12" height="12"/><rect class="c" x="434" y="98" rx="2" ry="2" width="12" height="12"/><rect class="c" x="450" y="2" rx="2" ry="2" width="12" height="12"/><rect class="c" x="450" y="18" rx="2" ry="2" width="12" height="12"/><rect class="c" x="450" y="34" rx="2" ry="2" width="12" height="12"/><rect class="c" x="450" y="50" rx="2" ry="2" width="12" height="12"/><rect class="c" x="450" y="66" rx="2" ry="2" width="12" height="12"/><rect class="c" x="450" y="82" rx="2" ry="2" width="12" height="12"/><rect class="c" x="450" y="98" rx="2" ry="2" width="12" height="12"/><rect class="c" x="466" y="2" rx="2" ry="2" width="12" height="12"/><rect class="c" x="466" y="18" rx="2" ry="2" width="12" height="12"/><rect class="c" x="466" y="34" rx="2" ry="2" width="12" height="12"/><rect class="c cy" x="466" y="50" rx="2" ry="2" width="12" height="12"/><rect class="c" x="466" y="66" rx="2" ry="2" width="12" height="12"/><rect class="c" x="466" y="82" rx="2" ry="2" width="12" height="12"/><rect class="c" x="466" y="98" rx="2" ry="2" width="12" height="12"/><rect class="c" x="482" y="2" rx="2" ry="2" width="12" height="12"/><rect class="c" x="482" y="18" rx="2" ry="2" width="12" height="12"/><rect class="c" x="482" y="34" rx="2" ry="2" width="12" height="12"/><rect class="c" x="482" y="50" rx="2" ry="2" width="12" height="12"/><rect class="c" x="482" y="66" rx="2" ry="2" width="12" height="12"/><rect class="c" x="482" y="82" rx="2" ry="2" width="12" height="12"/><rect class="c" x="482" y="98" rx="2" ry="2" width="12" height="12"/><rect class="c" x="498" y="2" rx="2" ry="2" width="12" height="12"/><rect class="c" x="498" y="18" rx="2" ry="2" width="12" height="12"/><rect class="c" x="498" y="34" rx="2" ry="2" width="12" height="12"/><rect class="c" x="498" y="50" rx="2" ry="2" width="12" height="12"/><rect class="c" x="498" y="66" rx="2" ry="2" width="12" height="12"/><rect class="c" x="498" y="82" rx="2" ry="2" width="12" height="12"/><rect class="c" x="498" y="98" rx="2" ry="2" width="12" height="12"/><rect class="c" x="514" y="2" rx="2" ry="2" width="12" height="12"/><rect class="c" x="514" y="18" rx="2" ry="2" width="12" height="12"/><rect class="c" x="514" y="34" rx="2" ry="2" width="12" height="12"/><rect class="c" x="514" y="50" rx="2" ry="2" width="12" height="12"/><rect class="c" x="514" y="66" rx="2" ry="2" width="12" height="12"/><rect class="c" x="514" y="82" rx="2" ry="2" width="12" height="12"/><rect class="c" x="514" y="98" rx="2" ry="2" width="12" height="12"/><rect class="c" x="530" y="2" rx="2" ry="2" width="12" height="12"/><rect class="c" x="530" y="18" rx="2" ry="2" width="12" height="12"/><rect class="c" x="530" y="34" rx="2" ry="2" width="12" height="12"/><rect class="c" x="530" y="50" rx="2" ry="2" width="12" height="12"/><rect class="c" x="530" y="66" rx="2" ry="2" width="12" height="12"/><rect class="c" x="530" y="82" rx="2" ry="2" width="12" height="12"/><rect class="c" x="530" y="98" rx="2" ry="2" width="12" height="12"/><rect class="c" x="546" y="2" rx="2" ry="2" width="12" height="12"/><rect class="c" x="546" y="18" rx="2" ry="2" width="12" height="12"/><rect class="c" x="546" y="34" rx="2" ry="2" width="12" height="12"/><rect class="c" x="546" y="50" rx="2" ry="2" width="12" height="12"/><rect class="c" x="546" y="66" rx="2" ry="2" width="12" height="12"/><rect class="c" x="546" y="82" rx="2" ry="2" width="12" height="12"/><rect class="c" x="546" y="98" rx="2" ry="2" width="12" height="12"/><rect class="c" x="562" y="2" rx="2" ry="2" width="12" height="12"/><rect class="c" x="562" y="18" rx="2" ry="2" width="12" height="12"/><rect class="c" x="562" y="34" rx="2" ry="2" width="12" height="12"/><rect class="c" x="562" y="50" rx="2" ry="2" width="12" height="12"/><rect class="c" x="562" y="66" rx="2" ry="2" width="12" height="12"/><rect class="c" x="562" y="82" rx="2" ry="2" width="12" height="12"/><rect class="c" x="562" y="98" rx="2" ry="2" width="12" height="12"/><rect class="c" x="578" y="2" rx="2" ry="2" width="12" height="12"/><rect class="c" x="578" y="18" rx="2" ry="2" width="12" height="12"/><rect class="c" x="578" y="34" rx="2" ry="2" width="12" height="12"/><rect class="c" x="578" y="50" rx="2" ry="2" width="12" height="12"/><rect class="c" x="578" y="66" rx="2" ry="2" width="12" height="12"/><rect class="c" x="578" y="82" rx="2" ry="2" width="12" height="12"/><rect class="c" x="578" y="98" rx="2" ry="2" width="12" height="12"/><rect class="c" x="594" y="2" rx="2" ry="2" width="12" height="12"/><rect class="c cz" x="594" y="18" rx="2" ry="2" width="12" height="12"/><rect class="c c10" x="594" y="34" rx="2" ry="2" width="12" height="12"/><rect class="c" x="594" y="50" rx="2" ry="2" width="12" height="12"/><rect class="c" x="594" y="66" rx="2" ry="2" width="12" height="12"/><rect class="c" x="594" y="82" rx="2" ry="2" width="12" height="12"/><rect class="c" x="594" y="98" rx="2" ry="2" width="12" height="12"/><rect class="c" x="610" y="2" rx="2" ry="2" width="12" height="12"/><rect class="c" x="610" y="18" rx="2" ry="2" width="12" height="12"/><rect class="c" x="610" y="34" rx="2" ry="2" width="12" height="12"/><rect class="c" x="610" y="50" rx="2" ry="2" width="12" height="12"/><rect class="c" x="610" y="66" rx="2" ry="2" width="12" height="12"/><rect class="c" x="610" y="82" rx="2" ry="2" width="12" height="12"/><rect class="c" x="610" y="98" rx="2" ry="2" width="12" height="12"/><rect class="c" x="626" y="2" rx="2" ry="2" width="12" height="12"/><rect class="c" x="626" y="18" rx="2" ry="2" width="12" height="12"/><rect class="c" x="626" y="34" rx="2" ry="2" width="12" height="12"/><rect class="c" x="626" y="50" rx="2" ry="2" width="12" height="12"/><rect class="c" x="626" y="66" rx="2" ry="2" width="12" height="12"/><rect class="c" x="626" y="82" rx="2" ry="2" width="12" height="12"/><rect class="c" x="626" y="98" rx="2" ry="2" width="12" height="12"/><rect class="c" x="642" y="2" rx="2" ry="2" width="12" height="12"/><rect class="c" x="642" y="18" rx="2" ry="2" width="12" height="12"/><rect class="c" x="642" y="34" rx="2" ry="2" width="12" height="12"/><rect class="c" x="642" y="50" rx="2" ry="2" width="12" height="12"/><rect class="c" x="642" y="66" rx="2" ry="2" width="12" height="12"/><rect class="c" x="642" y="82" rx="2" ry="2" width="12" height="12"/><rect class="c" x="642" y="98" rx="2" ry="2" width="12" height="12"/><rect class="c" x="658" y="2" rx="2" ry="2" width="12" height="12"/><rect class="c" x="658" y="18" rx="2" ry="2" width="12" height="12"/><rect class="c" x="658" y="34" rx="2" ry="2" width="12" height="12"/><rect class="c" x="658" y="50" rx="2" ry="2" width="12" height="12"/><rect class="c" x="658" y="66" rx="2" ry="2" width="12" height="12"/><rect class="c" x="658" y="82" rx="2" ry="2" width="12" height="12"/><rect class="c" x="658" y="98" rx="2" ry="2" width="12" height="12"/><rect class="c" x="674" y="2" rx="2" ry="2" width="12" height="12"/><rect class="c" x="674" y="18" rx="2" ry="2" width="12" height="12"/><rect class="c" x="674" y="34" rx="2" ry="2" width="12" height="12"/><rect class="c" x="674" y="50" rx="2" ry="2" width="12" height="12"/><rect class="c" x="674" y="66" rx="2" ry="2" width="12" height="12"/><rect class="c" x="674" y="82" rx="2" ry="2" width="12" height="12"/><rect class="c" x="674" y="98" rx="2" ry="2" width="12" height="12"/><rect class="c" x="690" y="2" rx="2" ry="2" width="12" height="12"/><rect class="c" x="690" y="18" rx="2" ry="2" width="12" height="12"/><rect class="c" x="690" y="34" rx="2" ry="2" width="12" height="12"/><rect class="c" x="690" y="50" rx="2" ry="2" width="12" height="12"/><rect class="c" x="690" y="66" rx="2" ry="2" width="12" height="12"/><rect class="c" x="690" y="82" rx="2" ry="2" width="12" height="12"/><rect class="c" x="690" y="98" rx="2" ry="2" width="12" height="12"/><rect class="c" x="706" y="2" rx="2" ry="2" width="12" height="12"/><rect class="c" x="706" y="18" rx="2" ry="2" width="12" height="12"/><rect class="c" x="706" y="34" rx="2" ry="2" width="12" height="12"/><rect class="c" x="706" y="50" rx="2" ry="2" width="12" height="12"/><rect class="c" x="706" y="66" rx="2" ry="2" width="12" height="12"/><rect class="c" x="706" y="82" rx="2" ry="2" width="12" height="12"/><rect class="c" x="706" y="98" rx="2" ry="2" width="12" height="12"/><rect class="c" x="722" y="2" rx="2" ry="2" width="12" height="12"/><rect class="c" x="722" y="18" rx="2" ry="2" width="12" height="12"/><rect class="c" x="722" y="34" rx="2" ry="2" width="12" height="12"/><rect class="c" x="722" y="50" rx="2" ry="2" width="12" height="12"/><rect class="c" x="722" y="66" rx="2" ry="2" width="12" height="12"/><rect class="c" x="722" y="82" rx="2" ry="2" width="12" height="12"/><rect class="c" x="722" y="98" rx="2" ry="2" width="12" height="12"/><rect class="c" x="738" y="2" rx="2" ry="2" width="12" height="12"/><rect class="c" x="738" y="18" rx="2" ry="2" width="12" height="12"/><rect class="c" x="738" y="34" rx="2" ry="2" width="12" height="12"/><rect class="c" x="738" y="50" rx="2" ry="2" width="12" height="12"/><rect class="c" x="738" y="66" rx="2" ry="2" width="12" height="12"/><rect class="c" x="738" y="82" rx="2" ry="2" width="12" height="12"/><rect class="c" x="738" y="98" rx="2" ry="2" width="12" height="12"/><rect class="c" x="754" y="2" rx="2" ry="2" width="12" height="12"/><rect class="c" x="754" y="18" rx="2" ry="2" width="12" height="12"/><rect class="c" x="754" y="34" rx="2" ry="2" width="12" height="12"/><rect class="c" x="754" y="50" rx="2" ry="2" width="12" height="12"/><rect class="c" x="754" y="66" rx="2" ry="2" width="12" height="12"/><rect class="c" x="754" y="82" rx="2" ry="2" width="12" height="12"/><rect class="c" x="754" y="98" rx="2" ry="2" width="12" height="12"/><rect class="c" x="770" y="2" rx="2" ry="2" width="12" height="12"/><rect class="c" x="770" y="18" rx="2" ry="2" width="12" height="12"/><rect class="c" x="770" y="34" rx="2" ry="2" width="12" height="12"/><rect class="c" x="770" y="50" rx="2" ry="2" width="12" height="12"/><rect class="c" x="770" y="66" rx="2" ry="2" width="12" height="12"/><rect class="c" x="770" y="82" rx="2" ry="2" width="12" height="12"/><rect class="c" x="770" y="98" rx="2" ry="2" width="12" height="12"/><rect class="c" x="786" y="2" rx="2" ry="2" width="12" height="12"/><rect class="c" x="786" y="18" rx="2" ry="2" width="12" height="12"/><rect class="c" x="786" y="34" rx="2" ry="2" width="12" height="12"/><rect class="c" x="786" y="50" rx="2" ry="2" width="12" height="12"/><rect class="c c11" x="786" y="66" rx="2" ry="2" width="12" height="12"/><rect class="c" x="786" y="82" rx="2" ry="2" width="12" height="12"/><rect class="c" x="786" y="98" rx="2" ry="2" width="12" height="12"/><rect class="c" x="802" y="2" rx="2" ry="2" width="12" height="12"/><rect class="c" x="802" y="18" rx="2" ry="2" width="12" height="12"/><rect class="c" x="802" y="34" rx="2" ry="2" width="12" height="12"/><rect class="c" x="802" y="50" rx="2" ry="2" width="12" height="12"/><rect class="c c12" x="802" y="66" rx="2" ry="2" width="12" height="12"/><rect class="c" x="802" y="82" rx="2" ry="2" width="12" height="12"/><rect class="c" x="802" y="98" rx="2" ry="2" width="12" height="12"/><rect class="c" x="818" y="2" rx="2" ry="2" width="12" height="12"/><rect class="c" x="818" y="18" rx="2" ry="2" width="12" height="12"/><rect class="c" x="818" y="34" rx="2" ry="2" width="12" height="12"/><rect class="c" x="818" y="50" rx="2" ry="2" width="12" height="12"/><rect class="c" x="818" y="66" rx="2" ry="2" width="12" height="12"/><rect class="c" x="818" y="82" rx="2" ry="2" width="12" height="12"/><rect class="c" x="818" y="98" rx="2" ry="2" width="12" height="12"/><rect class="c" x="834" y="2" rx="2" ry="2" width="12" height="12"/><rect class="c" x="834" y="18" rx="2" ry="2" width="12" height="12"/><rect class="c" x="834" y="34" rx="2" ry="2" width="12" height="12"/><rect class="c c13" x="834" y="50" rx="2" ry="2" width="12" height="12"/><rect class="u u0" height="12" width="615.4" x="0.0" y="144"/><rect class="u u1" height="12" width="191.4" x="614.8" y="144"/><rect class="u u2" height="12" width="21.8" x="805.6" y="144"/><rect class="u u3" height="12" width="21.8" x="826.8" y="144"/><rect class="s s0" x="0.8" y="0.8" width="14.4" height="14.4" rx="4.5" ry="4.5"/><rect class="s s1" x="1.8" y="1.8" width="12.3" height="12.3" rx="4.1" ry="4.1"/><rect class="s s2" x="2.6" y="2.6" width="10.8" height="10.8" rx="3.6" ry="3.6"/><rect class="s s3" x="3.0" y="3.0" width="9.9" height="9.9" rx="3.3" ry="3.3"/></svg>