<svg viewBox="-16 -32 880 192" width="880" height="192" xmlns="http://www.w3.org/2000/svg"><desc>Generated with https://github.com/Platane/snk</desc><style>@keyframes c0{.33%{fill:var(--c1)}.35%,to{fill:var(--ce)}}@keyframes c1{1.02%{fill:var(--c1)}1.04%,to{fill:var(--ce)}}@keyframes c2{1.36%{fill:var(--c1)}1.38%,to{fill:var(--ce)}}@keyframes c3{1.71%{fill:var(--c1)}1.73%,to{fill:var(--ce)}}@keyframes c4{54.97%{fill:var(--c3)}54.99%,to{fill:var(--ce)}}@keyframes c5{55.32%{fill:var(--c3)}55.34%,to{fill:var(--ce)}}@keyframes c6{53.25%{fill:var(--c3)}53.27%,to{fill:var(--ce)}}@keyframes c7{3.08%{fill:var(--c1)}3.1%,to{fill:var(--ce)}}@keyframes c8{52.22%{fill:var(--c2)}52.24%,to{fill:var(--ce)}}@keyframes c9{8.58%{fill:var(--c1)}8.6%,to{fill:var(--ce)}}@keyframes ca{7.89%{fill:var(--c1)}7.91%,to{fill:var(--ce)}}@keyframes cb{7.55%{fill:var(--c1)}7.57%,to{fill:var(--ce)}}@keyframes cc{47.07%{fill:var(--c2)}47.09%,to{fill:var(--ce)}}@keyframes cd{11.67%{fill:var(--c1)}11.69%,to{fill:var(--ce)}}@keyframes ce{12.02%{fill:var(--c1)}12.04%,to{fill:var(--ce)}}@keyframes cf{46.38%{fill:var(--c2)}46.4%,to{fill:var(--ce)}}@keyframes cg{10.99%{fill:var(--c1)}11.01%,to{fill:var(--ce)}}@keyframes ch{92.77%{fill:var(--c4)}92.79%,to{fill:var(--ce)}}@keyframes ci{12.7%{fill:var(--c1)}12.72%,to{fill:var(--ce)}}@keyframes cj{13.39%{fill:var(--c1)}13.41%,to{fill:var(--ce)}}@keyframes ck{44.66%{fill:var(--c2)}44.68%,to{fill:var(--ce)}}@keyframes cl{62.19%{fill:var(--c3)}62.21%,to{fill:var(--ce)}}@keyframes cm{41.91%{fill:var(--c2)}41.93%,to{fill:var(--ce)}}@keyframes cn{67.69%{fill:var(--c3)}67.71%,to{fill:var(--ce)}}@keyframes co{90.02%{fill:var(--c4)}90.04%,to{fill:var(--ce)}}@keyframes cp{63.91%{fill:var(--c3)}63.93%,to{fill:var(--ce)}}@keyframes cq{17.52%{fill:var(--c1)}17.54%,to{fill:var(--ce)}}@keyframes cr{40.2%{fill:var(--c2)}40.22%,to{fill:var(--ce)}}@keyframes cs{17.86%{fill:var(--c1)}17.88%,to{fill:var(--ce)}}@keyframes ct{65.63%{fill:var(--c3)}65.65%,to{fill:var(--ce)}}@keyframes cu{19.92%{fill:var(--c1)}19.94%,to{fill:var(--ce)}}@keyframes cv{23.36%{fill:var(--c1)}23.38%,to{fill:var(--ce)}}@keyframes cw{23.01%{fill:var(--c1)}23.03%,to{fill:var(--ce)}}@keyframes cx{28.51%{fill:var(--c1)}28.53%,to{fill:var(--ce)}}@keyframes cy{28.86%{fill:var(--c1)}28.88%,to{fill:var(--ce)}}@keyframes cz{79.37%{fill:var(--c3)}79.39%,to{fill:var(--ce)}}@keyframes c10{29.54%{fill:var(--c2)}29.56%,to{fill:var(--ce)}}@keyframes u0{.33%{transform:scale(0,1)}.35%,1.02%{transform:scale(.05,1)}1.04%,1.36%{transform:scale(.1,1)}1.38%,1.71%{transform:scale(.15,1)}1.73%,3.08%{transform:scale(.2,1)}3.1%,7.55%{transform:scale(.25,1)}7.57%,7.89%{transform:scale(.3,1)}7.91%,8.58%{transform:scale(.35,1)}10.99%,8.6%{transform:scale(.4,1)}11.01%,11.67%{transform:scale(.45,1)}11.69%,12.02%{transform:scale(.5,1)}12.04%,12.7%{transform:scale(.55,1)}12.72%,13.39%{transform:scale(.6,1)}13.41%,17.52%{transform:scale(.65,1)}17.54%,17.86%{transform:scale(.7,1)}17.88%,19.92%{transform:scale(.75,1)}19.94%,23.01%{transform:scale(.8,1)}23.03%,23.36%{transform:scale(.85,1)}23.38%,28.51%{transform:scale(.9,1)}28.53%,28.86%{transform:scale(.95,1)}28.88%,to{transform:scale(1,1)}}@keyframes u1{29.54%{transform:scale(0,1)}29.56%,40.2%{transform:scale(.14,1)}40.22%,41.91%{transform:scale(.29,1)}41.93%,44.66%{transform:scale(.43,1)}44.68%,46.38%{transform:scale(.57,1)}46.4%,47.07%{transform:scale(.71,1)}47.09%,52.22%{transform:scale(.86,1)}52.24%,to{transform:scale(1,1)}}@keyframes u2{53.25%{transform:scale(0,1)}53.27%,54.97%{transform:scale(.13,1)}54.99%,55.32%{transform:scale(.25,1)}55.34%,62.19%{transform:scale(.38,1)}62.21%,63.91%{transform:scale(.5,1)}63.93%,65.63%{transform:scale(.63,1)}65.65%,67.69%{transform:scale(.75,1)}67.71%,79.37%{transform:scale(.88,1)}79.39%,to{transform:scale(1,1)}}@keyframes u3{90.02%{transform:scale(0,1)}90.04%,92.77%{transform:scale(.5,1)}92.79%,to{transform:scale(1,1)}}@keyframes s0{0%,99.66%{transform:translate(0,-16px)}1.72%{transform:translate(0,64px)}2.41%{transform:translate(32px,64px)}3.09%{transform:translate(32px,96px)}6.19%{transform:translate(176px,96px)}8.25%{transform:translate(176px,0)}8.59%{transform:translate(160px,0)}8.93%{transform:translate(160px,16px)}11%,92.1%{transform:translate(256px,16px)}11.34%{transform:translate(256px,32px)}11.68%{transform:translate(240px,32px)}12.37%{transform:translate(240px,64px)}12.71%{transform:translate(256px,64px)}13.4%{transform:translate(256px,96px)}14.09%,45.02%{transform:translate(288px,96px)}14.43%,45.36%{transform:translate(288px,80px)}15.46%{transform:translate(336px,80px)}16.49%,41.24%{transform:translate(336px,32px)}17.18%,40.55%{transform:translate(368px,32px)}17.53%{transform:translate(368px,16px)}19.24%{transform:translate(448px,16px)}19.93%{transform:translate(448px,48px)}22.68%{transform:translate(576px,48px)}23.37%{transform:translate(576px,16px)}27.49%{transform:translate(768px,16px)}28.52%{transform:translate(768px,64px)}29.55%{transform:translate(816px,64px)}29.9%{transform:translate(816px,80px)}30.24%{transform:translate(800px,80px)}30.93%,79.73%{transform:translate(800px,48px)}40.21%{transform:translate(368px,48px)}41.92%{transform:translate(336px,0)}42.61%{transform:translate(304px,0)}44.67%{transform:translate(304px,96px)}46.74%{transform:translate(224px,80px)}47.08%{transform:translate(224px,96px)}47.42%{transform:translate(208px,96px)}48.8%{transform:translate(208px,32px)}52.23%{transform:translate(48px,32px)}52.58%{transform:translate(48px,16px)}53.61%{transform:translate(0,16px)}55.33%{transform:translate(0,96px)}62.89%{transform:translate(352px,96px)}63.92%{transform:translate(352px,48px)}65.29%{transform:translate(416px,48px)}66.32%{transform:translate(416px,0)}67.7%{transform:translate(352px,0)}68.04%{transform:translate(352px,-16px)}78.01%{transform:translate(816px,-16px)}79.38%{transform:translate(816px,48px)}80.41%{transform:translate(800px,16px)}92.78%{transform:translate(256px,48px)}94.16%{transform:translate(192px,48px)}94.5%{transform:translate(192px,32px)}94.85%{transform:translate(176px,32px)}95.19%{transform:translate(176px,16px)}97.25%{transform:translate(80px,16px)}97.59%{transform:translate(80px,0)}98.28%{transform:translate(48px,0)}98.63%{transform:translate(48px,-16px)}}@keyframes s1{0%,99.66%{transform:translate(16px,-16px)}.34%{transform:translate(0,-16px)}2.06%{transform:translate(0,64px)}2.75%{transform:translate(32px,64px)}3.44%{transform:translate(32px,96px)}6.53%{transform:translate(176px,96px)}8.59%{transform:translate(176px,0)}8.93%{transform:translate(160px,0)}9.28%{transform:translate(160px,16px)}11.34%,92.44%{transform:translate(256px,16px)}11.68%{transform:translate(256px,32px)}12.03%{transform:translate(240px,32px)}12.71%{transform:translate(240px,64px)}13.06%{transform:translate(256px,64px)}13.75%{transform:translate(256px,96px)}14.43%,45.36%{transform:translate(288px,96px)}14.78%,45.7%{transform:translate(288px,80px)}15.81%{transform:translate(336px,80px)}16.84%,41.58%{transform:translate(336px,32px)}17.53%,40.89%{transform:translate(368px,32px)}17.87%{transform:translate(368px,16px)}19.59%{transform:translate(448px,16px)}20.27%{transform:translate(448px,48px)}23.02%{transform:translate(576px,48px)}23.71%{transform:translate(576px,16px)}27.84%{transform:translate(768px,16px)}28.87%{transform:translate(768px,64px)}29.9%{transform:translate(816px,64px)}30.24%{transform:translate(816px,80px)}30.58%{transform:translate(800px,80px)}31.27%,80.07%{transform:translate(800px,48px)}40.55%{transform:translate(368px,48px)}42.27%{transform:translate(336px,0)}42.96%{transform:translate(304px,0)}45.02%{transform:translate(304px,96px)}47.08%{transform:translate(224px,80px)}47.42%{transform:translate(224px,96px)}47.77%{transform:translate(208px,96px)}49.14%{transform:translate(208px,32px)}52.58%{transform:translate(48px,32px)}52.92%{transform:translate(48px,16px)}53.95%{transform:translate(0,16px)}55.67%{transform:translate(0,96px)}63.23%{transform:translate(352px,96px)}64.26%{transform:translate(352px,48px)}65.64%{transform:translate(416px,48px)}66.67%{transform:translate(416px,0)}68.04%{transform:translate(352px,0)}68.38%{transform:translate(352px,-16px)}78.35%{transform:translate(816px,-16px)}79.73%{transform:translate(816px,48px)}80.76%{transform:translate(800px,16px)}93.13%{transform:translate(256px,48px)}94.5%{transform:translate(192px,48px)}94.85%{transform:translate(192px,32px)}95.19%{transform:translate(176px,32px)}95.53%{transform:translate(176px,16px)}97.59%{transform:translate(80px,16px)}97.94%{transform:translate(80px,0)}98.63%{transform:translate(48px,0)}98.97%{transform:translate(48px,-16px)}}@keyframes s2{0%,99.66%{transform:translate(32px,-16px)}.69%{transform:translate(0,-16px)}2.41%{transform:translate(0,64px)}3.09%{transform:translate(32px,64px)}3.78%{transform:translate(32px,96px)}6.87%{transform:translate(176px,96px)}8.93%{transform:translate(176px,0)}9.28%{transform:translate(160px,0)}9.62%{transform:translate(160px,16px)}11.68%,92.78%{transform:translate(256px,16px)}12.03%{transform:translate(256px,32px)}12.37%{transform:translate(240px,32px)}13.06%{transform:translate(240px,64px)}13.4%{transform:translate(256px,64px)}14.09%{transform:translate(256px,96px)}14.78%,45.7%{transform:translate(288px,96px)}15.12%,46.05%{transform:translate(288px,80px)}16.15%{transform:translate(336px,80px)}17.18%,41.92%{transform:translate(336px,32px)}17.87%,41.24%{transform:translate(368px,32px)}18.21%{transform:translate(368px,16px)}19.93%{transform:translate(448px,16px)}20.62%{transform:translate(448px,48px)}23.37%{transform:translate(576px,48px)}24.05%{transform:translate(576px,16px)}28.18%{transform:translate(768px,16px)}29.21%{transform:translate(768px,64px)}30.24%{transform:translate(816px,64px)}30.58%{transform:translate(816px,80px)}30.93%{transform:translate(800px,80px)}31.62%,80.41%{transform:translate(800px,48px)}40.89%{transform:translate(368px,48px)}42.61%{transform:translate(336px,0)}43.3%{transform:translate(304px,0)}45.36%{transform:translate(304px,96px)}47.42%{transform:translate(224px,80px)}47.77%{transform:translate(224px,96px)}48.11%{transform:translate(208px,96px)}49.48%{transform:translate(208px,32px)}52.92%{transform:translate(48px,32px)}53.26%{transform:translate(48px,16px)}54.3%{transform:translate(0,16px)}56.01%{transform:translate(0,96px)}63.57%{transform:translate(352px,96px)}64.6%{transform:translate(352px,48px)}65.98%{transform:translate(416px,48px)}67.01%{transform:translate(416px,0)}68.38%{transform:translate(352px,0)}68.73%{transform:translate(352px,-16px)}78.69%{transform:translate(816px,-16px)}80.07%{transform:translate(816px,48px)}81.1%{transform:translate(800px,16px)}93.47%{transform:translate(256px,48px)}94.85%{transform:translate(192px,48px)}95.19%{transform:translate(192px,32px)}95.53%{transform:translate(176px,32px)}95.88%{transform:translate(176px,16px)}97.94%{transform:translate(80px,16px)}98.28%{transform:translate(80px,0)}98.97%{transform:translate(48px,0)}99.31%{transform:translate(48px,-16px)}}@keyframes s3{0%,99.66%{transform:translate(48px,-16px)}1.03%{transform:translate(0,-16px)}2.75%{transform:translate(0,64px)}3.44%{transform:translate(32px,64px)}4.12%{transform:translate(32px,96px)}7.22%{transform:translate(176px,96px)}9.28%{transform:translate(176px,0)}9.62%{transform:translate(160px,0)}9.97%{transform:translate(160px,16px)}12.03%,93.13%{transform:translate(256px,16px)}12.37%{transform:translate(256px,32px)}12.71%{transform:translate(240px,32px)}13.4%{transform:translate(240px,64px)}13.75%{transform:translate(256px,64px)}14.43%{transform:translate(256px,96px)}15.12%,46.05%{transform:translate(288px,96px)}15.46%,46.39%{transform:translate(288px,80px)}16.49%{transform:translate(336px,80px)}17.53%,42.27%{transform:translate(336px,32px)}18.21%,41.58%{transform:translate(368px,32px)}18.56%{transform:translate(368px,16px)}20.27%{transform:translate(448px,16px)}20.96%{transform:translate(448px,48px)}23.71%{transform:translate(576px,48px)}24.4%{transform:translate(576px,16px)}28.52%{transform:translate(768px,16px)}29.55%{transform:translate(768px,64px)}30.58%{transform:translate(816px,64px)}30.93%{transform:translate(816px,80px)}31.27%{transform:translate(800px,80px)}31.96%,80.76%{transform:translate(800px,48px)}41.24%{transform:translate(368px,48px)}42.96%{transform:translate(336px,0)}43.64%{transform:translate(304px,0)}45.7%{transform:translate(304px,96px)}47.77%{transform:translate(224px,80px)}48.11%{transform:translate(224px,96px)}48.45%{transform:translate(208px,96px)}49.83%{transform:translate(208px,32px)}53.26%{transform:translate(48px,32px)}53.61%{transform:translate(48px,16px)}54.64%{transform:translate(0,16px)}56.36%{transform:translate(0,96px)}63.92%{transform:translate(352px,96px)}64.95%{transform:translate(352px,48px)}66.32%{transform:translate(416px,48px)}67.35%{transform:translate(416px,0)}68.73%{transform:translate(352px,0)}69.07%{transform:translate(352px,-16px)}79.04%{transform:translate(816px,-16px)}80.41%{transform:translate(816px,48px)}81.44%{transform:translate(800px,16px)}93.81%{transform:translate(256px,48px)}95.19%{transform:translate(192px,48px)}95.53%{transform:translate(192px,32px)}95.88%{transform:translate(176px,32px)}96.22%{transform:translate(176px,16px)}98.28%{transform:translate(80px,16px)}98.63%{transform:translate(80px,0)}99.31%{transform:translate(48px,0)}}:root{--cb:#1b1f230a;--cs:purple;--ce:#ebedf0;--c0:#ebedf0;--c1:#9be9a8;--c2:#40c463;--c3:#30a14e;--c4:#216e39}@media (prefers-color-scheme:dark){:root{--cb:#1b1f230a;--cs:purple;--ce:#161b22;--c1:#01311f;--c2:#034525;--c3:#0f6d31;--c4:#00c647}}.c{shape-rendering:geometricPrecision;fill:var(--ce);stroke-width:1px;stroke:var(--cb);animation:none 29100ms linear infinite}.c.c0{fill:var(--c1);animation-name:c0}.c.c1,.c.c2,.c.c3{fill:var(--c1);animation-name:c1}.c.c2,.c.c3{animation-name:c2}.c.c3{animation-name:c3}.c.c4,.c.c5,.c.c6{fill:var(--c3);animation-name:c4}.c.c5,.c.c6{animation-name:c5}.c.c6{animation-name:c6}.c.c7{fill:var(--c1);animation-name:c7}.c.c8{fill:var(--c2);animation-name:c8}.c.c9,.c.ca,.c.cb{fill:var(--c1);animation-name:c9}.c.ca,.c.cb{animation-name:ca}.c.cb{animation-name:cb}.c.cc{fill:var(--c2);animation-name:cc}.c.cd,.c.ce{fill:var(--c1);animation-name:cd}.c.ce{animation-name:ce}.c.cf{fill:var(--c2);animation-name:cf}.c.cg{fill:var(--c1);animation-name:cg}.c.ch{fill:var(--c4);animation-name:ch}.c.ci,.c.cj{fill:var(--c1);animation-name:ci}.c.cj{animation-name:cj}.c.ck{fill:var(--c2);animation-name:ck}.c.cl{fill:var(--c3);animation-name:cl}.c.cm{fill:var(--c2);animation-name:cm}.c.cn{fill:var(--c3);animation-name:cn}.c.co{fill:var(--c4);animation-name:co}.c.cp{fill:var(--c3);animation-name:cp}.c.cq{fill:var(--c1);animation-name:cq}.c.cr{fill:var(--c2);animation-name:cr}.c.cs{fill:var(--c1);animation-name:cs}.c.ct{fill:var(--c3);animation-name:ct}.c.cu,.c.cv{fill:var(--c1);animation-name:cu}.c.cv{animation-name:cv}.c.cw,.c.cx,.c.cy{fill:var(--c1);animation-name:cw}.c.cx,.c.cy{animation-name:cx}.c.cy{animation-name:cy}.c.cz{fill:var(--c3);animation-name:cz}.c.c10{fill:var(--c2);animation-name:c10}.s,.u{animation:none linear 29100ms infinite}.u,.u.u0{transform-origin:0 0}.u{transform:scale(0,1)}.u.u0{fill:var(--c1);animation-name:u0}.u.u1{fill:var(--c2);animation-name:u1;transform-origin:458.4px 0}.u.u2{fill:var(--c3);animation-name:u2;transform-origin:618.8px 0}.u.u3{fill:var(--c4);animation-name:u3;transform-origin:802.2px 0}.s{shape-rendering:geometricPrecision;fill:var(--cs)}.s.s0{transform:translate(0,-16px);animation-name:s0}.s.s1{transform:translate(16px,-16px);animation-name:s1}.s.s2{transform:translate(32px,-16px);animation-name:s2}.s.s3{transform:translate(48px,-16px);animation-name:s3}</style><rect class="c c0" x="2" y="2" rx="2" ry="2" width="12" height="12"/><rect class="c" x="2" y="18" rx="2" ry="2" width="12" height="12"/><rect class="c c1" x="2" y="34" rx="2" ry="2" width="12" height="12"/><rect class="c c2" x="2" y="50" rx="2" ry="2" width="12" height="12"/><rect class="c c3" x="2" y="66" rx="2" ry="2" width="12" height="12"/><rect class="c c4" x="2" y="82" rx="2" ry="2" width="12" height="12"/><rect class="c c5" x="2" y="98" rx="2" ry="2" width="12" height="12"/><rect class="c" x="18" y="2" rx="2" ry="2" width="12" height="12"/><rect class="c c6" x="18" y="18" rx="2" ry="2" width="12" height="12"/><rect class="c" x="18" y="34" rx="2" ry="2" width="12" height="12"/><rect class="c" x="18" y="50" rx="2" ry="2" width="12" height="12"/><rect class="c" x="18" y="66" rx="2" ry="2" width="12" height="12"/><rect class="c" x="18" y="82" rx="2" ry="2" width="12" height="12"/><rect class="c" x="18" y="98" rx="2" ry="2" width="12" height="12"/><rect class="c" x="34" y="2" rx="2" ry="2" width="12" height="12"/><rect class="c" x="34" y="18" rx="2" ry="2" width="12" height="12"/><rect class="c" x="34" y="34" rx="2" ry="2" width="12" height="12"/><rect class="c" x="34" y="50" rx="2" ry="2" width="12" height="12"/><rect class="c" x="34" y="66" rx="2" ry="2" width="12" height="12"/><rect class="c" x="34" y="82" rx="2" ry="2" width="12" height="12"/><rect class="c c7" x="34" y="98" rx="2" ry="2" width="12" height="12"/><rect class="c" x="50" y="2" rx="2" ry="2" width="12" height="12"/><rect class="c" x="50" y="18" rx="2" ry="2" width="12" height="12"/><rect class="c c8" x="50" y="34" rx="2" ry="2" width="12" height="12"/><rect class="c" x="50" y="50" rx="2" ry="2" width="12" height="12"/><rect class="c" x="50" y="66" rx="2" ry="2" width="12" height="12"/><rect class="c" x="50" y="82" rx="2" ry="2" width="12" height="12"/><rect class="c" x="50" y="98" rx="2" ry="2" width="12" height="12"/><rect class="c" x="66" y="2" rx="2" ry="2" width="12" height="12"/><rect class="c" x="66" y="18" rx="2" ry="2" width="12" height="12"/><rect class="c" x="66" y="34" rx="2" ry="2" width="12" height="12"/><rect class="c" x="66" y="50" rx="2" ry="2" width="12" height="12"/><rect class="c" x="66" y="66" rx="2" ry="2" width="12" height="12"/><rect class="c" x="66" y="82" rx="2" ry="2" width="12" height="12"/><rect class="c" x="66" y="98" rx="2" ry="2" width="12" height="12"/><rect class="c" x="82" y="2" rx="2" ry="2" width="12" height="12"/><rect class="c" x="82" y="18" rx="2" ry="2" width="12" height="12"/><rect class="c" x="82" y="34" rx="2" ry="2" width="12" height="12"/><rect class="c" x="82" y="50" rx="2" ry="2" width="12" height="12"/><rect class="c" x="82" y="66" rx="2" ry="2" width="12" height="12"/><rect class="c" x="82" y="82" rx="2" ry="2" width="12" height="12"/><rect class="c" x="82" y="98" rx="2" ry="2" width="12" height="12"/><rect class="c" x="98" y="2" rx="2" ry="2" width="12" height="12"/><rect class="c" x="98" y="18" rx="2" ry="2" width="12" height="12"/><rect class="c" x="98" y="34" rx="2" ry="2" width="12" height="12"/><rect class="c" x="98" y="50" rx="2" ry="2" width="12" height="12"/><rect class="c" x="98" y="66" rx="2" ry="2" width="12" height="12"/><rect class="c" x="98" y="82" rx="2" ry="2" width="12" height="12"/><rect class="c" x="98" y="98" rx="2" ry="2" width="12" height="12"/><rect class="c" x="114" y="2" rx="2" ry="2" width="12" height="12"/><rect class="c" x="114" y="18" rx="2" ry="2" width="12" height="12"/><rect class="c" x="114" y="34" rx="2" ry="2" width="12" height="12"/><rect class="c" x="114" y="50" rx="2" ry="2" width="12" height="12"/><rect class="c" x="114" y="66" rx="2" ry="2" width="12" height="12"/><rect class="c" x="114" y="82" rx="2" ry="2" width="12" height="12"/><rect class="c" x="114" y="98" rx="2" ry="2" width="12" height="12"/><rect class="c" x="130" y="2" rx="2" ry="2" width="12" height="12"/><rect class="c" x="130" y="18" rx="2" ry="2" width="12" height="12"/><rect class="c" x="130" y="34" rx="2" ry="2" width="12" height="12"/><rect class="c" x="130" y="50" rx="2" ry="2" width="12" height="12"/><rect class="c" x="130" y="66" rx="2" ry="2" width="12" height="12"/><rect class="c" x="130" y="82" rx="2" ry="2" width="12" height="12"/><rect class="c" x="130" y="98" rx="2" ry="2" width="12" height="12"/><rect class="c" x="146" y="2" rx="2" ry="2" width="12" height="12"/><rect class="c" x="146" y="18" rx="2" ry="2" width="12" height="12"/><rect class="c" x="146" y="34" rx="2" ry="2" width="12" height="12"/><rect class="c" x="146" y="50" rx="2" ry="2" width="12" height="12"/><rect class="c" x="146" y="66" rx="2" ry="2" width="12" height="12"/><rect class="c" x="146" y="82" rx="2" ry="2" width="12" height="12"/><rect class="c" x="146" y="98" rx="2" ry="2" width="12" height="12"/><rect class="c c9" x="162" y="2" rx="2" ry="2" width="12" height="12"/><rect class="c" x="162" y="18" rx="2" ry="2" width="12" height="12"/><rect class="c" x="162" y="34" rx="2" ry="2" width="12" height="12"/><rect class="c" x="162" y="50" rx="2" ry="2" width="12" height="12"/><rect class="c" x="162" y="66" rx="2" ry="2" width="12" height="12"/><rect class="c" x="162" y="82" rx="2" ry="2" width="12" height="12"/><rect class="c" x="162" y="98" rx="2" ry="2" width="12" height="12"/><rect class="c" x="178" y="2" rx="2" ry="2" width="12" height="12"/><rect class="c ca" x="178" y="18" rx="2" ry="2" width="12" height="12"/><rect class="c cb" x="178" y="34" rx="2" ry="2" width="12" height="12"/><rect class="c" x="178" y="50" rx="2" ry="2" width="12" height="12"/><rect class="c" x="178" y="66" rx="2" ry="2" width="12" height="12"/><rect class="c" x="178" y="82" rx="2" ry="2" width="12" height="12"/><rect class="c" x="178" y="98" rx="2" ry="2" width="12" height="12"/><rect class="c" x="194" y="2" rx="2" ry="2" width="12" height="12"/><rect class="c" x="194" y="18" rx="2" ry="2" width="12" height="12"/><rect class="c" x="194" y="34" rx="2" ry="2" width="12" height="12"/><rect class="c" x="194" y="50" rx="2" ry="2" width="12" height="12"/><rect class="c" x="194" y="66" rx="2" ry="2" width="12" height="12"/><rect class="c" x="194" y="82" rx="2" ry="2" width="12" height="12"/><rect class="c" x="194" y="98" rx="2" ry="2" width="12" height="12"/><rect class="c" x="210" y="2" rx="2" ry="2" width="12" height="12"/><rect class="c" x="210" y="18" rx="2" ry="2" width="12" height="12"/><rect class="c" x="210" y="34" rx="2" ry="2" width="12" height="12"/><rect class="c" x="210" y="50" rx="2" ry="2" width="12" height="12"/><rect class="c" x="210" y="66" rx="2" ry="2" width="12" height="12"/><rect class="c" x="210" y="82" rx="2" ry="2" width="12" height="12"/><rect class="c" x="210" y="98" rx="2" ry="2" width="12" height="12"/><rect class="c" x="226" y="2" rx="2" ry="2" width="12" height="12"/><rect class="c" x="226" y="18" rx="2" ry="2" width="12" height="12"/><rect class="c" x="226" y="34" rx="2" ry="2" width="12" height="12"/><rect class="c" x="226" y="50" rx="2" ry="2" width="12" height="12"/><rect class="c" x="226" y="66" rx="2" ry="2" width="12" height="12"/><rect class="c" x="226" y="82" rx="2" ry="2" width="12" height="12"/><rect class="c cc" x="226" y="98" rx="2" ry="2" width="12" height="12"/><rect class="c" x="242" y="2" rx="2" ry="2" width="12" height="12"/><rect class="c" x="242" y="18" rx="2" ry="2" width="12" height="12"/><rect class="c cd" x="242" y="34" rx="2" ry="2" width="12" height="12"/><rect class="c ce" x="242" y="50" rx="2" ry="2" width="12" height="12"/><rect class="c" x="242" y="66" rx="2" ry="2" width="12" height="12"/><rect class="c cf" x="242" y="82" rx="2" ry="2" width="12" height="12"/><rect class="c" x="242" y="98" rx="2" ry="2" width="12" height="12"/><rect class="c" x="258" y="2" rx="2" ry="2" width="12" height="12"/><rect class="c cg" x="258" y="18" rx="2" ry="2" width="12" height="12"/><rect class="c" x="258" y="34" rx="2" ry="2" width="12" height="12"/><rect class="c ch" x="258" y="50" rx="2" ry="2" width="12" height="12"/><rect class="c ci" x="258" y="66" rx="2" ry="2" width="12" height="12"/><rect class="c" x="258" y="82" rx="2" ry="2" width="12" height="12"/><rect class="c cj" x="258" y="98" rx="2" ry="2" width="12" height="12"/><rect class="c" x="274" y="2" rx="2" ry="2" width="12" height="12"/><rect class="c" x="274" y="18" rx="2" ry="2" width="12" height="12"/><rect class="c" x="274" y="34" rx="2" ry="2" width="12" height="12"/><rect class="c" x="274" y="50" rx="2" ry="2" width="12" height="12"/><rect class="c" x="274" y="66" rx="2" ry="2" width="12" height="12"/><rect class="c" x="274" y="82" rx="2" ry="2" width="12" height="12"/><rect class="c" x="274" y="98" rx="2" ry="2" width="12" height="12"/><rect class="c" x="290" y="2" rx="2" ry="2" width="12" height="12"/><rect class="c" x="290" y="18" rx="2" ry="2" width="12" height="12"/><rect class="c" x="290" y="34" rx="2" ry="2" width="12" height="12"/><rect class="c" x="290" y="50" rx="2" ry="2" width="12" height="12"/><rect class="c" x="290" y="66" rx="2" ry="2" width="12" height="12"/><rect class="c" x="290" y="82" rx="2" ry="2" width="12" height="12"/><rect class="c" x="290" y="98" rx="2" ry="2" width="12" height="12"/><rect class="c" x="306" y="2" rx="2" ry="2" width="12" height="12"/><rect class="c" x="306" y="18" rx="2" ry="2" width="12" height="12"/><rect class="c" x="306" y="34" rx="2" ry="2" width="12" height="12"/><rect class="c" x="306" y="50" rx="2" ry="2" width="12" height="12"/><rect class="c" x="306" y="66" rx="2" ry="2" width="12" height="12"/><rect class="c" x="306" y="82" rx="2" ry="2" width="12" height="12"/><rect class="c ck" x="306" y="98" rx="2" ry="2" width="12" height="12"/><rect class="c" x="322" y="2" rx="2" ry="2" width="12" height="12"/><rect class="c" x="322" y="18" rx="2" ry="2" width="12" height="12"/><rect class="c" x="322" y="34" rx="2" ry="2" width="12" height="12"/><rect class="c" x="322" y="50" rx="2" ry="2" width="12" height="12"/><rect class="c" x="322" y="66" rx="2" ry="2" width="12" height="12"/><rect class="c" x="322" y="82" rx="2" ry="2" width="12" height="12"/><rect class="c cl" x="322" y="98" rx="2" ry="2" width="12" height="12"/><rect class="c cm" x="338" y="2" rx="2" ry="2" width="12" height="12"/><rect class="c" x="338" y="18" rx="2" ry="2" width="12" height="12"/><rect class="c" x="338" y="34" rx="2" ry="2" width="12" height="12"/><rect class="c" x="338" y="50" rx="2" ry="2" width="12" height="12"/><rect class="c" x="338" y="66" rx="2" ry="2" width="12" height="12"/><rect class="c" x="338" y="82" rx="2" ry="2" width="12" height="12"/><rect class="c" x="338" y="98" rx="2" ry="2" width="12" height="12"/><rect class="c cn" x="354" y="2" rx="2" ry="2" width="12" height="12"/><rect class="c co" x="354" y="18" rx="2" ry="2" width="12" height="12"/><rect class="c" x="354" y="34" rx="2" ry="2" width="12" height="12"/><rect class="c cp" x="354" y="50" rx="2" ry="2" width="12" height="12"/><rect class="c" x="354" y="66" rx="2" ry="2" width="12" height="12"/><rect class="c" x="354" y="82" rx="2" ry="2" width="12" height="12"/><rect class="c" x="354" y="98" rx="2" ry="2" width="12" height="12"/><rect class="c" x="370" y="2" rx="2" ry="2" width="12" height="12"/><rect class="c cq" x="370" y="18" rx="2" ry="2" width="12" height="12"/><rect class="c" x="370" y="34" rx="2" ry="2" width="12" height="12"/><rect class="c cr" x="370" y="50" rx="2" ry="2" width="12" height="12"/><rect class="c" x="370" y="66" rx="2" ry="2" width="12" height="12"/><rect class="c" x="370" y="82" rx="2" ry="2" width="12" height="12"/><rect class="c" x="370" y="98" rx="2" ry="2" width="12" height="12"/><rect class="c" x="386" y="2" rx="2" ry="2" width="12" height="12"/><rect class="c cs" x="386" y="18" rx="2" ry="2" width="12" height="12"/><rect class="c" x="386" y="34" rx="2" ry="2" width="12" height="12"/><rect class="c" x="386" y="50" rx="2" ry="2" width="12" height="12"/><rect class="c" x="386" y="66" rx="2" ry="2" width="12" height="12"/><rect class="c" x="386" y="82" rx="2" ry="2" width="12" height="12"/><rect class="c" x="386" y="98" rx="2" ry="2" width="12" height="12"/><rect class="c" x="402" y="2" rx="2" ry="2" width="12" height="12"/><rect class="c" x="402" y="18" rx="2" ry="2" width="12" height="12"/><rect class="c" x="402" y="34" rx="2" ry="2" width="12" height="12"/><rect class="c" x="402" y="50" rx="2" ry="2" width="12" height="12"/><rect class="c" x="402" y="66" rx="2" ry="2" width="12" height="12"/><rect class="c" x="402" y="82" rx="2" ry="2" width="12" height="12"/><rect class="c" x="402" y="98" rx="2" ry="2" width="12" height="12"/><rect class="c" x="418" y="2" rx="2" ry="2" width="12" height="12"/><rect class="c" x="418" y="18" rx="2" ry="2" width="12" height="12"/><rect class="c ct" x="418" y="34" rx="2" ry="2" width="12" height="12"/><rect class="c" x="418" y="50" rx="2" ry="2" width="12" height="12"/><rect class="c" x="418" y="66" rx="2" ry="2" width="12" height="12"/><rect class="c" x="418" y="82" rx="2" ry="2" width="12" height="12"/><rect class="c" x="418" y="98" rx="2" ry="2" width="12" height="12"/><rect class="c" x="434" y="2" rx="2" ry="2" width="12" height="12"/><rect class="c" x="434" y="18" rx="2" ry="2" width="12" height="12"/><rect class="c" x="434" y="34" rx="2" ry="2" width="12" height="12"/><rect class="c" x="434" y="50" rx="2" ry="2" width="12" height="12"/><rect class="c" x="434" y="66" rx="2" ry="2" width="12" height="12"/><rect class="c" x="434" y="82" rx="2" ry="2" width="12" height="12"/><rect class="c" x="434" y="98" rx="2" ry="2" width="12" height="12"/><rect class="c" x="450" y="2" rx="2" ry="2" width="12" height="12"/><rect class="c" x="450" y="18" rx="2" ry="2" width="12" height="12"/><rect class="c" x="450" y="34" rx="2" ry="2" width="12" height="12"/><rect class="c cu" x="450" y="50" rx="2" ry="2" width="12" height="12"/><rect class="c" x="450" y="66" rx="2" ry="2" width="12" height="12"/><rect class="c" x="450" y="82" rx="2" ry="2" width="12" height="12"/><rect class="c" x="450" y="98" rx="2" ry="2" width="12" height="12"/><rect class="c" x="466" y="2" rx="2" ry="2" width="12" height="12"/><rect class="c" x="466" y="18" rx="2" ry="2" width="12" height="12"/><rect class="c" x="466" y="34" rx="2" ry="2" width="12" height="12"/><rect class="c" x="466" y="50" rx="2" ry="2" width="12" height="12"/><rect class="c" x="466" y="66" rx="2" ry="2" width="12" height="12"/><rect class="c" x="466" y="82" rx="2" ry="2" width="12" height="12"/><rect class="c" x="466" y="98" rx="2" ry="2" width="12" height="12"/><rect class="c" x="482" y="2" rx="2" ry="2" width="12" height="12"/><rect class="c" x="482" y="18" rx="2" ry="2" width="12" height="12"/><rect class="c" x="482" y="34" rx="2" ry="2" width="12" height="12"/><rect class="c" x="482" y="50" rx="2" ry="2" width="12" height="12"/><rect class="c" x="482" y="66" rx="2" ry="2" width="12" height="12"/><rect class="c" x="482" y="82" rx="2" ry="2" width="12" height="12"/><rect class="c" x="482" y="98" rx="2" ry="2" width="12" height="12"/><rect class="c" x="498" y="2" rx="2" ry="2" width="12" height="12"/><rect class="c" x="498" y="18" rx="2" ry="2" width="12" height="12"/><rect class="c" x="498" y="34" rx="2" ry="2" width="12" height="12"/><rect class="c" x="498" y="50" rx="2" ry="2" width="12" height="12"/><rect class="c" x="498" y="66" rx="2" ry="2" width="12" height="12"/><rect class="c" x="498" y="82" rx="2" ry="2" width="12" height="12"/><rect class="c" x="498" y="98" rx="2" ry="2" width="12" height="12"/><rect class="c" x="514" y="2" rx="2" ry="2" width="12" height="12"/><rect class="c" x="514" y="18" rx="2" ry="2" width="12" height="12"/><rect class="c" x="514" y="34" rx="2" ry="2" width="12" height="12"/><rect class="c" x="514" y="50" rx="2" ry="2" width="12" height="12"/><rect class="c" x="514" y="66" rx="2" ry="2" width="12" height="12"/><rect class="c" x="514" y="82" rx="2" ry="2" width="12" height="12"/><rect class="c" x="514" y="98" rx="2" ry="2" width="12" height="12"/><rect class="c" x="530" y="2" rx="2" ry="2" width="12" height="12"/><rect class="c" x="530" y="18" rx="2" ry="2" width="12" height="12"/><rect class="c" x="530" y="34" rx="2" ry="2" width="12" height="12"/><rect class="c" x="530" y="50" rx="2" ry="2" width="12" height="12"/><rect class="c" x="530" y="66" rx="2" ry="2" width="12" height="12"/><rect class="c" x="530" y="82" rx="2" ry="2" width="12" height="12"/><rect class="c" x="530" y="98" rx="2" ry="2" width="12" height="12"/><rect class="c" x="546" y="2" rx="2" ry="2" width="12" height="12"/><rect class="c" x="546" y="18" rx="2" ry="2" width="12" height="12"/><rect class="c" x="546" y="34" rx="2" ry="2" width="12" height="12"/><rect class="c" x="546" y="50" rx="2" ry="2" width="12" height="12"/><rect class="c" x="546" y="66" rx="2" ry="2" width="12" height="12"/><rect class="c" x="546" y="82" rx="2" ry="2" width="12" height="12"/><rect class="c" x="546" y="98" rx="2" ry="2" width="12" height="12"/><rect class="c" x="562" y="2" rx="2" ry="2" width="12" height="12"/><rect class="c" x="562" y="18" rx="2" ry="2" width="12" height="12"/><rect class="c" x="562" y="34" rx="2" ry="2" width="12" height="12"/><rect class="c" x="562" y="50" rx="2" ry="2" width="12" height="12"/><rect class="c" x="562" y="66" rx="2" ry="2" width="12" height="12"/><rect class="c" x="562" y="82" rx="2" ry="2" width="12" height="12"/><rect class="c" x="562" y="98" rx="2" ry="2" width="12" height="12"/><rect class="c" x="578" y="2" rx="2" ry="2" width="12" height="12"/><rect class="c cv" x="578" y="18" rx="2" ry="2" width="12" height="12"/><rect class="c cw" x="578" y="34" rx="2" ry="2" width="12" height="12"/><rect class="c" x="578" y="50" rx="2" ry="2" width="12" height="12"/><rect class="c" x="578" y="66" rx="2" ry="2" width="12" height="12"/><rect class="c" x="578" y="82" rx="2" ry="2" width="12" height="12"/><rect class="c" x="578" y="98" rx="2" ry="2" width="12" height="12"/><rect class="c" x="594" y="2" rx="2" ry="2" width="12" height="12"/><rect class="c" x="594" y="18" rx="2" ry="2" width="12" height="12"/><rect class="c" x="594" y="34" rx="2" ry="2" width="12" height="12"/><rect class="c" x="594" y="50" rx="2" ry="2" width="12" height="12"/><rect class="c" x="594" y="66" rx="2" ry="2" width="12" height="12"/><rect class="c" x="594" y="82" rx="2" ry="2" width="12" height="12"/><rect class="c" x="594" y="98" rx="2" ry="2" width="12" height="12"/><rect class="c" x="610" y="2" rx="2" ry="2" width="12" height="12"/><rect class="c" x="610" y="18" rx="2" ry="2" width="12" height="12"/><rect class="c" x="610" y="34" rx="2" ry="2" width="12" height="12"/><rect class="c" x="610" y="50" rx="2" ry="2" width="12" height="12"/><rect class="c" x="610" y="66" rx="2" ry="2" width="12" height="12"/><rect class="c" x="610" y="82" rx="2" ry="2" width="12" height="12"/><rect class="c" x="610" y="98" rx="2" ry="2" width="12" height="12"/><rect class="c" x="626" y="2" rx="2" ry="2" width="12" height="12"/><rect class="c" x="626" y="18" rx="2" ry="2" width="12" height="12"/><rect class="c" x="626" y="34" rx="2" ry="2" width="12" height="12"/><rect class="c" x="626" y="50" rx="2" ry="2" width="12" height="12"/><rect class="c" x="626" y="66" rx="2" ry="2" width="12" height="12"/><rect class="c" x="626" y="82" rx="2" ry="2" width="12" height="12"/><rect class="c" x="626" y="98" rx="2" ry="2" width="12" height="12"/><rect class="c" x="642" y="2" rx="2" ry="2" width="12" height="12"/><rect class="c" x="642" y="18" rx="2" ry="2" width="12" height="12"/><rect class="c" x="642" y="34" rx="2" ry="2" width="12" height="12"/><rect class="c" x="642" y="50" rx="2" ry="2" width="12" height="12"/><rect class="c" x="642" y="66" rx="2" ry="2" width="12" height="12"/><rect class="c" x="642" y="82" rx="2" ry="2" width="12" height="12"/><rect class="c" x="642" y="98" rx="2" ry="2" width="12" height="12"/><rect class="c" x="658" y="2" rx="2" ry="2" width="12" height="12"/><rect class="c" x="658" y="18" rx="2" ry="2" width="12" height="12"/><rect class="c" x="658" y="34" rx="2" ry="2" width="12" height="12"/><rect class="c" x="658" y="50" rx="2" ry="2" width="12" height="12"/><rect class="c" x="658" y="66" rx="2" ry="2" width="12" height="12"/><rect class="c" x="658" y="82" rx="2" ry="2" width="12" height="12"/><rect class="c" x="658" y="98" rx="2" ry="2" width="12" height="12"/><rect class="c" x="674" y="2" rx="2" ry="2" width="12" height="12"/><rect class="c" x="674" y="18" rx="2" ry="2" width="12" height="12"/><rect class="c" x="674" y="34" rx="2" ry="2" width="12" height="12"/><rect class="c" x="674" y="50" rx="2" ry="2" width="12" height="12"/><rect class="c" x="674" y="66" rx="2" ry="2" width="12" height="12"/><rect class="c" x="674" y="82" rx="2" ry="2" width="12" height="12"/><rect class="c" x="674" y="98" rx="2" ry="2" width="12" height="12"/><rect class="c" x="690" y="2" rx="2" ry="2" width="12" height="12"/><rect class="c" x="690" y="18" rx="2" ry="2" width="12" height="12"/><rect class="c" x="690" y="34" rx="2" ry="2" width="12" height="12"/><rect class="c" x="690" y="50" rx="2" ry="2" width="12" height="12"/><rect class="c" x="690" y="66" rx="2" ry="2" width="12" height="12"/><rect class="c" x="690" y="82" rx="2" ry="2" width="12" height="12"/><rect class="c" x="690" y="98" rx="2" ry="2" width="12" height="12"/><rect class="c" x="706" y="2" rx="2" ry="2" width="12" height="12"/><rect class="c" x="706" y="18" rx="2" ry="2" width="12" height="12"/><rect class="c" x="706" y="34" rx="2" ry="2" width="12" height="12"/><rect class="c" x="706" y="50" rx="2" ry="2" width="12" height="12"/><rect class="c" x="706" y="66" rx="2" ry="2" width="12" height="12"/><rect class="c" x="706" y="82" rx="2" ry="2" width="12" height="12"/><rect class="c" x="706" y="98" rx="2" ry="2" width="12" height="12"/><rect class="c" x="722" y="2" rx="2" ry="2" width="12" height="12"/><rect class="c" x="722" y="18" rx="2" ry="2" width="12" height="12"/><rect class="c" x="722" y="34" rx="2" ry="2" width="12" height="12"/><rect class="c" x="722" y="50" rx="2" ry="2" width="12" height="12"/><rect class="c" x="722" y="66" rx="2" ry="2" width="12" height="12"/><rect class="c" x="722" y="82" rx="2" ry="2" width="12" height="12"/><rect class="c" x="722" y="98" rx="2" ry="2" width="12" height="12"/><rect class="c" x="738" y="2" rx="2" ry="2" width="12" height="12"/><rect class="c" x="738" y="18" rx="2" ry="2" width="12" height="12"/><rect class="c" x="738" y="34" rx="2" ry="2" width="12" height="12"/><rect class="c" x="738" y="50" rx="2" ry="2" width="12" height="12"/><rect class="c" x="738" y="66" rx="2" ry="2" width="12" height="12"/><rect class="c" x="738" y="82" rx="2" ry="2" width="12" height="12"/><rect class="c" x="738" y="98" rx="2" ry="2" width="12" height="12"/><rect class="c" x="754" y="2" rx="2" ry="2" width="12" height="12"/><rect class="c" x="754" y="18" rx="2" ry="2" width="12" height="12"/><rect class="c" x="754" y="34" rx="2" ry="2" width="12" height="12"/><rect class="c" x="754" y="50" rx="2" ry="2" width="12" height="12"/><rect class="c" x="754" y="66" rx="2" ry="2" width="12" height="12"/><rect class="c" x="754" y="82" rx="2" ry="2" width="12" height="12"/><rect class="c" x="754" y="98" rx="2" ry="2" width="12" height="12"/><rect class="c" x="770" y="2" rx="2" ry="2" width="12" height="12"/><rect class="c" x="770" y="18" rx="2" ry="2" width="12" height="12"/><rect class="c" x="770" y="34" rx="2" ry="2" width="12" height="12"/><rect class="c" x="770" y="50" rx="2" ry="2" width="12" height="12"/><rect class="c cx" x="770" y="66" rx="2" ry="2" width="12" height="12"/><rect class="c" x="770" y="82" rx="2" ry="2" width="12" height="12"/><rect class="c" x="770" y="98" rx="2" ry="2" width="12" height="12"/><rect class="c" x="786" y="2" rx="2" ry="2" width="12" height="12"/><rect class="c" x="786" y="18" rx="2" ry="2" width="12" height="12"/><rect class="c" x="786" y="34" rx="2" ry="2" width="12" height="12"/><rect class="c" x="786" y="50" rx="2" ry="2" width="12" height="12"/><rect class="c cy" x="786" y="66" rx="2" ry="2" width="12" height="12"/><rect class="c" x="786" y="82" rx="2" ry="2" width="12" height="12"/><rect class="c" x="786" y="98" rx="2" ry="2" width="12" height="12"/><rect class="c" x="802" y="2" rx="2" ry="2" width="12" height="12"/><rect class="c" x="802" y="18" rx="2" ry="2" width="12" height="12"/><rect class="c" x="802" y="34" rx="2" ry="2" width="12" height="12"/><rect class="c" x="802" y="50" rx="2" ry="2" width="12" height="12"/><rect class="c" x="802" y="66" rx="2" ry="2" width="12" height="12"/><rect class="c" x="802" y="82" rx="2" ry="2" width="12" height="12"/><rect class="c" x="802" y="98" rx="2" ry="2" width="12" height="12"/><rect class="c" x="818" y="2" rx="2" ry="2" width="12" height="12"/><rect class="c" x="818" y="18" rx="2" ry="2" width="12" height="12"/><rect class="c" x="818" y="34" rx="2" ry="2" width="12" height="12"/><rect class="c cz" x="818" y="50" rx="2" ry="2" width="12" height="12"/><rect class="c c10" x="818" y="66" rx="2" ry="2" width="12" height="12"/><rect class="c" x="818" y="82" rx="2" ry="2" width="12" height="12"/><rect class="c" x="818" y="98" rx="2" ry="2" width="12" height="12"/><rect class="c" x="834" y="2" rx="2" ry="2" width="12" height="12"/><rect class="c" x="834" y="18" rx="2" ry="2" width="12" height="12"/><rect class="c" x="834" y="34" rx="2" ry="2" width="12" height="12"/><rect class="c" x="834" y="50" rx="2" ry="2" width="12" height="12"/><rect class="c" x="834" y="66" rx="2" ry="2" width="12" height="12"/><rect class="c" x="834" y="82" rx="2" ry="2" width="12" height="12"/><rect class="u u0" height="12" width="459.0" x="0.0" y="144"/><rect class="u u1" height="12" width="161.0" x="458.4" y="144"/><rect class="u u2" height="12" width="184.0" x="618.8" y="144"/><rect class="u u3" height="12" width="46.4" x="802.2" y="144"/><rect class="s s0" x="0.8" y="0.8" width="14.4" height="14.4" rx="4.5" ry="4.5"/><rect class="s s1" x="1.8" y="1.8" width="12.3" height="12.3" rx="4.1" ry="4.1"/><rect class="s s2" x="2.6" y="2.6" width="10.8" height="10.8" rx="3.6" ry="3.6"/><rect class="s s3" x="3.0" y="3.0" width="9.9" height="9.9" rx="3.3" ry="3.3"/></svg>