<svg viewBox="-16 -32 880 192" width="880" height="192" xmlns="http://www.w3.org/2000/svg"><desc>Generated with https://github.com/Platane/snk</desc><style>@keyframes c0{.72%{fill:var(--c1)}.74%,to{fill:var(--ce)}}@keyframes c1{6.95%{fill:var(--c1)}6.97%,to{fill:var(--ce)}}@keyframes c2{1.46%{fill:var(--c1)}1.48%,to{fill:var(--ce)}}@keyframes c3{1.82%{fill:var(--c1)}1.84%,to{fill:var(--ce)}}@keyframes c4{6.58%{fill:var(--c1)}6.6%,to{fill:var(--ce)}}@keyframes c5{2.92%{fill:var(--c1)}2.94%,to{fill:var(--ce)}}@keyframes c6{66.29%{fill:var(--c2)}66.31%,to{fill:var(--ce)}}@keyframes c7{4.02%{fill:var(--c1)}4.04%,to{fill:var(--ce)}}@keyframes c8{4.39%{fill:var(--c1)}4.41%,to{fill:var(--ce)}}@keyframes c9{15.01%{fill:var(--c1)}15.03%,to{fill:var(--ce)}}@keyframes ca{13.54%{fill:var(--c1)}13.56%,to{fill:var(--ce)}}@keyframes cb{63.36%{fill:var(--c2)}63.38%,to{fill:var(--ce)}}@keyframes cc{12.81%{fill:var(--c1)}12.83%,to{fill:var(--ce)}}@keyframes cd{13.18%{fill:var(--c1)}13.2%,to{fill:var(--ce)}}@keyframes ce{11.35%{fill:var(--c1)}11.37%,to{fill:var(--ce)}}@keyframes cf{17.57%{fill:var(--c1)}17.59%,to{fill:var(--ce)}}@keyframes cg{12.44%{fill:var(--c1)}12.46%,to{fill:var(--ce)}}@keyframes ch{12.08%{fill:var(--c1)}12.1%,to{fill:var(--ce)}}@keyframes ci{11.71%{fill:var(--c1)}11.73%,to{fill:var(--ce)}}@keyframes cj{71.42%{fill:var(--c3)}71.44%,to{fill:var(--ce)}}@keyframes ck{71.78%{fill:var(--c3)}71.8%,to{fill:var(--ce)}}@keyframes cl{69.59%{fill:var(--c3)}69.61%,to{fill:var(--ce)}}@keyframes cm{20.5%{fill:var(--c1)}20.52%,to{fill:var(--ce)}}@keyframes cn{61.16%{fill:var(--c2)}61.18%,to{fill:var(--ce)}}@keyframes co{26.36%{fill:var(--c1)}26.38%,to{fill:var(--ce)}}@keyframes cp{25.63%{fill:var(--c1)}25.65%,to{fill:var(--ce)}}@keyframes cq{25.26%{fill:var(--c1)}25.28%,to{fill:var(--ce)}}@keyframes cr{55.67%{fill:var(--c2)}55.69%,to{fill:var(--ce)}}@keyframes cs{29.66%{fill:var(--c1)}29.68%,to{fill:var(--ce)}}@keyframes ct{30.03%{fill:var(--c1)}30.05%,to{fill:var(--ce)}}@keyframes cu{54.94%{fill:var(--c2)}54.96%,to{fill:var(--ce)}}@keyframes cv{28.93%{fill:var(--c1)}28.95%,to{fill:var(--ce)}}@keyframes cw{88.27%{fill:var(--c4)}88.29%,to{fill:var(--ce)}}@keyframes cx{30.76%{fill:var(--c1)}30.78%,to{fill:var(--ce)}}@keyframes cy{31.49%{fill:var(--c1)}31.51%,to{fill:var(--ce)}}@keyframes cz{53.1%{fill:var(--c2)}53.12%,to{fill:var(--ce)}}@keyframes c10{79.11%{fill:var(--c3)}79.13%,to{fill:var(--ce)}}@keyframes c11{50.17%{fill:var(--c2)}50.19%,to{fill:var(--ce)}}@keyframes c12{84.97%{fill:var(--c3)}84.99%,to{fill:var(--ce)}}@keyframes c13{85.34%{fill:var(--c4)}85.36%,to{fill:var(--ce)}}@keyframes c14{80.94%{fill:var(--c3)}80.96%,to{fill:var(--ce)}}@keyframes c15{35.89%{fill:var(--c1)}35.91%,to{fill:var(--ce)}}@keyframes c16{47.61%{fill:var(--c2)}47.63%,to{fill:var(--ce)}}@keyframes c17{36.25%{fill:var(--c1)}36.27%,to{fill:var(--ce)}}@keyframes c18{82.77%{fill:var(--c3)}82.79%,to{fill:var(--ce)}}@keyframes c19{38.45%{fill:var(--c1)}38.47%,to{fill:var(--ce)}}@keyframes c1a{42.11%{fill:var(--c1)}42.13%,to{fill:var(--ce)}}@keyframes c1b{41.75%{fill:var(--c1)}41.77%,to{fill:var(--ce)}}@keyframes u0{.72%{transform:scale(0,1)}.74%,1.46%{transform:scale(.03,1)}1.48%,1.82%{transform:scale(.06,1)}1.84%,2.92%{transform:scale(.1,1)}2.94%,4.02%{transform:scale(.13,1)}4.04%,4.39%{transform:scale(.16,1)}4.41%,6.58%{transform:scale(.19,1)}6.6%,6.95%{transform:scale(.23,1)}11.35%,6.97%{transform:scale(.26,1)}11.37%,11.71%{transform:scale(.29,1)}11.73%,12.08%{transform:scale(.32,1)}12.1%,12.44%{transform:scale(.35,1)}12.46%,12.81%{transform:scale(.39,1)}12.83%,13.18%{transform:scale(.42,1)}13.2%,13.54%{transform:scale(.45,1)}13.56%,15.01%{transform:scale(.48,1)}15.03%,17.57%{transform:scale(.52,1)}17.59%,20.5%{transform:scale(.55,1)}20.52%,25.26%{transform:scale(.58,1)}25.28%,25.63%{transform:scale(.61,1)}25.65%,26.36%{transform:scale(.65,1)}26.38%,28.93%{transform:scale(.68,1)}28.95%,29.66%{transform:scale(.71,1)}29.68%,30.03%{transform:scale(.74,1)}30.05%,30.76%{transform:scale(.77,1)}30.78%,31.49%{transform:scale(.81,1)}31.51%,35.89%{transform:scale(.84,1)}35.91%,36.25%{transform:scale(.87,1)}36.27%,38.45%{transform:scale(.9,1)}38.47%,41.75%{transform:scale(.94,1)}41.77%,42.11%{transform:scale(.97,1)}42.13%,to{transform:scale(1,1)}}@keyframes u1{47.61%{transform:scale(0,1)}47.63%,50.17%{transform:scale(.13,1)}50.19%,53.1%{transform:scale(.25,1)}53.12%,54.94%{transform:scale(.38,1)}54.96%,55.67%{transform:scale(.5,1)}55.69%,61.16%{transform:scale(.63,1)}61.18%,63.36%{transform:scale(.75,1)}63.38%,66.29%{transform:scale(.88,1)}66.31%,to{transform:scale(1,1)}}@keyframes u2{69.59%{transform:scale(0,1)}69.61%,71.42%{transform:scale(.14,1)}71.44%,71.78%{transform:scale(.29,1)}71.8%,79.11%{transform:scale(.43,1)}79.13%,80.94%{transform:scale(.57,1)}80.96%,82.77%{transform:scale(.71,1)}82.79%,84.97%{transform:scale(.86,1)}84.99%,to{transform:scale(1,1)}}@keyframes u3{85.34%{transform:scale(0,1)}85.36%,88.27%{transform:scale(.5,1)}88.29%,to{transform:scale(1,1)}}@keyframes s0{0%,99.63%{transform:translate(0,-16px)}.73%{transform:translate(0,16px)}1.1%{transform:translate(16px,16px)}1.83%{transform:translate(16px,48px)}2.56%{transform:translate(48px,48px)}2.93%{transform:translate(48px,64px)}3.3%{transform:translate(64px,64px)}4.03%{transform:translate(64px,96px)}4.4%{transform:translate(80px,96px)}4.76%{transform:translate(80px,80px)}6.23%{transform:translate(16px,80px)}6.59%{transform:translate(16px,96px)}6.96%{transform:translate(0,96px)}7.33%{transform:translate(0,80px)}10.99%{transform:translate(160px,80px)}11.36%{transform:translate(160px,64px)}11.72%{transform:translate(176px,64px)}12.45%{transform:translate(176px,32px)}12.82%{transform:translate(160px,32px)}13.19%{transform:translate(160px,48px)}13.55%{transform:translate(144px,48px)}14.29%{transform:translate(144px,16px)}15.02%{transform:translate(112px,16px)}15.38%{transform:translate(112px,0)}16.12%{transform:translate(144px,0)}16.48%{transform:translate(144px,-16px)}17.22%{transform:translate(176px,-16px)}17.58%{transform:translate(176px,0)}18.32%{transform:translate(208px,0)}20.51%{transform:translate(208px,96px)}23.81%{transform:translate(352px,96px)}26.01%{transform:translate(352px,0)}26.37%{transform:translate(336px,0)}26.74%{transform:translate(336px,16px)}28.94%,87.55%{transform:translate(432px,16px)}29.3%{transform:translate(432px,32px)}29.67%{transform:translate(416px,32px)}30.4%{transform:translate(416px,64px)}30.77%{transform:translate(432px,64px)}31.5%{transform:translate(432px,96px)}32.23%,53.48%{transform:translate(464px,96px)}32.6%,53.85%{transform:translate(464px,80px)}33.7%{transform:translate(512px,80px)}34.8%,49.45%{transform:translate(512px,32px)}35.53%{transform:translate(544px,32px)}35.9%,46.89%{transform:translate(544px,16px)}37.73%{transform:translate(624px,16px)}38.46%{transform:translate(624px,48px)}41.39%{transform:translate(752px,48px)}42.12%{transform:translate(752px,16px)}47.62%{transform:translate(544px,48px)}47.99%{transform:translate(560px,48px)}48.35%{transform:translate(560px,32px)}50.18%{transform:translate(512px,0)}50.92%{transform:translate(480px,0)}53.11%{transform:translate(480px,96px)}55.31%{transform:translate(400px,80px)}55.68%{transform:translate(400px,96px)}56.04%{transform:translate(384px,96px)}57.51%{transform:translate(384px,32px)}61.17%{transform:translate(224px,32px)}61.9%{transform:translate(224px,0)}65.57%{transform:translate(64px,0)}66.3%{transform:translate(64px,32px)}69.23%{transform:translate(192px,32px)}69.6%{transform:translate(192px,16px)}69.96%{transform:translate(176px,16px)}71.79%{transform:translate(176px,96px)}79.85%{transform:translate(528px,96px)}80.95%{transform:translate(528px,48px)}82.42%{transform:translate(592px,48px)}83.52%{transform:translate(592px,0)}84.98%{transform:translate(528px,0)}85.35%{transform:translate(528px,16px)}88.28%{transform:translate(432px,48px)}96.34%{transform:translate(80px,48px)}97.07%{transform:translate(80px,16px)}97.8%{transform:translate(48px,16px)}98.53%{transform:translate(48px,-16px)}}@keyframes s1{0%,99.63%{transform:translate(16px,-16px)}.37%{transform:translate(0,-16px)}1.1%{transform:translate(0,16px)}1.47%{transform:translate(16px,16px)}2.2%{transform:translate(16px,48px)}2.93%{transform:translate(48px,48px)}3.3%{transform:translate(48px,64px)}3.66%{transform:translate(64px,64px)}4.4%{transform:translate(64px,96px)}4.76%{transform:translate(80px,96px)}5.13%{transform:translate(80px,80px)}6.59%{transform:translate(16px,80px)}6.96%{transform:translate(16px,96px)}7.33%{transform:translate(0,96px)}7.69%{transform:translate(0,80px)}11.36%{transform:translate(160px,80px)}11.72%{transform:translate(160px,64px)}12.09%{transform:translate(176px,64px)}12.82%{transform:translate(176px,32px)}13.19%{transform:translate(160px,32px)}13.55%{transform:translate(160px,48px)}13.92%{transform:translate(144px,48px)}14.65%{transform:translate(144px,16px)}15.38%{transform:translate(112px,16px)}15.75%{transform:translate(112px,0)}16.48%{transform:translate(144px,0)}16.85%{transform:translate(144px,-16px)}17.58%{transform:translate(176px,-16px)}17.95%{transform:translate(176px,0)}18.68%{transform:translate(208px,0)}20.88%{transform:translate(208px,96px)}24.18%{transform:translate(352px,96px)}26.37%{transform:translate(352px,0)}26.74%{transform:translate(336px,0)}27.11%{transform:translate(336px,16px)}29.3%,87.91%{transform:translate(432px,16px)}29.67%{transform:translate(432px,32px)}30.04%{transform:translate(416px,32px)}30.77%{transform:translate(416px,64px)}31.14%{transform:translate(432px,64px)}31.87%{transform:translate(432px,96px)}32.6%,53.85%{transform:translate(464px,96px)}32.97%,54.21%{transform:translate(464px,80px)}34.07%{transform:translate(512px,80px)}35.16%,49.82%{transform:translate(512px,32px)}35.9%{transform:translate(544px,32px)}36.26%,47.25%{transform:translate(544px,16px)}38.1%{transform:translate(624px,16px)}38.83%{transform:translate(624px,48px)}41.76%{transform:translate(752px,48px)}42.49%{transform:translate(752px,16px)}47.99%{transform:translate(544px,48px)}48.35%{transform:translate(560px,48px)}48.72%{transform:translate(560px,32px)}50.55%{transform:translate(512px,0)}51.28%{transform:translate(480px,0)}53.48%{transform:translate(480px,96px)}55.68%{transform:translate(400px,80px)}56.04%{transform:translate(400px,96px)}56.41%{transform:translate(384px,96px)}57.88%{transform:translate(384px,32px)}61.54%{transform:translate(224px,32px)}62.27%{transform:translate(224px,0)}65.93%{transform:translate(64px,0)}66.67%{transform:translate(64px,32px)}69.6%{transform:translate(192px,32px)}69.96%{transform:translate(192px,16px)}70.33%{transform:translate(176px,16px)}72.16%{transform:translate(176px,96px)}80.22%{transform:translate(528px,96px)}81.32%{transform:translate(528px,48px)}82.78%{transform:translate(592px,48px)}83.88%{transform:translate(592px,0)}85.35%{transform:translate(528px,0)}85.71%{transform:translate(528px,16px)}88.64%{transform:translate(432px,48px)}96.7%{transform:translate(80px,48px)}97.44%{transform:translate(80px,16px)}98.17%{transform:translate(48px,16px)}98.9%{transform:translate(48px,-16px)}}@keyframes s2{0%,99.63%{transform:translate(32px,-16px)}.73%{transform:translate(0,-16px)}1.47%{transform:translate(0,16px)}1.83%{transform:translate(16px,16px)}2.56%{transform:translate(16px,48px)}3.3%{transform:translate(48px,48px)}3.66%{transform:translate(48px,64px)}4.03%{transform:translate(64px,64px)}4.76%{transform:translate(64px,96px)}5.13%{transform:translate(80px,96px)}5.49%{transform:translate(80px,80px)}6.96%{transform:translate(16px,80px)}7.33%{transform:translate(16px,96px)}7.69%{transform:translate(0,96px)}8.06%{transform:translate(0,80px)}11.72%{transform:translate(160px,80px)}12.09%{transform:translate(160px,64px)}12.45%{transform:translate(176px,64px)}13.19%{transform:translate(176px,32px)}13.55%{transform:translate(160px,32px)}13.92%{transform:translate(160px,48px)}14.29%{transform:translate(144px,48px)}15.02%{transform:translate(144px,16px)}15.75%{transform:translate(112px,16px)}16.12%{transform:translate(112px,0)}16.85%{transform:translate(144px,0)}17.22%{transform:translate(144px,-16px)}17.95%{transform:translate(176px,-16px)}18.32%{transform:translate(176px,0)}19.05%{transform:translate(208px,0)}21.25%{transform:translate(208px,96px)}24.54%{transform:translate(352px,96px)}26.74%{transform:translate(352px,0)}27.11%{transform:translate(336px,0)}27.47%{transform:translate(336px,16px)}29.67%,88.28%{transform:translate(432px,16px)}30.04%{transform:translate(432px,32px)}30.4%{transform:translate(416px,32px)}31.14%{transform:translate(416px,64px)}31.5%{transform:translate(432px,64px)}32.23%{transform:translate(432px,96px)}32.97%,54.21%{transform:translate(464px,96px)}33.33%,54.58%{transform:translate(464px,80px)}34.43%{transform:translate(512px,80px)}35.53%,50.18%{transform:translate(512px,32px)}36.26%{transform:translate(544px,32px)}36.63%,47.62%{transform:translate(544px,16px)}38.46%{transform:translate(624px,16px)}39.19%{transform:translate(624px,48px)}42.12%{transform:translate(752px,48px)}42.86%{transform:translate(752px,16px)}48.35%{transform:translate(544px,48px)}48.72%{transform:translate(560px,48px)}49.08%{transform:translate(560px,32px)}50.92%{transform:translate(512px,0)}51.65%{transform:translate(480px,0)}53.85%{transform:translate(480px,96px)}56.04%{transform:translate(400px,80px)}56.41%{transform:translate(400px,96px)}56.78%{transform:translate(384px,96px)}58.24%{transform:translate(384px,32px)}61.9%{transform:translate(224px,32px)}62.64%{transform:translate(224px,0)}66.3%{transform:translate(64px,0)}67.03%{transform:translate(64px,32px)}69.96%{transform:translate(192px,32px)}70.33%{transform:translate(192px,16px)}70.7%{transform:translate(176px,16px)}72.53%{transform:translate(176px,96px)}80.59%{transform:translate(528px,96px)}81.68%{transform:translate(528px,48px)}83.15%{transform:translate(592px,48px)}84.25%{transform:translate(592px,0)}85.71%{transform:translate(528px,0)}86.08%{transform:translate(528px,16px)}89.01%{transform:translate(432px,48px)}97.07%{transform:translate(80px,48px)}97.8%{transform:translate(80px,16px)}98.53%{transform:translate(48px,16px)}99.27%{transform:translate(48px,-16px)}}@keyframes s3{0%,99.63%{transform:translate(48px,-16px)}1.1%{transform:translate(0,-16px)}1.83%{transform:translate(0,16px)}2.2%{transform:translate(16px,16px)}2.93%{transform:translate(16px,48px)}3.66%{transform:translate(48px,48px)}4.03%{transform:translate(48px,64px)}4.4%{transform:translate(64px,64px)}5.13%{transform:translate(64px,96px)}5.49%{transform:translate(80px,96px)}5.86%{transform:translate(80px,80px)}7.33%{transform:translate(16px,80px)}7.69%{transform:translate(16px,96px)}8.06%{transform:translate(0,96px)}8.42%{transform:translate(0,80px)}12.09%{transform:translate(160px,80px)}12.45%{transform:translate(160px,64px)}12.82%{transform:translate(176px,64px)}13.55%{transform:translate(176px,32px)}13.92%{transform:translate(160px,32px)}14.29%{transform:translate(160px,48px)}14.65%{transform:translate(144px,48px)}15.38%{transform:translate(144px,16px)}16.12%{transform:translate(112px,16px)}16.48%{transform:translate(112px,0)}17.22%{transform:translate(144px,0)}17.58%{transform:translate(144px,-16px)}18.32%{transform:translate(176px,-16px)}18.68%{transform:translate(176px,0)}19.41%{transform:translate(208px,0)}21.61%{transform:translate(208px,96px)}24.91%{transform:translate(352px,96px)}27.11%{transform:translate(352px,0)}27.47%{transform:translate(336px,0)}27.84%{transform:translate(336px,16px)}30.04%,88.64%{transform:translate(432px,16px)}30.4%{transform:translate(432px,32px)}30.77%{transform:translate(416px,32px)}31.5%{transform:translate(416px,64px)}31.87%{transform:translate(432px,64px)}32.6%{transform:translate(432px,96px)}33.33%,54.58%{transform:translate(464px,96px)}33.7%,54.95%{transform:translate(464px,80px)}34.8%{transform:translate(512px,80px)}35.9%,50.55%{transform:translate(512px,32px)}36.63%{transform:translate(544px,32px)}37%,47.99%{transform:translate(544px,16px)}38.83%{transform:translate(624px,16px)}39.56%{transform:translate(624px,48px)}42.49%{transform:translate(752px,48px)}43.22%{transform:translate(752px,16px)}48.72%{transform:translate(544px,48px)}49.08%{transform:translate(560px,48px)}49.45%{transform:translate(560px,32px)}51.28%{transform:translate(512px,0)}52.01%{transform:translate(480px,0)}54.21%{transform:translate(480px,96px)}56.41%{transform:translate(400px,80px)}56.78%{transform:translate(400px,96px)}57.14%{transform:translate(384px,96px)}58.61%{transform:translate(384px,32px)}62.27%{transform:translate(224px,32px)}63%{transform:translate(224px,0)}66.67%{transform:translate(64px,0)}67.4%{transform:translate(64px,32px)}70.33%{transform:translate(192px,32px)}70.7%{transform:translate(192px,16px)}71.06%{transform:translate(176px,16px)}72.89%{transform:translate(176px,96px)}80.95%{transform:translate(528px,96px)}82.05%{transform:translate(528px,48px)}83.52%{transform:translate(592px,48px)}84.62%{transform:translate(592px,0)}86.08%{transform:translate(528px,0)}86.45%{transform:translate(528px,16px)}89.38%{transform:translate(432px,48px)}97.44%{transform:translate(80px,48px)}98.17%{transform:translate(80px,16px)}98.9%{transform:translate(48px,16px)}}:root{--cb:#1b1f230a;--cs:purple;--ce:#ebedf0;--c0:#ebedf0;--c1:#9be9a8;--c2:#40c463;--c3:#30a14e;--c4:#216e39}@media (prefers-color-scheme:dark){:root{--cb:#1b1f230a;--cs:purple;--ce:#161b22;--c1:#01311f;--c2:#034525;--c3:#0f6d31;--c4:#00c647}}.c{shape-rendering:geometricPrecision;fill:var(--ce);stroke-width:1px;stroke:var(--cb);animation:none 27300ms linear infinite}.c.c0,.c.c1,.c.c2{fill:var(--c1);animation-name:c0}.c.c1,.c.c2{animation-name:c1}.c.c2{animation-name:c2}.c.c3,.c.c4,.c.c5{fill:var(--c1);animation-name:c3}.c.c4,.c.c5{animation-name:c4}.c.c5{animation-name:c5}.c.c6{fill:var(--c2);animation-name:c6}.c.c7{fill:var(--c1);animation-name:c7}.c.c8,.c.c9,.c.ca{fill:var(--c1);animation-name:c8}.c.c9,.c.ca{animation-name:c9}.c.ca{animation-name:ca}.c.cb{fill:var(--c2);animation-name:cb}.c.cc{fill:var(--c1);animation-name:cc}.c.cd,.c.ce,.c.cf{fill:var(--c1);animation-name:cd}.c.ce,.c.cf{animation-name:ce}.c.cf{animation-name:cf}.c.cg,.c.ch,.c.ci{fill:var(--c1);animation-name:cg}.c.ch,.c.ci{animation-name:ch}.c.ci{animation-name:ci}.c.cj,.c.ck,.c.cl{fill:var(--c3);animation-name:cj}.c.ck,.c.cl{animation-name:ck}.c.cl{animation-name:cl}.c.cm{fill:var(--c1);animation-name:cm}.c.cn{fill:var(--c2);animation-name:cn}.c.co,.c.cp,.c.cq{fill:var(--c1);animation-name:co}.c.cp,.c.cq{animation-name:cp}.c.cq{animation-name:cq}.c.cr{fill:var(--c2);animation-name:cr}.c.cs,.c.ct{fill:var(--c1);animation-name:cs}.c.ct{animation-name:ct}.c.cu{fill:var(--c2);animation-name:cu}.c.cv{fill:var(--c1);animation-name:cv}.c.cw{fill:var(--c4);animation-name:cw}.c.cx,.c.cy{fill:var(--c1);animation-name:cx}.c.cy{animation-name:cy}.c.cz{fill:var(--c2);animation-name:cz}.c.c10{fill:var(--c3);animation-name:c10}.c.c11{fill:var(--c2);animation-name:c11}.c.c12{fill:var(--c3);animation-name:c12}.c.c13{fill:var(--c4);animation-name:c13}.c.c14{fill:var(--c3);animation-name:c14}.c.c15{fill:var(--c1);animation-name:c15}.c.c16{fill:var(--c2);animation-name:c16}.c.c17{fill:var(--c1);animation-name:c17}.c.c18{fill:var(--c3);animation-name:c18}.c.c19,.c.c1a,.c.c1b{fill:var(--c1);animation-name:c19}.c.c1a,.c.c1b{animation-name:c1a}.c.c1b{animation-name:c1b}.s,.u{animation:none linear 27300ms infinite}.u,.u.u0{transform-origin:0 0}.u{transform:scale(0,1)}.u.u0{fill:var(--c1);animation-name:u0}.u.u1{fill:var(--c2);animation-name:u1;transform-origin:547.7px 0}.u.u2{fill:var(--c3);animation-name:u2;transform-origin:689px 0}.u.u3{fill:var(--c4);animation-name:u3;transform-origin:812.7px 0}.s{shape-rendering:geometricPrecision;fill:var(--cs)}.s.s0{transform:translate(0,-16px);animation-name:s0}.s.s1{transform:translate(16px,-16px);animation-name:s1}.s.s2{transform:translate(32px,-16px);animation-name:s2}.s.s3{transform:translate(48px,-16px);animation-name:s3}</style><rect class="c" x="2" y="2" rx="2" ry="2" width="12" height="12"/><rect class="c c0" x="2" y="18" rx="2" ry="2" width="12" height="12"/><rect class="c" x="2" y="34" rx="2" ry="2" width="12" height="12"/><rect class="c" x="2" y="50" rx="2" ry="2" width="12" height="12"/><rect class="c" x="2" y="66" rx="2" ry="2" width="12" height="12"/><rect class="c" x="2" y="82" rx="2" ry="2" width="12" height="12"/><rect class="c c1" x="2" y="98" rx="2" ry="2" width="12" height="12"/><rect class="c" x="18" y="2" rx="2" ry="2" width="12" height="12"/><rect class="c" x="18" y="18" rx="2" ry="2" width="12" height="12"/><rect class="c c2" x="18" y="34" rx="2" ry="2" width="12" height="12"/><rect class="c c3" x="18" y="50" rx="2" ry="2" width="12" height="12"/><rect class="c" x="18" y="66" rx="2" ry="2" width="12" height="12"/><rect class="c" x="18" y="82" rx="2" ry="2" width="12" height="12"/><rect class="c c4" x="18" y="98" rx="2" ry="2" width="12" height="12"/><rect class="c" x="34" y="2" rx="2" ry="2" width="12" height="12"/><rect class="c" x="34" y="18" rx="2" ry="2" width="12" height="12"/><rect class="c" x="34" y="34" rx="2" ry="2" width="12" height="12"/><rect class="c" x="34" y="50" rx="2" ry="2" width="12" height="12"/><rect class="c" x="34" y="66" rx="2" ry="2" width="12" height="12"/><rect class="c" x="34" y="82" rx="2" ry="2" width="12" height="12"/><rect class="c" x="34" y="98" rx="2" ry="2" width="12" height="12"/><rect class="c" x="50" y="2" rx="2" ry="2" width="12" height="12"/><rect class="c" x="50" y="18" rx="2" ry="2" width="12" height="12"/><rect class="c" x="50" y="34" rx="2" ry="2" width="12" height="12"/><rect class="c" x="50" y="50" rx="2" ry="2" width="12" height="12"/><rect class="c c5" x="50" y="66" rx="2" ry="2" width="12" height="12"/><rect class="c" x="50" y="82" rx="2" ry="2" width="12" height="12"/><rect class="c" x="50" y="98" rx="2" ry="2" width="12" height="12"/><rect class="c" x="66" y="2" rx="2" ry="2" width="12" height="12"/><rect class="c" x="66" y="18" rx="2" ry="2" width="12" height="12"/><rect class="c c6" x="66" y="34" rx="2" ry="2" width="12" height="12"/><rect class="c" x="66" y="50" rx="2" ry="2" width="12" height="12"/><rect class="c" x="66" y="66" rx="2" ry="2" width="12" height="12"/><rect class="c" x="66" y="82" rx="2" ry="2" width="12" height="12"/><rect class="c c7" x="66" y="98" rx="2" ry="2" width="12" height="12"/><rect class="c" x="82" y="2" rx="2" ry="2" width="12" height="12"/><rect class="c" x="82" y="18" rx="2" ry="2" width="12" height="12"/><rect class="c" x="82" y="34" rx="2" ry="2" width="12" height="12"/><rect class="c" x="82" y="50" rx="2" ry="2" width="12" height="12"/><rect class="c" x="82" y="66" rx="2" ry="2" width="12" height="12"/><rect class="c" x="82" y="82" rx="2" ry="2" width="12" height="12"/><rect class="c c8" x="82" y="98" rx="2" ry="2" width="12" height="12"/><rect class="c" x="98" y="2" rx="2" ry="2" width="12" height="12"/><rect class="c" x="98" y="18" rx="2" ry="2" width="12" height="12"/><rect class="c" x="98" y="34" rx="2" ry="2" width="12" height="12"/><rect class="c" x="98" y="50" rx="2" ry="2" width="12" height="12"/><rect class="c" x="98" y="66" rx="2" ry="2" width="12" height="12"/><rect class="c" x="98" y="82" rx="2" ry="2" width="12" height="12"/><rect class="c" x="98" y="98" rx="2" ry="2" width="12" height="12"/><rect class="c" x="114" y="2" rx="2" ry="2" width="12" height="12"/><rect class="c c9" x="114" y="18" rx="2" ry="2" width="12" height="12"/><rect class="c" x="114" y="34" rx="2" ry="2" width="12" height="12"/><rect class="c" x="114" y="50" rx="2" ry="2" width="12" height="12"/><rect class="c" x="114" y="66" rx="2" ry="2" width="12" height="12"/><rect class="c" x="114" y="82" rx="2" ry="2" width="12" height="12"/><rect class="c" x="114" y="98" rx="2" ry="2" width="12" height="12"/><rect class="c" x="130" y="2" rx="2" ry="2" width="12" height="12"/><rect class="c" x="130" y="18" rx="2" ry="2" width="12" height="12"/><rect class="c" x="130" y="34" rx="2" ry="2" width="12" height="12"/><rect class="c" x="130" y="50" rx="2" ry="2" width="12" height="12"/><rect class="c" x="130" y="66" rx="2" ry="2" width="12" height="12"/><rect class="c" x="130" y="82" rx="2" ry="2" width="12" height="12"/><rect class="c" x="130" y="98" rx="2" ry="2" width="12" height="12"/><rect class="c" x="146" y="2" rx="2" ry="2" width="12" height="12"/><rect class="c" x="146" y="18" rx="2" ry="2" width="12" height="12"/><rect class="c" x="146" y="34" rx="2" ry="2" width="12" height="12"/><rect class="c ca" x="146" y="50" rx="2" ry="2" width="12" height="12"/><rect class="c" x="146" y="66" rx="2" ry="2" width="12" height="12"/><rect class="c" x="146" y="82" rx="2" ry="2" width="12" height="12"/><rect class="c" x="146" y="98" rx="2" ry="2" width="12" height="12"/><rect class="c cb" x="162" y="2" rx="2" ry="2" width="12" height="12"/><rect class="c" x="162" y="18" rx="2" ry="2" width="12" height="12"/><rect class="c cc" x="162" y="34" rx="2" ry="2" width="12" height="12"/><rect class="c cd" x="162" y="50" rx="2" ry="2" width="12" height="12"/><rect class="c ce" x="162" y="66" rx="2" ry="2" width="12" height="12"/><rect class="c" x="162" y="82" rx="2" ry="2" width="12" height="12"/><rect class="c" x="162" y="98" rx="2" ry="2" width="12" height="12"/><rect class="c cf" x="178" y="2" rx="2" ry="2" width="12" height="12"/><rect class="c" x="178" y="18" rx="2" ry="2" width="12" height="12"/><rect class="c cg" x="178" y="34" rx="2" ry="2" width="12" height="12"/><rect class="c ch" x="178" y="50" rx="2" ry="2" width="12" height="12"/><rect class="c ci" x="178" y="66" rx="2" ry="2" width="12" height="12"/><rect class="c cj" x="178" y="82" rx="2" ry="2" width="12" height="12"/><rect class="c ck" x="178" y="98" rx="2" ry="2" width="12" height="12"/><rect class="c" x="194" y="2" rx="2" ry="2" width="12" height="12"/><rect class="c cl" x="194" y="18" rx="2" ry="2" width="12" height="12"/><rect class="c" x="194" y="34" rx="2" ry="2" width="12" height="12"/><rect class="c" x="194" y="50" rx="2" ry="2" width="12" height="12"/><rect class="c" x="194" y="66" rx="2" ry="2" width="12" height="12"/><rect class="c" x="194" y="82" rx="2" ry="2" width="12" height="12"/><rect class="c" x="194" y="98" rx="2" ry="2" width="12" height="12"/><rect class="c" x="210" y="2" rx="2" ry="2" width="12" height="12"/><rect class="c" x="210" y="18" rx="2" ry="2" width="12" height="12"/><rect class="c" x="210" y="34" rx="2" ry="2" width="12" height="12"/><rect class="c" x="210" y="50" rx="2" ry="2" width="12" height="12"/><rect class="c" x="210" y="66" rx="2" ry="2" width="12" height="12"/><rect class="c" x="210" y="82" rx="2" ry="2" width="12" height="12"/><rect class="c cm" x="210" y="98" rx="2" ry="2" width="12" height="12"/><rect class="c" x="226" y="2" rx="2" ry="2" width="12" height="12"/><rect class="c" x="226" y="18" rx="2" ry="2" width="12" height="12"/><rect class="c cn" x="226" y="34" rx="2" ry="2" width="12" height="12"/><rect class="c" x="226" y="50" rx="2" ry="2" width="12" height="12"/><rect class="c" x="226" y="66" rx="2" ry="2" width="12" height="12"/><rect class="c" x="226" y="82" rx="2" ry="2" width="12" height="12"/><rect class="c" x="226" y="98" rx="2" ry="2" width="12" height="12"/><rect class="c" x="242" y="2" rx="2" ry="2" width="12" height="12"/><rect class="c" x="242" y="18" rx="2" ry="2" width="12" height="12"/><rect class="c" x="242" y="34" rx="2" ry="2" width="12" height="12"/><rect class="c" x="242" y="50" rx="2" ry="2" width="12" height="12"/><rect class="c" x="242" y="66" rx="2" ry="2" width="12" height="12"/><rect class="c" x="242" y="82" rx="2" ry="2" width="12" height="12"/><rect class="c" x="242" y="98" rx="2" ry="2" width="12" height="12"/><rect class="c" x="258" y="2" rx="2" ry="2" width="12" height="12"/><rect class="c" x="258" y="18" rx="2" ry="2" width="12" height="12"/><rect class="c" x="258" y="34" rx="2" ry="2" width="12" height="12"/><rect class="c" x="258" y="50" rx="2" ry="2" width="12" height="12"/><rect class="c" x="258" y="66" rx="2" ry="2" width="12" height="12"/><rect class="c" x="258" y="82" rx="2" ry="2" width="12" height="12"/><rect class="c" x="258" y="98" rx="2" ry="2" width="12" height="12"/><rect class="c" x="274" y="2" rx="2" ry="2" width="12" height="12"/><rect class="c" x="274" y="18" rx="2" ry="2" width="12" height="12"/><rect class="c" x="274" y="34" rx="2" ry="2" width="12" height="12"/><rect class="c" x="274" y="50" rx="2" ry="2" width="12" height="12"/><rect class="c" x="274" y="66" rx="2" ry="2" width="12" height="12"/><rect class="c" x="274" y="82" rx="2" ry="2" width="12" height="12"/><rect class="c" x="274" y="98" rx="2" ry="2" width="12" height="12"/><rect class="c" x="290" y="2" rx="2" ry="2" width="12" height="12"/><rect class="c" x="290" y="18" rx="2" ry="2" width="12" height="12"/><rect class="c" x="290" y="34" rx="2" ry="2" width="12" height="12"/><rect class="c" x="290" y="50" rx="2" ry="2" width="12" height="12"/><rect class="c" x="290" y="66" rx="2" ry="2" width="12" height="12"/><rect class="c" x="290" y="82" rx="2" ry="2" width="12" height="12"/><rect class="c" x="290" y="98" rx="2" ry="2" width="12" height="12"/><rect class="c" x="306" y="2" rx="2" ry="2" width="12" height="12"/><rect class="c" x="306" y="18" rx="2" ry="2" width="12" height="12"/><rect class="c" x="306" y="34" rx="2" ry="2" width="12" height="12"/><rect class="c" x="306" y="50" rx="2" ry="2" width="12" height="12"/><rect class="c" x="306" y="66" rx="2" ry="2" width="12" height="12"/><rect class="c" x="306" y="82" rx="2" ry="2" width="12" height="12"/><rect class="c" x="306" y="98" rx="2" ry="2" width="12" height="12"/><rect class="c" x="322" y="2" rx="2" ry="2" width="12" height="12"/><rect class="c" x="322" y="18" rx="2" ry="2" width="12" height="12"/><rect class="c" x="322" y="34" rx="2" ry="2" width="12" height="12"/><rect class="c" x="322" y="50" rx="2" ry="2" width="12" height="12"/><rect class="c" x="322" y="66" rx="2" ry="2" width="12" height="12"/><rect class="c" x="322" y="82" rx="2" ry="2" width="12" height="12"/><rect class="c" x="322" y="98" rx="2" ry="2" width="12" height="12"/><rect class="c co" x="338" y="2" rx="2" ry="2" width="12" height="12"/><rect class="c" x="338" y="18" rx="2" ry="2" width="12" height="12"/><rect class="c" x="338" y="34" rx="2" ry="2" width="12" height="12"/><rect class="c" x="338" y="50" rx="2" ry="2" width="12" height="12"/><rect class="c" x="338" y="66" rx="2" ry="2" width="12" height="12"/><rect class="c" x="338" y="82" rx="2" ry="2" width="12" height="12"/><rect class="c" x="338" y="98" rx="2" ry="2" width="12" height="12"/><rect class="c" x="354" y="2" rx="2" ry="2" width="12" height="12"/><rect class="c cp" x="354" y="18" rx="2" ry="2" width="12" height="12"/><rect class="c cq" x="354" y="34" rx="2" ry="2" width="12" height="12"/><rect class="c" x="354" y="50" rx="2" ry="2" width="12" height="12"/><rect class="c" x="354" y="66" rx="2" ry="2" width="12" height="12"/><rect class="c" x="354" y="82" rx="2" ry="2" width="12" height="12"/><rect class="c" x="354" y="98" rx="2" ry="2" width="12" height="12"/><rect class="c" x="370" y="2" rx="2" ry="2" width="12" height="12"/><rect class="c" x="370" y="18" rx="2" ry="2" width="12" height="12"/><rect class="c" x="370" y="34" rx="2" ry="2" width="12" height="12"/><rect class="c" x="370" y="50" rx="2" ry="2" width="12" height="12"/><rect class="c" x="370" y="66" rx="2" ry="2" width="12" height="12"/><rect class="c" x="370" y="82" rx="2" ry="2" width="12" height="12"/><rect class="c" x="370" y="98" rx="2" ry="2" width="12" height="12"/><rect class="c" x="386" y="2" rx="2" ry="2" width="12" height="12"/><rect class="c" x="386" y="18" rx="2" ry="2" width="12" height="12"/><rect class="c" x="386" y="34" rx="2" ry="2" width="12" height="12"/><rect class="c" x="386" y="50" rx="2" ry="2" width="12" height="12"/><rect class="c" x="386" y="66" rx="2" ry="2" width="12" height="12"/><rect class="c" x="386" y="82" rx="2" ry="2" width="12" height="12"/><rect class="c" x="386" y="98" rx="2" ry="2" width="12" height="12"/><rect class="c" x="402" y="2" rx="2" ry="2" width="12" height="12"/><rect class="c" x="402" y="18" rx="2" ry="2" width="12" height="12"/><rect class="c" x="402" y="34" rx="2" ry="2" width="12" height="12"/><rect class="c" x="402" y="50" rx="2" ry="2" width="12" height="12"/><rect class="c" x="402" y="66" rx="2" ry="2" width="12" height="12"/><rect class="c" x="402" y="82" rx="2" ry="2" width="12" height="12"/><rect class="c cr" x="402" y="98" rx="2" ry="2" width="12" height="12"/><rect class="c" x="418" y="2" rx="2" ry="2" width="12" height="12"/><rect class="c" x="418" y="18" rx="2" ry="2" width="12" height="12"/><rect class="c cs" x="418" y="34" rx="2" ry="2" width="12" height="12"/><rect class="c ct" x="418" y="50" rx="2" ry="2" width="12" height="12"/><rect class="c" x="418" y="66" rx="2" ry="2" width="12" height="12"/><rect class="c cu" x="418" y="82" rx="2" ry="2" width="12" height="12"/><rect class="c" x="418" y="98" rx="2" ry="2" width="12" height="12"/><rect class="c" x="434" y="2" rx="2" ry="2" width="12" height="12"/><rect class="c cv" x="434" y="18" rx="2" ry="2" width="12" height="12"/><rect class="c" x="434" y="34" rx="2" ry="2" width="12" height="12"/><rect class="c cw" x="434" y="50" rx="2" ry="2" width="12" height="12"/><rect class="c cx" x="434" y="66" rx="2" ry="2" width="12" height="12"/><rect class="c" x="434" y="82" rx="2" ry="2" width="12" height="12"/><rect class="c cy" x="434" y="98" rx="2" ry="2" width="12" height="12"/><rect class="c" x="450" y="2" rx="2" ry="2" width="12" height="12"/><rect class="c" x="450" y="18" rx="2" ry="2" width="12" height="12"/><rect class="c" x="450" y="34" rx="2" ry="2" width="12" height="12"/><rect class="c" x="450" y="50" rx="2" ry="2" width="12" height="12"/><rect class="c" x="450" y="66" rx="2" ry="2" width="12" height="12"/><rect class="c" x="450" y="82" rx="2" ry="2" width="12" height="12"/><rect class="c" x="450" y="98" rx="2" ry="2" width="12" height="12"/><rect class="c" x="466" y="2" rx="2" ry="2" width="12" height="12"/><rect class="c" x="466" y="18" rx="2" ry="2" width="12" height="12"/><rect class="c" x="466" y="34" rx="2" ry="2" width="12" height="12"/><rect class="c" x="466" y="50" rx="2" ry="2" width="12" height="12"/><rect class="c" x="466" y="66" rx="2" ry="2" width="12" height="12"/><rect class="c" x="466" y="82" rx="2" ry="2" width="12" height="12"/><rect class="c" x="466" y="98" rx="2" ry="2" width="12" height="12"/><rect class="c" x="482" y="2" rx="2" ry="2" width="12" height="12"/><rect class="c" x="482" y="18" rx="2" ry="2" width="12" height="12"/><rect class="c" x="482" y="34" rx="2" ry="2" width="12" height="12"/><rect class="c" x="482" y="50" rx="2" ry="2" width="12" height="12"/><rect class="c" x="482" y="66" rx="2" ry="2" width="12" height="12"/><rect class="c" x="482" y="82" rx="2" ry="2" width="12" height="12"/><rect class="c cz" x="482" y="98" rx="2" ry="2" width="12" height="12"/><rect class="c" x="498" y="2" rx="2" ry="2" width="12" height="12"/><rect class="c" x="498" y="18" rx="2" ry="2" width="12" height="12"/><rect class="c" x="498" y="34" rx="2" ry="2" width="12" height="12"/><rect class="c" x="498" y="50" rx="2" ry="2" width="12" height="12"/><rect class="c" x="498" y="66" rx="2" ry="2" width="12" height="12"/><rect class="c" x="498" y="82" rx="2" ry="2" width="12" height="12"/><rect class="c c10" x="498" y="98" rx="2" ry="2" width="12" height="12"/><rect class="c c11" x="514" y="2" rx="2" ry="2" width="12" height="12"/><rect class="c" x="514" y="18" rx="2" ry="2" width="12" height="12"/><rect class="c" x="514" y="34" rx="2" ry="2" width="12" height="12"/><rect class="c" x="514" y="50" rx="2" ry="2" width="12" height="12"/><rect class="c" x="514" y="66" rx="2" ry="2" width="12" height="12"/><rect class="c" x="514" y="82" rx="2" ry="2" width="12" height="12"/><rect class="c" x="514" y="98" rx="2" ry="2" width="12" height="12"/><rect class="c c12" x="530" y="2" rx="2" ry="2" width="12" height="12"/><rect class="c c13" x="530" y="18" rx="2" ry="2" width="12" height="12"/><rect class="c" x="530" y="34" rx="2" ry="2" width="12" height="12"/><rect class="c c14" x="530" y="50" rx="2" ry="2" width="12" height="12"/><rect class="c" x="530" y="66" rx="2" ry="2" width="12" height="12"/><rect class="c" x="530" y="82" rx="2" ry="2" width="12" height="12"/><rect class="c" x="530" y="98" rx="2" ry="2" width="12" height="12"/><rect class="c" x="546" y="2" rx="2" ry="2" width="12" height="12"/><rect class="c c15" x="546" y="18" rx="2" ry="2" width="12" height="12"/><rect class="c" x="546" y="34" rx="2" ry="2" width="12" height="12"/><rect class="c c16" x="546" y="50" rx="2" ry="2" width="12" height="12"/><rect class="c" x="546" y="66" rx="2" ry="2" width="12" height="12"/><rect class="c" x="546" y="82" rx="2" ry="2" width="12" height="12"/><rect class="c" x="546" y="98" rx="2" ry="2" width="12" height="12"/><rect class="c" x="562" y="2" rx="2" ry="2" width="12" height="12"/><rect class="c c17" x="562" y="18" rx="2" ry="2" width="12" height="12"/><rect class="c" x="562" y="34" rx="2" ry="2" width="12" height="12"/><rect class="c" x="562" y="50" rx="2" ry="2" width="12" height="12"/><rect class="c" x="562" y="66" rx="2" ry="2" width="12" height="12"/><rect class="c" x="562" y="82" rx="2" ry="2" width="12" height="12"/><rect class="c" x="562" y="98" rx="2" ry="2" width="12" height="12"/><rect class="c" x="578" y="2" rx="2" ry="2" width="12" height="12"/><rect class="c" x="578" y="18" rx="2" ry="2" width="12" height="12"/><rect class="c" x="578" y="34" rx="2" ry="2" width="12" height="12"/><rect class="c" x="578" y="50" rx="2" ry="2" width="12" height="12"/><rect class="c" x="578" y="66" rx="2" ry="2" width="12" height="12"/><rect class="c" x="578" y="82" rx="2" ry="2" width="12" height="12"/><rect class="c" x="578" y="98" rx="2" ry="2" width="12" height="12"/><rect class="c" x="594" y="2" rx="2" ry="2" width="12" height="12"/><rect class="c" x="594" y="18" rx="2" ry="2" width="12" height="12"/><rect class="c c18" x="594" y="34" rx="2" ry="2" width="12" height="12"/><rect class="c" x="594" y="50" rx="2" ry="2" width="12" height="12"/><rect class="c" x="594" y="66" rx="2" ry="2" width="12" height="12"/><rect class="c" x="594" y="82" rx="2" ry="2" width="12" height="12"/><rect class="c" x="594" y="98" rx="2" ry="2" width="12" height="12"/><rect class="c" x="610" y="2" rx="2" ry="2" width="12" height="12"/><rect class="c" x="610" y="18" rx="2" ry="2" width="12" height="12"/><rect class="c" x="610" y="34" rx="2" ry="2" width="12" height="12"/><rect class="c" x="610" y="50" rx="2" ry="2" width="12" height="12"/><rect class="c" x="610" y="66" rx="2" ry="2" width="12" height="12"/><rect class="c" x="610" y="82" rx="2" ry="2" width="12" height="12"/><rect class="c" x="610" y="98" rx="2" ry="2" width="12" height="12"/><rect class="c" x="626" y="2" rx="2" ry="2" width="12" height="12"/><rect class="c" x="626" y="18" rx="2" ry="2" width="12" height="12"/><rect class="c" x="626" y="34" rx="2" ry="2" width="12" height="12"/><rect class="c c19" x="626" y="50" rx="2" ry="2" width="12" height="12"/><rect class="c" x="626" y="66" rx="2" ry="2" width="12" height="12"/><rect class="c" x="626" y="82" rx="2" ry="2" width="12" height="12"/><rect class="c" x="626" y="98" rx="2" ry="2" width="12" height="12"/><rect class="c" x="642" y="2" rx="2" ry="2" width="12" height="12"/><rect class="c" x="642" y="18" rx="2" ry="2" width="12" height="12"/><rect class="c" x="642" y="34" rx="2" ry="2" width="12" height="12"/><rect class="c" x="642" y="50" rx="2" ry="2" width="12" height="12"/><rect class="c" x="642" y="66" rx="2" ry="2" width="12" height="12"/><rect class="c" x="642" y="82" rx="2" ry="2" width="12" height="12"/><rect class="c" x="642" y="98" rx="2" ry="2" width="12" height="12"/><rect class="c" x="658" y="2" rx="2" ry="2" width="12" height="12"/><rect class="c" x="658" y="18" rx="2" ry="2" width="12" height="12"/><rect class="c" x="658" y="34" rx="2" ry="2" width="12" height="12"/><rect class="c" x="658" y="50" rx="2" ry="2" width="12" height="12"/><rect class="c" x="658" y="66" rx="2" ry="2" width="12" height="12"/><rect class="c" x="658" y="82" rx="2" ry="2" width="12" height="12"/><rect class="c" x="658" y="98" rx="2" ry="2" width="12" height="12"/><rect class="c" x="674" y="2" rx="2" ry="2" width="12" height="12"/><rect class="c" x="674" y="18" rx="2" ry="2" width="12" height="12"/><rect class="c" x="674" y="34" rx="2" ry="2" width="12" height="12"/><rect class="c" x="674" y="50" rx="2" ry="2" width="12" height="12"/><rect class="c" x="674" y="66" rx="2" ry="2" width="12" height="12"/><rect class="c" x="674" y="82" rx="2" ry="2" width="12" height="12"/><rect class="c" x="674" y="98" rx="2" ry="2" width="12" height="12"/><rect class="c" x="690" y="2" rx="2" ry="2" width="12" height="12"/><rect class="c" x="690" y="18" rx="2" ry="2" width="12" height="12"/><rect class="c" x="690" y="34" rx="2" ry="2" width="12" height="12"/><rect class="c" x="690" y="50" rx="2" ry="2" width="12" height="12"/><rect class="c" x="690" y="66" rx="2" ry="2" width="12" height="12"/><rect class="c" x="690" y="82" rx="2" ry="2" width="12" height="12"/><rect class="c" x="690" y="98" rx="2" ry="2" width="12" height="12"/><rect class="c" x="706" y="2" rx="2" ry="2" width="12" height="12"/><rect class="c" x="706" y="18" rx="2" ry="2" width="12" height="12"/><rect class="c" x="706" y="34" rx="2" ry="2" width="12" height="12"/><rect class="c" x="706" y="50" rx="2" ry="2" width="12" height="12"/><rect class="c" x="706" y="66" rx="2" ry="2" width="12" height="12"/><rect class="c" x="706" y="82" rx="2" ry="2" width="12" height="12"/><rect class="c" x="706" y="98" rx="2" ry="2" width="12" height="12"/><rect class="c" x="722" y="2" rx="2" ry="2" width="12" height="12"/><rect class="c" x="722" y="18" rx="2" ry="2" width="12" height="12"/><rect class="c" x="722" y="34" rx="2" ry="2" width="12" height="12"/><rect class="c" x="722" y="50" rx="2" ry="2" width="12" height="12"/><rect class="c" x="722" y="66" rx="2" ry="2" width="12" height="12"/><rect class="c" x="722" y="82" rx="2" ry="2" width="12" height="12"/><rect class="c" x="722" y="98" rx="2" ry="2" width="12" height="12"/><rect class="c" x="738" y="2" rx="2" ry="2" width="12" height="12"/><rect class="c" x="738" y="18" rx="2" ry="2" width="12" height="12"/><rect class="c" x="738" y="34" rx="2" ry="2" width="12" height="12"/><rect class="c" x="738" y="50" rx="2" ry="2" width="12" height="12"/><rect class="c" x="738" y="66" rx="2" ry="2" width="12" height="12"/><rect class="c" x="738" y="82" rx="2" ry="2" width="12" height="12"/><rect class="c" x="738" y="98" rx="2" ry="2" width="12" height="12"/><rect class="c" x="754" y="2" rx="2" ry="2" width="12" height="12"/><rect class="c c1a" x="754" y="18" rx="2" ry="2" width="12" height="12"/><rect class="c c1b" x="754" y="34" rx="2" ry="2" width="12" height="12"/><rect class="c" x="754" y="50" rx="2" ry="2" width="12" height="12"/><rect class="c" x="754" y="66" rx="2" ry="2" width="12" height="12"/><rect class="c" x="754" y="82" rx="2" ry="2" width="12" height="12"/><rect class="c" x="754" y="98" rx="2" ry="2" width="12" height="12"/><rect class="c" x="770" y="2" rx="2" ry="2" width="12" height="12"/><rect class="c" x="770" y="18" rx="2" ry="2" width="12" height="12"/><rect class="c" x="770" y="34" rx="2" ry="2" width="12" height="12"/><rect class="c" x="770" y="50" rx="2" ry="2" width="12" height="12"/><rect class="c" x="770" y="66" rx="2" ry="2" width="12" height="12"/><rect class="c" x="770" y="82" rx="2" ry="2" width="12" height="12"/><rect class="c" x="770" y="98" rx="2" ry="2" width="12" height="12"/><rect class="c" x="786" y="2" rx="2" ry="2" width="12" height="12"/><rect class="c" x="786" y="18" rx="2" ry="2" width="12" height="12"/><rect class="c" x="786" y="34" rx="2" ry="2" width="12" height="12"/><rect class="c" x="786" y="50" rx="2" ry="2" width="12" height="12"/><rect class="c" x="786" y="66" rx="2" ry="2" width="12" height="12"/><rect class="c" x="786" y="82" rx="2" ry="2" width="12" height="12"/><rect class="c" x="786" y="98" rx="2" ry="2" width="12" height="12"/><rect class="c" x="802" y="2" rx="2" ry="2" width="12" height="12"/><rect class="c" x="802" y="18" rx="2" ry="2" width="12" height="12"/><rect class="c" x="802" y="34" rx="2" ry="2" width="12" height="12"/><rect class="c" x="802" y="50" rx="2" ry="2" width="12" height="12"/><rect class="c" x="802" y="66" rx="2" ry="2" width="12" height="12"/><rect class="c" x="802" y="82" rx="2" ry="2" width="12" height="12"/><rect class="c" x="802" y="98" rx="2" ry="2" width="12" height="12"/><rect class="c" x="818" y="2" rx="2" ry="2" width="12" height="12"/><rect class="c" x="818" y="18" rx="2" ry="2" width="12" height="12"/><rect class="c" x="818" y="34" rx="2" ry="2" width="12" height="12"/><rect class="c" x="818" y="50" rx="2" ry="2" width="12" height="12"/><rect class="c" x="818" y="66" rx="2" ry="2" width="12" height="12"/><rect class="c" x="818" y="82" rx="2" ry="2" width="12" height="12"/><rect class="c" x="818" y="98" rx="2" ry="2" width="12" height="12"/><rect class="c" x="834" y="2" rx="2" ry="2" width="12" height="12"/><rect class="c" x="834" y="18" rx="2" ry="2" width="12" height="12"/><rect class="c" x="834" y="34" rx="2" ry="2" width="12" height="12"/><rect class="c" x="834" y="50" rx="2" ry="2" width="12" height="12"/><rect class="c" x="834" y="66" rx="2" ry="2" width="12" height="12"/><rect class="c" x="834" y="82" rx="2" ry="2" width="12" height="12"/><rect class="u u0" height="12" width="548.3" x="0.0" y="144"/><rect class="u u1" height="12" width="141.9" x="547.7" y="144"/><rect class="u u2" height="12" width="124.3" x="689.0" y="144"/><rect class="u u3" height="12" width="35.9" x="812.7" y="144"/><rect class="s s0" x="0.8" y="0.8" width="14.4" height="14.4" rx="4.5" ry="4.5"/><rect class="s s1" x="1.8" y="1.8" width="12.3" height="12.3" rx="4.1" ry="4.1"/><rect class="s s2" x="2.6" y="2.6" width="10.8" height="10.8" rx="3.6" ry="3.6"/><rect class="s s3" x="3.0" y="3.0" width="9.9" height="9.9" rx="3.3" ry="3.3"/></svg>