<svg viewBox="-16 -32 880 192" width="880" height="192" xmlns="http://www.w3.org/2000/svg"><desc>Generated with https://github.com/Platane/snk</desc><style>@keyframes c0{72.87%{fill:var(--c2)}72.89%,to{fill:var(--ce)}}@keyframes c1{1.09%{fill:var(--c1)}1.11%,to{fill:var(--ce)}}@keyframes c2{1.36%{fill:var(--c1)}1.38%,to{fill:var(--ce)}}@keyframes c3{3.28%{fill:var(--c1)}3.3%,to{fill:var(--ce)}}@keyframes c4{71.77%{fill:var(--c2)}71.79%,to{fill:var(--ce)}}@keyframes c5{2.18%{fill:var(--c1)}2.2%,to{fill:var(--ce)}}@keyframes c6{5.74%{fill:var(--c1)}5.76%,to{fill:var(--ce)}}@keyframes c7{10.67%{fill:var(--c1)}10.69%,to{fill:var(--ce)}}@keyframes c8{7.94%{fill:var(--c1)}7.96%,to{fill:var(--ce)}}@keyframes c9{12.04%{fill:var(--c1)}12.06%,to{fill:var(--ce)}}@keyframes ca{12.32%{fill:var(--c1)}12.34%,to{fill:var(--ce)}}@keyframes cb{13.41%{fill:var(--c1)}13.43%,to{fill:var(--ce)}}@keyframes cc{67.94%{fill:var(--c2)}67.96%,to{fill:var(--ce)}}@keyframes cd{10.13%{fill:var(--c1)}10.15%,to{fill:var(--ce)}}@keyframes ce{8.21%{fill:var(--c1)}8.23%,to{fill:var(--ce)}}@keyframes cf{12.59%{fill:var(--c1)}12.61%,to{fill:var(--ce)}}@keyframes cg{12.87%{fill:var(--c1)}12.89%,to{fill:var(--ce)}}@keyframes ch{13.14%{fill:var(--c1)}13.16%,to{fill:var(--ce)}}@keyframes ci{9.58%{fill:var(--c1)}9.6%,to{fill:var(--ce)}}@keyframes cj{8.48%{fill:var(--c1)}8.5%,to{fill:var(--ce)}}@keyframes ck{9.03%{fill:var(--c1)}9.05%,to{fill:var(--ce)}}@keyframes cl{14.78%{fill:var(--c1)}14.8%,to{fill:var(--ce)}}@keyframes cm{14.51%{fill:var(--c1)}14.53%,to{fill:var(--ce)}}@keyframes cn{34.51%{fill:var(--c1)}34.53%,to{fill:var(--ce)}}@keyframes co{67.11%{fill:var(--c2)}67.13%,to{fill:var(--ce)}}@keyframes cp{66.84%{fill:var(--c2)}66.86%,to{fill:var(--ce)}}@keyframes cq{17.52%{fill:var(--c1)}17.54%,to{fill:var(--ce)}}@keyframes cr{66.02%{fill:var(--c2)}66.04%,to{fill:var(--ce)}}@keyframes cs{15.33%{fill:var(--c1)}15.35%,to{fill:var(--ce)}}@keyframes ct{16.98%{fill:var(--c1)}17%,to{fill:var(--ce)}}@keyframes cu{18.89%{fill:var(--c1)}18.91%,to{fill:var(--ce)}}@keyframes cv{16.43%{fill:var(--c1)}16.45%,to{fill:var(--ce)}}@keyframes cw{16.15%{fill:var(--c1)}16.17%,to{fill:var(--ce)}}@keyframes cx{19.17%{fill:var(--c1)}19.19%,to{fill:var(--ce)}}@keyframes cy{21.36%{fill:var(--c1)}21.38%,to{fill:var(--ce)}}@keyframes cz{64.37%{fill:var(--c2)}64.39%,to{fill:var(--ce)}}@keyframes c10{19.99%{fill:var(--c1)}20.01%,to{fill:var(--ce)}}@keyframes c11{20.26%{fill:var(--c1)}20.28%,to{fill:var(--ce)}}@keyframes c12{30.4%{fill:var(--c1)}30.42%,to{fill:var(--ce)}}@keyframes c13{23.28%{fill:var(--c1)}23.3%,to{fill:var(--ce)}}@keyframes c14{62.18%{fill:var(--c2)}62.2%,to{fill:var(--ce)}}@keyframes c15{24.37%{fill:var(--c1)}24.39%,to{fill:var(--ce)}}@keyframes c16{23.55%{fill:var(--c1)}23.57%,to{fill:var(--ce)}}@keyframes c17{24.92%{fill:var(--c1)}24.94%,to{fill:var(--ce)}}@keyframes c18{29.03%{fill:var(--c1)}29.05%,to{fill:var(--ce)}}@keyframes c19{24.1%{fill:var(--c1)}24.12%,to{fill:var(--ce)}}@keyframes c1a{23.83%{fill:var(--c1)}23.85%,to{fill:var(--ce)}}@keyframes c1b{25.2%{fill:var(--c1)}25.22%,to{fill:var(--ce)}}@keyframes c1c{59.44%{fill:var(--c2)}59.46%,to{fill:var(--ce)}}@keyframes c1d{59.72%{fill:var(--c2)}59.74%,to{fill:var(--ce)}}@keyframes c1e{61.36%{fill:var(--c2)}61.38%,to{fill:var(--ce)}}@keyframes c1f{26.29%{fill:var(--c1)}26.31%,to{fill:var(--ce)}}@keyframes c1g{27.66%{fill:var(--c1)}27.68%,to{fill:var(--ce)}}@keyframes c1h{43.28%{fill:var(--c1)}43.3%,to{fill:var(--ce)}}@keyframes c1i{42.73%{fill:var(--c1)}42.75%,to{fill:var(--ce)}}@keyframes c1j{42.46%{fill:var(--c1)}42.48%,to{fill:var(--ce)}}@keyframes c1k{47.66%{fill:var(--c1)}47.68%,to{fill:var(--ce)}}@keyframes c1l{45.74%{fill:var(--c1)}45.76%,to{fill:var(--ce)}}@keyframes c1m{46.02%{fill:var(--c1)}46.04%,to{fill:var(--ce)}}@keyframes c1n{55.33%{fill:var(--c2)}55.35%,to{fill:var(--ce)}}@keyframes c1o{45.2%{fill:var(--c1)}45.22%,to{fill:var(--ce)}}@keyframes c1p{85.74%{fill:var(--c4)}85.76%,to{fill:var(--ce)}}@keyframes c1q{46.57%{fill:var(--c1)}46.59%,to{fill:var(--ce)}}@keyframes c1r{47.11%{fill:var(--c1)}47.13%,to{fill:var(--ce)}}@keyframes c1s{49.58%{fill:var(--c1)}49.6%,to{fill:var(--ce)}}@keyframes c1t{53.69%{fill:var(--c2)}53.71%,to{fill:var(--ce)}}@keyframes c1u{51.77%{fill:var(--c1)}51.79%,to{fill:var(--ce)}}@keyframes u0{1.09%{transform:scale(0,1)}1.11%,1.36%{transform:scale(.02,1)}1.38%,2.18%{transform:scale(.04,1)}2.2%,3.28%{transform:scale(.06,1)}3.3%,5.74%{transform:scale(.08,1)}5.76%,7.94%{transform:scale(.09,1)}7.96%,8.21%{transform:scale(.11,1)}8.23%,8.48%{transform:scale(.13,1)}8.5%,9.03%{transform:scale(.15,1)}9.05%,9.58%{transform:scale(.17,1)}10.13%,9.6%{transform:scale(.19,1)}10.15%,10.67%{transform:scale(.21,1)}10.69%,12.04%{transform:scale(.23,1)}12.06%,12.32%{transform:scale(.25,1)}12.34%,12.59%{transform:scale(.26,1)}12.61%,12.87%{transform:scale(.28,1)}12.89%,13.14%{transform:scale(.3,1)}13.16%,13.41%{transform:scale(.32,1)}13.43%,14.51%{transform:scale(.34,1)}14.53%,14.78%{transform:scale(.36,1)}14.8%,15.33%{transform:scale(.38,1)}15.35%,16.15%{transform:scale(.4,1)}16.17%,16.43%{transform:scale(.42,1)}16.45%,16.98%{transform:scale(.43,1)}17%,17.52%{transform:scale(.45,1)}17.54%,18.89%{transform:scale(.47,1)}18.91%,19.17%{transform:scale(.49,1)}19.19%,19.99%{transform:scale(.51,1)}20.01%,20.26%{transform:scale(.53,1)}20.28%,21.36%{transform:scale(.55,1)}21.38%,23.28%{transform:scale(.57,1)}23.3%,23.55%{transform:scale(.58,1)}23.57%,23.83%{transform:scale(.6,1)}23.85%,24.1%{transform:scale(.62,1)}24.12%,24.37%{transform:scale(.64,1)}24.39%,24.92%{transform:scale(.66,1)}24.94%,25.2%{transform:scale(.68,1)}25.22%,26.29%{transform:scale(.7,1)}26.31%,27.66%{transform:scale(.72,1)}27.68%,29.03%{transform:scale(.74,1)}29.05%,30.4%{transform:scale(.75,1)}30.42%,34.51%{transform:scale(.77,1)}34.53%,42.46%{transform:scale(.79,1)}42.48%,42.73%{transform:scale(.81,1)}42.75%,43.28%{transform:scale(.83,1)}43.3%,45.2%{transform:scale(.85,1)}45.22%,45.74%{transform:scale(.87,1)}45.76%,46.02%{transform:scale(.89,1)}46.04%,46.57%{transform:scale(.91,1)}46.59%,47.11%{transform:scale(.92,1)}47.13%,47.66%{transform:scale(.94,1)}47.68%,49.58%{transform:scale(.96,1)}49.6%,51.77%{transform:scale(.98,1)}51.79%,to{transform:scale(1,1)}}@keyframes u1{53.69%{transform:scale(0,1)}53.71%,55.33%{transform:scale(.08,1)}55.35%,59.44%{transform:scale(.15,1)}59.46%,59.72%{transform:scale(.23,1)}59.74%,61.36%{transform:scale(.31,1)}61.38%,62.18%{transform:scale(.38,1)}62.2%,64.37%{transform:scale(.46,1)}64.39%,66.02%{transform:scale(.54,1)}66.04%,66.84%{transform:scale(.62,1)}66.86%,67.11%{transform:scale(.69,1)}67.13%,67.94%{transform:scale(.77,1)}67.96%,71.77%{transform:scale(.85,1)}71.79%,72.87%{transform:scale(.92,1)}72.89%,to{transform:scale(1,1)}}@keyframes u2{85.74%{transform:scale(0,1)}85.76%,to{transform:scale(1,1)}}@keyframes s0{0%,99.73%{transform:translate(0,-16px)}.27%{transform:translate(0,0)}.55%{transform:translate(16px,0)}1.37%{transform:translate(16px,48px)}1.92%{transform:translate(48px,48px)}2.19%{transform:translate(48px,64px)}2.74%{transform:translate(16px,64px)}3.29%{transform:translate(16px,96px)}4.66%{transform:translate(96px,96px)}5.75%,97.26%{transform:translate(96px,32px)}33.42%,8.77%{transform:translate(272px,32px)}9.32%{transform:translate(272px,0)}9.59%{transform:translate(256px,0)}9.86%{transform:translate(256px,16px)}10.41%,11.51%{transform:translate(224px,16px)}10.68%{transform:translate(224px,0)}10.96%{transform:translate(208px,0)}11.23%{transform:translate(208px,16px)}12.33%{transform:translate(224px,64px)}12.6%{transform:translate(240px,64px)}13.15%{transform:translate(240px,96px)}13.42%{transform:translate(224px,96px)}13.7%{transform:translate(224px,80px)}14.52%{transform:translate(272px,80px)}14.79%{transform:translate(272px,64px)}15.89%{transform:translate(336px,64px)}16.71%{transform:translate(336px,16px)}17.26%,32.6%{transform:translate(304px,16px)}17.53%,32.88%,65.75%{transform:translate(304px,32px)}17.81%{transform:translate(320px,32px)}18.9%{transform:translate(320px,96px)}20.27%{transform:translate(400px,96px)}20.82%{transform:translate(400px,64px)}21.37%{transform:translate(368px,64px)}21.64%{transform:translate(368px,48px)}23.84%{transform:translate(496px,48px)}24.11%{transform:translate(496px,32px)}24.38%{transform:translate(480px,32px)}24.93%,38.63%{transform:translate(480px,64px)}25.75%{transform:translate(528px,64px)}26.3%{transform:translate(528px,96px)}26.58%{transform:translate(544px,96px)}28.22%{transform:translate(544px,0)}29.04%{transform:translate(496px,0)}29.32%{transform:translate(496px,16px)}34.52%{transform:translate(272px,96px)}38.08%{transform:translate(480px,96px)}41.92%{transform:translate(672px,64px)}43.01%{transform:translate(672px,0)}43.29%{transform:translate(656px,0)}43.56%{transform:translate(656px,16px)}45.21%{transform:translate(752px,16px)}45.48%,86.03%{transform:translate(752px,32px)}45.75%{transform:translate(736px,32px)}46.3%{transform:translate(736px,64px)}46.58%{transform:translate(752px,64px)}47.12%{transform:translate(752px,96px)}47.67%{transform:translate(720px,96px)}47.95%{transform:translate(720px,112px)}49.32%{transform:translate(800px,112px)}49.86%,54.25%{transform:translate(800px,80px)}50.41%{transform:translate(832px,80px)}51.78%{transform:translate(832px,0)}52.05%{transform:translate(816px,0)}53.7%{transform:translate(816px,96px)}53.97%{transform:translate(800px,96px)}59.45%{transform:translate(496px,80px)}59.73%{transform:translate(496px,96px)}60%{transform:translate(512px,96px)}61.64%{transform:translate(512px,0)}63.84%{transform:translate(384px,0)}64.38%{transform:translate(384px,32px)}66.03%{transform:translate(304px,48px)}66.3%{transform:translate(288px,48px)}67.12%{transform:translate(288px,0)}71.51%{transform:translate(32px,0)}71.78%{transform:translate(32px,16px)}72.33%{transform:translate(0,16px)}72.88%{transform:translate(0,48px)}85.75%{transform:translate(752px,48px)}97.53%{transform:translate(96px,16px)}98.36%{transform:translate(48px,16px)}98.9%{transform:translate(48px,-16px)}}@keyframes s1{0%,99.73%{transform:translate(16px,-16px)}.27%{transform:translate(0,-16px)}.55%{transform:translate(0,0)}.82%{transform:translate(16px,0)}1.64%{transform:translate(16px,48px)}2.19%{transform:translate(48px,48px)}2.47%{transform:translate(48px,64px)}3.01%{transform:translate(16px,64px)}3.56%{transform:translate(16px,96px)}4.93%{transform:translate(96px,96px)}6.03%,97.53%{transform:translate(96px,32px)}33.7%,9.04%{transform:translate(272px,32px)}9.59%{transform:translate(272px,0)}9.86%{transform:translate(256px,0)}10.14%{transform:translate(256px,16px)}10.68%,11.78%{transform:translate(224px,16px)}10.96%{transform:translate(224px,0)}11.23%{transform:translate(208px,0)}11.51%{transform:translate(208px,16px)}12.6%{transform:translate(224px,64px)}12.88%{transform:translate(240px,64px)}13.42%{transform:translate(240px,96px)}13.7%{transform:translate(224px,96px)}13.97%{transform:translate(224px,80px)}14.79%{transform:translate(272px,80px)}15.07%{transform:translate(272px,64px)}16.16%{transform:translate(336px,64px)}16.99%{transform:translate(336px,16px)}17.53%,32.88%{transform:translate(304px,16px)}17.81%,33.15%,66.03%{transform:translate(304px,32px)}18.08%{transform:translate(320px,32px)}19.18%{transform:translate(320px,96px)}20.55%{transform:translate(400px,96px)}21.1%{transform:translate(400px,64px)}21.64%{transform:translate(368px,64px)}21.92%{transform:translate(368px,48px)}24.11%{transform:translate(496px,48px)}24.38%{transform:translate(496px,32px)}24.66%{transform:translate(480px,32px)}25.21%,38.9%{transform:translate(480px,64px)}26.03%{transform:translate(528px,64px)}26.58%{transform:translate(528px,96px)}26.85%{transform:translate(544px,96px)}28.49%{transform:translate(544px,0)}29.32%{transform:translate(496px,0)}29.59%{transform:translate(496px,16px)}34.79%{transform:translate(272px,96px)}38.36%{transform:translate(480px,96px)}42.19%{transform:translate(672px,64px)}43.29%{transform:translate(672px,0)}43.56%{transform:translate(656px,0)}43.84%{transform:translate(656px,16px)}45.48%{transform:translate(752px,16px)}45.75%,86.3%{transform:translate(752px,32px)}46.03%{transform:translate(736px,32px)}46.58%{transform:translate(736px,64px)}46.85%{transform:translate(752px,64px)}47.4%{transform:translate(752px,96px)}47.95%{transform:translate(720px,96px)}48.22%{transform:translate(720px,112px)}49.59%{transform:translate(800px,112px)}50.14%,54.52%{transform:translate(800px,80px)}50.68%{transform:translate(832px,80px)}52.05%{transform:translate(832px,0)}52.33%{transform:translate(816px,0)}53.97%{transform:translate(816px,96px)}54.25%{transform:translate(800px,96px)}59.73%{transform:translate(496px,80px)}60%{transform:translate(496px,96px)}60.27%{transform:translate(512px,96px)}61.92%{transform:translate(512px,0)}64.11%{transform:translate(384px,0)}64.66%{transform:translate(384px,32px)}66.3%{transform:translate(304px,48px)}66.58%{transform:translate(288px,48px)}67.4%{transform:translate(288px,0)}71.78%{transform:translate(32px,0)}72.05%{transform:translate(32px,16px)}72.6%{transform:translate(0,16px)}73.15%{transform:translate(0,48px)}86.03%{transform:translate(752px,48px)}97.81%{transform:translate(96px,16px)}98.63%{transform:translate(48px,16px)}99.18%{transform:translate(48px,-16px)}}@keyframes s2{0%,99.73%{transform:translate(32px,-16px)}.55%{transform:translate(0,-16px)}.82%{transform:translate(0,0)}1.1%{transform:translate(16px,0)}1.92%{transform:translate(16px,48px)}2.47%{transform:translate(48px,48px)}2.74%{transform:translate(48px,64px)}3.29%{transform:translate(16px,64px)}3.84%{transform:translate(16px,96px)}5.21%{transform:translate(96px,96px)}6.3%,97.81%{transform:translate(96px,32px)}33.97%,9.32%{transform:translate(272px,32px)}9.86%{transform:translate(272px,0)}10.14%{transform:translate(256px,0)}10.41%{transform:translate(256px,16px)}10.96%,12.05%{transform:translate(224px,16px)}11.23%{transform:translate(224px,0)}11.51%{transform:translate(208px,0)}11.78%{transform:translate(208px,16px)}12.88%{transform:translate(224px,64px)}13.15%{transform:translate(240px,64px)}13.7%{transform:translate(240px,96px)}13.97%{transform:translate(224px,96px)}14.25%{transform:translate(224px,80px)}15.07%{transform:translate(272px,80px)}15.34%{transform:translate(272px,64px)}16.44%{transform:translate(336px,64px)}17.26%{transform:translate(336px,16px)}17.81%,33.15%{transform:translate(304px,16px)}18.08%,33.42%,66.3%{transform:translate(304px,32px)}18.36%{transform:translate(320px,32px)}19.45%{transform:translate(320px,96px)}20.82%{transform:translate(400px,96px)}21.37%{transform:translate(400px,64px)}21.92%{transform:translate(368px,64px)}22.19%{transform:translate(368px,48px)}24.38%{transform:translate(496px,48px)}24.66%{transform:translate(496px,32px)}24.93%{transform:translate(480px,32px)}25.48%,39.18%{transform:translate(480px,64px)}26.3%{transform:translate(528px,64px)}26.85%{transform:translate(528px,96px)}27.12%{transform:translate(544px,96px)}28.77%{transform:translate(544px,0)}29.59%{transform:translate(496px,0)}29.86%{transform:translate(496px,16px)}35.07%{transform:translate(272px,96px)}38.63%{transform:translate(480px,96px)}42.47%{transform:translate(672px,64px)}43.56%{transform:translate(672px,0)}43.84%{transform:translate(656px,0)}44.11%{transform:translate(656px,16px)}45.75%{transform:translate(752px,16px)}46.03%,86.58%{transform:translate(752px,32px)}46.3%{transform:translate(736px,32px)}46.85%{transform:translate(736px,64px)}47.12%{transform:translate(752px,64px)}47.67%{transform:translate(752px,96px)}48.22%{transform:translate(720px,96px)}48.49%{transform:translate(720px,112px)}49.86%{transform:translate(800px,112px)}50.41%,54.79%{transform:translate(800px,80px)}50.96%{transform:translate(832px,80px)}52.33%{transform:translate(832px,0)}52.6%{transform:translate(816px,0)}54.25%{transform:translate(816px,96px)}54.52%{transform:translate(800px,96px)}60%{transform:translate(496px,80px)}60.27%{transform:translate(496px,96px)}60.55%{transform:translate(512px,96px)}62.19%{transform:translate(512px,0)}64.38%{transform:translate(384px,0)}64.93%{transform:translate(384px,32px)}66.58%{transform:translate(304px,48px)}66.85%{transform:translate(288px,48px)}67.67%{transform:translate(288px,0)}72.05%{transform:translate(32px,0)}72.33%{transform:translate(32px,16px)}72.88%{transform:translate(0,16px)}73.42%{transform:translate(0,48px)}86.3%{transform:translate(752px,48px)}98.08%{transform:translate(96px,16px)}98.9%{transform:translate(48px,16px)}99.45%{transform:translate(48px,-16px)}}@keyframes s3{0%,99.73%{transform:translate(48px,-16px)}.82%{transform:translate(0,-16px)}1.1%{transform:translate(0,0)}1.37%{transform:translate(16px,0)}2.19%{transform:translate(16px,48px)}2.74%{transform:translate(48px,48px)}3.01%{transform:translate(48px,64px)}3.56%{transform:translate(16px,64px)}4.11%{transform:translate(16px,96px)}5.48%{transform:translate(96px,96px)}6.58%,98.08%{transform:translate(96px,32px)}34.25%,9.59%{transform:translate(272px,32px)}10.14%{transform:translate(272px,0)}10.41%{transform:translate(256px,0)}10.68%{transform:translate(256px,16px)}11.23%,12.33%{transform:translate(224px,16px)}11.51%{transform:translate(224px,0)}11.78%{transform:translate(208px,0)}12.05%{transform:translate(208px,16px)}13.15%{transform:translate(224px,64px)}13.42%{transform:translate(240px,64px)}13.97%{transform:translate(240px,96px)}14.25%{transform:translate(224px,96px)}14.52%{transform:translate(224px,80px)}15.34%{transform:translate(272px,80px)}15.62%{transform:translate(272px,64px)}16.71%{transform:translate(336px,64px)}17.53%{transform:translate(336px,16px)}18.08%,33.42%{transform:translate(304px,16px)}18.36%,33.7%,66.58%{transform:translate(304px,32px)}18.63%{transform:translate(320px,32px)}19.73%{transform:translate(320px,96px)}21.1%{transform:translate(400px,96px)}21.64%{transform:translate(400px,64px)}22.19%{transform:translate(368px,64px)}22.47%{transform:translate(368px,48px)}24.66%{transform:translate(496px,48px)}24.93%{transform:translate(496px,32px)}25.21%{transform:translate(480px,32px)}25.75%,39.45%{transform:translate(480px,64px)}26.58%{transform:translate(528px,64px)}27.12%{transform:translate(528px,96px)}27.4%{transform:translate(544px,96px)}29.04%{transform:translate(544px,0)}29.86%{transform:translate(496px,0)}30.14%{transform:translate(496px,16px)}35.34%{transform:translate(272px,96px)}38.9%{transform:translate(480px,96px)}42.74%{transform:translate(672px,64px)}43.84%{transform:translate(672px,0)}44.11%{transform:translate(656px,0)}44.38%{transform:translate(656px,16px)}46.03%{transform:translate(752px,16px)}46.3%,86.85%{transform:translate(752px,32px)}46.58%{transform:translate(736px,32px)}47.12%{transform:translate(736px,64px)}47.4%{transform:translate(752px,64px)}47.95%{transform:translate(752px,96px)}48.49%{transform:translate(720px,96px)}48.77%{transform:translate(720px,112px)}50.14%{transform:translate(800px,112px)}50.68%,55.07%{transform:translate(800px,80px)}51.23%{transform:translate(832px,80px)}52.6%{transform:translate(832px,0)}52.88%{transform:translate(816px,0)}54.52%{transform:translate(816px,96px)}54.79%{transform:translate(800px,96px)}60.27%{transform:translate(496px,80px)}60.55%{transform:translate(496px,96px)}60.82%{transform:translate(512px,96px)}62.47%{transform:translate(512px,0)}64.66%{transform:translate(384px,0)}65.21%{transform:translate(384px,32px)}66.85%{transform:translate(304px,48px)}67.12%{transform:translate(288px,48px)}67.95%{transform:translate(288px,0)}72.33%{transform:translate(32px,0)}72.6%{transform:translate(32px,16px)}73.15%{transform:translate(0,16px)}73.7%{transform:translate(0,48px)}86.58%{transform:translate(752px,48px)}98.36%{transform:translate(96px,16px)}99.18%{transform:translate(48px,16px)}}:root{--cb:#1b1f230a;--cs:purple;--ce:#ebedf0;--c0:#ebedf0;--c1:#9be9a8;--c2:#40c463;--c3:#30a14e;--c4:#216e39}@media (prefers-color-scheme:dark){:root{--cb:#1b1f230a;--cs:purple;--ce:#161b22;--c1:#01311f;--c2:#034525;--c3:#0f6d31;--c4:#00c647}}.c{shape-rendering:geometricPrecision;fill:var(--ce);stroke-width:1px;stroke:var(--cb);animation:none 36500ms linear infinite}.c.c0{fill:var(--c2);animation-name:c0}.c.c1,.c.c2,.c.c3{fill:var(--c1);animation-name:c1}.c.c2,.c.c3{animation-name:c2}.c.c3{animation-name:c3}.c.c4{fill:var(--c2);animation-name:c4}.c.c5{fill:var(--c1);animation-name:c5}.c.c6,.c.c7,.c.c8{fill:var(--c1);animation-name:c6}.c.c7,.c.c8{animation-name:c7}.c.c8{animation-name:c8}.c.c9,.c.ca,.c.cb{fill:var(--c1);animation-name:c9}.c.ca,.c.cb{animation-name:ca}.c.cb{animation-name:cb}.c.cc{fill:var(--c2);animation-name:cc}.c.cd,.c.ce{fill:var(--c1);animation-name:cd}.c.ce{animation-name:ce}.c.cf,.c.cg,.c.ch{fill:var(--c1);animation-name:cf}.c.cg,.c.ch{animation-name:cg}.c.ch{animation-name:ch}.c.ci,.c.cj,.c.ck{fill:var(--c1);animation-name:ci}.c.cj,.c.ck{animation-name:cj}.c.ck{animation-name:ck}.c.cl,.c.cm,.c.cn{fill:var(--c1);animation-name:cl}.c.cm,.c.cn{animation-name:cm}.c.cn{animation-name:cn}.c.co,.c.cp{fill:var(--c2);animation-name:co}.c.cp{animation-name:cp}.c.cq{fill:var(--c1);animation-name:cq}.c.cr{fill:var(--c2);animation-name:cr}.c.cs{fill:var(--c1);animation-name:cs}.c.ct,.c.cu,.c.cv{fill:var(--c1);animation-name:ct}.c.cu,.c.cv{animation-name:cu}.c.cv{animation-name:cv}.c.cw,.c.cx,.c.cy{fill:var(--c1);animation-name:cw}.c.cx,.c.cy{animation-name:cx}.c.cy{animation-name:cy}.c.cz{fill:var(--c2);animation-name:cz}.c.c10{fill:var(--c1);animation-name:c10}.c.c11,.c.c12,.c.c13{fill:var(--c1);animation-name:c11}.c.c12,.c.c13{animation-name:c12}.c.c13{animation-name:c13}.c.c14{fill:var(--c2);animation-name:c14}.c.c15{fill:var(--c1);animation-name:c15}.c.c16,.c.c17,.c.c18{fill:var(--c1);animation-name:c16}.c.c17,.c.c18{animation-name:c17}.c.c18{animation-name:c18}.c.c19,.c.c1a,.c.c1b{fill:var(--c1);animation-name:c19}.c.c1a,.c.c1b{animation-name:c1a}.c.c1b{animation-name:c1b}.c.c1c,.c.c1d,.c.c1e{fill:var(--c2);animation-name:c1c}.c.c1d,.c.c1e{animation-name:c1d}.c.c1e{animation-name:c1e}.c.c1f,.c.c1g{fill:var(--c1);animation-name:c1f}.c.c1g{animation-name:c1g}.c.c1h,.c.c1i,.c.c1j{fill:var(--c1);animation-name:c1h}.c.c1i,.c.c1j{animation-name:c1i}.c.c1j{animation-name:c1j}.c.c1k,.c.c1l,.c.c1m{fill:var(--c1);animation-name:c1k}.c.c1l,.c.c1m{animation-name:c1l}.c.c1m{animation-name:c1m}.c.c1n{fill:var(--c2);animation-name:c1n}.c.c1o{fill:var(--c1);animation-name:c1o}.c.c1p{fill:var(--c4);animation-name:c1p}.c.c1q,.c.c1r,.c.c1s{fill:var(--c1);animation-name:c1q}.c.c1r,.c.c1s{animation-name:c1r}.c.c1s{animation-name:c1s}.c.c1t{fill:var(--c2);animation-name:c1t}.c.c1u{fill:var(--c1);animation-name:c1u}.s,.u{animation:none linear 36500ms infinite}.u,.u.u0{transform-origin:0 0}.u{transform:scale(0,1)}.u.u0{fill:var(--c1);animation-name:u0}.u.u1{fill:var(--c2);animation-name:u1;transform-origin:670.8px 0}.u.u2{fill:var(--c4);animation-name:u2;transform-origin:835.3px 0}.s{shape-rendering:geometricPrecision;fill:var(--cs)}.s.s0{transform:translate(0,-16px);animation-name:s0}.s.s1{transform:translate(16px,-16px);animation-name:s1}.s.s2{transform:translate(32px,-16px);animation-name:s2}.s.s3{transform:translate(48px,-16px);animation-name:s3}</style><rect class="c" x="2" y="2" rx="2" ry="2" width="12" height="12"/><rect class="c" x="2" y="18" rx="2" ry="2" width="12" height="12"/><rect class="c" x="2" y="34" rx="2" ry="2" width="12" height="12"/><rect class="c c0" x="2" y="50" rx="2" ry="2" width="12" height="12"/><rect class="c" x="2" y="66" rx="2" ry="2" width="12" height="12"/><rect class="c" x="2" y="82" rx="2" ry="2" width="12" height="12"/><rect class="c" x="2" y="98" rx="2" ry="2" width="12" height="12"/><rect class="c" x="18" y="2" rx="2" ry="2" width="12" height="12"/><rect class="c" x="18" y="18" rx="2" ry="2" width="12" height="12"/><rect class="c c1" x="18" y="34" rx="2" ry="2" width="12" height="12"/><rect class="c c2" x="18" y="50" rx="2" ry="2" width="12" height="12"/><rect class="c" x="18" y="66" rx="2" ry="2" width="12" height="12"/><rect class="c" x="18" y="82" rx="2" ry="2" width="12" height="12"/><rect class="c c3" x="18" y="98" rx="2" ry="2" width="12" height="12"/><rect class="c" x="34" y="2" rx="2" ry="2" width="12" height="12"/><rect class="c c4" x="34" y="18" rx="2" ry="2" width="12" height="12"/><rect class="c" x="34" y="34" rx="2" ry="2" width="12" height="12"/><rect class="c" x="34" y="50" rx="2" ry="2" width="12" height="12"/><rect class="c" x="34" y="66" rx="2" ry="2" width="12" height="12"/><rect class="c" x="34" y="82" rx="2" ry="2" width="12" height="12"/><rect class="c" x="34" y="98" rx="2" ry="2" width="12" height="12"/><rect class="c" x="50" y="2" rx="2" ry="2" width="12" height="12"/><rect class="c" x="50" y="18" rx="2" ry="2" width="12" height="12"/><rect class="c" x="50" y="34" rx="2" ry="2" width="12" height="12"/><rect class="c" x="50" y="50" rx="2" ry="2" width="12" height="12"/><rect class="c c5" x="50" y="66" rx="2" ry="2" width="12" height="12"/><rect class="c" x="50" y="82" rx="2" ry="2" width="12" height="12"/><rect class="c" x="50" y="98" rx="2" ry="2" width="12" height="12"/><rect class="c" x="66" y="2" rx="2" ry="2" width="12" height="12"/><rect class="c" x="66" y="18" rx="2" ry="2" width="12" height="12"/><rect class="c" x="66" y="34" rx="2" ry="2" width="12" height="12"/><rect class="c" x="66" y="50" rx="2" ry="2" width="12" height="12"/><rect class="c" x="66" y="66" rx="2" ry="2" width="12" height="12"/><rect class="c" x="66" y="82" rx="2" ry="2" width="12" height="12"/><rect class="c" x="66" y="98" rx="2" ry="2" width="12" height="12"/><rect class="c" x="82" y="2" rx="2" ry="2" width="12" height="12"/><rect class="c" x="82" y="18" rx="2" ry="2" width="12" height="12"/><rect class="c" x="82" y="34" rx="2" ry="2" width="12" height="12"/><rect class="c" x="82" y="50" rx="2" ry="2" width="12" height="12"/><rect class="c" x="82" y="66" rx="2" ry="2" width="12" height="12"/><rect class="c" x="82" y="82" rx="2" ry="2" width="12" height="12"/><rect class="c" x="82" y="98" rx="2" ry="2" width="12" height="12"/><rect class="c" x="98" y="2" rx="2" ry="2" width="12" height="12"/><rect class="c" x="98" y="18" rx="2" ry="2" width="12" height="12"/><rect class="c c6" x="98" y="34" rx="2" ry="2" width="12" height="12"/><rect class="c" x="98" y="50" rx="2" ry="2" width="12" height="12"/><rect class="c" x="98" y="66" rx="2" ry="2" width="12" height="12"/><rect class="c" x="98" y="82" rx="2" ry="2" width="12" height="12"/><rect class="c" x="98" y="98" rx="2" ry="2" width="12" height="12"/><rect class="c" x="114" y="2" rx="2" ry="2" width="12" height="12"/><rect class="c" x="114" y="18" rx="2" ry="2" width="12" height="12"/><rect class="c" x="114" y="34" rx="2" ry="2" width="12" height="12"/><rect class="c" x="114" y="50" rx="2" ry="2" width="12" height="12"/><rect class="c" x="114" y="66" rx="2" ry="2" width="12" height="12"/><rect class="c" x="114" y="82" rx="2" ry="2" width="12" height="12"/><rect class="c" x="114" y="98" rx="2" ry="2" width="12" height="12"/><rect class="c" x="130" y="2" rx="2" ry="2" width="12" height="12"/><rect class="c" x="130" y="18" rx="2" ry="2" width="12" height="12"/><rect class="c" x="130" y="34" rx="2" ry="2" width="12" height="12"/><rect class="c" x="130" y="50" rx="2" ry="2" width="12" height="12"/><rect class="c" x="130" y="66" rx="2" ry="2" width="12" height="12"/><rect class="c" x="130" y="82" rx="2" ry="2" width="12" height="12"/><rect class="c" x="130" y="98" rx="2" ry="2" width="12" height="12"/><rect class="c" x="146" y="2" rx="2" ry="2" width="12" height="12"/><rect class="c" x="146" y="18" rx="2" ry="2" width="12" height="12"/><rect class="c" x="146" y="34" rx="2" ry="2" width="12" height="12"/><rect class="c" x="146" y="50" rx="2" ry="2" width="12" height="12"/><rect class="c" x="146" y="66" rx="2" ry="2" width="12" height="12"/><rect class="c" x="146" y="82" rx="2" ry="2" width="12" height="12"/><rect class="c" x="146" y="98" rx="2" ry="2" width="12" height="12"/><rect class="c" x="162" y="2" rx="2" ry="2" width="12" height="12"/><rect class="c" x="162" y="18" rx="2" ry="2" width="12" height="12"/><rect class="c" x="162" y="34" rx="2" ry="2" width="12" height="12"/><rect class="c" x="162" y="50" rx="2" ry="2" width="12" height="12"/><rect class="c" x="162" y="66" rx="2" ry="2" width="12" height="12"/><rect class="c" x="162" y="82" rx="2" ry="2" width="12" height="12"/><rect class="c" x="162" y="98" rx="2" ry="2" width="12" height="12"/><rect class="c" x="178" y="2" rx="2" ry="2" width="12" height="12"/><rect class="c" x="178" y="18" rx="2" ry="2" width="12" height="12"/><rect class="c" x="178" y="34" rx="2" ry="2" width="12" height="12"/><rect class="c" x="178" y="50" rx="2" ry="2" width="12" height="12"/><rect class="c" x="178" y="66" rx="2" ry="2" width="12" height="12"/><rect class="c" x="178" y="82" rx="2" ry="2" width="12" height="12"/><rect class="c" x="178" y="98" rx="2" ry="2" width="12" height="12"/><rect class="c" x="194" y="2" rx="2" ry="2" width="12" height="12"/><rect class="c" x="194" y="18" rx="2" ry="2" width="12" height="12"/><rect class="c" x="194" y="34" rx="2" ry="2" width="12" height="12"/><rect class="c" x="194" y="50" rx="2" ry="2" width="12" height="12"/><rect class="c" x="194" y="66" rx="2" ry="2" width="12" height="12"/><rect class="c" x="194" y="82" rx="2" ry="2" width="12" height="12"/><rect class="c" x="194" y="98" rx="2" ry="2" width="12" height="12"/><rect class="c" x="210" y="2" rx="2" ry="2" width="12" height="12"/><rect class="c" x="210" y="18" rx="2" ry="2" width="12" height="12"/><rect class="c" x="210" y="34" rx="2" ry="2" width="12" height="12"/><rect class="c" x="210" y="50" rx="2" ry="2" width="12" height="12"/><rect class="c" x="210" y="66" rx="2" ry="2" width="12" height="12"/><rect class="c" x="210" y="82" rx="2" ry="2" width="12" height="12"/><rect class="c" x="210" y="98" rx="2" ry="2" width="12" height="12"/><rect class="c c7" x="226" y="2" rx="2" ry="2" width="12" height="12"/><rect class="c" x="226" y="18" rx="2" ry="2" width="12" height="12"/><rect class="c c8" x="226" y="34" rx="2" ry="2" width="12" height="12"/><rect class="c c9" x="226" y="50" rx="2" ry="2" width="12" height="12"/><rect class="c ca" x="226" y="66" rx="2" ry="2" width="12" height="12"/><rect class="c" x="226" y="82" rx="2" ry="2" width="12" height="12"/><rect class="c cb" x="226" y="98" rx="2" ry="2" width="12" height="12"/><rect class="c cc" x="242" y="2" rx="2" ry="2" width="12" height="12"/><rect class="c cd" x="242" y="18" rx="2" ry="2" width="12" height="12"/><rect class="c ce" x="242" y="34" rx="2" ry="2" width="12" height="12"/><rect class="c" x="242" y="50" rx="2" ry="2" width="12" height="12"/><rect class="c cf" x="242" y="66" rx="2" ry="2" width="12" height="12"/><rect class="c cg" x="242" y="82" rx="2" ry="2" width="12" height="12"/><rect class="c ch" x="242" y="98" rx="2" ry="2" width="12" height="12"/><rect class="c ci" x="258" y="2" rx="2" ry="2" width="12" height="12"/><rect class="c" x="258" y="18" rx="2" ry="2" width="12" height="12"/><rect class="c cj" x="258" y="34" rx="2" ry="2" width="12" height="12"/><rect class="c" x="258" y="50" rx="2" ry="2" width="12" height="12"/><rect class="c" x="258" y="66" rx="2" ry="2" width="12" height="12"/><rect class="c" x="258" y="82" rx="2" ry="2" width="12" height="12"/><rect class="c" x="258" y="98" rx="2" ry="2" width="12" height="12"/><rect class="c" x="274" y="2" rx="2" ry="2" width="12" height="12"/><rect class="c ck" x="274" y="18" rx="2" ry="2" width="12" height="12"/><rect class="c" x="274" y="34" rx="2" ry="2" width="12" height="12"/><rect class="c" x="274" y="50" rx="2" ry="2" width="12" height="12"/><rect class="c cl" x="274" y="66" rx="2" ry="2" width="12" height="12"/><rect class="c cm" x="274" y="82" rx="2" ry="2" width="12" height="12"/><rect class="c cn" x="274" y="98" rx="2" ry="2" width="12" height="12"/><rect class="c co" x="290" y="2" rx="2" ry="2" width="12" height="12"/><rect class="c cp" x="290" y="18" rx="2" ry="2" width="12" height="12"/><rect class="c" x="290" y="34" rx="2" ry="2" width="12" height="12"/><rect class="c" x="290" y="50" rx="2" ry="2" width="12" height="12"/><rect class="c" x="290" y="66" rx="2" ry="2" width="12" height="12"/><rect class="c" x="290" y="82" rx="2" ry="2" width="12" height="12"/><rect class="c" x="290" y="98" rx="2" ry="2" width="12" height="12"/><rect class="c" x="306" y="2" rx="2" ry="2" width="12" height="12"/><rect class="c" x="306" y="18" rx="2" ry="2" width="12" height="12"/><rect class="c cq" x="306" y="34" rx="2" ry="2" width="12" height="12"/><rect class="c cr" x="306" y="50" rx="2" ry="2" width="12" height="12"/><rect class="c cs" x="306" y="66" rx="2" ry="2" width="12" height="12"/><rect class="c" x="306" y="82" rx="2" ry="2" width="12" height="12"/><rect class="c" x="306" y="98" rx="2" ry="2" width="12" height="12"/><rect class="c" x="322" y="2" rx="2" ry="2" width="12" height="12"/><rect class="c ct" x="322" y="18" rx="2" ry="2" width="12" height="12"/><rect class="c" x="322" y="34" rx="2" ry="2" width="12" height="12"/><rect class="c" x="322" y="50" rx="2" ry="2" width="12" height="12"/><rect class="c" x="322" y="66" rx="2" ry="2" width="12" height="12"/><rect class="c" x="322" y="82" rx="2" ry="2" width="12" height="12"/><rect class="c cu" x="322" y="98" rx="2" ry="2" width="12" height="12"/><rect class="c" x="338" y="2" rx="2" ry="2" width="12" height="12"/><rect class="c" x="338" y="18" rx="2" ry="2" width="12" height="12"/><rect class="c cv" x="338" y="34" rx="2" ry="2" width="12" height="12"/><rect class="c cw" x="338" y="50" rx="2" ry="2" width="12" height="12"/><rect class="c" x="338" y="66" rx="2" ry="2" width="12" height="12"/><rect class="c" x="338" y="82" rx="2" ry="2" width="12" height="12"/><rect class="c cx" x="338" y="98" rx="2" ry="2" width="12" height="12"/><rect class="c" x="354" y="2" rx="2" ry="2" width="12" height="12"/><rect class="c" x="354" y="18" rx="2" ry="2" width="12" height="12"/><rect class="c" x="354" y="34" rx="2" ry="2" width="12" height="12"/><rect class="c" x="354" y="50" rx="2" ry="2" width="12" height="12"/><rect class="c" x="354" y="66" rx="2" ry="2" width="12" height="12"/><rect class="c" x="354" y="82" rx="2" ry="2" width="12" height="12"/><rect class="c" x="354" y="98" rx="2" ry="2" width="12" height="12"/><rect class="c" x="370" y="2" rx="2" ry="2" width="12" height="12"/><rect class="c" x="370" y="18" rx="2" ry="2" width="12" height="12"/><rect class="c" x="370" y="34" rx="2" ry="2" width="12" height="12"/><rect class="c" x="370" y="50" rx="2" ry="2" width="12" height="12"/><rect class="c cy" x="370" y="66" rx="2" ry="2" width="12" height="12"/><rect class="c" x="370" y="82" rx="2" ry="2" width="12" height="12"/><rect class="c" x="370" y="98" rx="2" ry="2" width="12" height="12"/><rect class="c" x="386" y="2" rx="2" ry="2" width="12" height="12"/><rect class="c" x="386" y="18" rx="2" ry="2" width="12" height="12"/><rect class="c cz" x="386" y="34" rx="2" ry="2" width="12" height="12"/><rect class="c" x="386" y="50" rx="2" ry="2" width="12" height="12"/><rect class="c" x="386" y="66" rx="2" ry="2" width="12" height="12"/><rect class="c" x="386" y="82" rx="2" ry="2" width="12" height="12"/><rect class="c c10" x="386" y="98" rx="2" ry="2" width="12" height="12"/><rect class="c" x="402" y="2" rx="2" ry="2" width="12" height="12"/><rect class="c" x="402" y="18" rx="2" ry="2" width="12" height="12"/><rect class="c" x="402" y="34" rx="2" ry="2" width="12" height="12"/><rect class="c" x="402" y="50" rx="2" ry="2" width="12" height="12"/><rect class="c" x="402" y="66" rx="2" ry="2" width="12" height="12"/><rect class="c" x="402" y="82" rx="2" ry="2" width="12" height="12"/><rect class="c c11" x="402" y="98" rx="2" ry="2" width="12" height="12"/><rect class="c" x="418" y="2" rx="2" ry="2" width="12" height="12"/><rect class="c" x="418" y="18" rx="2" ry="2" width="12" height="12"/><rect class="c" x="418" y="34" rx="2" ry="2" width="12" height="12"/><rect class="c" x="418" y="50" rx="2" ry="2" width="12" height="12"/><rect class="c" x="418" y="66" rx="2" ry="2" width="12" height="12"/><rect class="c" x="418" y="82" rx="2" ry="2" width="12" height="12"/><rect class="c" x="418" y="98" rx="2" ry="2" width="12" height="12"/><rect class="c" x="434" y="2" rx="2" ry="2" width="12" height="12"/><rect class="c c12" x="434" y="18" rx="2" ry="2" width="12" height="12"/><rect class="c" x="434" y="34" rx="2" ry="2" width="12" height="12"/><rect class="c" x="434" y="50" rx="2" ry="2" width="12" height="12"/><rect class="c" x="434" y="66" rx="2" ry="2" width="12" height="12"/><rect class="c" x="434" y="82" rx="2" ry="2" width="12" height="12"/><rect class="c" x="434" y="98" rx="2" ry="2" width="12" height="12"/><rect class="c" x="450" y="2" rx="2" ry="2" width="12" height="12"/><rect class="c" x="450" y="18" rx="2" ry="2" width="12" height="12"/><rect class="c" x="450" y="34" rx="2" ry="2" width="12" height="12"/><rect class="c" x="450" y="50" rx="2" ry="2" width="12" height="12"/><rect class="c" x="450" y="66" rx="2" ry="2" width="12" height="12"/><rect class="c" x="450" y="82" rx="2" ry="2" width="12" height="12"/><rect class="c" x="450" y="98" rx="2" ry="2" width="12" height="12"/><rect class="c" x="466" y="2" rx="2" ry="2" width="12" height="12"/><rect class="c" x="466" y="18" rx="2" ry="2" width="12" height="12"/><rect class="c" x="466" y="34" rx="2" ry="2" width="12" height="12"/><rect class="c c13" x="466" y="50" rx="2" ry="2" width="12" height="12"/><rect class="c" x="466" y="66" rx="2" ry="2" width="12" height="12"/><rect class="c" x="466" y="82" rx="2" ry="2" width="12" height="12"/><rect class="c" x="466" y="98" rx="2" ry="2" width="12" height="12"/><rect class="c c14" x="482" y="2" rx="2" ry="2" width="12" height="12"/><rect class="c" x="482" y="18" rx="2" ry="2" width="12" height="12"/><rect class="c c15" x="482" y="34" rx="2" ry="2" width="12" height="12"/><rect class="c c16" x="482" y="50" rx="2" ry="2" width="12" height="12"/><rect class="c c17" x="482" y="66" rx="2" ry="2" width="12" height="12"/><rect class="c" x="482" y="82" rx="2" ry="2" width="12" height="12"/><rect class="c" x="482" y="98" rx="2" ry="2" width="12" height="12"/><rect class="c c18" x="498" y="2" rx="2" ry="2" width="12" height="12"/><rect class="c" x="498" y="18" rx="2" ry="2" width="12" height="12"/><rect class="c c19" x="498" y="34" rx="2" ry="2" width="12" height="12"/><rect class="c c1a" x="498" y="50" rx="2" ry="2" width="12" height="12"/><rect class="c c1b" x="498" y="66" rx="2" ry="2" width="12" height="12"/><rect class="c c1c" x="498" y="82" rx="2" ry="2" width="12" height="12"/><rect class="c c1d" x="498" y="98" rx="2" ry="2" width="12" height="12"/><rect class="c" x="514" y="2" rx="2" ry="2" width="12" height="12"/><rect class="c c1e" x="514" y="18" rx="2" ry="2" width="12" height="12"/><rect class="c" x="514" y="34" rx="2" ry="2" width="12" height="12"/><rect class="c" x="514" y="50" rx="2" ry="2" width="12" height="12"/><rect class="c" x="514" y="66" rx="2" ry="2" width="12" height="12"/><rect class="c" x="514" y="82" rx="2" ry="2" width="12" height="12"/><rect class="c" x="514" y="98" rx="2" ry="2" width="12" height="12"/><rect class="c" x="530" y="2" rx="2" ry="2" width="12" height="12"/><rect class="c" x="530" y="18" rx="2" ry="2" width="12" height="12"/><rect class="c" x="530" y="34" rx="2" ry="2" width="12" height="12"/><rect class="c" x="530" y="50" rx="2" ry="2" width="12" height="12"/><rect class="c" x="530" y="66" rx="2" ry="2" width="12" height="12"/><rect class="c" x="530" y="82" rx="2" ry="2" width="12" height="12"/><rect class="c c1f" x="530" y="98" rx="2" ry="2" width="12" height="12"/><rect class="c" x="546" y="2" rx="2" ry="2" width="12" height="12"/><rect class="c" x="546" y="18" rx="2" ry="2" width="12" height="12"/><rect class="c c1g" x="546" y="34" rx="2" ry="2" width="12" height="12"/><rect class="c" x="546" y="50" rx="2" ry="2" width="12" height="12"/><rect class="c" x="546" y="66" rx="2" ry="2" width="12" height="12"/><rect class="c" x="546" y="82" rx="2" ry="2" width="12" height="12"/><rect class="c" x="546" y="98" rx="2" ry="2" width="12" height="12"/><rect class="c" x="562" y="2" rx="2" ry="2" width="12" height="12"/><rect class="c" x="562" y="18" rx="2" ry="2" width="12" height="12"/><rect class="c" x="562" y="34" rx="2" ry="2" width="12" height="12"/><rect class="c" x="562" y="50" rx="2" ry="2" width="12" height="12"/><rect class="c" x="562" y="66" rx="2" ry="2" width="12" height="12"/><rect class="c" x="562" y="82" rx="2" ry="2" width="12" height="12"/><rect class="c" x="562" y="98" rx="2" ry="2" width="12" height="12"/><rect class="c" x="578" y="2" rx="2" ry="2" width="12" height="12"/><rect class="c" x="578" y="18" rx="2" ry="2" width="12" height="12"/><rect class="c" x="578" y="34" rx="2" ry="2" width="12" height="12"/><rect class="c" x="578" y="50" rx="2" ry="2" width="12" height="12"/><rect class="c" x="578" y="66" rx="2" ry="2" width="12" height="12"/><rect class="c" x="578" y="82" rx="2" ry="2" width="12" height="12"/><rect class="c" x="578" y="98" rx="2" ry="2" width="12" height="12"/><rect class="c" x="594" y="2" rx="2" ry="2" width="12" height="12"/><rect class="c" x="594" y="18" rx="2" ry="2" width="12" height="12"/><rect class="c" x="594" y="34" rx="2" ry="2" width="12" height="12"/><rect class="c" x="594" y="50" rx="2" ry="2" width="12" height="12"/><rect class="c" x="594" y="66" rx="2" ry="2" width="12" height="12"/><rect class="c" x="594" y="82" rx="2" ry="2" width="12" height="12"/><rect class="c" x="594" y="98" rx="2" ry="2" width="12" height="12"/><rect class="c" x="610" y="2" rx="2" ry="2" width="12" height="12"/><rect class="c" x="610" y="18" rx="2" ry="2" width="12" height="12"/><rect class="c" x="610" y="34" rx="2" ry="2" width="12" height="12"/><rect class="c" x="610" y="50" rx="2" ry="2" width="12" height="12"/><rect class="c" x="610" y="66" rx="2" ry="2" width="12" height="12"/><rect class="c" x="610" y="82" rx="2" ry="2" width="12" height="12"/><rect class="c" x="610" y="98" rx="2" ry="2" width="12" height="12"/><rect class="c" x="626" y="2" rx="2" ry="2" width="12" height="12"/><rect class="c" x="626" y="18" rx="2" ry="2" width="12" height="12"/><rect class="c" x="626" y="34" rx="2" ry="2" width="12" height="12"/><rect class="c" x="626" y="50" rx="2" ry="2" width="12" height="12"/><rect class="c" x="626" y="66" rx="2" ry="2" width="12" height="12"/><rect class="c" x="626" y="82" rx="2" ry="2" width="12" height="12"/><rect class="c" x="626" y="98" rx="2" ry="2" width="12" height="12"/><rect class="c" x="642" y="2" rx="2" ry="2" width="12" height="12"/><rect class="c" x="642" y="18" rx="2" ry="2" width="12" height="12"/><rect class="c" x="642" y="34" rx="2" ry="2" width="12" height="12"/><rect class="c" x="642" y="50" rx="2" ry="2" width="12" height="12"/><rect class="c" x="642" y="66" rx="2" ry="2" width="12" height="12"/><rect class="c" x="642" y="82" rx="2" ry="2" width="12" height="12"/><rect class="c" x="642" y="98" rx="2" ry="2" width="12" height="12"/><rect class="c c1h" x="658" y="2" rx="2" ry="2" width="12" height="12"/><rect class="c" x="658" y="18" rx="2" ry="2" width="12" height="12"/><rect class="c" x="658" y="34" rx="2" ry="2" width="12" height="12"/><rect class="c" x="658" y="50" rx="2" ry="2" width="12" height="12"/><rect class="c" x="658" y="66" rx="2" ry="2" width="12" height="12"/><rect class="c" x="658" y="82" rx="2" ry="2" width="12" height="12"/><rect class="c" x="658" y="98" rx="2" ry="2" width="12" height="12"/><rect class="c" x="674" y="2" rx="2" ry="2" width="12" height="12"/><rect class="c c1i" x="674" y="18" rx="2" ry="2" width="12" height="12"/><rect class="c c1j" x="674" y="34" rx="2" ry="2" width="12" height="12"/><rect class="c" x="674" y="50" rx="2" ry="2" width="12" height="12"/><rect class="c" x="674" y="66" rx="2" ry="2" width="12" height="12"/><rect class="c" x="674" y="82" rx="2" ry="2" width="12" height="12"/><rect class="c" x="674" y="98" rx="2" ry="2" width="12" height="12"/><rect class="c" x="690" y="2" rx="2" ry="2" width="12" height="12"/><rect class="c" x="690" y="18" rx="2" ry="2" width="12" height="12"/><rect class="c" x="690" y="34" rx="2" ry="2" width="12" height="12"/><rect class="c" x="690" y="50" rx="2" ry="2" width="12" height="12"/><rect class="c" x="690" y="66" rx="2" ry="2" width="12" height="12"/><rect class="c" x="690" y="82" rx="2" ry="2" width="12" height="12"/><rect class="c" x="690" y="98" rx="2" ry="2" width="12" height="12"/><rect class="c" x="706" y="2" rx="2" ry="2" width="12" height="12"/><rect class="c" x="706" y="18" rx="2" ry="2" width="12" height="12"/><rect class="c" x="706" y="34" rx="2" ry="2" width="12" height="12"/><rect class="c" x="706" y="50" rx="2" ry="2" width="12" height="12"/><rect class="c" x="706" y="66" rx="2" ry="2" width="12" height="12"/><rect class="c" x="706" y="82" rx="2" ry="2" width="12" height="12"/><rect class="c" x="706" y="98" rx="2" ry="2" width="12" height="12"/><rect class="c" x="722" y="2" rx="2" ry="2" width="12" height="12"/><rect class="c" x="722" y="18" rx="2" ry="2" width="12" height="12"/><rect class="c" x="722" y="34" rx="2" ry="2" width="12" height="12"/><rect class="c" x="722" y="50" rx="2" ry="2" width="12" height="12"/><rect class="c" x="722" y="66" rx="2" ry="2" width="12" height="12"/><rect class="c" x="722" y="82" rx="2" ry="2" width="12" height="12"/><rect class="c c1k" x="722" y="98" rx="2" ry="2" width="12" height="12"/><rect class="c" x="738" y="2" rx="2" ry="2" width="12" height="12"/><rect class="c" x="738" y="18" rx="2" ry="2" width="12" height="12"/><rect class="c c1l" x="738" y="34" rx="2" ry="2" width="12" height="12"/><rect class="c c1m" x="738" y="50" rx="2" ry="2" width="12" height="12"/><rect class="c" x="738" y="66" rx="2" ry="2" width="12" height="12"/><rect class="c c1n" x="738" y="82" rx="2" ry="2" width="12" height="12"/><rect class="c" x="738" y="98" rx="2" ry="2" width="12" height="12"/><rect class="c" x="754" y="2" rx="2" ry="2" width="12" height="12"/><rect class="c c1o" x="754" y="18" rx="2" ry="2" width="12" height="12"/><rect class="c" x="754" y="34" rx="2" ry="2" width="12" height="12"/><rect class="c c1p" x="754" y="50" rx="2" ry="2" width="12" height="12"/><rect class="c c1q" x="754" y="66" rx="2" ry="2" width="12" height="12"/><rect class="c" x="754" y="82" rx="2" ry="2" width="12" height="12"/><rect class="c c1r" x="754" y="98" rx="2" ry="2" width="12" height="12"/><rect class="c" x="770" y="2" rx="2" ry="2" width="12" height="12"/><rect class="c" x="770" y="18" rx="2" ry="2" width="12" height="12"/><rect class="c" x="770" y="34" rx="2" ry="2" width="12" height="12"/><rect class="c" x="770" y="50" rx="2" ry="2" width="12" height="12"/><rect class="c" x="770" y="66" rx="2" ry="2" width="12" height="12"/><rect class="c" x="770" y="82" rx="2" ry="2" width="12" height="12"/><rect class="c" x="770" y="98" rx="2" ry="2" width="12" height="12"/><rect class="c" x="786" y="2" rx="2" ry="2" width="12" height="12"/><rect class="c" x="786" y="18" rx="2" ry="2" width="12" height="12"/><rect class="c" x="786" y="34" rx="2" ry="2" width="12" height="12"/><rect class="c" x="786" y="50" rx="2" ry="2" width="12" height="12"/><rect class="c" x="786" y="66" rx="2" ry="2" width="12" height="12"/><rect class="c" x="786" y="82" rx="2" ry="2" width="12" height="12"/><rect class="c" x="786" y="98" rx="2" ry="2" width="12" height="12"/><rect class="c" x="802" y="2" rx="2" ry="2" width="12" height="12"/><rect class="c" x="802" y="18" rx="2" ry="2" width="12" height="12"/><rect class="c" x="802" y="34" rx="2" ry="2" width="12" height="12"/><rect class="c" x="802" y="50" rx="2" ry="2" width="12" height="12"/><rect class="c" x="802" y="66" rx="2" ry="2" width="12" height="12"/><rect class="c" x="802" y="82" rx="2" ry="2" width="12" height="12"/><rect class="c c1s" x="802" y="98" rx="2" ry="2" width="12" height="12"/><rect class="c" x="818" y="2" rx="2" ry="2" width="12" height="12"/><rect class="c" x="818" y="18" rx="2" ry="2" width="12" height="12"/><rect class="c" x="818" y="34" rx="2" ry="2" width="12" height="12"/><rect class="c" x="818" y="50" rx="2" ry="2" width="12" height="12"/><rect class="c" x="818" y="66" rx="2" ry="2" width="12" height="12"/><rect class="c" x="818" y="82" rx="2" ry="2" width="12" height="12"/><rect class="c c1t" x="818" y="98" rx="2" ry="2" width="12" height="12"/><rect class="c c1u" x="834" y="2" rx="2" ry="2" width="12" height="12"/><rect class="c" x="834" y="18" rx="2" ry="2" width="12" height="12"/><rect class="c" x="834" y="34" rx="2" ry="2" width="12" height="12"/><rect class="c" x="834" y="50" rx="2" ry="2" width="12" height="12"/><rect class="c" x="834" y="66" rx="2" ry="2" width="12" height="12"/><rect class="c" x="834" y="82" rx="2" ry="2" width="12" height="12"/><rect class="c" x="834" y="98" rx="2" ry="2" width="12" height="12"/><rect class="u u0" height="12" width="671.4" x="0.0" y="144"/><rect class="u u1" height="12" width="165.1" x="670.8" y="144"/><rect class="u u2" height="12" width="13.3" x="835.3" y="144"/><rect class="s s0" x="0.8" y="0.8" width="14.4" height="14.4" rx="4.5" ry="4.5"/><rect class="s s1" x="1.8" y="1.8" width="12.3" height="12.3" rx="4.1" ry="4.1"/><rect class="s s2" x="2.6" y="2.6" width="10.8" height="10.8" rx="3.6" ry="3.6"/><rect class="s s3" x="3.0" y="3.0" width="9.9" height="9.9" rx="3.3" ry="3.3"/></svg>