<svg viewBox="-16 -32 880 192" width="880" height="192" xmlns="http://www.w3.org/2000/svg"><desc>Generated with https://github.com/Platane/snk</desc><style>@keyframes c0{68.45%{fill:var(--c2)}68.47%,to{fill:var(--ce)}}@keyframes c1{2.89%{fill:var(--c1)}2.91%,to{fill:var(--ce)}}@keyframes c2{3.31%{fill:var(--c1)}3.33%,to{fill:var(--ce)}}@keyframes c3{4.55%{fill:var(--c1)}4.57%,to{fill:var(--ce)}}@keyframes c4{1.65%{fill:var(--c1)}1.67%,to{fill:var(--ce)}}@keyframes c5{2.48%{fill:var(--c1)}2.5%,to{fill:var(--ce)}}@keyframes c6{3.72%{fill:var(--c1)}3.74%,to{fill:var(--ce)}}@keyframes c7{4.14%{fill:var(--c1)}4.16%,to{fill:var(--ce)}}@keyframes c8{71.77%{fill:var(--c3)}71.79%,to{fill:var(--ce)}}@keyframes c9{72.19%{fill:var(--c3)}72.21%,to{fill:var(--ce)}}@keyframes ca{69.7%{fill:var(--c3)}69.72%,to{fill:var(--ce)}}@keyframes cb{7.46%{fill:var(--c1)}7.48%,to{fill:var(--ce)}}@keyframes cc{65.97%{fill:var(--c2)}65.99%,to{fill:var(--ce)}}@keyframes cd{14.1%{fill:var(--c1)}14.12%,to{fill:var(--ce)}}@keyframes ce{13.27%{fill:var(--c1)}13.29%,to{fill:var(--ce)}}@keyframes cf{12.85%{fill:var(--c1)}12.87%,to{fill:var(--ce)}}@keyframes cg{59.74%{fill:var(--c2)}59.76%,to{fill:var(--ce)}}@keyframes ch{17.83%{fill:var(--c1)}17.85%,to{fill:var(--ce)}}@keyframes ci{18.25%{fill:var(--c1)}18.27%,to{fill:var(--ce)}}@keyframes cj{58.91%{fill:var(--c2)}58.93%,to{fill:var(--ce)}}@keyframes ck{17%{fill:var(--c1)}17.02%,to{fill:var(--ce)}}@keyframes cl{90.86%{fill:var(--c4)}90.88%,to{fill:var(--ce)}}@keyframes cm{19.08%{fill:var(--c1)}19.1%,to{fill:var(--ce)}}@keyframes cn{19.91%{fill:var(--c1)}19.93%,to{fill:var(--ce)}}@keyframes co{56.84%{fill:var(--c2)}56.86%,to{fill:var(--ce)}}@keyframes cp{80.49%{fill:var(--c3)}80.51%,to{fill:var(--ce)}}@keyframes cq{53.52%{fill:var(--c2)}53.54%,to{fill:var(--ce)}}@keyframes cr{87.13%{fill:var(--c3)}87.15%,to{fill:var(--ce)}}@keyframes cs{87.54%{fill:var(--c4)}87.56%,to{fill:var(--ce)}}@keyframes ct{82.56%{fill:var(--c3)}82.58%,to{fill:var(--ce)}}@keyframes cu{24.89%{fill:var(--c1)}24.91%,to{fill:var(--ce)}}@keyframes cv{51.44%{fill:var(--c2)}51.46%,to{fill:var(--ce)}}@keyframes cw{25.3%{fill:var(--c1)}25.32%,to{fill:var(--ce)}}@keyframes cx{84.64%{fill:var(--c3)}84.66%,to{fill:var(--ce)}}@keyframes cy{27.79%{fill:var(--c1)}27.81%,to{fill:var(--ce)}}@keyframes cz{31.94%{fill:var(--c1)}31.96%,to{fill:var(--ce)}}@keyframes c10{31.53%{fill:var(--c1)}31.55%,to{fill:var(--ce)}}@keyframes c11{38.16%{fill:var(--c1)}38.18%,to{fill:var(--ce)}}@keyframes c12{38.58%{fill:var(--c1)}38.6%,to{fill:var(--ce)}}@keyframes c13{39.82%{fill:var(--c2)}39.84%,to{fill:var(--ce)}}@keyframes u0{1.65%{transform:scale(0,1)}1.67%,2.48%{transform:scale(.04,1)}2.5%,2.89%{transform:scale(.09,1)}2.91%,3.31%{transform:scale(.13,1)}3.33%,3.72%{transform:scale(.17,1)}3.74%,4.14%{transform:scale(.22,1)}4.16%,4.55%{transform:scale(.26,1)}4.57%,7.46%{transform:scale(.3,1)}12.85%,7.48%{transform:scale(.35,1)}12.87%,13.27%{transform:scale(.39,1)}13.29%,14.1%{transform:scale(.43,1)}14.12%,17%{transform:scale(.48,1)}17.02%,17.83%{transform:scale(.52,1)}17.85%,18.25%{transform:scale(.57,1)}18.27%,19.08%{transform:scale(.61,1)}19.1%,19.91%{transform:scale(.65,1)}19.93%,24.89%{transform:scale(.7,1)}24.91%,25.3%{transform:scale(.74,1)}25.32%,27.79%{transform:scale(.78,1)}27.81%,31.53%{transform:scale(.83,1)}31.55%,31.94%{transform:scale(.87,1)}31.96%,38.16%{transform:scale(.91,1)}38.18%,38.58%{transform:scale(.96,1)}38.6%,to{transform:scale(1,1)}}@keyframes u1{39.82%{transform:scale(0,1)}39.84%,51.44%{transform:scale(.13,1)}51.46%,53.52%{transform:scale(.25,1)}53.54%,56.84%{transform:scale(.38,1)}56.86%,58.91%{transform:scale(.5,1)}58.93%,59.74%{transform:scale(.63,1)}59.76%,65.97%{transform:scale(.75,1)}65.99%,68.45%{transform:scale(.88,1)}68.47%,to{transform:scale(1,1)}}@keyframes u2{69.7%{transform:scale(0,1)}69.72%,71.77%{transform:scale(.14,1)}71.79%,72.19%{transform:scale(.29,1)}72.21%,80.49%{transform:scale(.43,1)}80.51%,82.56%{transform:scale(.57,1)}82.58%,84.64%{transform:scale(.71,1)}84.66%,87.13%{transform:scale(.86,1)}87.15%,to{transform:scale(1,1)}}@keyframes u3{87.54%{transform:scale(0,1)}87.56%,90.86%{transform:scale(.5,1)}90.88%,to{transform:scale(1,1)}}@keyframes s0{0%,99.59%{transform:translate(0,-16px)}.41%{transform:translate(0,-32px)}.83%{transform:translate(16px,-32px)}2.49%,70.54%{transform:translate(16px,32px)}2.9%{transform:translate(0,32px)}3.32%,4.98%{transform:translate(0,48px)}3.73%{transform:translate(16px,48px)}4.15%{transform:translate(16px,64px)}4.56%{transform:translate(0,64px)}6.22%{transform:translate(48px,48px)}7.47%{transform:translate(48px,96px)}11.2%{transform:translate(192px,96px)}13.69%{transform:translate(192px,0)}14.11%{transform:translate(176px,0)}14.52%{transform:translate(176px,16px)}17.01%,90.04%{transform:translate(272px,16px)}17.43%{transform:translate(272px,32px)}17.84%{transform:translate(256px,32px)}18.67%{transform:translate(256px,64px)}19.09%{transform:translate(272px,64px)}19.92%{transform:translate(272px,96px)}20.75%,57.26%{transform:translate(304px,96px)}21.16%,57.68%{transform:translate(304px,80px)}22.41%{transform:translate(352px,80px)}23.65%,52.7%{transform:translate(352px,32px)}24.48%,51.87%{transform:translate(384px,32px)}24.9%{transform:translate(384px,16px)}26.97%{transform:translate(464px,16px)}27.8%{transform:translate(464px,48px)}31.12%{transform:translate(592px,48px)}31.95%{transform:translate(592px,16px)}36.93%{transform:translate(784px,16px)}38.17%{transform:translate(784px,64px)}39.42%{transform:translate(832px,64px)}39.83%{transform:translate(832px,48px)}51.45%{transform:translate(384px,48px)}53.53%{transform:translate(352px,0)}54.36%{transform:translate(320px,0)}56.85%{transform:translate(320px,96px)}59.34%{transform:translate(240px,80px)}59.75%{transform:translate(240px,96px)}60.17%{transform:translate(224px,96px)}61.83%{transform:translate(224px,32px)}65.98%{transform:translate(64px,32px)}66.8%{transform:translate(64px,0)}68.46%{transform:translate(0,0)}68.88%{transform:translate(0,16px)}69.71%{transform:translate(32px,16px)}70.12%{transform:translate(32px,32px)}72.2%{transform:translate(16px,96px)}81.33%{transform:translate(368px,96px)}82.57%{transform:translate(368px,48px)}84.23%{transform:translate(432px,48px)}85.48%{transform:translate(432px,0)}87.14%{transform:translate(368px,0)}87.55%{transform:translate(368px,16px)}90.87%{transform:translate(272px,48px)}95.85%{transform:translate(80px,48px)}96.68%{transform:translate(80px,16px)}97.1%{transform:translate(64px,16px)}97.93%{transform:translate(64px,-16px)}}@keyframes s1{0%,99.59%{transform:translate(16px,-16px)}.41%{transform:translate(0,-16px)}.83%{transform:translate(0,-32px)}1.24%{transform:translate(16px,-32px)}2.9%,70.95%{transform:translate(16px,32px)}3.32%{transform:translate(0,32px)}3.73%,5.39%{transform:translate(0,48px)}4.15%{transform:translate(16px,48px)}4.56%{transform:translate(16px,64px)}4.98%{transform:translate(0,64px)}6.64%{transform:translate(48px,48px)}7.88%{transform:translate(48px,96px)}11.62%{transform:translate(192px,96px)}14.11%{transform:translate(192px,0)}14.52%{transform:translate(176px,0)}14.94%{transform:translate(176px,16px)}17.43%,90.46%{transform:translate(272px,16px)}17.84%{transform:translate(272px,32px)}18.26%{transform:translate(256px,32px)}19.09%{transform:translate(256px,64px)}19.5%{transform:translate(272px,64px)}20.33%{transform:translate(272px,96px)}21.16%,57.68%{transform:translate(304px,96px)}21.58%,58.09%{transform:translate(304px,80px)}22.82%{transform:translate(352px,80px)}24.07%,53.11%{transform:translate(352px,32px)}24.9%,52.28%{transform:translate(384px,32px)}25.31%{transform:translate(384px,16px)}27.39%{transform:translate(464px,16px)}28.22%{transform:translate(464px,48px)}31.54%{transform:translate(592px,48px)}32.37%{transform:translate(592px,16px)}37.34%{transform:translate(784px,16px)}38.59%{transform:translate(784px,64px)}39.83%{transform:translate(832px,64px)}40.25%{transform:translate(832px,48px)}51.87%{transform:translate(384px,48px)}53.94%{transform:translate(352px,0)}54.77%{transform:translate(320px,0)}57.26%{transform:translate(320px,96px)}59.75%{transform:translate(240px,80px)}60.17%{transform:translate(240px,96px)}60.58%{transform:translate(224px,96px)}62.24%{transform:translate(224px,32px)}66.39%{transform:translate(64px,32px)}67.22%{transform:translate(64px,0)}68.88%{transform:translate(0,0)}69.29%{transform:translate(0,16px)}70.12%{transform:translate(32px,16px)}70.54%{transform:translate(32px,32px)}72.61%{transform:translate(16px,96px)}81.74%{transform:translate(368px,96px)}82.99%{transform:translate(368px,48px)}84.65%{transform:translate(432px,48px)}85.89%{transform:translate(432px,0)}87.55%{transform:translate(368px,0)}87.97%{transform:translate(368px,16px)}91.29%{transform:translate(272px,48px)}96.27%{transform:translate(80px,48px)}97.1%{transform:translate(80px,16px)}97.51%{transform:translate(64px,16px)}98.34%{transform:translate(64px,-16px)}}@keyframes s2{0%,99.59%{transform:translate(32px,-16px)}.83%{transform:translate(0,-16px)}1.24%{transform:translate(0,-32px)}1.66%{transform:translate(16px,-32px)}3.32%,71.37%{transform:translate(16px,32px)}3.73%{transform:translate(0,32px)}4.15%,5.81%{transform:translate(0,48px)}4.56%{transform:translate(16px,48px)}4.98%{transform:translate(16px,64px)}5.39%{transform:translate(0,64px)}7.05%{transform:translate(48px,48px)}8.3%{transform:translate(48px,96px)}12.03%{transform:translate(192px,96px)}14.52%{transform:translate(192px,0)}14.94%{transform:translate(176px,0)}15.35%{transform:translate(176px,16px)}17.84%,90.87%{transform:translate(272px,16px)}18.26%{transform:translate(272px,32px)}18.67%{transform:translate(256px,32px)}19.5%{transform:translate(256px,64px)}19.92%{transform:translate(272px,64px)}20.75%{transform:translate(272px,96px)}21.58%,58.09%{transform:translate(304px,96px)}21.99%,58.51%{transform:translate(304px,80px)}23.24%{transform:translate(352px,80px)}24.48%,53.53%{transform:translate(352px,32px)}25.31%,52.7%{transform:translate(384px,32px)}25.73%{transform:translate(384px,16px)}27.8%{transform:translate(464px,16px)}28.63%{transform:translate(464px,48px)}31.95%{transform:translate(592px,48px)}32.78%{transform:translate(592px,16px)}37.76%{transform:translate(784px,16px)}39%{transform:translate(784px,64px)}40.25%{transform:translate(832px,64px)}40.66%{transform:translate(832px,48px)}52.28%{transform:translate(384px,48px)}54.36%{transform:translate(352px,0)}55.19%{transform:translate(320px,0)}57.68%{transform:translate(320px,96px)}60.17%{transform:translate(240px,80px)}60.58%{transform:translate(240px,96px)}61%{transform:translate(224px,96px)}62.66%{transform:translate(224px,32px)}66.8%{transform:translate(64px,32px)}67.63%{transform:translate(64px,0)}69.29%{transform:translate(0,0)}69.71%{transform:translate(0,16px)}70.54%{transform:translate(32px,16px)}70.95%{transform:translate(32px,32px)}73.03%{transform:translate(16px,96px)}82.16%{transform:translate(368px,96px)}83.4%{transform:translate(368px,48px)}85.06%{transform:translate(432px,48px)}86.31%{transform:translate(432px,0)}87.97%{transform:translate(368px,0)}88.38%{transform:translate(368px,16px)}91.7%{transform:translate(272px,48px)}96.68%{transform:translate(80px,48px)}97.51%{transform:translate(80px,16px)}97.93%{transform:translate(64px,16px)}98.76%{transform:translate(64px,-16px)}}@keyframes s3{0%,99.59%{transform:translate(48px,-16px)}1.24%{transform:translate(0,-16px)}1.66%{transform:translate(0,-32px)}2.07%{transform:translate(16px,-32px)}3.73%,71.78%{transform:translate(16px,32px)}4.15%{transform:translate(0,32px)}4.56%,6.22%{transform:translate(0,48px)}4.98%{transform:translate(16px,48px)}5.39%{transform:translate(16px,64px)}5.81%{transform:translate(0,64px)}7.47%{transform:translate(48px,48px)}8.71%{transform:translate(48px,96px)}12.45%{transform:translate(192px,96px)}14.94%{transform:translate(192px,0)}15.35%{transform:translate(176px,0)}15.77%{transform:translate(176px,16px)}18.26%,91.29%{transform:translate(272px,16px)}18.67%{transform:translate(272px,32px)}19.09%{transform:translate(256px,32px)}19.92%{transform:translate(256px,64px)}20.33%{transform:translate(272px,64px)}21.16%{transform:translate(272px,96px)}21.99%,58.51%{transform:translate(304px,96px)}22.41%,58.92%{transform:translate(304px,80px)}23.65%{transform:translate(352px,80px)}24.9%,53.94%{transform:translate(352px,32px)}25.73%,53.11%{transform:translate(384px,32px)}26.14%{transform:translate(384px,16px)}28.22%{transform:translate(464px,16px)}29.05%{transform:translate(464px,48px)}32.37%{transform:translate(592px,48px)}33.2%{transform:translate(592px,16px)}38.17%{transform:translate(784px,16px)}39.42%{transform:translate(784px,64px)}40.66%{transform:translate(832px,64px)}41.08%{transform:translate(832px,48px)}52.7%{transform:translate(384px,48px)}54.77%{transform:translate(352px,0)}55.6%{transform:translate(320px,0)}58.09%{transform:translate(320px,96px)}60.58%{transform:translate(240px,80px)}61%{transform:translate(240px,96px)}61.41%{transform:translate(224px,96px)}63.07%{transform:translate(224px,32px)}67.22%{transform:translate(64px,32px)}68.05%{transform:translate(64px,0)}69.71%{transform:translate(0,0)}70.12%{transform:translate(0,16px)}70.95%{transform:translate(32px,16px)}71.37%{transform:translate(32px,32px)}73.44%{transform:translate(16px,96px)}82.57%{transform:translate(368px,96px)}83.82%{transform:translate(368px,48px)}85.48%{transform:translate(432px,48px)}86.72%{transform:translate(432px,0)}88.38%{transform:translate(368px,0)}88.8%{transform:translate(368px,16px)}92.12%{transform:translate(272px,48px)}97.1%{transform:translate(80px,48px)}97.93%{transform:translate(80px,16px)}98.34%{transform:translate(64px,16px)}99.17%{transform:translate(64px,-16px)}}:root{--cb:#1b1f230a;--cs:purple;--ce:#ebedf0;--c0:#ebedf0;--c1:#9be9a8;--c2:#40c463;--c3:#30a14e;--c4:#216e39}@media (prefers-color-scheme:dark){:root{--cb:#1b1f230a;--cs:purple;--ce:#161b22;--c1:#01311f;--c2:#034525;--c3:#0f6d31;--c4:#00c647}}.c{shape-rendering:geometricPrecision;fill:var(--ce);stroke-width:1px;stroke:var(--cb);animation:none 24100ms linear infinite}.c.c0{fill:var(--c2);animation-name:c0}.c.c1{fill:var(--c1);animation-name:c1}.c.c2,.c.c3,.c.c4{fill:var(--c1);animation-name:c2}.c.c3,.c.c4{animation-name:c3}.c.c4{animation-name:c4}.c.c5,.c.c6,.c.c7{fill:var(--c1);animation-name:c5}.c.c6,.c.c7{animation-name:c6}.c.c7{animation-name:c7}.c.c8,.c.c9,.c.ca{fill:var(--c3);animation-name:c8}.c.c9,.c.ca{animation-name:c9}.c.ca{animation-name:ca}.c.cb{fill:var(--c1);animation-name:cb}.c.cc{fill:var(--c2);animation-name:cc}.c.cd,.c.ce,.c.cf{fill:var(--c1);animation-name:cd}.c.ce,.c.cf{animation-name:ce}.c.cf{animation-name:cf}.c.cg{fill:var(--c2);animation-name:cg}.c.ch,.c.ci{fill:var(--c1);animation-name:ch}.c.ci{animation-name:ci}.c.cj{fill:var(--c2);animation-name:cj}.c.ck{fill:var(--c1);animation-name:ck}.c.cl{fill:var(--c4);animation-name:cl}.c.cm,.c.cn{fill:var(--c1);animation-name:cm}.c.cn{animation-name:cn}.c.co{fill:var(--c2);animation-name:co}.c.cp{fill:var(--c3);animation-name:cp}.c.cq{fill:var(--c2);animation-name:cq}.c.cr{fill:var(--c3);animation-name:cr}.c.cs{fill:var(--c4);animation-name:cs}.c.ct{fill:var(--c3);animation-name:ct}.c.cu{fill:var(--c1);animation-name:cu}.c.cv{fill:var(--c2);animation-name:cv}.c.cw{fill:var(--c1);animation-name:cw}.c.cx{fill:var(--c3);animation-name:cx}.c.cy,.c.cz{fill:var(--c1);animation-name:cy}.c.cz{animation-name:cz}.c.c10,.c.c11,.c.c12{fill:var(--c1);animation-name:c10}.c.c11,.c.c12{animation-name:c11}.c.c12{animation-name:c12}.c.c13{fill:var(--c2);animation-name:c13}.s,.u{animation:none linear 24100ms infinite}.u,.u.u0{transform-origin:0 0}.u{transform:scale(0,1)}.u.u0{fill:var(--c1);animation-name:u0}.u.u1{fill:var(--c2);animation-name:u1;transform-origin:487.6px 0}.u.u2{fill:var(--c3);animation-name:u2;transform-origin:657.2px 0}.u.u3{fill:var(--c4);animation-name:u3;transform-origin:805.6px 0}.s{shape-rendering:geometricPrecision;fill:var(--cs)}.s.s0{transform:translate(0,-16px);animation-name:s0}.s.s1{transform:translate(16px,-16px);animation-name:s1}.s.s2{transform:translate(32px,-16px);animation-name:s2}.s.s3{transform:translate(48px,-16px);animation-name:s3}</style><rect class="c c0" x="2" y="2" rx="2" ry="2" width="12" height="12"/><rect class="c" x="2" y="18" rx="2" ry="2" width="12" height="12"/><rect class="c c1" x="2" y="34" rx="2" ry="2" width="12" height="12"/><rect class="c c2" x="2" y="50" rx="2" ry="2" width="12" height="12"/><rect class="c c3" x="2" y="66" rx="2" ry="2" width="12" height="12"/><rect class="c" x="2" y="82" rx="2" ry="2" width="12" height="12"/><rect class="c" x="2" y="98" rx="2" ry="2" width="12" height="12"/><rect class="c c4" x="18" y="2" rx="2" ry="2" width="12" height="12"/><rect class="c" x="18" y="18" rx="2" ry="2" width="12" height="12"/><rect class="c c5" x="18" y="34" rx="2" ry="2" width="12" height="12"/><rect class="c c6" x="18" y="50" rx="2" ry="2" width="12" height="12"/><rect class="c c7" x="18" y="66" rx="2" ry="2" width="12" height="12"/><rect class="c c8" x="18" y="82" rx="2" ry="2" width="12" height="12"/><rect class="c c9" x="18" y="98" rx="2" ry="2" width="12" height="12"/><rect class="c" x="34" y="2" rx="2" ry="2" width="12" height="12"/><rect class="c ca" x="34" y="18" rx="2" ry="2" width="12" height="12"/><rect class="c" x="34" y="34" rx="2" ry="2" width="12" height="12"/><rect class="c" x="34" y="50" rx="2" ry="2" width="12" height="12"/><rect class="c" x="34" y="66" rx="2" ry="2" width="12" height="12"/><rect class="c" x="34" y="82" rx="2" ry="2" width="12" height="12"/><rect class="c" x="34" y="98" rx="2" ry="2" width="12" height="12"/><rect class="c" x="50" y="2" rx="2" ry="2" width="12" height="12"/><rect class="c" x="50" y="18" rx="2" ry="2" width="12" height="12"/><rect class="c" x="50" y="34" rx="2" ry="2" width="12" height="12"/><rect class="c" x="50" y="50" rx="2" ry="2" width="12" height="12"/><rect class="c" x="50" y="66" rx="2" ry="2" width="12" height="12"/><rect class="c" x="50" y="82" rx="2" ry="2" width="12" height="12"/><rect class="c cb" x="50" y="98" rx="2" ry="2" width="12" height="12"/><rect class="c" x="66" y="2" rx="2" ry="2" width="12" height="12"/><rect class="c" x="66" y="18" rx="2" ry="2" width="12" height="12"/><rect class="c cc" x="66" y="34" rx="2" ry="2" width="12" height="12"/><rect class="c" x="66" y="50" rx="2" ry="2" width="12" height="12"/><rect class="c" x="66" y="66" rx="2" ry="2" width="12" height="12"/><rect class="c" x="66" y="82" rx="2" ry="2" width="12" height="12"/><rect class="c" x="66" y="98" rx="2" ry="2" width="12" height="12"/><rect class="c" x="82" y="2" rx="2" ry="2" width="12" height="12"/><rect class="c" x="82" y="18" rx="2" ry="2" width="12" height="12"/><rect class="c" x="82" y="34" rx="2" ry="2" width="12" height="12"/><rect class="c" x="82" y="50" rx="2" ry="2" width="12" height="12"/><rect class="c" x="82" y="66" rx="2" ry="2" width="12" height="12"/><rect class="c" x="82" y="82" rx="2" ry="2" width="12" height="12"/><rect class="c" x="82" y="98" rx="2" ry="2" width="12" height="12"/><rect class="c" x="98" y="2" rx="2" ry="2" width="12" height="12"/><rect class="c" x="98" y="18" rx="2" ry="2" width="12" height="12"/><rect class="c" x="98" y="34" rx="2" ry="2" width="12" height="12"/><rect class="c" x="98" y="50" rx="2" ry="2" width="12" height="12"/><rect class="c" x="98" y="66" rx="2" ry="2" width="12" height="12"/><rect class="c" x="98" y="82" rx="2" ry="2" width="12" height="12"/><rect class="c" x="98" y="98" rx="2" ry="2" width="12" height="12"/><rect class="c" x="114" y="2" rx="2" ry="2" width="12" height="12"/><rect class="c" x="114" y="18" rx="2" ry="2" width="12" height="12"/><rect class="c" x="114" y="34" rx="2" ry="2" width="12" height="12"/><rect class="c" x="114" y="50" rx="2" ry="2" width="12" height="12"/><rect class="c" x="114" y="66" rx="2" ry="2" width="12" height="12"/><rect class="c" x="114" y="82" rx="2" ry="2" width="12" height="12"/><rect class="c" x="114" y="98" rx="2" ry="2" width="12" height="12"/><rect class="c" x="130" y="2" rx="2" ry="2" width="12" height="12"/><rect class="c" x="130" y="18" rx="2" ry="2" width="12" height="12"/><rect class="c" x="130" y="34" rx="2" ry="2" width="12" height="12"/><rect class="c" x="130" y="50" rx="2" ry="2" width="12" height="12"/><rect class="c" x="130" y="66" rx="2" ry="2" width="12" height="12"/><rect class="c" x="130" y="82" rx="2" ry="2" width="12" height="12"/><rect class="c" x="130" y="98" rx="2" ry="2" width="12" height="12"/><rect class="c" x="146" y="2" rx="2" ry="2" width="12" height="12"/><rect class="c" x="146" y="18" rx="2" ry="2" width="12" height="12"/><rect class="c" x="146" y="34" rx="2" ry="2" width="12" height="12"/><rect class="c" x="146" y="50" rx="2" ry="2" width="12" height="12"/><rect class="c" x="146" y="66" rx="2" ry="2" width="12" height="12"/><rect class="c" x="146" y="82" rx="2" ry="2" width="12" height="12"/><rect class="c" x="146" y="98" rx="2" ry="2" width="12" height="12"/><rect class="c" x="162" y="2" rx="2" ry="2" width="12" height="12"/><rect class="c" x="162" y="18" rx="2" ry="2" width="12" height="12"/><rect class="c" x="162" y="34" rx="2" ry="2" width="12" height="12"/><rect class="c" x="162" y="50" rx="2" ry="2" width="12" height="12"/><rect class="c" x="162" y="66" rx="2" ry="2" width="12" height="12"/><rect class="c" x="162" y="82" rx="2" ry="2" width="12" height="12"/><rect class="c" x="162" y="98" rx="2" ry="2" width="12" height="12"/><rect class="c cd" x="178" y="2" rx="2" ry="2" width="12" height="12"/><rect class="c" x="178" y="18" rx="2" ry="2" width="12" height="12"/><rect class="c" x="178" y="34" rx="2" ry="2" width="12" height="12"/><rect class="c" x="178" y="50" rx="2" ry="2" width="12" height="12"/><rect class="c" x="178" y="66" rx="2" ry="2" width="12" height="12"/><rect class="c" x="178" y="82" rx="2" ry="2" width="12" height="12"/><rect class="c" x="178" y="98" rx="2" ry="2" width="12" height="12"/><rect class="c" x="194" y="2" rx="2" ry="2" width="12" height="12"/><rect class="c ce" x="194" y="18" rx="2" ry="2" width="12" height="12"/><rect class="c cf" x="194" y="34" rx="2" ry="2" width="12" height="12"/><rect class="c" x="194" y="50" rx="2" ry="2" width="12" height="12"/><rect class="c" x="194" y="66" rx="2" ry="2" width="12" height="12"/><rect class="c" x="194" y="82" rx="2" ry="2" width="12" height="12"/><rect class="c" x="194" y="98" rx="2" ry="2" width="12" height="12"/><rect class="c" x="210" y="2" rx="2" ry="2" width="12" height="12"/><rect class="c" x="210" y="18" rx="2" ry="2" width="12" height="12"/><rect class="c" x="210" y="34" rx="2" ry="2" width="12" height="12"/><rect class="c" x="210" y="50" rx="2" ry="2" width="12" height="12"/><rect class="c" x="210" y="66" rx="2" ry="2" width="12" height="12"/><rect class="c" x="210" y="82" rx="2" ry="2" width="12" height="12"/><rect class="c" x="210" y="98" rx="2" ry="2" width="12" height="12"/><rect class="c" x="226" y="2" rx="2" ry="2" width="12" height="12"/><rect class="c" x="226" y="18" rx="2" ry="2" width="12" height="12"/><rect class="c" x="226" y="34" rx="2" ry="2" width="12" height="12"/><rect class="c" x="226" y="50" rx="2" ry="2" width="12" height="12"/><rect class="c" x="226" y="66" rx="2" ry="2" width="12" height="12"/><rect class="c" x="226" y="82" rx="2" ry="2" width="12" height="12"/><rect class="c" x="226" y="98" rx="2" ry="2" width="12" height="12"/><rect class="c" x="242" y="2" rx="2" ry="2" width="12" height="12"/><rect class="c" x="242" y="18" rx="2" ry="2" width="12" height="12"/><rect class="c" x="242" y="34" rx="2" ry="2" width="12" height="12"/><rect class="c" x="242" y="50" rx="2" ry="2" width="12" height="12"/><rect class="c" x="242" y="66" rx="2" ry="2" width="12" height="12"/><rect class="c" x="242" y="82" rx="2" ry="2" width="12" height="12"/><rect class="c cg" x="242" y="98" rx="2" ry="2" width="12" height="12"/><rect class="c" x="258" y="2" rx="2" ry="2" width="12" height="12"/><rect class="c" x="258" y="18" rx="2" ry="2" width="12" height="12"/><rect class="c ch" x="258" y="34" rx="2" ry="2" width="12" height="12"/><rect class="c ci" x="258" y="50" rx="2" ry="2" width="12" height="12"/><rect class="c" x="258" y="66" rx="2" ry="2" width="12" height="12"/><rect class="c cj" x="258" y="82" rx="2" ry="2" width="12" height="12"/><rect class="c" x="258" y="98" rx="2" ry="2" width="12" height="12"/><rect class="c" x="274" y="2" rx="2" ry="2" width="12" height="12"/><rect class="c ck" x="274" y="18" rx="2" ry="2" width="12" height="12"/><rect class="c" x="274" y="34" rx="2" ry="2" width="12" height="12"/><rect class="c cl" x="274" y="50" rx="2" ry="2" width="12" height="12"/><rect class="c cm" x="274" y="66" rx="2" ry="2" width="12" height="12"/><rect class="c" x="274" y="82" rx="2" ry="2" width="12" height="12"/><rect class="c cn" x="274" y="98" rx="2" ry="2" width="12" height="12"/><rect class="c" x="290" y="2" rx="2" ry="2" width="12" height="12"/><rect class="c" x="290" y="18" rx="2" ry="2" width="12" height="12"/><rect class="c" x="290" y="34" rx="2" ry="2" width="12" height="12"/><rect class="c" x="290" y="50" rx="2" ry="2" width="12" height="12"/><rect class="c" x="290" y="66" rx="2" ry="2" width="12" height="12"/><rect class="c" x="290" y="82" rx="2" ry="2" width="12" height="12"/><rect class="c" x="290" y="98" rx="2" ry="2" width="12" height="12"/><rect class="c" x="306" y="2" rx="2" ry="2" width="12" height="12"/><rect class="c" x="306" y="18" rx="2" ry="2" width="12" height="12"/><rect class="c" x="306" y="34" rx="2" ry="2" width="12" height="12"/><rect class="c" x="306" y="50" rx="2" ry="2" width="12" height="12"/><rect class="c" x="306" y="66" rx="2" ry="2" width="12" height="12"/><rect class="c" x="306" y="82" rx="2" ry="2" width="12" height="12"/><rect class="c" x="306" y="98" rx="2" ry="2" width="12" height="12"/><rect class="c" x="322" y="2" rx="2" ry="2" width="12" height="12"/><rect class="c" x="322" y="18" rx="2" ry="2" width="12" height="12"/><rect class="c" x="322" y="34" rx="2" ry="2" width="12" height="12"/><rect class="c" x="322" y="50" rx="2" ry="2" width="12" height="12"/><rect class="c" x="322" y="66" rx="2" ry="2" width="12" height="12"/><rect class="c" x="322" y="82" rx="2" ry="2" width="12" height="12"/><rect class="c co" x="322" y="98" rx="2" ry="2" width="12" height="12"/><rect class="c" x="338" y="2" rx="2" ry="2" width="12" height="12"/><rect class="c" x="338" y="18" rx="2" ry="2" width="12" height="12"/><rect class="c" x="338" y="34" rx="2" ry="2" width="12" height="12"/><rect class="c" x="338" y="50" rx="2" ry="2" width="12" height="12"/><rect class="c" x="338" y="66" rx="2" ry="2" width="12" height="12"/><rect class="c" x="338" y="82" rx="2" ry="2" width="12" height="12"/><rect class="c cp" x="338" y="98" rx="2" ry="2" width="12" height="12"/><rect class="c cq" x="354" y="2" rx="2" ry="2" width="12" height="12"/><rect class="c" x="354" y="18" rx="2" ry="2" width="12" height="12"/><rect class="c" x="354" y="34" rx="2" ry="2" width="12" height="12"/><rect class="c" x="354" y="50" rx="2" ry="2" width="12" height="12"/><rect class="c" x="354" y="66" rx="2" ry="2" width="12" height="12"/><rect class="c" x="354" y="82" rx="2" ry="2" width="12" height="12"/><rect class="c" x="354" y="98" rx="2" ry="2" width="12" height="12"/><rect class="c cr" x="370" y="2" rx="2" ry="2" width="12" height="12"/><rect class="c cs" x="370" y="18" rx="2" ry="2" width="12" height="12"/><rect class="c" x="370" y="34" rx="2" ry="2" width="12" height="12"/><rect class="c ct" x="370" y="50" rx="2" ry="2" width="12" height="12"/><rect class="c" x="370" y="66" rx="2" ry="2" width="12" height="12"/><rect class="c" x="370" y="82" rx="2" ry="2" width="12" height="12"/><rect class="c" x="370" y="98" rx="2" ry="2" width="12" height="12"/><rect class="c" x="386" y="2" rx="2" ry="2" width="12" height="12"/><rect class="c cu" x="386" y="18" rx="2" ry="2" width="12" height="12"/><rect class="c" x="386" y="34" rx="2" ry="2" width="12" height="12"/><rect class="c cv" x="386" y="50" rx="2" ry="2" width="12" height="12"/><rect class="c" x="386" y="66" rx="2" ry="2" width="12" height="12"/><rect class="c" x="386" y="82" rx="2" ry="2" width="12" height="12"/><rect class="c" x="386" y="98" rx="2" ry="2" width="12" height="12"/><rect class="c" x="402" y="2" rx="2" ry="2" width="12" height="12"/><rect class="c cw" x="402" y="18" rx="2" ry="2" width="12" height="12"/><rect class="c" x="402" y="34" rx="2" ry="2" width="12" height="12"/><rect class="c" x="402" y="50" rx="2" ry="2" width="12" height="12"/><rect class="c" x="402" y="66" rx="2" ry="2" width="12" height="12"/><rect class="c" x="402" y="82" rx="2" ry="2" width="12" height="12"/><rect class="c" x="402" y="98" rx="2" ry="2" width="12" height="12"/><rect class="c" x="418" y="2" rx="2" ry="2" width="12" height="12"/><rect class="c" x="418" y="18" rx="2" ry="2" width="12" height="12"/><rect class="c" x="418" y="34" rx="2" ry="2" width="12" height="12"/><rect class="c" x="418" y="50" rx="2" ry="2" width="12" height="12"/><rect class="c" x="418" y="66" rx="2" ry="2" width="12" height="12"/><rect class="c" x="418" y="82" rx="2" ry="2" width="12" height="12"/><rect class="c" x="418" y="98" rx="2" ry="2" width="12" height="12"/><rect class="c" x="434" y="2" rx="2" ry="2" width="12" height="12"/><rect class="c" x="434" y="18" rx="2" ry="2" width="12" height="12"/><rect class="c cx" x="434" y="34" rx="2" ry="2" width="12" height="12"/><rect class="c" x="434" y="50" rx="2" ry="2" width="12" height="12"/><rect class="c" x="434" y="66" rx="2" ry="2" width="12" height="12"/><rect class="c" x="434" y="82" rx="2" ry="2" width="12" height="12"/><rect class="c" x="434" y="98" rx="2" ry="2" width="12" height="12"/><rect class="c" x="450" y="2" rx="2" ry="2" width="12" height="12"/><rect class="c" x="450" y="18" rx="2" ry="2" width="12" height="12"/><rect class="c" x="450" y="34" rx="2" ry="2" width="12" height="12"/><rect class="c" x="450" y="50" rx="2" ry="2" width="12" height="12"/><rect class="c" x="450" y="66" rx="2" ry="2" width="12" height="12"/><rect class="c" x="450" y="82" rx="2" ry="2" width="12" height="12"/><rect class="c" x="450" y="98" rx="2" ry="2" width="12" height="12"/><rect class="c" x="466" y="2" rx="2" ry="2" width="12" height="12"/><rect class="c" x="466" y="18" rx="2" ry="2" width="12" height="12"/><rect class="c" x="466" y="34" rx="2" ry="2" width="12" height="12"/><rect class="c cy" x="466" y="50" rx="2" ry="2" width="12" height="12"/><rect class="c" x="466" y="66" rx="2" ry="2" width="12" height="12"/><rect class="c" x="466" y="82" rx="2" ry="2" width="12" height="12"/><rect class="c" x="466" y="98" rx="2" ry="2" width="12" height="12"/><rect class="c" x="482" y="2" rx="2" ry="2" width="12" height="12"/><rect class="c" x="482" y="18" rx="2" ry="2" width="12" height="12"/><rect class="c" x="482" y="34" rx="2" ry="2" width="12" height="12"/><rect class="c" x="482" y="50" rx="2" ry="2" width="12" height="12"/><rect class="c" x="482" y="66" rx="2" ry="2" width="12" height="12"/><rect class="c" x="482" y="82" rx="2" ry="2" width="12" height="12"/><rect class="c" x="482" y="98" rx="2" ry="2" width="12" height="12"/><rect class="c" x="498" y="2" rx="2" ry="2" width="12" height="12"/><rect class="c" x="498" y="18" rx="2" ry="2" width="12" height="12"/><rect class="c" x="498" y="34" rx="2" ry="2" width="12" height="12"/><rect class="c" x="498" y="50" rx="2" ry="2" width="12" height="12"/><rect class="c" x="498" y="66" rx="2" ry="2" width="12" height="12"/><rect class="c" x="498" y="82" rx="2" ry="2" width="12" height="12"/><rect class="c" x="498" y="98" rx="2" ry="2" width="12" height="12"/><rect class="c" x="514" y="2" rx="2" ry="2" width="12" height="12"/><rect class="c" x="514" y="18" rx="2" ry="2" width="12" height="12"/><rect class="c" x="514" y="34" rx="2" ry="2" width="12" height="12"/><rect class="c" x="514" y="50" rx="2" ry="2" width="12" height="12"/><rect class="c" x="514" y="66" rx="2" ry="2" width="12" height="12"/><rect class="c" x="514" y="82" rx="2" ry="2" width="12" height="12"/><rect class="c" x="514" y="98" rx="2" ry="2" width="12" height="12"/><rect class="c" x="530" y="2" rx="2" ry="2" width="12" height="12"/><rect class="c" x="530" y="18" rx="2" ry="2" width="12" height="12"/><rect class="c" x="530" y="34" rx="2" ry="2" width="12" height="12"/><rect class="c" x="530" y="50" rx="2" ry="2" width="12" height="12"/><rect class="c" x="530" y="66" rx="2" ry="2" width="12" height="12"/><rect class="c" x="530" y="82" rx="2" ry="2" width="12" height="12"/><rect class="c" x="530" y="98" rx="2" ry="2" width="12" height="12"/><rect class="c" x="546" y="2" rx="2" ry="2" width="12" height="12"/><rect class="c" x="546" y="18" rx="2" ry="2" width="12" height="12"/><rect class="c" x="546" y="34" rx="2" ry="2" width="12" height="12"/><rect class="c" x="546" y="50" rx="2" ry="2" width="12" height="12"/><rect class="c" x="546" y="66" rx="2" ry="2" width="12" height="12"/><rect class="c" x="546" y="82" rx="2" ry="2" width="12" height="12"/><rect class="c" x="546" y="98" rx="2" ry="2" width="12" height="12"/><rect class="c" x="562" y="2" rx="2" ry="2" width="12" height="12"/><rect class="c" x="562" y="18" rx="2" ry="2" width="12" height="12"/><rect class="c" x="562" y="34" rx="2" ry="2" width="12" height="12"/><rect class="c" x="562" y="50" rx="2" ry="2" width="12" height="12"/><rect class="c" x="562" y="66" rx="2" ry="2" width="12" height="12"/><rect class="c" x="562" y="82" rx="2" ry="2" width="12" height="12"/><rect class="c" x="562" y="98" rx="2" ry="2" width="12" height="12"/><rect class="c" x="578" y="2" rx="2" ry="2" width="12" height="12"/><rect class="c" x="578" y="18" rx="2" ry="2" width="12" height="12"/><rect class="c" x="578" y="34" rx="2" ry="2" width="12" height="12"/><rect class="c" x="578" y="50" rx="2" ry="2" width="12" height="12"/><rect class="c" x="578" y="66" rx="2" ry="2" width="12" height="12"/><rect class="c" x="578" y="82" rx="2" ry="2" width="12" height="12"/><rect class="c" x="578" y="98" rx="2" ry="2" width="12" height="12"/><rect class="c" x="594" y="2" rx="2" ry="2" width="12" height="12"/><rect class="c cz" x="594" y="18" rx="2" ry="2" width="12" height="12"/><rect class="c c10" x="594" y="34" rx="2" ry="2" width="12" height="12"/><rect class="c" x="594" y="50" rx="2" ry="2" width="12" height="12"/><rect class="c" x="594" y="66" rx="2" ry="2" width="12" height="12"/><rect class="c" x="594" y="82" rx="2" ry="2" width="12" height="12"/><rect class="c" x="594" y="98" rx="2" ry="2" width="12" height="12"/><rect class="c" x="610" y="2" rx="2" ry="2" width="12" height="12"/><rect class="c" x="610" y="18" rx="2" ry="2" width="12" height="12"/><rect class="c" x="610" y="34" rx="2" ry="2" width="12" height="12"/><rect class="c" x="610" y="50" rx="2" ry="2" width="12" height="12"/><rect class="c" x="610" y="66" rx="2" ry="2" width="12" height="12"/><rect class="c" x="610" y="82" rx="2" ry="2" width="12" height="12"/><rect class="c" x="610" y="98" rx="2" ry="2" width="12" height="12"/><rect class="c" x="626" y="2" rx="2" ry="2" width="12" height="12"/><rect class="c" x="626" y="18" rx="2" ry="2" width="12" height="12"/><rect class="c" x="626" y="34" rx="2" ry="2" width="12" height="12"/><rect class="c" x="626" y="50" rx="2" ry="2" width="12" height="12"/><rect class="c" x="626" y="66" rx="2" ry="2" width="12" height="12"/><rect class="c" x="626" y="82" rx="2" ry="2" width="12" height="12"/><rect class="c" x="626" y="98" rx="2" ry="2" width="12" height="12"/><rect class="c" x="642" y="2" rx="2" ry="2" width="12" height="12"/><rect class="c" x="642" y="18" rx="2" ry="2" width="12" height="12"/><rect class="c" x="642" y="34" rx="2" ry="2" width="12" height="12"/><rect class="c" x="642" y="50" rx="2" ry="2" width="12" height="12"/><rect class="c" x="642" y="66" rx="2" ry="2" width="12" height="12"/><rect class="c" x="642" y="82" rx="2" ry="2" width="12" height="12"/><rect class="c" x="642" y="98" rx="2" ry="2" width="12" height="12"/><rect class="c" x="658" y="2" rx="2" ry="2" width="12" height="12"/><rect class="c" x="658" y="18" rx="2" ry="2" width="12" height="12"/><rect class="c" x="658" y="34" rx="2" ry="2" width="12" height="12"/><rect class="c" x="658" y="50" rx="2" ry="2" width="12" height="12"/><rect class="c" x="658" y="66" rx="2" ry="2" width="12" height="12"/><rect class="c" x="658" y="82" rx="2" ry="2" width="12" height="12"/><rect class="c" x="658" y="98" rx="2" ry="2" width="12" height="12"/><rect class="c" x="674" y="2" rx="2" ry="2" width="12" height="12"/><rect class="c" x="674" y="18" rx="2" ry="2" width="12" height="12"/><rect class="c" x="674" y="34" rx="2" ry="2" width="12" height="12"/><rect class="c" x="674" y="50" rx="2" ry="2" width="12" height="12"/><rect class="c" x="674" y="66" rx="2" ry="2" width="12" height="12"/><rect class="c" x="674" y="82" rx="2" ry="2" width="12" height="12"/><rect class="c" x="674" y="98" rx="2" ry="2" width="12" height="12"/><rect class="c" x="690" y="2" rx="2" ry="2" width="12" height="12"/><rect class="c" x="690" y="18" rx="2" ry="2" width="12" height="12"/><rect class="c" x="690" y="34" rx="2" ry="2" width="12" height="12"/><rect class="c" x="690" y="50" rx="2" ry="2" width="12" height="12"/><rect class="c" x="690" y="66" rx="2" ry="2" width="12" height="12"/><rect class="c" x="690" y="82" rx="2" ry="2" width="12" height="12"/><rect class="c" x="690" y="98" rx="2" ry="2" width="12" height="12"/><rect class="c" x="706" y="2" rx="2" ry="2" width="12" height="12"/><rect class="c" x="706" y="18" rx="2" ry="2" width="12" height="12"/><rect class="c" x="706" y="34" rx="2" ry="2" width="12" height="12"/><rect class="c" x="706" y="50" rx="2" ry="2" width="12" height="12"/><rect class="c" x="706" y="66" rx="2" ry="2" width="12" height="12"/><rect class="c" x="706" y="82" rx="2" ry="2" width="12" height="12"/><rect class="c" x="706" y="98" rx="2" ry="2" width="12" height="12"/><rect class="c" x="722" y="2" rx="2" ry="2" width="12" height="12"/><rect class="c" x="722" y="18" rx="2" ry="2" width="12" height="12"/><rect class="c" x="722" y="34" rx="2" ry="2" width="12" height="12"/><rect class="c" x="722" y="50" rx="2" ry="2" width="12" height="12"/><rect class="c" x="722" y="66" rx="2" ry="2" width="12" height="12"/><rect class="c" x="722" y="82" rx="2" ry="2" width="12" height="12"/><rect class="c" x="722" y="98" rx="2" ry="2" width="12" height="12"/><rect class="c" x="738" y="2" rx="2" ry="2" width="12" height="12"/><rect class="c" x="738" y="18" rx="2" ry="2" width="12" height="12"/><rect class="c" x="738" y="34" rx="2" ry="2" width="12" height="12"/><rect class="c" x="738" y="50" rx="2" ry="2" width="12" height="12"/><rect class="c" x="738" y="66" rx="2" ry="2" width="12" height="12"/><rect class="c" x="738" y="82" rx="2" ry="2" width="12" height="12"/><rect class="c" x="738" y="98" rx="2" ry="2" width="12" height="12"/><rect class="c" x="754" y="2" rx="2" ry="2" width="12" height="12"/><rect class="c" x="754" y="18" rx="2" ry="2" width="12" height="12"/><rect class="c" x="754" y="34" rx="2" ry="2" width="12" height="12"/><rect class="c" x="754" y="50" rx="2" ry="2" width="12" height="12"/><rect class="c" x="754" y="66" rx="2" ry="2" width="12" height="12"/><rect class="c" x="754" y="82" rx="2" ry="2" width="12" height="12"/><rect class="c" x="754" y="98" rx="2" ry="2" width="12" height="12"/><rect class="c" x="770" y="2" rx="2" ry="2" width="12" height="12"/><rect class="c" x="770" y="18" rx="2" ry="2" width="12" height="12"/><rect class="c" x="770" y="34" rx="2" ry="2" width="12" height="12"/><rect class="c" x="770" y="50" rx="2" ry="2" width="12" height="12"/><rect class="c" x="770" y="66" rx="2" ry="2" width="12" height="12"/><rect class="c" x="770" y="82" rx="2" ry="2" width="12" height="12"/><rect class="c" x="770" y="98" rx="2" ry="2" width="12" height="12"/><rect class="c" x="786" y="2" rx="2" ry="2" width="12" height="12"/><rect class="c" x="786" y="18" rx="2" ry="2" width="12" height="12"/><rect class="c" x="786" y="34" rx="2" ry="2" width="12" height="12"/><rect class="c" x="786" y="50" rx="2" ry="2" width="12" height="12"/><rect class="c c11" x="786" y="66" rx="2" ry="2" width="12" height="12"/><rect class="c" x="786" y="82" rx="2" ry="2" width="12" height="12"/><rect class="c" x="786" y="98" rx="2" ry="2" width="12" height="12"/><rect class="c" x="802" y="2" rx="2" ry="2" width="12" height="12"/><rect class="c" x="802" y="18" rx="2" ry="2" width="12" height="12"/><rect class="c" x="802" y="34" rx="2" ry="2" width="12" height="12"/><rect class="c" x="802" y="50" rx="2" ry="2" width="12" height="12"/><rect class="c c12" x="802" y="66" rx="2" ry="2" width="12" height="12"/><rect class="c" x="802" y="82" rx="2" ry="2" width="12" height="12"/><rect class="c" x="802" y="98" rx="2" ry="2" width="12" height="12"/><rect class="c" x="818" y="2" rx="2" ry="2" width="12" height="12"/><rect class="c" x="818" y="18" rx="2" ry="2" width="12" height="12"/><rect class="c" x="818" y="34" rx="2" ry="2" width="12" height="12"/><rect class="c" x="818" y="50" rx="2" ry="2" width="12" height="12"/><rect class="c" x="818" y="66" rx="2" ry="2" width="12" height="12"/><rect class="c" x="818" y="82" rx="2" ry="2" width="12" height="12"/><rect class="c" x="818" y="98" rx="2" ry="2" width="12" height="12"/><rect class="c" x="834" y="2" rx="2" ry="2" width="12" height="12"/><rect class="c" x="834" y="18" rx="2" ry="2" width="12" height="12"/><rect class="c" x="834" y="34" rx="2" ry="2" width="12" height="12"/><rect class="c c13" x="834" y="50" rx="2" ry="2" width="12" height="12"/><rect class="u u0" height="12" width="488.2" x="0.0" y="144"/><rect class="u u1" height="12" width="170.2" x="487.6" y="144"/><rect class="u u2" height="12" width="149.0" x="657.2" y="144"/><rect class="u u3" height="12" width="43.0" x="805.6" y="144"/><rect class="s s0" x="0.8" y="0.8" width="14.4" height="14.4" rx="4.5" ry="4.5"/><rect class="s s1" x="1.8" y="1.8" width="12.3" height="12.3" rx="4.1" ry="4.1"/><rect class="s s2" x="2.6" y="2.6" width="10.8" height="10.8" rx="3.6" ry="3.6"/><rect class="s s3" x="3.0" y="3.0" width="9.9" height="9.9" rx="3.3" ry="3.3"/></svg>