<svg viewBox="-16 -32 880 192" width="880" height="192" xmlns="http://www.w3.org/2000/svg"><desc>Generated with https://github.com/Platane/snk</desc><style>@keyframes c0{.66%{fill:var(--c1)}.68%,to{fill:var(--ce)}}@keyframes c1{1.33%{fill:var(--c1)}1.35%,to{fill:var(--ce)}}@keyframes c2{1.66%{fill:var(--c1)}1.68%,to{fill:var(--ce)}}@keyframes c3{59.52%{fill:var(--c2)}59.54%,to{fill:var(--ce)}}@keyframes c4{3%{fill:var(--c1)}3.02%,to{fill:var(--ce)}}@keyframes c5{3.33%{fill:var(--c1)}3.35%,to{fill:var(--ce)}}@keyframes c6{58.85%{fill:var(--c2)}58.87%,to{fill:var(--ce)}}@keyframes c7{5.01%{fill:var(--c1)}5.03%,to{fill:var(--ce)}}@keyframes c8{95.98%{fill:var(--c4)}96%,to{fill:var(--ce)}}@keyframes c9{58.18%{fill:var(--c2)}58.2%,to{fill:var(--ce)}}@keyframes ca{7.35%{fill:var(--c1)}7.37%,to{fill:var(--ce)}}@keyframes cb{56.51%{fill:var(--c2)}56.53%,to{fill:var(--ce)}}@keyframes cc{61.53%{fill:var(--c3)}61.55%,to{fill:var(--ce)}}@keyframes cd{64.54%{fill:var(--c3)}64.56%,to{fill:var(--ce)}}@keyframes ce{64.87%{fill:var(--c3)}64.89%,to{fill:var(--ce)}}@keyframes cf{93.3%{fill:var(--c4)}93.32%,to{fill:var(--ce)}}@keyframes cg{63.2%{fill:var(--c3)}63.22%,to{fill:var(--ce)}}@keyframes ch{11.36%{fill:var(--c1)}11.38%,to{fill:var(--ce)}}@keyframes ci{54.17%{fill:var(--c2)}54.19%,to{fill:var(--ce)}}@keyframes cj{11.7%{fill:var(--c1)}11.72%,to{fill:var(--ce)}}@keyframes ck{52.83%{fill:var(--c2)}52.85%,to{fill:var(--ce)}}@keyframes cl{13.7%{fill:var(--c1)}13.72%,to{fill:var(--ce)}}@keyframes cm{18.05%{fill:var(--c1)}18.07%,to{fill:var(--ce)}}@keyframes cn{49.15%{fill:var(--c2)}49.17%,to{fill:var(--ce)}}@keyframes co{16.71%{fill:var(--c1)}16.73%,to{fill:var(--ce)}}@keyframes cp{20.39%{fill:var(--c1)}20.41%,to{fill:var(--ce)}}@keyframes cq{20.73%{fill:var(--c1)}20.75%,to{fill:var(--ce)}}@keyframes cr{25.41%{fill:var(--c1)}25.43%,to{fill:var(--ce)}}@keyframes cs{25.74%{fill:var(--c1)}25.76%,to{fill:var(--ce)}}@keyframes ct{75.58%{fill:var(--c3)}75.6%,to{fill:var(--ce)}}@keyframes cu{39.79%{fill:var(--c2)}39.81%,to{fill:var(--ce)}}@keyframes cv{29.42%{fill:var(--c1)}29.44%,to{fill:var(--ce)}}@keyframes cw{29.09%{fill:var(--c1)}29.11%,to{fill:var(--ce)}}@keyframes cx{28.42%{fill:var(--c1)}28.44%,to{fill:var(--ce)}}@keyframes cy{27.41%{fill:var(--c1)}27.43%,to{fill:var(--ce)}}@keyframes cz{42.8%{fill:var(--c2)}42.82%,to{fill:var(--ce)}}@keyframes c10{29.76%{fill:var(--c1)}29.78%,to{fill:var(--ce)}}@keyframes c11{27.75%{fill:var(--c1)}27.77%,to{fill:var(--ce)}}@keyframes c12{38.12%{fill:var(--c2)}38.14%,to{fill:var(--ce)}}@keyframes c13{31.76%{fill:var(--c1)}31.78%,to{fill:var(--ce)}}@keyframes c14{32.1%{fill:var(--c1)}32.12%,to{fill:var(--ce)}}@keyframes c15{35.78%{fill:var(--c2)}35.8%,to{fill:var(--ce)}}@keyframes c16{35.44%{fill:var(--c1)}35.46%,to{fill:var(--ce)}}@keyframes c17{79.92%{fill:var(--c3)}79.94%,to{fill:var(--ce)}}@keyframes c18{33.43%{fill:var(--c1)}33.45%,to{fill:var(--ce)}}@keyframes u0{.66%{transform:scale(0,1)}.68%,1.33%{transform:scale(.04,1)}1.35%,1.66%{transform:scale(.08,1)}1.68%,3%{transform:scale(.12,1)}3.02%,3.33%{transform:scale(.15,1)}3.35%,5.01%{transform:scale(.19,1)}5.03%,7.35%{transform:scale(.23,1)}11.36%,7.37%{transform:scale(.27,1)}11.38%,11.7%{transform:scale(.31,1)}11.72%,13.7%{transform:scale(.35,1)}13.72%,16.71%{transform:scale(.38,1)}16.73%,18.05%{transform:scale(.42,1)}18.07%,20.39%{transform:scale(.46,1)}20.41%,20.73%{transform:scale(.5,1)}20.75%,25.41%{transform:scale(.54,1)}25.43%,25.74%{transform:scale(.58,1)}25.76%,27.41%{transform:scale(.62,1)}27.43%,27.75%{transform:scale(.65,1)}27.77%,28.42%{transform:scale(.69,1)}28.44%,29.09%{transform:scale(.73,1)}29.11%,29.42%{transform:scale(.77,1)}29.44%,29.76%{transform:scale(.81,1)}29.78%,31.76%{transform:scale(.85,1)}31.78%,32.1%{transform:scale(.88,1)}32.12%,33.43%{transform:scale(.92,1)}33.45%,35.44%{transform:scale(.96,1)}35.46%,to{transform:scale(1,1)}}@keyframes u1{35.78%{transform:scale(0,1)}35.8%,38.12%{transform:scale(.09,1)}38.14%,39.79%{transform:scale(.18,1)}39.81%,42.8%{transform:scale(.27,1)}42.82%,49.15%{transform:scale(.36,1)}49.17%,52.83%{transform:scale(.45,1)}52.85%,54.17%{transform:scale(.55,1)}54.19%,56.51%{transform:scale(.64,1)}56.53%,58.18%{transform:scale(.73,1)}58.2%,58.85%{transform:scale(.82,1)}58.87%,59.52%{transform:scale(.91,1)}59.54%,to{transform:scale(1,1)}}@keyframes u2{61.53%{transform:scale(0,1)}61.55%,63.2%{transform:scale(.17,1)}63.22%,64.54%{transform:scale(.33,1)}64.56%,64.87%{transform:scale(.5,1)}64.89%,75.58%{transform:scale(.67,1)}75.6%,79.92%{transform:scale(.83,1)}79.94%,to{transform:scale(1,1)}}@keyframes u3{93.3%{transform:scale(0,1)}93.32%,95.98%{transform:scale(.5,1)}96%,to{transform:scale(1,1)}}@keyframes s0{0%,99.67%{transform:translate(0,-16px)}.33%{transform:translate(0,0)}1%{transform:translate(32px,0)}1.67%{transform:translate(32px,32px)}3.01%{transform:translate(96px,32px)}3.34%,96.32%{transform:translate(96px,48px)}3.68%{transform:translate(80px,48px)}4.01%{transform:translate(80px,32px)}4.68%{transform:translate(112px,32px)}5.02%,95.32%{transform:translate(112px,16px)}5.35%{transform:translate(128px,16px)}6.69%{transform:translate(128px,80px)}7.02%{transform:translate(112px,80px)}7.36%{transform:translate(112px,96px)}56.86%,8.03%{transform:translate(144px,96px)}8.36%{transform:translate(144px,80px)}9.36%{transform:translate(192px,80px)}10.37%,63.88%{transform:translate(192px,32px)}11.04%,53.85%{transform:translate(224px,32px)}11.37%{transform:translate(224px,16px)}13.04%{transform:translate(304px,16px)}13.71%{transform:translate(304px,48px)}16.39%{transform:translate(432px,48px)}16.72%,19.4%{transform:translate(432px,32px)}17.06%{transform:translate(448px,32px)}17.73%{transform:translate(448px,0)}18.39%{transform:translate(416px,0)}19.06%{transform:translate(416px,32px)}20.74%{transform:translate(432px,96px)}24.75%{transform:translate(624px,96px)}25.42%{transform:translate(624px,64px)}26.09%,40.13%{transform:translate(656px,64px)}26.42%{transform:translate(656px,80px)}27.76%,37.79%{transform:translate(720px,80px)}28.09%{transform:translate(720px,64px)}28.43%,39.13%{transform:translate(704px,64px)}29.43%{transform:translate(704px,16px)}31.1%{transform:translate(784px,16px)}32.11%{transform:translate(784px,64px)}33.11%,34.45%{transform:translate(832px,64px)}33.44%,78.93%{transform:translate(832px,48px)}33.78%{transform:translate(848px,48px)}34.11%{transform:translate(848px,64px)}35.12%{transform:translate(832px,96px)}35.45%{transform:translate(816px,96px)}35.79%{transform:translate(816px,80px)}38.13%{transform:translate(720px,96px)}38.46%{transform:translate(704px,96px)}40.8%{transform:translate(656px,32px)}42.14%{transform:translate(720px,32px)}42.81%{transform:translate(720px,0)}48.83%{transform:translate(432px,0)}49.16%{transform:translate(432px,16px)}52.51%{transform:translate(272px,16px)}52.84%{transform:translate(272px,32px)}54.52%{transform:translate(224px,64px)}55.85%{transform:translate(160px,64px)}56.52%{transform:translate(160px,96px)}57.53%{transform:translate(144px,64px)}58.53%{transform:translate(96px,64px)}58.86%{transform:translate(96px,80px)}59.2%{transform:translate(80px,80px)}59.53%{transform:translate(80px,96px)}62.21%{transform:translate(208px,96px)}63.55%{transform:translate(208px,32px)}64.55%{transform:translate(192px,0)}74.58%{transform:translate(672px,0)}75.59%{transform:translate(672px,48px)}79.93%{transform:translate(832px,0)}92.98%{transform:translate(208px,0)}93.31%{transform:translate(208px,16px)}95.99%{transform:translate(112px,48px)}97.32%{transform:translate(96px,0)}97.99%{transform:translate(64px,0)}98.33%{transform:translate(64px,-16px)}}@keyframes s1{0%,99.67%{transform:translate(16px,-16px)}.33%{transform:translate(0,-16px)}.67%{transform:translate(0,0)}1.34%{transform:translate(32px,0)}2.01%{transform:translate(32px,32px)}3.34%{transform:translate(96px,32px)}3.68%,96.66%{transform:translate(96px,48px)}4.01%{transform:translate(80px,48px)}4.35%{transform:translate(80px,32px)}5.02%{transform:translate(112px,32px)}5.35%,95.65%{transform:translate(112px,16px)}5.69%{transform:translate(128px,16px)}7.02%{transform:translate(128px,80px)}7.36%{transform:translate(112px,80px)}7.69%{transform:translate(112px,96px)}57.19%,8.36%{transform:translate(144px,96px)}8.7%{transform:translate(144px,80px)}9.7%{transform:translate(192px,80px)}10.7%,64.21%{transform:translate(192px,32px)}11.37%,54.18%{transform:translate(224px,32px)}11.71%{transform:translate(224px,16px)}13.38%{transform:translate(304px,16px)}14.05%{transform:translate(304px,48px)}16.72%{transform:translate(432px,48px)}17.06%,19.73%{transform:translate(432px,32px)}17.39%{transform:translate(448px,32px)}18.06%{transform:translate(448px,0)}18.73%{transform:translate(416px,0)}19.4%{transform:translate(416px,32px)}21.07%{transform:translate(432px,96px)}25.08%{transform:translate(624px,96px)}25.75%{transform:translate(624px,64px)}26.42%,40.47%{transform:translate(656px,64px)}26.76%{transform:translate(656px,80px)}28.09%,38.13%{transform:translate(720px,80px)}28.43%{transform:translate(720px,64px)}28.76%,39.46%{transform:translate(704px,64px)}29.77%{transform:translate(704px,16px)}31.44%{transform:translate(784px,16px)}32.44%{transform:translate(784px,64px)}33.44%,34.78%{transform:translate(832px,64px)}33.78%,79.26%{transform:translate(832px,48px)}34.11%{transform:translate(848px,48px)}34.45%{transform:translate(848px,64px)}35.45%{transform:translate(832px,96px)}35.79%{transform:translate(816px,96px)}36.12%{transform:translate(816px,80px)}38.46%{transform:translate(720px,96px)}38.8%{transform:translate(704px,96px)}41.14%{transform:translate(656px,32px)}42.47%{transform:translate(720px,32px)}43.14%{transform:translate(720px,0)}49.16%{transform:translate(432px,0)}49.5%{transform:translate(432px,16px)}52.84%{transform:translate(272px,16px)}53.18%{transform:translate(272px,32px)}54.85%{transform:translate(224px,64px)}56.19%{transform:translate(160px,64px)}56.86%{transform:translate(160px,96px)}57.86%{transform:translate(144px,64px)}58.86%{transform:translate(96px,64px)}59.2%{transform:translate(96px,80px)}59.53%{transform:translate(80px,80px)}59.87%{transform:translate(80px,96px)}62.54%{transform:translate(208px,96px)}63.88%{transform:translate(208px,32px)}64.88%{transform:translate(192px,0)}74.92%{transform:translate(672px,0)}75.92%{transform:translate(672px,48px)}80.27%{transform:translate(832px,0)}93.31%{transform:translate(208px,0)}93.65%{transform:translate(208px,16px)}96.32%{transform:translate(112px,48px)}97.66%{transform:translate(96px,0)}98.33%{transform:translate(64px,0)}98.66%{transform:translate(64px,-16px)}}@keyframes s2{0%,99.67%{transform:translate(32px,-16px)}.67%{transform:translate(0,-16px)}1%{transform:translate(0,0)}1.67%{transform:translate(32px,0)}2.34%{transform:translate(32px,32px)}3.68%{transform:translate(96px,32px)}4.01%,96.99%{transform:translate(96px,48px)}4.35%{transform:translate(80px,48px)}4.68%{transform:translate(80px,32px)}5.35%{transform:translate(112px,32px)}5.69%,95.99%{transform:translate(112px,16px)}6.02%{transform:translate(128px,16px)}7.36%{transform:translate(128px,80px)}7.69%{transform:translate(112px,80px)}8.03%{transform:translate(112px,96px)}57.53%,8.7%{transform:translate(144px,96px)}9.03%{transform:translate(144px,80px)}10.03%{transform:translate(192px,80px)}11.04%,64.55%{transform:translate(192px,32px)}11.71%,54.52%{transform:translate(224px,32px)}12.04%{transform:translate(224px,16px)}13.71%{transform:translate(304px,16px)}14.38%{transform:translate(304px,48px)}17.06%{transform:translate(432px,48px)}17.39%,20.07%{transform:translate(432px,32px)}17.73%{transform:translate(448px,32px)}18.39%{transform:translate(448px,0)}19.06%{transform:translate(416px,0)}19.73%{transform:translate(416px,32px)}21.4%{transform:translate(432px,96px)}25.42%{transform:translate(624px,96px)}26.09%{transform:translate(624px,64px)}26.76%,40.8%{transform:translate(656px,64px)}27.09%{transform:translate(656px,80px)}28.43%,38.46%{transform:translate(720px,80px)}28.76%{transform:translate(720px,64px)}29.1%,39.8%{transform:translate(704px,64px)}30.1%{transform:translate(704px,16px)}31.77%{transform:translate(784px,16px)}32.78%{transform:translate(784px,64px)}33.78%,35.12%{transform:translate(832px,64px)}34.11%,79.6%{transform:translate(832px,48px)}34.45%{transform:translate(848px,48px)}34.78%{transform:translate(848px,64px)}35.79%{transform:translate(832px,96px)}36.12%{transform:translate(816px,96px)}36.45%{transform:translate(816px,80px)}38.8%{transform:translate(720px,96px)}39.13%{transform:translate(704px,96px)}41.47%{transform:translate(656px,32px)}42.81%{transform:translate(720px,32px)}43.48%{transform:translate(720px,0)}49.5%{transform:translate(432px,0)}49.83%{transform:translate(432px,16px)}53.18%{transform:translate(272px,16px)}53.51%{transform:translate(272px,32px)}55.18%{transform:translate(224px,64px)}56.52%{transform:translate(160px,64px)}57.19%{transform:translate(160px,96px)}58.19%{transform:translate(144px,64px)}59.2%{transform:translate(96px,64px)}59.53%{transform:translate(96px,80px)}59.87%{transform:translate(80px,80px)}60.2%{transform:translate(80px,96px)}62.88%{transform:translate(208px,96px)}64.21%{transform:translate(208px,32px)}65.22%{transform:translate(192px,0)}75.25%{transform:translate(672px,0)}76.25%{transform:translate(672px,48px)}80.6%{transform:translate(832px,0)}93.65%{transform:translate(208px,0)}93.98%{transform:translate(208px,16px)}96.66%{transform:translate(112px,48px)}97.99%{transform:translate(96px,0)}98.66%{transform:translate(64px,0)}99%{transform:translate(64px,-16px)}}@keyframes s3{0%,99.67%{transform:translate(48px,-16px)}1%{transform:translate(0,-16px)}1.34%{transform:translate(0,0)}2.01%{transform:translate(32px,0)}2.68%{transform:translate(32px,32px)}4.01%{transform:translate(96px,32px)}4.35%,97.32%{transform:translate(96px,48px)}4.68%{transform:translate(80px,48px)}5.02%{transform:translate(80px,32px)}5.69%{transform:translate(112px,32px)}6.02%,96.32%{transform:translate(112px,16px)}6.35%{transform:translate(128px,16px)}7.69%{transform:translate(128px,80px)}8.03%{transform:translate(112px,80px)}8.36%{transform:translate(112px,96px)}57.86%,9.03%{transform:translate(144px,96px)}9.36%{transform:translate(144px,80px)}10.37%{transform:translate(192px,80px)}11.37%,64.88%{transform:translate(192px,32px)}12.04%,54.85%{transform:translate(224px,32px)}12.37%{transform:translate(224px,16px)}14.05%{transform:translate(304px,16px)}14.72%{transform:translate(304px,48px)}17.39%{transform:translate(432px,48px)}17.73%,20.4%{transform:translate(432px,32px)}18.06%{transform:translate(448px,32px)}18.73%{transform:translate(448px,0)}19.4%{transform:translate(416px,0)}20.07%{transform:translate(416px,32px)}21.74%{transform:translate(432px,96px)}25.75%{transform:translate(624px,96px)}26.42%{transform:translate(624px,64px)}27.09%,41.14%{transform:translate(656px,64px)}27.42%{transform:translate(656px,80px)}28.76%,38.8%{transform:translate(720px,80px)}29.1%{transform:translate(720px,64px)}29.43%,40.13%{transform:translate(704px,64px)}30.43%{transform:translate(704px,16px)}32.11%{transform:translate(784px,16px)}33.11%{transform:translate(784px,64px)}34.11%,35.45%{transform:translate(832px,64px)}34.45%,79.93%{transform:translate(832px,48px)}34.78%{transform:translate(848px,48px)}35.12%{transform:translate(848px,64px)}36.12%{transform:translate(832px,96px)}36.45%{transform:translate(816px,96px)}36.79%{transform:translate(816px,80px)}39.13%{transform:translate(720px,96px)}39.46%{transform:translate(704px,96px)}41.81%{transform:translate(656px,32px)}43.14%{transform:translate(720px,32px)}43.81%{transform:translate(720px,0)}49.83%{transform:translate(432px,0)}50.17%{transform:translate(432px,16px)}53.51%{transform:translate(272px,16px)}53.85%{transform:translate(272px,32px)}55.52%{transform:translate(224px,64px)}56.86%{transform:translate(160px,64px)}57.53%{transform:translate(160px,96px)}58.53%{transform:translate(144px,64px)}59.53%{transform:translate(96px,64px)}59.87%{transform:translate(96px,80px)}60.2%{transform:translate(80px,80px)}60.54%{transform:translate(80px,96px)}63.21%{transform:translate(208px,96px)}64.55%{transform:translate(208px,32px)}65.55%{transform:translate(192px,0)}75.59%{transform:translate(672px,0)}76.59%{transform:translate(672px,48px)}80.94%{transform:translate(832px,0)}93.98%{transform:translate(208px,0)}94.31%{transform:translate(208px,16px)}96.99%{transform:translate(112px,48px)}98.33%{transform:translate(96px,0)}99%{transform:translate(64px,0)}99.33%{transform:translate(64px,-16px)}}:root{--cb:#1b1f230a;--cs:purple;--ce:#ebedf0;--c0:#ebedf0;--c1:#9be9a8;--c2:#40c463;--c3:#30a14e;--c4:#216e39}@media (prefers-color-scheme:dark){:root{--cb:#1b1f230a;--cs:purple;--ce:#161b22;--c1:#01311f;--c2:#034525;--c3:#0f6d31;--c4:#00c647}}.c{shape-rendering:geometricPrecision;fill:var(--ce);stroke-width:1px;stroke:var(--cb);animation:none 29900ms linear infinite}.c.c0,.c.c1,.c.c2{fill:var(--c1);animation-name:c0}.c.c1,.c.c2{animation-name:c1}.c.c2{animation-name:c2}.c.c3{fill:var(--c2);animation-name:c3}.c.c4,.c.c5{fill:var(--c1);animation-name:c4}.c.c5{animation-name:c5}.c.c6{fill:var(--c2);animation-name:c6}.c.c7{fill:var(--c1);animation-name:c7}.c.c8{fill:var(--c4);animation-name:c8}.c.c9{fill:var(--c2);animation-name:c9}.c.ca{fill:var(--c1);animation-name:ca}.c.cb{fill:var(--c2);animation-name:cb}.c.cc,.c.cd,.c.ce{fill:var(--c3);animation-name:cc}.c.cd,.c.ce{animation-name:cd}.c.ce{animation-name:ce}.c.cf{fill:var(--c4);animation-name:cf}.c.cg{fill:var(--c3);animation-name:cg}.c.ch{fill:var(--c1);animation-name:ch}.c.ci{fill:var(--c2);animation-name:ci}.c.cj{fill:var(--c1);animation-name:cj}.c.ck{fill:var(--c2);animation-name:ck}.c.cl,.c.cm{fill:var(--c1);animation-name:cl}.c.cm{animation-name:cm}.c.cn{fill:var(--c2);animation-name:cn}.c.co,.c.cp{fill:var(--c1);animation-name:co}.c.cp{animation-name:cp}.c.cq,.c.cr,.c.cs{fill:var(--c1);animation-name:cq}.c.cr,.c.cs{animation-name:cr}.c.cs{animation-name:cs}.c.ct{fill:var(--c3);animation-name:ct}.c.cu{fill:var(--c2);animation-name:cu}.c.cv{fill:var(--c1);animation-name:cv}.c.cw,.c.cx,.c.cy{fill:var(--c1);animation-name:cw}.c.cx,.c.cy{animation-name:cx}.c.cy{animation-name:cy}.c.cz{fill:var(--c2);animation-name:cz}.c.c10,.c.c11{fill:var(--c1);animation-name:c10}.c.c11{animation-name:c11}.c.c12{fill:var(--c2);animation-name:c12}.c.c13,.c.c14{fill:var(--c1);animation-name:c13}.c.c14{animation-name:c14}.c.c15{fill:var(--c2);animation-name:c15}.c.c16{fill:var(--c1);animation-name:c16}.c.c17{fill:var(--c3);animation-name:c17}.c.c18{fill:var(--c1);animation-name:c18}.s,.u{animation:none linear 29900ms infinite}.u,.u.u0{transform-origin:0 0}.u{transform:scale(0,1)}.u.u0{fill:var(--c1);animation-name:u0}.u.u1{fill:var(--c2);animation-name:u1;transform-origin:490px 0}.u.u2{fill:var(--c3);animation-name:u2;transform-origin:697.2px 0}.u.u3{fill:var(--c4);animation-name:u3;transform-origin:810.3px 0}.s{shape-rendering:geometricPrecision;fill:var(--cs)}.s.s0{transform:translate(0,-16px);animation-name:s0}.s.s1{transform:translate(16px,-16px);animation-name:s1}.s.s2{transform:translate(32px,-16px);animation-name:s2}.s.s3{transform:translate(48px,-16px);animation-name:s3}</style><rect class="c" x="2" y="2" rx="2" ry="2" width="12" height="12"/><rect class="c" x="2" y="18" rx="2" ry="2" width="12" height="12"/><rect class="c" x="2" y="34" rx="2" ry="2" width="12" height="12"/><rect class="c" x="2" y="50" rx="2" ry="2" width="12" height="12"/><rect class="c" x="2" y="66" rx="2" ry="2" width="12" height="12"/><rect class="c" x="2" y="82" rx="2" ry="2" width="12" height="12"/><rect class="c" x="2" y="98" rx="2" ry="2" width="12" height="12"/><rect class="c c0" x="18" y="2" rx="2" ry="2" width="12" height="12"/><rect class="c" x="18" y="18" rx="2" ry="2" width="12" height="12"/><rect class="c" x="18" y="34" rx="2" ry="2" width="12" height="12"/><rect class="c" x="18" y="50" rx="2" ry="2" width="12" height="12"/><rect class="c" x="18" y="66" rx="2" ry="2" width="12" height="12"/><rect class="c" x="18" y="82" rx="2" ry="2" width="12" height="12"/><rect class="c" x="18" y="98" rx="2" ry="2" width="12" height="12"/><rect class="c" x="34" y="2" rx="2" ry="2" width="12" height="12"/><rect class="c c1" x="34" y="18" rx="2" ry="2" width="12" height="12"/><rect class="c c2" x="34" y="34" rx="2" ry="2" width="12" height="12"/><rect class="c" x="34" y="50" rx="2" ry="2" width="12" height="12"/><rect class="c" x="34" y="66" rx="2" ry="2" width="12" height="12"/><rect class="c" x="34" y="82" rx="2" ry="2" width="12" height="12"/><rect class="c" x="34" y="98" rx="2" ry="2" width="12" height="12"/><rect class="c" x="50" y="2" rx="2" ry="2" width="12" height="12"/><rect class="c" x="50" y="18" rx="2" ry="2" width="12" height="12"/><rect class="c" x="50" y="34" rx="2" ry="2" width="12" height="12"/><rect class="c" x="50" y="50" rx="2" ry="2" width="12" height="12"/><rect class="c" x="50" y="66" rx="2" ry="2" width="12" height="12"/><rect class="c" x="50" y="82" rx="2" ry="2" width="12" height="12"/><rect class="c" x="50" y="98" rx="2" ry="2" width="12" height="12"/><rect class="c" x="66" y="2" rx="2" ry="2" width="12" height="12"/><rect class="c" x="66" y="18" rx="2" ry="2" width="12" height="12"/><rect class="c" x="66" y="34" rx="2" ry="2" width="12" height="12"/><rect class="c" x="66" y="50" rx="2" ry="2" width="12" height="12"/><rect class="c" x="66" y="66" rx="2" ry="2" width="12" height="12"/><rect class="c" x="66" y="82" rx="2" ry="2" width="12" height="12"/><rect class="c" x="66" y="98" rx="2" ry="2" width="12" height="12"/><rect class="c" x="82" y="2" rx="2" ry="2" width="12" height="12"/><rect class="c" x="82" y="18" rx="2" ry="2" width="12" height="12"/><rect class="c" x="82" y="34" rx="2" ry="2" width="12" height="12"/><rect class="c" x="82" y="50" rx="2" ry="2" width="12" height="12"/><rect class="c" x="82" y="66" rx="2" ry="2" width="12" height="12"/><rect class="c" x="82" y="82" rx="2" ry="2" width="12" height="12"/><rect class="c c3" x="82" y="98" rx="2" ry="2" width="12" height="12"/><rect class="c" x="98" y="2" rx="2" ry="2" width="12" height="12"/><rect class="c" x="98" y="18" rx="2" ry="2" width="12" height="12"/><rect class="c c4" x="98" y="34" rx="2" ry="2" width="12" height="12"/><rect class="c c5" x="98" y="50" rx="2" ry="2" width="12" height="12"/><rect class="c" x="98" y="66" rx="2" ry="2" width="12" height="12"/><rect class="c c6" x="98" y="82" rx="2" ry="2" width="12" height="12"/><rect class="c" x="98" y="98" rx="2" ry="2" width="12" height="12"/><rect class="c" x="114" y="2" rx="2" ry="2" width="12" height="12"/><rect class="c c7" x="114" y="18" rx="2" ry="2" width="12" height="12"/><rect class="c" x="114" y="34" rx="2" ry="2" width="12" height="12"/><rect class="c c8" x="114" y="50" rx="2" ry="2" width="12" height="12"/><rect class="c c9" x="114" y="66" rx="2" ry="2" width="12" height="12"/><rect class="c" x="114" y="82" rx="2" ry="2" width="12" height="12"/><rect class="c ca" x="114" y="98" rx="2" ry="2" width="12" height="12"/><rect class="c" x="130" y="2" rx="2" ry="2" width="12" height="12"/><rect class="c" x="130" y="18" rx="2" ry="2" width="12" height="12"/><rect class="c" x="130" y="34" rx="2" ry="2" width="12" height="12"/><rect class="c" x="130" y="50" rx="2" ry="2" width="12" height="12"/><rect class="c" x="130" y="66" rx="2" ry="2" width="12" height="12"/><rect class="c" x="130" y="82" rx="2" ry="2" width="12" height="12"/><rect class="c" x="130" y="98" rx="2" ry="2" width="12" height="12"/><rect class="c" x="146" y="2" rx="2" ry="2" width="12" height="12"/><rect class="c" x="146" y="18" rx="2" ry="2" width="12" height="12"/><rect class="c" x="146" y="34" rx="2" ry="2" width="12" height="12"/><rect class="c" x="146" y="50" rx="2" ry="2" width="12" height="12"/><rect class="c" x="146" y="66" rx="2" ry="2" width="12" height="12"/><rect class="c" x="146" y="82" rx="2" ry="2" width="12" height="12"/><rect class="c" x="146" y="98" rx="2" ry="2" width="12" height="12"/><rect class="c" x="162" y="2" rx="2" ry="2" width="12" height="12"/><rect class="c" x="162" y="18" rx="2" ry="2" width="12" height="12"/><rect class="c" x="162" y="34" rx="2" ry="2" width="12" height="12"/><rect class="c" x="162" y="50" rx="2" ry="2" width="12" height="12"/><rect class="c" x="162" y="66" rx="2" ry="2" width="12" height="12"/><rect class="c" x="162" y="82" rx="2" ry="2" width="12" height="12"/><rect class="c cb" x="162" y="98" rx="2" ry="2" width="12" height="12"/><rect class="c" x="178" y="2" rx="2" ry="2" width="12" height="12"/><rect class="c" x="178" y="18" rx="2" ry="2" width="12" height="12"/><rect class="c" x="178" y="34" rx="2" ry="2" width="12" height="12"/><rect class="c" x="178" y="50" rx="2" ry="2" width="12" height="12"/><rect class="c" x="178" y="66" rx="2" ry="2" width="12" height="12"/><rect class="c" x="178" y="82" rx="2" ry="2" width="12" height="12"/><rect class="c cc" x="178" y="98" rx="2" ry="2" width="12" height="12"/><rect class="c cd" x="194" y="2" rx="2" ry="2" width="12" height="12"/><rect class="c" x="194" y="18" rx="2" ry="2" width="12" height="12"/><rect class="c" x="194" y="34" rx="2" ry="2" width="12" height="12"/><rect class="c" x="194" y="50" rx="2" ry="2" width="12" height="12"/><rect class="c" x="194" y="66" rx="2" ry="2" width="12" height="12"/><rect class="c" x="194" y="82" rx="2" ry="2" width="12" height="12"/><rect class="c" x="194" y="98" rx="2" ry="2" width="12" height="12"/><rect class="c ce" x="210" y="2" rx="2" ry="2" width="12" height="12"/><rect class="c cf" x="210" y="18" rx="2" ry="2" width="12" height="12"/><rect class="c" x="210" y="34" rx="2" ry="2" width="12" height="12"/><rect class="c cg" x="210" y="50" rx="2" ry="2" width="12" height="12"/><rect class="c" x="210" y="66" rx="2" ry="2" width="12" height="12"/><rect class="c" x="210" y="82" rx="2" ry="2" width="12" height="12"/><rect class="c" x="210" y="98" rx="2" ry="2" width="12" height="12"/><rect class="c" x="226" y="2" rx="2" ry="2" width="12" height="12"/><rect class="c ch" x="226" y="18" rx="2" ry="2" width="12" height="12"/><rect class="c" x="226" y="34" rx="2" ry="2" width="12" height="12"/><rect class="c ci" x="226" y="50" rx="2" ry="2" width="12" height="12"/><rect class="c" x="226" y="66" rx="2" ry="2" width="12" height="12"/><rect class="c" x="226" y="82" rx="2" ry="2" width="12" height="12"/><rect class="c" x="226" y="98" rx="2" ry="2" width="12" height="12"/><rect class="c" x="242" y="2" rx="2" ry="2" width="12" height="12"/><rect class="c cj" x="242" y="18" rx="2" ry="2" width="12" height="12"/><rect class="c" x="242" y="34" rx="2" ry="2" width="12" height="12"/><rect class="c" x="242" y="50" rx="2" ry="2" width="12" height="12"/><rect class="c" x="242" y="66" rx="2" ry="2" width="12" height="12"/><rect class="c" x="242" y="82" rx="2" ry="2" width="12" height="12"/><rect class="c" x="242" y="98" rx="2" ry="2" width="12" height="12"/><rect class="c" x="258" y="2" rx="2" ry="2" width="12" height="12"/><rect class="c" x="258" y="18" rx="2" ry="2" width="12" height="12"/><rect class="c" x="258" y="34" rx="2" ry="2" width="12" height="12"/><rect class="c" x="258" y="50" rx="2" ry="2" width="12" height="12"/><rect class="c" x="258" y="66" rx="2" ry="2" width="12" height="12"/><rect class="c" x="258" y="82" rx="2" ry="2" width="12" height="12"/><rect class="c" x="258" y="98" rx="2" ry="2" width="12" height="12"/><rect class="c" x="274" y="2" rx="2" ry="2" width="12" height="12"/><rect class="c" x="274" y="18" rx="2" ry="2" width="12" height="12"/><rect class="c ck" x="274" y="34" rx="2" ry="2" width="12" height="12"/><rect class="c" x="274" y="50" rx="2" ry="2" width="12" height="12"/><rect class="c" x="274" y="66" rx="2" ry="2" width="12" height="12"/><rect class="c" x="274" y="82" rx="2" ry="2" width="12" height="12"/><rect class="c" x="274" y="98" rx="2" ry="2" width="12" height="12"/><rect class="c" x="290" y="2" rx="2" ry="2" width="12" height="12"/><rect class="c" x="290" y="18" rx="2" ry="2" width="12" height="12"/><rect class="c" x="290" y="34" rx="2" ry="2" width="12" height="12"/><rect class="c" x="290" y="50" rx="2" ry="2" width="12" height="12"/><rect class="c" x="290" y="66" rx="2" ry="2" width="12" height="12"/><rect class="c" x="290" y="82" rx="2" ry="2" width="12" height="12"/><rect class="c" x="290" y="98" rx="2" ry="2" width="12" height="12"/><rect class="c" x="306" y="2" rx="2" ry="2" width="12" height="12"/><rect class="c" x="306" y="18" rx="2" ry="2" width="12" height="12"/><rect class="c" x="306" y="34" rx="2" ry="2" width="12" height="12"/><rect class="c cl" x="306" y="50" rx="2" ry="2" width="12" height="12"/><rect class="c" x="306" y="66" rx="2" ry="2" width="12" height="12"/><rect class="c" x="306" y="82" rx="2" ry="2" width="12" height="12"/><rect class="c" x="306" y="98" rx="2" ry="2" width="12" height="12"/><rect class="c" x="322" y="2" rx="2" ry="2" width="12" height="12"/><rect class="c" x="322" y="18" rx="2" ry="2" width="12" height="12"/><rect class="c" x="322" y="34" rx="2" ry="2" width="12" height="12"/><rect class="c" x="322" y="50" rx="2" ry="2" width="12" height="12"/><rect class="c" x="322" y="66" rx="2" ry="2" width="12" height="12"/><rect class="c" x="322" y="82" rx="2" ry="2" width="12" height="12"/><rect class="c" x="322" y="98" rx="2" ry="2" width="12" height="12"/><rect class="c" x="338" y="2" rx="2" ry="2" width="12" height="12"/><rect class="c" x="338" y="18" rx="2" ry="2" width="12" height="12"/><rect class="c" x="338" y="34" rx="2" ry="2" width="12" height="12"/><rect class="c" x="338" y="50" rx="2" ry="2" width="12" height="12"/><rect class="c" x="338" y="66" rx="2" ry="2" width="12" height="12"/><rect class="c" x="338" y="82" rx="2" ry="2" width="12" height="12"/><rect class="c" x="338" y="98" rx="2" ry="2" width="12" height="12"/><rect class="c" x="354" y="2" rx="2" ry="2" width="12" height="12"/><rect class="c" x="354" y="18" rx="2" ry="2" width="12" height="12"/><rect class="c" x="354" y="34" rx="2" ry="2" width="12" height="12"/><rect class="c" x="354" y="50" rx="2" ry="2" width="12" height="12"/><rect class="c" x="354" y="66" rx="2" ry="2" width="12" height="12"/><rect class="c" x="354" y="82" rx="2" ry="2" width="12" height="12"/><rect class="c" x="354" y="98" rx="2" ry="2" width="12" height="12"/><rect class="c" x="370" y="2" rx="2" ry="2" width="12" height="12"/><rect class="c" x="370" y="18" rx="2" ry="2" width="12" height="12"/><rect class="c" x="370" y="34" rx="2" ry="2" width="12" height="12"/><rect class="c" x="370" y="50" rx="2" ry="2" width="12" height="12"/><rect class="c" x="370" y="66" rx="2" ry="2" width="12" height="12"/><rect class="c" x="370" y="82" rx="2" ry="2" width="12" height="12"/><rect class="c" x="370" y="98" rx="2" ry="2" width="12" height="12"/><rect class="c" x="386" y="2" rx="2" ry="2" width="12" height="12"/><rect class="c" x="386" y="18" rx="2" ry="2" width="12" height="12"/><rect class="c" x="386" y="34" rx="2" ry="2" width="12" height="12"/><rect class="c" x="386" y="50" rx="2" ry="2" width="12" height="12"/><rect class="c" x="386" y="66" rx="2" ry="2" width="12" height="12"/><rect class="c" x="386" y="82" rx="2" ry="2" width="12" height="12"/><rect class="c" x="386" y="98" rx="2" ry="2" width="12" height="12"/><rect class="c" x="402" y="2" rx="2" ry="2" width="12" height="12"/><rect class="c" x="402" y="18" rx="2" ry="2" width="12" height="12"/><rect class="c" x="402" y="34" rx="2" ry="2" width="12" height="12"/><rect class="c" x="402" y="50" rx="2" ry="2" width="12" height="12"/><rect class="c" x="402" y="66" rx="2" ry="2" width="12" height="12"/><rect class="c" x="402" y="82" rx="2" ry="2" width="12" height="12"/><rect class="c" x="402" y="98" rx="2" ry="2" width="12" height="12"/><rect class="c" x="418" y="2" rx="2" ry="2" width="12" height="12"/><rect class="c" x="418" y="18" rx="2" ry="2" width="12" height="12"/><rect class="c" x="418" y="34" rx="2" ry="2" width="12" height="12"/><rect class="c" x="418" y="50" rx="2" ry="2" width="12" height="12"/><rect class="c" x="418" y="66" rx="2" ry="2" width="12" height="12"/><rect class="c" x="418" y="82" rx="2" ry="2" width="12" height="12"/><rect class="c" x="418" y="98" rx="2" ry="2" width="12" height="12"/><rect class="c cm" x="434" y="2" rx="2" ry="2" width="12" height="12"/><rect class="c cn" x="434" y="18" rx="2" ry="2" width="12" height="12"/><rect class="c co" x="434" y="34" rx="2" ry="2" width="12" height="12"/><rect class="c" x="434" y="50" rx="2" ry="2" width="12" height="12"/><rect class="c" x="434" y="66" rx="2" ry="2" width="12" height="12"/><rect class="c cp" x="434" y="82" rx="2" ry="2" width="12" height="12"/><rect class="c cq" x="434" y="98" rx="2" ry="2" width="12" height="12"/><rect class="c" x="450" y="2" rx="2" ry="2" width="12" height="12"/><rect class="c" x="450" y="18" rx="2" ry="2" width="12" height="12"/><rect class="c" x="450" y="34" rx="2" ry="2" width="12" height="12"/><rect class="c" x="450" y="50" rx="2" ry="2" width="12" height="12"/><rect class="c" x="450" y="66" rx="2" ry="2" width="12" height="12"/><rect class="c" x="450" y="82" rx="2" ry="2" width="12" height="12"/><rect class="c" x="450" y="98" rx="2" ry="2" width="12" height="12"/><rect class="c" x="466" y="2" rx="2" ry="2" width="12" height="12"/><rect class="c" x="466" y="18" rx="2" ry="2" width="12" height="12"/><rect class="c" x="466" y="34" rx="2" ry="2" width="12" height="12"/><rect class="c" x="466" y="50" rx="2" ry="2" width="12" height="12"/><rect class="c" x="466" y="66" rx="2" ry="2" width="12" height="12"/><rect class="c" x="466" y="82" rx="2" ry="2" width="12" height="12"/><rect class="c" x="466" y="98" rx="2" ry="2" width="12" height="12"/><rect class="c" x="482" y="2" rx="2" ry="2" width="12" height="12"/><rect class="c" x="482" y="18" rx="2" ry="2" width="12" height="12"/><rect class="c" x="482" y="34" rx="2" ry="2" width="12" height="12"/><rect class="c" x="482" y="50" rx="2" ry="2" width="12" height="12"/><rect class="c" x="482" y="66" rx="2" ry="2" width="12" height="12"/><rect class="c" x="482" y="82" rx="2" ry="2" width="12" height="12"/><rect class="c" x="482" y="98" rx="2" ry="2" width="12" height="12"/><rect class="c" x="498" y="2" rx="2" ry="2" width="12" height="12"/><rect class="c" x="498" y="18" rx="2" ry="2" width="12" height="12"/><rect class="c" x="498" y="34" rx="2" ry="2" width="12" height="12"/><rect class="c" x="498" y="50" rx="2" ry="2" width="12" height="12"/><rect class="c" x="498" y="66" rx="2" ry="2" width="12" height="12"/><rect class="c" x="498" y="82" rx="2" ry="2" width="12" height="12"/><rect class="c" x="498" y="98" rx="2" ry="2" width="12" height="12"/><rect class="c" x="514" y="2" rx="2" ry="2" width="12" height="12"/><rect class="c" x="514" y="18" rx="2" ry="2" width="12" height="12"/><rect class="c" x="514" y="34" rx="2" ry="2" width="12" height="12"/><rect class="c" x="514" y="50" rx="2" ry="2" width="12" height="12"/><rect class="c" x="514" y="66" rx="2" ry="2" width="12" height="12"/><rect class="c" x="514" y="82" rx="2" ry="2" width="12" height="12"/><rect class="c" x="514" y="98" rx="2" ry="2" width="12" height="12"/><rect class="c" x="530" y="2" rx="2" ry="2" width="12" height="12"/><rect class="c" x="530" y="18" rx="2" ry="2" width="12" height="12"/><rect class="c" x="530" y="34" rx="2" ry="2" width="12" height="12"/><rect class="c" x="530" y="50" rx="2" ry="2" width="12" height="12"/><rect class="c" x="530" y="66" rx="2" ry="2" width="12" height="12"/><rect class="c" x="530" y="82" rx="2" ry="2" width="12" height="12"/><rect class="c" x="530" y="98" rx="2" ry="2" width="12" height="12"/><rect class="c" x="546" y="2" rx="2" ry="2" width="12" height="12"/><rect class="c" x="546" y="18" rx="2" ry="2" width="12" height="12"/><rect class="c" x="546" y="34" rx="2" ry="2" width="12" height="12"/><rect class="c" x="546" y="50" rx="2" ry="2" width="12" height="12"/><rect class="c" x="546" y="66" rx="2" ry="2" width="12" height="12"/><rect class="c" x="546" y="82" rx="2" ry="2" width="12" height="12"/><rect class="c" x="546" y="98" rx="2" ry="2" width="12" height="12"/><rect class="c" x="562" y="2" rx="2" ry="2" width="12" height="12"/><rect class="c" x="562" y="18" rx="2" ry="2" width="12" height="12"/><rect class="c" x="562" y="34" rx="2" ry="2" width="12" height="12"/><rect class="c" x="562" y="50" rx="2" ry="2" width="12" height="12"/><rect class="c" x="562" y="66" rx="2" ry="2" width="12" height="12"/><rect class="c" x="562" y="82" rx="2" ry="2" width="12" height="12"/><rect class="c" x="562" y="98" rx="2" ry="2" width="12" height="12"/><rect class="c" x="578" y="2" rx="2" ry="2" width="12" height="12"/><rect class="c" x="578" y="18" rx="2" ry="2" width="12" height="12"/><rect class="c" x="578" y="34" rx="2" ry="2" width="12" height="12"/><rect class="c" x="578" y="50" rx="2" ry="2" width="12" height="12"/><rect class="c" x="578" y="66" rx="2" ry="2" width="12" height="12"/><rect class="c" x="578" y="82" rx="2" ry="2" width="12" height="12"/><rect class="c" x="578" y="98" rx="2" ry="2" width="12" height="12"/><rect class="c" x="594" y="2" rx="2" ry="2" width="12" height="12"/><rect class="c" x="594" y="18" rx="2" ry="2" width="12" height="12"/><rect class="c" x="594" y="34" rx="2" ry="2" width="12" height="12"/><rect class="c" x="594" y="50" rx="2" ry="2" width="12" height="12"/><rect class="c" x="594" y="66" rx="2" ry="2" width="12" height="12"/><rect class="c" x="594" y="82" rx="2" ry="2" width="12" height="12"/><rect class="c" x="594" y="98" rx="2" ry="2" width="12" height="12"/><rect class="c" x="610" y="2" rx="2" ry="2" width="12" height="12"/><rect class="c" x="610" y="18" rx="2" ry="2" width="12" height="12"/><rect class="c" x="610" y="34" rx="2" ry="2" width="12" height="12"/><rect class="c" x="610" y="50" rx="2" ry="2" width="12" height="12"/><rect class="c" x="610" y="66" rx="2" ry="2" width="12" height="12"/><rect class="c" x="610" y="82" rx="2" ry="2" width="12" height="12"/><rect class="c" x="610" y="98" rx="2" ry="2" width="12" height="12"/><rect class="c" x="626" y="2" rx="2" ry="2" width="12" height="12"/><rect class="c" x="626" y="18" rx="2" ry="2" width="12" height="12"/><rect class="c" x="626" y="34" rx="2" ry="2" width="12" height="12"/><rect class="c" x="626" y="50" rx="2" ry="2" width="12" height="12"/><rect class="c cr" x="626" y="66" rx="2" ry="2" width="12" height="12"/><rect class="c" x="626" y="82" rx="2" ry="2" width="12" height="12"/><rect class="c" x="626" y="98" rx="2" ry="2" width="12" height="12"/><rect class="c" x="642" y="2" rx="2" ry="2" width="12" height="12"/><rect class="c" x="642" y="18" rx="2" ry="2" width="12" height="12"/><rect class="c" x="642" y="34" rx="2" ry="2" width="12" height="12"/><rect class="c" x="642" y="50" rx="2" ry="2" width="12" height="12"/><rect class="c cs" x="642" y="66" rx="2" ry="2" width="12" height="12"/><rect class="c" x="642" y="82" rx="2" ry="2" width="12" height="12"/><rect class="c" x="642" y="98" rx="2" ry="2" width="12" height="12"/><rect class="c" x="658" y="2" rx="2" ry="2" width="12" height="12"/><rect class="c" x="658" y="18" rx="2" ry="2" width="12" height="12"/><rect class="c" x="658" y="34" rx="2" ry="2" width="12" height="12"/><rect class="c" x="658" y="50" rx="2" ry="2" width="12" height="12"/><rect class="c" x="658" y="66" rx="2" ry="2" width="12" height="12"/><rect class="c" x="658" y="82" rx="2" ry="2" width="12" height="12"/><rect class="c" x="658" y="98" rx="2" ry="2" width="12" height="12"/><rect class="c" x="674" y="2" rx="2" ry="2" width="12" height="12"/><rect class="c" x="674" y="18" rx="2" ry="2" width="12" height="12"/><rect class="c" x="674" y="34" rx="2" ry="2" width="12" height="12"/><rect class="c ct" x="674" y="50" rx="2" ry="2" width="12" height="12"/><rect class="c cu" x="674" y="66" rx="2" ry="2" width="12" height="12"/><rect class="c" x="674" y="82" rx="2" ry="2" width="12" height="12"/><rect class="c" x="674" y="98" rx="2" ry="2" width="12" height="12"/><rect class="c" x="690" y="2" rx="2" ry="2" width="12" height="12"/><rect class="c" x="690" y="18" rx="2" ry="2" width="12" height="12"/><rect class="c" x="690" y="34" rx="2" ry="2" width="12" height="12"/><rect class="c" x="690" y="50" rx="2" ry="2" width="12" height="12"/><rect class="c" x="690" y="66" rx="2" ry="2" width="12" height="12"/><rect class="c" x="690" y="82" rx="2" ry="2" width="12" height="12"/><rect class="c" x="690" y="98" rx="2" ry="2" width="12" height="12"/><rect class="c" x="706" y="2" rx="2" ry="2" width="12" height="12"/><rect class="c cv" x="706" y="18" rx="2" ry="2" width="12" height="12"/><rect class="c cw" x="706" y="34" rx="2" ry="2" width="12" height="12"/><rect class="c" x="706" y="50" rx="2" ry="2" width="12" height="12"/><rect class="c cx" x="706" y="66" rx="2" ry="2" width="12" height="12"/><rect class="c cy" x="706" y="82" rx="2" ry="2" width="12" height="12"/><rect class="c" x="706" y="98" rx="2" ry="2" width="12" height="12"/><rect class="c cz" x="722" y="2" rx="2" ry="2" width="12" height="12"/><rect class="c c10" x="722" y="18" rx="2" ry="2" width="12" height="12"/><rect class="c" x="722" y="34" rx="2" ry="2" width="12" height="12"/><rect class="c" x="722" y="50" rx="2" ry="2" width="12" height="12"/><rect class="c" x="722" y="66" rx="2" ry="2" width="12" height="12"/><rect class="c c11" x="722" y="82" rx="2" ry="2" width="12" height="12"/><rect class="c c12" x="722" y="98" rx="2" ry="2" width="12" height="12"/><rect class="c" x="738" y="2" rx="2" ry="2" width="12" height="12"/><rect class="c" x="738" y="18" rx="2" ry="2" width="12" height="12"/><rect class="c" x="738" y="34" rx="2" ry="2" width="12" height="12"/><rect class="c" x="738" y="50" rx="2" ry="2" width="12" height="12"/><rect class="c" x="738" y="66" rx="2" ry="2" width="12" height="12"/><rect class="c" x="738" y="82" rx="2" ry="2" width="12" height="12"/><rect class="c" x="738" y="98" rx="2" ry="2" width="12" height="12"/><rect class="c" x="754" y="2" rx="2" ry="2" width="12" height="12"/><rect class="c" x="754" y="18" rx="2" ry="2" width="12" height="12"/><rect class="c" x="754" y="34" rx="2" ry="2" width="12" height="12"/><rect class="c" x="754" y="50" rx="2" ry="2" width="12" height="12"/><rect class="c" x="754" y="66" rx="2" ry="2" width="12" height="12"/><rect class="c" x="754" y="82" rx="2" ry="2" width="12" height="12"/><rect class="c" x="754" y="98" rx="2" ry="2" width="12" height="12"/><rect class="c" x="770" y="2" rx="2" ry="2" width="12" height="12"/><rect class="c" x="770" y="18" rx="2" ry="2" width="12" height="12"/><rect class="c" x="770" y="34" rx="2" ry="2" width="12" height="12"/><rect class="c" x="770" y="50" rx="2" ry="2" width="12" height="12"/><rect class="c" x="770" y="66" rx="2" ry="2" width="12" height="12"/><rect class="c" x="770" y="82" rx="2" ry="2" width="12" height="12"/><rect class="c" x="770" y="98" rx="2" ry="2" width="12" height="12"/><rect class="c" x="786" y="2" rx="2" ry="2" width="12" height="12"/><rect class="c" x="786" y="18" rx="2" ry="2" width="12" height="12"/><rect class="c" x="786" y="34" rx="2" ry="2" width="12" height="12"/><rect class="c c13" x="786" y="50" rx="2" ry="2" width="12" height="12"/><rect class="c c14" x="786" y="66" rx="2" ry="2" width="12" height="12"/><rect class="c" x="786" y="82" rx="2" ry="2" width="12" height="12"/><rect class="c" x="786" y="98" rx="2" ry="2" width="12" height="12"/><rect class="c" x="802" y="2" rx="2" ry="2" width="12" height="12"/><rect class="c" x="802" y="18" rx="2" ry="2" width="12" height="12"/><rect class="c" x="802" y="34" rx="2" ry="2" width="12" height="12"/><rect class="c" x="802" y="50" rx="2" ry="2" width="12" height="12"/><rect class="c" x="802" y="66" rx="2" ry="2" width="12" height="12"/><rect class="c" x="802" y="82" rx="2" ry="2" width="12" height="12"/><rect class="c" x="802" y="98" rx="2" ry="2" width="12" height="12"/><rect class="c" x="818" y="2" rx="2" ry="2" width="12" height="12"/><rect class="c" x="818" y="18" rx="2" ry="2" width="12" height="12"/><rect class="c" x="818" y="34" rx="2" ry="2" width="12" height="12"/><rect class="c" x="818" y="50" rx="2" ry="2" width="12" height="12"/><rect class="c" x="818" y="66" rx="2" ry="2" width="12" height="12"/><rect class="c c15" x="818" y="82" rx="2" ry="2" width="12" height="12"/><rect class="c c16" x="818" y="98" rx="2" ry="2" width="12" height="12"/><rect class="c c17" x="834" y="2" rx="2" ry="2" width="12" height="12"/><rect class="c" x="834" y="18" rx="2" ry="2" width="12" height="12"/><rect class="c" x="834" y="34" rx="2" ry="2" width="12" height="12"/><rect class="c c18" x="834" y="50" rx="2" ry="2" width="12" height="12"/><rect class="u u0" height="12" width="490.6" x="0.0" y="144"/><rect class="u u1" height="12" width="207.9" x="490.0" y="144"/><rect class="u u2" height="12" width="113.7" x="697.2" y="144"/><rect class="u u3" height="12" width="38.3" x="810.3" y="144"/><rect class="s s0" x="0.8" y="0.8" width="14.4" height="14.4" rx="4.5" ry="4.5"/><rect class="s s1" x="1.8" y="1.8" width="12.3" height="12.3" rx="4.1" ry="4.1"/><rect class="s s2" x="2.6" y="2.6" width="10.8" height="10.8" rx="3.6" ry="3.6"/><rect class="s s3" x="3.0" y="3.0" width="9.9" height="9.9" rx="3.3" ry="3.3"/></svg>