<svg viewBox="-16 -32 880 192" width="880" height="192" xmlns="http://www.w3.org/2000/svg"><desc>Generated with https://github.com/Platane/snk</desc><style>@keyframes c0{9.08%{fill:var(--c1)}9.1%,to{fill:var(--ce)}}@keyframes c1{62.62%{fill:var(--c2)}62.64%,to{fill:var(--ce)}}@keyframes c2{7.73%{fill:var(--c1)}7.75%,to{fill:var(--ce)}}@keyframes c3{1%{fill:var(--c1)}1.02%,to{fill:var(--ce)}}@keyframes c4{6.72%{fill:var(--c1)}6.74%,to{fill:var(--ce)}}@keyframes c5{1.67%{fill:var(--c1)}1.69%,to{fill:var(--ce)}}@keyframes c6{2.01%{fill:var(--c1)}2.03%,to{fill:var(--ce)}}@keyframes c7{6.39%{fill:var(--c1)}6.41%,to{fill:var(--ce)}}@keyframes c8{3.02%{fill:var(--c1)}3.04%,to{fill:var(--ce)}}@keyframes c9{60.6%{fill:var(--c2)}60.62%,to{fill:var(--ce)}}@keyframes ca{4.03%{fill:var(--c1)}4.05%,to{fill:var(--ce)}}@keyframes cb{4.37%{fill:var(--c1)}4.39%,to{fill:var(--ce)}}@keyframes cc{12.11%{fill:var(--c1)}12.13%,to{fill:var(--ce)}}@keyframes cd{14.8%{fill:var(--c1)}14.82%,to{fill:var(--ce)}}@keyframes ce{57.9%{fill:var(--c2)}57.92%,to{fill:var(--ce)}}@keyframes cf{13.46%{fill:var(--c1)}13.48%,to{fill:var(--ce)}}@keyframes cg{14.47%{fill:var(--c1)}14.49%,to{fill:var(--ce)}}@keyframes ch{15.48%{fill:var(--c1)}15.5%,to{fill:var(--ce)}}@keyframes ci{19.86%{fill:var(--c1)}19.88%,to{fill:var(--ce)}}@keyframes cj{13.79%{fill:var(--c1)}13.81%,to{fill:var(--ce)}}@keyframes ck{14.13%{fill:var(--c1)}14.15%,to{fill:var(--ce)}}@keyframes cl{15.81%{fill:var(--c1)}15.83%,to{fill:var(--ce)}}@keyframes cm{67.33%{fill:var(--c3)}67.35%,to{fill:var(--ce)}}@keyframes cn{67.67%{fill:var(--c3)}67.69%,to{fill:var(--ce)}}@keyframes co{69.69%{fill:var(--c3)}69.71%,to{fill:var(--ce)}}@keyframes cp{17.16%{fill:var(--c1)}17.18%,to{fill:var(--ce)}}@keyframes cq{55.88%{fill:var(--c2)}55.9%,to{fill:var(--ce)}}@keyframes cr{23.22%{fill:var(--c1)}23.24%,to{fill:var(--ce)}}@keyframes cs{23.9%{fill:var(--c1)}23.92%,to{fill:var(--ce)}}@keyframes ct{24.23%{fill:var(--c1)}24.25%,to{fill:var(--ce)}}@keyframes cu{50.83%{fill:var(--c2)}50.85%,to{fill:var(--ce)}}@keyframes cv{25.58%{fill:var(--c1)}25.6%,to{fill:var(--ce)}}@keyframes cw{25.92%{fill:var(--c1)}25.94%,to{fill:var(--ce)}}@keyframes cx{50.16%{fill:var(--c2)}50.18%,to{fill:var(--ce)}}@keyframes cy{29.62%{fill:var(--c1)}29.64%,to{fill:var(--ce)}}@keyframes cz{88.88%{fill:var(--c4)}88.9%,to{fill:var(--ce)}}@keyframes c10{26.59%{fill:var(--c1)}26.61%,to{fill:var(--ce)}}@keyframes c11{27.26%{fill:var(--c1)}27.28%,to{fill:var(--ce)}}@keyframes c12{48.47%{fill:var(--c2)}48.49%,to{fill:var(--ce)}}@keyframes c13{83.83%{fill:var(--c3)}83.85%,to{fill:var(--ce)}}@keyframes c14{45.78%{fill:var(--c2)}45.8%,to{fill:var(--ce)}}@keyframes c15{77.09%{fill:var(--c3)}77.11%,to{fill:var(--ce)}}@keyframes c16{86.19%{fill:var(--c4)}86.21%,to{fill:var(--ce)}}@keyframes c17{78.78%{fill:var(--c3)}78.8%,to{fill:var(--ce)}}@keyframes c18{32.65%{fill:var(--c1)}32.67%,to{fill:var(--ce)}}@keyframes c19{43.42%{fill:var(--c2)}43.44%,to{fill:var(--ce)}}@keyframes c1a{32.99%{fill:var(--c1)}33.01%,to{fill:var(--ce)}}@keyframes c1b{80.46%{fill:var(--c3)}80.48%,to{fill:var(--ce)}}@keyframes c1c{35.01%{fill:var(--c1)}35.03%,to{fill:var(--ce)}}@keyframes c1d{38.37%{fill:var(--c1)}38.39%,to{fill:var(--ce)}}@keyframes c1e{38.04%{fill:var(--c1)}38.06%,to{fill:var(--ce)}}@keyframes u0{1%{transform:scale(0,1)}1.02%,1.67%{transform:scale(.03,1)}1.69%,2.01%{transform:scale(.06,1)}2.03%,3.02%{transform:scale(.09,1)}3.04%,4.03%{transform:scale(.12,1)}4.05%,4.37%{transform:scale(.15,1)}4.39%,6.39%{transform:scale(.18,1)}6.41%,6.72%{transform:scale(.21,1)}6.74%,7.73%{transform:scale(.24,1)}7.75%,9.08%{transform:scale(.27,1)}12.11%,9.1%{transform:scale(.3,1)}12.13%,13.46%{transform:scale(.33,1)}13.48%,13.79%{transform:scale(.36,1)}13.81%,14.13%{transform:scale(.39,1)}14.15%,14.47%{transform:scale(.42,1)}14.49%,14.8%{transform:scale(.45,1)}14.82%,15.48%{transform:scale(.48,1)}15.5%,15.81%{transform:scale(.52,1)}15.83%,17.16%{transform:scale(.55,1)}17.18%,19.86%{transform:scale(.58,1)}19.88%,23.22%{transform:scale(.61,1)}23.24%,23.9%{transform:scale(.64,1)}23.92%,24.23%{transform:scale(.67,1)}24.25%,25.58%{transform:scale(.7,1)}25.6%,25.92%{transform:scale(.73,1)}25.94%,26.59%{transform:scale(.76,1)}26.61%,27.26%{transform:scale(.79,1)}27.28%,29.62%{transform:scale(.82,1)}29.64%,32.65%{transform:scale(.85,1)}32.67%,32.99%{transform:scale(.88,1)}33.01%,35.01%{transform:scale(.91,1)}35.03%,38.04%{transform:scale(.94,1)}38.06%,38.37%{transform:scale(.97,1)}38.39%,to{transform:scale(1,1)}}@keyframes u1{43.42%{transform:scale(0,1)}43.44%,45.78%{transform:scale(.11,1)}45.8%,48.47%{transform:scale(.22,1)}48.49%,50.16%{transform:scale(.33,1)}50.18%,50.83%{transform:scale(.44,1)}50.85%,55.88%{transform:scale(.56,1)}55.9%,57.9%{transform:scale(.67,1)}57.92%,60.6%{transform:scale(.78,1)}60.62%,62.62%{transform:scale(.89,1)}62.64%,to{transform:scale(1,1)}}@keyframes u2{67.33%{transform:scale(0,1)}67.35%,67.67%{transform:scale(.14,1)}67.69%,69.69%{transform:scale(.29,1)}69.71%,77.09%{transform:scale(.43,1)}77.11%,78.78%{transform:scale(.57,1)}78.8%,80.46%{transform:scale(.71,1)}80.48%,83.83%{transform:scale(.86,1)}83.85%,to{transform:scale(1,1)}}@keyframes u3{86.19%{transform:scale(0,1)}86.21%,88.88%{transform:scale(.5,1)}88.9%,to{transform:scale(1,1)}}@keyframes s0{0%,99.66%{transform:translate(0,-16px)}.34%{transform:translate(0,0)}.67%{transform:translate(16px,0)}1.01%{transform:translate(16px,16px)}1.35%{transform:translate(32px,16px)}2.02%{transform:translate(32px,48px)}2.69%{transform:translate(64px,48px)}3.03%{transform:translate(64px,64px)}3.37%{transform:translate(80px,64px)}4.04%{transform:translate(80px,96px)}4.38%{transform:translate(96px,96px)}4.71%{transform:translate(96px,80px)}6.06%{transform:translate(32px,80px)}6.4%{transform:translate(32px,96px)}6.73%{transform:translate(16px,96px)}7.41%{transform:translate(16px,64px)}8.08%{transform:translate(-16px,64px)}8.75%{transform:translate(-16px,32px)}10.44%{transform:translate(64px,32px)}10.77%{transform:translate(64px,16px)}13.13%{transform:translate(176px,16px)}13.47%{transform:translate(176px,32px)}13.8%,19.19%{transform:translate(192px,32px)}14.14%,66.67%{transform:translate(192px,48px)}14.81%{transform:translate(160px,48px)}15.15%{transform:translate(160px,64px)}16.5%{transform:translate(224px,64px)}17.17%{transform:translate(224px,96px)}17.51%,68.01%{transform:translate(208px,96px)}18.86%{transform:translate(208px,32px)}19.87%{transform:translate(192px,0)}23.57%{transform:translate(368px,0)}24.24%{transform:translate(368px,32px)}25.59%{transform:translate(432px,32px)}26.26%{transform:translate(432px,64px)}26.6%{transform:translate(448px,64px)}27.27%{transform:translate(448px,96px)}27.61%{transform:translate(464px,96px)}29.29%{transform:translate(464px,16px)}29.63%,88.22%{transform:translate(448px,16px)}29.97%{transform:translate(448px,32px)}32.32%,78.11%{transform:translate(560px,32px)}32.66%,42.76%{transform:translate(560px,16px)}34.34%{transform:translate(640px,16px)}35.02%{transform:translate(640px,48px)}37.71%{transform:translate(768px,48px)}38.38%{transform:translate(768px,16px)}43.43%{transform:translate(560px,48px)}43.77%{transform:translate(576px,48px)}44.11%{transform:translate(576px,32px)}45.12%{transform:translate(528px,32px)}45.79%,76.77%{transform:translate(528px,0)}46.46%{transform:translate(496px,0)}48.48%{transform:translate(496px,96px)}48.82%{transform:translate(480px,96px)}49.16%{transform:translate(480px,80px)}50.51%{transform:translate(416px,80px)}50.84%{transform:translate(416px,96px)}51.18%{transform:translate(400px,96px)}52.53%{transform:translate(400px,32px)}55.89%{transform:translate(240px,32px)}56.57%{transform:translate(240px,0)}59.93%{transform:translate(80px,0)}60.61%,96.97%{transform:translate(80px,32px)}62.29%{transform:translate(0,32px)}62.63%{transform:translate(0,48px)}67.68%{transform:translate(192px,96px)}69.7%{transform:translate(208px,16px)}76.43%{transform:translate(528px,16px)}77.44%{transform:translate(560px,0)}78.45%{transform:translate(544px,32px)}78.79%{transform:translate(544px,48px)}80.13%{transform:translate(608px,48px)}80.47%{transform:translate(608px,32px)}82.49%{transform:translate(512px,32px)}83.84%{transform:translate(512px,96px)}84.51%{transform:translate(544px,96px)}86.2%{transform:translate(544px,16px)}88.89%{transform:translate(448px,48px)}96.3%{transform:translate(96px,48px)}96.63%{transform:translate(96px,32px)}97.31%{transform:translate(80px,16px)}97.98%{transform:translate(48px,16px)}98.65%{transform:translate(48px,-16px)}}@keyframes s1{0%,99.66%{transform:translate(16px,-16px)}.34%{transform:translate(0,-16px)}.67%{transform:translate(0,0)}1.01%{transform:translate(16px,0)}1.35%{transform:translate(16px,16px)}1.68%{transform:translate(32px,16px)}2.36%{transform:translate(32px,48px)}3.03%{transform:translate(64px,48px)}3.37%{transform:translate(64px,64px)}3.7%{transform:translate(80px,64px)}4.38%{transform:translate(80px,96px)}4.71%{transform:translate(96px,96px)}5.05%{transform:translate(96px,80px)}6.4%{transform:translate(32px,80px)}6.73%{transform:translate(32px,96px)}7.07%{transform:translate(16px,96px)}7.74%{transform:translate(16px,64px)}8.42%{transform:translate(-16px,64px)}9.09%{transform:translate(-16px,32px)}10.77%{transform:translate(64px,32px)}11.11%{transform:translate(64px,16px)}13.47%{transform:translate(176px,16px)}13.8%{transform:translate(176px,32px)}14.14%,19.53%{transform:translate(192px,32px)}14.48%,67%{transform:translate(192px,48px)}15.15%{transform:translate(160px,48px)}15.49%{transform:translate(160px,64px)}16.84%{transform:translate(224px,64px)}17.51%{transform:translate(224px,96px)}17.85%,68.35%{transform:translate(208px,96px)}19.19%{transform:translate(208px,32px)}20.2%{transform:translate(192px,0)}23.91%{transform:translate(368px,0)}24.58%{transform:translate(368px,32px)}25.93%{transform:translate(432px,32px)}26.6%{transform:translate(432px,64px)}26.94%{transform:translate(448px,64px)}27.61%{transform:translate(448px,96px)}27.95%{transform:translate(464px,96px)}29.63%{transform:translate(464px,16px)}29.97%,88.55%{transform:translate(448px,16px)}30.3%{transform:translate(448px,32px)}32.66%,78.45%{transform:translate(560px,32px)}33%,43.1%{transform:translate(560px,16px)}34.68%{transform:translate(640px,16px)}35.35%{transform:translate(640px,48px)}38.05%{transform:translate(768px,48px)}38.72%{transform:translate(768px,16px)}43.77%{transform:translate(560px,48px)}44.11%{transform:translate(576px,48px)}44.44%{transform:translate(576px,32px)}45.45%{transform:translate(528px,32px)}46.13%,77.1%{transform:translate(528px,0)}46.8%{transform:translate(496px,0)}48.82%{transform:translate(496px,96px)}49.16%{transform:translate(480px,96px)}49.49%{transform:translate(480px,80px)}50.84%{transform:translate(416px,80px)}51.18%{transform:translate(416px,96px)}51.52%{transform:translate(400px,96px)}52.86%{transform:translate(400px,32px)}56.23%{transform:translate(240px,32px)}56.9%{transform:translate(240px,0)}60.27%{transform:translate(80px,0)}60.94%,97.31%{transform:translate(80px,32px)}62.63%{transform:translate(0,32px)}62.96%{transform:translate(0,48px)}68.01%{transform:translate(192px,96px)}70.03%{transform:translate(208px,16px)}76.77%{transform:translate(528px,16px)}77.78%{transform:translate(560px,0)}78.79%{transform:translate(544px,32px)}79.12%{transform:translate(544px,48px)}80.47%{transform:translate(608px,48px)}80.81%{transform:translate(608px,32px)}82.83%{transform:translate(512px,32px)}84.18%{transform:translate(512px,96px)}84.85%{transform:translate(544px,96px)}86.53%{transform:translate(544px,16px)}89.23%{transform:translate(448px,48px)}96.63%{transform:translate(96px,48px)}96.97%{transform:translate(96px,32px)}97.64%{transform:translate(80px,16px)}98.32%{transform:translate(48px,16px)}98.99%{transform:translate(48px,-16px)}}@keyframes s2{0%,99.66%{transform:translate(32px,-16px)}.67%{transform:translate(0,-16px)}1.01%{transform:translate(0,0)}1.35%{transform:translate(16px,0)}1.68%{transform:translate(16px,16px)}2.02%{transform:translate(32px,16px)}2.69%{transform:translate(32px,48px)}3.37%{transform:translate(64px,48px)}3.7%{transform:translate(64px,64px)}4.04%{transform:translate(80px,64px)}4.71%{transform:translate(80px,96px)}5.05%{transform:translate(96px,96px)}5.39%{transform:translate(96px,80px)}6.73%{transform:translate(32px,80px)}7.07%{transform:translate(32px,96px)}7.41%{transform:translate(16px,96px)}8.08%{transform:translate(16px,64px)}8.75%{transform:translate(-16px,64px)}9.43%{transform:translate(-16px,32px)}11.11%{transform:translate(64px,32px)}11.45%{transform:translate(64px,16px)}13.8%{transform:translate(176px,16px)}14.14%{transform:translate(176px,32px)}14.48%,19.87%{transform:translate(192px,32px)}14.81%,67.34%{transform:translate(192px,48px)}15.49%{transform:translate(160px,48px)}15.82%{transform:translate(160px,64px)}17.17%{transform:translate(224px,64px)}17.85%{transform:translate(224px,96px)}18.18%,68.69%{transform:translate(208px,96px)}19.53%{transform:translate(208px,32px)}20.54%{transform:translate(192px,0)}24.24%{transform:translate(368px,0)}24.92%{transform:translate(368px,32px)}26.26%{transform:translate(432px,32px)}26.94%{transform:translate(432px,64px)}27.27%{transform:translate(448px,64px)}27.95%{transform:translate(448px,96px)}28.28%{transform:translate(464px,96px)}29.97%{transform:translate(464px,16px)}30.3%,88.89%{transform:translate(448px,16px)}30.64%{transform:translate(448px,32px)}33%,78.79%{transform:translate(560px,32px)}33.33%,43.43%{transform:translate(560px,16px)}35.02%{transform:translate(640px,16px)}35.69%{transform:translate(640px,48px)}38.38%{transform:translate(768px,48px)}39.06%{transform:translate(768px,16px)}44.11%{transform:translate(560px,48px)}44.44%{transform:translate(576px,48px)}44.78%{transform:translate(576px,32px)}45.79%{transform:translate(528px,32px)}46.46%,77.44%{transform:translate(528px,0)}47.14%{transform:translate(496px,0)}49.16%{transform:translate(496px,96px)}49.49%{transform:translate(480px,96px)}49.83%{transform:translate(480px,80px)}51.18%{transform:translate(416px,80px)}51.52%{transform:translate(416px,96px)}51.85%{transform:translate(400px,96px)}53.2%{transform:translate(400px,32px)}56.57%{transform:translate(240px,32px)}57.24%{transform:translate(240px,0)}60.61%{transform:translate(80px,0)}61.28%,97.64%{transform:translate(80px,32px)}62.96%{transform:translate(0,32px)}63.3%{transform:translate(0,48px)}68.35%{transform:translate(192px,96px)}70.37%{transform:translate(208px,16px)}77.1%{transform:translate(528px,16px)}78.11%{transform:translate(560px,0)}79.12%{transform:translate(544px,32px)}79.46%{transform:translate(544px,48px)}80.81%{transform:translate(608px,48px)}81.14%{transform:translate(608px,32px)}83.16%{transform:translate(512px,32px)}84.51%{transform:translate(512px,96px)}85.19%{transform:translate(544px,96px)}86.87%{transform:translate(544px,16px)}89.56%{transform:translate(448px,48px)}96.97%{transform:translate(96px,48px)}97.31%{transform:translate(96px,32px)}97.98%{transform:translate(80px,16px)}98.65%{transform:translate(48px,16px)}99.33%{transform:translate(48px,-16px)}}@keyframes s3{0%,99.66%{transform:translate(48px,-16px)}1.01%{transform:translate(0,-16px)}1.35%{transform:translate(0,0)}1.68%{transform:translate(16px,0)}2.02%{transform:translate(16px,16px)}2.36%{transform:translate(32px,16px)}3.03%{transform:translate(32px,48px)}3.7%{transform:translate(64px,48px)}4.04%{transform:translate(64px,64px)}4.38%{transform:translate(80px,64px)}5.05%{transform:translate(80px,96px)}5.39%{transform:translate(96px,96px)}5.72%{transform:translate(96px,80px)}7.07%{transform:translate(32px,80px)}7.41%{transform:translate(32px,96px)}7.74%{transform:translate(16px,96px)}8.42%{transform:translate(16px,64px)}9.09%{transform:translate(-16px,64px)}9.76%{transform:translate(-16px,32px)}11.45%{transform:translate(64px,32px)}11.78%{transform:translate(64px,16px)}14.14%{transform:translate(176px,16px)}14.48%{transform:translate(176px,32px)}14.81%,20.2%{transform:translate(192px,32px)}15.15%,67.68%{transform:translate(192px,48px)}15.82%{transform:translate(160px,48px)}16.16%{transform:translate(160px,64px)}17.51%{transform:translate(224px,64px)}18.18%{transform:translate(224px,96px)}18.52%,69.02%{transform:translate(208px,96px)}19.87%{transform:translate(208px,32px)}20.88%{transform:translate(192px,0)}24.58%{transform:translate(368px,0)}25.25%{transform:translate(368px,32px)}26.6%{transform:translate(432px,32px)}27.27%{transform:translate(432px,64px)}27.61%{transform:translate(448px,64px)}28.28%{transform:translate(448px,96px)}28.62%{transform:translate(464px,96px)}30.3%{transform:translate(464px,16px)}30.64%,89.23%{transform:translate(448px,16px)}30.98%{transform:translate(448px,32px)}33.33%,79.12%{transform:translate(560px,32px)}33.67%,43.77%{transform:translate(560px,16px)}35.35%{transform:translate(640px,16px)}36.03%{transform:translate(640px,48px)}38.72%{transform:translate(768px,48px)}39.39%{transform:translate(768px,16px)}44.44%{transform:translate(560px,48px)}44.78%{transform:translate(576px,48px)}45.12%{transform:translate(576px,32px)}46.13%{transform:translate(528px,32px)}46.8%,77.78%{transform:translate(528px,0)}47.47%{transform:translate(496px,0)}49.49%{transform:translate(496px,96px)}49.83%{transform:translate(480px,96px)}50.17%{transform:translate(480px,80px)}51.52%{transform:translate(416px,80px)}51.85%{transform:translate(416px,96px)}52.19%{transform:translate(400px,96px)}53.54%{transform:translate(400px,32px)}56.9%{transform:translate(240px,32px)}57.58%{transform:translate(240px,0)}60.94%{transform:translate(80px,0)}61.62%,97.98%{transform:translate(80px,32px)}63.3%{transform:translate(0,32px)}63.64%{transform:translate(0,48px)}68.69%{transform:translate(192px,96px)}70.71%{transform:translate(208px,16px)}77.44%{transform:translate(528px,16px)}78.45%{transform:translate(560px,0)}79.46%{transform:translate(544px,32px)}79.8%{transform:translate(544px,48px)}81.14%{transform:translate(608px,48px)}81.48%{transform:translate(608px,32px)}83.5%{transform:translate(512px,32px)}84.85%{transform:translate(512px,96px)}85.52%{transform:translate(544px,96px)}87.21%{transform:translate(544px,16px)}89.9%{transform:translate(448px,48px)}97.31%{transform:translate(96px,48px)}97.64%{transform:translate(96px,32px)}98.32%{transform:translate(80px,16px)}98.99%{transform:translate(48px,16px)}}:root{--cb:#1b1f230a;--cs:purple;--ce:#ebedf0;--c0:#ebedf0;--c1:#9be9a8;--c2:#40c463;--c3:#30a14e;--c4:#216e39}@media (prefers-color-scheme:dark){:root{--cb:#1b1f230a;--cs:purple;--ce:#161b22;--c1:#01311f;--c2:#034525;--c3:#0f6d31;--c4:#00c647}}.c{shape-rendering:geometricPrecision;fill:var(--ce);stroke-width:1px;stroke:var(--cb);animation:none 29700ms linear infinite}.c.c0{fill:var(--c1);animation-name:c0}.c.c1{fill:var(--c2);animation-name:c1}.c.c2{fill:var(--c1);animation-name:c2}.c.c3,.c.c4,.c.c5{fill:var(--c1);animation-name:c3}.c.c4,.c.c5{animation-name:c4}.c.c5{animation-name:c5}.c.c6,.c.c7,.c.c8{fill:var(--c1);animation-name:c6}.c.c7,.c.c8{animation-name:c7}.c.c8{animation-name:c8}.c.c9{fill:var(--c2);animation-name:c9}.c.ca{fill:var(--c1);animation-name:ca}.c.cb,.c.cc,.c.cd{fill:var(--c1);animation-name:cb}.c.cc,.c.cd{animation-name:cc}.c.cd{animation-name:cd}.c.ce{fill:var(--c2);animation-name:ce}.c.cf{fill:var(--c1);animation-name:cf}.c.cg,.c.ch,.c.ci{fill:var(--c1);animation-name:cg}.c.ch,.c.ci{animation-name:ch}.c.ci{animation-name:ci}.c.cj,.c.ck,.c.cl{fill:var(--c1);animation-name:cj}.c.ck,.c.cl{animation-name:ck}.c.cl{animation-name:cl}.c.cm,.c.cn,.c.co{fill:var(--c3);animation-name:cm}.c.cn,.c.co{animation-name:cn}.c.co{animation-name:co}.c.cp{fill:var(--c1);animation-name:cp}.c.cq{fill:var(--c2);animation-name:cq}.c.cr,.c.cs,.c.ct{fill:var(--c1);animation-name:cr}.c.cs,.c.ct{animation-name:cs}.c.ct{animation-name:ct}.c.cu{fill:var(--c2);animation-name:cu}.c.cv,.c.cw{fill:var(--c1);animation-name:cv}.c.cw{animation-name:cw}.c.cx{fill:var(--c2);animation-name:cx}.c.cy{fill:var(--c1);animation-name:cy}.c.cz{fill:var(--c4);animation-name:cz}.c.c10,.c.c11{fill:var(--c1);animation-name:c10}.c.c11{animation-name:c11}.c.c12{fill:var(--c2);animation-name:c12}.c.c13{fill:var(--c3);animation-name:c13}.c.c14{fill:var(--c2);animation-name:c14}.c.c15{fill:var(--c3);animation-name:c15}.c.c16{fill:var(--c4);animation-name:c16}.c.c17{fill:var(--c3);animation-name:c17}.c.c18{fill:var(--c1);animation-name:c18}.c.c19{fill:var(--c2);animation-name:c19}.c.c1a{fill:var(--c1);animation-name:c1a}.c.c1b{fill:var(--c3);animation-name:c1b}.c.c1c,.c.c1d,.c.c1e{fill:var(--c1);animation-name:c1c}.c.c1d,.c.c1e{animation-name:c1d}.c.c1e{animation-name:c1e}.s,.u{animation:none linear 29700ms infinite}.u,.u.u0{transform-origin:0 0}.u{transform:scale(0,1)}.u.u0{fill:var(--c1);animation-name:u0}.u.u1{fill:var(--c2);animation-name:u1;transform-origin:548.7px 0}.u.u2{fill:var(--c3);animation-name:u2;transform-origin:698.4px 0}.u.u3{fill:var(--c4);animation-name:u3;transform-origin:814.7px 0}.s{shape-rendering:geometricPrecision;fill:var(--cs)}.s.s0{transform:translate(0,-16px);animation-name:s0}.s.s1{transform:translate(16px,-16px);animation-name:s1}.s.s2{transform:translate(32px,-16px);animation-name:s2}.s.s3{transform:translate(48px,-16px);animation-name:s3}</style><rect class="c" x="2" y="2" rx="2" ry="2" width="12" height="12"/><rect class="c" x="2" y="18" rx="2" ry="2" width="12" height="12"/><rect class="c c0" x="2" y="34" rx="2" ry="2" width="12" height="12"/><rect class="c c1" x="2" y="50" rx="2" ry="2" width="12" height="12"/><rect class="c c2" x="2" y="66" rx="2" ry="2" width="12" height="12"/><rect class="c" x="2" y="82" rx="2" ry="2" width="12" height="12"/><rect class="c" x="2" y="98" rx="2" ry="2" width="12" height="12"/><rect class="c" x="18" y="2" rx="2" ry="2" width="12" height="12"/><rect class="c c3" x="18" y="18" rx="2" ry="2" width="12" height="12"/><rect class="c" x="18" y="34" rx="2" ry="2" width="12" height="12"/><rect class="c" x="18" y="50" rx="2" ry="2" width="12" height="12"/><rect class="c" x="18" y="66" rx="2" ry="2" width="12" height="12"/><rect class="c" x="18" y="82" rx="2" ry="2" width="12" height="12"/><rect class="c c4" x="18" y="98" rx="2" ry="2" width="12" height="12"/><rect class="c" x="34" y="2" rx="2" ry="2" width="12" height="12"/><rect class="c" x="34" y="18" rx="2" ry="2" width="12" height="12"/><rect class="c c5" x="34" y="34" rx="2" ry="2" width="12" height="12"/><rect class="c c6" x="34" y="50" rx="2" ry="2" width="12" height="12"/><rect class="c" x="34" y="66" rx="2" ry="2" width="12" height="12"/><rect class="c" x="34" y="82" rx="2" ry="2" width="12" height="12"/><rect class="c c7" x="34" y="98" rx="2" ry="2" width="12" height="12"/><rect class="c" x="50" y="2" rx="2" ry="2" width="12" height="12"/><rect class="c" x="50" y="18" rx="2" ry="2" width="12" height="12"/><rect class="c" x="50" y="34" rx="2" ry="2" width="12" height="12"/><rect class="c" x="50" y="50" rx="2" ry="2" width="12" height="12"/><rect class="c" x="50" y="66" rx="2" ry="2" width="12" height="12"/><rect class="c" x="50" y="82" rx="2" ry="2" width="12" height="12"/><rect class="c" x="50" y="98" rx="2" ry="2" width="12" height="12"/><rect class="c" x="66" y="2" rx="2" ry="2" width="12" height="12"/><rect class="c" x="66" y="18" rx="2" ry="2" width="12" height="12"/><rect class="c" x="66" y="34" rx="2" ry="2" width="12" height="12"/><rect class="c" x="66" y="50" rx="2" ry="2" width="12" height="12"/><rect class="c c8" x="66" y="66" rx="2" ry="2" width="12" height="12"/><rect class="c" x="66" y="82" rx="2" ry="2" width="12" height="12"/><rect class="c" x="66" y="98" rx="2" ry="2" width="12" height="12"/><rect class="c" x="82" y="2" rx="2" ry="2" width="12" height="12"/><rect class="c" x="82" y="18" rx="2" ry="2" width="12" height="12"/><rect class="c c9" x="82" y="34" rx="2" ry="2" width="12" height="12"/><rect class="c" x="82" y="50" rx="2" ry="2" width="12" height="12"/><rect class="c" x="82" y="66" rx="2" ry="2" width="12" height="12"/><rect class="c" x="82" y="82" rx="2" ry="2" width="12" height="12"/><rect class="c ca" x="82" y="98" rx="2" ry="2" width="12" height="12"/><rect class="c" x="98" y="2" rx="2" ry="2" width="12" height="12"/><rect class="c" x="98" y="18" rx="2" ry="2" width="12" height="12"/><rect class="c" x="98" y="34" rx="2" ry="2" width="12" height="12"/><rect class="c" x="98" y="50" rx="2" ry="2" width="12" height="12"/><rect class="c" x="98" y="66" rx="2" ry="2" width="12" height="12"/><rect class="c" x="98" y="82" rx="2" ry="2" width="12" height="12"/><rect class="c cb" x="98" y="98" rx="2" ry="2" width="12" height="12"/><rect class="c" x="114" y="2" rx="2" ry="2" width="12" height="12"/><rect class="c" x="114" y="18" rx="2" ry="2" width="12" height="12"/><rect class="c" x="114" y="34" rx="2" ry="2" width="12" height="12"/><rect class="c" x="114" y="50" rx="2" ry="2" width="12" height="12"/><rect class="c" x="114" y="66" rx="2" ry="2" width="12" height="12"/><rect class="c" x="114" y="82" rx="2" ry="2" width="12" height="12"/><rect class="c" x="114" y="98" rx="2" ry="2" width="12" height="12"/><rect class="c" x="130" y="2" rx="2" ry="2" width="12" height="12"/><rect class="c cc" x="130" y="18" rx="2" ry="2" width="12" height="12"/><rect class="c" x="130" y="34" rx="2" ry="2" width="12" height="12"/><rect class="c" x="130" y="50" rx="2" ry="2" width="12" height="12"/><rect class="c" x="130" y="66" rx="2" ry="2" width="12" height="12"/><rect class="c" x="130" y="82" rx="2" ry="2" width="12" height="12"/><rect class="c" x="130" y="98" rx="2" ry="2" width="12" height="12"/><rect class="c" x="146" y="2" rx="2" ry="2" width="12" height="12"/><rect class="c" x="146" y="18" rx="2" ry="2" width="12" height="12"/><rect class="c" x="146" y="34" rx="2" ry="2" width="12" height="12"/><rect class="c" x="146" y="50" rx="2" ry="2" width="12" height="12"/><rect class="c" x="146" y="66" rx="2" ry="2" width="12" height="12"/><rect class="c" x="146" y="82" rx="2" ry="2" width="12" height="12"/><rect class="c" x="146" y="98" rx="2" ry="2" width="12" height="12"/><rect class="c" x="162" y="2" rx="2" ry="2" width="12" height="12"/><rect class="c" x="162" y="18" rx="2" ry="2" width="12" height="12"/><rect class="c" x="162" y="34" rx="2" ry="2" width="12" height="12"/><rect class="c cd" x="162" y="50" rx="2" ry="2" width="12" height="12"/><rect class="c" x="162" y="66" rx="2" ry="2" width="12" height="12"/><rect class="c" x="162" y="82" rx="2" ry="2" width="12" height="12"/><rect class="c" x="162" y="98" rx="2" ry="2" width="12" height="12"/><rect class="c ce" x="178" y="2" rx="2" ry="2" width="12" height="12"/><rect class="c" x="178" y="18" rx="2" ry="2" width="12" height="12"/><rect class="c cf" x="178" y="34" rx="2" ry="2" width="12" height="12"/><rect class="c cg" x="178" y="50" rx="2" ry="2" width="12" height="12"/><rect class="c ch" x="178" y="66" rx="2" ry="2" width="12" height="12"/><rect class="c" x="178" y="82" rx="2" ry="2" width="12" height="12"/><rect class="c" x="178" y="98" rx="2" ry="2" width="12" height="12"/><rect class="c ci" x="194" y="2" rx="2" ry="2" width="12" height="12"/><rect class="c" x="194" y="18" rx="2" ry="2" width="12" height="12"/><rect class="c cj" x="194" y="34" rx="2" ry="2" width="12" height="12"/><rect class="c ck" x="194" y="50" rx="2" ry="2" width="12" height="12"/><rect class="c cl" x="194" y="66" rx="2" ry="2" width="12" height="12"/><rect class="c cm" x="194" y="82" rx="2" ry="2" width="12" height="12"/><rect class="c cn" x="194" y="98" rx="2" ry="2" width="12" height="12"/><rect class="c" x="210" y="2" rx="2" ry="2" width="12" height="12"/><rect class="c co" x="210" y="18" rx="2" ry="2" width="12" height="12"/><rect class="c" x="210" y="34" rx="2" ry="2" width="12" height="12"/><rect class="c" x="210" y="50" rx="2" ry="2" width="12" height="12"/><rect class="c" x="210" y="66" rx="2" ry="2" width="12" height="12"/><rect class="c" x="210" y="82" rx="2" ry="2" width="12" height="12"/><rect class="c" x="210" y="98" rx="2" ry="2" width="12" height="12"/><rect class="c" x="226" y="2" rx="2" ry="2" width="12" height="12"/><rect class="c" x="226" y="18" rx="2" ry="2" width="12" height="12"/><rect class="c" x="226" y="34" rx="2" ry="2" width="12" height="12"/><rect class="c" x="226" y="50" rx="2" ry="2" width="12" height="12"/><rect class="c" x="226" y="66" rx="2" ry="2" width="12" height="12"/><rect class="c" x="226" y="82" rx="2" ry="2" width="12" height="12"/><rect class="c cp" x="226" y="98" rx="2" ry="2" width="12" height="12"/><rect class="c" x="242" y="2" rx="2" ry="2" width="12" height="12"/><rect class="c" x="242" y="18" rx="2" ry="2" width="12" height="12"/><rect class="c cq" x="242" y="34" rx="2" ry="2" width="12" height="12"/><rect class="c" x="242" y="50" rx="2" ry="2" width="12" height="12"/><rect class="c" x="242" y="66" rx="2" ry="2" width="12" height="12"/><rect class="c" x="242" y="82" rx="2" ry="2" width="12" height="12"/><rect class="c" x="242" y="98" rx="2" ry="2" width="12" height="12"/><rect class="c" x="258" y="2" rx="2" ry="2" width="12" height="12"/><rect class="c" x="258" y="18" rx="2" ry="2" width="12" height="12"/><rect class="c" x="258" y="34" rx="2" ry="2" width="12" height="12"/><rect class="c" x="258" y="50" rx="2" ry="2" width="12" height="12"/><rect class="c" x="258" y="66" rx="2" ry="2" width="12" height="12"/><rect class="c" x="258" y="82" rx="2" ry="2" width="12" height="12"/><rect class="c" x="258" y="98" rx="2" ry="2" width="12" height="12"/><rect class="c" x="274" y="2" rx="2" ry="2" width="12" height="12"/><rect class="c" x="274" y="18" rx="2" ry="2" width="12" height="12"/><rect class="c" x="274" y="34" rx="2" ry="2" width="12" height="12"/><rect class="c" x="274" y="50" rx="2" ry="2" width="12" height="12"/><rect class="c" x="274" y="66" rx="2" ry="2" width="12" height="12"/><rect class="c" x="274" y="82" rx="2" ry="2" width="12" height="12"/><rect class="c" x="274" y="98" rx="2" ry="2" width="12" height="12"/><rect class="c" x="290" y="2" rx="2" ry="2" width="12" height="12"/><rect class="c" x="290" y="18" rx="2" ry="2" width="12" height="12"/><rect class="c" x="290" y="34" rx="2" ry="2" width="12" height="12"/><rect class="c" x="290" y="50" rx="2" ry="2" width="12" height="12"/><rect class="c" x="290" y="66" rx="2" ry="2" width="12" height="12"/><rect class="c" x="290" y="82" rx="2" ry="2" width="12" height="12"/><rect class="c" x="290" y="98" rx="2" ry="2" width="12" height="12"/><rect class="c" x="306" y="2" rx="2" ry="2" width="12" height="12"/><rect class="c" x="306" y="18" rx="2" ry="2" width="12" height="12"/><rect class="c" x="306" y="34" rx="2" ry="2" width="12" height="12"/><rect class="c" x="306" y="50" rx="2" ry="2" width="12" height="12"/><rect class="c" x="306" y="66" rx="2" ry="2" width="12" height="12"/><rect class="c" x="306" y="82" rx="2" ry="2" width="12" height="12"/><rect class="c" x="306" y="98" rx="2" ry="2" width="12" height="12"/><rect class="c" x="322" y="2" rx="2" ry="2" width="12" height="12"/><rect class="c" x="322" y="18" rx="2" ry="2" width="12" height="12"/><rect class="c" x="322" y="34" rx="2" ry="2" width="12" height="12"/><rect class="c" x="322" y="50" rx="2" ry="2" width="12" height="12"/><rect class="c" x="322" y="66" rx="2" ry="2" width="12" height="12"/><rect class="c" x="322" y="82" rx="2" ry="2" width="12" height="12"/><rect class="c" x="322" y="98" rx="2" ry="2" width="12" height="12"/><rect class="c" x="338" y="2" rx="2" ry="2" width="12" height="12"/><rect class="c" x="338" y="18" rx="2" ry="2" width="12" height="12"/><rect class="c" x="338" y="34" rx="2" ry="2" width="12" height="12"/><rect class="c" x="338" y="50" rx="2" ry="2" width="12" height="12"/><rect class="c" x="338" y="66" rx="2" ry="2" width="12" height="12"/><rect class="c" x="338" y="82" rx="2" ry="2" width="12" height="12"/><rect class="c" x="338" y="98" rx="2" ry="2" width="12" height="12"/><rect class="c cr" x="354" y="2" rx="2" ry="2" width="12" height="12"/><rect class="c" x="354" y="18" rx="2" ry="2" width="12" height="12"/><rect class="c" x="354" y="34" rx="2" ry="2" width="12" height="12"/><rect class="c" x="354" y="50" rx="2" ry="2" width="12" height="12"/><rect class="c" x="354" y="66" rx="2" ry="2" width="12" height="12"/><rect class="c" x="354" y="82" rx="2" ry="2" width="12" height="12"/><rect class="c" x="354" y="98" rx="2" ry="2" width="12" height="12"/><rect class="c" x="370" y="2" rx="2" ry="2" width="12" height="12"/><rect class="c cs" x="370" y="18" rx="2" ry="2" width="12" height="12"/><rect class="c ct" x="370" y="34" rx="2" ry="2" width="12" height="12"/><rect class="c" x="370" y="50" rx="2" ry="2" width="12" height="12"/><rect class="c" x="370" y="66" rx="2" ry="2" width="12" height="12"/><rect class="c" x="370" y="82" rx="2" ry="2" width="12" height="12"/><rect class="c" x="370" y="98" rx="2" ry="2" width="12" height="12"/><rect class="c" x="386" y="2" rx="2" ry="2" width="12" height="12"/><rect class="c" x="386" y="18" rx="2" ry="2" width="12" height="12"/><rect class="c" x="386" y="34" rx="2" ry="2" width="12" height="12"/><rect class="c" x="386" y="50" rx="2" ry="2" width="12" height="12"/><rect class="c" x="386" y="66" rx="2" ry="2" width="12" height="12"/><rect class="c" x="386" y="82" rx="2" ry="2" width="12" height="12"/><rect class="c" x="386" y="98" rx="2" ry="2" width="12" height="12"/><rect class="c" x="402" y="2" rx="2" ry="2" width="12" height="12"/><rect class="c" x="402" y="18" rx="2" ry="2" width="12" height="12"/><rect class="c" x="402" y="34" rx="2" ry="2" width="12" height="12"/><rect class="c" x="402" y="50" rx="2" ry="2" width="12" height="12"/><rect class="c" x="402" y="66" rx="2" ry="2" width="12" height="12"/><rect class="c" x="402" y="82" rx="2" ry="2" width="12" height="12"/><rect class="c" x="402" y="98" rx="2" ry="2" width="12" height="12"/><rect class="c" x="418" y="2" rx="2" ry="2" width="12" height="12"/><rect class="c" x="418" y="18" rx="2" ry="2" width="12" height="12"/><rect class="c" x="418" y="34" rx="2" ry="2" width="12" height="12"/><rect class="c" x="418" y="50" rx="2" ry="2" width="12" height="12"/><rect class="c" x="418" y="66" rx="2" ry="2" width="12" height="12"/><rect class="c" x="418" y="82" rx="2" ry="2" width="12" height="12"/><rect class="c cu" x="418" y="98" rx="2" ry="2" width="12" height="12"/><rect class="c" x="434" y="2" rx="2" ry="2" width="12" height="12"/><rect class="c" x="434" y="18" rx="2" ry="2" width="12" height="12"/><rect class="c cv" x="434" y="34" rx="2" ry="2" width="12" height="12"/><rect class="c cw" x="434" y="50" rx="2" ry="2" width="12" height="12"/><rect class="c" x="434" y="66" rx="2" ry="2" width="12" height="12"/><rect class="c cx" x="434" y="82" rx="2" ry="2" width="12" height="12"/><rect class="c" x="434" y="98" rx="2" ry="2" width="12" height="12"/><rect class="c" x="450" y="2" rx="2" ry="2" width="12" height="12"/><rect class="c cy" x="450" y="18" rx="2" ry="2" width="12" height="12"/><rect class="c" x="450" y="34" rx="2" ry="2" width="12" height="12"/><rect class="c cz" x="450" y="50" rx="2" ry="2" width="12" height="12"/><rect class="c c10" x="450" y="66" rx="2" ry="2" width="12" height="12"/><rect class="c" x="450" y="82" rx="2" ry="2" width="12" height="12"/><rect class="c c11" x="450" y="98" rx="2" ry="2" width="12" height="12"/><rect class="c" x="466" y="2" rx="2" ry="2" width="12" height="12"/><rect class="c" x="466" y="18" rx="2" ry="2" width="12" height="12"/><rect class="c" x="466" y="34" rx="2" ry="2" width="12" height="12"/><rect class="c" x="466" y="50" rx="2" ry="2" width="12" height="12"/><rect class="c" x="466" y="66" rx="2" ry="2" width="12" height="12"/><rect class="c" x="466" y="82" rx="2" ry="2" width="12" height="12"/><rect class="c" x="466" y="98" rx="2" ry="2" width="12" height="12"/><rect class="c" x="482" y="2" rx="2" ry="2" width="12" height="12"/><rect class="c" x="482" y="18" rx="2" ry="2" width="12" height="12"/><rect class="c" x="482" y="34" rx="2" ry="2" width="12" height="12"/><rect class="c" x="482" y="50" rx="2" ry="2" width="12" height="12"/><rect class="c" x="482" y="66" rx="2" ry="2" width="12" height="12"/><rect class="c" x="482" y="82" rx="2" ry="2" width="12" height="12"/><rect class="c" x="482" y="98" rx="2" ry="2" width="12" height="12"/><rect class="c" x="498" y="2" rx="2" ry="2" width="12" height="12"/><rect class="c" x="498" y="18" rx="2" ry="2" width="12" height="12"/><rect class="c" x="498" y="34" rx="2" ry="2" width="12" height="12"/><rect class="c" x="498" y="50" rx="2" ry="2" width="12" height="12"/><rect class="c" x="498" y="66" rx="2" ry="2" width="12" height="12"/><rect class="c" x="498" y="82" rx="2" ry="2" width="12" height="12"/><rect class="c c12" x="498" y="98" rx="2" ry="2" width="12" height="12"/><rect class="c" x="514" y="2" rx="2" ry="2" width="12" height="12"/><rect class="c" x="514" y="18" rx="2" ry="2" width="12" height="12"/><rect class="c" x="514" y="34" rx="2" ry="2" width="12" height="12"/><rect class="c" x="514" y="50" rx="2" ry="2" width="12" height="12"/><rect class="c" x="514" y="66" rx="2" ry="2" width="12" height="12"/><rect class="c" x="514" y="82" rx="2" ry="2" width="12" height="12"/><rect class="c c13" x="514" y="98" rx="2" ry="2" width="12" height="12"/><rect class="c c14" x="530" y="2" rx="2" ry="2" width="12" height="12"/><rect class="c" x="530" y="18" rx="2" ry="2" width="12" height="12"/><rect class="c" x="530" y="34" rx="2" ry="2" width="12" height="12"/><rect class="c" x="530" y="50" rx="2" ry="2" width="12" height="12"/><rect class="c" x="530" y="66" rx="2" ry="2" width="12" height="12"/><rect class="c" x="530" y="82" rx="2" ry="2" width="12" height="12"/><rect class="c" x="530" y="98" rx="2" ry="2" width="12" height="12"/><rect class="c c15" x="546" y="2" rx="2" ry="2" width="12" height="12"/><rect class="c c16" x="546" y="18" rx="2" ry="2" width="12" height="12"/><rect class="c" x="546" y="34" rx="2" ry="2" width="12" height="12"/><rect class="c c17" x="546" y="50" rx="2" ry="2" width="12" height="12"/><rect class="c" x="546" y="66" rx="2" ry="2" width="12" height="12"/><rect class="c" x="546" y="82" rx="2" ry="2" width="12" height="12"/><rect class="c" x="546" y="98" rx="2" ry="2" width="12" height="12"/><rect class="c" x="562" y="2" rx="2" ry="2" width="12" height="12"/><rect class="c c18" x="562" y="18" rx="2" ry="2" width="12" height="12"/><rect class="c" x="562" y="34" rx="2" ry="2" width="12" height="12"/><rect class="c c19" x="562" y="50" rx="2" ry="2" width="12" height="12"/><rect class="c" x="562" y="66" rx="2" ry="2" width="12" height="12"/><rect class="c" x="562" y="82" rx="2" ry="2" width="12" height="12"/><rect class="c" x="562" y="98" rx="2" ry="2" width="12" height="12"/><rect class="c" x="578" y="2" rx="2" ry="2" width="12" height="12"/><rect class="c c1a" x="578" y="18" rx="2" ry="2" width="12" height="12"/><rect class="c" x="578" y="34" rx="2" ry="2" width="12" height="12"/><rect class="c" x="578" y="50" rx="2" ry="2" width="12" height="12"/><rect class="c" x="578" y="66" rx="2" ry="2" width="12" height="12"/><rect class="c" x="578" y="82" rx="2" ry="2" width="12" height="12"/><rect class="c" x="578" y="98" rx="2" ry="2" width="12" height="12"/><rect class="c" x="594" y="2" rx="2" ry="2" width="12" height="12"/><rect class="c" x="594" y="18" rx="2" ry="2" width="12" height="12"/><rect class="c" x="594" y="34" rx="2" ry="2" width="12" height="12"/><rect class="c" x="594" y="50" rx="2" ry="2" width="12" height="12"/><rect class="c" x="594" y="66" rx="2" ry="2" width="12" height="12"/><rect class="c" x="594" y="82" rx="2" ry="2" width="12" height="12"/><rect class="c" x="594" y="98" rx="2" ry="2" width="12" height="12"/><rect class="c" x="610" y="2" rx="2" ry="2" width="12" height="12"/><rect class="c" x="610" y="18" rx="2" ry="2" width="12" height="12"/><rect class="c c1b" x="610" y="34" rx="2" ry="2" width="12" height="12"/><rect class="c" x="610" y="50" rx="2" ry="2" width="12" height="12"/><rect class="c" x="610" y="66" rx="2" ry="2" width="12" height="12"/><rect class="c" x="610" y="82" rx="2" ry="2" width="12" height="12"/><rect class="c" x="610" y="98" rx="2" ry="2" width="12" height="12"/><rect class="c" x="626" y="2" rx="2" ry="2" width="12" height="12"/><rect class="c" x="626" y="18" rx="2" ry="2" width="12" height="12"/><rect class="c" x="626" y="34" rx="2" ry="2" width="12" height="12"/><rect class="c" x="626" y="50" rx="2" ry="2" width="12" height="12"/><rect class="c" x="626" y="66" rx="2" ry="2" width="12" height="12"/><rect class="c" x="626" y="82" rx="2" ry="2" width="12" height="12"/><rect class="c" x="626" y="98" rx="2" ry="2" width="12" height="12"/><rect class="c" x="642" y="2" rx="2" ry="2" width="12" height="12"/><rect class="c" x="642" y="18" rx="2" ry="2" width="12" height="12"/><rect class="c" x="642" y="34" rx="2" ry="2" width="12" height="12"/><rect class="c c1c" x="642" y="50" rx="2" ry="2" width="12" height="12"/><rect class="c" x="642" y="66" rx="2" ry="2" width="12" height="12"/><rect class="c" x="642" y="82" rx="2" ry="2" width="12" height="12"/><rect class="c" x="642" y="98" rx="2" ry="2" width="12" height="12"/><rect class="c" x="658" y="2" rx="2" ry="2" width="12" height="12"/><rect class="c" x="658" y="18" rx="2" ry="2" width="12" height="12"/><rect class="c" x="658" y="34" rx="2" ry="2" width="12" height="12"/><rect class="c" x="658" y="50" rx="2" ry="2" width="12" height="12"/><rect class="c" x="658" y="66" rx="2" ry="2" width="12" height="12"/><rect class="c" x="658" y="82" rx="2" ry="2" width="12" height="12"/><rect class="c" x="658" y="98" rx="2" ry="2" width="12" height="12"/><rect class="c" x="674" y="2" rx="2" ry="2" width="12" height="12"/><rect class="c" x="674" y="18" rx="2" ry="2" width="12" height="12"/><rect class="c" x="674" y="34" rx="2" ry="2" width="12" height="12"/><rect class="c" x="674" y="50" rx="2" ry="2" width="12" height="12"/><rect class="c" x="674" y="66" rx="2" ry="2" width="12" height="12"/><rect class="c" x="674" y="82" rx="2" ry="2" width="12" height="12"/><rect class="c" x="674" y="98" rx="2" ry="2" width="12" height="12"/><rect class="c" x="690" y="2" rx="2" ry="2" width="12" height="12"/><rect class="c" x="690" y="18" rx="2" ry="2" width="12" height="12"/><rect class="c" x="690" y="34" rx="2" ry="2" width="12" height="12"/><rect class="c" x="690" y="50" rx="2" ry="2" width="12" height="12"/><rect class="c" x="690" y="66" rx="2" ry="2" width="12" height="12"/><rect class="c" x="690" y="82" rx="2" ry="2" width="12" height="12"/><rect class="c" x="690" y="98" rx="2" ry="2" width="12" height="12"/><rect class="c" x="706" y="2" rx="2" ry="2" width="12" height="12"/><rect class="c" x="706" y="18" rx="2" ry="2" width="12" height="12"/><rect class="c" x="706" y="34" rx="2" ry="2" width="12" height="12"/><rect class="c" x="706" y="50" rx="2" ry="2" width="12" height="12"/><rect class="c" x="706" y="66" rx="2" ry="2" width="12" height="12"/><rect class="c" x="706" y="82" rx="2" ry="2" width="12" height="12"/><rect class="c" x="706" y="98" rx="2" ry="2" width="12" height="12"/><rect class="c" x="722" y="2" rx="2" ry="2" width="12" height="12"/><rect class="c" x="722" y="18" rx="2" ry="2" width="12" height="12"/><rect class="c" x="722" y="34" rx="2" ry="2" width="12" height="12"/><rect class="c" x="722" y="50" rx="2" ry="2" width="12" height="12"/><rect class="c" x="722" y="66" rx="2" ry="2" width="12" height="12"/><rect class="c" x="722" y="82" rx="2" ry="2" width="12" height="12"/><rect class="c" x="722" y="98" rx="2" ry="2" width="12" height="12"/><rect class="c" x="738" y="2" rx="2" ry="2" width="12" height="12"/><rect class="c" x="738" y="18" rx="2" ry="2" width="12" height="12"/><rect class="c" x="738" y="34" rx="2" ry="2" width="12" height="12"/><rect class="c" x="738" y="50" rx="2" ry="2" width="12" height="12"/><rect class="c" x="738" y="66" rx="2" ry="2" width="12" height="12"/><rect class="c" x="738" y="82" rx="2" ry="2" width="12" height="12"/><rect class="c" x="738" y="98" rx="2" ry="2" width="12" height="12"/><rect class="c" x="754" y="2" rx="2" ry="2" width="12" height="12"/><rect class="c" x="754" y="18" rx="2" ry="2" width="12" height="12"/><rect class="c" x="754" y="34" rx="2" ry="2" width="12" height="12"/><rect class="c" x="754" y="50" rx="2" ry="2" width="12" height="12"/><rect class="c" x="754" y="66" rx="2" ry="2" width="12" height="12"/><rect class="c" x="754" y="82" rx="2" ry="2" width="12" height="12"/><rect class="c" x="754" y="98" rx="2" ry="2" width="12" height="12"/><rect class="c" x="770" y="2" rx="2" ry="2" width="12" height="12"/><rect class="c c1d" x="770" y="18" rx="2" ry="2" width="12" height="12"/><rect class="c c1e" x="770" y="34" rx="2" ry="2" width="12" height="12"/><rect class="c" x="770" y="50" rx="2" ry="2" width="12" height="12"/><rect class="c" x="770" y="66" rx="2" ry="2" width="12" height="12"/><rect class="c" x="770" y="82" rx="2" ry="2" width="12" height="12"/><rect class="c" x="770" y="98" rx="2" ry="2" width="12" height="12"/><rect class="c" x="786" y="2" rx="2" ry="2" width="12" height="12"/><rect class="c" x="786" y="18" rx="2" ry="2" width="12" height="12"/><rect class="c" x="786" y="34" rx="2" ry="2" width="12" height="12"/><rect class="c" x="786" y="50" rx="2" ry="2" width="12" height="12"/><rect class="c" x="786" y="66" rx="2" ry="2" width="12" height="12"/><rect class="c" x="786" y="82" rx="2" ry="2" width="12" height="12"/><rect class="c" x="786" y="98" rx="2" ry="2" width="12" height="12"/><rect class="c" x="802" y="2" rx="2" ry="2" width="12" height="12"/><rect class="c" x="802" y="18" rx="2" ry="2" width="12" height="12"/><rect class="c" x="802" y="34" rx="2" ry="2" width="12" height="12"/><rect class="c" x="802" y="50" rx="2" ry="2" width="12" height="12"/><rect class="c" x="802" y="66" rx="2" ry="2" width="12" height="12"/><rect class="c" x="802" y="82" rx="2" ry="2" width="12" height="12"/><rect class="c" x="802" y="98" rx="2" ry="2" width="12" height="12"/><rect class="c" x="818" y="2" rx="2" ry="2" width="12" height="12"/><rect class="c" x="818" y="18" rx="2" ry="2" width="12" height="12"/><rect class="c" x="818" y="34" rx="2" ry="2" width="12" height="12"/><rect class="c" x="818" y="50" rx="2" ry="2" width="12" height="12"/><rect class="c" x="818" y="66" rx="2" ry="2" width="12" height="12"/><rect class="c" x="818" y="82" rx="2" ry="2" width="12" height="12"/><rect class="c" x="818" y="98" rx="2" ry="2" width="12" height="12"/><rect class="c" x="834" y="2" rx="2" ry="2" width="12" height="12"/><rect class="c" x="834" y="18" rx="2" ry="2" width="12" height="12"/><rect class="c" x="834" y="34" rx="2" ry="2" width="12" height="12"/><rect class="c" x="834" y="50" rx="2" ry="2" width="12" height="12"/><rect class="c" x="834" y="66" rx="2" ry="2" width="12" height="12"/><rect class="c" x="834" y="82" rx="2" ry="2" width="12" height="12"/><rect class="u u0" height="12" width="549.3" x="0.0" y="144"/><rect class="u u1" height="12" width="150.2" x="548.7" y="144"/><rect class="u u2" height="12" width="117.0" x="698.4" y="144"/><rect class="u u3" height="12" width="33.9" x="814.7" y="144"/><rect class="s s0" x="0.8" y="0.8" width="14.4" height="14.4" rx="4.5" ry="4.5"/><rect class="s s1" x="1.8" y="1.8" width="12.3" height="12.3" rx="4.1" ry="4.1"/><rect class="s s2" x="2.6" y="2.6" width="10.8" height="10.8" rx="3.6" ry="3.6"/><rect class="s s3" x="3.0" y="3.0" width="9.9" height="9.9" rx="3.3" ry="3.3"/></svg>