<svg viewBox="-16 -32 880 192" width="880" height="192" xmlns="http://www.w3.org/2000/svg"><style>@keyframes c0{5.32%{fill:var(--c1)}5.34%,to{fill:var(--ce)}}@keyframes c1{3.99%{fill:var(--c1)}4.01%,to{fill:var(--ce)}}@keyframes c2{2.92%{fill:var(--c1)}2.94%,to{fill:var(--ce)}}@keyframes c3{3.72%{fill:var(--c1)}3.74%,to{fill:var(--ce)}}@keyframes c4{72.79%{fill:var(--c2)}72.81%,to{fill:var(--ce)}}@keyframes c5{3.19%{fill:var(--c1)}3.21%,to{fill:var(--ce)}}@keyframes c6{3.46%{fill:var(--c1)}3.48%,to{fill:var(--ce)}}@keyframes c7{6.66%{fill:var(--c1)}6.68%,to{fill:var(--ce)}}@keyframes c8{6.39%{fill:var(--c1)}6.41%,to{fill:var(--ce)}}@keyframes c9{8.26%{fill:var(--c1)}8.28%,to{fill:var(--ce)}}@keyframes ca{7.46%{fill:var(--c1)}7.48%,to{fill:var(--ce)}}@keyframes cb{49.06%{fill:var(--c1)}49.08%,to{fill:var(--ce)}}@keyframes cc{12.26%{fill:var(--c1)}12.28%,to{fill:var(--ce)}}@keyframes cd{12.52%{fill:var(--c1)}12.54%,to{fill:var(--ce)}}@keyframes ce{12.79%{fill:var(--c1)}12.81%,to{fill:var(--ce)}}@keyframes cf{13.06%{fill:var(--c1)}13.08%,to{fill:var(--ce)}}@keyframes cg{10.12%{fill:var(--c1)}10.14%,to{fill:var(--ce)}}@keyframes ch{11.99%{fill:var(--c1)}12.01%,to{fill:var(--ce)}}@keyframes ci{11.72%{fill:var(--c1)}11.74%,to{fill:var(--ce)}}@keyframes cj{13.59%{fill:var(--c1)}13.61%,to{fill:var(--ce)}}@keyframes ck{10.66%{fill:var(--c1)}10.68%,to{fill:var(--ce)}}@keyframes cl{10.92%{fill:var(--c1)}10.94%,to{fill:var(--ce)}}@keyframes cm{11.19%{fill:var(--c1)}11.21%,to{fill:var(--ce)}}@keyframes cn{14.39%{fill:var(--c1)}14.41%,to{fill:var(--ce)}}@keyframes co{51.46%{fill:var(--c2)}51.48%,to{fill:var(--ce)}}@keyframes cp{15.99%{fill:var(--c1)}16.01%,to{fill:var(--ce)}}@keyframes cq{15.72%{fill:var(--c1)}15.74%,to{fill:var(--ce)}}@keyframes cr{52.79%{fill:var(--c2)}52.81%,to{fill:var(--ce)}}@keyframes cs{18.39%{fill:var(--c1)}18.41%,to{fill:var(--ce)}}@keyframes ct{18.66%{fill:var(--c1)}18.68%,to{fill:var(--ce)}}@keyframes cu{17.32%{fill:var(--c1)}17.34%,to{fill:var(--ce)}}@keyframes cv{20.52%{fill:var(--c1)}20.54%,to{fill:var(--ce)}}@keyframes cw{40.26%{fill:var(--c1)}40.28%,to{fill:var(--ce)}}@keyframes cx{20.79%{fill:var(--c1)}20.81%,to{fill:var(--ce)}}@keyframes cy{21.06%{fill:var(--c1)}21.08%,to{fill:var(--ce)}}@keyframes cz{21.32%{fill:var(--c1)}21.34%,to{fill:var(--ce)}}@keyframes c10{40.79%{fill:var(--c1)}40.81%,to{fill:var(--ce)}}@keyframes c11{80.52%{fill:var(--c4)}80.54%,to{fill:var(--ce)}}@keyframes c12{39.72%{fill:var(--c1)}39.74%,to{fill:var(--ce)}}@keyframes c13{57.59%{fill:var(--c2)}57.61%,to{fill:var(--ce)}}@keyframes c14{36.79%{fill:var(--c1)}36.81%,to{fill:var(--ce)}}@keyframes c15{38.12%{fill:var(--c1)}38.14%,to{fill:var(--ce)}}@keyframes c16{22.39%{fill:var(--c1)}22.41%,to{fill:var(--ce)}}@keyframes c17{57.86%{fill:var(--c2)}57.88%,to{fill:var(--ce)}}@keyframes c18{36.26%{fill:var(--c1)}36.28%,to{fill:var(--ce)}}@keyframes c19{37.32%{fill:var(--c1)}37.34%,to{fill:var(--ce)}}@keyframes c1a{22.92%{fill:var(--c1)}22.94%,to{fill:var(--ce)}}@keyframes c1b{22.66%{fill:var(--c1)}22.68%,to{fill:var(--ce)}}@keyframes c1c{35.99%{fill:var(--c1)}36.01%,to{fill:var(--ce)}}@keyframes c1d{35.72%{fill:var(--c1)}35.74%,to{fill:var(--ce)}}@keyframes c1e{35.46%{fill:var(--c1)}35.48%,to{fill:var(--ce)}}@keyframes c1f{23.19%{fill:var(--c1)}23.21%,to{fill:var(--ce)}}@keyframes c1g{58.39%{fill:var(--c2)}58.41%,to{fill:var(--ce)}}@keyframes c1h{25.06%{fill:var(--c1)}25.08%,to{fill:var(--ce)}}@keyframes c1i{24.79%{fill:var(--c1)}24.81%,to{fill:var(--ce)}}@keyframes c1j{24.52%{fill:var(--c1)}24.54%,to{fill:var(--ce)}}@keyframes c1k{58.66%{fill:var(--c2)}58.68%,to{fill:var(--ce)}}@keyframes c1l{59.19%{fill:var(--c2)}59.21%,to{fill:var(--ce)}}@keyframes c1m{24.26%{fill:var(--c1)}24.28%,to{fill:var(--ce)}}@keyframes c1n{23.72%{fill:var(--c1)}23.74%,to{fill:var(--ce)}}@keyframes c1o{25.86%{fill:var(--c1)}25.88%,to{fill:var(--ce)}}@keyframes c1p{25.59%{fill:var(--c1)}25.61%,to{fill:var(--ce)}}@keyframes c1q{34.39%{fill:var(--c1)}34.41%,to{fill:var(--ce)}}@keyframes c1r{33.59%{fill:var(--c1)}33.61%,to{fill:var(--ce)}}@keyframes c1s{26.92%{fill:var(--c1)}26.94%,to{fill:var(--ce)}}@keyframes c1t{27.19%{fill:var(--c1)}27.21%,to{fill:var(--ce)}}@keyframes c1u{29.86%{fill:var(--c1)}29.88%,to{fill:var(--ce)}}@keyframes c1v{30.39%{fill:var(--c1)}30.41%,to{fill:var(--ce)}}@keyframes c1w{61.06%{fill:var(--c2)}61.08%,to{fill:var(--ce)}}@keyframes c1x{84.79%{fill:var(--c4)}84.81%,to{fill:var(--ce)}}@keyframes c1y{27.99%{fill:var(--c1)}28.01%,to{fill:var(--ce)}}@keyframes c1z{27.72%{fill:var(--c1)}27.74%,to{fill:var(--ce)}}@keyframes c20{29.06%{fill:var(--c1)}29.08%,to{fill:var(--ce)}}@keyframes c21{61.32%{fill:var(--c2)}61.34%,to{fill:var(--ce)}}@keyframes c22{31.19%{fill:var(--c1)}31.21%,to{fill:var(--ce)}}@keyframes c23{30.92%{fill:var(--c1)}30.94%,to{fill:var(--ce)}}@keyframes c24{32.26%{fill:var(--c1)}32.28%,to{fill:var(--ce)}}@keyframes u0{2.92%{transform:scale(0,1)}2.94%,3.19%{transform:scale(.02,1)}3.21%,3.46%{transform:scale(.03,1)}3.48%,3.72%{transform:scale(.05,1)}3.74%,3.99%{transform:scale(.06,1)}4.01%,5.32%{transform:scale(.08,1)}5.34%,6.39%{transform:scale(.09,1)}6.41%,6.66%{transform:scale(.11,1)}6.68%,7.46%{transform:scale(.12,1)}7.48%,8.26%{transform:scale(.14,1)}10.12%,8.28%{transform:scale(.15,1)}10.14%,10.66%{transform:scale(.17,1)}10.68%,10.92%{transform:scale(.18,1)}10.94%,11.19%{transform:scale(.2,1)}11.21%,11.72%{transform:scale(.22,1)}11.74%,11.99%{transform:scale(.23,1)}12.01%,12.26%{transform:scale(.25,1)}12.28%,12.52%{transform:scale(.26,1)}12.54%,12.79%{transform:scale(.28,1)}12.81%,13.06%{transform:scale(.29,1)}13.08%,13.59%{transform:scale(.31,1)}13.61%,14.39%{transform:scale(.32,1)}14.41%,15.72%{transform:scale(.34,1)}15.74%,15.99%{transform:scale(.35,1)}16.01%,17.32%{transform:scale(.37,1)}17.34%,18.39%{transform:scale(.38,1)}18.41%,18.66%{transform:scale(.4,1)}18.68%,20.52%{transform:scale(.42,1)}20.54%,20.79%{transform:scale(.43,1)}20.81%,21.06%{transform:scale(.45,1)}21.08%,21.32%{transform:scale(.46,1)}21.34%,22.39%{transform:scale(.48,1)}22.41%,22.66%{transform:scale(.49,1)}22.68%,22.92%{transform:scale(.51,1)}22.94%,23.19%{transform:scale(.52,1)}23.21%,23.72%{transform:scale(.54,1)}23.74%,24.26%{transform:scale(.55,1)}24.28%,24.52%{transform:scale(.57,1)}24.54%,24.79%{transform:scale(.58,1)}24.81%,25.06%{transform:scale(.6,1)}25.08%,25.59%{transform:scale(.62,1)}25.61%,25.86%{transform:scale(.63,1)}25.88%,26.92%{transform:scale(.65,1)}26.94%,27.19%{transform:scale(.66,1)}27.21%,27.72%{transform:scale(.68,1)}27.74%,27.99%{transform:scale(.69,1)}28.01%,29.06%{transform:scale(.71,1)}29.08%,29.86%{transform:scale(.72,1)}29.88%,30.39%{transform:scale(.74,1)}30.41%,30.92%{transform:scale(.75,1)}30.94%,31.19%{transform:scale(.77,1)}31.21%,32.26%{transform:scale(.78,1)}32.28%,33.59%{transform:scale(.8,1)}33.61%,34.39%{transform:scale(.82,1)}34.41%,35.46%{transform:scale(.83,1)}35.48%,35.72%{transform:scale(.85,1)}35.74%,35.99%{transform:scale(.86,1)}36.01%,36.26%{transform:scale(.88,1)}36.28%,36.79%{transform:scale(.89,1)}36.81%,37.32%{transform:scale(.91,1)}37.34%,38.12%{transform:scale(.92,1)}38.14%,39.72%{transform:scale(.94,1)}39.74%,40.26%{transform:scale(.95,1)}40.28%,40.79%{transform:scale(.97,1)}40.81%,49.06%{transform:scale(.98,1)}49.08%,to{transform:scale(1,1)}}@keyframes u1{51.46%{transform:scale(0,1)}51.48%,52.79%{transform:scale(.1,1)}52.81%,57.59%{transform:scale(.2,1)}57.61%,57.86%{transform:scale(.3,1)}57.88%,58.39%{transform:scale(.4,1)}58.41%,58.66%{transform:scale(.5,1)}58.68%,59.19%{transform:scale(.6,1)}59.21%,61.06%{transform:scale(.7,1)}61.08%,61.32%{transform:scale(.8,1)}61.34%,72.79%{transform:scale(.9,1)}72.81%,to{transform:scale(1,1)}}@keyframes u2{80.52%{transform:scale(0,1)}80.54%,84.79%{transform:scale(.5,1)}84.81%,to{transform:scale(1,1)}}@keyframes s0{0%,99.73%{transform:translate(0,-16px)}.27%{transform:translate(0,0)}3.2%{transform:translate(176px,0)}3.47%{transform:translate(176px,16px)}4.27%,97.07%{transform:translate(128px,16px)}5.33%{transform:translate(128px,80px)}6.4%{transform:translate(192px,80px)}6.67%{transform:translate(192px,64px)}7.2%{transform:translate(224px,64px)}8.27%{transform:translate(224px,0)}10.67%{transform:translate(368px,0)}11.2%{transform:translate(368px,32px)}11.47%{transform:translate(352px,32px)}11.73%{transform:translate(352px,48px)}12.27%{transform:translate(320px,48px)}13.07%{transform:translate(320px,96px)}13.6%{transform:translate(352px,96px)}14.13%{transform:translate(352px,64px)}14.93%{transform:translate(400px,64px)}16%{transform:translate(400px,0)}17.33%{transform:translate(480px,0)}17.6%{transform:translate(480px,16px)}17.87%{transform:translate(464px,16px)}18.67%{transform:translate(464px,64px)}20.8%{transform:translate(592px,64px)}21.33%{transform:translate(592px,96px)}22.67%{transform:translate(672px,96px)}22.93%{transform:translate(672px,80px)}23.73%{transform:translate(720px,80px)}24.27%{transform:translate(720px,48px)}24.53%{transform:translate(704px,48px)}25.07%{transform:translate(704px,16px)}25.6%{transform:translate(736px,16px)}25.87%{transform:translate(736px,0)}26.67%{transform:translate(784px,0)}26.93%{transform:translate(784px,16px)}27.73%,28.8%{transform:translate(832px,16px)}28%{transform:translate(832px,0)}28.27%{transform:translate(848px,0)}28.53%{transform:translate(848px,16px)}29.07%,61.6%{transform:translate(832px,32px)}29.6%{transform:translate(800px,32px)}30.4%{transform:translate(800px,80px)}30.93%,32%{transform:translate(832px,80px)}31.2%{transform:translate(832px,64px)}31.47%{transform:translate(848px,64px)}31.73%{transform:translate(848px,80px)}32.27%{transform:translate(832px,96px)}32.53%{transform:translate(816px,96px)}32.8%{transform:translate(816px,80px)}33.6%{transform:translate(768px,80px)}34.13%{transform:translate(768px,48px)}35.47%{transform:translate(688px,48px)}36%{transform:translate(688px,16px)}36.53%{transform:translate(656px,16px)}36.8%{transform:translate(656px,32px)}37.07%{transform:translate(672px,32px)}37.33%{transform:translate(672px,48px)}37.6%{transform:translate(656px,48px)}38.13%,56.27%{transform:translate(656px,80px)}38.4%{transform:translate(640px,80px)}39.2%{transform:translate(640px,32px)}40%{transform:translate(592px,32px)}40.53%{transform:translate(592px,0)}41.07%{transform:translate(624px,0)}41.6%{transform:translate(624px,32px)}48%{transform:translate(240px,32px)}49.07%{transform:translate(240px,96px)}51.2%{transform:translate(368px,96px)}51.47%{transform:translate(368px,80px)}57.6%{transform:translate(656px,0)}58.67%{transform:translate(720px,0)}59.2%{transform:translate(720px,32px)}60.8%{transform:translate(816px,32px)}61.07%{transform:translate(816px,48px)}61.33%{transform:translate(832px,48px)}72.8%{transform:translate(160px,32px)}73.07%{transform:translate(160px,16px)}84%{transform:translate(816px,16px)}84.8%{transform:translate(816px,64px)}96%{transform:translate(144px,64px)}96.27%{transform:translate(144px,48px)}96.53%{transform:translate(128px,48px)}97.33%{transform:translate(112px,16px)}97.6%{transform:translate(112px,0)}98.13%{transform:translate(80px,0)}98.4%{transform:translate(80px,-16px)}}@keyframes s1{0%,99.73%{transform:translate(16px,-16px)}.27%{transform:translate(0,-16px)}.53%{transform:translate(0,0)}3.47%{transform:translate(176px,0)}3.73%{transform:translate(176px,16px)}4.53%,97.33%{transform:translate(128px,16px)}5.6%{transform:translate(128px,80px)}6.67%{transform:translate(192px,80px)}6.93%{transform:translate(192px,64px)}7.47%{transform:translate(224px,64px)}8.53%{transform:translate(224px,0)}10.93%{transform:translate(368px,0)}11.47%{transform:translate(368px,32px)}11.73%{transform:translate(352px,32px)}12%{transform:translate(352px,48px)}12.53%{transform:translate(320px,48px)}13.33%{transform:translate(320px,96px)}13.87%{transform:translate(352px,96px)}14.4%{transform:translate(352px,64px)}15.2%{transform:translate(400px,64px)}16.27%{transform:translate(400px,0)}17.6%{transform:translate(480px,0)}17.87%{transform:translate(480px,16px)}18.13%{transform:translate(464px,16px)}18.93%{transform:translate(464px,64px)}21.07%{transform:translate(592px,64px)}21.6%{transform:translate(592px,96px)}22.93%{transform:translate(672px,96px)}23.2%{transform:translate(672px,80px)}24%{transform:translate(720px,80px)}24.53%{transform:translate(720px,48px)}24.8%{transform:translate(704px,48px)}25.33%{transform:translate(704px,16px)}25.87%{transform:translate(736px,16px)}26.13%{transform:translate(736px,0)}26.93%{transform:translate(784px,0)}27.2%{transform:translate(784px,16px)}28%,29.07%{transform:translate(832px,16px)}28.27%{transform:translate(832px,0)}28.53%{transform:translate(848px,0)}28.8%{transform:translate(848px,16px)}29.33%,61.87%{transform:translate(832px,32px)}29.87%{transform:translate(800px,32px)}30.67%{transform:translate(800px,80px)}31.2%,32.27%{transform:translate(832px,80px)}31.47%{transform:translate(832px,64px)}31.73%{transform:translate(848px,64px)}32%{transform:translate(848px,80px)}32.53%{transform:translate(832px,96px)}32.8%{transform:translate(816px,96px)}33.07%{transform:translate(816px,80px)}33.87%{transform:translate(768px,80px)}34.4%{transform:translate(768px,48px)}35.73%{transform:translate(688px,48px)}36.27%{transform:translate(688px,16px)}36.8%{transform:translate(656px,16px)}37.07%{transform:translate(656px,32px)}37.33%{transform:translate(672px,32px)}37.6%{transform:translate(672px,48px)}37.87%{transform:translate(656px,48px)}38.4%,56.53%{transform:translate(656px,80px)}38.67%{transform:translate(640px,80px)}39.47%{transform:translate(640px,32px)}40.27%{transform:translate(592px,32px)}40.8%{transform:translate(592px,0)}41.33%{transform:translate(624px,0)}41.87%{transform:translate(624px,32px)}48.27%{transform:translate(240px,32px)}49.33%{transform:translate(240px,96px)}51.47%{transform:translate(368px,96px)}51.73%{transform:translate(368px,80px)}57.87%{transform:translate(656px,0)}58.93%{transform:translate(720px,0)}59.47%{transform:translate(720px,32px)}61.07%{transform:translate(816px,32px)}61.33%{transform:translate(816px,48px)}61.6%{transform:translate(832px,48px)}73.07%{transform:translate(160px,32px)}73.33%{transform:translate(160px,16px)}84.27%{transform:translate(816px,16px)}85.07%{transform:translate(816px,64px)}96.27%{transform:translate(144px,64px)}96.53%{transform:translate(144px,48px)}96.8%{transform:translate(128px,48px)}97.6%{transform:translate(112px,16px)}97.87%{transform:translate(112px,0)}98.4%{transform:translate(80px,0)}98.67%{transform:translate(80px,-16px)}}@keyframes s2{0%,99.73%{transform:translate(32px,-16px)}.53%{transform:translate(0,-16px)}.8%{transform:translate(0,0)}3.73%{transform:translate(176px,0)}4%{transform:translate(176px,16px)}4.8%,97.6%{transform:translate(128px,16px)}5.87%{transform:translate(128px,80px)}6.93%{transform:translate(192px,80px)}7.2%{transform:translate(192px,64px)}7.73%{transform:translate(224px,64px)}8.8%{transform:translate(224px,0)}11.2%{transform:translate(368px,0)}11.73%{transform:translate(368px,32px)}12%{transform:translate(352px,32px)}12.27%{transform:translate(352px,48px)}12.8%{transform:translate(320px,48px)}13.6%{transform:translate(320px,96px)}14.13%{transform:translate(352px,96px)}14.67%{transform:translate(352px,64px)}15.47%{transform:translate(400px,64px)}16.53%{transform:translate(400px,0)}17.87%{transform:translate(480px,0)}18.13%{transform:translate(480px,16px)}18.4%{transform:translate(464px,16px)}19.2%{transform:translate(464px,64px)}21.33%{transform:translate(592px,64px)}21.87%{transform:translate(592px,96px)}23.2%{transform:translate(672px,96px)}23.47%{transform:translate(672px,80px)}24.27%{transform:translate(720px,80px)}24.8%{transform:translate(720px,48px)}25.07%{transform:translate(704px,48px)}25.6%{transform:translate(704px,16px)}26.13%{transform:translate(736px,16px)}26.4%{transform:translate(736px,0)}27.2%{transform:translate(784px,0)}27.47%{transform:translate(784px,16px)}28.27%,29.33%{transform:translate(832px,16px)}28.53%{transform:translate(832px,0)}28.8%{transform:translate(848px,0)}29.07%{transform:translate(848px,16px)}29.6%,62.13%{transform:translate(832px,32px)}30.13%{transform:translate(800px,32px)}30.93%{transform:translate(800px,80px)}31.47%,32.53%{transform:translate(832px,80px)}31.73%{transform:translate(832px,64px)}32%{transform:translate(848px,64px)}32.27%{transform:translate(848px,80px)}32.8%{transform:translate(832px,96px)}33.07%{transform:translate(816px,96px)}33.33%{transform:translate(816px,80px)}34.13%{transform:translate(768px,80px)}34.67%{transform:translate(768px,48px)}36%{transform:translate(688px,48px)}36.53%{transform:translate(688px,16px)}37.07%{transform:translate(656px,16px)}37.33%{transform:translate(656px,32px)}37.6%{transform:translate(672px,32px)}37.87%{transform:translate(672px,48px)}38.13%{transform:translate(656px,48px)}38.67%,56.8%{transform:translate(656px,80px)}38.93%{transform:translate(640px,80px)}39.73%{transform:translate(640px,32px)}40.53%{transform:translate(592px,32px)}41.07%{transform:translate(592px,0)}41.6%{transform:translate(624px,0)}42.13%{transform:translate(624px,32px)}48.53%{transform:translate(240px,32px)}49.6%{transform:translate(240px,96px)}51.73%{transform:translate(368px,96px)}52%{transform:translate(368px,80px)}58.13%{transform:translate(656px,0)}59.2%{transform:translate(720px,0)}59.73%{transform:translate(720px,32px)}61.33%{transform:translate(816px,32px)}61.6%{transform:translate(816px,48px)}61.87%{transform:translate(832px,48px)}73.33%{transform:translate(160px,32px)}73.6%{transform:translate(160px,16px)}84.53%{transform:translate(816px,16px)}85.33%{transform:translate(816px,64px)}96.53%{transform:translate(144px,64px)}96.8%{transform:translate(144px,48px)}97.07%{transform:translate(128px,48px)}97.87%{transform:translate(112px,16px)}98.13%{transform:translate(112px,0)}98.67%{transform:translate(80px,0)}98.93%{transform:translate(80px,-16px)}}@keyframes s3{0%,99.73%{transform:translate(48px,-16px)}.8%{transform:translate(0,-16px)}1.07%{transform:translate(0,0)}4%{transform:translate(176px,0)}4.27%{transform:translate(176px,16px)}5.07%,97.87%{transform:translate(128px,16px)}6.13%{transform:translate(128px,80px)}7.2%{transform:translate(192px,80px)}7.47%{transform:translate(192px,64px)}8%{transform:translate(224px,64px)}9.07%{transform:translate(224px,0)}11.47%{transform:translate(368px,0)}12%{transform:translate(368px,32px)}12.27%{transform:translate(352px,32px)}12.53%{transform:translate(352px,48px)}13.07%{transform:translate(320px,48px)}13.87%{transform:translate(320px,96px)}14.4%{transform:translate(352px,96px)}14.93%{transform:translate(352px,64px)}15.73%{transform:translate(400px,64px)}16.8%{transform:translate(400px,0)}18.13%{transform:translate(480px,0)}18.4%{transform:translate(480px,16px)}18.67%{transform:translate(464px,16px)}19.47%{transform:translate(464px,64px)}21.6%{transform:translate(592px,64px)}22.13%{transform:translate(592px,96px)}23.47%{transform:translate(672px,96px)}23.73%{transform:translate(672px,80px)}24.53%{transform:translate(720px,80px)}25.07%{transform:translate(720px,48px)}25.33%{transform:translate(704px,48px)}25.87%{transform:translate(704px,16px)}26.4%{transform:translate(736px,16px)}26.67%{transform:translate(736px,0)}27.47%{transform:translate(784px,0)}27.73%{transform:translate(784px,16px)}28.53%,29.6%{transform:translate(832px,16px)}28.8%{transform:translate(832px,0)}29.07%{transform:translate(848px,0)}29.33%{transform:translate(848px,16px)}29.87%,62.4%{transform:translate(832px,32px)}30.4%{transform:translate(800px,32px)}31.2%{transform:translate(800px,80px)}31.73%,32.8%{transform:translate(832px,80px)}32%{transform:translate(832px,64px)}32.27%{transform:translate(848px,64px)}32.53%{transform:translate(848px,80px)}33.07%{transform:translate(832px,96px)}33.33%{transform:translate(816px,96px)}33.6%{transform:translate(816px,80px)}34.4%{transform:translate(768px,80px)}34.93%{transform:translate(768px,48px)}36.27%{transform:translate(688px,48px)}36.8%{transform:translate(688px,16px)}37.33%{transform:translate(656px,16px)}37.6%{transform:translate(656px,32px)}37.87%{transform:translate(672px,32px)}38.13%{transform:translate(672px,48px)}38.4%{transform:translate(656px,48px)}38.93%,57.07%{transform:translate(656px,80px)}39.2%{transform:translate(640px,80px)}40%{transform:translate(640px,32px)}40.8%{transform:translate(592px,32px)}41.33%{transform:translate(592px,0)}41.87%{transform:translate(624px,0)}42.4%{transform:translate(624px,32px)}48.8%{transform:translate(240px,32px)}49.87%{transform:translate(240px,96px)}52%{transform:translate(368px,96px)}52.27%{transform:translate(368px,80px)}58.4%{transform:translate(656px,0)}59.47%{transform:translate(720px,0)}60%{transform:translate(720px,32px)}61.6%{transform:translate(816px,32px)}61.87%{transform:translate(816px,48px)}62.13%{transform:translate(832px,48px)}73.6%{transform:translate(160px,32px)}73.87%{transform:translate(160px,16px)}84.8%{transform:translate(816px,16px)}85.6%{transform:translate(816px,64px)}96.8%{transform:translate(144px,64px)}97.07%{transform:translate(144px,48px)}97.33%{transform:translate(128px,48px)}98.13%{transform:translate(112px,16px)}98.4%{transform:translate(112px,0)}98.93%{transform:translate(80px,0)}99.2%{transform:translate(80px,-16px)}}:root{--cb:#1b1f230a;--cs:purple;--ce:#ebedf0;--c0:#ebedf0;--c1:#9be9a8;--c2:#40c463;--c3:#30a14e;--c4:#216e39}@media (prefers-color-scheme:dark){:root{--cb:#1b1f230a;--cs:purple;--ce:#161b22;--c1:#01311f;--c2:#034525;--c3:#0f6d31;--c4:#00c647}}.c{shape-rendering:geometricPrecision;rx:2;ry:2;fill:var(--ce);stroke-width:1px;stroke:var(--cb);animation:none 37500ms linear infinite}.c.c0{fill:var(--c1);animation-name:c0}.c.c1,.c.c2,.c.c3{fill:var(--c1);animation-name:c1}.c.c2,.c.c3{animation-name:c2}.c.c3{animation-name:c3}.c.c4{fill:var(--c2);animation-name:c4}.c.c5{fill:var(--c1);animation-name:c5}.c.c6,.c.c7,.c.c8{fill:var(--c1);animation-name:c6}.c.c7,.c.c8{animation-name:c7}.c.c8{animation-name:c8}.c.c9,.c.ca,.c.cb{fill:var(--c1);animation-name:c9}.c.ca,.c.cb{animation-name:ca}.c.cb{animation-name:cb}.c.cc,.c.cd,.c.ce{fill:var(--c1);animation-name:cc}.c.cd,.c.ce{animation-name:cd}.c.ce{animation-name:ce}.c.cf,.c.cg,.c.ch{fill:var(--c1);animation-name:cf}.c.cg,.c.ch{animation-name:cg}.c.ch{animation-name:ch}.c.ci,.c.cj,.c.ck{fill:var(--c1);animation-name:ci}.c.cj,.c.ck{animation-name:cj}.c.ck{animation-name:ck}.c.cl,.c.cm,.c.cn{fill:var(--c1);animation-name:cl}.c.cm,.c.cn{animation-name:cm}.c.cn{animation-name:cn}.c.co{fill:var(--c2);animation-name:co}.c.cp,.c.cq{fill:var(--c1);animation-name:cp}.c.cq{animation-name:cq}.c.cr{fill:var(--c2);animation-name:cr}.c.cs,.c.ct,.c.cu{fill:var(--c1);animation-name:cs}.c.ct,.c.cu{animation-name:ct}.c.cu{animation-name:cu}.c.cv,.c.cw,.c.cx{fill:var(--c1);animation-name:cv}.c.cw,.c.cx{animation-name:cw}.c.cx{animation-name:cx}.c.c10,.c.cy,.c.cz{fill:var(--c1);animation-name:cy}.c.c10,.c.cz{animation-name:cz}.c.c10{animation-name:c10}.c.c11{fill:var(--c4);animation-name:c11}.c.c12{fill:var(--c1);animation-name:c12}.c.c13{fill:var(--c2);animation-name:c13}.c.c14,.c.c15,.c.c16{fill:var(--c1);animation-name:c14}.c.c15,.c.c16{animation-name:c15}.c.c16{animation-name:c16}.c.c17{fill:var(--c2);animation-name:c17}.c.c18,.c.c19{fill:var(--c1);animation-name:c18}.c.c19{animation-name:c19}.c.c1a,.c.c1b,.c.c1c{fill:var(--c1);animation-name:c1a}.c.c1b,.c.c1c{animation-name:c1b}.c.c1c{animation-name:c1c}.c.c1d,.c.c1e,.c.c1f{fill:var(--c1);animation-name:c1d}.c.c1e,.c.c1f{animation-name:c1e}.c.c1f{animation-name:c1f}.c.c1g{fill:var(--c2);animation-name:c1g}.c.c1h,.c.c1i,.c.c1j{fill:var(--c1);animation-name:c1h}.c.c1i,.c.c1j{animation-name:c1i}.c.c1j{animation-name:c1j}.c.c1k,.c.c1l{fill:var(--c2);animation-name:c1k}.c.c1l{animation-name:c1l}.c.c1m{fill:var(--c1);animation-name:c1m}.c.c1n,.c.c1o,.c.c1p{fill:var(--c1);animation-name:c1n}.c.c1o,.c.c1p{animation-name:c1o}.c.c1p{animation-name:c1p}.c.c1q,.c.c1r,.c.c1s{fill:var(--c1);animation-name:c1q}.c.c1r,.c.c1s{animation-name:c1r}.c.c1s{animation-name:c1s}.c.c1t,.c.c1u,.c.c1v{fill:var(--c1);animation-name:c1t}.c.c1u,.c.c1v{animation-name:c1u}.c.c1v{animation-name:c1v}.c.c1w{fill:var(--c2);animation-name:c1w}.c.c1x{fill:var(--c4);animation-name:c1x}.c.c1y,.c.c1z,.c.c20{fill:var(--c1);animation-name:c1y}.c.c1z,.c.c20{animation-name:c1z}.c.c20{animation-name:c20}.c.c21{fill:var(--c2);animation-name:c21}.c.c22,.c.c23,.c.c24{fill:var(--c1);animation-name:c22}.c.c23,.c.c24{animation-name:c23}.c.c24{animation-name:c24}.s,.u{animation:none linear 37500ms infinite}.u,.u.u0{transform-origin:0 0}.u{transform:scale(0,1)}.u.u0{fill:var(--c1);animation-name:u0}.u.u1{fill:var(--c2);animation-name:u1;transform-origin:715.8px 0}.u.u2{fill:var(--c4);animation-name:u2;transform-origin:826px 0}.s{shape-rendering:geometricPrecision;fill:var(--cs)}.s.s0{transform:translate(0,-16px);animation-name:s0}.s.s1{transform:translate(16px,-16px);animation-name:s1}.s.s2{transform:translate(32px,-16px);animation-name:s2}.s.s3{transform:translate(48px,-16px);animation-name:s3}</style><rect class="c" x="2" y="2" width="12" height="12"/><rect class="c" x="2" y="18" width="12" height="12"/><rect class="c" x="2" y="34" width="12" height="12"/><rect class="c" x="2" y="50" width="12" height="12"/><rect class="c" x="2" y="66" width="12" height="12"/><rect class="c" x="2" y="82" width="12" height="12"/><rect class="c" x="2" y="98" width="12" height="12"/><rect class="c" x="18" y="2" width="12" height="12"/><rect class="c" x="18" y="18" width="12" height="12"/><rect class="c" x="18" y="34" width="12" height="12"/><rect class="c" x="18" y="50" width="12" height="12"/><rect class="c" x="18" y="66" width="12" height="12"/><rect class="c" x="18" y="82" width="12" height="12"/><rect class="c" x="18" y="98" width="12" height="12"/><rect class="c" x="34" y="2" width="12" height="12"/><rect class="c" x="34" y="18" width="12" height="12"/><rect class="c" x="34" y="34" width="12" height="12"/><rect class="c" x="34" y="50" width="12" height="12"/><rect class="c" x="34" y="66" width="12" height="12"/><rect class="c" x="34" y="82" width="12" height="12"/><rect class="c" x="34" y="98" width="12" height="12"/><rect class="c" x="50" y="2" width="12" height="12"/><rect class="c" x="50" y="18" width="12" height="12"/><rect class="c" x="50" y="34" width="12" height="12"/><rect class="c" x="50" y="50" width="12" height="12"/><rect class="c" x="50" y="66" width="12" height="12"/><rect class="c" x="50" y="82" width="12" height="12"/><rect class="c" x="50" y="98" width="12" height="12"/><rect class="c" x="66" y="2" width="12" height="12"/><rect class="c" x="66" y="18" width="12" height="12"/><rect class="c" x="66" y="34" width="12" height="12"/><rect class="c" x="66" y="50" width="12" height="12"/><rect class="c" x="66" y="66" width="12" height="12"/><rect class="c" x="66" y="82" width="12" height="12"/><rect class="c" x="66" y="98" width="12" height="12"/><rect class="c" x="82" y="2" width="12" height="12"/><rect class="c" x="82" y="18" width="12" height="12"/><rect class="c" x="82" y="34" width="12" height="12"/><rect class="c" x="82" y="50" width="12" height="12"/><rect class="c" x="82" y="66" width="12" height="12"/><rect class="c" x="82" y="82" width="12" height="12"/><rect class="c" x="82" y="98" width="12" height="12"/><rect class="c" x="98" y="2" width="12" height="12"/><rect class="c" x="98" y="18" width="12" height="12"/><rect class="c" x="98" y="34" width="12" height="12"/><rect class="c" x="98" y="50" width="12" height="12"/><rect class="c" x="98" y="66" width="12" height="12"/><rect class="c" x="98" y="82" width="12" height="12"/><rect class="c" x="98" y="98" width="12" height="12"/><rect class="c" x="114" y="2" width="12" height="12"/><rect class="c" x="114" y="18" width="12" height="12"/><rect class="c" x="114" y="34" width="12" height="12"/><rect class="c" x="114" y="50" width="12" height="12"/><rect class="c" x="114" y="66" width="12" height="12"/><rect class="c" x="114" y="82" width="12" height="12"/><rect class="c" x="114" y="98" width="12" height="12"/><rect class="c" x="130" y="2" width="12" height="12"/><rect class="c" x="130" y="18" width="12" height="12"/><rect class="c" x="130" y="34" width="12" height="12"/><rect class="c" x="130" y="50" width="12" height="12"/><rect class="c" x="130" y="66" width="12" height="12"/><rect class="c c0" x="130" y="82" width="12" height="12"/><rect class="c" x="130" y="98" width="12" height="12"/><rect class="c" x="146" y="2" width="12" height="12"/><rect class="c c1" x="146" y="18" width="12" height="12"/><rect class="c" x="146" y="34" width="12" height="12"/><rect class="c" x="146" y="50" width="12" height="12"/><rect class="c" x="146" y="66" width="12" height="12"/><rect class="c" x="146" y="82" width="12" height="12"/><rect class="c" x="146" y="98" width="12" height="12"/><rect class="c c2" x="162" y="2" width="12" height="12"/><rect class="c c3" x="162" y="18" width="12" height="12"/><rect class="c c4" x="162" y="34" width="12" height="12"/><rect class="c" x="162" y="50" width="12" height="12"/><rect class="c" x="162" y="66" width="12" height="12"/><rect class="c" x="162" y="82" width="12" height="12"/><rect class="c" x="162" y="98" width="12" height="12"/><rect class="c c5" x="178" y="2" width="12" height="12"/><rect class="c c6" x="178" y="18" width="12" height="12"/><rect class="c" x="178" y="34" width="12" height="12"/><rect class="c" x="178" y="50" width="12" height="12"/><rect class="c" x="178" y="66" width="12" height="12"/><rect class="c" x="178" y="82" width="12" height="12"/><rect class="c" x="178" y="98" width="12" height="12"/><rect class="c" x="194" y="2" width="12" height="12"/><rect class="c" x="194" y="18" width="12" height="12"/><rect class="c" x="194" y="34" width="12" height="12"/><rect class="c" x="194" y="50" width="12" height="12"/><rect class="c c7" x="194" y="66" width="12" height="12"/><rect class="c c8" x="194" y="82" width="12" height="12"/><rect class="c" x="194" y="98" width="12" height="12"/><rect class="c" x="210" y="2" width="12" height="12"/><rect class="c" x="210" y="18" width="12" height="12"/><rect class="c" x="210" y="34" width="12" height="12"/><rect class="c" x="210" y="50" width="12" height="12"/><rect class="c" x="210" y="66" width="12" height="12"/><rect class="c" x="210" y="82" width="12" height="12"/><rect class="c" x="210" y="98" width="12" height="12"/><rect class="c c9" x="226" y="2" width="12" height="12"/><rect class="c" x="226" y="18" width="12" height="12"/><rect class="c" x="226" y="34" width="12" height="12"/><rect class="c ca" x="226" y="50" width="12" height="12"/><rect class="c" x="226" y="66" width="12" height="12"/><rect class="c" x="226" y="82" width="12" height="12"/><rect class="c" x="226" y="98" width="12" height="12"/><rect class="c" x="242" y="2" width="12" height="12"/><rect class="c" x="242" y="18" width="12" height="12"/><rect class="c" x="242" y="34" width="12" height="12"/><rect class="c" x="242" y="50" width="12" height="12"/><rect class="c" x="242" y="66" width="12" height="12"/><rect class="c" x="242" y="82" width="12" height="12"/><rect class="c cb" x="242" y="98" width="12" height="12"/><rect class="c" x="258" y="2" width="12" height="12"/><rect class="c" x="258" y="18" width="12" height="12"/><rect class="c" x="258" y="34" width="12" height="12"/><rect class="c" x="258" y="50" width="12" height="12"/><rect class="c" x="258" y="66" width="12" height="12"/><rect class="c" x="258" y="82" width="12" height="12"/><rect class="c" x="258" y="98" width="12" height="12"/><rect class="c" x="274" y="2" width="12" height="12"/><rect class="c" x="274" y="18" width="12" height="12"/><rect class="c" x="274" y="34" width="12" height="12"/><rect class="c" x="274" y="50" width="12" height="12"/><rect class="c" x="274" y="66" width="12" height="12"/><rect class="c" x="274" y="82" width="12" height="12"/><rect class="c" x="274" y="98" width="12" height="12"/><rect class="c" x="290" y="2" width="12" height="12"/><rect class="c" x="290" y="18" width="12" height="12"/><rect class="c" x="290" y="34" width="12" height="12"/><rect class="c" x="290" y="50" width="12" height="12"/><rect class="c" x="290" y="66" width="12" height="12"/><rect class="c" x="290" y="82" width="12" height="12"/><rect class="c" x="290" y="98" width="12" height="12"/><rect class="c" x="306" y="2" width="12" height="12"/><rect class="c" x="306" y="18" width="12" height="12"/><rect class="c" x="306" y="34" width="12" height="12"/><rect class="c" x="306" y="50" width="12" height="12"/><rect class="c" x="306" y="66" width="12" height="12"/><rect class="c" x="306" y="82" width="12" height="12"/><rect class="c" x="306" y="98" width="12" height="12"/><rect class="c" x="322" y="2" width="12" height="12"/><rect class="c" x="322" y="18" width="12" height="12"/><rect class="c" x="322" y="34" width="12" height="12"/><rect class="c cc" x="322" y="50" width="12" height="12"/><rect class="c cd" x="322" y="66" width="12" height="12"/><rect class="c ce" x="322" y="82" width="12" height="12"/><rect class="c cf" x="322" y="98" width="12" height="12"/><rect class="c cg" x="338" y="2" width="12" height="12"/><rect class="c" x="338" y="18" width="12" height="12"/><rect class="c" x="338" y="34" width="12" height="12"/><rect class="c ch" x="338" y="50" width="12" height="12"/><rect class="c" x="338" y="66" width="12" height="12"/><rect class="c" x="338" y="82" width="12" height="12"/><rect class="c" x="338" y="98" width="12" height="12"/><rect class="c" x="354" y="2" width="12" height="12"/><rect class="c" x="354" y="18" width="12" height="12"/><rect class="c" x="354" y="34" width="12" height="12"/><rect class="c ci" x="354" y="50" width="12" height="12"/><rect class="c" x="354" y="66" width="12" height="12"/><rect class="c" x="354" y="82" width="12" height="12"/><rect class="c cj" x="354" y="98" width="12" height="12"/><rect class="c ck" x="370" y="2" width="12" height="12"/><rect class="c cl" x="370" y="18" width="12" height="12"/><rect class="c cm" x="370" y="34" width="12" height="12"/><rect class="c" x="370" y="50" width="12" height="12"/><rect class="c cn" x="370" y="66" width="12" height="12"/><rect class="c co" x="370" y="82" width="12" height="12"/><rect class="c" x="370" y="98" width="12" height="12"/><rect class="c" x="386" y="2" width="12" height="12"/><rect class="c" x="386" y="18" width="12" height="12"/><rect class="c" x="386" y="34" width="12" height="12"/><rect class="c" x="386" y="50" width="12" height="12"/><rect class="c" x="386" y="66" width="12" height="12"/><rect class="c" x="386" y="82" width="12" height="12"/><rect class="c" x="386" y="98" width="12" height="12"/><rect class="c cp" x="402" y="2" width="12" height="12"/><rect class="c cq" x="402" y="18" width="12" height="12"/><rect class="c" x="402" y="34" width="12" height="12"/><rect class="c" x="402" y="50" width="12" height="12"/><rect class="c" x="402" y="66" width="12" height="12"/><rect class="c" x="402" y="82" width="12" height="12"/><rect class="c" x="402" y="98" width="12" height="12"/><rect class="c" x="418" y="2" width="12" height="12"/><rect class="c" x="418" y="18" width="12" height="12"/><rect class="c" x="418" y="34" width="12" height="12"/><rect class="c" x="418" y="50" width="12" height="12"/><rect class="c" x="418" y="66" width="12" height="12"/><rect class="c" x="418" y="82" width="12" height="12"/><rect class="c" x="418" y="98" width="12" height="12"/><rect class="c" x="434" y="2" width="12" height="12"/><rect class="c" x="434" y="18" width="12" height="12"/><rect class="c" x="434" y="34" width="12" height="12"/><rect class="c" x="434" y="50" width="12" height="12"/><rect class="c" x="434" y="66" width="12" height="12"/><rect class="c" x="434" y="82" width="12" height="12"/><rect class="c" x="434" y="98" width="12" height="12"/><rect class="c" x="450" y="2" width="12" height="12"/><rect class="c" x="450" y="18" width="12" height="12"/><rect class="c" x="450" y="34" width="12" height="12"/><rect class="c" x="450" y="50" width="12" height="12"/><rect class="c" x="450" y="66" width="12" height="12"/><rect class="c cr" x="450" y="82" width="12" height="12"/><rect class="c" x="450" y="98" width="12" height="12"/><rect class="c" x="466" y="2" width="12" height="12"/><rect class="c" x="466" y="18" width="12" height="12"/><rect class="c" x="466" y="34" width="12" height="12"/><rect class="c cs" x="466" y="50" width="12" height="12"/><rect class="c ct" x="466" y="66" width="12" height="12"/><rect class="c" x="466" y="82" width="12" height="12"/><rect class="c" x="466" y="98" width="12" height="12"/><rect class="c cu" x="482" y="2" width="12" height="12"/><rect class="c" x="482" y="18" width="12" height="12"/><rect class="c" x="482" y="34" width="12" height="12"/><rect class="c" x="482" y="50" width="12" height="12"/><rect class="c" x="482" y="66" width="12" height="12"/><rect class="c" x="482" y="82" width="12" height="12"/><rect class="c" x="482" y="98" width="12" height="12"/><rect class="c" x="498" y="2" width="12" height="12"/><rect class="c" x="498" y="18" width="12" height="12"/><rect class="c" x="498" y="34" width="12" height="12"/><rect class="c" x="498" y="50" width="12" height="12"/><rect class="c" x="498" y="66" width="12" height="12"/><rect class="c" x="498" y="82" width="12" height="12"/><rect class="c" x="498" y="98" width="12" height="12"/><rect class="c" x="514" y="2" width="12" height="12"/><rect class="c" x="514" y="18" width="12" height="12"/><rect class="c" x="514" y="34" width="12" height="12"/><rect class="c" x="514" y="50" width="12" height="12"/><rect class="c" x="514" y="66" width="12" height="12"/><rect class="c" x="514" y="82" width="12" height="12"/><rect class="c" x="514" y="98" width="12" height="12"/><rect class="c" x="530" y="2" width="12" height="12"/><rect class="c" x="530" y="18" width="12" height="12"/><rect class="c" x="530" y="34" width="12" height="12"/><rect class="c" x="530" y="50" width="12" height="12"/><rect class="c" x="530" y="66" width="12" height="12"/><rect class="c" x="530" y="82" width="12" height="12"/><rect class="c" x="530" y="98" width="12" height="12"/><rect class="c" x="546" y="2" width="12" height="12"/><rect class="c" x="546" y="18" width="12" height="12"/><rect class="c" x="546" y="34" width="12" height="12"/><rect class="c" x="546" y="50" width="12" height="12"/><rect class="c" x="546" y="66" width="12" height="12"/><rect class="c" x="546" y="82" width="12" height="12"/><rect class="c" x="546" y="98" width="12" height="12"/><rect class="c" x="562" y="2" width="12" height="12"/><rect class="c" x="562" y="18" width="12" height="12"/><rect class="c" x="562" y="34" width="12" height="12"/><rect class="c" x="562" y="50" width="12" height="12"/><rect class="c" x="562" y="66" width="12" height="12"/><rect class="c" x="562" y="82" width="12" height="12"/><rect class="c" x="562" y="98" width="12" height="12"/><rect class="c" x="578" y="2" width="12" height="12"/><rect class="c" x="578" y="18" width="12" height="12"/><rect class="c" x="578" y="34" width="12" height="12"/><rect class="c" x="578" y="50" width="12" height="12"/><rect class="c cv" x="578" y="66" width="12" height="12"/><rect class="c" x="578" y="82" width="12" height="12"/><rect class="c" x="578" y="98" width="12" height="12"/><rect class="c" x="594" y="2" width="12" height="12"/><rect class="c cw" x="594" y="18" width="12" height="12"/><rect class="c" x="594" y="34" width="12" height="12"/><rect class="c" x="594" y="50" width="12" height="12"/><rect class="c cx" x="594" y="66" width="12" height="12"/><rect class="c cy" x="594" y="82" width="12" height="12"/><rect class="c cz" x="594" y="98" width="12" height="12"/><rect class="c c10" x="610" y="2" width="12" height="12"/><rect class="c c11" x="610" y="18" width="12" height="12"/><rect class="c c12" x="610" y="34" width="12" height="12"/><rect class="c" x="610" y="50" width="12" height="12"/><rect class="c" x="610" y="66" width="12" height="12"/><rect class="c" x="610" y="82" width="12" height="12"/><rect class="c" x="610" y="98" width="12" height="12"/><rect class="c" x="626" y="2" width="12" height="12"/><rect class="c" x="626" y="18" width="12" height="12"/><rect class="c" x="626" y="34" width="12" height="12"/><rect class="c" x="626" y="50" width="12" height="12"/><rect class="c" x="626" y="66" width="12" height="12"/><rect class="c" x="626" y="82" width="12" height="12"/><rect class="c" x="626" y="98" width="12" height="12"/><rect class="c" x="642" y="2" width="12" height="12"/><rect class="c" x="642" y="18" width="12" height="12"/><rect class="c" x="642" y="34" width="12" height="12"/><rect class="c" x="642" y="50" width="12" height="12"/><rect class="c" x="642" y="66" width="12" height="12"/><rect class="c" x="642" y="82" width="12" height="12"/><rect class="c" x="642" y="98" width="12" height="12"/><rect class="c c13" x="658" y="2" width="12" height="12"/><rect class="c" x="658" y="18" width="12" height="12"/><rect class="c c14" x="658" y="34" width="12" height="12"/><rect class="c" x="658" y="50" width="12" height="12"/><rect class="c" x="658" y="66" width="12" height="12"/><rect class="c c15" x="658" y="82" width="12" height="12"/><rect class="c c16" x="658" y="98" width="12" height="12"/><rect class="c c17" x="674" y="2" width="12" height="12"/><rect class="c c18" x="674" y="18" width="12" height="12"/><rect class="c" x="674" y="34" width="12" height="12"/><rect class="c c19" x="674" y="50" width="12" height="12"/><rect class="c" x="674" y="66" width="12" height="12"/><rect class="c c1a" x="674" y="82" width="12" height="12"/><rect class="c c1b" x="674" y="98" width="12" height="12"/><rect class="c" x="690" y="2" width="12" height="12"/><rect class="c c1c" x="690" y="18" width="12" height="12"/><rect class="c c1d" x="690" y="34" width="12" height="12"/><rect class="c c1e" x="690" y="50" width="12" height="12"/><rect class="c" x="690" y="66" width="12" height="12"/><rect class="c c1f" x="690" y="82" width="12" height="12"/><rect class="c" x="690" y="98" width="12" height="12"/><rect class="c c1g" x="706" y="2" width="12" height="12"/><rect class="c c1h" x="706" y="18" width="12" height="12"/><rect class="c c1i" x="706" y="34" width="12" height="12"/><rect class="c c1j" x="706" y="50" width="12" height="12"/><rect class="c" x="706" y="66" width="12" height="12"/><rect class="c" x="706" y="82" width="12" height="12"/><rect class="c" x="706" y="98" width="12" height="12"/><rect class="c c1k" x="722" y="2" width="12" height="12"/><rect class="c" x="722" y="18" width="12" height="12"/><rect class="c c1l" x="722" y="34" width="12" height="12"/><rect class="c c1m" x="722" y="50" width="12" height="12"/><rect class="c" x="722" y="66" width="12" height="12"/><rect class="c c1n" x="722" y="82" width="12" height="12"/><rect class="c" x="722" y="98" width="12" height="12"/><rect class="c c1o" x="738" y="2" width="12" height="12"/><rect class="c c1p" x="738" y="18" width="12" height="12"/><rect class="c" x="738" y="34" width="12" height="12"/><rect class="c" x="738" y="50" width="12" height="12"/><rect class="c" x="738" y="66" width="12" height="12"/><rect class="c" x="738" y="82" width="12" height="12"/><rect class="c" x="738" y="98" width="12" height="12"/><rect class="c" x="754" y="2" width="12" height="12"/><rect class="c" x="754" y="18" width="12" height="12"/><rect class="c" x="754" y="34" width="12" height="12"/><rect class="c c1q" x="754" y="50" width="12" height="12"/><rect class="c" x="754" y="66" width="12" height="12"/><rect class="c" x="754" y="82" width="12" height="12"/><rect class="c" x="754" y="98" width="12" height="12"/><rect class="c" x="770" y="2" width="12" height="12"/><rect class="c" x="770" y="18" width="12" height="12"/><rect class="c" x="770" y="34" width="12" height="12"/><rect class="c" x="770" y="50" width="12" height="12"/><rect class="c" x="770" y="66" width="12" height="12"/><rect class="c c1r" x="770" y="82" width="12" height="12"/><rect class="c" x="770" y="98" width="12" height="12"/><rect class="c" x="786" y="2" width="12" height="12"/><rect class="c c1s" x="786" y="18" width="12" height="12"/><rect class="c" x="786" y="34" width="12" height="12"/><rect class="c" x="786" y="50" width="12" height="12"/><rect class="c" x="786" y="66" width="12" height="12"/><rect class="c" x="786" y="82" width="12" height="12"/><rect class="c" x="786" y="98" width="12" height="12"/><rect class="c" x="802" y="2" width="12" height="12"/><rect class="c c1t" x="802" y="18" width="12" height="12"/><rect class="c" x="802" y="34" width="12" height="12"/><rect class="c c1u" x="802" y="50" width="12" height="12"/><rect class="c" x="802" y="66" width="12" height="12"/><rect class="c c1v" x="802" y="82" width="12" height="12"/><rect class="c" x="802" y="98" width="12" height="12"/><rect class="c" x="818" y="2" width="12" height="12"/><rect class="c" x="818" y="18" width="12" height="12"/><rect class="c" x="818" y="34" width="12" height="12"/><rect class="c c1w" x="818" y="50" width="12" height="12"/><rect class="c c1x" x="818" y="66" width="12" height="12"/><rect class="c" x="818" y="82" width="12" height="12"/><rect class="c" x="818" y="98" width="12" height="12"/><rect class="c c1y" x="834" y="2" width="12" height="12"/><rect class="c c1z" x="834" y="18" width="12" height="12"/><rect class="c c20" x="834" y="34" width="12" height="12"/><rect class="c c21" x="834" y="50" width="12" height="12"/><rect class="c c22" x="834" y="66" width="12" height="12"/><rect class="c c23" x="834" y="82" width="12" height="12"/><rect class="c c24" x="834" y="98" width="12" height="12"/><rect class="u u0" height="12" width="716.4" x="0.0" y="144"/><rect class="u u1" height="12" width="110.7" x="715.8" y="144"/><rect class="u u2" height="12" width="22.6" x="826.0" y="144"/><rect class="s s0" x="0.8" y="0.8" width="14.4" height="14.4" rx="4.5" ry="4.5"/><rect class="s s1" x="1.8" y="1.8" width="12.3" height="12.3" rx="4.1" ry="4.1"/><rect class="s s2" x="2.6" y="2.6" width="10.8" height="10.8" rx="3.6" ry="3.6"/><rect class="s s3" x="3.0" y="3.0" width="9.9" height="9.9" rx="3.3" ry="3.3"/></svg>