<svg viewBox="-16 -32 880 192" width="880" height="192" xmlns="http://www.w3.org/2000/svg"><desc>Generated with https://github.com/Platane/snk</desc><style>@keyframes c0{65.86%{fill:var(--c3)}65.88%,to{fill:var(--ce)}}@keyframes c1{65.52%{fill:var(--c2)}65.54%,to{fill:var(--ce)}}@keyframes c2{10.23%{fill:var(--c1)}10.25%,to{fill:var(--ce)}}@keyframes c3{64.5%{fill:var(--c2)}64.52%,to{fill:var(--ce)}}@keyframes c4{8.86%{fill:var(--c1)}8.88%,to{fill:var(--ce)}}@keyframes c5{2.04%{fill:var(--c1)}2.06%,to{fill:var(--ce)}}@keyframes c6{7.84%{fill:var(--c1)}7.86%,to{fill:var(--ce)}}@keyframes c7{2.72%{fill:var(--c1)}2.74%,to{fill:var(--ce)}}@keyframes c8{3.06%{fill:var(--c1)}3.08%,to{fill:var(--ce)}}@keyframes c9{7.5%{fill:var(--c1)}7.52%,to{fill:var(--ce)}}@keyframes ca{4.09%{fill:var(--c1)}4.11%,to{fill:var(--ce)}}@keyframes cb{62.45%{fill:var(--c2)}62.47%,to{fill:var(--ce)}}@keyframes cc{5.11%{fill:var(--c1)}5.13%,to{fill:var(--ce)}}@keyframes cd{5.45%{fill:var(--c1)}5.47%,to{fill:var(--ce)}}@keyframes ce{13.3%{fill:var(--c1)}13.32%,to{fill:var(--ce)}}@keyframes cf{16.03%{fill:var(--c1)}16.05%,to{fill:var(--ce)}}@keyframes cg{59.72%{fill:var(--c2)}59.74%,to{fill:var(--ce)}}@keyframes ch{14.67%{fill:var(--c1)}14.69%,to{fill:var(--ce)}}@keyframes ci{15.69%{fill:var(--c1)}15.71%,to{fill:var(--ce)}}@keyframes cj{16.71%{fill:var(--c1)}16.73%,to{fill:var(--ce)}}@keyframes ck{21.15%{fill:var(--c1)}21.17%,to{fill:var(--ce)}}@keyframes cl{15.01%{fill:var(--c1)}15.03%,to{fill:var(--ce)}}@keyframes cm{15.35%{fill:var(--c1)}15.37%,to{fill:var(--ce)}}@keyframes cn{17.05%{fill:var(--c1)}17.07%,to{fill:var(--ce)}}@keyframes co{72.69%{fill:var(--c3)}72.71%,to{fill:var(--ce)}}@keyframes cp{73.03%{fill:var(--c3)}73.05%,to{fill:var(--ce)}}@keyframes cq{70.98%{fill:var(--c3)}71%,to{fill:var(--ce)}}@keyframes cr{18.42%{fill:var(--c1)}18.44%,to{fill:var(--ce)}}@keyframes cs{57.67%{fill:var(--c2)}57.69%,to{fill:var(--ce)}}@keyframes ct{24.56%{fill:var(--c1)}24.58%,to{fill:var(--ce)}}@keyframes cu{25.25%{fill:var(--c1)}25.27%,to{fill:var(--ce)}}@keyframes cv{25.59%{fill:var(--c1)}25.61%,to{fill:var(--ce)}}@keyframes cw{52.55%{fill:var(--c2)}52.57%,to{fill:var(--ce)}}@keyframes cx{26.95%{fill:var(--c1)}26.97%,to{fill:var(--ce)}}@keyframes cy{27.29%{fill:var(--c1)}27.31%,to{fill:var(--ce)}}@keyframes cz{51.87%{fill:var(--c2)}51.89%,to{fill:var(--ce)}}@keyframes c10{31.05%{fill:var(--c1)}31.07%,to{fill:var(--ce)}}@keyframes c11{88.39%{fill:var(--c4)}88.41%,to{fill:var(--ce)}}@keyframes c12{27.98%{fill:var(--c1)}28%,to{fill:var(--ce)}}@keyframes c13{28.66%{fill:var(--c1)}28.68%,to{fill:var(--ce)}}@keyframes c14{50.16%{fill:var(--c2)}50.18%,to{fill:var(--ce)}}@keyframes c15{79.85%{fill:var(--c3)}79.87%,to{fill:var(--ce)}}@keyframes c16{47.43%{fill:var(--c2)}47.45%,to{fill:var(--ce)}}@keyframes c17{85.31%{fill:var(--c3)}85.33%,to{fill:var(--ce)}}@keyframes c18{85.66%{fill:var(--c4)}85.68%,to{fill:var(--ce)}}@keyframes c19{81.56%{fill:var(--c3)}81.58%,to{fill:var(--ce)}}@keyframes c1a{34.12%{fill:var(--c1)}34.14%,to{fill:var(--ce)}}@keyframes c1b{45.04%{fill:var(--c2)}45.06%,to{fill:var(--ce)}}@keyframes c1c{34.46%{fill:var(--c1)}34.48%,to{fill:var(--ce)}}@keyframes c1d{83.27%{fill:var(--c3)}83.29%,to{fill:var(--ce)}}@keyframes c1e{36.51%{fill:var(--c1)}36.53%,to{fill:var(--ce)}}@keyframes c1f{39.92%{fill:var(--c1)}39.94%,to{fill:var(--ce)}}@keyframes c1g{39.58%{fill:var(--c1)}39.6%,to{fill:var(--ce)}}@keyframes u0{2.04%{transform:scale(0,1)}2.06%,2.72%{transform:scale(.03,1)}2.74%,3.06%{transform:scale(.06,1)}3.08%,4.09%{transform:scale(.09,1)}4.11%,5.11%{transform:scale(.12,1)}5.13%,5.45%{transform:scale(.15,1)}5.47%,7.5%{transform:scale(.18,1)}7.52%,7.84%{transform:scale(.21,1)}7.86%,8.86%{transform:scale(.24,1)}10.23%,8.88%{transform:scale(.27,1)}10.25%,13.3%{transform:scale(.3,1)}13.32%,14.67%{transform:scale(.33,1)}14.69%,15.01%{transform:scale(.36,1)}15.03%,15.35%{transform:scale(.39,1)}15.37%,15.69%{transform:scale(.42,1)}15.71%,16.03%{transform:scale(.45,1)}16.05%,16.71%{transform:scale(.48,1)}16.73%,17.05%{transform:scale(.52,1)}17.07%,18.42%{transform:scale(.55,1)}18.44%,21.15%{transform:scale(.58,1)}21.17%,24.56%{transform:scale(.61,1)}24.58%,25.25%{transform:scale(.64,1)}25.27%,25.59%{transform:scale(.67,1)}25.61%,26.95%{transform:scale(.7,1)}26.97%,27.29%{transform:scale(.73,1)}27.31%,27.98%{transform:scale(.76,1)}28%,28.66%{transform:scale(.79,1)}28.68%,31.05%{transform:scale(.82,1)}31.07%,34.12%{transform:scale(.85,1)}34.14%,34.46%{transform:scale(.88,1)}34.48%,36.51%{transform:scale(.91,1)}36.53%,39.58%{transform:scale(.94,1)}39.6%,39.92%{transform:scale(.97,1)}39.94%,to{transform:scale(1,1)}}@keyframes u1{45.04%{transform:scale(0,1)}45.06%,47.43%{transform:scale(.1,1)}47.45%,50.16%{transform:scale(.2,1)}50.18%,51.87%{transform:scale(.3,1)}51.89%,52.55%{transform:scale(.4,1)}52.57%,57.67%{transform:scale(.5,1)}57.69%,59.72%{transform:scale(.6,1)}59.74%,62.45%{transform:scale(.7,1)}62.47%,64.5%{transform:scale(.8,1)}64.52%,65.52%{transform:scale(.9,1)}65.54%,to{transform:scale(1,1)}}@keyframes u2{65.86%{transform:scale(0,1)}65.88%,70.98%{transform:scale(.13,1)}71%,72.69%{transform:scale(.25,1)}72.71%,73.03%{transform:scale(.38,1)}73.05%,79.85%{transform:scale(.5,1)}79.87%,81.56%{transform:scale(.63,1)}81.58%,83.27%{transform:scale(.75,1)}83.29%,85.31%{transform:scale(.88,1)}85.33%,to{transform:scale(1,1)}}@keyframes u3{85.66%{transform:scale(0,1)}85.68%,88.39%{transform:scale(.5,1)}88.41%,to{transform:scale(1,1)}}@keyframes s0{0%,99.66%{transform:translate(0,-16px)}.34%{transform:translate(0,-32px)}1.02%{transform:translate(32px,-32px)}2.05%{transform:translate(32px,16px)}2.39%{transform:translate(48px,16px)}3.07%{transform:translate(48px,48px)}3.75%{transform:translate(80px,48px)}4.1%{transform:translate(80px,64px)}4.44%{transform:translate(96px,64px)}5.12%{transform:translate(96px,96px)}5.46%{transform:translate(112px,96px)}5.8%{transform:translate(112px,80px)}7.17%{transform:translate(48px,80px)}7.51%{transform:translate(48px,96px)}7.85%{transform:translate(32px,96px)}8.53%{transform:translate(32px,64px)}9.22%{transform:translate(0,64px)}9.9%{transform:translate(0,32px)}11.6%{transform:translate(80px,32px)}11.95%{transform:translate(80px,16px)}14.33%{transform:translate(192px,16px)}14.68%{transform:translate(192px,32px)}15.02%,20.48%{transform:translate(208px,32px)}15.36%{transform:translate(208px,48px)}16.04%{transform:translate(176px,48px)}16.38%{transform:translate(176px,64px)}17.75%{transform:translate(240px,64px)}18.43%{transform:translate(240px,96px)}18.77%{transform:translate(224px,96px)}20.14%{transform:translate(224px,32px)}21.16%{transform:translate(208px,0)}24.91%{transform:translate(384px,0)}25.6%{transform:translate(384px,32px)}26.96%{transform:translate(448px,32px)}27.65%{transform:translate(448px,64px)}27.99%{transform:translate(464px,64px)}28.67%{transform:translate(464px,96px)}29.01%{transform:translate(480px,96px)}30.72%{transform:translate(480px,16px)}31.06%,87.71%{transform:translate(464px,16px)}31.4%{transform:translate(464px,32px)}33.79%{transform:translate(576px,32px)}34.13%,44.37%{transform:translate(576px,16px)}35.84%{transform:translate(656px,16px)}36.52%{transform:translate(656px,48px)}39.25%{transform:translate(784px,48px)}39.93%{transform:translate(784px,16px)}45.05%{transform:translate(576px,48px)}45.39%{transform:translate(592px,48px)}45.73%{transform:translate(592px,32px)}46.76%{transform:translate(544px,32px)}47.44%{transform:translate(544px,0)}48.12%{transform:translate(512px,0)}50.17%{transform:translate(512px,96px)}50.51%{transform:translate(496px,96px)}50.85%{transform:translate(496px,80px)}52.22%{transform:translate(432px,80px)}52.56%{transform:translate(432px,96px)}52.9%{transform:translate(416px,96px)}54.27%{transform:translate(416px,32px)}57.68%{transform:translate(256px,32px)}58.36%{transform:translate(256px,0)}61.77%{transform:translate(96px,0)}62.46%{transform:translate(96px,32px)}64.16%{transform:translate(16px,32px)}64.51%{transform:translate(16px,48px)}64.85%{transform:translate(0,48px)}65.87%{transform:translate(0,0)}70.65%{transform:translate(224px,0)}70.99%{transform:translate(224px,16px)}71.33%{transform:translate(208px,16px)}73.04%{transform:translate(208px,96px)}80.55%{transform:translate(560px,96px)}81.57%{transform:translate(560px,48px)}82.94%{transform:translate(624px,48px)}83.96%{transform:translate(624px,0)}85.32%{transform:translate(560px,0)}85.67%{transform:translate(560px,16px)}88.4%{transform:translate(464px,48px)}96.93%{transform:translate(64px,48px)}97.27%{transform:translate(64px,32px)}97.61%{transform:translate(48px,32px)}98.63%{transform:translate(48px,-16px)}}@keyframes s1{0%,99.66%{transform:translate(16px,-16px)}.34%{transform:translate(0,-16px)}.68%{transform:translate(0,-32px)}1.37%{transform:translate(32px,-32px)}2.39%{transform:translate(32px,16px)}2.73%{transform:translate(48px,16px)}3.41%{transform:translate(48px,48px)}4.1%{transform:translate(80px,48px)}4.44%{transform:translate(80px,64px)}4.78%{transform:translate(96px,64px)}5.46%{transform:translate(96px,96px)}5.8%{transform:translate(112px,96px)}6.14%{transform:translate(112px,80px)}7.51%{transform:translate(48px,80px)}7.85%{transform:translate(48px,96px)}8.19%{transform:translate(32px,96px)}8.87%{transform:translate(32px,64px)}9.56%{transform:translate(0,64px)}10.24%{transform:translate(0,32px)}11.95%{transform:translate(80px,32px)}12.29%{transform:translate(80px,16px)}14.68%{transform:translate(192px,16px)}15.02%{transform:translate(192px,32px)}15.36%,20.82%{transform:translate(208px,32px)}15.7%{transform:translate(208px,48px)}16.38%{transform:translate(176px,48px)}16.72%{transform:translate(176px,64px)}18.09%{transform:translate(240px,64px)}18.77%{transform:translate(240px,96px)}19.11%{transform:translate(224px,96px)}20.48%{transform:translate(224px,32px)}21.5%{transform:translate(208px,0)}25.26%{transform:translate(384px,0)}25.94%{transform:translate(384px,32px)}27.3%{transform:translate(448px,32px)}27.99%{transform:translate(448px,64px)}28.33%{transform:translate(464px,64px)}29.01%{transform:translate(464px,96px)}29.35%{transform:translate(480px,96px)}31.06%{transform:translate(480px,16px)}31.4%,88.05%{transform:translate(464px,16px)}31.74%{transform:translate(464px,32px)}34.13%{transform:translate(576px,32px)}34.47%,44.71%{transform:translate(576px,16px)}36.18%{transform:translate(656px,16px)}36.86%{transform:translate(656px,48px)}39.59%{transform:translate(784px,48px)}40.27%{transform:translate(784px,16px)}45.39%{transform:translate(576px,48px)}45.73%{transform:translate(592px,48px)}46.08%{transform:translate(592px,32px)}47.1%{transform:translate(544px,32px)}47.78%{transform:translate(544px,0)}48.46%{transform:translate(512px,0)}50.51%{transform:translate(512px,96px)}50.85%{transform:translate(496px,96px)}51.19%{transform:translate(496px,80px)}52.56%{transform:translate(432px,80px)}52.9%{transform:translate(432px,96px)}53.24%{transform:translate(416px,96px)}54.61%{transform:translate(416px,32px)}58.02%{transform:translate(256px,32px)}58.7%{transform:translate(256px,0)}62.12%{transform:translate(96px,0)}62.8%{transform:translate(96px,32px)}64.51%{transform:translate(16px,32px)}64.85%{transform:translate(16px,48px)}65.19%{transform:translate(0,48px)}66.21%{transform:translate(0,0)}70.99%{transform:translate(224px,0)}71.33%{transform:translate(224px,16px)}71.67%{transform:translate(208px,16px)}73.38%{transform:translate(208px,96px)}80.89%{transform:translate(560px,96px)}81.91%{transform:translate(560px,48px)}83.28%{transform:translate(624px,48px)}84.3%{transform:translate(624px,0)}85.67%{transform:translate(560px,0)}86.01%{transform:translate(560px,16px)}88.74%{transform:translate(464px,48px)}97.27%{transform:translate(64px,48px)}97.61%{transform:translate(64px,32px)}97.95%{transform:translate(48px,32px)}98.98%{transform:translate(48px,-16px)}}@keyframes s2{0%,99.66%{transform:translate(32px,-16px)}.68%{transform:translate(0,-16px)}1.02%{transform:translate(0,-32px)}1.71%{transform:translate(32px,-32px)}2.73%{transform:translate(32px,16px)}3.07%{transform:translate(48px,16px)}3.75%{transform:translate(48px,48px)}4.44%{transform:translate(80px,48px)}4.78%{transform:translate(80px,64px)}5.12%{transform:translate(96px,64px)}5.8%{transform:translate(96px,96px)}6.14%{transform:translate(112px,96px)}6.48%{transform:translate(112px,80px)}7.85%{transform:translate(48px,80px)}8.19%{transform:translate(48px,96px)}8.53%{transform:translate(32px,96px)}9.22%{transform:translate(32px,64px)}9.9%{transform:translate(0,64px)}10.58%{transform:translate(0,32px)}12.29%{transform:translate(80px,32px)}12.63%{transform:translate(80px,16px)}15.02%{transform:translate(192px,16px)}15.36%{transform:translate(192px,32px)}15.7%,21.16%{transform:translate(208px,32px)}16.04%{transform:translate(208px,48px)}16.72%{transform:translate(176px,48px)}17.06%{transform:translate(176px,64px)}18.43%{transform:translate(240px,64px)}19.11%{transform:translate(240px,96px)}19.45%{transform:translate(224px,96px)}20.82%{transform:translate(224px,32px)}21.84%{transform:translate(208px,0)}25.6%{transform:translate(384px,0)}26.28%{transform:translate(384px,32px)}27.65%{transform:translate(448px,32px)}28.33%{transform:translate(448px,64px)}28.67%{transform:translate(464px,64px)}29.35%{transform:translate(464px,96px)}29.69%{transform:translate(480px,96px)}31.4%{transform:translate(480px,16px)}31.74%,88.4%{transform:translate(464px,16px)}32.08%{transform:translate(464px,32px)}34.47%{transform:translate(576px,32px)}34.81%,45.05%{transform:translate(576px,16px)}36.52%{transform:translate(656px,16px)}37.2%{transform:translate(656px,48px)}39.93%{transform:translate(784px,48px)}40.61%{transform:translate(784px,16px)}45.73%{transform:translate(576px,48px)}46.08%{transform:translate(592px,48px)}46.42%{transform:translate(592px,32px)}47.44%{transform:translate(544px,32px)}48.12%{transform:translate(544px,0)}48.81%{transform:translate(512px,0)}50.85%{transform:translate(512px,96px)}51.19%{transform:translate(496px,96px)}51.54%{transform:translate(496px,80px)}52.9%{transform:translate(432px,80px)}53.24%{transform:translate(432px,96px)}53.58%{transform:translate(416px,96px)}54.95%{transform:translate(416px,32px)}58.36%{transform:translate(256px,32px)}59.04%{transform:translate(256px,0)}62.46%{transform:translate(96px,0)}63.14%{transform:translate(96px,32px)}64.85%{transform:translate(16px,32px)}65.19%{transform:translate(16px,48px)}65.53%{transform:translate(0,48px)}66.55%{transform:translate(0,0)}71.33%{transform:translate(224px,0)}71.67%{transform:translate(224px,16px)}72.01%{transform:translate(208px,16px)}73.72%{transform:translate(208px,96px)}81.23%{transform:translate(560px,96px)}82.25%{transform:translate(560px,48px)}83.62%{transform:translate(624px,48px)}84.64%{transform:translate(624px,0)}86.01%{transform:translate(560px,0)}86.35%{transform:translate(560px,16px)}89.08%{transform:translate(464px,48px)}97.61%{transform:translate(64px,48px)}97.95%{transform:translate(64px,32px)}98.29%{transform:translate(48px,32px)}99.32%{transform:translate(48px,-16px)}}@keyframes s3{0%,99.66%{transform:translate(48px,-16px)}1.02%{transform:translate(0,-16px)}1.37%{transform:translate(0,-32px)}2.05%{transform:translate(32px,-32px)}3.07%{transform:translate(32px,16px)}3.41%{transform:translate(48px,16px)}4.1%{transform:translate(48px,48px)}4.78%{transform:translate(80px,48px)}5.12%{transform:translate(80px,64px)}5.46%{transform:translate(96px,64px)}6.14%{transform:translate(96px,96px)}6.48%{transform:translate(112px,96px)}6.83%{transform:translate(112px,80px)}8.19%{transform:translate(48px,80px)}8.53%{transform:translate(48px,96px)}8.87%{transform:translate(32px,96px)}9.56%{transform:translate(32px,64px)}10.24%{transform:translate(0,64px)}10.92%{transform:translate(0,32px)}12.63%{transform:translate(80px,32px)}12.97%{transform:translate(80px,16px)}15.36%{transform:translate(192px,16px)}15.7%{transform:translate(192px,32px)}16.04%,21.5%{transform:translate(208px,32px)}16.38%{transform:translate(208px,48px)}17.06%{transform:translate(176px,48px)}17.41%{transform:translate(176px,64px)}18.77%{transform:translate(240px,64px)}19.45%{transform:translate(240px,96px)}19.8%{transform:translate(224px,96px)}21.16%{transform:translate(224px,32px)}22.18%{transform:translate(208px,0)}25.94%{transform:translate(384px,0)}26.62%{transform:translate(384px,32px)}27.99%{transform:translate(448px,32px)}28.67%{transform:translate(448px,64px)}29.01%{transform:translate(464px,64px)}29.69%{transform:translate(464px,96px)}30.03%{transform:translate(480px,96px)}31.74%{transform:translate(480px,16px)}32.08%,88.74%{transform:translate(464px,16px)}32.42%{transform:translate(464px,32px)}34.81%{transform:translate(576px,32px)}35.15%,45.39%{transform:translate(576px,16px)}36.86%{transform:translate(656px,16px)}37.54%{transform:translate(656px,48px)}40.27%{transform:translate(784px,48px)}40.96%{transform:translate(784px,16px)}46.08%{transform:translate(576px,48px)}46.42%{transform:translate(592px,48px)}46.76%{transform:translate(592px,32px)}47.78%{transform:translate(544px,32px)}48.46%{transform:translate(544px,0)}49.15%{transform:translate(512px,0)}51.19%{transform:translate(512px,96px)}51.54%{transform:translate(496px,96px)}51.88%{transform:translate(496px,80px)}53.24%{transform:translate(432px,80px)}53.58%{transform:translate(432px,96px)}53.92%{transform:translate(416px,96px)}55.29%{transform:translate(416px,32px)}58.7%{transform:translate(256px,32px)}59.39%{transform:translate(256px,0)}62.8%{transform:translate(96px,0)}63.48%{transform:translate(96px,32px)}65.19%{transform:translate(16px,32px)}65.53%{transform:translate(16px,48px)}65.87%{transform:translate(0,48px)}66.89%{transform:translate(0,0)}71.67%{transform:translate(224px,0)}72.01%{transform:translate(224px,16px)}72.35%{transform:translate(208px,16px)}74.06%{transform:translate(208px,96px)}81.57%{transform:translate(560px,96px)}82.59%{transform:translate(560px,48px)}83.96%{transform:translate(624px,48px)}84.98%{transform:translate(624px,0)}86.35%{transform:translate(560px,0)}86.69%{transform:translate(560px,16px)}89.42%{transform:translate(464px,48px)}97.95%{transform:translate(64px,48px)}98.29%{transform:translate(64px,32px)}98.63%{transform:translate(48px,32px)}}:root{--cb:#1b1f230a;--cs:purple;--ce:#ebedf0;--c0:#ebedf0;--c1:#9be9a8;--c2:#40c463;--c3:#30a14e;--c4:#216e39}@media (prefers-color-scheme:dark){:root{--cb:#1b1f230a;--cs:purple;--ce:#161b22;--c1:#01311f;--c2:#034525;--c3:#0f6d31;--c4:#00c647}}.c{shape-rendering:geometricPrecision;fill:var(--ce);stroke-width:1px;stroke:var(--cb);animation:none 29300ms linear infinite}.c.c0{fill:var(--c3);animation-name:c0}.c.c1{fill:var(--c2);animation-name:c1}.c.c2{fill:var(--c1);animation-name:c2}.c.c3{fill:var(--c2);animation-name:c3}.c.c4{fill:var(--c1);animation-name:c4}.c.c5,.c.c6,.c.c7{fill:var(--c1);animation-name:c5}.c.c6,.c.c7{animation-name:c6}.c.c7{animation-name:c7}.c.c8,.c.c9,.c.ca{fill:var(--c1);animation-name:c8}.c.c9,.c.ca{animation-name:c9}.c.ca{animation-name:ca}.c.cb{fill:var(--c2);animation-name:cb}.c.cc{fill:var(--c1);animation-name:cc}.c.cd,.c.ce,.c.cf{fill:var(--c1);animation-name:cd}.c.ce,.c.cf{animation-name:ce}.c.cf{animation-name:cf}.c.cg{fill:var(--c2);animation-name:cg}.c.ch{fill:var(--c1);animation-name:ch}.c.ci,.c.cj,.c.ck{fill:var(--c1);animation-name:ci}.c.cj,.c.ck{animation-name:cj}.c.ck{animation-name:ck}.c.cl,.c.cm,.c.cn{fill:var(--c1);animation-name:cl}.c.cm,.c.cn{animation-name:cm}.c.cn{animation-name:cn}.c.co,.c.cp,.c.cq{fill:var(--c3);animation-name:co}.c.cp,.c.cq{animation-name:cp}.c.cq{animation-name:cq}.c.cr{fill:var(--c1);animation-name:cr}.c.cs{fill:var(--c2);animation-name:cs}.c.ct,.c.cu,.c.cv{fill:var(--c1);animation-name:ct}.c.cu,.c.cv{animation-name:cu}.c.cv{animation-name:cv}.c.cw{fill:var(--c2);animation-name:cw}.c.cx,.c.cy{fill:var(--c1);animation-name:cx}.c.cy{animation-name:cy}.c.cz{fill:var(--c2);animation-name:cz}.c.c10{fill:var(--c1);animation-name:c10}.c.c11{fill:var(--c4);animation-name:c11}.c.c12,.c.c13{fill:var(--c1);animation-name:c12}.c.c13{animation-name:c13}.c.c14{fill:var(--c2);animation-name:c14}.c.c15{fill:var(--c3);animation-name:c15}.c.c16{fill:var(--c2);animation-name:c16}.c.c17{fill:var(--c3);animation-name:c17}.c.c18{fill:var(--c4);animation-name:c18}.c.c19{fill:var(--c3);animation-name:c19}.c.c1a{fill:var(--c1);animation-name:c1a}.c.c1b{fill:var(--c2);animation-name:c1b}.c.c1c{fill:var(--c1);animation-name:c1c}.c.c1d{fill:var(--c3);animation-name:c1d}.c.c1e,.c.c1f,.c.c1g{fill:var(--c1);animation-name:c1e}.c.c1f,.c.c1g{animation-name:c1f}.c.c1g{animation-name:c1g}.s,.u{animation:none linear 29300ms infinite}.u,.u.u0{transform-origin:0 0}.u{transform:scale(0,1)}.u.u0{fill:var(--c1);animation-name:u0}.u.u1{fill:var(--c2);animation-name:u1;transform-origin:528px 0}.u.u2{fill:var(--c3);animation-name:u2;transform-origin:688px 0}.u.u3{fill:var(--c4);animation-name:u3;transform-origin:816px 0}.s{shape-rendering:geometricPrecision;fill:var(--cs)}.s.s0{transform:translate(0,-16px);animation-name:s0}.s.s1{transform:translate(16px,-16px);animation-name:s1}.s.s2{transform:translate(32px,-16px);animation-name:s2}.s.s3{transform:translate(48px,-16px);animation-name:s3}</style><rect class="c c0" x="2" y="2" rx="2" ry="2" width="12" height="12"/><rect class="c c1" x="2" y="18" rx="2" ry="2" width="12" height="12"/><rect class="c" x="2" y="34" rx="2" ry="2" width="12" height="12"/><rect class="c" x="2" y="50" rx="2" ry="2" width="12" height="12"/><rect class="c" x="2" y="66" rx="2" ry="2" width="12" height="12"/><rect class="c" x="2" y="82" rx="2" ry="2" width="12" height="12"/><rect class="c" x="2" y="98" rx="2" ry="2" width="12" height="12"/><rect class="c" x="18" y="2" rx="2" ry="2" width="12" height="12"/><rect class="c" x="18" y="18" rx="2" ry="2" width="12" height="12"/><rect class="c c2" x="18" y="34" rx="2" ry="2" width="12" height="12"/><rect class="c c3" x="18" y="50" rx="2" ry="2" width="12" height="12"/><rect class="c c4" x="18" y="66" rx="2" ry="2" width="12" height="12"/><rect class="c" x="18" y="82" rx="2" ry="2" width="12" height="12"/><rect class="c" x="18" y="98" rx="2" ry="2" width="12" height="12"/><rect class="c" x="34" y="2" rx="2" ry="2" width="12" height="12"/><rect class="c c5" x="34" y="18" rx="2" ry="2" width="12" height="12"/><rect class="c" x="34" y="34" rx="2" ry="2" width="12" height="12"/><rect class="c" x="34" y="50" rx="2" ry="2" width="12" height="12"/><rect class="c" x="34" y="66" rx="2" ry="2" width="12" height="12"/><rect class="c" x="34" y="82" rx="2" ry="2" width="12" height="12"/><rect class="c c6" x="34" y="98" rx="2" ry="2" width="12" height="12"/><rect class="c" x="50" y="2" rx="2" ry="2" width="12" height="12"/><rect class="c" x="50" y="18" rx="2" ry="2" width="12" height="12"/><rect class="c c7" x="50" y="34" rx="2" ry="2" width="12" height="12"/><rect class="c c8" x="50" y="50" rx="2" ry="2" width="12" height="12"/><rect class="c" x="50" y="66" rx="2" ry="2" width="12" height="12"/><rect class="c" x="50" y="82" rx="2" ry="2" width="12" height="12"/><rect class="c c9" x="50" y="98" rx="2" ry="2" width="12" height="12"/><rect class="c" x="66" y="2" rx="2" ry="2" width="12" height="12"/><rect class="c" x="66" y="18" rx="2" ry="2" width="12" height="12"/><rect class="c" x="66" y="34" rx="2" ry="2" width="12" height="12"/><rect class="c" x="66" y="50" rx="2" ry="2" width="12" height="12"/><rect class="c" x="66" y="66" rx="2" ry="2" width="12" height="12"/><rect class="c" x="66" y="82" rx="2" ry="2" width="12" height="12"/><rect class="c" x="66" y="98" rx="2" ry="2" width="12" height="12"/><rect class="c" x="82" y="2" rx="2" ry="2" width="12" height="12"/><rect class="c" x="82" y="18" rx="2" ry="2" width="12" height="12"/><rect class="c" x="82" y="34" rx="2" ry="2" width="12" height="12"/><rect class="c" x="82" y="50" rx="2" ry="2" width="12" height="12"/><rect class="c ca" x="82" y="66" rx="2" ry="2" width="12" height="12"/><rect class="c" x="82" y="82" rx="2" ry="2" width="12" height="12"/><rect class="c" x="82" y="98" rx="2" ry="2" width="12" height="12"/><rect class="c" x="98" y="2" rx="2" ry="2" width="12" height="12"/><rect class="c" x="98" y="18" rx="2" ry="2" width="12" height="12"/><rect class="c cb" x="98" y="34" rx="2" ry="2" width="12" height="12"/><rect class="c" x="98" y="50" rx="2" ry="2" width="12" height="12"/><rect class="c" x="98" y="66" rx="2" ry="2" width="12" height="12"/><rect class="c" x="98" y="82" rx="2" ry="2" width="12" height="12"/><rect class="c cc" x="98" y="98" rx="2" ry="2" width="12" height="12"/><rect class="c" x="114" y="2" rx="2" ry="2" width="12" height="12"/><rect class="c" x="114" y="18" rx="2" ry="2" width="12" height="12"/><rect class="c" x="114" y="34" rx="2" ry="2" width="12" height="12"/><rect class="c" x="114" y="50" rx="2" ry="2" width="12" height="12"/><rect class="c" x="114" y="66" rx="2" ry="2" width="12" height="12"/><rect class="c" x="114" y="82" rx="2" ry="2" width="12" height="12"/><rect class="c cd" x="114" y="98" rx="2" ry="2" width="12" height="12"/><rect class="c" x="130" y="2" rx="2" ry="2" width="12" height="12"/><rect class="c" x="130" y="18" rx="2" ry="2" width="12" height="12"/><rect class="c" x="130" y="34" rx="2" ry="2" width="12" height="12"/><rect class="c" x="130" y="50" rx="2" ry="2" width="12" height="12"/><rect class="c" x="130" y="66" rx="2" ry="2" width="12" height="12"/><rect class="c" x="130" y="82" rx="2" ry="2" width="12" height="12"/><rect class="c" x="130" y="98" rx="2" ry="2" width="12" height="12"/><rect class="c" x="146" y="2" rx="2" ry="2" width="12" height="12"/><rect class="c ce" x="146" y="18" rx="2" ry="2" width="12" height="12"/><rect class="c" x="146" y="34" rx="2" ry="2" width="12" height="12"/><rect class="c" x="146" y="50" rx="2" ry="2" width="12" height="12"/><rect class="c" x="146" y="66" rx="2" ry="2" width="12" height="12"/><rect class="c" x="146" y="82" rx="2" ry="2" width="12" height="12"/><rect class="c" x="146" y="98" rx="2" ry="2" width="12" height="12"/><rect class="c" x="162" y="2" rx="2" ry="2" width="12" height="12"/><rect class="c" x="162" y="18" rx="2" ry="2" width="12" height="12"/><rect class="c" x="162" y="34" rx="2" ry="2" width="12" height="12"/><rect class="c" x="162" y="50" rx="2" ry="2" width="12" height="12"/><rect class="c" x="162" y="66" rx="2" ry="2" width="12" height="12"/><rect class="c" x="162" y="82" rx="2" ry="2" width="12" height="12"/><rect class="c" x="162" y="98" rx="2" ry="2" width="12" height="12"/><rect class="c" x="178" y="2" rx="2" ry="2" width="12" height="12"/><rect class="c" x="178" y="18" rx="2" ry="2" width="12" height="12"/><rect class="c" x="178" y="34" rx="2" ry="2" width="12" height="12"/><rect class="c cf" x="178" y="50" rx="2" ry="2" width="12" height="12"/><rect class="c" x="178" y="66" rx="2" ry="2" width="12" height="12"/><rect class="c" x="178" y="82" rx="2" ry="2" width="12" height="12"/><rect class="c" x="178" y="98" rx="2" ry="2" width="12" height="12"/><rect class="c cg" x="194" y="2" rx="2" ry="2" width="12" height="12"/><rect class="c" x="194" y="18" rx="2" ry="2" width="12" height="12"/><rect class="c ch" x="194" y="34" rx="2" ry="2" width="12" height="12"/><rect class="c ci" x="194" y="50" rx="2" ry="2" width="12" height="12"/><rect class="c cj" x="194" y="66" rx="2" ry="2" width="12" height="12"/><rect class="c" x="194" y="82" rx="2" ry="2" width="12" height="12"/><rect class="c" x="194" y="98" rx="2" ry="2" width="12" height="12"/><rect class="c ck" x="210" y="2" rx="2" ry="2" width="12" height="12"/><rect class="c" x="210" y="18" rx="2" ry="2" width="12" height="12"/><rect class="c cl" x="210" y="34" rx="2" ry="2" width="12" height="12"/><rect class="c cm" x="210" y="50" rx="2" ry="2" width="12" height="12"/><rect class="c cn" x="210" y="66" rx="2" ry="2" width="12" height="12"/><rect class="c co" x="210" y="82" rx="2" ry="2" width="12" height="12"/><rect class="c cp" x="210" y="98" rx="2" ry="2" width="12" height="12"/><rect class="c" x="226" y="2" rx="2" ry="2" width="12" height="12"/><rect class="c cq" x="226" y="18" rx="2" ry="2" width="12" height="12"/><rect class="c" x="226" y="34" rx="2" ry="2" width="12" height="12"/><rect class="c" x="226" y="50" rx="2" ry="2" width="12" height="12"/><rect class="c" x="226" y="66" rx="2" ry="2" width="12" height="12"/><rect class="c" x="226" y="82" rx="2" ry="2" width="12" height="12"/><rect class="c" x="226" y="98" rx="2" ry="2" width="12" height="12"/><rect class="c" x="242" y="2" rx="2" ry="2" width="12" height="12"/><rect class="c" x="242" y="18" rx="2" ry="2" width="12" height="12"/><rect class="c" x="242" y="34" rx="2" ry="2" width="12" height="12"/><rect class="c" x="242" y="50" rx="2" ry="2" width="12" height="12"/><rect class="c" x="242" y="66" rx="2" ry="2" width="12" height="12"/><rect class="c" x="242" y="82" rx="2" ry="2" width="12" height="12"/><rect class="c cr" x="242" y="98" rx="2" ry="2" width="12" height="12"/><rect class="c" x="258" y="2" rx="2" ry="2" width="12" height="12"/><rect class="c" x="258" y="18" rx="2" ry="2" width="12" height="12"/><rect class="c cs" x="258" y="34" rx="2" ry="2" width="12" height="12"/><rect class="c" x="258" y="50" rx="2" ry="2" width="12" height="12"/><rect class="c" x="258" y="66" rx="2" ry="2" width="12" height="12"/><rect class="c" x="258" y="82" rx="2" ry="2" width="12" height="12"/><rect class="c" x="258" y="98" rx="2" ry="2" width="12" height="12"/><rect class="c" x="274" y="2" rx="2" ry="2" width="12" height="12"/><rect class="c" x="274" y="18" rx="2" ry="2" width="12" height="12"/><rect class="c" x="274" y="34" rx="2" ry="2" width="12" height="12"/><rect class="c" x="274" y="50" rx="2" ry="2" width="12" height="12"/><rect class="c" x="274" y="66" rx="2" ry="2" width="12" height="12"/><rect class="c" x="274" y="82" rx="2" ry="2" width="12" height="12"/><rect class="c" x="274" y="98" rx="2" ry="2" width="12" height="12"/><rect class="c" x="290" y="2" rx="2" ry="2" width="12" height="12"/><rect class="c" x="290" y="18" rx="2" ry="2" width="12" height="12"/><rect class="c" x="290" y="34" rx="2" ry="2" width="12" height="12"/><rect class="c" x="290" y="50" rx="2" ry="2" width="12" height="12"/><rect class="c" x="290" y="66" rx="2" ry="2" width="12" height="12"/><rect class="c" x="290" y="82" rx="2" ry="2" width="12" height="12"/><rect class="c" x="290" y="98" rx="2" ry="2" width="12" height="12"/><rect class="c" x="306" y="2" rx="2" ry="2" width="12" height="12"/><rect class="c" x="306" y="18" rx="2" ry="2" width="12" height="12"/><rect class="c" x="306" y="34" rx="2" ry="2" width="12" height="12"/><rect class="c" x="306" y="50" rx="2" ry="2" width="12" height="12"/><rect class="c" x="306" y="66" rx="2" ry="2" width="12" height="12"/><rect class="c" x="306" y="82" rx="2" ry="2" width="12" height="12"/><rect class="c" x="306" y="98" rx="2" ry="2" width="12" height="12"/><rect class="c" x="322" y="2" rx="2" ry="2" width="12" height="12"/><rect class="c" x="322" y="18" rx="2" ry="2" width="12" height="12"/><rect class="c" x="322" y="34" rx="2" ry="2" width="12" height="12"/><rect class="c" x="322" y="50" rx="2" ry="2" width="12" height="12"/><rect class="c" x="322" y="66" rx="2" ry="2" width="12" height="12"/><rect class="c" x="322" y="82" rx="2" ry="2" width="12" height="12"/><rect class="c" x="322" y="98" rx="2" ry="2" width="12" height="12"/><rect class="c" x="338" y="2" rx="2" ry="2" width="12" height="12"/><rect class="c" x="338" y="18" rx="2" ry="2" width="12" height="12"/><rect class="c" x="338" y="34" rx="2" ry="2" width="12" height="12"/><rect class="c" x="338" y="50" rx="2" ry="2" width="12" height="12"/><rect class="c" x="338" y="66" rx="2" ry="2" width="12" height="12"/><rect class="c" x="338" y="82" rx="2" ry="2" width="12" height="12"/><rect class="c" x="338" y="98" rx="2" ry="2" width="12" height="12"/><rect class="c" x="354" y="2" rx="2" ry="2" width="12" height="12"/><rect class="c" x="354" y="18" rx="2" ry="2" width="12" height="12"/><rect class="c" x="354" y="34" rx="2" ry="2" width="12" height="12"/><rect class="c" x="354" y="50" rx="2" ry="2" width="12" height="12"/><rect class="c" x="354" y="66" rx="2" ry="2" width="12" height="12"/><rect class="c" x="354" y="82" rx="2" ry="2" width="12" height="12"/><rect class="c" x="354" y="98" rx="2" ry="2" width="12" height="12"/><rect class="c ct" x="370" y="2" rx="2" ry="2" width="12" height="12"/><rect class="c" x="370" y="18" rx="2" ry="2" width="12" height="12"/><rect class="c" x="370" y="34" rx="2" ry="2" width="12" height="12"/><rect class="c" x="370" y="50" rx="2" ry="2" width="12" height="12"/><rect class="c" x="370" y="66" rx="2" ry="2" width="12" height="12"/><rect class="c" x="370" y="82" rx="2" ry="2" width="12" height="12"/><rect class="c" x="370" y="98" rx="2" ry="2" width="12" height="12"/><rect class="c" x="386" y="2" rx="2" ry="2" width="12" height="12"/><rect class="c cu" x="386" y="18" rx="2" ry="2" width="12" height="12"/><rect class="c cv" x="386" y="34" rx="2" ry="2" width="12" height="12"/><rect class="c" x="386" y="50" rx="2" ry="2" width="12" height="12"/><rect class="c" x="386" y="66" rx="2" ry="2" width="12" height="12"/><rect class="c" x="386" y="82" rx="2" ry="2" width="12" height="12"/><rect class="c" x="386" y="98" rx="2" ry="2" width="12" height="12"/><rect class="c" x="402" y="2" rx="2" ry="2" width="12" height="12"/><rect class="c" x="402" y="18" rx="2" ry="2" width="12" height="12"/><rect class="c" x="402" y="34" rx="2" ry="2" width="12" height="12"/><rect class="c" x="402" y="50" rx="2" ry="2" width="12" height="12"/><rect class="c" x="402" y="66" rx="2" ry="2" width="12" height="12"/><rect class="c" x="402" y="82" rx="2" ry="2" width="12" height="12"/><rect class="c" x="402" y="98" rx="2" ry="2" width="12" height="12"/><rect class="c" x="418" y="2" rx="2" ry="2" width="12" height="12"/><rect class="c" x="418" y="18" rx="2" ry="2" width="12" height="12"/><rect class="c" x="418" y="34" rx="2" ry="2" width="12" height="12"/><rect class="c" x="418" y="50" rx="2" ry="2" width="12" height="12"/><rect class="c" x="418" y="66" rx="2" ry="2" width="12" height="12"/><rect class="c" x="418" y="82" rx="2" ry="2" width="12" height="12"/><rect class="c" x="418" y="98" rx="2" ry="2" width="12" height="12"/><rect class="c" x="434" y="2" rx="2" ry="2" width="12" height="12"/><rect class="c" x="434" y="18" rx="2" ry="2" width="12" height="12"/><rect class="c" x="434" y="34" rx="2" ry="2" width="12" height="12"/><rect class="c" x="434" y="50" rx="2" ry="2" width="12" height="12"/><rect class="c" x="434" y="66" rx="2" ry="2" width="12" height="12"/><rect class="c" x="434" y="82" rx="2" ry="2" width="12" height="12"/><rect class="c cw" x="434" y="98" rx="2" ry="2" width="12" height="12"/><rect class="c" x="450" y="2" rx="2" ry="2" width="12" height="12"/><rect class="c" x="450" y="18" rx="2" ry="2" width="12" height="12"/><rect class="c cx" x="450" y="34" rx="2" ry="2" width="12" height="12"/><rect class="c cy" x="450" y="50" rx="2" ry="2" width="12" height="12"/><rect class="c" x="450" y="66" rx="2" ry="2" width="12" height="12"/><rect class="c cz" x="450" y="82" rx="2" ry="2" width="12" height="12"/><rect class="c" x="450" y="98" rx="2" ry="2" width="12" height="12"/><rect class="c" x="466" y="2" rx="2" ry="2" width="12" height="12"/><rect class="c c10" x="466" y="18" rx="2" ry="2" width="12" height="12"/><rect class="c" x="466" y="34" rx="2" ry="2" width="12" height="12"/><rect class="c c11" x="466" y="50" rx="2" ry="2" width="12" height="12"/><rect class="c c12" x="466" y="66" rx="2" ry="2" width="12" height="12"/><rect class="c" x="466" y="82" rx="2" ry="2" width="12" height="12"/><rect class="c c13" x="466" y="98" rx="2" ry="2" width="12" height="12"/><rect class="c" x="482" y="2" rx="2" ry="2" width="12" height="12"/><rect class="c" x="482" y="18" rx="2" ry="2" width="12" height="12"/><rect class="c" x="482" y="34" rx="2" ry="2" width="12" height="12"/><rect class="c" x="482" y="50" rx="2" ry="2" width="12" height="12"/><rect class="c" x="482" y="66" rx="2" ry="2" width="12" height="12"/><rect class="c" x="482" y="82" rx="2" ry="2" width="12" height="12"/><rect class="c" x="482" y="98" rx="2" ry="2" width="12" height="12"/><rect class="c" x="498" y="2" rx="2" ry="2" width="12" height="12"/><rect class="c" x="498" y="18" rx="2" ry="2" width="12" height="12"/><rect class="c" x="498" y="34" rx="2" ry="2" width="12" height="12"/><rect class="c" x="498" y="50" rx="2" ry="2" width="12" height="12"/><rect class="c" x="498" y="66" rx="2" ry="2" width="12" height="12"/><rect class="c" x="498" y="82" rx="2" ry="2" width="12" height="12"/><rect class="c" x="498" y="98" rx="2" ry="2" width="12" height="12"/><rect class="c" x="514" y="2" rx="2" ry="2" width="12" height="12"/><rect class="c" x="514" y="18" rx="2" ry="2" width="12" height="12"/><rect class="c" x="514" y="34" rx="2" ry="2" width="12" height="12"/><rect class="c" x="514" y="50" rx="2" ry="2" width="12" height="12"/><rect class="c" x="514" y="66" rx="2" ry="2" width="12" height="12"/><rect class="c" x="514" y="82" rx="2" ry="2" width="12" height="12"/><rect class="c c14" x="514" y="98" rx="2" ry="2" width="12" height="12"/><rect class="c" x="530" y="2" rx="2" ry="2" width="12" height="12"/><rect class="c" x="530" y="18" rx="2" ry="2" width="12" height="12"/><rect class="c" x="530" y="34" rx="2" ry="2" width="12" height="12"/><rect class="c" x="530" y="50" rx="2" ry="2" width="12" height="12"/><rect class="c" x="530" y="66" rx="2" ry="2" width="12" height="12"/><rect class="c" x="530" y="82" rx="2" ry="2" width="12" height="12"/><rect class="c c15" x="530" y="98" rx="2" ry="2" width="12" height="12"/><rect class="c c16" x="546" y="2" rx="2" ry="2" width="12" height="12"/><rect class="c" x="546" y="18" rx="2" ry="2" width="12" height="12"/><rect class="c" x="546" y="34" rx="2" ry="2" width="12" height="12"/><rect class="c" x="546" y="50" rx="2" ry="2" width="12" height="12"/><rect class="c" x="546" y="66" rx="2" ry="2" width="12" height="12"/><rect class="c" x="546" y="82" rx="2" ry="2" width="12" height="12"/><rect class="c" x="546" y="98" rx="2" ry="2" width="12" height="12"/><rect class="c c17" x="562" y="2" rx="2" ry="2" width="12" height="12"/><rect class="c c18" x="562" y="18" rx="2" ry="2" width="12" height="12"/><rect class="c" x="562" y="34" rx="2" ry="2" width="12" height="12"/><rect class="c c19" x="562" y="50" rx="2" ry="2" width="12" height="12"/><rect class="c" x="562" y="66" rx="2" ry="2" width="12" height="12"/><rect class="c" x="562" y="82" rx="2" ry="2" width="12" height="12"/><rect class="c" x="562" y="98" rx="2" ry="2" width="12" height="12"/><rect class="c" x="578" y="2" rx="2" ry="2" width="12" height="12"/><rect class="c c1a" x="578" y="18" rx="2" ry="2" width="12" height="12"/><rect class="c" x="578" y="34" rx="2" ry="2" width="12" height="12"/><rect class="c c1b" x="578" y="50" rx="2" ry="2" width="12" height="12"/><rect class="c" x="578" y="66" rx="2" ry="2" width="12" height="12"/><rect class="c" x="578" y="82" rx="2" ry="2" width="12" height="12"/><rect class="c" x="578" y="98" rx="2" ry="2" width="12" height="12"/><rect class="c" x="594" y="2" rx="2" ry="2" width="12" height="12"/><rect class="c c1c" x="594" y="18" rx="2" ry="2" width="12" height="12"/><rect class="c" x="594" y="34" rx="2" ry="2" width="12" height="12"/><rect class="c" x="594" y="50" rx="2" ry="2" width="12" height="12"/><rect class="c" x="594" y="66" rx="2" ry="2" width="12" height="12"/><rect class="c" x="594" y="82" rx="2" ry="2" width="12" height="12"/><rect class="c" x="594" y="98" rx="2" ry="2" width="12" height="12"/><rect class="c" x="610" y="2" rx="2" ry="2" width="12" height="12"/><rect class="c" x="610" y="18" rx="2" ry="2" width="12" height="12"/><rect class="c" x="610" y="34" rx="2" ry="2" width="12" height="12"/><rect class="c" x="610" y="50" rx="2" ry="2" width="12" height="12"/><rect class="c" x="610" y="66" rx="2" ry="2" width="12" height="12"/><rect class="c" x="610" y="82" rx="2" ry="2" width="12" height="12"/><rect class="c" x="610" y="98" rx="2" ry="2" width="12" height="12"/><rect class="c" x="626" y="2" rx="2" ry="2" width="12" height="12"/><rect class="c" x="626" y="18" rx="2" ry="2" width="12" height="12"/><rect class="c c1d" x="626" y="34" rx="2" ry="2" width="12" height="12"/><rect class="c" x="626" y="50" rx="2" ry="2" width="12" height="12"/><rect class="c" x="626" y="66" rx="2" ry="2" width="12" height="12"/><rect class="c" x="626" y="82" rx="2" ry="2" width="12" height="12"/><rect class="c" x="626" y="98" rx="2" ry="2" width="12" height="12"/><rect class="c" x="642" y="2" rx="2" ry="2" width="12" height="12"/><rect class="c" x="642" y="18" rx="2" ry="2" width="12" height="12"/><rect class="c" x="642" y="34" rx="2" ry="2" width="12" height="12"/><rect class="c" x="642" y="50" rx="2" ry="2" width="12" height="12"/><rect class="c" x="642" y="66" rx="2" ry="2" width="12" height="12"/><rect class="c" x="642" y="82" rx="2" ry="2" width="12" height="12"/><rect class="c" x="642" y="98" rx="2" ry="2" width="12" height="12"/><rect class="c" x="658" y="2" rx="2" ry="2" width="12" height="12"/><rect class="c" x="658" y="18" rx="2" ry="2" width="12" height="12"/><rect class="c" x="658" y="34" rx="2" ry="2" width="12" height="12"/><rect class="c c1e" x="658" y="50" rx="2" ry="2" width="12" height="12"/><rect class="c" x="658" y="66" rx="2" ry="2" width="12" height="12"/><rect class="c" x="658" y="82" rx="2" ry="2" width="12" height="12"/><rect class="c" x="658" y="98" rx="2" ry="2" width="12" height="12"/><rect class="c" x="674" y="2" rx="2" ry="2" width="12" height="12"/><rect class="c" x="674" y="18" rx="2" ry="2" width="12" height="12"/><rect class="c" x="674" y="34" rx="2" ry="2" width="12" height="12"/><rect class="c" x="674" y="50" rx="2" ry="2" width="12" height="12"/><rect class="c" x="674" y="66" rx="2" ry="2" width="12" height="12"/><rect class="c" x="674" y="82" rx="2" ry="2" width="12" height="12"/><rect class="c" x="674" y="98" rx="2" ry="2" width="12" height="12"/><rect class="c" x="690" y="2" rx="2" ry="2" width="12" height="12"/><rect class="c" x="690" y="18" rx="2" ry="2" width="12" height="12"/><rect class="c" x="690" y="34" rx="2" ry="2" width="12" height="12"/><rect class="c" x="690" y="50" rx="2" ry="2" width="12" height="12"/><rect class="c" x="690" y="66" rx="2" ry="2" width="12" height="12"/><rect class="c" x="690" y="82" rx="2" ry="2" width="12" height="12"/><rect class="c" x="690" y="98" rx="2" ry="2" width="12" height="12"/><rect class="c" x="706" y="2" rx="2" ry="2" width="12" height="12"/><rect class="c" x="706" y="18" rx="2" ry="2" width="12" height="12"/><rect class="c" x="706" y="34" rx="2" ry="2" width="12" height="12"/><rect class="c" x="706" y="50" rx="2" ry="2" width="12" height="12"/><rect class="c" x="706" y="66" rx="2" ry="2" width="12" height="12"/><rect class="c" x="706" y="82" rx="2" ry="2" width="12" height="12"/><rect class="c" x="706" y="98" rx="2" ry="2" width="12" height="12"/><rect class="c" x="722" y="2" rx="2" ry="2" width="12" height="12"/><rect class="c" x="722" y="18" rx="2" ry="2" width="12" height="12"/><rect class="c" x="722" y="34" rx="2" ry="2" width="12" height="12"/><rect class="c" x="722" y="50" rx="2" ry="2" width="12" height="12"/><rect class="c" x="722" y="66" rx="2" ry="2" width="12" height="12"/><rect class="c" x="722" y="82" rx="2" ry="2" width="12" height="12"/><rect class="c" x="722" y="98" rx="2" ry="2" width="12" height="12"/><rect class="c" x="738" y="2" rx="2" ry="2" width="12" height="12"/><rect class="c" x="738" y="18" rx="2" ry="2" width="12" height="12"/><rect class="c" x="738" y="34" rx="2" ry="2" width="12" height="12"/><rect class="c" x="738" y="50" rx="2" ry="2" width="12" height="12"/><rect class="c" x="738" y="66" rx="2" ry="2" width="12" height="12"/><rect class="c" x="738" y="82" rx="2" ry="2" width="12" height="12"/><rect class="c" x="738" y="98" rx="2" ry="2" width="12" height="12"/><rect class="c" x="754" y="2" rx="2" ry="2" width="12" height="12"/><rect class="c" x="754" y="18" rx="2" ry="2" width="12" height="12"/><rect class="c" x="754" y="34" rx="2" ry="2" width="12" height="12"/><rect class="c" x="754" y="50" rx="2" ry="2" width="12" height="12"/><rect class="c" x="754" y="66" rx="2" ry="2" width="12" height="12"/><rect class="c" x="754" y="82" rx="2" ry="2" width="12" height="12"/><rect class="c" x="754" y="98" rx="2" ry="2" width="12" height="12"/><rect class="c" x="770" y="2" rx="2" ry="2" width="12" height="12"/><rect class="c" x="770" y="18" rx="2" ry="2" width="12" height="12"/><rect class="c" x="770" y="34" rx="2" ry="2" width="12" height="12"/><rect class="c" x="770" y="50" rx="2" ry="2" width="12" height="12"/><rect class="c" x="770" y="66" rx="2" ry="2" width="12" height="12"/><rect class="c" x="770" y="82" rx="2" ry="2" width="12" height="12"/><rect class="c" x="770" y="98" rx="2" ry="2" width="12" height="12"/><rect class="c" x="786" y="2" rx="2" ry="2" width="12" height="12"/><rect class="c c1f" x="786" y="18" rx="2" ry="2" width="12" height="12"/><rect class="c c1g" x="786" y="34" rx="2" ry="2" width="12" height="12"/><rect class="c" x="786" y="50" rx="2" ry="2" width="12" height="12"/><rect class="c" x="786" y="66" rx="2" ry="2" width="12" height="12"/><rect class="c" x="786" y="82" rx="2" ry="2" width="12" height="12"/><rect class="c" x="786" y="98" rx="2" ry="2" width="12" height="12"/><rect class="c" x="802" y="2" rx="2" ry="2" width="12" height="12"/><rect class="c" x="802" y="18" rx="2" ry="2" width="12" height="12"/><rect class="c" x="802" y="34" rx="2" ry="2" width="12" height="12"/><rect class="c" x="802" y="50" rx="2" ry="2" width="12" height="12"/><rect class="c" x="802" y="66" rx="2" ry="2" width="12" height="12"/><rect class="c" x="802" y="82" rx="2" ry="2" width="12" height="12"/><rect class="c" x="802" y="98" rx="2" ry="2" width="12" height="12"/><rect class="c" x="818" y="2" rx="2" ry="2" width="12" height="12"/><rect class="c" x="818" y="18" rx="2" ry="2" width="12" height="12"/><rect class="c" x="818" y="34" rx="2" ry="2" width="12" height="12"/><rect class="c" x="818" y="50" rx="2" ry="2" width="12" height="12"/><rect class="c" x="818" y="66" rx="2" ry="2" width="12" height="12"/><rect class="c" x="818" y="82" rx="2" ry="2" width="12" height="12"/><rect class="c" x="818" y="98" rx="2" ry="2" width="12" height="12"/><rect class="c" x="834" y="2" rx="2" ry="2" width="12" height="12"/><rect class="c" x="834" y="18" rx="2" ry="2" width="12" height="12"/><rect class="c" x="834" y="34" rx="2" ry="2" width="12" height="12"/><rect class="u u0" height="12" width="528.6" x="0.0" y="144"/><rect class="u u1" height="12" width="160.6" x="528.0" y="144"/><rect class="u u2" height="12" width="128.6" x="688.0" y="144"/><rect class="u u3" height="12" width="32.6" x="816.0" y="144"/><rect class="s s0" x="0.8" y="0.8" width="14.4" height="14.4" rx="4.5" ry="4.5"/><rect class="s s1" x="1.8" y="1.8" width="12.3" height="12.3" rx="4.1" ry="4.1"/><rect class="s s2" x="2.6" y="2.6" width="10.8" height="10.8" rx="3.6" ry="3.6"/><rect class="s s3" x="3.0" y="3.0" width="9.9" height="9.9" rx="3.3" ry="3.3"/></svg>