<svg viewBox="-16 -32 880 192" width="880" height="192" xmlns="http://www.w3.org/2000/svg"><desc>Generated with https://github.com/Platane/snk</desc><style>@keyframes c0{3.26%{fill:var(--c1)}3.28%,to{fill:var(--ce)}}@keyframes c1{77.54%{fill:var(--c2)}77.56%,to{fill:var(--ce)}}@keyframes c2{1.62%{fill:var(--c1)}1.64%,to{fill:var(--ce)}}@keyframes c3{2.85%{fill:var(--c1)}2.87%,to{fill:var(--ce)}}@keyframes c4{4.07%{fill:var(--c1)}4.09%,to{fill:var(--ce)}}@keyframes c5{10.19%{fill:var(--c1)}10.21%,to{fill:var(--ce)}}@keyframes c6{2.03%{fill:var(--c1)}2.05%,to{fill:var(--ce)}}@keyframes c7{2.44%{fill:var(--c1)}2.46%,to{fill:var(--ce)}}@keyframes c8{4.48%{fill:var(--c1)}4.5%,to{fill:var(--ce)}}@keyframes c9{73.46%{fill:var(--c2)}73.48%,to{fill:var(--ce)}}@keyframes ca{73.87%{fill:var(--c2)}73.89%,to{fill:var(--ce)}}@keyframes cb{76.32%{fill:var(--c2)}76.34%,to{fill:var(--ce)}}@keyframes cc{6.11%{fill:var(--c1)}6.13%,to{fill:var(--ce)}}@keyframes cd{8.15%{fill:var(--c1)}8.17%,to{fill:var(--ce)}}@keyframes ce{15.09%{fill:var(--c1)}15.11%,to{fill:var(--ce)}}@keyframes cf{15.91%{fill:var(--c1)}15.93%,to{fill:var(--ce)}}@keyframes cg{16.32%{fill:var(--c1)}16.34%,to{fill:var(--ce)}}@keyframes ch{20.81%{fill:var(--c1)}20.83%,to{fill:var(--ce)}}@keyframes ci{17.95%{fill:var(--c1)}17.97%,to{fill:var(--ce)}}@keyframes cj{18.36%{fill:var(--c1)}18.38%,to{fill:var(--ce)}}@keyframes ck{67.34%{fill:var(--c2)}67.36%,to{fill:var(--ce)}}@keyframes cl{23.66%{fill:var(--c1)}23.68%,to{fill:var(--ce)}}@keyframes cm{90.6%{fill:var(--c4)}90.62%,to{fill:var(--ce)}}@keyframes cn{19.17%{fill:var(--c1)}19.19%,to{fill:var(--ce)}}@keyframes co{19.99%{fill:var(--c1)}20.01%,to{fill:var(--ce)}}@keyframes cp{55.5%{fill:var(--c1)}55.52%,to{fill:var(--ce)}}@keyframes cq{55.91%{fill:var(--c2)}55.93%,to{fill:var(--ce)}}@keyframes cr{26.11%{fill:var(--c1)}26.13%,to{fill:var(--ce)}}@keyframes cs{62.44%{fill:var(--c2)}62.46%,to{fill:var(--ce)}}@keyframes ct{87.34%{fill:var(--c3)}87.36%,to{fill:var(--ce)}}@keyframes cu{57.95%{fill:var(--c2)}57.97%,to{fill:var(--ce)}}@keyframes cv{28.15%{fill:var(--c1)}28.17%,to{fill:var(--ce)}}@keyframes cw{29.79%{fill:var(--c1)}29.81%,to{fill:var(--ce)}}@keyframes cx{28.56%{fill:var(--c1)}28.58%,to{fill:var(--ce)}}@keyframes cy{59.99%{fill:var(--c2)}60.01%,to{fill:var(--ce)}}@keyframes cz{31.83%{fill:var(--c1)}31.85%,to{fill:var(--ce)}}@keyframes c10{35.91%{fill:var(--c1)}35.93%,to{fill:var(--ce)}}@keyframes c11{35.5%{fill:var(--c1)}35.52%,to{fill:var(--ce)}}@keyframes c12{42.03%{fill:var(--c1)}42.05%,to{fill:var(--ce)}}@keyframes c13{42.44%{fill:var(--c1)}42.46%,to{fill:var(--ce)}}@keyframes u0{1.62%{transform:scale(0,1)}1.64%,2.03%{transform:scale(.03,1)}2.05%,2.44%{transform:scale(.07,1)}2.46%,2.85%{transform:scale(.1,1)}2.87%,3.26%{transform:scale(.14,1)}3.28%,4.07%{transform:scale(.17,1)}4.09%,4.48%{transform:scale(.21,1)}4.5%,6.11%{transform:scale(.24,1)}6.13%,8.15%{transform:scale(.28,1)}10.19%,8.17%{transform:scale(.31,1)}10.21%,15.09%{transform:scale(.34,1)}15.11%,15.91%{transform:scale(.38,1)}15.93%,16.32%{transform:scale(.41,1)}16.34%,17.95%{transform:scale(.45,1)}17.97%,18.36%{transform:scale(.48,1)}18.38%,19.17%{transform:scale(.52,1)}19.19%,19.99%{transform:scale(.55,1)}20.01%,20.81%{transform:scale(.59,1)}20.83%,23.66%{transform:scale(.62,1)}23.68%,26.11%{transform:scale(.66,1)}26.13%,28.15%{transform:scale(.69,1)}28.17%,28.56%{transform:scale(.72,1)}28.58%,29.79%{transform:scale(.76,1)}29.81%,31.83%{transform:scale(.79,1)}31.85%,35.5%{transform:scale(.83,1)}35.52%,35.91%{transform:scale(.86,1)}35.93%,42.03%{transform:scale(.9,1)}42.05%,42.44%{transform:scale(.93,1)}42.46%,55.5%{transform:scale(.97,1)}55.52%,to{transform:scale(1,1)}}@keyframes u1{55.91%{transform:scale(0,1)}55.93%,57.95%{transform:scale(.11,1)}57.97%,59.99%{transform:scale(.22,1)}60.01%,62.44%{transform:scale(.33,1)}62.46%,67.34%{transform:scale(.44,1)}67.36%,73.46%{transform:scale(.56,1)}73.48%,73.87%{transform:scale(.67,1)}73.89%,76.32%{transform:scale(.78,1)}76.34%,77.54%{transform:scale(.89,1)}77.56%,to{transform:scale(1,1)}}@keyframes u2{87.34%{transform:scale(0,1)}87.36%,to{transform:scale(1,1)}}@keyframes u3{90.6%{transform:scale(0,1)}90.62%,to{transform:scale(1,1)}}@keyframes s0{0%,99.59%{transform:translate(0,-16px)}.82%{transform:translate(0,16px)}1.22%,77.96%{transform:translate(16px,16px)}1.63%{transform:translate(16px,32px)}2.04%{transform:translate(32px,32px)}2.45%{transform:translate(32px,48px)}3.27%{transform:translate(0,48px)}3.67%{transform:translate(0,64px)}5.31%{transform:translate(64px,64px)}6.12%{transform:translate(64px,96px)}6.53%{transform:translate(80px,96px)}8.98%{transform:translate(80px,0)}10.2%{transform:translate(32px,0)}10.61%{transform:translate(32px,-16px)}14.69%{transform:translate(192px,-16px)}15.1%{transform:translate(192px,0)}15.51%{transform:translate(208px,0)}16.33%{transform:translate(208px,32px)}17.96%,22.86%{transform:translate(272px,32px)}18.78%,22.04%{transform:translate(272px,64px)}19.18%{transform:translate(288px,64px)}20%{transform:translate(288px,96px)}20.82%{transform:translate(256px,96px)}21.63%{transform:translate(256px,64px)}23.27%,90.2%{transform:translate(288px,32px)}23.67%{transform:translate(288px,16px)}25.71%{transform:translate(368px,16px)}26.53%{transform:translate(368px,-16px)}27.35%{transform:translate(400px,-16px)}28.16%{transform:translate(400px,16px)}28.57%{transform:translate(416px,16px)}28.98%{transform:translate(416px,32px)}29.39%{transform:translate(400px,32px)}29.8%{transform:translate(400px,48px)}35.1%{transform:translate(608px,48px)}35.92%{transform:translate(608px,16px)}40.82%{transform:translate(800px,16px)}42.04%{transform:translate(800px,64px)}42.45%{transform:translate(816px,64px)}42.86%{transform:translate(816px,80px)}55.1%{transform:translate(336px,80px)}55.51%{transform:translate(336px,96px)}56.73%{transform:translate(384px,96px)}57.96%{transform:translate(384px,48px)}59.59%{transform:translate(448px,48px)}60.82%{transform:translate(448px,0)}65.31%{transform:translate(272px,0)}67.35%{transform:translate(272px,80px)}73.47%{transform:translate(32px,80px)}73.88%{transform:translate(32px,96px)}74.29%{transform:translate(48px,96px)}76.73%{transform:translate(48px,0)}77.55%{transform:translate(16px,0)}87.35%{transform:translate(384px,16px)}87.76%{transform:translate(384px,32px)}90.61%{transform:translate(288px,48px)}95.92%{transform:translate(80px,48px)}97.55%{transform:translate(80px,-16px)}}@keyframes s1{0%,99.59%{transform:translate(16px,-16px)}.41%{transform:translate(0,-16px)}1.22%{transform:translate(0,16px)}1.63%,78.37%{transform:translate(16px,16px)}2.04%{transform:translate(16px,32px)}2.45%{transform:translate(32px,32px)}2.86%{transform:translate(32px,48px)}3.67%{transform:translate(0,48px)}4.08%{transform:translate(0,64px)}5.71%{transform:translate(64px,64px)}6.53%{transform:translate(64px,96px)}6.94%{transform:translate(80px,96px)}9.39%{transform:translate(80px,0)}10.61%{transform:translate(32px,0)}11.02%{transform:translate(32px,-16px)}15.1%{transform:translate(192px,-16px)}15.51%{transform:translate(192px,0)}15.92%{transform:translate(208px,0)}16.73%{transform:translate(208px,32px)}18.37%,23.27%{transform:translate(272px,32px)}19.18%,22.45%{transform:translate(272px,64px)}19.59%{transform:translate(288px,64px)}20.41%{transform:translate(288px,96px)}21.22%{transform:translate(256px,96px)}22.04%{transform:translate(256px,64px)}23.67%,90.61%{transform:translate(288px,32px)}24.08%{transform:translate(288px,16px)}26.12%{transform:translate(368px,16px)}26.94%{transform:translate(368px,-16px)}27.76%{transform:translate(400px,-16px)}28.57%{transform:translate(400px,16px)}28.98%{transform:translate(416px,16px)}29.39%{transform:translate(416px,32px)}29.8%{transform:translate(400px,32px)}30.2%{transform:translate(400px,48px)}35.51%{transform:translate(608px,48px)}36.33%{transform:translate(608px,16px)}41.22%{transform:translate(800px,16px)}42.45%{transform:translate(800px,64px)}42.86%{transform:translate(816px,64px)}43.27%{transform:translate(816px,80px)}55.51%{transform:translate(336px,80px)}55.92%{transform:translate(336px,96px)}57.14%{transform:translate(384px,96px)}58.37%{transform:translate(384px,48px)}60%{transform:translate(448px,48px)}61.22%{transform:translate(448px,0)}65.71%{transform:translate(272px,0)}67.76%{transform:translate(272px,80px)}73.88%{transform:translate(32px,80px)}74.29%{transform:translate(32px,96px)}74.69%{transform:translate(48px,96px)}77.14%{transform:translate(48px,0)}77.96%{transform:translate(16px,0)}87.76%{transform:translate(384px,16px)}88.16%{transform:translate(384px,32px)}91.02%{transform:translate(288px,48px)}96.33%{transform:translate(80px,48px)}97.96%{transform:translate(80px,-16px)}}@keyframes s2{0%,11.43%,99.59%{transform:translate(32px,-16px)}.82%{transform:translate(0,-16px)}1.63%{transform:translate(0,16px)}2.04%,78.78%{transform:translate(16px,16px)}2.45%{transform:translate(16px,32px)}2.86%{transform:translate(32px,32px)}3.27%{transform:translate(32px,48px)}4.08%{transform:translate(0,48px)}4.49%{transform:translate(0,64px)}6.12%{transform:translate(64px,64px)}6.94%{transform:translate(64px,96px)}7.35%{transform:translate(80px,96px)}9.8%{transform:translate(80px,0)}11.02%{transform:translate(32px,0)}15.51%{transform:translate(192px,-16px)}15.92%{transform:translate(192px,0)}16.33%{transform:translate(208px,0)}17.14%{transform:translate(208px,32px)}18.78%,23.67%{transform:translate(272px,32px)}19.59%,22.86%{transform:translate(272px,64px)}20%{transform:translate(288px,64px)}20.82%{transform:translate(288px,96px)}21.63%{transform:translate(256px,96px)}22.45%{transform:translate(256px,64px)}24.08%,91.02%{transform:translate(288px,32px)}24.49%{transform:translate(288px,16px)}26.53%{transform:translate(368px,16px)}27.35%{transform:translate(368px,-16px)}28.16%{transform:translate(400px,-16px)}28.98%{transform:translate(400px,16px)}29.39%{transform:translate(416px,16px)}29.8%{transform:translate(416px,32px)}30.2%{transform:translate(400px,32px)}30.61%{transform:translate(400px,48px)}35.92%{transform:translate(608px,48px)}36.73%{transform:translate(608px,16px)}41.63%{transform:translate(800px,16px)}42.86%{transform:translate(800px,64px)}43.27%{transform:translate(816px,64px)}43.67%{transform:translate(816px,80px)}55.92%{transform:translate(336px,80px)}56.33%{transform:translate(336px,96px)}57.55%{transform:translate(384px,96px)}58.78%{transform:translate(384px,48px)}60.41%{transform:translate(448px,48px)}61.63%{transform:translate(448px,0)}66.12%{transform:translate(272px,0)}68.16%{transform:translate(272px,80px)}74.29%{transform:translate(32px,80px)}74.69%{transform:translate(32px,96px)}75.1%{transform:translate(48px,96px)}77.55%{transform:translate(48px,0)}78.37%{transform:translate(16px,0)}88.16%{transform:translate(384px,16px)}88.57%{transform:translate(384px,32px)}91.43%{transform:translate(288px,48px)}96.73%{transform:translate(80px,48px)}98.37%{transform:translate(80px,-16px)}}@keyframes s3{0%,99.59%{transform:translate(48px,-16px)}1.22%{transform:translate(0,-16px)}2.04%{transform:translate(0,16px)}2.45%,79.18%{transform:translate(16px,16px)}2.86%{transform:translate(16px,32px)}3.27%{transform:translate(32px,32px)}3.67%{transform:translate(32px,48px)}4.49%{transform:translate(0,48px)}4.9%{transform:translate(0,64px)}6.53%{transform:translate(64px,64px)}7.35%{transform:translate(64px,96px)}7.76%{transform:translate(80px,96px)}10.2%{transform:translate(80px,0)}11.43%{transform:translate(32px,0)}11.84%{transform:translate(32px,-16px)}15.92%{transform:translate(192px,-16px)}16.33%{transform:translate(192px,0)}16.73%{transform:translate(208px,0)}17.55%{transform:translate(208px,32px)}19.18%,24.08%{transform:translate(272px,32px)}20%,23.27%{transform:translate(272px,64px)}20.41%{transform:translate(288px,64px)}21.22%{transform:translate(288px,96px)}22.04%{transform:translate(256px,96px)}22.86%{transform:translate(256px,64px)}24.49%,91.43%{transform:translate(288px,32px)}24.9%{transform:translate(288px,16px)}26.94%{transform:translate(368px,16px)}27.76%{transform:translate(368px,-16px)}28.57%{transform:translate(400px,-16px)}29.39%{transform:translate(400px,16px)}29.8%{transform:translate(416px,16px)}30.2%{transform:translate(416px,32px)}30.61%{transform:translate(400px,32px)}31.02%{transform:translate(400px,48px)}36.33%{transform:translate(608px,48px)}37.14%{transform:translate(608px,16px)}42.04%{transform:translate(800px,16px)}43.27%{transform:translate(800px,64px)}43.67%{transform:translate(816px,64px)}44.08%{transform:translate(816px,80px)}56.33%{transform:translate(336px,80px)}56.73%{transform:translate(336px,96px)}57.96%{transform:translate(384px,96px)}59.18%{transform:translate(384px,48px)}60.82%{transform:translate(448px,48px)}62.04%{transform:translate(448px,0)}66.53%{transform:translate(272px,0)}68.57%{transform:translate(272px,80px)}74.69%{transform:translate(32px,80px)}75.1%{transform:translate(32px,96px)}75.51%{transform:translate(48px,96px)}77.96%{transform:translate(48px,0)}78.78%{transform:translate(16px,0)}88.57%{transform:translate(384px,16px)}88.98%{transform:translate(384px,32px)}91.84%{transform:translate(288px,48px)}97.14%{transform:translate(80px,48px)}98.78%{transform:translate(80px,-16px)}}:root{--cb:#1b1f230a;--cs:purple;--ce:#ebedf0;--c0:#ebedf0;--c1:#9be9a8;--c2:#40c463;--c3:#30a14e;--c4:#216e39}@media (prefers-color-scheme:dark){:root{--cb:#1b1f230a;--cs:purple;--ce:#161b22;--c1:#01311f;--c2:#034525;--c3:#0f6d31;--c4:#00c647}}.c{shape-rendering:geometricPrecision;fill:var(--ce);stroke-width:1px;stroke:var(--cb);animation:none 24500ms linear infinite}.c.c0{fill:var(--c1);animation-name:c0}.c.c1{fill:var(--c2);animation-name:c1}.c.c2{fill:var(--c1);animation-name:c2}.c.c3,.c.c4,.c.c5{fill:var(--c1);animation-name:c3}.c.c4,.c.c5{animation-name:c4}.c.c5{animation-name:c5}.c.c6,.c.c7,.c.c8{fill:var(--c1);animation-name:c6}.c.c7,.c.c8{animation-name:c7}.c.c8{animation-name:c8}.c.c9,.c.ca,.c.cb{fill:var(--c2);animation-name:c9}.c.ca,.c.cb{animation-name:ca}.c.cb{animation-name:cb}.c.cc,.c.cd{fill:var(--c1);animation-name:cc}.c.cd{animation-name:cd}.c.ce,.c.cf,.c.cg{fill:var(--c1);animation-name:ce}.c.cf,.c.cg{animation-name:cf}.c.cg{animation-name:cg}.c.ch,.c.ci,.c.cj{fill:var(--c1);animation-name:ch}.c.ci,.c.cj{animation-name:ci}.c.cj{animation-name:cj}.c.ck{fill:var(--c2);animation-name:ck}.c.cl{fill:var(--c1);animation-name:cl}.c.cm{fill:var(--c4);animation-name:cm}.c.cn,.c.co,.c.cp{fill:var(--c1);animation-name:cn}.c.co,.c.cp{animation-name:co}.c.cp{animation-name:cp}.c.cq{fill:var(--c2);animation-name:cq}.c.cr{fill:var(--c1);animation-name:cr}.c.cs{fill:var(--c2);animation-name:cs}.c.ct{fill:var(--c3);animation-name:ct}.c.cu{fill:var(--c2);animation-name:cu}.c.cv,.c.cw,.c.cx{fill:var(--c1);animation-name:cv}.c.cw,.c.cx{animation-name:cw}.c.cx{animation-name:cx}.c.cy{fill:var(--c2);animation-name:cy}.c.c10,.c.cz{fill:var(--c1);animation-name:cz}.c.c10{animation-name:c10}.c.c11,.c.c12,.c.c13{fill:var(--c1);animation-name:c11}.c.c12,.c.c13{animation-name:c12}.c.c13{animation-name:c13}.s,.u{animation:none linear 24500ms infinite}.u,.u.u0{transform-origin:0 0}.u{transform:scale(0,1)}.u.u0{fill:var(--c1);animation-name:u0}.u.u1{fill:var(--c2);animation-name:u1;transform-origin:614.8px 0}.u.u2{fill:var(--c3);animation-name:u2;transform-origin:805.6px 0}.u.u3{fill:var(--c4);animation-name:u3;transform-origin:826.8px 0}.s{shape-rendering:geometricPrecision;fill:var(--cs)}.s.s0{transform:translate(0,-16px);animation-name:s0}.s.s1{transform:translate(16px,-16px);animation-name:s1}.s.s2{transform:translate(32px,-16px);animation-name:s2}.s.s3{transform:translate(48px,-16px);animation-name:s3}</style><rect class="c" x="2" y="2" rx="2" ry="2" width="12" height="12"/><rect class="c" x="2" y="18" rx="2" ry="2" width="12" height="12"/><rect class="c" x="2" y="34" rx="2" ry="2" width="12" height="12"/><rect class="c c0" x="2" y="50" rx="2" ry="2" width="12" height="12"/><rect class="c" x="2" y="66" rx="2" ry="2" width="12" height="12"/><rect class="c" x="2" y="82" rx="2" ry="2" width="12" height="12"/><rect class="c" x="2" y="98" rx="2" ry="2" width="12" height="12"/><rect class="c c1" x="18" y="2" rx="2" ry="2" width="12" height="12"/><rect class="c" x="18" y="18" rx="2" ry="2" width="12" height="12"/><rect class="c c2" x="18" y="34" rx="2" ry="2" width="12" height="12"/><rect class="c c3" x="18" y="50" rx="2" ry="2" width="12" height="12"/><rect class="c c4" x="18" y="66" rx="2" ry="2" width="12" height="12"/><rect class="c" x="18" y="82" rx="2" ry="2" width="12" height="12"/><rect class="c" x="18" y="98" rx="2" ry="2" width="12" height="12"/><rect class="c c5" x="34" y="2" rx="2" ry="2" width="12" height="12"/><rect class="c" x="34" y="18" rx="2" ry="2" width="12" height="12"/><rect class="c c6" x="34" y="34" rx="2" ry="2" width="12" height="12"/><rect class="c c7" x="34" y="50" rx="2" ry="2" width="12" height="12"/><rect class="c c8" x="34" y="66" rx="2" ry="2" width="12" height="12"/><rect class="c c9" x="34" y="82" rx="2" ry="2" width="12" height="12"/><rect class="c ca" x="34" y="98" rx="2" ry="2" width="12" height="12"/><rect class="c" x="50" y="2" rx="2" ry="2" width="12" height="12"/><rect class="c cb" x="50" y="18" rx="2" ry="2" width="12" height="12"/><rect class="c" x="50" y="34" rx="2" ry="2" width="12" height="12"/><rect class="c" x="50" y="50" rx="2" ry="2" width="12" height="12"/><rect class="c" x="50" y="66" rx="2" ry="2" width="12" height="12"/><rect class="c" x="50" y="82" rx="2" ry="2" width="12" height="12"/><rect class="c" x="50" y="98" rx="2" ry="2" width="12" height="12"/><rect class="c" x="66" y="2" rx="2" ry="2" width="12" height="12"/><rect class="c" x="66" y="18" rx="2" ry="2" width="12" height="12"/><rect class="c" x="66" y="34" rx="2" ry="2" width="12" height="12"/><rect class="c" x="66" y="50" rx="2" ry="2" width="12" height="12"/><rect class="c" x="66" y="66" rx="2" ry="2" width="12" height="12"/><rect class="c" x="66" y="82" rx="2" ry="2" width="12" height="12"/><rect class="c cc" x="66" y="98" rx="2" ry="2" width="12" height="12"/><rect class="c" x="82" y="2" rx="2" ry="2" width="12" height="12"/><rect class="c" x="82" y="18" rx="2" ry="2" width="12" height="12"/><rect class="c cd" x="82" y="34" rx="2" ry="2" width="12" height="12"/><rect class="c" x="82" y="50" rx="2" ry="2" width="12" height="12"/><rect class="c" x="82" y="66" rx="2" ry="2" width="12" height="12"/><rect class="c" x="82" y="82" rx="2" ry="2" width="12" height="12"/><rect class="c" x="82" y="98" rx="2" ry="2" width="12" height="12"/><rect class="c" x="98" y="2" rx="2" ry="2" width="12" height="12"/><rect class="c" x="98" y="18" rx="2" ry="2" width="12" height="12"/><rect class="c" x="98" y="34" rx="2" ry="2" width="12" height="12"/><rect class="c" x="98" y="50" rx="2" ry="2" width="12" height="12"/><rect class="c" x="98" y="66" rx="2" ry="2" width="12" height="12"/><rect class="c" x="98" y="82" rx="2" ry="2" width="12" height="12"/><rect class="c" x="98" y="98" rx="2" ry="2" width="12" height="12"/><rect class="c" x="114" y="2" rx="2" ry="2" width="12" height="12"/><rect class="c" x="114" y="18" rx="2" ry="2" width="12" height="12"/><rect class="c" x="114" y="34" rx="2" ry="2" width="12" height="12"/><rect class="c" x="114" y="50" rx="2" ry="2" width="12" height="12"/><rect class="c" x="114" y="66" rx="2" ry="2" width="12" height="12"/><rect class="c" x="114" y="82" rx="2" ry="2" width="12" height="12"/><rect class="c" x="114" y="98" rx="2" ry="2" width="12" height="12"/><rect class="c" x="130" y="2" rx="2" ry="2" width="12" height="12"/><rect class="c" x="130" y="18" rx="2" ry="2" width="12" height="12"/><rect class="c" x="130" y="34" rx="2" ry="2" width="12" height="12"/><rect class="c" x="130" y="50" rx="2" ry="2" width="12" height="12"/><rect class="c" x="130" y="66" rx="2" ry="2" width="12" height="12"/><rect class="c" x="130" y="82" rx="2" ry="2" width="12" height="12"/><rect class="c" x="130" y="98" rx="2" ry="2" width="12" height="12"/><rect class="c" x="146" y="2" rx="2" ry="2" width="12" height="12"/><rect class="c" x="146" y="18" rx="2" ry="2" width="12" height="12"/><rect class="c" x="146" y="34" rx="2" ry="2" width="12" height="12"/><rect class="c" x="146" y="50" rx="2" ry="2" width="12" height="12"/><rect class="c" x="146" y="66" rx="2" ry="2" width="12" height="12"/><rect class="c" x="146" y="82" rx="2" ry="2" width="12" height="12"/><rect class="c" x="146" y="98" rx="2" ry="2" width="12" height="12"/><rect class="c" x="162" y="2" rx="2" ry="2" width="12" height="12"/><rect class="c" x="162" y="18" rx="2" ry="2" width="12" height="12"/><rect class="c" x="162" y="34" rx="2" ry="2" width="12" height="12"/><rect class="c" x="162" y="50" rx="2" ry="2" width="12" height="12"/><rect class="c" x="162" y="66" rx="2" ry="2" width="12" height="12"/><rect class="c" x="162" y="82" rx="2" ry="2" width="12" height="12"/><rect class="c" x="162" y="98" rx="2" ry="2" width="12" height="12"/><rect class="c" x="178" y="2" rx="2" ry="2" width="12" height="12"/><rect class="c" x="178" y="18" rx="2" ry="2" width="12" height="12"/><rect class="c" x="178" y="34" rx="2" ry="2" width="12" height="12"/><rect class="c" x="178" y="50" rx="2" ry="2" width="12" height="12"/><rect class="c" x="178" y="66" rx="2" ry="2" width="12" height="12"/><rect class="c" x="178" y="82" rx="2" ry="2" width="12" height="12"/><rect class="c" x="178" y="98" rx="2" ry="2" width="12" height="12"/><rect class="c ce" x="194" y="2" rx="2" ry="2" width="12" height="12"/><rect class="c" x="194" y="18" rx="2" ry="2" width="12" height="12"/><rect class="c" x="194" y="34" rx="2" ry="2" width="12" height="12"/><rect class="c" x="194" y="50" rx="2" ry="2" width="12" height="12"/><rect class="c" x="194" y="66" rx="2" ry="2" width="12" height="12"/><rect class="c" x="194" y="82" rx="2" ry="2" width="12" height="12"/><rect class="c" x="194" y="98" rx="2" ry="2" width="12" height="12"/><rect class="c" x="210" y="2" rx="2" ry="2" width="12" height="12"/><rect class="c cf" x="210" y="18" rx="2" ry="2" width="12" height="12"/><rect class="c cg" x="210" y="34" rx="2" ry="2" width="12" height="12"/><rect class="c" x="210" y="50" rx="2" ry="2" width="12" height="12"/><rect class="c" x="210" y="66" rx="2" ry="2" width="12" height="12"/><rect class="c" x="210" y="82" rx="2" ry="2" width="12" height="12"/><rect class="c" x="210" y="98" rx="2" ry="2" width="12" height="12"/><rect class="c" x="226" y="2" rx="2" ry="2" width="12" height="12"/><rect class="c" x="226" y="18" rx="2" ry="2" width="12" height="12"/><rect class="c" x="226" y="34" rx="2" ry="2" width="12" height="12"/><rect class="c" x="226" y="50" rx="2" ry="2" width="12" height="12"/><rect class="c" x="226" y="66" rx="2" ry="2" width="12" height="12"/><rect class="c" x="226" y="82" rx="2" ry="2" width="12" height="12"/><rect class="c" x="226" y="98" rx="2" ry="2" width="12" height="12"/><rect class="c" x="242" y="2" rx="2" ry="2" width="12" height="12"/><rect class="c" x="242" y="18" rx="2" ry="2" width="12" height="12"/><rect class="c" x="242" y="34" rx="2" ry="2" width="12" height="12"/><rect class="c" x="242" y="50" rx="2" ry="2" width="12" height="12"/><rect class="c" x="242" y="66" rx="2" ry="2" width="12" height="12"/><rect class="c" x="242" y="82" rx="2" ry="2" width="12" height="12"/><rect class="c" x="242" y="98" rx="2" ry="2" width="12" height="12"/><rect class="c" x="258" y="2" rx="2" ry="2" width="12" height="12"/><rect class="c" x="258" y="18" rx="2" ry="2" width="12" height="12"/><rect class="c" x="258" y="34" rx="2" ry="2" width="12" height="12"/><rect class="c" x="258" y="50" rx="2" ry="2" width="12" height="12"/><rect class="c" x="258" y="66" rx="2" ry="2" width="12" height="12"/><rect class="c" x="258" y="82" rx="2" ry="2" width="12" height="12"/><rect class="c ch" x="258" y="98" rx="2" ry="2" width="12" height="12"/><rect class="c" x="274" y="2" rx="2" ry="2" width="12" height="12"/><rect class="c" x="274" y="18" rx="2" ry="2" width="12" height="12"/><rect class="c ci" x="274" y="34" rx="2" ry="2" width="12" height="12"/><rect class="c cj" x="274" y="50" rx="2" ry="2" width="12" height="12"/><rect class="c" x="274" y="66" rx="2" ry="2" width="12" height="12"/><rect class="c ck" x="274" y="82" rx="2" ry="2" width="12" height="12"/><rect class="c" x="274" y="98" rx="2" ry="2" width="12" height="12"/><rect class="c" x="290" y="2" rx="2" ry="2" width="12" height="12"/><rect class="c cl" x="290" y="18" rx="2" ry="2" width="12" height="12"/><rect class="c" x="290" y="34" rx="2" ry="2" width="12" height="12"/><rect class="c cm" x="290" y="50" rx="2" ry="2" width="12" height="12"/><rect class="c cn" x="290" y="66" rx="2" ry="2" width="12" height="12"/><rect class="c" x="290" y="82" rx="2" ry="2" width="12" height="12"/><rect class="c co" x="290" y="98" rx="2" ry="2" width="12" height="12"/><rect class="c" x="306" y="2" rx="2" ry="2" width="12" height="12"/><rect class="c" x="306" y="18" rx="2" ry="2" width="12" height="12"/><rect class="c" x="306" y="34" rx="2" ry="2" width="12" height="12"/><rect class="c" x="306" y="50" rx="2" ry="2" width="12" height="12"/><rect class="c" x="306" y="66" rx="2" ry="2" width="12" height="12"/><rect class="c" x="306" y="82" rx="2" ry="2" width="12" height="12"/><rect class="c" x="306" y="98" rx="2" ry="2" width="12" height="12"/><rect class="c" x="322" y="2" rx="2" ry="2" width="12" height="12"/><rect class="c" x="322" y="18" rx="2" ry="2" width="12" height="12"/><rect class="c" x="322" y="34" rx="2" ry="2" width="12" height="12"/><rect class="c" x="322" y="50" rx="2" ry="2" width="12" height="12"/><rect class="c" x="322" y="66" rx="2" ry="2" width="12" height="12"/><rect class="c" x="322" y="82" rx="2" ry="2" width="12" height="12"/><rect class="c" x="322" y="98" rx="2" ry="2" width="12" height="12"/><rect class="c" x="338" y="2" rx="2" ry="2" width="12" height="12"/><rect class="c" x="338" y="18" rx="2" ry="2" width="12" height="12"/><rect class="c" x="338" y="34" rx="2" ry="2" width="12" height="12"/><rect class="c" x="338" y="50" rx="2" ry="2" width="12" height="12"/><rect class="c" x="338" y="66" rx="2" ry="2" width="12" height="12"/><rect class="c" x="338" y="82" rx="2" ry="2" width="12" height="12"/><rect class="c cp" x="338" y="98" rx="2" ry="2" width="12" height="12"/><rect class="c" x="354" y="2" rx="2" ry="2" width="12" height="12"/><rect class="c" x="354" y="18" rx="2" ry="2" width="12" height="12"/><rect class="c" x="354" y="34" rx="2" ry="2" width="12" height="12"/><rect class="c" x="354" y="50" rx="2" ry="2" width="12" height="12"/><rect class="c" x="354" y="66" rx="2" ry="2" width="12" height="12"/><rect class="c" x="354" y="82" rx="2" ry="2" width="12" height="12"/><rect class="c cq" x="354" y="98" rx="2" ry="2" width="12" height="12"/><rect class="c cr" x="370" y="2" rx="2" ry="2" width="12" height="12"/><rect class="c" x="370" y="18" rx="2" ry="2" width="12" height="12"/><rect class="c" x="370" y="34" rx="2" ry="2" width="12" height="12"/><rect class="c" x="370" y="50" rx="2" ry="2" width="12" height="12"/><rect class="c" x="370" y="66" rx="2" ry="2" width="12" height="12"/><rect class="c" x="370" y="82" rx="2" ry="2" width="12" height="12"/><rect class="c" x="370" y="98" rx="2" ry="2" width="12" height="12"/><rect class="c cs" x="386" y="2" rx="2" ry="2" width="12" height="12"/><rect class="c ct" x="386" y="18" rx="2" ry="2" width="12" height="12"/><rect class="c" x="386" y="34" rx="2" ry="2" width="12" height="12"/><rect class="c cu" x="386" y="50" rx="2" ry="2" width="12" height="12"/><rect class="c" x="386" y="66" rx="2" ry="2" width="12" height="12"/><rect class="c" x="386" y="82" rx="2" ry="2" width="12" height="12"/><rect class="c" x="386" y="98" rx="2" ry="2" width="12" height="12"/><rect class="c" x="402" y="2" rx="2" ry="2" width="12" height="12"/><rect class="c cv" x="402" y="18" rx="2" ry="2" width="12" height="12"/><rect class="c" x="402" y="34" rx="2" ry="2" width="12" height="12"/><rect class="c cw" x="402" y="50" rx="2" ry="2" width="12" height="12"/><rect class="c" x="402" y="66" rx="2" ry="2" width="12" height="12"/><rect class="c" x="402" y="82" rx="2" ry="2" width="12" height="12"/><rect class="c" x="402" y="98" rx="2" ry="2" width="12" height="12"/><rect class="c" x="418" y="2" rx="2" ry="2" width="12" height="12"/><rect class="c cx" x="418" y="18" rx="2" ry="2" width="12" height="12"/><rect class="c" x="418" y="34" rx="2" ry="2" width="12" height="12"/><rect class="c" x="418" y="50" rx="2" ry="2" width="12" height="12"/><rect class="c" x="418" y="66" rx="2" ry="2" width="12" height="12"/><rect class="c" x="418" y="82" rx="2" ry="2" width="12" height="12"/><rect class="c" x="418" y="98" rx="2" ry="2" width="12" height="12"/><rect class="c" x="434" y="2" rx="2" ry="2" width="12" height="12"/><rect class="c" x="434" y="18" rx="2" ry="2" width="12" height="12"/><rect class="c" x="434" y="34" rx="2" ry="2" width="12" height="12"/><rect class="c" x="434" y="50" rx="2" ry="2" width="12" height="12"/><rect class="c" x="434" y="66" rx="2" ry="2" width="12" height="12"/><rect class="c" x="434" y="82" rx="2" ry="2" width="12" height="12"/><rect class="c" x="434" y="98" rx="2" ry="2" width="12" height="12"/><rect class="c" x="450" y="2" rx="2" ry="2" width="12" height="12"/><rect class="c" x="450" y="18" rx="2" ry="2" width="12" height="12"/><rect class="c cy" x="450" y="34" rx="2" ry="2" width="12" height="12"/><rect class="c" x="450" y="50" rx="2" ry="2" width="12" height="12"/><rect class="c" x="450" y="66" rx="2" ry="2" width="12" height="12"/><rect class="c" x="450" y="82" rx="2" ry="2" width="12" height="12"/><rect class="c" x="450" y="98" rx="2" ry="2" width="12" height="12"/><rect class="c" x="466" y="2" rx="2" ry="2" width="12" height="12"/><rect class="c" x="466" y="18" rx="2" ry="2" width="12" height="12"/><rect class="c" x="466" y="34" rx="2" ry="2" width="12" height="12"/><rect class="c" x="466" y="50" rx="2" ry="2" width="12" height="12"/><rect class="c" x="466" y="66" rx="2" ry="2" width="12" height="12"/><rect class="c" x="466" y="82" rx="2" ry="2" width="12" height="12"/><rect class="c" x="466" y="98" rx="2" ry="2" width="12" height="12"/><rect class="c" x="482" y="2" rx="2" ry="2" width="12" height="12"/><rect class="c" x="482" y="18" rx="2" ry="2" width="12" height="12"/><rect class="c" x="482" y="34" rx="2" ry="2" width="12" height="12"/><rect class="c cz" x="482" y="50" rx="2" ry="2" width="12" height="12"/><rect class="c" x="482" y="66" rx="2" ry="2" width="12" height="12"/><rect class="c" x="482" y="82" rx="2" ry="2" width="12" height="12"/><rect class="c" x="482" y="98" rx="2" ry="2" width="12" height="12"/><rect class="c" x="498" y="2" rx="2" ry="2" width="12" height="12"/><rect class="c" x="498" y="18" rx="2" ry="2" width="12" height="12"/><rect class="c" x="498" y="34" rx="2" ry="2" width="12" height="12"/><rect class="c" x="498" y="50" rx="2" ry="2" width="12" height="12"/><rect class="c" x="498" y="66" rx="2" ry="2" width="12" height="12"/><rect class="c" x="498" y="82" rx="2" ry="2" width="12" height="12"/><rect class="c" x="498" y="98" rx="2" ry="2" width="12" height="12"/><rect class="c" x="514" y="2" rx="2" ry="2" width="12" height="12"/><rect class="c" x="514" y="18" rx="2" ry="2" width="12" height="12"/><rect class="c" x="514" y="34" rx="2" ry="2" width="12" height="12"/><rect class="c" x="514" y="50" rx="2" ry="2" width="12" height="12"/><rect class="c" x="514" y="66" rx="2" ry="2" width="12" height="12"/><rect class="c" x="514" y="82" rx="2" ry="2" width="12" height="12"/><rect class="c" x="514" y="98" rx="2" ry="2" width="12" height="12"/><rect class="c" x="530" y="2" rx="2" ry="2" width="12" height="12"/><rect class="c" x="530" y="18" rx="2" ry="2" width="12" height="12"/><rect class="c" x="530" y="34" rx="2" ry="2" width="12" height="12"/><rect class="c" x="530" y="50" rx="2" ry="2" width="12" height="12"/><rect class="c" x="530" y="66" rx="2" ry="2" width="12" height="12"/><rect class="c" x="530" y="82" rx="2" ry="2" width="12" height="12"/><rect class="c" x="530" y="98" rx="2" ry="2" width="12" height="12"/><rect class="c" x="546" y="2" rx="2" ry="2" width="12" height="12"/><rect class="c" x="546" y="18" rx="2" ry="2" width="12" height="12"/><rect class="c" x="546" y="34" rx="2" ry="2" width="12" height="12"/><rect class="c" x="546" y="50" rx="2" ry="2" width="12" height="12"/><rect class="c" x="546" y="66" rx="2" ry="2" width="12" height="12"/><rect class="c" x="546" y="82" rx="2" ry="2" width="12" height="12"/><rect class="c" x="546" y="98" rx="2" ry="2" width="12" height="12"/><rect class="c" x="562" y="2" rx="2" ry="2" width="12" height="12"/><rect class="c" x="562" y="18" rx="2" ry="2" width="12" height="12"/><rect class="c" x="562" y="34" rx="2" ry="2" width="12" height="12"/><rect class="c" x="562" y="50" rx="2" ry="2" width="12" height="12"/><rect class="c" x="562" y="66" rx="2" ry="2" width="12" height="12"/><rect class="c" x="562" y="82" rx="2" ry="2" width="12" height="12"/><rect class="c" x="562" y="98" rx="2" ry="2" width="12" height="12"/><rect class="c" x="578" y="2" rx="2" ry="2" width="12" height="12"/><rect class="c" x="578" y="18" rx="2" ry="2" width="12" height="12"/><rect class="c" x="578" y="34" rx="2" ry="2" width="12" height="12"/><rect class="c" x="578" y="50" rx="2" ry="2" width="12" height="12"/><rect class="c" x="578" y="66" rx="2" ry="2" width="12" height="12"/><rect class="c" x="578" y="82" rx="2" ry="2" width="12" height="12"/><rect class="c" x="578" y="98" rx="2" ry="2" width="12" height="12"/><rect class="c" x="594" y="2" rx="2" ry="2" width="12" height="12"/><rect class="c" x="594" y="18" rx="2" ry="2" width="12" height="12"/><rect class="c" x="594" y="34" rx="2" ry="2" width="12" height="12"/><rect class="c" x="594" y="50" rx="2" ry="2" width="12" height="12"/><rect class="c" x="594" y="66" rx="2" ry="2" width="12" height="12"/><rect class="c" x="594" y="82" rx="2" ry="2" width="12" height="12"/><rect class="c" x="594" y="98" rx="2" ry="2" width="12" height="12"/><rect class="c" x="610" y="2" rx="2" ry="2" width="12" height="12"/><rect class="c c10" x="610" y="18" rx="2" ry="2" width="12" height="12"/><rect class="c c11" x="610" y="34" rx="2" ry="2" width="12" height="12"/><rect class="c" x="610" y="50" rx="2" ry="2" width="12" height="12"/><rect class="c" x="610" y="66" rx="2" ry="2" width="12" height="12"/><rect class="c" x="610" y="82" rx="2" ry="2" width="12" height="12"/><rect class="c" x="610" y="98" rx="2" ry="2" width="12" height="12"/><rect class="c" x="626" y="2" rx="2" ry="2" width="12" height="12"/><rect class="c" x="626" y="18" rx="2" ry="2" width="12" height="12"/><rect class="c" x="626" y="34" rx="2" ry="2" width="12" height="12"/><rect class="c" x="626" y="50" rx="2" ry="2" width="12" height="12"/><rect class="c" x="626" y="66" rx="2" ry="2" width="12" height="12"/><rect class="c" x="626" y="82" rx="2" ry="2" width="12" height="12"/><rect class="c" x="626" y="98" rx="2" ry="2" width="12" height="12"/><rect class="c" x="642" y="2" rx="2" ry="2" width="12" height="12"/><rect class="c" x="642" y="18" rx="2" ry="2" width="12" height="12"/><rect class="c" x="642" y="34" rx="2" ry="2" width="12" height="12"/><rect class="c" x="642" y="50" rx="2" ry="2" width="12" height="12"/><rect class="c" x="642" y="66" rx="2" ry="2" width="12" height="12"/><rect class="c" x="642" y="82" rx="2" ry="2" width="12" height="12"/><rect class="c" x="642" y="98" rx="2" ry="2" width="12" height="12"/><rect class="c" x="658" y="2" rx="2" ry="2" width="12" height="12"/><rect class="c" x="658" y="18" rx="2" ry="2" width="12" height="12"/><rect class="c" x="658" y="34" rx="2" ry="2" width="12" height="12"/><rect class="c" x="658" y="50" rx="2" ry="2" width="12" height="12"/><rect class="c" x="658" y="66" rx="2" ry="2" width="12" height="12"/><rect class="c" x="658" y="82" rx="2" ry="2" width="12" height="12"/><rect class="c" x="658" y="98" rx="2" ry="2" width="12" height="12"/><rect class="c" x="674" y="2" rx="2" ry="2" width="12" height="12"/><rect class="c" x="674" y="18" rx="2" ry="2" width="12" height="12"/><rect class="c" x="674" y="34" rx="2" ry="2" width="12" height="12"/><rect class="c" x="674" y="50" rx="2" ry="2" width="12" height="12"/><rect class="c" x="674" y="66" rx="2" ry="2" width="12" height="12"/><rect class="c" x="674" y="82" rx="2" ry="2" width="12" height="12"/><rect class="c" x="674" y="98" rx="2" ry="2" width="12" height="12"/><rect class="c" x="690" y="2" rx="2" ry="2" width="12" height="12"/><rect class="c" x="690" y="18" rx="2" ry="2" width="12" height="12"/><rect class="c" x="690" y="34" rx="2" ry="2" width="12" height="12"/><rect class="c" x="690" y="50" rx="2" ry="2" width="12" height="12"/><rect class="c" x="690" y="66" rx="2" ry="2" width="12" height="12"/><rect class="c" x="690" y="82" rx="2" ry="2" width="12" height="12"/><rect class="c" x="690" y="98" rx="2" ry="2" width="12" height="12"/><rect class="c" x="706" y="2" rx="2" ry="2" width="12" height="12"/><rect class="c" x="706" y="18" rx="2" ry="2" width="12" height="12"/><rect class="c" x="706" y="34" rx="2" ry="2" width="12" height="12"/><rect class="c" x="706" y="50" rx="2" ry="2" width="12" height="12"/><rect class="c" x="706" y="66" rx="2" ry="2" width="12" height="12"/><rect class="c" x="706" y="82" rx="2" ry="2" width="12" height="12"/><rect class="c" x="706" y="98" rx="2" ry="2" width="12" height="12"/><rect class="c" x="722" y="2" rx="2" ry="2" width="12" height="12"/><rect class="c" x="722" y="18" rx="2" ry="2" width="12" height="12"/><rect class="c" x="722" y="34" rx="2" ry="2" width="12" height="12"/><rect class="c" x="722" y="50" rx="2" ry="2" width="12" height="12"/><rect class="c" x="722" y="66" rx="2" ry="2" width="12" height="12"/><rect class="c" x="722" y="82" rx="2" ry="2" width="12" height="12"/><rect class="c" x="722" y="98" rx="2" ry="2" width="12" height="12"/><rect class="c" x="738" y="2" rx="2" ry="2" width="12" height="12"/><rect class="c" x="738" y="18" rx="2" ry="2" width="12" height="12"/><rect class="c" x="738" y="34" rx="2" ry="2" width="12" height="12"/><rect class="c" x="738" y="50" rx="2" ry="2" width="12" height="12"/><rect class="c" x="738" y="66" rx="2" ry="2" width="12" height="12"/><rect class="c" x="738" y="82" rx="2" ry="2" width="12" height="12"/><rect class="c" x="738" y="98" rx="2" ry="2" width="12" height="12"/><rect class="c" x="754" y="2" rx="2" ry="2" width="12" height="12"/><rect class="c" x="754" y="18" rx="2" ry="2" width="12" height="12"/><rect class="c" x="754" y="34" rx="2" ry="2" width="12" height="12"/><rect class="c" x="754" y="50" rx="2" ry="2" width="12" height="12"/><rect class="c" x="754" y="66" rx="2" ry="2" width="12" height="12"/><rect class="c" x="754" y="82" rx="2" ry="2" width="12" height="12"/><rect class="c" x="754" y="98" rx="2" ry="2" width="12" height="12"/><rect class="c" x="770" y="2" rx="2" ry="2" width="12" height="12"/><rect class="c" x="770" y="18" rx="2" ry="2" width="12" height="12"/><rect class="c" x="770" y="34" rx="2" ry="2" width="12" height="12"/><rect class="c" x="770" y="50" rx="2" ry="2" width="12" height="12"/><rect class="c" x="770" y="66" rx="2" ry="2" width="12" height="12"/><rect class="c" x="770" y="82" rx="2" ry="2" width="12" height="12"/><rect class="c" x="770" y="98" rx="2" ry="2" width="12" height="12"/><rect class="c" x="786" y="2" rx="2" ry="2" width="12" height="12"/><rect class="c" x="786" y="18" rx="2" ry="2" width="12" height="12"/><rect class="c" x="786" y="34" rx="2" ry="2" width="12" height="12"/><rect class="c" x="786" y="50" rx="2" ry="2" width="12" height="12"/><rect class="c" x="786" y="66" rx="2" ry="2" width="12" height="12"/><rect class="c" x="786" y="82" rx="2" ry="2" width="12" height="12"/><rect class="c" x="786" y="98" rx="2" ry="2" width="12" height="12"/><rect class="c" x="802" y="2" rx="2" ry="2" width="12" height="12"/><rect class="c" x="802" y="18" rx="2" ry="2" width="12" height="12"/><rect class="c" x="802" y="34" rx="2" ry="2" width="12" height="12"/><rect class="c" x="802" y="50" rx="2" ry="2" width="12" height="12"/><rect class="c c12" x="802" y="66" rx="2" ry="2" width="12" height="12"/><rect class="c" x="802" y="82" rx="2" ry="2" width="12" height="12"/><rect class="c" x="802" y="98" rx="2" ry="2" width="12" height="12"/><rect class="c" x="818" y="2" rx="2" ry="2" width="12" height="12"/><rect class="c" x="818" y="18" rx="2" ry="2" width="12" height="12"/><rect class="c" x="818" y="34" rx="2" ry="2" width="12" height="12"/><rect class="c" x="818" y="50" rx="2" ry="2" width="12" height="12"/><rect class="c c13" x="818" y="66" rx="2" ry="2" width="12" height="12"/><rect class="c" x="818" y="82" rx="2" ry="2" width="12" height="12"/><rect class="c" x="818" y="98" rx="2" ry="2" width="12" height="12"/><rect class="c" x="834" y="2" rx="2" ry="2" width="12" height="12"/><rect class="u u0" height="12" width="615.4" x="0.0" y="144"/><rect class="u u1" height="12" width="191.4" x="614.8" y="144"/><rect class="u u2" height="12" width="21.8" x="805.6" y="144"/><rect class="u u3" height="12" width="21.8" x="826.8" y="144"/><rect class="s s0" x="0.8" y="0.8" width="14.4" height="14.4" rx="4.5" ry="4.5"/><rect class="s s1" x="1.8" y="1.8" width="12.3" height="12.3" rx="4.1" ry="4.1"/><rect class="s s2" x="2.6" y="2.6" width="10.8" height="10.8" rx="3.6" ry="3.6"/><rect class="s s3" x="3.0" y="3.0" width="9.9" height="9.9" rx="3.3" ry="3.3"/></svg>