<svg viewBox="-16 -32 880 192" width="880" height="192" xmlns="http://www.w3.org/2000/svg"><desc>Generated with https://github.com/Platane/snk</desc><style>@keyframes c0{.89%{fill:var(--c1)}.91%,to{fill:var(--ce)}}@keyframes c1{4.47%{fill:var(--c1)}4.49%,to{fill:var(--ce)}}@keyframes c2{74.43%{fill:var(--c2)}74.45%,to{fill:var(--ce)}}@keyframes c3{2.68%{fill:var(--c1)}2.7%,to{fill:var(--ce)}}@keyframes c4{4.03%{fill:var(--c1)}4.05%,to{fill:var(--ce)}}@keyframes c5{5.37%{fill:var(--c1)}5.39%,to{fill:var(--ce)}}@keyframes c6{12.1%{fill:var(--c1)}12.12%,to{fill:var(--ce)}}@keyframes c7{3.13%{fill:var(--c1)}3.15%,to{fill:var(--ce)}}@keyframes c8{3.58%{fill:var(--c1)}3.6%,to{fill:var(--ce)}}@keyframes c9{5.82%{fill:var(--c1)}5.84%,to{fill:var(--ce)}}@keyframes ca{69.95%{fill:var(--c2)}69.97%,to{fill:var(--ce)}}@keyframes cb{70.39%{fill:var(--c2)}70.41%,to{fill:var(--ce)}}@keyframes cc{73.08%{fill:var(--c2)}73.1%,to{fill:var(--ce)}}@keyframes cd{7.61%{fill:var(--c1)}7.63%,to{fill:var(--ce)}}@keyframes ce{9.86%{fill:var(--c1)}9.88%,to{fill:var(--ce)}}@keyframes cf{17.48%{fill:var(--c1)}17.5%,to{fill:var(--ce)}}@keyframes cg{18.38%{fill:var(--c1)}18.4%,to{fill:var(--ce)}}@keyframes ch{18.82%{fill:var(--c1)}18.84%,to{fill:var(--ce)}}@keyframes ci{23.76%{fill:var(--c1)}23.78%,to{fill:var(--ce)}}@keyframes cj{20.62%{fill:var(--c1)}20.64%,to{fill:var(--ce)}}@keyframes ck{21.07%{fill:var(--c1)}21.09%,to{fill:var(--ce)}}@keyframes cl{63.22%{fill:var(--c2)}63.24%,to{fill:var(--ce)}}@keyframes cm{26.9%{fill:var(--c1)}26.92%,to{fill:var(--ce)}}@keyframes cn{88.78%{fill:var(--c4)}88.8%,to{fill:var(--ce)}}@keyframes co{21.96%{fill:var(--c1)}21.98%,to{fill:var(--ce)}}@keyframes cp{22.86%{fill:var(--c1)}22.88%,to{fill:var(--ce)}}@keyframes cq{50.21%{fill:var(--c1)}50.23%,to{fill:var(--ce)}}@keyframes cr{50.66%{fill:var(--c2)}50.68%,to{fill:var(--ce)}}@keyframes cs{29.59%{fill:var(--c1)}29.61%,to{fill:var(--ce)}}@keyframes ct{57.84%{fill:var(--c2)}57.86%,to{fill:var(--ce)}}@keyframes cu{85.19%{fill:var(--c3)}85.21%,to{fill:var(--ce)}}@keyframes cv{52.9%{fill:var(--c2)}52.92%,to{fill:var(--ce)}}@keyframes cw{31.83%{fill:var(--c1)}31.85%,to{fill:var(--ce)}}@keyframes cx{33.62%{fill:var(--c1)}33.64%,to{fill:var(--ce)}}@keyframes cy{32.28%{fill:var(--c1)}32.3%,to{fill:var(--ce)}}@keyframes cz{55.15%{fill:var(--c2)}55.17%,to{fill:var(--ce)}}@keyframes c10{35.86%{fill:var(--c1)}35.88%,to{fill:var(--ce)}}@keyframes c11{40.35%{fill:var(--c1)}40.37%,to{fill:var(--ce)}}@keyframes c12{39.9%{fill:var(--c1)}39.92%,to{fill:var(--ce)}}@keyframes u0{.89%{transform:scale(0,1)}.91%,2.68%{transform:scale(.04,1)}2.7%,3.13%{transform:scale(.07,1)}3.15%,3.58%{transform:scale(.11,1)}3.6%,4.03%{transform:scale(.14,1)}4.05%,4.47%{transform:scale(.18,1)}4.49%,5.37%{transform:scale(.21,1)}5.39%,5.82%{transform:scale(.25,1)}5.84%,7.61%{transform:scale(.29,1)}7.63%,9.86%{transform:scale(.32,1)}12.1%,9.88%{transform:scale(.36,1)}12.12%,17.48%{transform:scale(.39,1)}17.5%,18.38%{transform:scale(.43,1)}18.4%,18.82%{transform:scale(.46,1)}18.84%,20.62%{transform:scale(.5,1)}20.64%,21.07%{transform:scale(.54,1)}21.09%,21.96%{transform:scale(.57,1)}21.98%,22.86%{transform:scale(.61,1)}22.88%,23.76%{transform:scale(.64,1)}23.78%,26.9%{transform:scale(.68,1)}26.92%,29.59%{transform:scale(.71,1)}29.61%,31.83%{transform:scale(.75,1)}31.85%,32.28%{transform:scale(.79,1)}32.3%,33.62%{transform:scale(.82,1)}33.64%,35.86%{transform:scale(.86,1)}35.88%,39.9%{transform:scale(.89,1)}39.92%,40.35%{transform:scale(.93,1)}40.37%,50.21%{transform:scale(.96,1)}50.23%,to{transform:scale(1,1)}}@keyframes u1{50.66%{transform:scale(0,1)}50.68%,52.9%{transform:scale(.11,1)}52.92%,55.15%{transform:scale(.22,1)}55.17%,57.84%{transform:scale(.33,1)}57.86%,63.22%{transform:scale(.44,1)}63.24%,69.95%{transform:scale(.56,1)}69.97%,70.39%{transform:scale(.67,1)}70.41%,73.08%{transform:scale(.78,1)}73.1%,74.43%{transform:scale(.89,1)}74.45%,to{transform:scale(1,1)}}@keyframes u2{85.19%{transform:scale(0,1)}85.21%,to{transform:scale(1,1)}}@keyframes u3{88.78%{transform:scale(0,1)}88.8%,to{transform:scale(1,1)}}@keyframes s0{0%,99.55%{transform:translate(0,-16px)}.9%{transform:translate(0,16px)}2.24%,74.89%{transform:translate(48px,16px)}2.69%{transform:translate(48px,32px)}3.14%{transform:translate(64px,32px)}3.59%{transform:translate(64px,48px)}4.48%{transform:translate(32px,48px)}4.93%{transform:translate(32px,64px)}6.73%{transform:translate(96px,64px)}7.62%{transform:translate(96px,96px)}8.07%{transform:translate(112px,96px)}10.76%{transform:translate(112px,0)}12.11%{transform:translate(64px,0)}12.56%{transform:translate(64px,-16px)}17.04%{transform:translate(224px,-16px)}17.49%{transform:translate(224px,0)}17.94%{transform:translate(240px,0)}18.83%{transform:translate(240px,32px)}20.63%,26.01%{transform:translate(304px,32px)}21.52%,25.11%{transform:translate(304px,64px)}21.97%{transform:translate(320px,64px)}22.87%{transform:translate(320px,96px)}23.77%{transform:translate(288px,96px)}24.66%{transform:translate(288px,64px)}26.46%,88.34%{transform:translate(320px,32px)}26.91%{transform:translate(320px,16px)}29.15%{transform:translate(400px,16px)}30.04%{transform:translate(400px,-16px)}30.94%{transform:translate(432px,-16px)}31.84%,46.19%{transform:translate(432px,16px)}32.29%{transform:translate(448px,16px)}32.74%{transform:translate(448px,32px)}33.18%,46.64%{transform:translate(432px,32px)}33.63%{transform:translate(432px,48px)}39.46%{transform:translate(640px,48px)}40.36%{transform:translate(640px,16px)}48.43%{transform:translate(368px,32px)}50.22%{transform:translate(368px,96px)}51.57%{transform:translate(416px,96px)}52.91%{transform:translate(416px,48px)}54.71%{transform:translate(480px,48px)}56.05%{transform:translate(480px,0)}60.99%{transform:translate(304px,0)}63.23%{transform:translate(304px,80px)}69.96%{transform:translate(64px,80px)}70.4%{transform:translate(64px,96px)}70.85%{transform:translate(80px,96px)}73.54%,96.86%{transform:translate(80px,0)}74.44%{transform:translate(48px,0)}85.2%{transform:translate(416px,16px)}85.65%{transform:translate(416px,32px)}88.79%{transform:translate(320px,48px)}95.07%{transform:translate(96px,48px)}96.41%{transform:translate(96px,0)}97.31%{transform:translate(80px,-16px)}}@keyframes s1{0%,99.55%{transform:translate(16px,-16px)}.45%{transform:translate(0,-16px)}1.35%{transform:translate(0,16px)}2.69%,75.34%{transform:translate(48px,16px)}3.14%{transform:translate(48px,32px)}3.59%{transform:translate(64px,32px)}4.04%{transform:translate(64px,48px)}4.93%{transform:translate(32px,48px)}5.38%{transform:translate(32px,64px)}7.17%{transform:translate(96px,64px)}8.07%{transform:translate(96px,96px)}8.52%{transform:translate(112px,96px)}11.21%{transform:translate(112px,0)}12.56%{transform:translate(64px,0)}13%{transform:translate(64px,-16px)}17.49%{transform:translate(224px,-16px)}17.94%{transform:translate(224px,0)}18.39%{transform:translate(240px,0)}19.28%{transform:translate(240px,32px)}21.08%,26.46%{transform:translate(304px,32px)}21.97%,25.56%{transform:translate(304px,64px)}22.42%{transform:translate(320px,64px)}23.32%{transform:translate(320px,96px)}24.22%{transform:translate(288px,96px)}25.11%{transform:translate(288px,64px)}26.91%,88.79%{transform:translate(320px,32px)}27.35%{transform:translate(320px,16px)}29.6%{transform:translate(400px,16px)}30.49%{transform:translate(400px,-16px)}31.39%{transform:translate(432px,-16px)}32.29%,46.64%{transform:translate(432px,16px)}32.74%{transform:translate(448px,16px)}33.18%{transform:translate(448px,32px)}33.63%,47.09%{transform:translate(432px,32px)}34.08%{transform:translate(432px,48px)}39.91%{transform:translate(640px,48px)}40.81%{transform:translate(640px,16px)}48.88%{transform:translate(368px,32px)}50.67%{transform:translate(368px,96px)}52.02%{transform:translate(416px,96px)}53.36%{transform:translate(416px,48px)}55.16%{transform:translate(480px,48px)}56.5%{transform:translate(480px,0)}61.43%{transform:translate(304px,0)}63.68%{transform:translate(304px,80px)}70.4%{transform:translate(64px,80px)}70.85%{transform:translate(64px,96px)}71.3%{transform:translate(80px,96px)}73.99%,97.31%{transform:translate(80px,0)}74.89%{transform:translate(48px,0)}85.65%{transform:translate(416px,16px)}86.1%{transform:translate(416px,32px)}89.24%{transform:translate(320px,48px)}95.52%{transform:translate(96px,48px)}96.86%{transform:translate(96px,0)}97.76%{transform:translate(80px,-16px)}}@keyframes s2{0%,99.55%{transform:translate(32px,-16px)}.9%{transform:translate(0,-16px)}1.79%{transform:translate(0,16px)}3.14%,75.78%{transform:translate(48px,16px)}3.59%{transform:translate(48px,32px)}4.04%{transform:translate(64px,32px)}4.48%{transform:translate(64px,48px)}5.38%{transform:translate(32px,48px)}5.83%{transform:translate(32px,64px)}7.62%{transform:translate(96px,64px)}8.52%{transform:translate(96px,96px)}8.97%{transform:translate(112px,96px)}11.66%{transform:translate(112px,0)}13%{transform:translate(64px,0)}13.45%{transform:translate(64px,-16px)}17.94%{transform:translate(224px,-16px)}18.39%{transform:translate(224px,0)}18.83%{transform:translate(240px,0)}19.73%{transform:translate(240px,32px)}21.52%,26.91%{transform:translate(304px,32px)}22.42%,26.01%{transform:translate(304px,64px)}22.87%{transform:translate(320px,64px)}23.77%{transform:translate(320px,96px)}24.66%{transform:translate(288px,96px)}25.56%{transform:translate(288px,64px)}27.35%,89.24%{transform:translate(320px,32px)}27.8%{transform:translate(320px,16px)}30.04%{transform:translate(400px,16px)}30.94%{transform:translate(400px,-16px)}31.84%{transform:translate(432px,-16px)}32.74%,47.09%{transform:translate(432px,16px)}33.18%{transform:translate(448px,16px)}33.63%{transform:translate(448px,32px)}34.08%,47.53%{transform:translate(432px,32px)}34.53%{transform:translate(432px,48px)}40.36%{transform:translate(640px,48px)}41.26%{transform:translate(640px,16px)}49.33%{transform:translate(368px,32px)}51.12%{transform:translate(368px,96px)}52.47%{transform:translate(416px,96px)}53.81%{transform:translate(416px,48px)}55.61%{transform:translate(480px,48px)}56.95%{transform:translate(480px,0)}61.88%{transform:translate(304px,0)}64.13%{transform:translate(304px,80px)}70.85%{transform:translate(64px,80px)}71.3%{transform:translate(64px,96px)}71.75%{transform:translate(80px,96px)}74.44%,97.76%{transform:translate(80px,0)}75.34%{transform:translate(48px,0)}86.1%{transform:translate(416px,16px)}86.55%{transform:translate(416px,32px)}89.69%{transform:translate(320px,48px)}95.96%{transform:translate(96px,48px)}97.31%{transform:translate(96px,0)}98.21%{transform:translate(80px,-16px)}}@keyframes s3{0%,99.55%{transform:translate(48px,-16px)}1.35%{transform:translate(0,-16px)}2.24%{transform:translate(0,16px)}3.59%,76.23%{transform:translate(48px,16px)}4.04%{transform:translate(48px,32px)}4.48%{transform:translate(64px,32px)}4.93%{transform:translate(64px,48px)}5.83%{transform:translate(32px,48px)}6.28%{transform:translate(32px,64px)}8.07%{transform:translate(96px,64px)}8.97%{transform:translate(96px,96px)}9.42%{transform:translate(112px,96px)}12.11%{transform:translate(112px,0)}13.45%{transform:translate(64px,0)}13.9%{transform:translate(64px,-16px)}18.39%{transform:translate(224px,-16px)}18.83%{transform:translate(224px,0)}19.28%{transform:translate(240px,0)}20.18%{transform:translate(240px,32px)}21.97%,27.35%{transform:translate(304px,32px)}22.87%,26.46%{transform:translate(304px,64px)}23.32%{transform:translate(320px,64px)}24.22%{transform:translate(320px,96px)}25.11%{transform:translate(288px,96px)}26.01%{transform:translate(288px,64px)}27.8%,89.69%{transform:translate(320px,32px)}28.25%{transform:translate(320px,16px)}30.49%{transform:translate(400px,16px)}31.39%{transform:translate(400px,-16px)}32.29%{transform:translate(432px,-16px)}33.18%,47.53%{transform:translate(432px,16px)}33.63%{transform:translate(448px,16px)}34.08%{transform:translate(448px,32px)}34.53%,47.98%{transform:translate(432px,32px)}34.98%{transform:translate(432px,48px)}40.81%{transform:translate(640px,48px)}41.7%{transform:translate(640px,16px)}49.78%{transform:translate(368px,32px)}51.57%{transform:translate(368px,96px)}52.91%{transform:translate(416px,96px)}54.26%{transform:translate(416px,48px)}56.05%{transform:translate(480px,48px)}57.4%{transform:translate(480px,0)}62.33%{transform:translate(304px,0)}64.57%{transform:translate(304px,80px)}71.3%{transform:translate(64px,80px)}71.75%{transform:translate(64px,96px)}72.2%{transform:translate(80px,96px)}74.89%,98.21%{transform:translate(80px,0)}75.78%{transform:translate(48px,0)}86.55%{transform:translate(416px,16px)}87%{transform:translate(416px,32px)}90.13%{transform:translate(320px,48px)}96.41%{transform:translate(96px,48px)}97.76%{transform:translate(96px,0)}98.65%{transform:translate(80px,-16px)}}:root{--cb:#1b1f230a;--cs:purple;--ce:#ebedf0;--c0:#ebedf0;--c1:#9be9a8;--c2:#40c463;--c3:#30a14e;--c4:#216e39}@media (prefers-color-scheme:dark){:root{--cb:#1b1f230a;--cs:purple;--ce:#161b22;--c1:#01311f;--c2:#034525;--c3:#0f6d31;--c4:#00c647}}.c{shape-rendering:geometricPrecision;fill:var(--ce);stroke-width:1px;stroke:var(--cb);animation:none 22300ms linear infinite}.c.c0,.c.c1{fill:var(--c1);animation-name:c0}.c.c1{animation-name:c1}.c.c2{fill:var(--c2);animation-name:c2}.c.c3{fill:var(--c1);animation-name:c3}.c.c4,.c.c5,.c.c6{fill:var(--c1);animation-name:c4}.c.c5,.c.c6{animation-name:c5}.c.c6{animation-name:c6}.c.c7,.c.c8,.c.c9{fill:var(--c1);animation-name:c7}.c.c8,.c.c9{animation-name:c8}.c.c9{animation-name:c9}.c.ca,.c.cb,.c.cc{fill:var(--c2);animation-name:ca}.c.cb,.c.cc{animation-name:cb}.c.cc{animation-name:cc}.c.cd,.c.ce{fill:var(--c1);animation-name:cd}.c.ce{animation-name:ce}.c.cf,.c.cg,.c.ch{fill:var(--c1);animation-name:cf}.c.cg,.c.ch{animation-name:cg}.c.ch{animation-name:ch}.c.ci,.c.cj,.c.ck{fill:var(--c1);animation-name:ci}.c.cj,.c.ck{animation-name:cj}.c.ck{animation-name:ck}.c.cl{fill:var(--c2);animation-name:cl}.c.cm{fill:var(--c1);animation-name:cm}.c.cn{fill:var(--c4);animation-name:cn}.c.co,.c.cp,.c.cq{fill:var(--c1);animation-name:co}.c.cp,.c.cq{animation-name:cp}.c.cq{animation-name:cq}.c.cr{fill:var(--c2);animation-name:cr}.c.cs{fill:var(--c1);animation-name:cs}.c.ct{fill:var(--c2);animation-name:ct}.c.cu{fill:var(--c3);animation-name:cu}.c.cv{fill:var(--c2);animation-name:cv}.c.cw,.c.cx,.c.cy{fill:var(--c1);animation-name:cw}.c.cx,.c.cy{animation-name:cx}.c.cy{animation-name:cy}.c.cz{fill:var(--c2);animation-name:cz}.c.c10,.c.c11,.c.c12{fill:var(--c1);animation-name:c10}.c.c11,.c.c12{animation-name:c11}.c.c12{animation-name:c12}.s,.u{animation:none linear 22300ms infinite}.u,.u.u0{transform-origin:0 0}.u{transform:scale(0,1)}.u.u0{fill:var(--c1);animation-name:u0}.u.u1{fill:var(--c2);animation-name:u1;transform-origin:608.8px 0}.u.u2{fill:var(--c3);animation-name:u2;transform-origin:804.5px 0}.u.u3{fill:var(--c4);animation-name:u3;transform-origin:826.3px 0}.s{shape-rendering:geometricPrecision;fill:var(--cs)}.s.s0{transform:translate(0,-16px);animation-name:s0}.s.s1{transform:translate(16px,-16px);animation-name:s1}.s.s2{transform:translate(32px,-16px);animation-name:s2}.s.s3{transform:translate(48px,-16px);animation-name:s3}</style><rect class="c" x="2" y="2" rx="2" ry="2" width="12" height="12"/><rect class="c c0" x="2" y="18" rx="2" ry="2" width="12" height="12"/><rect class="c" x="2" y="34" rx="2" ry="2" width="12" height="12"/><rect class="c" x="2" y="50" rx="2" ry="2" width="12" height="12"/><rect class="c" x="2" y="66" rx="2" ry="2" width="12" height="12"/><rect class="c" x="2" y="82" rx="2" ry="2" width="12" height="12"/><rect class="c" x="2" y="98" rx="2" ry="2" width="12" height="12"/><rect class="c" x="18" y="2" rx="2" ry="2" width="12" height="12"/><rect class="c" x="18" y="18" rx="2" ry="2" width="12" height="12"/><rect class="c" x="18" y="34" rx="2" ry="2" width="12" height="12"/><rect class="c" x="18" y="50" rx="2" ry="2" width="12" height="12"/><rect class="c" x="18" y="66" rx="2" ry="2" width="12" height="12"/><rect class="c" x="18" y="82" rx="2" ry="2" width="12" height="12"/><rect class="c" x="18" y="98" rx="2" ry="2" width="12" height="12"/><rect class="c" x="34" y="2" rx="2" ry="2" width="12" height="12"/><rect class="c" x="34" y="18" rx="2" ry="2" width="12" height="12"/><rect class="c" x="34" y="34" rx="2" ry="2" width="12" height="12"/><rect class="c c1" x="34" y="50" rx="2" ry="2" width="12" height="12"/><rect class="c" x="34" y="66" rx="2" ry="2" width="12" height="12"/><rect class="c" x="34" y="82" rx="2" ry="2" width="12" height="12"/><rect class="c" x="34" y="98" rx="2" ry="2" width="12" height="12"/><rect class="c c2" x="50" y="2" rx="2" ry="2" width="12" height="12"/><rect class="c" x="50" y="18" rx="2" ry="2" width="12" height="12"/><rect class="c c3" x="50" y="34" rx="2" ry="2" width="12" height="12"/><rect class="c c4" x="50" y="50" rx="2" ry="2" width="12" height="12"/><rect class="c c5" x="50" y="66" rx="2" ry="2" width="12" height="12"/><rect class="c" x="50" y="82" rx="2" ry="2" width="12" height="12"/><rect class="c" x="50" y="98" rx="2" ry="2" width="12" height="12"/><rect class="c c6" x="66" y="2" rx="2" ry="2" width="12" height="12"/><rect class="c" x="66" y="18" rx="2" ry="2" width="12" height="12"/><rect class="c c7" x="66" y="34" rx="2" ry="2" width="12" height="12"/><rect class="c c8" x="66" y="50" rx="2" ry="2" width="12" height="12"/><rect class="c c9" x="66" y="66" rx="2" ry="2" width="12" height="12"/><rect class="c ca" x="66" y="82" rx="2" ry="2" width="12" height="12"/><rect class="c cb" x="66" y="98" rx="2" ry="2" width="12" height="12"/><rect class="c" x="82" y="2" rx="2" ry="2" width="12" height="12"/><rect class="c cc" x="82" y="18" rx="2" ry="2" width="12" height="12"/><rect class="c" x="82" y="34" rx="2" ry="2" width="12" height="12"/><rect class="c" x="82" y="50" rx="2" ry="2" width="12" height="12"/><rect class="c" x="82" y="66" rx="2" ry="2" width="12" height="12"/><rect class="c" x="82" y="82" rx="2" ry="2" width="12" height="12"/><rect class="c" x="82" y="98" rx="2" ry="2" width="12" height="12"/><rect class="c" x="98" y="2" rx="2" ry="2" width="12" height="12"/><rect class="c" x="98" y="18" rx="2" ry="2" width="12" height="12"/><rect class="c" x="98" y="34" rx="2" ry="2" width="12" height="12"/><rect class="c" x="98" y="50" rx="2" ry="2" width="12" height="12"/><rect class="c" x="98" y="66" rx="2" ry="2" width="12" height="12"/><rect class="c" x="98" y="82" rx="2" ry="2" width="12" height="12"/><rect class="c cd" x="98" y="98" rx="2" ry="2" width="12" height="12"/><rect class="c" x="114" y="2" rx="2" ry="2" width="12" height="12"/><rect class="c" x="114" y="18" rx="2" ry="2" width="12" height="12"/><rect class="c ce" x="114" y="34" rx="2" ry="2" width="12" height="12"/><rect class="c" x="114" y="50" rx="2" ry="2" width="12" height="12"/><rect class="c" x="114" y="66" rx="2" ry="2" width="12" height="12"/><rect class="c" x="114" y="82" rx="2" ry="2" width="12" height="12"/><rect class="c" x="114" y="98" rx="2" ry="2" width="12" height="12"/><rect class="c" x="130" y="2" rx="2" ry="2" width="12" height="12"/><rect class="c" x="130" y="18" rx="2" ry="2" width="12" height="12"/><rect class="c" x="130" y="34" rx="2" ry="2" width="12" height="12"/><rect class="c" x="130" y="50" rx="2" ry="2" width="12" height="12"/><rect class="c" x="130" y="66" rx="2" ry="2" width="12" height="12"/><rect class="c" x="130" y="82" rx="2" ry="2" width="12" height="12"/><rect class="c" x="130" y="98" rx="2" ry="2" width="12" height="12"/><rect class="c" x="146" y="2" rx="2" ry="2" width="12" height="12"/><rect class="c" x="146" y="18" rx="2" ry="2" width="12" height="12"/><rect class="c" x="146" y="34" rx="2" ry="2" width="12" height="12"/><rect class="c" x="146" y="50" rx="2" ry="2" width="12" height="12"/><rect class="c" x="146" y="66" rx="2" ry="2" width="12" height="12"/><rect class="c" x="146" y="82" rx="2" ry="2" width="12" height="12"/><rect class="c" x="146" y="98" rx="2" ry="2" width="12" height="12"/><rect class="c" x="162" y="2" rx="2" ry="2" width="12" height="12"/><rect class="c" x="162" y="18" rx="2" ry="2" width="12" height="12"/><rect class="c" x="162" y="34" rx="2" ry="2" width="12" height="12"/><rect class="c" x="162" y="50" rx="2" ry="2" width="12" height="12"/><rect class="c" x="162" y="66" rx="2" ry="2" width="12" height="12"/><rect class="c" x="162" y="82" rx="2" ry="2" width="12" height="12"/><rect class="c" x="162" y="98" rx="2" ry="2" width="12" height="12"/><rect class="c" x="178" y="2" rx="2" ry="2" width="12" height="12"/><rect class="c" x="178" y="18" rx="2" ry="2" width="12" height="12"/><rect class="c" x="178" y="34" rx="2" ry="2" width="12" height="12"/><rect class="c" x="178" y="50" rx="2" ry="2" width="12" height="12"/><rect class="c" x="178" y="66" rx="2" ry="2" width="12" height="12"/><rect class="c" x="178" y="82" rx="2" ry="2" width="12" height="12"/><rect class="c" x="178" y="98" rx="2" ry="2" width="12" height="12"/><rect class="c" x="194" y="2" rx="2" ry="2" width="12" height="12"/><rect class="c" x="194" y="18" rx="2" ry="2" width="12" height="12"/><rect class="c" x="194" y="34" rx="2" ry="2" width="12" height="12"/><rect class="c" x="194" y="50" rx="2" ry="2" width="12" height="12"/><rect class="c" x="194" y="66" rx="2" ry="2" width="12" height="12"/><rect class="c" x="194" y="82" rx="2" ry="2" width="12" height="12"/><rect class="c" x="194" y="98" rx="2" ry="2" width="12" height="12"/><rect class="c" x="210" y="2" rx="2" ry="2" width="12" height="12"/><rect class="c" x="210" y="18" rx="2" ry="2" width="12" height="12"/><rect class="c" x="210" y="34" rx="2" ry="2" width="12" height="12"/><rect class="c" x="210" y="50" rx="2" ry="2" width="12" height="12"/><rect class="c" x="210" y="66" rx="2" ry="2" width="12" height="12"/><rect class="c" x="210" y="82" rx="2" ry="2" width="12" height="12"/><rect class="c" x="210" y="98" rx="2" ry="2" width="12" height="12"/><rect class="c cf" x="226" y="2" rx="2" ry="2" width="12" height="12"/><rect class="c" x="226" y="18" rx="2" ry="2" width="12" height="12"/><rect class="c" x="226" y="34" rx="2" ry="2" width="12" height="12"/><rect class="c" x="226" y="50" rx="2" ry="2" width="12" height="12"/><rect class="c" x="226" y="66" rx="2" ry="2" width="12" height="12"/><rect class="c" x="226" y="82" rx="2" ry="2" width="12" height="12"/><rect class="c" x="226" y="98" rx="2" ry="2" width="12" height="12"/><rect class="c" x="242" y="2" rx="2" ry="2" width="12" height="12"/><rect class="c cg" x="242" y="18" rx="2" ry="2" width="12" height="12"/><rect class="c ch" x="242" y="34" rx="2" ry="2" width="12" height="12"/><rect class="c" x="242" y="50" rx="2" ry="2" width="12" height="12"/><rect class="c" x="242" y="66" rx="2" ry="2" width="12" height="12"/><rect class="c" x="242" y="82" rx="2" ry="2" width="12" height="12"/><rect class="c" x="242" y="98" rx="2" ry="2" width="12" height="12"/><rect class="c" x="258" y="2" rx="2" ry="2" width="12" height="12"/><rect class="c" x="258" y="18" rx="2" ry="2" width="12" height="12"/><rect class="c" x="258" y="34" rx="2" ry="2" width="12" height="12"/><rect class="c" x="258" y="50" rx="2" ry="2" width="12" height="12"/><rect class="c" x="258" y="66" rx="2" ry="2" width="12" height="12"/><rect class="c" x="258" y="82" rx="2" ry="2" width="12" height="12"/><rect class="c" x="258" y="98" rx="2" ry="2" width="12" height="12"/><rect class="c" x="274" y="2" rx="2" ry="2" width="12" height="12"/><rect class="c" x="274" y="18" rx="2" ry="2" width="12" height="12"/><rect class="c" x="274" y="34" rx="2" ry="2" width="12" height="12"/><rect class="c" x="274" y="50" rx="2" ry="2" width="12" height="12"/><rect class="c" x="274" y="66" rx="2" ry="2" width="12" height="12"/><rect class="c" x="274" y="82" rx="2" ry="2" width="12" height="12"/><rect class="c" x="274" y="98" rx="2" ry="2" width="12" height="12"/><rect class="c" x="290" y="2" rx="2" ry="2" width="12" height="12"/><rect class="c" x="290" y="18" rx="2" ry="2" width="12" height="12"/><rect class="c" x="290" y="34" rx="2" ry="2" width="12" height="12"/><rect class="c" x="290" y="50" rx="2" ry="2" width="12" height="12"/><rect class="c" x="290" y="66" rx="2" ry="2" width="12" height="12"/><rect class="c" x="290" y="82" rx="2" ry="2" width="12" height="12"/><rect class="c ci" x="290" y="98" rx="2" ry="2" width="12" height="12"/><rect class="c" x="306" y="2" rx="2" ry="2" width="12" height="12"/><rect class="c" x="306" y="18" rx="2" ry="2" width="12" height="12"/><rect class="c cj" x="306" y="34" rx="2" ry="2" width="12" height="12"/><rect class="c ck" x="306" y="50" rx="2" ry="2" width="12" height="12"/><rect class="c" x="306" y="66" rx="2" ry="2" width="12" height="12"/><rect class="c cl" x="306" y="82" rx="2" ry="2" width="12" height="12"/><rect class="c" x="306" y="98" rx="2" ry="2" width="12" height="12"/><rect class="c" x="322" y="2" rx="2" ry="2" width="12" height="12"/><rect class="c cm" x="322" y="18" rx="2" ry="2" width="12" height="12"/><rect class="c" x="322" y="34" rx="2" ry="2" width="12" height="12"/><rect class="c cn" x="322" y="50" rx="2" ry="2" width="12" height="12"/><rect class="c co" x="322" y="66" rx="2" ry="2" width="12" height="12"/><rect class="c" x="322" y="82" rx="2" ry="2" width="12" height="12"/><rect class="c cp" x="322" y="98" rx="2" ry="2" width="12" height="12"/><rect class="c" x="338" y="2" rx="2" ry="2" width="12" height="12"/><rect class="c" x="338" y="18" rx="2" ry="2" width="12" height="12"/><rect class="c" x="338" y="34" rx="2" ry="2" width="12" height="12"/><rect class="c" x="338" y="50" rx="2" ry="2" width="12" height="12"/><rect class="c" x="338" y="66" rx="2" ry="2" width="12" height="12"/><rect class="c" x="338" y="82" rx="2" ry="2" width="12" height="12"/><rect class="c" x="338" y="98" rx="2" ry="2" width="12" height="12"/><rect class="c" x="354" y="2" rx="2" ry="2" width="12" height="12"/><rect class="c" x="354" y="18" rx="2" ry="2" width="12" height="12"/><rect class="c" x="354" y="34" rx="2" ry="2" width="12" height="12"/><rect class="c" x="354" y="50" rx="2" ry="2" width="12" height="12"/><rect class="c" x="354" y="66" rx="2" ry="2" width="12" height="12"/><rect class="c" x="354" y="82" rx="2" ry="2" width="12" height="12"/><rect class="c" x="354" y="98" rx="2" ry="2" width="12" height="12"/><rect class="c" x="370" y="2" rx="2" ry="2" width="12" height="12"/><rect class="c" x="370" y="18" rx="2" ry="2" width="12" height="12"/><rect class="c" x="370" y="34" rx="2" ry="2" width="12" height="12"/><rect class="c" x="370" y="50" rx="2" ry="2" width="12" height="12"/><rect class="c" x="370" y="66" rx="2" ry="2" width="12" height="12"/><rect class="c" x="370" y="82" rx="2" ry="2" width="12" height="12"/><rect class="c cq" x="370" y="98" rx="2" ry="2" width="12" height="12"/><rect class="c" x="386" y="2" rx="2" ry="2" width="12" height="12"/><rect class="c" x="386" y="18" rx="2" ry="2" width="12" height="12"/><rect class="c" x="386" y="34" rx="2" ry="2" width="12" height="12"/><rect class="c" x="386" y="50" rx="2" ry="2" width="12" height="12"/><rect class="c" x="386" y="66" rx="2" ry="2" width="12" height="12"/><rect class="c" x="386" y="82" rx="2" ry="2" width="12" height="12"/><rect class="c cr" x="386" y="98" rx="2" ry="2" width="12" height="12"/><rect class="c cs" x="402" y="2" rx="2" ry="2" width="12" height="12"/><rect class="c" x="402" y="18" rx="2" ry="2" width="12" height="12"/><rect class="c" x="402" y="34" rx="2" ry="2" width="12" height="12"/><rect class="c" x="402" y="50" rx="2" ry="2" width="12" height="12"/><rect class="c" x="402" y="66" rx="2" ry="2" width="12" height="12"/><rect class="c" x="402" y="82" rx="2" ry="2" width="12" height="12"/><rect class="c" x="402" y="98" rx="2" ry="2" width="12" height="12"/><rect class="c ct" x="418" y="2" rx="2" ry="2" width="12" height="12"/><rect class="c cu" x="418" y="18" rx="2" ry="2" width="12" height="12"/><rect class="c" x="418" y="34" rx="2" ry="2" width="12" height="12"/><rect class="c cv" x="418" y="50" rx="2" ry="2" width="12" height="12"/><rect class="c" x="418" y="66" rx="2" ry="2" width="12" height="12"/><rect class="c" x="418" y="82" rx="2" ry="2" width="12" height="12"/><rect class="c" x="418" y="98" rx="2" ry="2" width="12" height="12"/><rect class="c" x="434" y="2" rx="2" ry="2" width="12" height="12"/><rect class="c cw" x="434" y="18" rx="2" ry="2" width="12" height="12"/><rect class="c" x="434" y="34" rx="2" ry="2" width="12" height="12"/><rect class="c cx" x="434" y="50" rx="2" ry="2" width="12" height="12"/><rect class="c" x="434" y="66" rx="2" ry="2" width="12" height="12"/><rect class="c" x="434" y="82" rx="2" ry="2" width="12" height="12"/><rect class="c" x="434" y="98" rx="2" ry="2" width="12" height="12"/><rect class="c" x="450" y="2" rx="2" ry="2" width="12" height="12"/><rect class="c cy" x="450" y="18" rx="2" ry="2" width="12" height="12"/><rect class="c" x="450" y="34" rx="2" ry="2" width="12" height="12"/><rect class="c" x="450" y="50" rx="2" ry="2" width="12" height="12"/><rect class="c" x="450" y="66" rx="2" ry="2" width="12" height="12"/><rect class="c" x="450" y="82" rx="2" ry="2" width="12" height="12"/><rect class="c" x="450" y="98" rx="2" ry="2" width="12" height="12"/><rect class="c" x="466" y="2" rx="2" ry="2" width="12" height="12"/><rect class="c" x="466" y="18" rx="2" ry="2" width="12" height="12"/><rect class="c" x="466" y="34" rx="2" ry="2" width="12" height="12"/><rect class="c" x="466" y="50" rx="2" ry="2" width="12" height="12"/><rect class="c" x="466" y="66" rx="2" ry="2" width="12" height="12"/><rect class="c" x="466" y="82" rx="2" ry="2" width="12" height="12"/><rect class="c" x="466" y="98" rx="2" ry="2" width="12" height="12"/><rect class="c" x="482" y="2" rx="2" ry="2" width="12" height="12"/><rect class="c" x="482" y="18" rx="2" ry="2" width="12" height="12"/><rect class="c cz" x="482" y="34" rx="2" ry="2" width="12" height="12"/><rect class="c" x="482" y="50" rx="2" ry="2" width="12" height="12"/><rect class="c" x="482" y="66" rx="2" ry="2" width="12" height="12"/><rect class="c" x="482" y="82" rx="2" ry="2" width="12" height="12"/><rect class="c" x="482" y="98" rx="2" ry="2" width="12" height="12"/><rect class="c" x="498" y="2" rx="2" ry="2" width="12" height="12"/><rect class="c" x="498" y="18" rx="2" ry="2" width="12" height="12"/><rect class="c" x="498" y="34" rx="2" ry="2" width="12" height="12"/><rect class="c" x="498" y="50" rx="2" ry="2" width="12" height="12"/><rect class="c" x="498" y="66" rx="2" ry="2" width="12" height="12"/><rect class="c" x="498" y="82" rx="2" ry="2" width="12" height="12"/><rect class="c" x="498" y="98" rx="2" ry="2" width="12" height="12"/><rect class="c" x="514" y="2" rx="2" ry="2" width="12" height="12"/><rect class="c" x="514" y="18" rx="2" ry="2" width="12" height="12"/><rect class="c" x="514" y="34" rx="2" ry="2" width="12" height="12"/><rect class="c c10" x="514" y="50" rx="2" ry="2" width="12" height="12"/><rect class="c" x="514" y="66" rx="2" ry="2" width="12" height="12"/><rect class="c" x="514" y="82" rx="2" ry="2" width="12" height="12"/><rect class="c" x="514" y="98" rx="2" ry="2" width="12" height="12"/><rect class="c" x="530" y="2" rx="2" ry="2" width="12" height="12"/><rect class="c" x="530" y="18" rx="2" ry="2" width="12" height="12"/><rect class="c" x="530" y="34" rx="2" ry="2" width="12" height="12"/><rect class="c" x="530" y="50" rx="2" ry="2" width="12" height="12"/><rect class="c" x="530" y="66" rx="2" ry="2" width="12" height="12"/><rect class="c" x="530" y="82" rx="2" ry="2" width="12" height="12"/><rect class="c" x="530" y="98" rx="2" ry="2" width="12" height="12"/><rect class="c" x="546" y="2" rx="2" ry="2" width="12" height="12"/><rect class="c" x="546" y="18" rx="2" ry="2" width="12" height="12"/><rect class="c" x="546" y="34" rx="2" ry="2" width="12" height="12"/><rect class="c" x="546" y="50" rx="2" ry="2" width="12" height="12"/><rect class="c" x="546" y="66" rx="2" ry="2" width="12" height="12"/><rect class="c" x="546" y="82" rx="2" ry="2" width="12" height="12"/><rect class="c" x="546" y="98" rx="2" ry="2" width="12" height="12"/><rect class="c" x="562" y="2" rx="2" ry="2" width="12" height="12"/><rect class="c" x="562" y="18" rx="2" ry="2" width="12" height="12"/><rect class="c" x="562" y="34" rx="2" ry="2" width="12" height="12"/><rect class="c" x="562" y="50" rx="2" ry="2" width="12" height="12"/><rect class="c" x="562" y="66" rx="2" ry="2" width="12" height="12"/><rect class="c" x="562" y="82" rx="2" ry="2" width="12" height="12"/><rect class="c" x="562" y="98" rx="2" ry="2" width="12" height="12"/><rect class="c" x="578" y="2" rx="2" ry="2" width="12" height="12"/><rect class="c" x="578" y="18" rx="2" ry="2" width="12" height="12"/><rect class="c" x="578" y="34" rx="2" ry="2" width="12" height="12"/><rect class="c" x="578" y="50" rx="2" ry="2" width="12" height="12"/><rect class="c" x="578" y="66" rx="2" ry="2" width="12" height="12"/><rect class="c" x="578" y="82" rx="2" ry="2" width="12" height="12"/><rect class="c" x="578" y="98" rx="2" ry="2" width="12" height="12"/><rect class="c" x="594" y="2" rx="2" ry="2" width="12" height="12"/><rect class="c" x="594" y="18" rx="2" ry="2" width="12" height="12"/><rect class="c" x="594" y="34" rx="2" ry="2" width="12" height="12"/><rect class="c" x="594" y="50" rx="2" ry="2" width="12" height="12"/><rect class="c" x="594" y="66" rx="2" ry="2" width="12" height="12"/><rect class="c" x="594" y="82" rx="2" ry="2" width="12" height="12"/><rect class="c" x="594" y="98" rx="2" ry="2" width="12" height="12"/><rect class="c" x="610" y="2" rx="2" ry="2" width="12" height="12"/><rect class="c" x="610" y="18" rx="2" ry="2" width="12" height="12"/><rect class="c" x="610" y="34" rx="2" ry="2" width="12" height="12"/><rect class="c" x="610" y="50" rx="2" ry="2" width="12" height="12"/><rect class="c" x="610" y="66" rx="2" ry="2" width="12" height="12"/><rect class="c" x="610" y="82" rx="2" ry="2" width="12" height="12"/><rect class="c" x="610" y="98" rx="2" ry="2" width="12" height="12"/><rect class="c" x="626" y="2" rx="2" ry="2" width="12" height="12"/><rect class="c" x="626" y="18" rx="2" ry="2" width="12" height="12"/><rect class="c" x="626" y="34" rx="2" ry="2" width="12" height="12"/><rect class="c" x="626" y="50" rx="2" ry="2" width="12" height="12"/><rect class="c" x="626" y="66" rx="2" ry="2" width="12" height="12"/><rect class="c" x="626" y="82" rx="2" ry="2" width="12" height="12"/><rect class="c" x="626" y="98" rx="2" ry="2" width="12" height="12"/><rect class="c" x="642" y="2" rx="2" ry="2" width="12" height="12"/><rect class="c c11" x="642" y="18" rx="2" ry="2" width="12" height="12"/><rect class="c c12" x="642" y="34" rx="2" ry="2" width="12" height="12"/><rect class="c" x="642" y="50" rx="2" ry="2" width="12" height="12"/><rect class="c" x="642" y="66" rx="2" ry="2" width="12" height="12"/><rect class="c" x="642" y="82" rx="2" ry="2" width="12" height="12"/><rect class="c" x="642" y="98" rx="2" ry="2" width="12" height="12"/><rect class="c" x="658" y="2" rx="2" ry="2" width="12" height="12"/><rect class="c" x="658" y="18" rx="2" ry="2" width="12" height="12"/><rect class="c" x="658" y="34" rx="2" ry="2" width="12" height="12"/><rect class="c" x="658" y="50" rx="2" ry="2" width="12" height="12"/><rect class="c" x="658" y="66" rx="2" ry="2" width="12" height="12"/><rect class="c" x="658" y="82" rx="2" ry="2" width="12" height="12"/><rect class="c" x="658" y="98" rx="2" ry="2" width="12" height="12"/><rect class="c" x="674" y="2" rx="2" ry="2" width="12" height="12"/><rect class="c" x="674" y="18" rx="2" ry="2" width="12" height="12"/><rect class="c" x="674" y="34" rx="2" ry="2" width="12" height="12"/><rect class="c" x="674" y="50" rx="2" ry="2" width="12" height="12"/><rect class="c" x="674" y="66" rx="2" ry="2" width="12" height="12"/><rect class="c" x="674" y="82" rx="2" ry="2" width="12" height="12"/><rect class="c" x="674" y="98" rx="2" ry="2" width="12" height="12"/><rect class="c" x="690" y="2" rx="2" ry="2" width="12" height="12"/><rect class="c" x="690" y="18" rx="2" ry="2" width="12" height="12"/><rect class="c" x="690" y="34" rx="2" ry="2" width="12" height="12"/><rect class="c" x="690" y="50" rx="2" ry="2" width="12" height="12"/><rect class="c" x="690" y="66" rx="2" ry="2" width="12" height="12"/><rect class="c" x="690" y="82" rx="2" ry="2" width="12" height="12"/><rect class="c" x="690" y="98" rx="2" ry="2" width="12" height="12"/><rect class="c" x="706" y="2" rx="2" ry="2" width="12" height="12"/><rect class="c" x="706" y="18" rx="2" ry="2" width="12" height="12"/><rect class="c" x="706" y="34" rx="2" ry="2" width="12" height="12"/><rect class="c" x="706" y="50" rx="2" ry="2" width="12" height="12"/><rect class="c" x="706" y="66" rx="2" ry="2" width="12" height="12"/><rect class="c" x="706" y="82" rx="2" ry="2" width="12" height="12"/><rect class="c" x="706" y="98" rx="2" ry="2" width="12" height="12"/><rect class="c" x="722" y="2" rx="2" ry="2" width="12" height="12"/><rect class="c" x="722" y="18" rx="2" ry="2" width="12" height="12"/><rect class="c" x="722" y="34" rx="2" ry="2" width="12" height="12"/><rect class="c" x="722" y="50" rx="2" ry="2" width="12" height="12"/><rect class="c" x="722" y="66" rx="2" ry="2" width="12" height="12"/><rect class="c" x="722" y="82" rx="2" ry="2" width="12" height="12"/><rect class="c" x="722" y="98" rx="2" ry="2" width="12" height="12"/><rect class="c" x="738" y="2" rx="2" ry="2" width="12" height="12"/><rect class="c" x="738" y="18" rx="2" ry="2" width="12" height="12"/><rect class="c" x="738" y="34" rx="2" ry="2" width="12" height="12"/><rect class="c" x="738" y="50" rx="2" ry="2" width="12" height="12"/><rect class="c" x="738" y="66" rx="2" ry="2" width="12" height="12"/><rect class="c" x="738" y="82" rx="2" ry="2" width="12" height="12"/><rect class="c" x="738" y="98" rx="2" ry="2" width="12" height="12"/><rect class="c" x="754" y="2" rx="2" ry="2" width="12" height="12"/><rect class="c" x="754" y="18" rx="2" ry="2" width="12" height="12"/><rect class="c" x="754" y="34" rx="2" ry="2" width="12" height="12"/><rect class="c" x="754" y="50" rx="2" ry="2" width="12" height="12"/><rect class="c" x="754" y="66" rx="2" ry="2" width="12" height="12"/><rect class="c" x="754" y="82" rx="2" ry="2" width="12" height="12"/><rect class="c" x="754" y="98" rx="2" ry="2" width="12" height="12"/><rect class="c" x="770" y="2" rx="2" ry="2" width="12" height="12"/><rect class="c" x="770" y="18" rx="2" ry="2" width="12" height="12"/><rect class="c" x="770" y="34" rx="2" ry="2" width="12" height="12"/><rect class="c" x="770" y="50" rx="2" ry="2" width="12" height="12"/><rect class="c" x="770" y="66" rx="2" ry="2" width="12" height="12"/><rect class="c" x="770" y="82" rx="2" ry="2" width="12" height="12"/><rect class="c" x="770" y="98" rx="2" ry="2" width="12" height="12"/><rect class="c" x="786" y="2" rx="2" ry="2" width="12" height="12"/><rect class="c" x="786" y="18" rx="2" ry="2" width="12" height="12"/><rect class="c" x="786" y="34" rx="2" ry="2" width="12" height="12"/><rect class="c" x="786" y="50" rx="2" ry="2" width="12" height="12"/><rect class="c" x="786" y="66" rx="2" ry="2" width="12" height="12"/><rect class="c" x="786" y="82" rx="2" ry="2" width="12" height="12"/><rect class="c" x="786" y="98" rx="2" ry="2" width="12" height="12"/><rect class="c" x="802" y="2" rx="2" ry="2" width="12" height="12"/><rect class="c" x="802" y="18" rx="2" ry="2" width="12" height="12"/><rect class="c" x="802" y="34" rx="2" ry="2" width="12" height="12"/><rect class="c" x="802" y="50" rx="2" ry="2" width="12" height="12"/><rect class="c" x="802" y="66" rx="2" ry="2" width="12" height="12"/><rect class="c" x="802" y="82" rx="2" ry="2" width="12" height="12"/><rect class="c" x="802" y="98" rx="2" ry="2" width="12" height="12"/><rect class="c" x="818" y="2" rx="2" ry="2" width="12" height="12"/><rect class="c" x="818" y="18" rx="2" ry="2" width="12" height="12"/><rect class="c" x="818" y="34" rx="2" ry="2" width="12" height="12"/><rect class="c" x="818" y="50" rx="2" ry="2" width="12" height="12"/><rect class="c" x="818" y="66" rx="2" ry="2" width="12" height="12"/><rect class="c" x="818" y="82" rx="2" ry="2" width="12" height="12"/><rect class="c" x="818" y="98" rx="2" ry="2" width="12" height="12"/><rect class="c" x="834" y="2" rx="2" ry="2" width="12" height="12"/><rect class="c" x="834" y="18" rx="2" ry="2" width="12" height="12"/><rect class="u u0" height="12" width="609.4" x="0.0" y="144"/><rect class="u u1" height="12" width="196.3" x="608.8" y="144"/><rect class="u u2" height="12" width="22.3" x="804.5" y="144"/><rect class="u u3" height="12" width="22.3" x="826.3" y="144"/><rect class="s s0" x="0.8" y="0.8" width="14.4" height="14.4" rx="4.5" ry="4.5"/><rect class="s s1" x="1.8" y="1.8" width="12.3" height="12.3" rx="4.1" ry="4.1"/><rect class="s s2" x="2.6" y="2.6" width="10.8" height="10.8" rx="3.6" ry="3.6"/><rect class="s s3" x="3.0" y="3.0" width="9.9" height="9.9" rx="3.3" ry="3.3"/></svg>