<svg viewBox="-16 -32 880 192" width="880" height="192" xmlns="http://www.w3.org/2000/svg"><style>@keyframes c0{4.67%{fill:var(--c1)}4.69%,to{fill:var(--ce)}}@keyframes c1{3.37%{fill:var(--c1)}3.39%,to{fill:var(--ce)}}@keyframes c2{2.33%{fill:var(--c1)}2.35%,to{fill:var(--ce)}}@keyframes c3{3.11%{fill:var(--c1)}3.13%,to{fill:var(--ce)}}@keyframes c4{74.02%{fill:var(--c2)}74.04%,to{fill:var(--ce)}}@keyframes c5{2.59%{fill:var(--c1)}2.61%,to{fill:var(--ce)}}@keyframes c6{2.85%{fill:var(--c1)}2.87%,to{fill:var(--ce)}}@keyframes c7{5.96%{fill:var(--c1)}5.98%,to{fill:var(--ce)}}@keyframes c8{5.7%{fill:var(--c1)}5.72%,to{fill:var(--ce)}}@keyframes c9{7.52%{fill:var(--c1)}7.54%,to{fill:var(--ce)}}@keyframes ca{6.74%{fill:var(--c1)}6.76%,to{fill:var(--ce)}}@keyframes cb{49.34%{fill:var(--c1)}49.36%,to{fill:var(--ce)}}@keyframes cc{11.42%{fill:var(--c1)}11.44%,to{fill:var(--ce)}}@keyframes cd{11.68%{fill:var(--c1)}11.7%,to{fill:var(--ce)}}@keyframes ce{11.94%{fill:var(--c1)}11.96%,to{fill:var(--ce)}}@keyframes cf{12.2%{fill:var(--c1)}12.22%,to{fill:var(--ce)}}@keyframes cg{9.34%{fill:var(--c1)}9.36%,to{fill:var(--ce)}}@keyframes ch{11.16%{fill:var(--c1)}11.18%,to{fill:var(--ce)}}@keyframes ci{10.9%{fill:var(--c1)}10.92%,to{fill:var(--ce)}}@keyframes cj{12.72%{fill:var(--c1)}12.74%,to{fill:var(--ce)}}@keyframes ck{9.86%{fill:var(--c1)}9.88%,to{fill:var(--ce)}}@keyframes cl{10.12%{fill:var(--c1)}10.14%,to{fill:var(--ce)}}@keyframes cm{10.38%{fill:var(--c1)}10.4%,to{fill:var(--ce)}}@keyframes cn{13.5%{fill:var(--c1)}13.52%,to{fill:var(--ce)}}@keyframes co{51.68%{fill:var(--c2)}51.7%,to{fill:var(--ce)}}@keyframes cp{15.05%{fill:var(--c1)}15.07%,to{fill:var(--ce)}}@keyframes cq{14.8%{fill:var(--c1)}14.82%,to{fill:var(--ce)}}@keyframes cr{52.98%{fill:var(--c2)}53%,to{fill:var(--ce)}}@keyframes cs{17.39%{fill:var(--c1)}17.41%,to{fill:var(--ce)}}@keyframes ct{17.65%{fill:var(--c1)}17.67%,to{fill:var(--ce)}}@keyframes cu{16.35%{fill:var(--c1)}16.37%,to{fill:var(--ce)}}@keyframes cv{19.47%{fill:var(--c1)}19.49%,to{fill:var(--ce)}}@keyframes cw{40.77%{fill:var(--c1)}40.79%,to{fill:var(--ce)}}@keyframes cx{19.73%{fill:var(--c1)}19.75%,to{fill:var(--ce)}}@keyframes cy{19.99%{fill:var(--c1)}20.01%,to{fill:var(--ce)}}@keyframes cz{20.25%{fill:var(--c1)}20.27%,to{fill:var(--ce)}}@keyframes c10{41.29%{fill:var(--c1)}41.31%,to{fill:var(--ce)}}@keyframes c11{81.55%{fill:var(--c4)}81.57%,to{fill:var(--ce)}}@keyframes c12{40.25%{fill:var(--c1)}40.27%,to{fill:var(--ce)}}@keyframes c13{57.65%{fill:var(--c2)}57.67%,to{fill:var(--ce)}}@keyframes c14{37.39%{fill:var(--c1)}37.41%,to{fill:var(--ce)}}@keyframes c15{38.69%{fill:var(--c1)}38.71%,to{fill:var(--ce)}}@keyframes c16{21.29%{fill:var(--c1)}21.31%,to{fill:var(--ce)}}@keyframes c17{57.91%{fill:var(--c2)}57.93%,to{fill:var(--ce)}}@keyframes c18{36.87%{fill:var(--c1)}36.89%,to{fill:var(--ce)}}@keyframes c19{37.91%{fill:var(--c1)}37.93%,to{fill:var(--ce)}}@keyframes c1a{21.81%{fill:var(--c1)}21.83%,to{fill:var(--ce)}}@keyframes c1b{21.55%{fill:var(--c1)}21.57%,to{fill:var(--ce)}}@keyframes c1c{36.61%{fill:var(--c1)}36.63%,to{fill:var(--ce)}}@keyframes c1d{36.35%{fill:var(--c1)}36.37%,to{fill:var(--ce)}}@keyframes c1e{36.09%{fill:var(--c1)}36.11%,to{fill:var(--ce)}}@keyframes c1f{22.07%{fill:var(--c1)}22.09%,to{fill:var(--ce)}}@keyframes c1g{58.43%{fill:var(--c2)}58.45%,to{fill:var(--ce)}}@keyframes c1h{23.89%{fill:var(--c1)}23.91%,to{fill:var(--ce)}}@keyframes c1i{23.63%{fill:var(--c1)}23.65%,to{fill:var(--ce)}}@keyframes c1j{23.37%{fill:var(--c1)}23.39%,to{fill:var(--ce)}}@keyframes c1k{58.69%{fill:var(--c2)}58.71%,to{fill:var(--ce)}}@keyframes c1l{59.21%{fill:var(--c2)}59.23%,to{fill:var(--ce)}}@keyframes c1m{23.11%{fill:var(--c1)}23.13%,to{fill:var(--ce)}}@keyframes c1n{22.59%{fill:var(--c1)}22.61%,to{fill:var(--ce)}}@keyframes c1o{24.67%{fill:var(--c1)}24.69%,to{fill:var(--ce)}}@keyframes c1p{24.41%{fill:var(--c1)}24.43%,to{fill:var(--ce)}}@keyframes c1q{35.05%{fill:var(--c1)}35.07%,to{fill:var(--ce)}}@keyframes c1r{34.28%{fill:var(--c1)}34.3%,to{fill:var(--ce)}}@keyframes c1s{25.7%{fill:var(--c1)}25.72%,to{fill:var(--ce)}}@keyframes c1t{25.96%{fill:var(--c1)}25.98%,to{fill:var(--ce)}}@keyframes c1u{29.08%{fill:var(--c1)}29.1%,to{fill:var(--ce)}}@keyframes c1v{29.6%{fill:var(--c1)}29.62%,to{fill:var(--ce)}}@keyframes c1w{61.03%{fill:var(--c2)}61.05%,to{fill:var(--ce)}}@keyframes c1x{85.7%{fill:var(--c4)}85.72%,to{fill:var(--ce)}}@keyframes c1y{27.78%{fill:var(--c1)}27.8%,to{fill:var(--ce)}}@keyframes c1z{26.48%{fill:var(--c1)}26.5%,to{fill:var(--ce)}}@keyframes c20{27.26%{fill:var(--c1)}27.28%,to{fill:var(--ce)}}@keyframes c21{61.29%{fill:var(--c2)}61.31%,to{fill:var(--ce)}}@keyframes c22{31.94%{fill:var(--c1)}31.96%,to{fill:var(--ce)}}@keyframes c23{30.12%{fill:var(--c1)}30.14%,to{fill:var(--ce)}}@keyframes c24{32.46%{fill:var(--c1)}32.48%,to{fill:var(--ce)}}@keyframes c25{62.33%{fill:var(--c2)}62.35%,to{fill:var(--ce)}}@keyframes c26{26.74%{fill:var(--c1)}26.76%,to{fill:var(--ce)}}@keyframes c27{30.9%{fill:var(--c1)}30.92%,to{fill:var(--ce)}}@keyframes c28{30.64%{fill:var(--c1)}30.66%,to{fill:var(--ce)}}@keyframes c29{30.38%{fill:var(--c1)}30.4%,to{fill:var(--ce)}}@keyframes c2a{32.72%{fill:var(--c1)}32.74%,to{fill:var(--ce)}}@keyframes u0{2.33%{transform:scale(0,1)}2.35%,2.59%{transform:scale(.01,1)}2.61%,2.85%{transform:scale(.03,1)}2.87%,3.11%{transform:scale(.04,1)}3.13%,3.37%{transform:scale(.06,1)}3.39%,4.67%{transform:scale(.07,1)}4.69%,5.7%{transform:scale(.09,1)}5.72%,5.96%{transform:scale(.1,1)}5.98%,6.74%{transform:scale(.11,1)}6.76%,7.52%{transform:scale(.13,1)}7.54%,9.34%{transform:scale(.14,1)}9.36%,9.86%{transform:scale(.16,1)}10.12%,9.88%{transform:scale(.17,1)}10.14%,10.38%{transform:scale(.19,1)}10.4%,10.9%{transform:scale(.2,1)}10.92%,11.16%{transform:scale(.21,1)}11.18%,11.42%{transform:scale(.23,1)}11.44%,11.68%{transform:scale(.24,1)}11.7%,11.94%{transform:scale(.26,1)}11.96%,12.2%{transform:scale(.27,1)}12.22%,12.72%{transform:scale(.29,1)}12.74%,13.5%{transform:scale(.3,1)}13.52%,14.8%{transform:scale(.31,1)}14.82%,15.05%{transform:scale(.33,1)}15.07%,16.35%{transform:scale(.34,1)}16.37%,17.39%{transform:scale(.36,1)}17.41%,17.65%{transform:scale(.37,1)}17.67%,19.47%{transform:scale(.39,1)}19.49%,19.73%{transform:scale(.4,1)}19.75%,19.99%{transform:scale(.41,1)}20.01%,20.25%{transform:scale(.43,1)}20.27%,21.29%{transform:scale(.44,1)}21.31%,21.55%{transform:scale(.46,1)}21.57%,21.81%{transform:scale(.47,1)}21.83%,22.07%{transform:scale(.49,1)}22.09%,22.59%{transform:scale(.5,1)}22.61%,23.11%{transform:scale(.51,1)}23.13%,23.37%{transform:scale(.53,1)}23.39%,23.63%{transform:scale(.54,1)}23.65%,23.89%{transform:scale(.56,1)}23.91%,24.41%{transform:scale(.57,1)}24.43%,24.67%{transform:scale(.59,1)}24.69%,25.7%{transform:scale(.6,1)}25.72%,25.96%{transform:scale(.61,1)}25.98%,26.48%{transform:scale(.63,1)}26.5%,26.74%{transform:scale(.64,1)}26.76%,27.26%{transform:scale(.66,1)}27.28%,27.78%{transform:scale(.67,1)}27.8%,29.08%{transform:scale(.69,1)}29.1%,29.6%{transform:scale(.7,1)}29.62%,30.12%{transform:scale(.71,1)}30.14%,30.38%{transform:scale(.73,1)}30.4%,30.64%{transform:scale(.74,1)}30.66%,30.9%{transform:scale(.76,1)}30.92%,31.94%{transform:scale(.77,1)}31.96%,32.46%{transform:scale(.79,1)}32.48%,32.72%{transform:scale(.8,1)}32.74%,34.28%{transform:scale(.81,1)}34.3%,35.05%{transform:scale(.83,1)}35.07%,36.09%{transform:scale(.84,1)}36.11%,36.35%{transform:scale(.86,1)}36.37%,36.61%{transform:scale(.87,1)}36.63%,36.87%{transform:scale(.89,1)}36.89%,37.39%{transform:scale(.9,1)}37.41%,37.91%{transform:scale(.91,1)}37.93%,38.69%{transform:scale(.93,1)}38.71%,40.25%{transform:scale(.94,1)}40.27%,40.77%{transform:scale(.96,1)}40.79%,41.29%{transform:scale(.97,1)}41.31%,49.34%{transform:scale(.99,1)}49.36%,to{transform:scale(1,1)}}@keyframes u1{51.68%{transform:scale(0,1)}51.7%,52.98%{transform:scale(.09,1)}53%,57.65%{transform:scale(.18,1)}57.67%,57.91%{transform:scale(.27,1)}57.93%,58.43%{transform:scale(.36,1)}58.45%,58.69%{transform:scale(.45,1)}58.71%,59.21%{transform:scale(.55,1)}59.23%,61.03%{transform:scale(.64,1)}61.05%,61.29%{transform:scale(.73,1)}61.31%,62.33%{transform:scale(.82,1)}62.35%,74.02%{transform:scale(.91,1)}74.04%,to{transform:scale(1,1)}}@keyframes u2{81.55%{transform:scale(0,1)}81.57%,85.7%{transform:scale(.5,1)}85.72%,to{transform:scale(1,1)}}@keyframes s0{0%,99.74%{transform:translate(0,-16px)}.26%{transform:translate(0,0)}2.6%{transform:translate(144px,0)}2.86%{transform:translate(144px,16px)}3.64%,97.66%{transform:translate(96px,16px)}4.68%{transform:translate(96px,80px)}5.71%{transform:translate(160px,80px)}5.97%{transform:translate(160px,64px)}6.49%{transform:translate(192px,64px)}7.53%{transform:translate(192px,0)}9.87%{transform:translate(336px,0)}10.39%{transform:translate(336px,32px)}10.65%{transform:translate(320px,32px)}10.91%{transform:translate(320px,48px)}11.43%{transform:translate(288px,48px)}12.21%{transform:translate(288px,96px)}12.73%{transform:translate(320px,96px)}13.25%{transform:translate(320px,64px)}14.03%{transform:translate(368px,64px)}15.06%{transform:translate(368px,0)}16.36%{transform:translate(448px,0)}16.62%{transform:translate(448px,16px)}16.88%{transform:translate(432px,16px)}17.66%{transform:translate(432px,64px)}19.74%{transform:translate(560px,64px)}20.26%{transform:translate(560px,96px)}21.56%{transform:translate(640px,96px)}21.82%{transform:translate(640px,80px)}22.6%{transform:translate(688px,80px)}23.12%{transform:translate(688px,48px)}23.38%{transform:translate(672px,48px)}23.9%{transform:translate(672px,16px)}24.42%{transform:translate(704px,16px)}24.68%{transform:translate(704px,0)}25.45%{transform:translate(752px,0)}25.71%{transform:translate(752px,16px)}26.75%{transform:translate(816px,16px)}27.01%{transform:translate(816px,32px)}27.27%{transform:translate(800px,32px)}27.79%{transform:translate(800px,0)}28.31%{transform:translate(768px,0)}29.61%{transform:translate(768px,80px)}30.39%,32.99%{transform:translate(816px,80px)}30.91%,61.56%{transform:translate(816px,48px)}31.17%{transform:translate(832px,48px)}31.43%{transform:translate(832px,64px)}31.95%{transform:translate(800px,64px)}32.47%{transform:translate(800px,96px)}32.73%{transform:translate(816px,96px)}34.29%{transform:translate(736px,80px)}34.81%{transform:translate(736px,48px)}36.1%{transform:translate(656px,48px)}36.62%{transform:translate(656px,16px)}37.14%{transform:translate(624px,16px)}37.4%{transform:translate(624px,32px)}37.66%{transform:translate(640px,32px)}37.92%{transform:translate(640px,48px)}38.18%{transform:translate(624px,48px)}38.7%,56.36%{transform:translate(624px,80px)}38.96%{transform:translate(608px,80px)}39.74%{transform:translate(608px,32px)}40.52%{transform:translate(560px,32px)}41.04%{transform:translate(560px,0)}41.56%{transform:translate(592px,0)}42.08%{transform:translate(592px,32px)}48.31%{transform:translate(208px,32px)}49.35%{transform:translate(208px,96px)}51.43%{transform:translate(336px,96px)}51.69%{transform:translate(336px,80px)}57.66%{transform:translate(624px,0)}58.7%{transform:translate(688px,0)}59.22%{transform:translate(688px,32px)}60.78%{transform:translate(784px,32px)}61.04%{transform:translate(784px,48px)}62.34%{transform:translate(816px,0)}73.51%{transform:translate(128px,0)}74.03%{transform:translate(128px,32px)}81.3%{transform:translate(576px,32px)}81.56%{transform:translate(576px,16px)}84.94%{transform:translate(784px,16px)}85.71%{transform:translate(784px,64px)}96.62%{transform:translate(112px,64px)}96.88%{transform:translate(112px,48px)}97.14%{transform:translate(96px,48px)}97.92%{transform:translate(80px,16px)}98.18%{transform:translate(80px,0)}98.7%{transform:translate(48px,0)}98.96%{transform:translate(48px,-16px)}}@keyframes s1{0%,99.74%{transform:translate(16px,-16px)}.26%{transform:translate(0,-16px)}.52%{transform:translate(0,0)}2.86%{transform:translate(144px,0)}3.12%{transform:translate(144px,16px)}3.9%,97.92%{transform:translate(96px,16px)}4.94%{transform:translate(96px,80px)}5.97%{transform:translate(160px,80px)}6.23%{transform:translate(160px,64px)}6.75%{transform:translate(192px,64px)}7.79%{transform:translate(192px,0)}10.13%{transform:translate(336px,0)}10.65%{transform:translate(336px,32px)}10.91%{transform:translate(320px,32px)}11.17%{transform:translate(320px,48px)}11.69%{transform:translate(288px,48px)}12.47%{transform:translate(288px,96px)}12.99%{transform:translate(320px,96px)}13.51%{transform:translate(320px,64px)}14.29%{transform:translate(368px,64px)}15.32%{transform:translate(368px,0)}16.62%{transform:translate(448px,0)}16.88%{transform:translate(448px,16px)}17.14%{transform:translate(432px,16px)}17.92%{transform:translate(432px,64px)}20%{transform:translate(560px,64px)}20.52%{transform:translate(560px,96px)}21.82%{transform:translate(640px,96px)}22.08%{transform:translate(640px,80px)}22.86%{transform:translate(688px,80px)}23.38%{transform:translate(688px,48px)}23.64%{transform:translate(672px,48px)}24.16%{transform:translate(672px,16px)}24.68%{transform:translate(704px,16px)}24.94%{transform:translate(704px,0)}25.71%{transform:translate(752px,0)}25.97%{transform:translate(752px,16px)}27.01%{transform:translate(816px,16px)}27.27%{transform:translate(816px,32px)}27.53%{transform:translate(800px,32px)}28.05%{transform:translate(800px,0)}28.57%{transform:translate(768px,0)}29.87%{transform:translate(768px,80px)}30.65%,33.25%{transform:translate(816px,80px)}31.17%,61.82%{transform:translate(816px,48px)}31.43%{transform:translate(832px,48px)}31.69%{transform:translate(832px,64px)}32.21%{transform:translate(800px,64px)}32.73%{transform:translate(800px,96px)}32.99%{transform:translate(816px,96px)}34.55%{transform:translate(736px,80px)}35.06%{transform:translate(736px,48px)}36.36%{transform:translate(656px,48px)}36.88%{transform:translate(656px,16px)}37.4%{transform:translate(624px,16px)}37.66%{transform:translate(624px,32px)}37.92%{transform:translate(640px,32px)}38.18%{transform:translate(640px,48px)}38.44%{transform:translate(624px,48px)}38.96%,56.62%{transform:translate(624px,80px)}39.22%{transform:translate(608px,80px)}40%{transform:translate(608px,32px)}40.78%{transform:translate(560px,32px)}41.3%{transform:translate(560px,0)}41.82%{transform:translate(592px,0)}42.34%{transform:translate(592px,32px)}48.57%{transform:translate(208px,32px)}49.61%{transform:translate(208px,96px)}51.69%{transform:translate(336px,96px)}51.95%{transform:translate(336px,80px)}57.92%{transform:translate(624px,0)}58.96%{transform:translate(688px,0)}59.48%{transform:translate(688px,32px)}61.04%{transform:translate(784px,32px)}61.3%{transform:translate(784px,48px)}62.6%{transform:translate(816px,0)}73.77%{transform:translate(128px,0)}74.29%{transform:translate(128px,32px)}81.56%{transform:translate(576px,32px)}81.82%{transform:translate(576px,16px)}85.19%{transform:translate(784px,16px)}85.97%{transform:translate(784px,64px)}96.88%{transform:translate(112px,64px)}97.14%{transform:translate(112px,48px)}97.4%{transform:translate(96px,48px)}98.18%{transform:translate(80px,16px)}98.44%{transform:translate(80px,0)}98.96%{transform:translate(48px,0)}99.22%{transform:translate(48px,-16px)}}@keyframes s2{0%,99.74%{transform:translate(32px,-16px)}.52%{transform:translate(0,-16px)}.78%{transform:translate(0,0)}3.12%{transform:translate(144px,0)}3.38%{transform:translate(144px,16px)}4.16%,98.18%{transform:translate(96px,16px)}5.19%{transform:translate(96px,80px)}6.23%{transform:translate(160px,80px)}6.49%{transform:translate(160px,64px)}7.01%{transform:translate(192px,64px)}8.05%{transform:translate(192px,0)}10.39%{transform:translate(336px,0)}10.91%{transform:translate(336px,32px)}11.17%{transform:translate(320px,32px)}11.43%{transform:translate(320px,48px)}11.95%{transform:translate(288px,48px)}12.73%{transform:translate(288px,96px)}13.25%{transform:translate(320px,96px)}13.77%{transform:translate(320px,64px)}14.55%{transform:translate(368px,64px)}15.58%{transform:translate(368px,0)}16.88%{transform:translate(448px,0)}17.14%{transform:translate(448px,16px)}17.4%{transform:translate(432px,16px)}18.18%{transform:translate(432px,64px)}20.26%{transform:translate(560px,64px)}20.78%{transform:translate(560px,96px)}22.08%{transform:translate(640px,96px)}22.34%{transform:translate(640px,80px)}23.12%{transform:translate(688px,80px)}23.64%{transform:translate(688px,48px)}23.9%{transform:translate(672px,48px)}24.42%{transform:translate(672px,16px)}24.94%{transform:translate(704px,16px)}25.19%{transform:translate(704px,0)}25.97%{transform:translate(752px,0)}26.23%{transform:translate(752px,16px)}27.27%{transform:translate(816px,16px)}27.53%{transform:translate(816px,32px)}27.79%{transform:translate(800px,32px)}28.31%{transform:translate(800px,0)}28.83%{transform:translate(768px,0)}30.13%{transform:translate(768px,80px)}30.91%,33.51%{transform:translate(816px,80px)}31.43%,62.08%{transform:translate(816px,48px)}31.69%{transform:translate(832px,48px)}31.95%{transform:translate(832px,64px)}32.47%{transform:translate(800px,64px)}32.99%{transform:translate(800px,96px)}33.25%{transform:translate(816px,96px)}34.81%{transform:translate(736px,80px)}35.32%{transform:translate(736px,48px)}36.62%{transform:translate(656px,48px)}37.14%{transform:translate(656px,16px)}37.66%{transform:translate(624px,16px)}37.92%{transform:translate(624px,32px)}38.18%{transform:translate(640px,32px)}38.44%{transform:translate(640px,48px)}38.7%{transform:translate(624px,48px)}39.22%,56.88%{transform:translate(624px,80px)}39.48%{transform:translate(608px,80px)}40.26%{transform:translate(608px,32px)}41.04%{transform:translate(560px,32px)}41.56%{transform:translate(560px,0)}42.08%{transform:translate(592px,0)}42.6%{transform:translate(592px,32px)}48.83%{transform:translate(208px,32px)}49.87%{transform:translate(208px,96px)}51.95%{transform:translate(336px,96px)}52.21%{transform:translate(336px,80px)}58.18%{transform:translate(624px,0)}59.22%{transform:translate(688px,0)}59.74%{transform:translate(688px,32px)}61.3%{transform:translate(784px,32px)}61.56%{transform:translate(784px,48px)}62.86%{transform:translate(816px,0)}74.03%{transform:translate(128px,0)}74.55%{transform:translate(128px,32px)}81.82%{transform:translate(576px,32px)}82.08%{transform:translate(576px,16px)}85.45%{transform:translate(784px,16px)}86.23%{transform:translate(784px,64px)}97.14%{transform:translate(112px,64px)}97.4%{transform:translate(112px,48px)}97.66%{transform:translate(96px,48px)}98.44%{transform:translate(80px,16px)}98.7%{transform:translate(80px,0)}99.22%{transform:translate(48px,0)}99.48%{transform:translate(48px,-16px)}}@keyframes s3{0%,99.74%{transform:translate(48px,-16px)}.78%{transform:translate(0,-16px)}1.04%{transform:translate(0,0)}3.38%{transform:translate(144px,0)}3.64%{transform:translate(144px,16px)}4.42%,98.44%{transform:translate(96px,16px)}5.45%{transform:translate(96px,80px)}6.49%{transform:translate(160px,80px)}6.75%{transform:translate(160px,64px)}7.27%{transform:translate(192px,64px)}8.31%{transform:translate(192px,0)}10.65%{transform:translate(336px,0)}11.17%{transform:translate(336px,32px)}11.43%{transform:translate(320px,32px)}11.69%{transform:translate(320px,48px)}12.21%{transform:translate(288px,48px)}12.99%{transform:translate(288px,96px)}13.51%{transform:translate(320px,96px)}14.03%{transform:translate(320px,64px)}14.81%{transform:translate(368px,64px)}15.84%{transform:translate(368px,0)}17.14%{transform:translate(448px,0)}17.4%{transform:translate(448px,16px)}17.66%{transform:translate(432px,16px)}18.44%{transform:translate(432px,64px)}20.52%{transform:translate(560px,64px)}21.04%{transform:translate(560px,96px)}22.34%{transform:translate(640px,96px)}22.6%{transform:translate(640px,80px)}23.38%{transform:translate(688px,80px)}23.9%{transform:translate(688px,48px)}24.16%{transform:translate(672px,48px)}24.68%{transform:translate(672px,16px)}25.19%{transform:translate(704px,16px)}25.45%{transform:translate(704px,0)}26.23%{transform:translate(752px,0)}26.49%{transform:translate(752px,16px)}27.53%{transform:translate(816px,16px)}27.79%{transform:translate(816px,32px)}28.05%{transform:translate(800px,32px)}28.57%{transform:translate(800px,0)}29.09%{transform:translate(768px,0)}30.39%{transform:translate(768px,80px)}31.17%,33.77%{transform:translate(816px,80px)}31.69%,62.34%{transform:translate(816px,48px)}31.95%{transform:translate(832px,48px)}32.21%{transform:translate(832px,64px)}32.73%{transform:translate(800px,64px)}33.25%{transform:translate(800px,96px)}33.51%{transform:translate(816px,96px)}35.06%{transform:translate(736px,80px)}35.58%{transform:translate(736px,48px)}36.88%{transform:translate(656px,48px)}37.4%{transform:translate(656px,16px)}37.92%{transform:translate(624px,16px)}38.18%{transform:translate(624px,32px)}38.44%{transform:translate(640px,32px)}38.7%{transform:translate(640px,48px)}38.96%{transform:translate(624px,48px)}39.48%,57.14%{transform:translate(624px,80px)}39.74%{transform:translate(608px,80px)}40.52%{transform:translate(608px,32px)}41.3%{transform:translate(560px,32px)}41.82%{transform:translate(560px,0)}42.34%{transform:translate(592px,0)}42.86%{transform:translate(592px,32px)}49.09%{transform:translate(208px,32px)}50.13%{transform:translate(208px,96px)}52.21%{transform:translate(336px,96px)}52.47%{transform:translate(336px,80px)}58.44%{transform:translate(624px,0)}59.48%{transform:translate(688px,0)}60%{transform:translate(688px,32px)}61.56%{transform:translate(784px,32px)}61.82%{transform:translate(784px,48px)}63.12%{transform:translate(816px,0)}74.29%{transform:translate(128px,0)}74.81%{transform:translate(128px,32px)}82.08%{transform:translate(576px,32px)}82.34%{transform:translate(576px,16px)}85.71%{transform:translate(784px,16px)}86.49%{transform:translate(784px,64px)}97.4%{transform:translate(112px,64px)}97.66%{transform:translate(112px,48px)}97.92%{transform:translate(96px,48px)}98.7%{transform:translate(80px,16px)}98.96%{transform:translate(80px,0)}99.48%{transform:translate(48px,0)}}:root{--cb:#1b1f230a;--cs:purple;--ce:#ebedf0;--c0:#ebedf0;--c1:#9be9a8;--c2:#40c463;--c3:#30a14e;--c4:#216e39}@media (prefers-color-scheme:dark){:root{--cb:#1b1f230a;--cs:purple;--ce:#161b22;--c1:#01311f;--c2:#034525;--c3:#0f6d31;--c4:#00c647}}.c{shape-rendering:geometricPrecision;rx:2;ry:2;fill:var(--ce);stroke-width:1px;stroke:var(--cb);animation:none 38500ms linear infinite}.c.c0{fill:var(--c1);animation-name:c0}.c.c1,.c.c2,.c.c3{fill:var(--c1);animation-name:c1}.c.c2,.c.c3{animation-name:c2}.c.c3{animation-name:c3}.c.c4{fill:var(--c2);animation-name:c4}.c.c5{fill:var(--c1);animation-name:c5}.c.c6,.c.c7,.c.c8{fill:var(--c1);animation-name:c6}.c.c7,.c.c8{animation-name:c7}.c.c8{animation-name:c8}.c.c9,.c.ca,.c.cb{fill:var(--c1);animation-name:c9}.c.ca,.c.cb{animation-name:ca}.c.cb{animation-name:cb}.c.cc,.c.cd,.c.ce{fill:var(--c1);animation-name:cc}.c.cd,.c.ce{animation-name:cd}.c.ce{animation-name:ce}.c.cf,.c.cg,.c.ch{fill:var(--c1);animation-name:cf}.c.cg,.c.ch{animation-name:cg}.c.ch{animation-name:ch}.c.ci,.c.cj,.c.ck{fill:var(--c1);animation-name:ci}.c.cj,.c.ck{animation-name:cj}.c.ck{animation-name:ck}.c.cl,.c.cm,.c.cn{fill:var(--c1);animation-name:cl}.c.cm,.c.cn{animation-name:cm}.c.cn{animation-name:cn}.c.co{fill:var(--c2);animation-name:co}.c.cp,.c.cq{fill:var(--c1);animation-name:cp}.c.cq{animation-name:cq}.c.cr{fill:var(--c2);animation-name:cr}.c.cs,.c.ct,.c.cu{fill:var(--c1);animation-name:cs}.c.ct,.c.cu{animation-name:ct}.c.cu{animation-name:cu}.c.cv,.c.cw,.c.cx{fill:var(--c1);animation-name:cv}.c.cw,.c.cx{animation-name:cw}.c.cx{animation-name:cx}.c.c10,.c.cy,.c.cz{fill:var(--c1);animation-name:cy}.c.c10,.c.cz{animation-name:cz}.c.c10{animation-name:c10}.c.c11{fill:var(--c4);animation-name:c11}.c.c12{fill:var(--c1);animation-name:c12}.c.c13{fill:var(--c2);animation-name:c13}.c.c14,.c.c15,.c.c16{fill:var(--c1);animation-name:c14}.c.c15,.c.c16{animation-name:c15}.c.c16{animation-name:c16}.c.c17{fill:var(--c2);animation-name:c17}.c.c18,.c.c19{fill:var(--c1);animation-name:c18}.c.c19{animation-name:c19}.c.c1a,.c.c1b,.c.c1c{fill:var(--c1);animation-name:c1a}.c.c1b,.c.c1c{animation-name:c1b}.c.c1c{animation-name:c1c}.c.c1d,.c.c1e,.c.c1f{fill:var(--c1);animation-name:c1d}.c.c1e,.c.c1f{animation-name:c1e}.c.c1f{animation-name:c1f}.c.c1g{fill:var(--c2);animation-name:c1g}.c.c1h,.c.c1i,.c.c1j{fill:var(--c1);animation-name:c1h}.c.c1i,.c.c1j{animation-name:c1i}.c.c1j{animation-name:c1j}.c.c1k,.c.c1l{fill:var(--c2);animation-name:c1k}.c.c1l{animation-name:c1l}.c.c1m{fill:var(--c1);animation-name:c1m}.c.c1n,.c.c1o,.c.c1p{fill:var(--c1);animation-name:c1n}.c.c1o,.c.c1p{animation-name:c1o}.c.c1p{animation-name:c1p}.c.c1q,.c.c1r,.c.c1s{fill:var(--c1);animation-name:c1q}.c.c1r,.c.c1s{animation-name:c1r}.c.c1s{animation-name:c1s}.c.c1t,.c.c1u,.c.c1v{fill:var(--c1);animation-name:c1t}.c.c1u,.c.c1v{animation-name:c1u}.c.c1v{animation-name:c1v}.c.c1w{fill:var(--c2);animation-name:c1w}.c.c1x{fill:var(--c4);animation-name:c1x}.c.c1y,.c.c1z,.c.c20{fill:var(--c1);animation-name:c1y}.c.c1z,.c.c20{animation-name:c1z}.c.c20{animation-name:c20}.c.c21{fill:var(--c2);animation-name:c21}.c.c22,.c.c23,.c.c24{fill:var(--c1);animation-name:c22}.c.c23,.c.c24{animation-name:c23}.c.c24{animation-name:c24}.c.c25{fill:var(--c2);animation-name:c25}.c.c26,.c.c27{fill:var(--c1);animation-name:c26}.c.c27{animation-name:c27}.c.c28,.c.c29,.c.c2a{fill:var(--c1);animation-name:c28}.c.c29,.c.c2a{animation-name:c29}.c.c2a{animation-name:c2a}.s,.u{animation:none linear 38500ms infinite}.u,.u.u0{transform-origin:0 0}.u{transform:scale(0,1)}.u.u0{fill:var(--c1);animation-name:u0}.u.u1{fill:var(--c2);animation-name:u1;transform-origin:715.2px 0}.u.u2{fill:var(--c4);animation-name:u2;transform-origin:827.6px 0}.s{shape-rendering:geometricPrecision;fill:var(--cs)}.s.s0{transform:translate(0,-16px);animation-name:s0}.s.s1{transform:translate(16px,-16px);animation-name:s1}.s.s2{transform:translate(32px,-16px);animation-name:s2}.s.s3{transform:translate(48px,-16px);animation-name:s3}</style><rect class="c" x="2" y="2" width="12" height="12"/><rect class="c" x="2" y="18" width="12" height="12"/><rect class="c" x="2" y="34" width="12" height="12"/><rect class="c" x="2" y="50" width="12" height="12"/><rect class="c" x="2" y="66" width="12" height="12"/><rect class="c" x="2" y="82" width="12" height="12"/><rect class="c" x="2" y="98" width="12" height="12"/><rect class="c" x="18" y="2" width="12" height="12"/><rect class="c" x="18" y="18" width="12" height="12"/><rect class="c" x="18" y="34" width="12" height="12"/><rect class="c" x="18" y="50" width="12" height="12"/><rect class="c" x="18" y="66" width="12" height="12"/><rect class="c" x="18" y="82" width="12" height="12"/><rect class="c" x="18" y="98" width="12" height="12"/><rect class="c" x="34" y="2" width="12" height="12"/><rect class="c" x="34" y="18" width="12" height="12"/><rect class="c" x="34" y="34" width="12" height="12"/><rect class="c" x="34" y="50" width="12" height="12"/><rect class="c" x="34" y="66" width="12" height="12"/><rect class="c" x="34" y="82" width="12" height="12"/><rect class="c" x="34" y="98" width="12" height="12"/><rect class="c" x="50" y="2" width="12" height="12"/><rect class="c" x="50" y="18" width="12" height="12"/><rect class="c" x="50" y="34" width="12" height="12"/><rect class="c" x="50" y="50" width="12" height="12"/><rect class="c" x="50" y="66" width="12" height="12"/><rect class="c" x="50" y="82" width="12" height="12"/><rect class="c" x="50" y="98" width="12" height="12"/><rect class="c" x="66" y="2" width="12" height="12"/><rect class="c" x="66" y="18" width="12" height="12"/><rect class="c" x="66" y="34" width="12" height="12"/><rect class="c" x="66" y="50" width="12" height="12"/><rect class="c" x="66" y="66" width="12" height="12"/><rect class="c" x="66" y="82" width="12" height="12"/><rect class="c" x="66" y="98" width="12" height="12"/><rect class="c" x="82" y="2" width="12" height="12"/><rect class="c" x="82" y="18" width="12" height="12"/><rect class="c" x="82" y="34" width="12" height="12"/><rect class="c" x="82" y="50" width="12" height="12"/><rect class="c" x="82" y="66" width="12" height="12"/><rect class="c" x="82" y="82" width="12" height="12"/><rect class="c" x="82" y="98" width="12" height="12"/><rect class="c" x="98" y="2" width="12" height="12"/><rect class="c" x="98" y="18" width="12" height="12"/><rect class="c" x="98" y="34" width="12" height="12"/><rect class="c" x="98" y="50" width="12" height="12"/><rect class="c" x="98" y="66" width="12" height="12"/><rect class="c c0" x="98" y="82" width="12" height="12"/><rect class="c" x="98" y="98" width="12" height="12"/><rect class="c" x="114" y="2" width="12" height="12"/><rect class="c c1" x="114" y="18" width="12" height="12"/><rect class="c" x="114" y="34" width="12" height="12"/><rect class="c" x="114" y="50" width="12" height="12"/><rect class="c" x="114" y="66" width="12" height="12"/><rect class="c" x="114" y="82" width="12" height="12"/><rect class="c" x="114" y="98" width="12" height="12"/><rect class="c c2" x="130" y="2" width="12" height="12"/><rect class="c c3" x="130" y="18" width="12" height="12"/><rect class="c c4" x="130" y="34" width="12" height="12"/><rect class="c" x="130" y="50" width="12" height="12"/><rect class="c" x="130" y="66" width="12" height="12"/><rect class="c" x="130" y="82" width="12" height="12"/><rect class="c" x="130" y="98" width="12" height="12"/><rect class="c c5" x="146" y="2" width="12" height="12"/><rect class="c c6" x="146" y="18" width="12" height="12"/><rect class="c" x="146" y="34" width="12" height="12"/><rect class="c" x="146" y="50" width="12" height="12"/><rect class="c" x="146" y="66" width="12" height="12"/><rect class="c" x="146" y="82" width="12" height="12"/><rect class="c" x="146" y="98" width="12" height="12"/><rect class="c" x="162" y="2" width="12" height="12"/><rect class="c" x="162" y="18" width="12" height="12"/><rect class="c" x="162" y="34" width="12" height="12"/><rect class="c" x="162" y="50" width="12" height="12"/><rect class="c c7" x="162" y="66" width="12" height="12"/><rect class="c c8" x="162" y="82" width="12" height="12"/><rect class="c" x="162" y="98" width="12" height="12"/><rect class="c" x="178" y="2" width="12" height="12"/><rect class="c" x="178" y="18" width="12" height="12"/><rect class="c" x="178" y="34" width="12" height="12"/><rect class="c" x="178" y="50" width="12" height="12"/><rect class="c" x="178" y="66" width="12" height="12"/><rect class="c" x="178" y="82" width="12" height="12"/><rect class="c" x="178" y="98" width="12" height="12"/><rect class="c c9" x="194" y="2" width="12" height="12"/><rect class="c" x="194" y="18" width="12" height="12"/><rect class="c" x="194" y="34" width="12" height="12"/><rect class="c ca" x="194" y="50" width="12" height="12"/><rect class="c" x="194" y="66" width="12" height="12"/><rect class="c" x="194" y="82" width="12" height="12"/><rect class="c" x="194" y="98" width="12" height="12"/><rect class="c" x="210" y="2" width="12" height="12"/><rect class="c" x="210" y="18" width="12" height="12"/><rect class="c" x="210" y="34" width="12" height="12"/><rect class="c" x="210" y="50" width="12" height="12"/><rect class="c" x="210" y="66" width="12" height="12"/><rect class="c" x="210" y="82" width="12" height="12"/><rect class="c cb" x="210" y="98" width="12" height="12"/><rect class="c" x="226" y="2" width="12" height="12"/><rect class="c" x="226" y="18" width="12" height="12"/><rect class="c" x="226" y="34" width="12" height="12"/><rect class="c" x="226" y="50" width="12" height="12"/><rect class="c" x="226" y="66" width="12" height="12"/><rect class="c" x="226" y="82" width="12" height="12"/><rect class="c" x="226" y="98" width="12" height="12"/><rect class="c" x="242" y="2" width="12" height="12"/><rect class="c" x="242" y="18" width="12" height="12"/><rect class="c" x="242" y="34" width="12" height="12"/><rect class="c" x="242" y="50" width="12" height="12"/><rect class="c" x="242" y="66" width="12" height="12"/><rect class="c" x="242" y="82" width="12" height="12"/><rect class="c" x="242" y="98" width="12" height="12"/><rect class="c" x="258" y="2" width="12" height="12"/><rect class="c" x="258" y="18" width="12" height="12"/><rect class="c" x="258" y="34" width="12" height="12"/><rect class="c" x="258" y="50" width="12" height="12"/><rect class="c" x="258" y="66" width="12" height="12"/><rect class="c" x="258" y="82" width="12" height="12"/><rect class="c" x="258" y="98" width="12" height="12"/><rect class="c" x="274" y="2" width="12" height="12"/><rect class="c" x="274" y="18" width="12" height="12"/><rect class="c" x="274" y="34" width="12" height="12"/><rect class="c" x="274" y="50" width="12" height="12"/><rect class="c" x="274" y="66" width="12" height="12"/><rect class="c" x="274" y="82" width="12" height="12"/><rect class="c" x="274" y="98" width="12" height="12"/><rect class="c" x="290" y="2" width="12" height="12"/><rect class="c" x="290" y="18" width="12" height="12"/><rect class="c" x="290" y="34" width="12" height="12"/><rect class="c cc" x="290" y="50" width="12" height="12"/><rect class="c cd" x="290" y="66" width="12" height="12"/><rect class="c ce" x="290" y="82" width="12" height="12"/><rect class="c cf" x="290" y="98" width="12" height="12"/><rect class="c cg" x="306" y="2" width="12" height="12"/><rect class="c" x="306" y="18" width="12" height="12"/><rect class="c" x="306" y="34" width="12" height="12"/><rect class="c ch" x="306" y="50" width="12" height="12"/><rect class="c" x="306" y="66" width="12" height="12"/><rect class="c" x="306" y="82" width="12" height="12"/><rect class="c" x="306" y="98" width="12" height="12"/><rect class="c" x="322" y="2" width="12" height="12"/><rect class="c" x="322" y="18" width="12" height="12"/><rect class="c" x="322" y="34" width="12" height="12"/><rect class="c ci" x="322" y="50" width="12" height="12"/><rect class="c" x="322" y="66" width="12" height="12"/><rect class="c" x="322" y="82" width="12" height="12"/><rect class="c cj" x="322" y="98" width="12" height="12"/><rect class="c ck" x="338" y="2" width="12" height="12"/><rect class="c cl" x="338" y="18" width="12" height="12"/><rect class="c cm" x="338" y="34" width="12" height="12"/><rect class="c" x="338" y="50" width="12" height="12"/><rect class="c cn" x="338" y="66" width="12" height="12"/><rect class="c co" x="338" y="82" width="12" height="12"/><rect class="c" x="338" y="98" width="12" height="12"/><rect class="c" x="354" y="2" width="12" height="12"/><rect class="c" x="354" y="18" width="12" height="12"/><rect class="c" x="354" y="34" width="12" height="12"/><rect class="c" x="354" y="50" width="12" height="12"/><rect class="c" x="354" y="66" width="12" height="12"/><rect class="c" x="354" y="82" width="12" height="12"/><rect class="c" x="354" y="98" width="12" height="12"/><rect class="c cp" x="370" y="2" width="12" height="12"/><rect class="c cq" x="370" y="18" width="12" height="12"/><rect class="c" x="370" y="34" width="12" height="12"/><rect class="c" x="370" y="50" width="12" height="12"/><rect class="c" x="370" y="66" width="12" height="12"/><rect class="c" x="370" y="82" width="12" height="12"/><rect class="c" x="370" y="98" width="12" height="12"/><rect class="c" x="386" y="2" width="12" height="12"/><rect class="c" x="386" y="18" width="12" height="12"/><rect class="c" x="386" y="34" width="12" height="12"/><rect class="c" x="386" y="50" width="12" height="12"/><rect class="c" x="386" y="66" width="12" height="12"/><rect class="c" x="386" y="82" width="12" height="12"/><rect class="c" x="386" y="98" width="12" height="12"/><rect class="c" x="402" y="2" width="12" height="12"/><rect class="c" x="402" y="18" width="12" height="12"/><rect class="c" x="402" y="34" width="12" height="12"/><rect class="c" x="402" y="50" width="12" height="12"/><rect class="c" x="402" y="66" width="12" height="12"/><rect class="c" x="402" y="82" width="12" height="12"/><rect class="c" x="402" y="98" width="12" height="12"/><rect class="c" x="418" y="2" width="12" height="12"/><rect class="c" x="418" y="18" width="12" height="12"/><rect class="c" x="418" y="34" width="12" height="12"/><rect class="c" x="418" y="50" width="12" height="12"/><rect class="c" x="418" y="66" width="12" height="12"/><rect class="c cr" x="418" y="82" width="12" height="12"/><rect class="c" x="418" y="98" width="12" height="12"/><rect class="c" x="434" y="2" width="12" height="12"/><rect class="c" x="434" y="18" width="12" height="12"/><rect class="c" x="434" y="34" width="12" height="12"/><rect class="c cs" x="434" y="50" width="12" height="12"/><rect class="c ct" x="434" y="66" width="12" height="12"/><rect class="c" x="434" y="82" width="12" height="12"/><rect class="c" x="434" y="98" width="12" height="12"/><rect class="c cu" x="450" y="2" width="12" height="12"/><rect class="c" x="450" y="18" width="12" height="12"/><rect class="c" x="450" y="34" width="12" height="12"/><rect class="c" x="450" y="50" width="12" height="12"/><rect class="c" x="450" y="66" width="12" height="12"/><rect class="c" x="450" y="82" width="12" height="12"/><rect class="c" x="450" y="98" width="12" height="12"/><rect class="c" x="466" y="2" width="12" height="12"/><rect class="c" x="466" y="18" width="12" height="12"/><rect class="c" x="466" y="34" width="12" height="12"/><rect class="c" x="466" y="50" width="12" height="12"/><rect class="c" x="466" y="66" width="12" height="12"/><rect class="c" x="466" y="82" width="12" height="12"/><rect class="c" x="466" y="98" width="12" height="12"/><rect class="c" x="482" y="2" width="12" height="12"/><rect class="c" x="482" y="18" width="12" height="12"/><rect class="c" x="482" y="34" width="12" height="12"/><rect class="c" x="482" y="50" width="12" height="12"/><rect class="c" x="482" y="66" width="12" height="12"/><rect class="c" x="482" y="82" width="12" height="12"/><rect class="c" x="482" y="98" width="12" height="12"/><rect class="c" x="498" y="2" width="12" height="12"/><rect class="c" x="498" y="18" width="12" height="12"/><rect class="c" x="498" y="34" width="12" height="12"/><rect class="c" x="498" y="50" width="12" height="12"/><rect class="c" x="498" y="66" width="12" height="12"/><rect class="c" x="498" y="82" width="12" height="12"/><rect class="c" x="498" y="98" width="12" height="12"/><rect class="c" x="514" y="2" width="12" height="12"/><rect class="c" x="514" y="18" width="12" height="12"/><rect class="c" x="514" y="34" width="12" height="12"/><rect class="c" x="514" y="50" width="12" height="12"/><rect class="c" x="514" y="66" width="12" height="12"/><rect class="c" x="514" y="82" width="12" height="12"/><rect class="c" x="514" y="98" width="12" height="12"/><rect class="c" x="530" y="2" width="12" height="12"/><rect class="c" x="530" y="18" width="12" height="12"/><rect class="c" x="530" y="34" width="12" height="12"/><rect class="c" x="530" y="50" width="12" height="12"/><rect class="c" x="530" y="66" width="12" height="12"/><rect class="c" x="530" y="82" width="12" height="12"/><rect class="c" x="530" y="98" width="12" height="12"/><rect class="c" x="546" y="2" width="12" height="12"/><rect class="c" x="546" y="18" width="12" height="12"/><rect class="c" x="546" y="34" width="12" height="12"/><rect class="c" x="546" y="50" width="12" height="12"/><rect class="c cv" x="546" y="66" width="12" height="12"/><rect class="c" x="546" y="82" width="12" height="12"/><rect class="c" x="546" y="98" width="12" height="12"/><rect class="c" x="562" y="2" width="12" height="12"/><rect class="c cw" x="562" y="18" width="12" height="12"/><rect class="c" x="562" y="34" width="12" height="12"/><rect class="c" x="562" y="50" width="12" height="12"/><rect class="c cx" x="562" y="66" width="12" height="12"/><rect class="c cy" x="562" y="82" width="12" height="12"/><rect class="c cz" x="562" y="98" width="12" height="12"/><rect class="c c10" x="578" y="2" width="12" height="12"/><rect class="c c11" x="578" y="18" width="12" height="12"/><rect class="c c12" x="578" y="34" width="12" height="12"/><rect class="c" x="578" y="50" width="12" height="12"/><rect class="c" x="578" y="66" width="12" height="12"/><rect class="c" x="578" y="82" width="12" height="12"/><rect class="c" x="578" y="98" width="12" height="12"/><rect class="c" x="594" y="2" width="12" height="12"/><rect class="c" x="594" y="18" width="12" height="12"/><rect class="c" x="594" y="34" width="12" height="12"/><rect class="c" x="594" y="50" width="12" height="12"/><rect class="c" x="594" y="66" width="12" height="12"/><rect class="c" x="594" y="82" width="12" height="12"/><rect class="c" x="594" y="98" width="12" height="12"/><rect class="c" x="610" y="2" width="12" height="12"/><rect class="c" x="610" y="18" width="12" height="12"/><rect class="c" x="610" y="34" width="12" height="12"/><rect class="c" x="610" y="50" width="12" height="12"/><rect class="c" x="610" y="66" width="12" height="12"/><rect class="c" x="610" y="82" width="12" height="12"/><rect class="c" x="610" y="98" width="12" height="12"/><rect class="c c13" x="626" y="2" width="12" height="12"/><rect class="c" x="626" y="18" width="12" height="12"/><rect class="c c14" x="626" y="34" width="12" height="12"/><rect class="c" x="626" y="50" width="12" height="12"/><rect class="c" x="626" y="66" width="12" height="12"/><rect class="c c15" x="626" y="82" width="12" height="12"/><rect class="c c16" x="626" y="98" width="12" height="12"/><rect class="c c17" x="642" y="2" width="12" height="12"/><rect class="c c18" x="642" y="18" width="12" height="12"/><rect class="c" x="642" y="34" width="12" height="12"/><rect class="c c19" x="642" y="50" width="12" height="12"/><rect class="c" x="642" y="66" width="12" height="12"/><rect class="c c1a" x="642" y="82" width="12" height="12"/><rect class="c c1b" x="642" y="98" width="12" height="12"/><rect class="c" x="658" y="2" width="12" height="12"/><rect class="c c1c" x="658" y="18" width="12" height="12"/><rect class="c c1d" x="658" y="34" width="12" height="12"/><rect class="c c1e" x="658" y="50" width="12" height="12"/><rect class="c" x="658" y="66" width="12" height="12"/><rect class="c c1f" x="658" y="82" width="12" height="12"/><rect class="c" x="658" y="98" width="12" height="12"/><rect class="c c1g" x="674" y="2" width="12" height="12"/><rect class="c c1h" x="674" y="18" width="12" height="12"/><rect class="c c1i" x="674" y="34" width="12" height="12"/><rect class="c c1j" x="674" y="50" width="12" height="12"/><rect class="c" x="674" y="66" width="12" height="12"/><rect class="c" x="674" y="82" width="12" height="12"/><rect class="c" x="674" y="98" width="12" height="12"/><rect class="c c1k" x="690" y="2" width="12" height="12"/><rect class="c" x="690" y="18" width="12" height="12"/><rect class="c c1l" x="690" y="34" width="12" height="12"/><rect class="c c1m" x="690" y="50" width="12" height="12"/><rect class="c" x="690" y="66" width="12" height="12"/><rect class="c c1n" x="690" y="82" width="12" height="12"/><rect class="c" x="690" y="98" width="12" height="12"/><rect class="c c1o" x="706" y="2" width="12" height="12"/><rect class="c c1p" x="706" y="18" width="12" height="12"/><rect class="c" x="706" y="34" width="12" height="12"/><rect class="c" x="706" y="50" width="12" height="12"/><rect class="c" x="706" y="66" width="12" height="12"/><rect class="c" x="706" y="82" width="12" height="12"/><rect class="c" x="706" y="98" width="12" height="12"/><rect class="c" x="722" y="2" width="12" height="12"/><rect class="c" x="722" y="18" width="12" height="12"/><rect class="c" x="722" y="34" width="12" height="12"/><rect class="c c1q" x="722" y="50" width="12" height="12"/><rect class="c" x="722" y="66" width="12" height="12"/><rect class="c" x="722" y="82" width="12" height="12"/><rect class="c" x="722" y="98" width="12" height="12"/><rect class="c" x="738" y="2" width="12" height="12"/><rect class="c" x="738" y="18" width="12" height="12"/><rect class="c" x="738" y="34" width="12" height="12"/><rect class="c" x="738" y="50" width="12" height="12"/><rect class="c" x="738" y="66" width="12" height="12"/><rect class="c c1r" x="738" y="82" width="12" height="12"/><rect class="c" x="738" y="98" width="12" height="12"/><rect class="c" x="754" y="2" width="12" height="12"/><rect class="c c1s" x="754" y="18" width="12" height="12"/><rect class="c" x="754" y="34" width="12" height="12"/><rect class="c" x="754" y="50" width="12" height="12"/><rect class="c" x="754" y="66" width="12" height="12"/><rect class="c" x="754" y="82" width="12" height="12"/><rect class="c" x="754" y="98" width="12" height="12"/><rect class="c" x="770" y="2" width="12" height="12"/><rect class="c c1t" x="770" y="18" width="12" height="12"/><rect class="c" x="770" y="34" width="12" height="12"/><rect class="c c1u" x="770" y="50" width="12" height="12"/><rect class="c" x="770" y="66" width="12" height="12"/><rect class="c c1v" x="770" y="82" width="12" height="12"/><rect class="c" x="770" y="98" width="12" height="12"/><rect class="c" x="786" y="2" width="12" height="12"/><rect class="c" x="786" y="18" width="12" height="12"/><rect class="c" x="786" y="34" width="12" height="12"/><rect class="c c1w" x="786" y="50" width="12" height="12"/><rect class="c c1x" x="786" y="66" width="12" height="12"/><rect class="c" x="786" y="82" width="12" height="12"/><rect class="c" x="786" y="98" width="12" height="12"/><rect class="c c1y" x="802" y="2" width="12" height="12"/><rect class="c c1z" x="802" y="18" width="12" height="12"/><rect class="c c20" x="802" y="34" width="12" height="12"/><rect class="c c21" x="802" y="50" width="12" height="12"/><rect class="c c22" x="802" y="66" width="12" height="12"/><rect class="c c23" x="802" y="82" width="12" height="12"/><rect class="c c24" x="802" y="98" width="12" height="12"/><rect class="c c25" x="818" y="2" width="12" height="12"/><rect class="c c26" x="818" y="18" width="12" height="12"/><rect class="c" x="818" y="34" width="12" height="12"/><rect class="c c27" x="818" y="50" width="12" height="12"/><rect class="c c28" x="818" y="66" width="12" height="12"/><rect class="c c29" x="818" y="82" width="12" height="12"/><rect class="c c2a" x="818" y="98" width="12" height="12"/><rect class="c" x="834" y="2" width="12" height="12"/><rect class="u u0" height="12" width="715.8" x="0.0" y="144"/><rect class="u u1" height="12" width="113.0" x="715.2" y="144"/><rect class="u u2" height="12" width="21.0" x="827.6" y="144"/><rect class="s s0" x="0.8" y="0.8" width="14.4" height="14.4" rx="4.5" ry="4.5"/><rect class="s s1" x="1.8" y="1.8" width="12.3" height="12.3" rx="4.1" ry="4.1"/><rect class="s s2" x="2.6" y="2.6" width="10.8" height="10.8" rx="3.6" ry="3.6"/><rect class="s s3" x="3.0" y="3.0" width="9.9" height="9.9" rx="3.3" ry="3.3"/></svg>