<svg viewBox="-16 -32 880 192" width="880" height="192" xmlns="http://www.w3.org/2000/svg"><desc>Generated with https://github.com/Platane/snk</desc><style>@keyframes c0{47.03%{fill:var(--c2)}47.05%,to{fill:var(--ce)}}@keyframes c1{45.63%{fill:var(--c1)}45.65%,to{fill:var(--ce)}}@keyframes c2{45.29%{fill:var(--c1)}45.31%,to{fill:var(--ce)}}@keyframes c3{1.73%{fill:var(--c1)}1.75%,to{fill:var(--ce)}}@keyframes c4{4.52%{fill:var(--c1)}4.54%,to{fill:var(--ce)}}@keyframes c5{49.82%{fill:var(--c2)}49.84%,to{fill:var(--ce)}}@keyframes c6{3.13%{fill:var(--c1)}3.15%,to{fill:var(--ce)}}@keyframes c7{4.17%{fill:var(--c1)}4.19%,to{fill:var(--ce)}}@keyframes c8{5.22%{fill:var(--c1)}5.24%,to{fill:var(--ce)}}@keyframes c9{9.75%{fill:var(--c1)}9.77%,to{fill:var(--ce)}}@keyframes ca{3.47%{fill:var(--c1)}3.49%,to{fill:var(--ce)}}@keyframes cb{3.82%{fill:var(--c1)}3.84%,to{fill:var(--ce)}}@keyframes cc{5.56%{fill:var(--c1)}5.58%,to{fill:var(--ce)}}@keyframes cd{78.39%{fill:var(--c3)}78.41%,to{fill:var(--ce)}}@keyframes ce{78.04%{fill:var(--c3)}78.06%,to{fill:var(--ce)}}@keyframes cf{80.13%{fill:var(--c3)}80.15%,to{fill:var(--ce)}}@keyframes cg{6.96%{fill:var(--c1)}6.98%,to{fill:var(--ce)}}@keyframes ch{51.91%{fill:var(--c2)}51.93%,to{fill:var(--ce)}}@keyframes ci{13.23%{fill:var(--c1)}13.25%,to{fill:var(--ce)}}@keyframes cj{13.93%{fill:var(--c1)}13.95%,to{fill:var(--ce)}}@keyframes ck{14.28%{fill:var(--c1)}14.3%,to{fill:var(--ce)}}@keyframes cl{57.83%{fill:var(--c2)}57.85%,to{fill:var(--ce)}}@keyframes cm{15.67%{fill:var(--c1)}15.69%,to{fill:var(--ce)}}@keyframes cn{16.02%{fill:var(--c1)}16.04%,to{fill:var(--ce)}}@keyframes co{57.13%{fill:var(--c2)}57.15%,to{fill:var(--ce)}}@keyframes cp{19.85%{fill:var(--c1)}19.87%,to{fill:var(--ce)}}@keyframes cq{86.05%{fill:var(--c4)}86.07%,to{fill:var(--ce)}}@keyframes cr{16.71%{fill:var(--c1)}16.73%,to{fill:var(--ce)}}@keyframes cs{17.41%{fill:var(--c1)}17.43%,to{fill:var(--ce)}}@keyframes ct{59.57%{fill:var(--c2)}59.59%,to{fill:var(--ce)}}@keyframes cu{71.07%{fill:var(--c3)}71.09%,to{fill:var(--ce)}}@keyframes cv{63.75%{fill:var(--c2)}63.77%,to{fill:var(--ce)}}@keyframes cw{64.1%{fill:var(--c3)}64.12%,to{fill:var(--ce)}}@keyframes cx{88.84%{fill:var(--c4)}88.86%,to{fill:var(--ce)}}@keyframes cy{65.84%{fill:var(--c3)}65.86%,to{fill:var(--ce)}}@keyframes cz{22.99%{fill:var(--c1)}23.01%,to{fill:var(--ce)}}@keyframes c10{62.01%{fill:var(--c2)}62.03%,to{fill:var(--ce)}}@keyframes c11{23.33%{fill:var(--c1)}23.35%,to{fill:var(--ce)}}@keyframes c12{67.59%{fill:var(--c3)}67.61%,to{fill:var(--ce)}}@keyframes c13{25.43%{fill:var(--c1)}25.45%,to{fill:var(--ce)}}@keyframes c14{28.91%{fill:var(--c1)}28.93%,to{fill:var(--ce)}}@keyframes c15{28.56%{fill:var(--c1)}28.58%,to{fill:var(--ce)}}@keyframes u0{1.73%{transform:scale(0,1)}1.75%,3.13%{transform:scale(.04,1)}3.15%,3.47%{transform:scale(.08,1)}3.49%,3.82%{transform:scale(.12,1)}3.84%,4.17%{transform:scale(.16,1)}4.19%,4.52%{transform:scale(.2,1)}4.54%,5.22%{transform:scale(.24,1)}5.24%,5.56%{transform:scale(.28,1)}5.58%,6.96%{transform:scale(.32,1)}6.98%,9.75%{transform:scale(.36,1)}13.23%,9.77%{transform:scale(.4,1)}13.25%,13.93%{transform:scale(.44,1)}13.95%,14.28%{transform:scale(.48,1)}14.3%,15.67%{transform:scale(.52,1)}15.69%,16.02%{transform:scale(.56,1)}16.04%,16.71%{transform:scale(.6,1)}16.73%,17.41%{transform:scale(.64,1)}17.43%,19.85%{transform:scale(.68,1)}19.87%,22.99%{transform:scale(.72,1)}23.01%,23.33%{transform:scale(.76,1)}23.35%,25.43%{transform:scale(.8,1)}25.45%,28.56%{transform:scale(.84,1)}28.58%,28.91%{transform:scale(.88,1)}28.93%,45.29%{transform:scale(.92,1)}45.31%,45.63%{transform:scale(.96,1)}45.65%,to{transform:scale(1,1)}}@keyframes u1{47.03%{transform:scale(0,1)}47.05%,49.82%{transform:scale(.13,1)}49.84%,51.91%{transform:scale(.25,1)}51.93%,57.13%{transform:scale(.38,1)}57.15%,57.83%{transform:scale(.5,1)}57.85%,59.57%{transform:scale(.63,1)}59.59%,62.01%{transform:scale(.75,1)}62.03%,63.75%{transform:scale(.88,1)}63.77%,to{transform:scale(1,1)}}@keyframes u2{64.1%{transform:scale(0,1)}64.12%,65.84%{transform:scale(.14,1)}65.86%,67.59%{transform:scale(.29,1)}67.61%,71.07%{transform:scale(.43,1)}71.09%,78.04%{transform:scale(.57,1)}78.06%,78.39%{transform:scale(.71,1)}78.41%,80.13%{transform:scale(.86,1)}80.15%,to{transform:scale(1,1)}}@keyframes u3{86.05%{transform:scale(0,1)}86.07%,88.84%{transform:scale(.5,1)}88.86%,to{transform:scale(1,1)}}@keyframes s0{0%,99.65%{transform:translate(0,-16px)}.35%{transform:translate(0,0)}1.39%{transform:translate(48px,0)}1.74%{transform:translate(48px,16px)}2.79%{transform:translate(96px,16px)}3.14%,49.13%{transform:translate(96px,32px)}3.48%,9.06%{transform:translate(112px,32px)}3.83%{transform:translate(112px,48px)}4.53%{transform:translate(80px,48px)}4.88%{transform:translate(80px,64px)}6.27%{transform:translate(144px,64px)}6.97%{transform:translate(144px,96px)}7.32%{transform:translate(128px,96px)}8.71%{transform:translate(128px,32px)}9.76%{transform:translate(112px,0)}13.59%{transform:translate(288px,0)}14.29%{transform:translate(288px,32px)}15.68%,56.1%{transform:translate(352px,32px)}16.38%{transform:translate(352px,64px)}16.72%{transform:translate(368px,64px)}17.42%{transform:translate(368px,96px)}17.77%{transform:translate(384px,96px)}19.51%{transform:translate(384px,16px)}19.86%,85.37%{transform:translate(368px,16px)}20.21%{transform:translate(368px,32px)}22.65%,33.8%,62.37%,65.16%{transform:translate(480px,32px)}23%,33.45%{transform:translate(480px,16px)}24.74%{transform:translate(560px,16px)}25.44%{transform:translate(560px,48px)}28.22%{transform:translate(688px,48px)}28.92%{transform:translate(688px,16px)}40.42%{transform:translate(176px,32px)}40.77%{transform:translate(176px,48px)}44.25%{transform:translate(16px,48px)}45.3%{transform:translate(16px,96px)}45.64%{transform:translate(0,96px)}47.04%{transform:translate(0,32px)}49.83%{transform:translate(96px,0)}51.22%{transform:translate(160px,0)}51.92%{transform:translate(160px,32px)}57.14%{transform:translate(352px,80px)}57.49%{transform:translate(336px,80px)}57.84%{transform:translate(336px,96px)}59.58%{transform:translate(416px,96px)}59.93%{transform:translate(416px,80px)}61.32%{transform:translate(480px,80px)}63.07%{transform:translate(448px,32px)}63.76%{transform:translate(448px,0)}64.46%{transform:translate(480px,0)}65.51%{transform:translate(464px,32px)}65.85%,88.15%{transform:translate(464px,48px)}67.25%{transform:translate(528px,48px)}67.6%{transform:translate(528px,32px)}69.69%{transform:translate(432px,32px)}71.08%{transform:translate(432px,96px)}78.05%{transform:translate(112px,96px)}78.4%{transform:translate(112px,80px)}78.75%{transform:translate(128px,80px)}80.14%{transform:translate(128px,16px)}86.06%{transform:translate(368px,48px)}88.85%{transform:translate(464px,16px)}96.52%{transform:translate(112px,16px)}97.21%{transform:translate(112px,-16px)}}@keyframes s1{0%,99.65%{transform:translate(16px,-16px)}.35%{transform:translate(0,-16px)}.7%{transform:translate(0,0)}1.74%{transform:translate(48px,0)}2.09%{transform:translate(48px,16px)}3.14%{transform:translate(96px,16px)}3.48%,49.48%{transform:translate(96px,32px)}3.83%,9.41%{transform:translate(112px,32px)}4.18%{transform:translate(112px,48px)}4.88%{transform:translate(80px,48px)}5.23%{transform:translate(80px,64px)}6.62%{transform:translate(144px,64px)}7.32%{transform:translate(144px,96px)}7.67%{transform:translate(128px,96px)}9.06%{transform:translate(128px,32px)}10.1%{transform:translate(112px,0)}13.94%{transform:translate(288px,0)}14.63%{transform:translate(288px,32px)}16.03%,56.45%{transform:translate(352px,32px)}16.72%{transform:translate(352px,64px)}17.07%{transform:translate(368px,64px)}17.77%{transform:translate(368px,96px)}18.12%{transform:translate(384px,96px)}19.86%{transform:translate(384px,16px)}20.21%,85.71%{transform:translate(368px,16px)}20.56%{transform:translate(368px,32px)}23%,34.15%,62.72%,65.51%{transform:translate(480px,32px)}23.34%,33.8%{transform:translate(480px,16px)}25.09%{transform:translate(560px,16px)}25.78%{transform:translate(560px,48px)}28.57%{transform:translate(688px,48px)}29.27%{transform:translate(688px,16px)}40.77%{transform:translate(176px,32px)}41.11%{transform:translate(176px,48px)}44.6%{transform:translate(16px,48px)}45.64%{transform:translate(16px,96px)}45.99%{transform:translate(0,96px)}47.39%{transform:translate(0,32px)}50.17%{transform:translate(96px,0)}51.57%{transform:translate(160px,0)}52.26%{transform:translate(160px,32px)}57.49%{transform:translate(352px,80px)}57.84%{transform:translate(336px,80px)}58.19%{transform:translate(336px,96px)}59.93%{transform:translate(416px,96px)}60.28%{transform:translate(416px,80px)}61.67%{transform:translate(480px,80px)}63.41%{transform:translate(448px,32px)}64.11%{transform:translate(448px,0)}64.81%{transform:translate(480px,0)}65.85%{transform:translate(464px,32px)}66.2%,88.5%{transform:translate(464px,48px)}67.6%{transform:translate(528px,48px)}67.94%{transform:translate(528px,32px)}70.03%{transform:translate(432px,32px)}71.43%{transform:translate(432px,96px)}78.4%{transform:translate(112px,96px)}78.75%{transform:translate(112px,80px)}79.09%{transform:translate(128px,80px)}80.49%{transform:translate(128px,16px)}86.41%{transform:translate(368px,48px)}89.2%{transform:translate(464px,16px)}96.86%{transform:translate(112px,16px)}97.56%{transform:translate(112px,-16px)}}@keyframes s2{0%,99.65%{transform:translate(32px,-16px)}.7%{transform:translate(0,-16px)}1.05%{transform:translate(0,0)}2.09%{transform:translate(48px,0)}2.44%{transform:translate(48px,16px)}3.48%{transform:translate(96px,16px)}3.83%,49.83%{transform:translate(96px,32px)}4.18%,9.76%{transform:translate(112px,32px)}4.53%{transform:translate(112px,48px)}5.23%{transform:translate(80px,48px)}5.57%{transform:translate(80px,64px)}6.97%{transform:translate(144px,64px)}7.67%{transform:translate(144px,96px)}8.01%{transform:translate(128px,96px)}9.41%{transform:translate(128px,32px)}10.45%{transform:translate(112px,0)}14.29%{transform:translate(288px,0)}14.98%{transform:translate(288px,32px)}16.38%,56.79%{transform:translate(352px,32px)}17.07%{transform:translate(352px,64px)}17.42%{transform:translate(368px,64px)}18.12%{transform:translate(368px,96px)}18.47%{transform:translate(384px,96px)}20.21%{transform:translate(384px,16px)}20.56%,86.06%{transform:translate(368px,16px)}20.91%{transform:translate(368px,32px)}23.34%,34.49%,63.07%,65.85%{transform:translate(480px,32px)}23.69%,34.15%{transform:translate(480px,16px)}25.44%{transform:translate(560px,16px)}26.13%{transform:translate(560px,48px)}28.92%{transform:translate(688px,48px)}29.62%{transform:translate(688px,16px)}41.11%{transform:translate(176px,32px)}41.46%{transform:translate(176px,48px)}44.95%{transform:translate(16px,48px)}45.99%{transform:translate(16px,96px)}46.34%{transform:translate(0,96px)}47.74%{transform:translate(0,32px)}50.52%{transform:translate(96px,0)}51.92%{transform:translate(160px,0)}52.61%{transform:translate(160px,32px)}57.84%{transform:translate(352px,80px)}58.19%{transform:translate(336px,80px)}58.54%{transform:translate(336px,96px)}60.28%{transform:translate(416px,96px)}60.63%{transform:translate(416px,80px)}62.02%{transform:translate(480px,80px)}63.76%{transform:translate(448px,32px)}64.46%{transform:translate(448px,0)}65.16%{transform:translate(480px,0)}66.2%{transform:translate(464px,32px)}66.55%,88.85%{transform:translate(464px,48px)}67.94%{transform:translate(528px,48px)}68.29%{transform:translate(528px,32px)}70.38%{transform:translate(432px,32px)}71.78%{transform:translate(432px,96px)}78.75%{transform:translate(112px,96px)}79.09%{transform:translate(112px,80px)}79.44%{transform:translate(128px,80px)}80.84%{transform:translate(128px,16px)}86.76%{transform:translate(368px,48px)}89.55%{transform:translate(464px,16px)}97.21%{transform:translate(112px,16px)}97.91%{transform:translate(112px,-16px)}}@keyframes s3{0%,99.65%{transform:translate(48px,-16px)}1.05%{transform:translate(0,-16px)}1.39%{transform:translate(0,0)}2.44%{transform:translate(48px,0)}2.79%{transform:translate(48px,16px)}3.83%{transform:translate(96px,16px)}4.18%,50.17%{transform:translate(96px,32px)}10.1%,4.53%{transform:translate(112px,32px)}4.88%{transform:translate(112px,48px)}5.57%{transform:translate(80px,48px)}5.92%{transform:translate(80px,64px)}7.32%{transform:translate(144px,64px)}8.01%{transform:translate(144px,96px)}8.36%{transform:translate(128px,96px)}9.76%{transform:translate(128px,32px)}10.8%{transform:translate(112px,0)}14.63%{transform:translate(288px,0)}15.33%{transform:translate(288px,32px)}16.72%,57.14%{transform:translate(352px,32px)}17.42%{transform:translate(352px,64px)}17.77%{transform:translate(368px,64px)}18.47%{transform:translate(368px,96px)}18.82%{transform:translate(384px,96px)}20.56%{transform:translate(384px,16px)}20.91%,86.41%{transform:translate(368px,16px)}21.25%{transform:translate(368px,32px)}23.69%,34.84%,63.41%,66.2%{transform:translate(480px,32px)}24.04%,34.49%{transform:translate(480px,16px)}25.78%{transform:translate(560px,16px)}26.48%{transform:translate(560px,48px)}29.27%{transform:translate(688px,48px)}29.97%{transform:translate(688px,16px)}41.46%{transform:translate(176px,32px)}41.81%{transform:translate(176px,48px)}45.3%{transform:translate(16px,48px)}46.34%{transform:translate(16px,96px)}46.69%{transform:translate(0,96px)}48.08%{transform:translate(0,32px)}50.87%{transform:translate(96px,0)}52.26%{transform:translate(160px,0)}52.96%{transform:translate(160px,32px)}58.19%{transform:translate(352px,80px)}58.54%{transform:translate(336px,80px)}58.89%{transform:translate(336px,96px)}60.63%{transform:translate(416px,96px)}60.98%{transform:translate(416px,80px)}62.37%{transform:translate(480px,80px)}64.11%{transform:translate(448px,32px)}64.81%{transform:translate(448px,0)}65.51%{transform:translate(480px,0)}66.55%{transform:translate(464px,32px)}66.9%,89.2%{transform:translate(464px,48px)}68.29%{transform:translate(528px,48px)}68.64%{transform:translate(528px,32px)}70.73%{transform:translate(432px,32px)}72.13%{transform:translate(432px,96px)}79.09%{transform:translate(112px,96px)}79.44%{transform:translate(112px,80px)}79.79%{transform:translate(128px,80px)}81.18%{transform:translate(128px,16px)}87.11%{transform:translate(368px,48px)}89.9%{transform:translate(464px,16px)}97.56%{transform:translate(112px,16px)}98.26%{transform:translate(112px,-16px)}}:root{--cb:#1b1f230a;--cs:purple;--ce:#ebedf0;--c0:#ebedf0;--c1:#9be9a8;--c2:#40c463;--c3:#30a14e;--c4:#216e39}@media (prefers-color-scheme:dark){:root{--cb:#1b1f230a;--cs:purple;--ce:#161b22;--c1:#01311f;--c2:#034525;--c3:#0f6d31;--c4:#00c647}}.c{shape-rendering:geometricPrecision;fill:var(--ce);stroke-width:1px;stroke:var(--cb);animation:none 28700ms linear infinite}.c.c0{fill:var(--c2);animation-name:c0}.c.c1{fill:var(--c1);animation-name:c1}.c.c2,.c.c3,.c.c4{fill:var(--c1);animation-name:c2}.c.c3,.c.c4{animation-name:c3}.c.c4{animation-name:c4}.c.c5{fill:var(--c2);animation-name:c5}.c.c6{fill:var(--c1);animation-name:c6}.c.c7,.c.c8,.c.c9{fill:var(--c1);animation-name:c7}.c.c8,.c.c9{animation-name:c8}.c.c9{animation-name:c9}.c.ca,.c.cb,.c.cc{fill:var(--c1);animation-name:ca}.c.cb,.c.cc{animation-name:cb}.c.cc{animation-name:cc}.c.cd,.c.ce,.c.cf{fill:var(--c3);animation-name:cd}.c.ce,.c.cf{animation-name:ce}.c.cf{animation-name:cf}.c.cg{fill:var(--c1);animation-name:cg}.c.ch{fill:var(--c2);animation-name:ch}.c.ci,.c.cj,.c.ck{fill:var(--c1);animation-name:ci}.c.cj,.c.ck{animation-name:cj}.c.ck{animation-name:ck}.c.cl{fill:var(--c2);animation-name:cl}.c.cm,.c.cn{fill:var(--c1);animation-name:cm}.c.cn{animation-name:cn}.c.co{fill:var(--c2);animation-name:co}.c.cp{fill:var(--c1);animation-name:cp}.c.cq{fill:var(--c4);animation-name:cq}.c.cr,.c.cs{fill:var(--c1);animation-name:cr}.c.cs{animation-name:cs}.c.ct{fill:var(--c2);animation-name:ct}.c.cu{fill:var(--c3);animation-name:cu}.c.cv{fill:var(--c2);animation-name:cv}.c.cw{fill:var(--c3);animation-name:cw}.c.cx{fill:var(--c4);animation-name:cx}.c.cy{fill:var(--c3);animation-name:cy}.c.cz{fill:var(--c1);animation-name:cz}.c.c10{fill:var(--c2);animation-name:c10}.c.c11{fill:var(--c1);animation-name:c11}.c.c12{fill:var(--c3);animation-name:c12}.c.c13,.c.c14,.c.c15{fill:var(--c1);animation-name:c13}.c.c14,.c.c15{animation-name:c14}.c.c15{animation-name:c15}.s,.u{animation:none linear 28700ms infinite}.u,.u.u0{transform-origin:0 0}.u{transform:scale(0,1)}.u.u0{fill:var(--c1);animation-name:u0}.u.u1{fill:var(--c2);animation-name:u1;transform-origin:504.8px 0}.u.u2{fill:var(--c3);animation-name:u2;transform-origin:666.3px 0}.u.u3{fill:var(--c4);animation-name:u3;transform-origin:807.6px 0}.s{shape-rendering:geometricPrecision;fill:var(--cs)}.s.s0{transform:translate(0,-16px);animation-name:s0}.s.s1{transform:translate(16px,-16px);animation-name:s1}.s.s2{transform:translate(32px,-16px);animation-name:s2}.s.s3{transform:translate(48px,-16px);animation-name:s3}</style><rect class="c" x="2" y="2" rx="2" ry="2" width="12" height="12"/><rect class="c" x="2" y="18" rx="2" ry="2" width="12" height="12"/><rect class="c c0" x="2" y="34" rx="2" ry="2" width="12" height="12"/><rect class="c" x="2" y="50" rx="2" ry="2" width="12" height="12"/><rect class="c" x="2" y="66" rx="2" ry="2" width="12" height="12"/><rect class="c" x="2" y="82" rx="2" ry="2" width="12" height="12"/><rect class="c c1" x="2" y="98" rx="2" ry="2" width="12" height="12"/><rect class="c" x="18" y="2" rx="2" ry="2" width="12" height="12"/><rect class="c" x="18" y="18" rx="2" ry="2" width="12" height="12"/><rect class="c" x="18" y="34" rx="2" ry="2" width="12" height="12"/><rect class="c" x="18" y="50" rx="2" ry="2" width="12" height="12"/><rect class="c" x="18" y="66" rx="2" ry="2" width="12" height="12"/><rect class="c" x="18" y="82" rx="2" ry="2" width="12" height="12"/><rect class="c c2" x="18" y="98" rx="2" ry="2" width="12" height="12"/><rect class="c" x="34" y="2" rx="2" ry="2" width="12" height="12"/><rect class="c" x="34" y="18" rx="2" ry="2" width="12" height="12"/><rect class="c" x="34" y="34" rx="2" ry="2" width="12" height="12"/><rect class="c" x="34" y="50" rx="2" ry="2" width="12" height="12"/><rect class="c" x="34" y="66" rx="2" ry="2" width="12" height="12"/><rect class="c" x="34" y="82" rx="2" ry="2" width="12" height="12"/><rect class="c" x="34" y="98" rx="2" ry="2" width="12" height="12"/><rect class="c" x="50" y="2" rx="2" ry="2" width="12" height="12"/><rect class="c c3" x="50" y="18" rx="2" ry="2" width="12" height="12"/><rect class="c" x="50" y="34" rx="2" ry="2" width="12" height="12"/><rect class="c" x="50" y="50" rx="2" ry="2" width="12" height="12"/><rect class="c" x="50" y="66" rx="2" ry="2" width="12" height="12"/><rect class="c" x="50" y="82" rx="2" ry="2" width="12" height="12"/><rect class="c" x="50" y="98" rx="2" ry="2" width="12" height="12"/><rect class="c" x="66" y="2" rx="2" ry="2" width="12" height="12"/><rect class="c" x="66" y="18" rx="2" ry="2" width="12" height="12"/><rect class="c" x="66" y="34" rx="2" ry="2" width="12" height="12"/><rect class="c" x="66" y="50" rx="2" ry="2" width="12" height="12"/><rect class="c" x="66" y="66" rx="2" ry="2" width="12" height="12"/><rect class="c" x="66" y="82" rx="2" ry="2" width="12" height="12"/><rect class="c" x="66" y="98" rx="2" ry="2" width="12" height="12"/><rect class="c" x="82" y="2" rx="2" ry="2" width="12" height="12"/><rect class="c" x="82" y="18" rx="2" ry="2" width="12" height="12"/><rect class="c" x="82" y="34" rx="2" ry="2" width="12" height="12"/><rect class="c c4" x="82" y="50" rx="2" ry="2" width="12" height="12"/><rect class="c" x="82" y="66" rx="2" ry="2" width="12" height="12"/><rect class="c" x="82" y="82" rx="2" ry="2" width="12" height="12"/><rect class="c" x="82" y="98" rx="2" ry="2" width="12" height="12"/><rect class="c c5" x="98" y="2" rx="2" ry="2" width="12" height="12"/><rect class="c" x="98" y="18" rx="2" ry="2" width="12" height="12"/><rect class="c c6" x="98" y="34" rx="2" ry="2" width="12" height="12"/><rect class="c c7" x="98" y="50" rx="2" ry="2" width="12" height="12"/><rect class="c c8" x="98" y="66" rx="2" ry="2" width="12" height="12"/><rect class="c" x="98" y="82" rx="2" ry="2" width="12" height="12"/><rect class="c" x="98" y="98" rx="2" ry="2" width="12" height="12"/><rect class="c c9" x="114" y="2" rx="2" ry="2" width="12" height="12"/><rect class="c" x="114" y="18" rx="2" ry="2" width="12" height="12"/><rect class="c ca" x="114" y="34" rx="2" ry="2" width="12" height="12"/><rect class="c cb" x="114" y="50" rx="2" ry="2" width="12" height="12"/><rect class="c cc" x="114" y="66" rx="2" ry="2" width="12" height="12"/><rect class="c cd" x="114" y="82" rx="2" ry="2" width="12" height="12"/><rect class="c ce" x="114" y="98" rx="2" ry="2" width="12" height="12"/><rect class="c" x="130" y="2" rx="2" ry="2" width="12" height="12"/><rect class="c cf" x="130" y="18" rx="2" ry="2" width="12" height="12"/><rect class="c" x="130" y="34" rx="2" ry="2" width="12" height="12"/><rect class="c" x="130" y="50" rx="2" ry="2" width="12" height="12"/><rect class="c" x="130" y="66" rx="2" ry="2" width="12" height="12"/><rect class="c" x="130" y="82" rx="2" ry="2" width="12" height="12"/><rect class="c" x="130" y="98" rx="2" ry="2" width="12" height="12"/><rect class="c" x="146" y="2" rx="2" ry="2" width="12" height="12"/><rect class="c" x="146" y="18" rx="2" ry="2" width="12" height="12"/><rect class="c" x="146" y="34" rx="2" ry="2" width="12" height="12"/><rect class="c" x="146" y="50" rx="2" ry="2" width="12" height="12"/><rect class="c" x="146" y="66" rx="2" ry="2" width="12" height="12"/><rect class="c" x="146" y="82" rx="2" ry="2" width="12" height="12"/><rect class="c cg" x="146" y="98" rx="2" ry="2" width="12" height="12"/><rect class="c" x="162" y="2" rx="2" ry="2" width="12" height="12"/><rect class="c" x="162" y="18" rx="2" ry="2" width="12" height="12"/><rect class="c ch" x="162" y="34" rx="2" ry="2" width="12" height="12"/><rect class="c" x="162" y="50" rx="2" ry="2" width="12" height="12"/><rect class="c" x="162" y="66" rx="2" ry="2" width="12" height="12"/><rect class="c" x="162" y="82" rx="2" ry="2" width="12" height="12"/><rect class="c" x="162" y="98" rx="2" ry="2" width="12" height="12"/><rect class="c" x="178" y="2" rx="2" ry="2" width="12" height="12"/><rect class="c" x="178" y="18" rx="2" ry="2" width="12" height="12"/><rect class="c" x="178" y="34" rx="2" ry="2" width="12" height="12"/><rect class="c" x="178" y="50" rx="2" ry="2" width="12" height="12"/><rect class="c" x="178" y="66" rx="2" ry="2" width="12" height="12"/><rect class="c" x="178" y="82" rx="2" ry="2" width="12" height="12"/><rect class="c" x="178" y="98" rx="2" ry="2" width="12" height="12"/><rect class="c" x="194" y="2" rx="2" ry="2" width="12" height="12"/><rect class="c" x="194" y="18" rx="2" ry="2" width="12" height="12"/><rect class="c" x="194" y="34" rx="2" ry="2" width="12" height="12"/><rect class="c" x="194" y="50" rx="2" ry="2" width="12" height="12"/><rect class="c" x="194" y="66" rx="2" ry="2" width="12" height="12"/><rect class="c" x="194" y="82" rx="2" ry="2" width="12" height="12"/><rect class="c" x="194" y="98" rx="2" ry="2" width="12" height="12"/><rect class="c" x="210" y="2" rx="2" ry="2" width="12" height="12"/><rect class="c" x="210" y="18" rx="2" ry="2" width="12" height="12"/><rect class="c" x="210" y="34" rx="2" ry="2" width="12" height="12"/><rect class="c" x="210" y="50" rx="2" ry="2" width="12" height="12"/><rect class="c" x="210" y="66" rx="2" ry="2" width="12" height="12"/><rect class="c" x="210" y="82" rx="2" ry="2" width="12" height="12"/><rect class="c" x="210" y="98" rx="2" ry="2" width="12" height="12"/><rect class="c" x="226" y="2" rx="2" ry="2" width="12" height="12"/><rect class="c" x="226" y="18" rx="2" ry="2" width="12" height="12"/><rect class="c" x="226" y="34" rx="2" ry="2" width="12" height="12"/><rect class="c" x="226" y="50" rx="2" ry="2" width="12" height="12"/><rect class="c" x="226" y="66" rx="2" ry="2" width="12" height="12"/><rect class="c" x="226" y="82" rx="2" ry="2" width="12" height="12"/><rect class="c" x="226" y="98" rx="2" ry="2" width="12" height="12"/><rect class="c" x="242" y="2" rx="2" ry="2" width="12" height="12"/><rect class="c" x="242" y="18" rx="2" ry="2" width="12" height="12"/><rect class="c" x="242" y="34" rx="2" ry="2" width="12" height="12"/><rect class="c" x="242" y="50" rx="2" ry="2" width="12" height="12"/><rect class="c" x="242" y="66" rx="2" ry="2" width="12" height="12"/><rect class="c" x="242" y="82" rx="2" ry="2" width="12" height="12"/><rect class="c" x="242" y="98" rx="2" ry="2" width="12" height="12"/><rect class="c" x="258" y="2" rx="2" ry="2" width="12" height="12"/><rect class="c" x="258" y="18" rx="2" ry="2" width="12" height="12"/><rect class="c" x="258" y="34" rx="2" ry="2" width="12" height="12"/><rect class="c" x="258" y="50" rx="2" ry="2" width="12" height="12"/><rect class="c" x="258" y="66" rx="2" ry="2" width="12" height="12"/><rect class="c" x="258" y="82" rx="2" ry="2" width="12" height="12"/><rect class="c" x="258" y="98" rx="2" ry="2" width="12" height="12"/><rect class="c ci" x="274" y="2" rx="2" ry="2" width="12" height="12"/><rect class="c" x="274" y="18" rx="2" ry="2" width="12" height="12"/><rect class="c" x="274" y="34" rx="2" ry="2" width="12" height="12"/><rect class="c" x="274" y="50" rx="2" ry="2" width="12" height="12"/><rect class="c" x="274" y="66" rx="2" ry="2" width="12" height="12"/><rect class="c" x="274" y="82" rx="2" ry="2" width="12" height="12"/><rect class="c" x="274" y="98" rx="2" ry="2" width="12" height="12"/><rect class="c" x="290" y="2" rx="2" ry="2" width="12" height="12"/><rect class="c cj" x="290" y="18" rx="2" ry="2" width="12" height="12"/><rect class="c ck" x="290" y="34" rx="2" ry="2" width="12" height="12"/><rect class="c" x="290" y="50" rx="2" ry="2" width="12" height="12"/><rect class="c" x="290" y="66" rx="2" ry="2" width="12" height="12"/><rect class="c" x="290" y="82" rx="2" ry="2" width="12" height="12"/><rect class="c" x="290" y="98" rx="2" ry="2" width="12" height="12"/><rect class="c" x="306" y="2" rx="2" ry="2" width="12" height="12"/><rect class="c" x="306" y="18" rx="2" ry="2" width="12" height="12"/><rect class="c" x="306" y="34" rx="2" ry="2" width="12" height="12"/><rect class="c" x="306" y="50" rx="2" ry="2" width="12" height="12"/><rect class="c" x="306" y="66" rx="2" ry="2" width="12" height="12"/><rect class="c" x="306" y="82" rx="2" ry="2" width="12" height="12"/><rect class="c" x="306" y="98" rx="2" ry="2" width="12" height="12"/><rect class="c" x="322" y="2" rx="2" ry="2" width="12" height="12"/><rect class="c" x="322" y="18" rx="2" ry="2" width="12" height="12"/><rect class="c" x="322" y="34" rx="2" ry="2" width="12" height="12"/><rect class="c" x="322" y="50" rx="2" ry="2" width="12" height="12"/><rect class="c" x="322" y="66" rx="2" ry="2" width="12" height="12"/><rect class="c" x="322" y="82" rx="2" ry="2" width="12" height="12"/><rect class="c" x="322" y="98" rx="2" ry="2" width="12" height="12"/><rect class="c" x="338" y="2" rx="2" ry="2" width="12" height="12"/><rect class="c" x="338" y="18" rx="2" ry="2" width="12" height="12"/><rect class="c" x="338" y="34" rx="2" ry="2" width="12" height="12"/><rect class="c" x="338" y="50" rx="2" ry="2" width="12" height="12"/><rect class="c" x="338" y="66" rx="2" ry="2" width="12" height="12"/><rect class="c" x="338" y="82" rx="2" ry="2" width="12" height="12"/><rect class="c cl" x="338" y="98" rx="2" ry="2" width="12" height="12"/><rect class="c" x="354" y="2" rx="2" ry="2" width="12" height="12"/><rect class="c" x="354" y="18" rx="2" ry="2" width="12" height="12"/><rect class="c cm" x="354" y="34" rx="2" ry="2" width="12" height="12"/><rect class="c cn" x="354" y="50" rx="2" ry="2" width="12" height="12"/><rect class="c" x="354" y="66" rx="2" ry="2" width="12" height="12"/><rect class="c co" x="354" y="82" rx="2" ry="2" width="12" height="12"/><rect class="c" x="354" y="98" rx="2" ry="2" width="12" height="12"/><rect class="c" x="370" y="2" rx="2" ry="2" width="12" height="12"/><rect class="c cp" x="370" y="18" rx="2" ry="2" width="12" height="12"/><rect class="c" x="370" y="34" rx="2" ry="2" width="12" height="12"/><rect class="c cq" x="370" y="50" rx="2" ry="2" width="12" height="12"/><rect class="c cr" x="370" y="66" rx="2" ry="2" width="12" height="12"/><rect class="c" x="370" y="82" rx="2" ry="2" width="12" height="12"/><rect class="c cs" x="370" y="98" rx="2" ry="2" width="12" height="12"/><rect class="c" x="386" y="2" rx="2" ry="2" width="12" height="12"/><rect class="c" x="386" y="18" rx="2" ry="2" width="12" height="12"/><rect class="c" x="386" y="34" rx="2" ry="2" width="12" height="12"/><rect class="c" x="386" y="50" rx="2" ry="2" width="12" height="12"/><rect class="c" x="386" y="66" rx="2" ry="2" width="12" height="12"/><rect class="c" x="386" y="82" rx="2" ry="2" width="12" height="12"/><rect class="c" x="386" y="98" rx="2" ry="2" width="12" height="12"/><rect class="c" x="402" y="2" rx="2" ry="2" width="12" height="12"/><rect class="c" x="402" y="18" rx="2" ry="2" width="12" height="12"/><rect class="c" x="402" y="34" rx="2" ry="2" width="12" height="12"/><rect class="c" x="402" y="50" rx="2" ry="2" width="12" height="12"/><rect class="c" x="402" y="66" rx="2" ry="2" width="12" height="12"/><rect class="c" x="402" y="82" rx="2" ry="2" width="12" height="12"/><rect class="c" x="402" y="98" rx="2" ry="2" width="12" height="12"/><rect class="c" x="418" y="2" rx="2" ry="2" width="12" height="12"/><rect class="c" x="418" y="18" rx="2" ry="2" width="12" height="12"/><rect class="c" x="418" y="34" rx="2" ry="2" width="12" height="12"/><rect class="c" x="418" y="50" rx="2" ry="2" width="12" height="12"/><rect class="c" x="418" y="66" rx="2" ry="2" width="12" height="12"/><rect class="c" x="418" y="82" rx="2" ry="2" width="12" height="12"/><rect class="c ct" x="418" y="98" rx="2" ry="2" width="12" height="12"/><rect class="c" x="434" y="2" rx="2" ry="2" width="12" height="12"/><rect class="c" x="434" y="18" rx="2" ry="2" width="12" height="12"/><rect class="c" x="434" y="34" rx="2" ry="2" width="12" height="12"/><rect class="c" x="434" y="50" rx="2" ry="2" width="12" height="12"/><rect class="c" x="434" y="66" rx="2" ry="2" width="12" height="12"/><rect class="c" x="434" y="82" rx="2" ry="2" width="12" height="12"/><rect class="c cu" x="434" y="98" rx="2" ry="2" width="12" height="12"/><rect class="c cv" x="450" y="2" rx="2" ry="2" width="12" height="12"/><rect class="c" x="450" y="18" rx="2" ry="2" width="12" height="12"/><rect class="c" x="450" y="34" rx="2" ry="2" width="12" height="12"/><rect class="c" x="450" y="50" rx="2" ry="2" width="12" height="12"/><rect class="c" x="450" y="66" rx="2" ry="2" width="12" height="12"/><rect class="c" x="450" y="82" rx="2" ry="2" width="12" height="12"/><rect class="c" x="450" y="98" rx="2" ry="2" width="12" height="12"/><rect class="c cw" x="466" y="2" rx="2" ry="2" width="12" height="12"/><rect class="c cx" x="466" y="18" rx="2" ry="2" width="12" height="12"/><rect class="c" x="466" y="34" rx="2" ry="2" width="12" height="12"/><rect class="c cy" x="466" y="50" rx="2" ry="2" width="12" height="12"/><rect class="c" x="466" y="66" rx="2" ry="2" width="12" height="12"/><rect class="c" x="466" y="82" rx="2" ry="2" width="12" height="12"/><rect class="c" x="466" y="98" rx="2" ry="2" width="12" height="12"/><rect class="c" x="482" y="2" rx="2" ry="2" width="12" height="12"/><rect class="c cz" x="482" y="18" rx="2" ry="2" width="12" height="12"/><rect class="c" x="482" y="34" rx="2" ry="2" width="12" height="12"/><rect class="c c10" x="482" y="50" rx="2" ry="2" width="12" height="12"/><rect class="c" x="482" y="66" rx="2" ry="2" width="12" height="12"/><rect class="c" x="482" y="82" rx="2" ry="2" width="12" height="12"/><rect class="c" x="482" y="98" rx="2" ry="2" width="12" height="12"/><rect class="c" x="498" y="2" rx="2" ry="2" width="12" height="12"/><rect class="c c11" x="498" y="18" rx="2" ry="2" width="12" height="12"/><rect class="c" x="498" y="34" rx="2" ry="2" width="12" height="12"/><rect class="c" x="498" y="50" rx="2" ry="2" width="12" height="12"/><rect class="c" x="498" y="66" rx="2" ry="2" width="12" height="12"/><rect class="c" x="498" y="82" rx="2" ry="2" width="12" height="12"/><rect class="c" x="498" y="98" rx="2" ry="2" width="12" height="12"/><rect class="c" x="514" y="2" rx="2" ry="2" width="12" height="12"/><rect class="c" x="514" y="18" rx="2" ry="2" width="12" height="12"/><rect class="c" x="514" y="34" rx="2" ry="2" width="12" height="12"/><rect class="c" x="514" y="50" rx="2" ry="2" width="12" height="12"/><rect class="c" x="514" y="66" rx="2" ry="2" width="12" height="12"/><rect class="c" x="514" y="82" rx="2" ry="2" width="12" height="12"/><rect class="c" x="514" y="98" rx="2" ry="2" width="12" height="12"/><rect class="c" x="530" y="2" rx="2" ry="2" width="12" height="12"/><rect class="c" x="530" y="18" rx="2" ry="2" width="12" height="12"/><rect class="c c12" x="530" y="34" rx="2" ry="2" width="12" height="12"/><rect class="c" x="530" y="50" rx="2" ry="2" width="12" height="12"/><rect class="c" x="530" y="66" rx="2" ry="2" width="12" height="12"/><rect class="c" x="530" y="82" rx="2" ry="2" width="12" height="12"/><rect class="c" x="530" y="98" rx="2" ry="2" width="12" height="12"/><rect class="c" x="546" y="2" rx="2" ry="2" width="12" height="12"/><rect class="c" x="546" y="18" rx="2" ry="2" width="12" height="12"/><rect class="c" x="546" y="34" rx="2" ry="2" width="12" height="12"/><rect class="c" x="546" y="50" rx="2" ry="2" width="12" height="12"/><rect class="c" x="546" y="66" rx="2" ry="2" width="12" height="12"/><rect class="c" x="546" y="82" rx="2" ry="2" width="12" height="12"/><rect class="c" x="546" y="98" rx="2" ry="2" width="12" height="12"/><rect class="c" x="562" y="2" rx="2" ry="2" width="12" height="12"/><rect class="c" x="562" y="18" rx="2" ry="2" width="12" height="12"/><rect class="c" x="562" y="34" rx="2" ry="2" width="12" height="12"/><rect class="c c13" x="562" y="50" rx="2" ry="2" width="12" height="12"/><rect class="c" x="562" y="66" rx="2" ry="2" width="12" height="12"/><rect class="c" x="562" y="82" rx="2" ry="2" width="12" height="12"/><rect class="c" x="562" y="98" rx="2" ry="2" width="12" height="12"/><rect class="c" x="578" y="2" rx="2" ry="2" width="12" height="12"/><rect class="c" x="578" y="18" rx="2" ry="2" width="12" height="12"/><rect class="c" x="578" y="34" rx="2" ry="2" width="12" height="12"/><rect class="c" x="578" y="50" rx="2" ry="2" width="12" height="12"/><rect class="c" x="578" y="66" rx="2" ry="2" width="12" height="12"/><rect class="c" x="578" y="82" rx="2" ry="2" width="12" height="12"/><rect class="c" x="578" y="98" rx="2" ry="2" width="12" height="12"/><rect class="c" x="594" y="2" rx="2" ry="2" width="12" height="12"/><rect class="c" x="594" y="18" rx="2" ry="2" width="12" height="12"/><rect class="c" x="594" y="34" rx="2" ry="2" width="12" height="12"/><rect class="c" x="594" y="50" rx="2" ry="2" width="12" height="12"/><rect class="c" x="594" y="66" rx="2" ry="2" width="12" height="12"/><rect class="c" x="594" y="82" rx="2" ry="2" width="12" height="12"/><rect class="c" x="594" y="98" rx="2" ry="2" width="12" height="12"/><rect class="c" x="610" y="2" rx="2" ry="2" width="12" height="12"/><rect class="c" x="610" y="18" rx="2" ry="2" width="12" height="12"/><rect class="c" x="610" y="34" rx="2" ry="2" width="12" height="12"/><rect class="c" x="610" y="50" rx="2" ry="2" width="12" height="12"/><rect class="c" x="610" y="66" rx="2" ry="2" width="12" height="12"/><rect class="c" x="610" y="82" rx="2" ry="2" width="12" height="12"/><rect class="c" x="610" y="98" rx="2" ry="2" width="12" height="12"/><rect class="c" x="626" y="2" rx="2" ry="2" width="12" height="12"/><rect class="c" x="626" y="18" rx="2" ry="2" width="12" height="12"/><rect class="c" x="626" y="34" rx="2" ry="2" width="12" height="12"/><rect class="c" x="626" y="50" rx="2" ry="2" width="12" height="12"/><rect class="c" x="626" y="66" rx="2" ry="2" width="12" height="12"/><rect class="c" x="626" y="82" rx="2" ry="2" width="12" height="12"/><rect class="c" x="626" y="98" rx="2" ry="2" width="12" height="12"/><rect class="c" x="642" y="2" rx="2" ry="2" width="12" height="12"/><rect class="c" x="642" y="18" rx="2" ry="2" width="12" height="12"/><rect class="c" x="642" y="34" rx="2" ry="2" width="12" height="12"/><rect class="c" x="642" y="50" rx="2" ry="2" width="12" height="12"/><rect class="c" x="642" y="66" rx="2" ry="2" width="12" height="12"/><rect class="c" x="642" y="82" rx="2" ry="2" width="12" height="12"/><rect class="c" x="642" y="98" rx="2" ry="2" width="12" height="12"/><rect class="c" x="658" y="2" rx="2" ry="2" width="12" height="12"/><rect class="c" x="658" y="18" rx="2" ry="2" width="12" height="12"/><rect class="c" x="658" y="34" rx="2" ry="2" width="12" height="12"/><rect class="c" x="658" y="50" rx="2" ry="2" width="12" height="12"/><rect class="c" x="658" y="66" rx="2" ry="2" width="12" height="12"/><rect class="c" x="658" y="82" rx="2" ry="2" width="12" height="12"/><rect class="c" x="658" y="98" rx="2" ry="2" width="12" height="12"/><rect class="c" x="674" y="2" rx="2" ry="2" width="12" height="12"/><rect class="c" x="674" y="18" rx="2" ry="2" width="12" height="12"/><rect class="c" x="674" y="34" rx="2" ry="2" width="12" height="12"/><rect class="c" x="674" y="50" rx="2" ry="2" width="12" height="12"/><rect class="c" x="674" y="66" rx="2" ry="2" width="12" height="12"/><rect class="c" x="674" y="82" rx="2" ry="2" width="12" height="12"/><rect class="c" x="674" y="98" rx="2" ry="2" width="12" height="12"/><rect class="c" x="690" y="2" rx="2" ry="2" width="12" height="12"/><rect class="c c14" x="690" y="18" rx="2" ry="2" width="12" height="12"/><rect class="c c15" x="690" y="34" rx="2" ry="2" width="12" height="12"/><rect class="c" x="690" y="50" rx="2" ry="2" width="12" height="12"/><rect class="c" x="690" y="66" rx="2" ry="2" width="12" height="12"/><rect class="c" x="690" y="82" rx="2" ry="2" width="12" height="12"/><rect class="c" x="690" y="98" rx="2" ry="2" width="12" height="12"/><rect class="c" x="706" y="2" rx="2" ry="2" width="12" height="12"/><rect class="c" x="706" y="18" rx="2" ry="2" width="12" height="12"/><rect class="c" x="706" y="34" rx="2" ry="2" width="12" height="12"/><rect class="c" x="706" y="50" rx="2" ry="2" width="12" height="12"/><rect class="c" x="706" y="66" rx="2" ry="2" width="12" height="12"/><rect class="c" x="706" y="82" rx="2" ry="2" width="12" height="12"/><rect class="c" x="706" y="98" rx="2" ry="2" width="12" height="12"/><rect class="c" x="722" y="2" rx="2" ry="2" width="12" height="12"/><rect class="c" x="722" y="18" rx="2" ry="2" width="12" height="12"/><rect class="c" x="722" y="34" rx="2" ry="2" width="12" height="12"/><rect class="c" x="722" y="50" rx="2" ry="2" width="12" height="12"/><rect class="c" x="722" y="66" rx="2" ry="2" width="12" height="12"/><rect class="c" x="722" y="82" rx="2" ry="2" width="12" height="12"/><rect class="c" x="722" y="98" rx="2" ry="2" width="12" height="12"/><rect class="c" x="738" y="2" rx="2" ry="2" width="12" height="12"/><rect class="c" x="738" y="18" rx="2" ry="2" width="12" height="12"/><rect class="c" x="738" y="34" rx="2" ry="2" width="12" height="12"/><rect class="c" x="738" y="50" rx="2" ry="2" width="12" height="12"/><rect class="c" x="738" y="66" rx="2" ry="2" width="12" height="12"/><rect class="c" x="738" y="82" rx="2" ry="2" width="12" height="12"/><rect class="c" x="738" y="98" rx="2" ry="2" width="12" height="12"/><rect class="c" x="754" y="2" rx="2" ry="2" width="12" height="12"/><rect class="c" x="754" y="18" rx="2" ry="2" width="12" height="12"/><rect class="c" x="754" y="34" rx="2" ry="2" width="12" height="12"/><rect class="c" x="754" y="50" rx="2" ry="2" width="12" height="12"/><rect class="c" x="754" y="66" rx="2" ry="2" width="12" height="12"/><rect class="c" x="754" y="82" rx="2" ry="2" width="12" height="12"/><rect class="c" x="754" y="98" rx="2" ry="2" width="12" height="12"/><rect class="c" x="770" y="2" rx="2" ry="2" width="12" height="12"/><rect class="c" x="770" y="18" rx="2" ry="2" width="12" height="12"/><rect class="c" x="770" y="34" rx="2" ry="2" width="12" height="12"/><rect class="c" x="770" y="50" rx="2" ry="2" width="12" height="12"/><rect class="c" x="770" y="66" rx="2" ry="2" width="12" height="12"/><rect class="c" x="770" y="82" rx="2" ry="2" width="12" height="12"/><rect class="c" x="770" y="98" rx="2" ry="2" width="12" height="12"/><rect class="c" x="786" y="2" rx="2" ry="2" width="12" height="12"/><rect class="c" x="786" y="18" rx="2" ry="2" width="12" height="12"/><rect class="c" x="786" y="34" rx="2" ry="2" width="12" height="12"/><rect class="c" x="786" y="50" rx="2" ry="2" width="12" height="12"/><rect class="c" x="786" y="66" rx="2" ry="2" width="12" height="12"/><rect class="c" x="786" y="82" rx="2" ry="2" width="12" height="12"/><rect class="c" x="786" y="98" rx="2" ry="2" width="12" height="12"/><rect class="c" x="802" y="2" rx="2" ry="2" width="12" height="12"/><rect class="c" x="802" y="18" rx="2" ry="2" width="12" height="12"/><rect class="c" x="802" y="34" rx="2" ry="2" width="12" height="12"/><rect class="c" x="802" y="50" rx="2" ry="2" width="12" height="12"/><rect class="c" x="802" y="66" rx="2" ry="2" width="12" height="12"/><rect class="c" x="802" y="82" rx="2" ry="2" width="12" height="12"/><rect class="c" x="802" y="98" rx="2" ry="2" width="12" height="12"/><rect class="c" x="818" y="2" rx="2" ry="2" width="12" height="12"/><rect class="c" x="818" y="18" rx="2" ry="2" width="12" height="12"/><rect class="c" x="818" y="34" rx="2" ry="2" width="12" height="12"/><rect class="c" x="818" y="50" rx="2" ry="2" width="12" height="12"/><rect class="c" x="818" y="66" rx="2" ry="2" width="12" height="12"/><rect class="c" x="818" y="82" rx="2" ry="2" width="12" height="12"/><rect class="c" x="818" y="98" rx="2" ry="2" width="12" height="12"/><rect class="c" x="834" y="2" rx="2" ry="2" width="12" height="12"/><rect class="c" x="834" y="18" rx="2" ry="2" width="12" height="12"/><rect class="c" x="834" y="34" rx="2" ry="2" width="12" height="12"/><rect class="c" x="834" y="50" rx="2" ry="2" width="12" height="12"/><rect class="c" x="834" y="66" rx="2" ry="2" width="12" height="12"/><rect class="c" x="834" y="82" rx="2" ry="2" width="12" height="12"/><rect class="u u0" height="12" width="505.4" x="0.0" y="144"/><rect class="u u1" height="12" width="162.1" x="504.8" y="144"/><rect class="u u2" height="12" width="141.9" x="666.3" y="144"/><rect class="u u3" height="12" width="41.0" x="807.6" y="144"/><rect class="s s0" x="0.8" y="0.8" width="14.4" height="14.4" rx="4.5" ry="4.5"/><rect class="s s1" x="1.8" y="1.8" width="12.3" height="12.3" rx="4.1" ry="4.1"/><rect class="s s2" x="2.6" y="2.6" width="10.8" height="10.8" rx="3.6" ry="3.6"/><rect class="s s3" x="3.0" y="3.0" width="9.9" height="9.9" rx="3.3" ry="3.3"/></svg>