<svg viewBox="-16 -32 880 192" width="880" height="192" xmlns="http://www.w3.org/2000/svg"><desc>Generated with https://github.com/Platane/snk</desc><style>@keyframes c0{.7%{fill:var(--c1)}.72%,to{fill:var(--ce)}}@keyframes c1{1.4%{fill:var(--c1)}1.42%,to{fill:var(--ce)}}@keyframes c2{1.76%{fill:var(--c1)}1.78%,to{fill:var(--ce)}}@keyframes c3{65.01%{fill:var(--c2)}65.03%,to{fill:var(--ce)}}@keyframes c4{3.17%{fill:var(--c1)}3.19%,to{fill:var(--ce)}}@keyframes c5{3.52%{fill:var(--c1)}3.54%,to{fill:var(--ce)}}@keyframes c6{64.3%{fill:var(--c2)}64.32%,to{fill:var(--ce)}}@keyframes c7{5.29%{fill:var(--c1)}5.31%,to{fill:var(--ce)}}@keyframes c8{95.75%{fill:var(--c4)}95.77%,to{fill:var(--ce)}}@keyframes c9{63.59%{fill:var(--c2)}63.61%,to{fill:var(--ce)}}@keyframes ca{7.76%{fill:var(--c1)}7.78%,to{fill:var(--ce)}}@keyframes cb{61.83%{fill:var(--c2)}61.85%,to{fill:var(--ce)}}@keyframes cc{67.13%{fill:var(--c3)}67.15%,to{fill:var(--ce)}}@keyframes cd{70.31%{fill:var(--c3)}70.33%,to{fill:var(--ce)}}@keyframes ce{70.66%{fill:var(--c3)}70.68%,to{fill:var(--ce)}}@keyframes cf{92.92%{fill:var(--c4)}92.94%,to{fill:var(--ce)}}@keyframes cg{68.89%{fill:var(--c3)}68.91%,to{fill:var(--ce)}}@keyframes ch{12%{fill:var(--c1)}12.02%,to{fill:var(--ce)}}@keyframes ci{59.35%{fill:var(--c2)}59.37%,to{fill:var(--ce)}}@keyframes cj{12.36%{fill:var(--c1)}12.38%,to{fill:var(--ce)}}@keyframes ck{57.94%{fill:var(--c2)}57.96%,to{fill:var(--ce)}}@keyframes cl{14.48%{fill:var(--c1)}14.5%,to{fill:var(--ce)}}@keyframes cm{19.07%{fill:var(--c1)}19.09%,to{fill:var(--ce)}}@keyframes cn{54.05%{fill:var(--c2)}54.07%,to{fill:var(--ce)}}@keyframes co{17.66%{fill:var(--c1)}17.68%,to{fill:var(--ce)}}@keyframes cp{21.54%{fill:var(--c1)}21.56%,to{fill:var(--ce)}}@keyframes cq{21.9%{fill:var(--c1)}21.92%,to{fill:var(--ce)}}@keyframes cr{26.85%{fill:var(--c1)}26.87%,to{fill:var(--ce)}}@keyframes cs{27.2%{fill:var(--c1)}27.22%,to{fill:var(--ce)}}@keyframes ct{81.97%{fill:var(--c3)}81.99%,to{fill:var(--ce)}}@keyframes cu{44.16%{fill:var(--c2)}44.18%,to{fill:var(--ce)}}@keyframes cv{31.09%{fill:var(--c1)}31.11%,to{fill:var(--ce)}}@keyframes cw{30.73%{fill:var(--c1)}30.75%,to{fill:var(--ce)}}@keyframes cx{30.03%{fill:var(--c1)}30.05%,to{fill:var(--ce)}}@keyframes cy{28.97%{fill:var(--c1)}28.99%,to{fill:var(--ce)}}@keyframes cz{47.34%{fill:var(--c2)}47.36%,to{fill:var(--ce)}}@keyframes c10{31.44%{fill:var(--c1)}31.46%,to{fill:var(--ce)}}@keyframes c11{29.32%{fill:var(--c1)}29.34%,to{fill:var(--ce)}}@keyframes c12{42.39%{fill:var(--c2)}42.41%,to{fill:var(--ce)}}@keyframes c13{33.56%{fill:var(--c1)}33.58%,to{fill:var(--ce)}}@keyframes c14{33.91%{fill:var(--c1)}33.93%,to{fill:var(--ce)}}@keyframes c15{39.92%{fill:var(--c2)}39.94%,to{fill:var(--ce)}}@keyframes c16{35.33%{fill:var(--c1)}35.35%,to{fill:var(--ce)}}@keyframes c17{37.8%{fill:var(--c1)}37.82%,to{fill:var(--ce)}}@keyframes u0{.7%{transform:scale(0,1)}.72%,1.4%{transform:scale(.04,1)}1.42%,1.76%{transform:scale(.08,1)}1.78%,3.17%{transform:scale(.12,1)}3.19%,3.52%{transform:scale(.15,1)}3.54%,5.29%{transform:scale(.19,1)}5.31%,7.76%{transform:scale(.23,1)}12%,7.78%{transform:scale(.27,1)}12.02%,12.36%{transform:scale(.31,1)}12.38%,14.48%{transform:scale(.35,1)}14.5%,17.66%{transform:scale(.38,1)}17.68%,19.07%{transform:scale(.42,1)}19.09%,21.54%{transform:scale(.46,1)}21.56%,21.9%{transform:scale(.5,1)}21.92%,26.85%{transform:scale(.54,1)}26.87%,27.2%{transform:scale(.58,1)}27.22%,28.97%{transform:scale(.62,1)}28.99%,29.32%{transform:scale(.65,1)}29.34%,30.03%{transform:scale(.69,1)}30.05%,30.73%{transform:scale(.73,1)}30.75%,31.09%{transform:scale(.77,1)}31.11%,31.44%{transform:scale(.81,1)}31.46%,33.56%{transform:scale(.85,1)}33.58%,33.91%{transform:scale(.88,1)}33.93%,35.33%{transform:scale(.92,1)}35.35%,37.8%{transform:scale(.96,1)}37.82%,to{transform:scale(1,1)}}@keyframes u1{39.92%{transform:scale(0,1)}39.94%,42.39%{transform:scale(.09,1)}42.41%,44.16%{transform:scale(.18,1)}44.18%,47.34%{transform:scale(.27,1)}47.36%,54.05%{transform:scale(.36,1)}54.07%,57.94%{transform:scale(.45,1)}57.96%,59.35%{transform:scale(.55,1)}59.37%,61.83%{transform:scale(.64,1)}61.85%,63.59%{transform:scale(.73,1)}63.61%,64.3%{transform:scale(.82,1)}64.32%,65.01%{transform:scale(.91,1)}65.03%,to{transform:scale(1,1)}}@keyframes u2{67.13%{transform:scale(0,1)}67.15%,68.89%{transform:scale(.2,1)}68.91%,70.31%{transform:scale(.4,1)}70.33%,70.66%{transform:scale(.6,1)}70.68%,81.97%{transform:scale(.8,1)}81.99%,to{transform:scale(1,1)}}@keyframes u3{92.92%{transform:scale(0,1)}92.94%,95.75%{transform:scale(.5,1)}95.77%,to{transform:scale(1,1)}}@keyframes s0{0%,99.65%{transform:translate(0,-16px)}.35%{transform:translate(0,0)}1.06%{transform:translate(32px,0)}1.77%{transform:translate(32px,32px)}3.18%{transform:translate(96px,32px)}3.53%,96.11%{transform:translate(96px,48px)}3.89%{transform:translate(80px,48px)}4.24%{transform:translate(80px,32px)}4.95%{transform:translate(112px,32px)}5.3%,95.05%{transform:translate(112px,16px)}5.65%{transform:translate(128px,16px)}7.07%{transform:translate(128px,80px)}7.42%{transform:translate(112px,80px)}7.77%{transform:translate(112px,96px)}62.19%,8.48%{transform:translate(144px,96px)}8.83%{transform:translate(144px,80px)}9.89%{transform:translate(192px,80px)}10.95%,69.61%{transform:translate(192px,32px)}11.66%,59.01%{transform:translate(224px,32px)}12.01%{transform:translate(224px,16px)}13.78%{transform:translate(304px,16px)}14.49%{transform:translate(304px,48px)}17.31%{transform:translate(432px,48px)}17.67%,20.49%{transform:translate(432px,32px)}18.02%{transform:translate(448px,32px)}18.73%{transform:translate(448px,0)}19.43%{transform:translate(416px,0)}20.14%{transform:translate(416px,32px)}21.91%{transform:translate(432px,96px)}26.15%{transform:translate(624px,96px)}26.86%{transform:translate(624px,64px)}27.56%,44.52%{transform:translate(656px,64px)}27.92%{transform:translate(656px,80px)}29.33%,42.05%{transform:translate(720px,80px)}29.68%{transform:translate(720px,64px)}30.04%,43.46%{transform:translate(704px,64px)}31.1%{transform:translate(704px,16px)}32.86%{transform:translate(784px,16px)}33.92%{transform:translate(784px,64px)}34.28%{transform:translate(800px,64px)}34.98%{transform:translate(800px,96px)}35.69%{transform:translate(832px,96px)}37.81%{transform:translate(832px,0)}38.16%{transform:translate(816px,0)}39.93%{transform:translate(816px,80px)}42.4%{transform:translate(720px,96px)}42.76%{transform:translate(704px,96px)}45.23%{transform:translate(656px,32px)}46.64%{transform:translate(720px,32px)}47.35%{transform:translate(720px,0)}53.71%{transform:translate(432px,0)}54.06%{transform:translate(432px,16px)}57.6%{transform:translate(272px,16px)}57.95%{transform:translate(272px,32px)}59.72%{transform:translate(224px,64px)}61.13%{transform:translate(160px,64px)}61.84%{transform:translate(160px,96px)}62.9%{transform:translate(144px,64px)}63.96%{transform:translate(96px,64px)}64.31%{transform:translate(96px,80px)}64.66%{transform:translate(80px,80px)}65.02%{transform:translate(80px,96px)}67.84%{transform:translate(208px,96px)}69.26%{transform:translate(208px,32px)}70.32%{transform:translate(192px,0)}80.92%{transform:translate(672px,0)}81.98%{transform:translate(672px,48px)}82.33%{transform:translate(656px,48px)}83.04%{transform:translate(656px,16px)}95.76%{transform:translate(112px,48px)}97.17%{transform:translate(96px,0)}97.88%{transform:translate(64px,0)}98.23%{transform:translate(64px,-16px)}}@keyframes s1{0%,99.65%{transform:translate(16px,-16px)}.35%{transform:translate(0,-16px)}.71%{transform:translate(0,0)}1.41%{transform:translate(32px,0)}2.12%{transform:translate(32px,32px)}3.53%{transform:translate(96px,32px)}3.89%,96.47%{transform:translate(96px,48px)}4.24%{transform:translate(80px,48px)}4.59%{transform:translate(80px,32px)}5.3%{transform:translate(112px,32px)}5.65%,95.41%{transform:translate(112px,16px)}6.01%{transform:translate(128px,16px)}7.42%{transform:translate(128px,80px)}7.77%{transform:translate(112px,80px)}8.13%{transform:translate(112px,96px)}62.54%,8.83%{transform:translate(144px,96px)}9.19%{transform:translate(144px,80px)}10.25%{transform:translate(192px,80px)}11.31%,69.96%{transform:translate(192px,32px)}12.01%,59.36%{transform:translate(224px,32px)}12.37%{transform:translate(224px,16px)}14.13%{transform:translate(304px,16px)}14.84%{transform:translate(304px,48px)}17.67%{transform:translate(432px,48px)}18.02%,20.85%{transform:translate(432px,32px)}18.37%{transform:translate(448px,32px)}19.08%{transform:translate(448px,0)}19.79%{transform:translate(416px,0)}20.49%{transform:translate(416px,32px)}22.26%{transform:translate(432px,96px)}26.5%{transform:translate(624px,96px)}27.21%{transform:translate(624px,64px)}27.92%,44.88%{transform:translate(656px,64px)}28.27%{transform:translate(656px,80px)}29.68%,42.4%{transform:translate(720px,80px)}30.04%{transform:translate(720px,64px)}30.39%,43.82%{transform:translate(704px,64px)}31.45%{transform:translate(704px,16px)}33.22%{transform:translate(784px,16px)}34.28%{transform:translate(784px,64px)}34.63%{transform:translate(800px,64px)}35.34%{transform:translate(800px,96px)}36.04%{transform:translate(832px,96px)}38.16%{transform:translate(832px,0)}38.52%{transform:translate(816px,0)}40.28%{transform:translate(816px,80px)}42.76%{transform:translate(720px,96px)}43.11%{transform:translate(704px,96px)}45.58%{transform:translate(656px,32px)}47%{transform:translate(720px,32px)}47.7%{transform:translate(720px,0)}54.06%{transform:translate(432px,0)}54.42%{transform:translate(432px,16px)}57.95%{transform:translate(272px,16px)}58.3%{transform:translate(272px,32px)}60.07%{transform:translate(224px,64px)}61.48%{transform:translate(160px,64px)}62.19%{transform:translate(160px,96px)}63.25%{transform:translate(144px,64px)}64.31%{transform:translate(96px,64px)}64.66%{transform:translate(96px,80px)}65.02%{transform:translate(80px,80px)}65.37%{transform:translate(80px,96px)}68.2%{transform:translate(208px,96px)}69.61%{transform:translate(208px,32px)}70.67%{transform:translate(192px,0)}81.27%{transform:translate(672px,0)}82.33%{transform:translate(672px,48px)}82.69%{transform:translate(656px,48px)}83.39%{transform:translate(656px,16px)}96.11%{transform:translate(112px,48px)}97.53%{transform:translate(96px,0)}98.23%{transform:translate(64px,0)}98.59%{transform:translate(64px,-16px)}}@keyframes s2{0%,99.65%{transform:translate(32px,-16px)}.71%{transform:translate(0,-16px)}1.06%{transform:translate(0,0)}1.77%{transform:translate(32px,0)}2.47%{transform:translate(32px,32px)}3.89%{transform:translate(96px,32px)}4.24%,96.82%{transform:translate(96px,48px)}4.59%{transform:translate(80px,48px)}4.95%{transform:translate(80px,32px)}5.65%{transform:translate(112px,32px)}6.01%,95.76%{transform:translate(112px,16px)}6.36%{transform:translate(128px,16px)}7.77%{transform:translate(128px,80px)}8.13%{transform:translate(112px,80px)}8.48%{transform:translate(112px,96px)}62.9%,9.19%{transform:translate(144px,96px)}9.54%{transform:translate(144px,80px)}10.6%{transform:translate(192px,80px)}11.66%,70.32%{transform:translate(192px,32px)}12.37%,59.72%{transform:translate(224px,32px)}12.72%{transform:translate(224px,16px)}14.49%{transform:translate(304px,16px)}15.19%{transform:translate(304px,48px)}18.02%{transform:translate(432px,48px)}18.37%,21.2%{transform:translate(432px,32px)}18.73%{transform:translate(448px,32px)}19.43%{transform:translate(448px,0)}20.14%{transform:translate(416px,0)}20.85%{transform:translate(416px,32px)}22.61%{transform:translate(432px,96px)}26.86%{transform:translate(624px,96px)}27.56%{transform:translate(624px,64px)}28.27%,45.23%{transform:translate(656px,64px)}28.62%{transform:translate(656px,80px)}30.04%,42.76%{transform:translate(720px,80px)}30.39%{transform:translate(720px,64px)}30.74%,44.17%{transform:translate(704px,64px)}31.8%{transform:translate(704px,16px)}33.57%{transform:translate(784px,16px)}34.63%{transform:translate(784px,64px)}34.98%{transform:translate(800px,64px)}35.69%{transform:translate(800px,96px)}36.4%{transform:translate(832px,96px)}38.52%{transform:translate(832px,0)}38.87%{transform:translate(816px,0)}40.64%{transform:translate(816px,80px)}43.11%{transform:translate(720px,96px)}43.46%{transform:translate(704px,96px)}45.94%{transform:translate(656px,32px)}47.35%{transform:translate(720px,32px)}48.06%{transform:translate(720px,0)}54.42%{transform:translate(432px,0)}54.77%{transform:translate(432px,16px)}58.3%{transform:translate(272px,16px)}58.66%{transform:translate(272px,32px)}60.42%{transform:translate(224px,64px)}61.84%{transform:translate(160px,64px)}62.54%{transform:translate(160px,96px)}63.6%{transform:translate(144px,64px)}64.66%{transform:translate(96px,64px)}65.02%{transform:translate(96px,80px)}65.37%{transform:translate(80px,80px)}65.72%{transform:translate(80px,96px)}68.55%{transform:translate(208px,96px)}69.96%{transform:translate(208px,32px)}71.02%{transform:translate(192px,0)}81.63%{transform:translate(672px,0)}82.69%{transform:translate(672px,48px)}83.04%{transform:translate(656px,48px)}83.75%{transform:translate(656px,16px)}96.47%{transform:translate(112px,48px)}97.88%{transform:translate(96px,0)}98.59%{transform:translate(64px,0)}98.94%{transform:translate(64px,-16px)}}@keyframes s3{0%,99.65%{transform:translate(48px,-16px)}1.06%{transform:translate(0,-16px)}1.41%{transform:translate(0,0)}2.12%{transform:translate(32px,0)}2.83%{transform:translate(32px,32px)}4.24%{transform:translate(96px,32px)}4.59%,97.17%{transform:translate(96px,48px)}4.95%{transform:translate(80px,48px)}5.3%{transform:translate(80px,32px)}6.01%{transform:translate(112px,32px)}6.36%,96.11%{transform:translate(112px,16px)}6.71%{transform:translate(128px,16px)}8.13%{transform:translate(128px,80px)}8.48%{transform:translate(112px,80px)}8.83%{transform:translate(112px,96px)}63.25%,9.54%{transform:translate(144px,96px)}9.89%{transform:translate(144px,80px)}10.95%{transform:translate(192px,80px)}12.01%,70.67%{transform:translate(192px,32px)}12.72%,60.07%{transform:translate(224px,32px)}13.07%{transform:translate(224px,16px)}14.84%{transform:translate(304px,16px)}15.55%{transform:translate(304px,48px)}18.37%{transform:translate(432px,48px)}18.73%,21.55%{transform:translate(432px,32px)}19.08%{transform:translate(448px,32px)}19.79%{transform:translate(448px,0)}20.49%{transform:translate(416px,0)}21.2%{transform:translate(416px,32px)}22.97%{transform:translate(432px,96px)}27.21%{transform:translate(624px,96px)}27.92%{transform:translate(624px,64px)}28.62%,45.58%{transform:translate(656px,64px)}28.98%{transform:translate(656px,80px)}30.39%,43.11%{transform:translate(720px,80px)}30.74%{transform:translate(720px,64px)}31.1%,44.52%{transform:translate(704px,64px)}32.16%{transform:translate(704px,16px)}33.92%{transform:translate(784px,16px)}34.98%{transform:translate(784px,64px)}35.34%{transform:translate(800px,64px)}36.04%{transform:translate(800px,96px)}36.75%{transform:translate(832px,96px)}38.87%{transform:translate(832px,0)}39.22%{transform:translate(816px,0)}40.99%{transform:translate(816px,80px)}43.46%{transform:translate(720px,96px)}43.82%{transform:translate(704px,96px)}46.29%{transform:translate(656px,32px)}47.7%{transform:translate(720px,32px)}48.41%{transform:translate(720px,0)}54.77%{transform:translate(432px,0)}55.12%{transform:translate(432px,16px)}58.66%{transform:translate(272px,16px)}59.01%{transform:translate(272px,32px)}60.78%{transform:translate(224px,64px)}62.19%{transform:translate(160px,64px)}62.9%{transform:translate(160px,96px)}63.96%{transform:translate(144px,64px)}65.02%{transform:translate(96px,64px)}65.37%{transform:translate(96px,80px)}65.72%{transform:translate(80px,80px)}66.08%{transform:translate(80px,96px)}68.9%{transform:translate(208px,96px)}70.32%{transform:translate(208px,32px)}71.38%{transform:translate(192px,0)}81.98%{transform:translate(672px,0)}83.04%{transform:translate(672px,48px)}83.39%{transform:translate(656px,48px)}84.1%{transform:translate(656px,16px)}96.82%{transform:translate(112px,48px)}98.23%{transform:translate(96px,0)}98.94%{transform:translate(64px,0)}99.29%{transform:translate(64px,-16px)}}:root{--cb:#1b1f230a;--cs:purple;--ce:#ebedf0;--c0:#ebedf0;--c1:#9be9a8;--c2:#40c463;--c3:#30a14e;--c4:#216e39}@media (prefers-color-scheme:dark){:root{--cb:#1b1f230a;--cs:purple;--ce:#161b22;--c1:#01311f;--c2:#034525;--c3:#0f6d31;--c4:#00c647}}.c{shape-rendering:geometricPrecision;fill:var(--ce);stroke-width:1px;stroke:var(--cb);animation:none 28300ms linear infinite}.c.c0,.c.c1,.c.c2{fill:var(--c1);animation-name:c0}.c.c1,.c.c2{animation-name:c1}.c.c2{animation-name:c2}.c.c3{fill:var(--c2);animation-name:c3}.c.c4,.c.c5{fill:var(--c1);animation-name:c4}.c.c5{animation-name:c5}.c.c6{fill:var(--c2);animation-name:c6}.c.c7{fill:var(--c1);animation-name:c7}.c.c8{fill:var(--c4);animation-name:c8}.c.c9{fill:var(--c2);animation-name:c9}.c.ca{fill:var(--c1);animation-name:ca}.c.cb{fill:var(--c2);animation-name:cb}.c.cc,.c.cd,.c.ce{fill:var(--c3);animation-name:cc}.c.cd,.c.ce{animation-name:cd}.c.ce{animation-name:ce}.c.cf{fill:var(--c4);animation-name:cf}.c.cg{fill:var(--c3);animation-name:cg}.c.ch{fill:var(--c1);animation-name:ch}.c.ci{fill:var(--c2);animation-name:ci}.c.cj{fill:var(--c1);animation-name:cj}.c.ck{fill:var(--c2);animation-name:ck}.c.cl,.c.cm{fill:var(--c1);animation-name:cl}.c.cm{animation-name:cm}.c.cn{fill:var(--c2);animation-name:cn}.c.co,.c.cp{fill:var(--c1);animation-name:co}.c.cp{animation-name:cp}.c.cq,.c.cr,.c.cs{fill:var(--c1);animation-name:cq}.c.cr,.c.cs{animation-name:cr}.c.cs{animation-name:cs}.c.ct{fill:var(--c3);animation-name:ct}.c.cu{fill:var(--c2);animation-name:cu}.c.cv{fill:var(--c1);animation-name:cv}.c.cw,.c.cx,.c.cy{fill:var(--c1);animation-name:cw}.c.cx,.c.cy{animation-name:cx}.c.cy{animation-name:cy}.c.cz{fill:var(--c2);animation-name:cz}.c.c10,.c.c11{fill:var(--c1);animation-name:c10}.c.c11{animation-name:c11}.c.c12{fill:var(--c2);animation-name:c12}.c.c13,.c.c14{fill:var(--c1);animation-name:c13}.c.c14{animation-name:c14}.c.c15{fill:var(--c2);animation-name:c15}.c.c16,.c.c17{fill:var(--c1);animation-name:c16}.c.c17{animation-name:c17}.s,.u{animation:none linear 28300ms infinite}.u,.u.u0{transform-origin:0 0}.u{transform:scale(0,1)}.u.u0{fill:var(--c1);animation-name:u0}.u.u1{fill:var(--c2);animation-name:u1;transform-origin:501.1px 0}.u.u2{fill:var(--c3);animation-name:u2;transform-origin:713.1px 0}.u.u3{fill:var(--c4);animation-name:u3;transform-origin:809.5px 0}.s{shape-rendering:geometricPrecision;fill:var(--cs)}.s.s0{transform:translate(0,-16px);animation-name:s0}.s.s1{transform:translate(16px,-16px);animation-name:s1}.s.s2{transform:translate(32px,-16px);animation-name:s2}.s.s3{transform:translate(48px,-16px);animation-name:s3}</style><rect class="c" x="2" y="2" rx="2" ry="2" width="12" height="12"/><rect class="c" x="2" y="18" rx="2" ry="2" width="12" height="12"/><rect class="c" x="2" y="34" rx="2" ry="2" width="12" height="12"/><rect class="c" x="2" y="50" rx="2" ry="2" width="12" height="12"/><rect class="c" x="2" y="66" rx="2" ry="2" width="12" height="12"/><rect class="c" x="2" y="82" rx="2" ry="2" width="12" height="12"/><rect class="c" x="2" y="98" rx="2" ry="2" width="12" height="12"/><rect class="c c0" x="18" y="2" rx="2" ry="2" width="12" height="12"/><rect class="c" x="18" y="18" rx="2" ry="2" width="12" height="12"/><rect class="c" x="18" y="34" rx="2" ry="2" width="12" height="12"/><rect class="c" x="18" y="50" rx="2" ry="2" width="12" height="12"/><rect class="c" x="18" y="66" rx="2" ry="2" width="12" height="12"/><rect class="c" x="18" y="82" rx="2" ry="2" width="12" height="12"/><rect class="c" x="18" y="98" rx="2" ry="2" width="12" height="12"/><rect class="c" x="34" y="2" rx="2" ry="2" width="12" height="12"/><rect class="c c1" x="34" y="18" rx="2" ry="2" width="12" height="12"/><rect class="c c2" x="34" y="34" rx="2" ry="2" width="12" height="12"/><rect class="c" x="34" y="50" rx="2" ry="2" width="12" height="12"/><rect class="c" x="34" y="66" rx="2" ry="2" width="12" height="12"/><rect class="c" x="34" y="82" rx="2" ry="2" width="12" height="12"/><rect class="c" x="34" y="98" rx="2" ry="2" width="12" height="12"/><rect class="c" x="50" y="2" rx="2" ry="2" width="12" height="12"/><rect class="c" x="50" y="18" rx="2" ry="2" width="12" height="12"/><rect class="c" x="50" y="34" rx="2" ry="2" width="12" height="12"/><rect class="c" x="50" y="50" rx="2" ry="2" width="12" height="12"/><rect class="c" x="50" y="66" rx="2" ry="2" width="12" height="12"/><rect class="c" x="50" y="82" rx="2" ry="2" width="12" height="12"/><rect class="c" x="50" y="98" rx="2" ry="2" width="12" height="12"/><rect class="c" x="66" y="2" rx="2" ry="2" width="12" height="12"/><rect class="c" x="66" y="18" rx="2" ry="2" width="12" height="12"/><rect class="c" x="66" y="34" rx="2" ry="2" width="12" height="12"/><rect class="c" x="66" y="50" rx="2" ry="2" width="12" height="12"/><rect class="c" x="66" y="66" rx="2" ry="2" width="12" height="12"/><rect class="c" x="66" y="82" rx="2" ry="2" width="12" height="12"/><rect class="c" x="66" y="98" rx="2" ry="2" width="12" height="12"/><rect class="c" x="82" y="2" rx="2" ry="2" width="12" height="12"/><rect class="c" x="82" y="18" rx="2" ry="2" width="12" height="12"/><rect class="c" x="82" y="34" rx="2" ry="2" width="12" height="12"/><rect class="c" x="82" y="50" rx="2" ry="2" width="12" height="12"/><rect class="c" x="82" y="66" rx="2" ry="2" width="12" height="12"/><rect class="c" x="82" y="82" rx="2" ry="2" width="12" height="12"/><rect class="c c3" x="82" y="98" rx="2" ry="2" width="12" height="12"/><rect class="c" x="98" y="2" rx="2" ry="2" width="12" height="12"/><rect class="c" x="98" y="18" rx="2" ry="2" width="12" height="12"/><rect class="c c4" x="98" y="34" rx="2" ry="2" width="12" height="12"/><rect class="c c5" x="98" y="50" rx="2" ry="2" width="12" height="12"/><rect class="c" x="98" y="66" rx="2" ry="2" width="12" height="12"/><rect class="c c6" x="98" y="82" rx="2" ry="2" width="12" height="12"/><rect class="c" x="98" y="98" rx="2" ry="2" width="12" height="12"/><rect class="c" x="114" y="2" rx="2" ry="2" width="12" height="12"/><rect class="c c7" x="114" y="18" rx="2" ry="2" width="12" height="12"/><rect class="c" x="114" y="34" rx="2" ry="2" width="12" height="12"/><rect class="c c8" x="114" y="50" rx="2" ry="2" width="12" height="12"/><rect class="c c9" x="114" y="66" rx="2" ry="2" width="12" height="12"/><rect class="c" x="114" y="82" rx="2" ry="2" width="12" height="12"/><rect class="c ca" x="114" y="98" rx="2" ry="2" width="12" height="12"/><rect class="c" x="130" y="2" rx="2" ry="2" width="12" height="12"/><rect class="c" x="130" y="18" rx="2" ry="2" width="12" height="12"/><rect class="c" x="130" y="34" rx="2" ry="2" width="12" height="12"/><rect class="c" x="130" y="50" rx="2" ry="2" width="12" height="12"/><rect class="c" x="130" y="66" rx="2" ry="2" width="12" height="12"/><rect class="c" x="130" y="82" rx="2" ry="2" width="12" height="12"/><rect class="c" x="130" y="98" rx="2" ry="2" width="12" height="12"/><rect class="c" x="146" y="2" rx="2" ry="2" width="12" height="12"/><rect class="c" x="146" y="18" rx="2" ry="2" width="12" height="12"/><rect class="c" x="146" y="34" rx="2" ry="2" width="12" height="12"/><rect class="c" x="146" y="50" rx="2" ry="2" width="12" height="12"/><rect class="c" x="146" y="66" rx="2" ry="2" width="12" height="12"/><rect class="c" x="146" y="82" rx="2" ry="2" width="12" height="12"/><rect class="c" x="146" y="98" rx="2" ry="2" width="12" height="12"/><rect class="c" x="162" y="2" rx="2" ry="2" width="12" height="12"/><rect class="c" x="162" y="18" rx="2" ry="2" width="12" height="12"/><rect class="c" x="162" y="34" rx="2" ry="2" width="12" height="12"/><rect class="c" x="162" y="50" rx="2" ry="2" width="12" height="12"/><rect class="c" x="162" y="66" rx="2" ry="2" width="12" height="12"/><rect class="c" x="162" y="82" rx="2" ry="2" width="12" height="12"/><rect class="c cb" x="162" y="98" rx="2" ry="2" width="12" height="12"/><rect class="c" x="178" y="2" rx="2" ry="2" width="12" height="12"/><rect class="c" x="178" y="18" rx="2" ry="2" width="12" height="12"/><rect class="c" x="178" y="34" rx="2" ry="2" width="12" height="12"/><rect class="c" x="178" y="50" rx="2" ry="2" width="12" height="12"/><rect class="c" x="178" y="66" rx="2" ry="2" width="12" height="12"/><rect class="c" x="178" y="82" rx="2" ry="2" width="12" height="12"/><rect class="c cc" x="178" y="98" rx="2" ry="2" width="12" height="12"/><rect class="c cd" x="194" y="2" rx="2" ry="2" width="12" height="12"/><rect class="c" x="194" y="18" rx="2" ry="2" width="12" height="12"/><rect class="c" x="194" y="34" rx="2" ry="2" width="12" height="12"/><rect class="c" x="194" y="50" rx="2" ry="2" width="12" height="12"/><rect class="c" x="194" y="66" rx="2" ry="2" width="12" height="12"/><rect class="c" x="194" y="82" rx="2" ry="2" width="12" height="12"/><rect class="c" x="194" y="98" rx="2" ry="2" width="12" height="12"/><rect class="c ce" x="210" y="2" rx="2" ry="2" width="12" height="12"/><rect class="c cf" x="210" y="18" rx="2" ry="2" width="12" height="12"/><rect class="c" x="210" y="34" rx="2" ry="2" width="12" height="12"/><rect class="c cg" x="210" y="50" rx="2" ry="2" width="12" height="12"/><rect class="c" x="210" y="66" rx="2" ry="2" width="12" height="12"/><rect class="c" x="210" y="82" rx="2" ry="2" width="12" height="12"/><rect class="c" x="210" y="98" rx="2" ry="2" width="12" height="12"/><rect class="c" x="226" y="2" rx="2" ry="2" width="12" height="12"/><rect class="c ch" x="226" y="18" rx="2" ry="2" width="12" height="12"/><rect class="c" x="226" y="34" rx="2" ry="2" width="12" height="12"/><rect class="c ci" x="226" y="50" rx="2" ry="2" width="12" height="12"/><rect class="c" x="226" y="66" rx="2" ry="2" width="12" height="12"/><rect class="c" x="226" y="82" rx="2" ry="2" width="12" height="12"/><rect class="c" x="226" y="98" rx="2" ry="2" width="12" height="12"/><rect class="c" x="242" y="2" rx="2" ry="2" width="12" height="12"/><rect class="c cj" x="242" y="18" rx="2" ry="2" width="12" height="12"/><rect class="c" x="242" y="34" rx="2" ry="2" width="12" height="12"/><rect class="c" x="242" y="50" rx="2" ry="2" width="12" height="12"/><rect class="c" x="242" y="66" rx="2" ry="2" width="12" height="12"/><rect class="c" x="242" y="82" rx="2" ry="2" width="12" height="12"/><rect class="c" x="242" y="98" rx="2" ry="2" width="12" height="12"/><rect class="c" x="258" y="2" rx="2" ry="2" width="12" height="12"/><rect class="c" x="258" y="18" rx="2" ry="2" width="12" height="12"/><rect class="c" x="258" y="34" rx="2" ry="2" width="12" height="12"/><rect class="c" x="258" y="50" rx="2" ry="2" width="12" height="12"/><rect class="c" x="258" y="66" rx="2" ry="2" width="12" height="12"/><rect class="c" x="258" y="82" rx="2" ry="2" width="12" height="12"/><rect class="c" x="258" y="98" rx="2" ry="2" width="12" height="12"/><rect class="c" x="274" y="2" rx="2" ry="2" width="12" height="12"/><rect class="c" x="274" y="18" rx="2" ry="2" width="12" height="12"/><rect class="c ck" x="274" y="34" rx="2" ry="2" width="12" height="12"/><rect class="c" x="274" y="50" rx="2" ry="2" width="12" height="12"/><rect class="c" x="274" y="66" rx="2" ry="2" width="12" height="12"/><rect class="c" x="274" y="82" rx="2" ry="2" width="12" height="12"/><rect class="c" x="274" y="98" rx="2" ry="2" width="12" height="12"/><rect class="c" x="290" y="2" rx="2" ry="2" width="12" height="12"/><rect class="c" x="290" y="18" rx="2" ry="2" width="12" height="12"/><rect class="c" x="290" y="34" rx="2" ry="2" width="12" height="12"/><rect class="c" x="290" y="50" rx="2" ry="2" width="12" height="12"/><rect class="c" x="290" y="66" rx="2" ry="2" width="12" height="12"/><rect class="c" x="290" y="82" rx="2" ry="2" width="12" height="12"/><rect class="c" x="290" y="98" rx="2" ry="2" width="12" height="12"/><rect class="c" x="306" y="2" rx="2" ry="2" width="12" height="12"/><rect class="c" x="306" y="18" rx="2" ry="2" width="12" height="12"/><rect class="c" x="306" y="34" rx="2" ry="2" width="12" height="12"/><rect class="c cl" x="306" y="50" rx="2" ry="2" width="12" height="12"/><rect class="c" x="306" y="66" rx="2" ry="2" width="12" height="12"/><rect class="c" x="306" y="82" rx="2" ry="2" width="12" height="12"/><rect class="c" x="306" y="98" rx="2" ry="2" width="12" height="12"/><rect class="c" x="322" y="2" rx="2" ry="2" width="12" height="12"/><rect class="c" x="322" y="18" rx="2" ry="2" width="12" height="12"/><rect class="c" x="322" y="34" rx="2" ry="2" width="12" height="12"/><rect class="c" x="322" y="50" rx="2" ry="2" width="12" height="12"/><rect class="c" x="322" y="66" rx="2" ry="2" width="12" height="12"/><rect class="c" x="322" y="82" rx="2" ry="2" width="12" height="12"/><rect class="c" x="322" y="98" rx="2" ry="2" width="12" height="12"/><rect class="c" x="338" y="2" rx="2" ry="2" width="12" height="12"/><rect class="c" x="338" y="18" rx="2" ry="2" width="12" height="12"/><rect class="c" x="338" y="34" rx="2" ry="2" width="12" height="12"/><rect class="c" x="338" y="50" rx="2" ry="2" width="12" height="12"/><rect class="c" x="338" y="66" rx="2" ry="2" width="12" height="12"/><rect class="c" x="338" y="82" rx="2" ry="2" width="12" height="12"/><rect class="c" x="338" y="98" rx="2" ry="2" width="12" height="12"/><rect class="c" x="354" y="2" rx="2" ry="2" width="12" height="12"/><rect class="c" x="354" y="18" rx="2" ry="2" width="12" height="12"/><rect class="c" x="354" y="34" rx="2" ry="2" width="12" height="12"/><rect class="c" x="354" y="50" rx="2" ry="2" width="12" height="12"/><rect class="c" x="354" y="66" rx="2" ry="2" width="12" height="12"/><rect class="c" x="354" y="82" rx="2" ry="2" width="12" height="12"/><rect class="c" x="354" y="98" rx="2" ry="2" width="12" height="12"/><rect class="c" x="370" y="2" rx="2" ry="2" width="12" height="12"/><rect class="c" x="370" y="18" rx="2" ry="2" width="12" height="12"/><rect class="c" x="370" y="34" rx="2" ry="2" width="12" height="12"/><rect class="c" x="370" y="50" rx="2" ry="2" width="12" height="12"/><rect class="c" x="370" y="66" rx="2" ry="2" width="12" height="12"/><rect class="c" x="370" y="82" rx="2" ry="2" width="12" height="12"/><rect class="c" x="370" y="98" rx="2" ry="2" width="12" height="12"/><rect class="c" x="386" y="2" rx="2" ry="2" width="12" height="12"/><rect class="c" x="386" y="18" rx="2" ry="2" width="12" height="12"/><rect class="c" x="386" y="34" rx="2" ry="2" width="12" height="12"/><rect class="c" x="386" y="50" rx="2" ry="2" width="12" height="12"/><rect class="c" x="386" y="66" rx="2" ry="2" width="12" height="12"/><rect class="c" x="386" y="82" rx="2" ry="2" width="12" height="12"/><rect class="c" x="386" y="98" rx="2" ry="2" width="12" height="12"/><rect class="c" x="402" y="2" rx="2" ry="2" width="12" height="12"/><rect class="c" x="402" y="18" rx="2" ry="2" width="12" height="12"/><rect class="c" x="402" y="34" rx="2" ry="2" width="12" height="12"/><rect class="c" x="402" y="50" rx="2" ry="2" width="12" height="12"/><rect class="c" x="402" y="66" rx="2" ry="2" width="12" height="12"/><rect class="c" x="402" y="82" rx="2" ry="2" width="12" height="12"/><rect class="c" x="402" y="98" rx="2" ry="2" width="12" height="12"/><rect class="c" x="418" y="2" rx="2" ry="2" width="12" height="12"/><rect class="c" x="418" y="18" rx="2" ry="2" width="12" height="12"/><rect class="c" x="418" y="34" rx="2" ry="2" width="12" height="12"/><rect class="c" x="418" y="50" rx="2" ry="2" width="12" height="12"/><rect class="c" x="418" y="66" rx="2" ry="2" width="12" height="12"/><rect class="c" x="418" y="82" rx="2" ry="2" width="12" height="12"/><rect class="c" x="418" y="98" rx="2" ry="2" width="12" height="12"/><rect class="c cm" x="434" y="2" rx="2" ry="2" width="12" height="12"/><rect class="c cn" x="434" y="18" rx="2" ry="2" width="12" height="12"/><rect class="c co" x="434" y="34" rx="2" ry="2" width="12" height="12"/><rect class="c" x="434" y="50" rx="2" ry="2" width="12" height="12"/><rect class="c" x="434" y="66" rx="2" ry="2" width="12" height="12"/><rect class="c cp" x="434" y="82" rx="2" ry="2" width="12" height="12"/><rect class="c cq" x="434" y="98" rx="2" ry="2" width="12" height="12"/><rect class="c" x="450" y="2" rx="2" ry="2" width="12" height="12"/><rect class="c" x="450" y="18" rx="2" ry="2" width="12" height="12"/><rect class="c" x="450" y="34" rx="2" ry="2" width="12" height="12"/><rect class="c" x="450" y="50" rx="2" ry="2" width="12" height="12"/><rect class="c" x="450" y="66" rx="2" ry="2" width="12" height="12"/><rect class="c" x="450" y="82" rx="2" ry="2" width="12" height="12"/><rect class="c" x="450" y="98" rx="2" ry="2" width="12" height="12"/><rect class="c" x="466" y="2" rx="2" ry="2" width="12" height="12"/><rect class="c" x="466" y="18" rx="2" ry="2" width="12" height="12"/><rect class="c" x="466" y="34" rx="2" ry="2" width="12" height="12"/><rect class="c" x="466" y="50" rx="2" ry="2" width="12" height="12"/><rect class="c" x="466" y="66" rx="2" ry="2" width="12" height="12"/><rect class="c" x="466" y="82" rx="2" ry="2" width="12" height="12"/><rect class="c" x="466" y="98" rx="2" ry="2" width="12" height="12"/><rect class="c" x="482" y="2" rx="2" ry="2" width="12" height="12"/><rect class="c" x="482" y="18" rx="2" ry="2" width="12" height="12"/><rect class="c" x="482" y="34" rx="2" ry="2" width="12" height="12"/><rect class="c" x="482" y="50" rx="2" ry="2" width="12" height="12"/><rect class="c" x="482" y="66" rx="2" ry="2" width="12" height="12"/><rect class="c" x="482" y="82" rx="2" ry="2" width="12" height="12"/><rect class="c" x="482" y="98" rx="2" ry="2" width="12" height="12"/><rect class="c" x="498" y="2" rx="2" ry="2" width="12" height="12"/><rect class="c" x="498" y="18" rx="2" ry="2" width="12" height="12"/><rect class="c" x="498" y="34" rx="2" ry="2" width="12" height="12"/><rect class="c" x="498" y="50" rx="2" ry="2" width="12" height="12"/><rect class="c" x="498" y="66" rx="2" ry="2" width="12" height="12"/><rect class="c" x="498" y="82" rx="2" ry="2" width="12" height="12"/><rect class="c" x="498" y="98" rx="2" ry="2" width="12" height="12"/><rect class="c" x="514" y="2" rx="2" ry="2" width="12" height="12"/><rect class="c" x="514" y="18" rx="2" ry="2" width="12" height="12"/><rect class="c" x="514" y="34" rx="2" ry="2" width="12" height="12"/><rect class="c" x="514" y="50" rx="2" ry="2" width="12" height="12"/><rect class="c" x="514" y="66" rx="2" ry="2" width="12" height="12"/><rect class="c" x="514" y="82" rx="2" ry="2" width="12" height="12"/><rect class="c" x="514" y="98" rx="2" ry="2" width="12" height="12"/><rect class="c" x="530" y="2" rx="2" ry="2" width="12" height="12"/><rect class="c" x="530" y="18" rx="2" ry="2" width="12" height="12"/><rect class="c" x="530" y="34" rx="2" ry="2" width="12" height="12"/><rect class="c" x="530" y="50" rx="2" ry="2" width="12" height="12"/><rect class="c" x="530" y="66" rx="2" ry="2" width="12" height="12"/><rect class="c" x="530" y="82" rx="2" ry="2" width="12" height="12"/><rect class="c" x="530" y="98" rx="2" ry="2" width="12" height="12"/><rect class="c" x="546" y="2" rx="2" ry="2" width="12" height="12"/><rect class="c" x="546" y="18" rx="2" ry="2" width="12" height="12"/><rect class="c" x="546" y="34" rx="2" ry="2" width="12" height="12"/><rect class="c" x="546" y="50" rx="2" ry="2" width="12" height="12"/><rect class="c" x="546" y="66" rx="2" ry="2" width="12" height="12"/><rect class="c" x="546" y="82" rx="2" ry="2" width="12" height="12"/><rect class="c" x="546" y="98" rx="2" ry="2" width="12" height="12"/><rect class="c" x="562" y="2" rx="2" ry="2" width="12" height="12"/><rect class="c" x="562" y="18" rx="2" ry="2" width="12" height="12"/><rect class="c" x="562" y="34" rx="2" ry="2" width="12" height="12"/><rect class="c" x="562" y="50" rx="2" ry="2" width="12" height="12"/><rect class="c" x="562" y="66" rx="2" ry="2" width="12" height="12"/><rect class="c" x="562" y="82" rx="2" ry="2" width="12" height="12"/><rect class="c" x="562" y="98" rx="2" ry="2" width="12" height="12"/><rect class="c" x="578" y="2" rx="2" ry="2" width="12" height="12"/><rect class="c" x="578" y="18" rx="2" ry="2" width="12" height="12"/><rect class="c" x="578" y="34" rx="2" ry="2" width="12" height="12"/><rect class="c" x="578" y="50" rx="2" ry="2" width="12" height="12"/><rect class="c" x="578" y="66" rx="2" ry="2" width="12" height="12"/><rect class="c" x="578" y="82" rx="2" ry="2" width="12" height="12"/><rect class="c" x="578" y="98" rx="2" ry="2" width="12" height="12"/><rect class="c" x="594" y="2" rx="2" ry="2" width="12" height="12"/><rect class="c" x="594" y="18" rx="2" ry="2" width="12" height="12"/><rect class="c" x="594" y="34" rx="2" ry="2" width="12" height="12"/><rect class="c" x="594" y="50" rx="2" ry="2" width="12" height="12"/><rect class="c" x="594" y="66" rx="2" ry="2" width="12" height="12"/><rect class="c" x="594" y="82" rx="2" ry="2" width="12" height="12"/><rect class="c" x="594" y="98" rx="2" ry="2" width="12" height="12"/><rect class="c" x="610" y="2" rx="2" ry="2" width="12" height="12"/><rect class="c" x="610" y="18" rx="2" ry="2" width="12" height="12"/><rect class="c" x="610" y="34" rx="2" ry="2" width="12" height="12"/><rect class="c" x="610" y="50" rx="2" ry="2" width="12" height="12"/><rect class="c" x="610" y="66" rx="2" ry="2" width="12" height="12"/><rect class="c" x="610" y="82" rx="2" ry="2" width="12" height="12"/><rect class="c" x="610" y="98" rx="2" ry="2" width="12" height="12"/><rect class="c" x="626" y="2" rx="2" ry="2" width="12" height="12"/><rect class="c" x="626" y="18" rx="2" ry="2" width="12" height="12"/><rect class="c" x="626" y="34" rx="2" ry="2" width="12" height="12"/><rect class="c" x="626" y="50" rx="2" ry="2" width="12" height="12"/><rect class="c cr" x="626" y="66" rx="2" ry="2" width="12" height="12"/><rect class="c" x="626" y="82" rx="2" ry="2" width="12" height="12"/><rect class="c" x="626" y="98" rx="2" ry="2" width="12" height="12"/><rect class="c" x="642" y="2" rx="2" ry="2" width="12" height="12"/><rect class="c" x="642" y="18" rx="2" ry="2" width="12" height="12"/><rect class="c" x="642" y="34" rx="2" ry="2" width="12" height="12"/><rect class="c" x="642" y="50" rx="2" ry="2" width="12" height="12"/><rect class="c cs" x="642" y="66" rx="2" ry="2" width="12" height="12"/><rect class="c" x="642" y="82" rx="2" ry="2" width="12" height="12"/><rect class="c" x="642" y="98" rx="2" ry="2" width="12" height="12"/><rect class="c" x="658" y="2" rx="2" ry="2" width="12" height="12"/><rect class="c" x="658" y="18" rx="2" ry="2" width="12" height="12"/><rect class="c" x="658" y="34" rx="2" ry="2" width="12" height="12"/><rect class="c" x="658" y="50" rx="2" ry="2" width="12" height="12"/><rect class="c" x="658" y="66" rx="2" ry="2" width="12" height="12"/><rect class="c" x="658" y="82" rx="2" ry="2" width="12" height="12"/><rect class="c" x="658" y="98" rx="2" ry="2" width="12" height="12"/><rect class="c" x="674" y="2" rx="2" ry="2" width="12" height="12"/><rect class="c" x="674" y="18" rx="2" ry="2" width="12" height="12"/><rect class="c" x="674" y="34" rx="2" ry="2" width="12" height="12"/><rect class="c ct" x="674" y="50" rx="2" ry="2" width="12" height="12"/><rect class="c cu" x="674" y="66" rx="2" ry="2" width="12" height="12"/><rect class="c" x="674" y="82" rx="2" ry="2" width="12" height="12"/><rect class="c" x="674" y="98" rx="2" ry="2" width="12" height="12"/><rect class="c" x="690" y="2" rx="2" ry="2" width="12" height="12"/><rect class="c" x="690" y="18" rx="2" ry="2" width="12" height="12"/><rect class="c" x="690" y="34" rx="2" ry="2" width="12" height="12"/><rect class="c" x="690" y="50" rx="2" ry="2" width="12" height="12"/><rect class="c" x="690" y="66" rx="2" ry="2" width="12" height="12"/><rect class="c" x="690" y="82" rx="2" ry="2" width="12" height="12"/><rect class="c" x="690" y="98" rx="2" ry="2" width="12" height="12"/><rect class="c" x="706" y="2" rx="2" ry="2" width="12" height="12"/><rect class="c cv" x="706" y="18" rx="2" ry="2" width="12" height="12"/><rect class="c cw" x="706" y="34" rx="2" ry="2" width="12" height="12"/><rect class="c" x="706" y="50" rx="2" ry="2" width="12" height="12"/><rect class="c cx" x="706" y="66" rx="2" ry="2" width="12" height="12"/><rect class="c cy" x="706" y="82" rx="2" ry="2" width="12" height="12"/><rect class="c" x="706" y="98" rx="2" ry="2" width="12" height="12"/><rect class="c cz" x="722" y="2" rx="2" ry="2" width="12" height="12"/><rect class="c c10" x="722" y="18" rx="2" ry="2" width="12" height="12"/><rect class="c" x="722" y="34" rx="2" ry="2" width="12" height="12"/><rect class="c" x="722" y="50" rx="2" ry="2" width="12" height="12"/><rect class="c" x="722" y="66" rx="2" ry="2" width="12" height="12"/><rect class="c c11" x="722" y="82" rx="2" ry="2" width="12" height="12"/><rect class="c c12" x="722" y="98" rx="2" ry="2" width="12" height="12"/><rect class="c" x="738" y="2" rx="2" ry="2" width="12" height="12"/><rect class="c" x="738" y="18" rx="2" ry="2" width="12" height="12"/><rect class="c" x="738" y="34" rx="2" ry="2" width="12" height="12"/><rect class="c" x="738" y="50" rx="2" ry="2" width="12" height="12"/><rect class="c" x="738" y="66" rx="2" ry="2" width="12" height="12"/><rect class="c" x="738" y="82" rx="2" ry="2" width="12" height="12"/><rect class="c" x="738" y="98" rx="2" ry="2" width="12" height="12"/><rect class="c" x="754" y="2" rx="2" ry="2" width="12" height="12"/><rect class="c" x="754" y="18" rx="2" ry="2" width="12" height="12"/><rect class="c" x="754" y="34" rx="2" ry="2" width="12" height="12"/><rect class="c" x="754" y="50" rx="2" ry="2" width="12" height="12"/><rect class="c" x="754" y="66" rx="2" ry="2" width="12" height="12"/><rect class="c" x="754" y="82" rx="2" ry="2" width="12" height="12"/><rect class="c" x="754" y="98" rx="2" ry="2" width="12" height="12"/><rect class="c" x="770" y="2" rx="2" ry="2" width="12" height="12"/><rect class="c" x="770" y="18" rx="2" ry="2" width="12" height="12"/><rect class="c" x="770" y="34" rx="2" ry="2" width="12" height="12"/><rect class="c" x="770" y="50" rx="2" ry="2" width="12" height="12"/><rect class="c" x="770" y="66" rx="2" ry="2" width="12" height="12"/><rect class="c" x="770" y="82" rx="2" ry="2" width="12" height="12"/><rect class="c" x="770" y="98" rx="2" ry="2" width="12" height="12"/><rect class="c" x="786" y="2" rx="2" ry="2" width="12" height="12"/><rect class="c" x="786" y="18" rx="2" ry="2" width="12" height="12"/><rect class="c" x="786" y="34" rx="2" ry="2" width="12" height="12"/><rect class="c c13" x="786" y="50" rx="2" ry="2" width="12" height="12"/><rect class="c c14" x="786" y="66" rx="2" ry="2" width="12" height="12"/><rect class="c" x="786" y="82" rx="2" ry="2" width="12" height="12"/><rect class="c" x="786" y="98" rx="2" ry="2" width="12" height="12"/><rect class="c" x="802" y="2" rx="2" ry="2" width="12" height="12"/><rect class="c" x="802" y="18" rx="2" ry="2" width="12" height="12"/><rect class="c" x="802" y="34" rx="2" ry="2" width="12" height="12"/><rect class="c" x="802" y="50" rx="2" ry="2" width="12" height="12"/><rect class="c" x="802" y="66" rx="2" ry="2" width="12" height="12"/><rect class="c" x="802" y="82" rx="2" ry="2" width="12" height="12"/><rect class="c" x="802" y="98" rx="2" ry="2" width="12" height="12"/><rect class="c" x="818" y="2" rx="2" ry="2" width="12" height="12"/><rect class="c" x="818" y="18" rx="2" ry="2" width="12" height="12"/><rect class="c" x="818" y="34" rx="2" ry="2" width="12" height="12"/><rect class="c" x="818" y="50" rx="2" ry="2" width="12" height="12"/><rect class="c" x="818" y="66" rx="2" ry="2" width="12" height="12"/><rect class="c c15" x="818" y="82" rx="2" ry="2" width="12" height="12"/><rect class="c c16" x="818" y="98" rx="2" ry="2" width="12" height="12"/><rect class="c c17" x="834" y="2" rx="2" ry="2" width="12" height="12"/><rect class="u u0" height="12" width="501.7" x="0.0" y="144"/><rect class="u u1" height="12" width="212.6" x="501.1" y="144"/><rect class="u u2" height="12" width="97.0" x="713.1" y="144"/><rect class="u u3" height="12" width="39.1" x="809.5" y="144"/><rect class="s s0" x="0.8" y="0.8" width="14.4" height="14.4" rx="4.5" ry="4.5"/><rect class="s s1" x="1.8" y="1.8" width="12.3" height="12.3" rx="4.1" ry="4.1"/><rect class="s s2" x="2.6" y="2.6" width="10.8" height="10.8" rx="3.6" ry="3.6"/><rect class="s s3" x="3.0" y="3.0" width="9.9" height="9.9" rx="3.3" ry="3.3"/></svg>