<svg viewBox="-16 -32 880 192" width="880" height="192" xmlns="http://www.w3.org/2000/svg"><desc>Generated with https://github.com/Platane/snk</desc><style>@keyframes c0{59.48%{fill:var(--c1)}59.5%,to{fill:var(--ce)}}@keyframes c1{1.68%{fill:var(--c1)}1.7%,to{fill:var(--ce)}}@keyframes c2{5.05%{fill:var(--c1)}5.07%,to{fill:var(--ce)}}@keyframes c3{66.66%{fill:var(--c2)}66.68%,to{fill:var(--ce)}}@keyframes c4{3.37%{fill:var(--c1)}3.39%,to{fill:var(--ce)}}@keyframes c5{4.63%{fill:var(--c1)}4.65%,to{fill:var(--ce)}}@keyframes c6{5.9%{fill:var(--c1)}5.92%,to{fill:var(--ce)}}@keyframes c7{12.23%{fill:var(--c1)}12.25%,to{fill:var(--ce)}}@keyframes c8{3.79%{fill:var(--c1)}3.81%,to{fill:var(--ce)}}@keyframes c9{4.21%{fill:var(--c1)}4.23%,to{fill:var(--ce)}}@keyframes ca{6.32%{fill:var(--c1)}6.34%,to{fill:var(--ce)}}@keyframes cb{62.44%{fill:var(--c2)}62.46%,to{fill:var(--ce)}}@keyframes cc{62.86%{fill:var(--c2)}62.88%,to{fill:var(--ce)}}@keyframes cd{65.39%{fill:var(--c2)}65.41%,to{fill:var(--ce)}}@keyframes ce{8.01%{fill:var(--c1)}8.03%,to{fill:var(--ce)}}@keyframes cf{10.12%{fill:var(--c1)}10.14%,to{fill:var(--ce)}}@keyframes cg{17.29%{fill:var(--c1)}17.31%,to{fill:var(--ce)}}@keyframes ch{18.13%{fill:var(--c1)}18.15%,to{fill:var(--ce)}}@keyframes ci{18.56%{fill:var(--c1)}18.58%,to{fill:var(--ce)}}@keyframes cj{23.2%{fill:var(--c1)}23.22%,to{fill:var(--ce)}}@keyframes ck{20.24%{fill:var(--c1)}20.26%,to{fill:var(--ce)}}@keyframes cl{20.67%{fill:var(--c1)}20.69%,to{fill:var(--ce)}}@keyframes cm{75.52%{fill:var(--c2)}75.54%,to{fill:var(--ce)}}@keyframes cn{26.15%{fill:var(--c1)}26.17%,to{fill:var(--ce)}}@keyframes co{88.6%{fill:var(--c4)}88.62%,to{fill:var(--ce)}}@keyframes cp{21.51%{fill:var(--c1)}21.53%,to{fill:var(--ce)}}@keyframes cq{22.35%{fill:var(--c1)}22.37%,to{fill:var(--ce)}}@keyframes cr{48.09%{fill:var(--c1)}48.11%,to{fill:var(--ce)}}@keyframes cs{78.05%{fill:var(--c2)}78.07%,to{fill:var(--ce)}}@keyframes ct{28.68%{fill:var(--c1)}28.7%,to{fill:var(--ce)}}@keyframes cu{84.8%{fill:var(--c2)}84.82%,to{fill:var(--ce)}}@keyframes cv{85.22%{fill:var(--c3)}85.24%,to{fill:var(--ce)}}@keyframes cw{80.16%{fill:var(--c2)}80.18%,to{fill:var(--ce)}}@keyframes cx{30.79%{fill:var(--c1)}30.81%,to{fill:var(--ce)}}@keyframes cy{32.48%{fill:var(--c1)}32.5%,to{fill:var(--ce)}}@keyframes cz{31.21%{fill:var(--c1)}31.23%,to{fill:var(--ce)}}@keyframes c10{82.27%{fill:var(--c2)}82.29%,to{fill:var(--ce)}}@keyframes c11{34.59%{fill:var(--c1)}34.61%,to{fill:var(--ce)}}@keyframes c12{38.81%{fill:var(--c1)}38.83%,to{fill:var(--ce)}}@keyframes c13{38.39%{fill:var(--c1)}38.41%,to{fill:var(--ce)}}@keyframes u0{1.68%{transform:scale(0,1)}1.7%,3.37%{transform:scale(.03,1)}3.39%,3.79%{transform:scale(.07,1)}3.81%,4.21%{transform:scale(.1,1)}4.23%,4.63%{transform:scale(.14,1)}4.65%,5.05%{transform:scale(.17,1)}5.07%,5.9%{transform:scale(.21,1)}5.92%,6.32%{transform:scale(.24,1)}6.34%,8.01%{transform:scale(.28,1)}10.12%,8.03%{transform:scale(.31,1)}10.14%,12.23%{transform:scale(.34,1)}12.25%,17.29%{transform:scale(.38,1)}17.31%,18.13%{transform:scale(.41,1)}18.15%,18.56%{transform:scale(.45,1)}18.58%,20.24%{transform:scale(.48,1)}20.26%,20.67%{transform:scale(.52,1)}20.69%,21.51%{transform:scale(.55,1)}21.53%,22.35%{transform:scale(.59,1)}22.37%,23.2%{transform:scale(.62,1)}23.22%,26.15%{transform:scale(.66,1)}26.17%,28.68%{transform:scale(.69,1)}28.7%,30.79%{transform:scale(.72,1)}30.81%,31.21%{transform:scale(.76,1)}31.23%,32.48%{transform:scale(.79,1)}32.5%,34.59%{transform:scale(.83,1)}34.61%,38.39%{transform:scale(.86,1)}38.41%,38.81%{transform:scale(.9,1)}38.83%,48.09%{transform:scale(.93,1)}48.11%,59.48%{transform:scale(.97,1)}59.5%,to{transform:scale(1,1)}}@keyframes u1{62.44%{transform:scale(0,1)}62.46%,62.86%{transform:scale(.11,1)}62.88%,65.39%{transform:scale(.22,1)}65.41%,66.66%{transform:scale(.33,1)}66.68%,75.52%{transform:scale(.44,1)}75.54%,78.05%{transform:scale(.56,1)}78.07%,80.16%{transform:scale(.67,1)}80.18%,82.27%{transform:scale(.78,1)}82.29%,84.8%{transform:scale(.89,1)}84.82%,to{transform:scale(1,1)}}@keyframes u2{85.22%{transform:scale(0,1)}85.24%,to{transform:scale(1,1)}}@keyframes u3{88.6%{transform:scale(0,1)}88.62%,to{transform:scale(1,1)}}@keyframes s0{0%,99.58%{transform:translate(0,-16px)}.42%{transform:translate(0,0)}1.27%{transform:translate(32px,0)}1.69%{transform:translate(32px,16px)}2.95%,67.09%{transform:translate(80px,16px)}3.38%{transform:translate(80px,32px)}3.8%{transform:translate(96px,32px)}4.22%{transform:translate(96px,48px)}5.06%{transform:translate(64px,48px)}5.49%{transform:translate(64px,64px)}7.17%{transform:translate(128px,64px)}8.02%{transform:translate(128px,96px)}8.44%{transform:translate(144px,96px)}10.97%{transform:translate(144px,0)}12.24%{transform:translate(96px,0)}12.66%{transform:translate(96px,-16px)}16.88%{transform:translate(256px,-16px)}17.3%{transform:translate(256px,0)}17.72%{transform:translate(272px,0)}18.57%{transform:translate(272px,32px)}20.25%,25.32%{transform:translate(336px,32px)}21.1%,24.47%{transform:translate(336px,64px)}21.52%{transform:translate(352px,64px)}22.36%{transform:translate(352px,96px)}23.21%{transform:translate(320px,96px)}24.05%{transform:translate(320px,64px)}25.74%{transform:translate(352px,32px)}26.16%,87.76%{transform:translate(352px,16px)}28.27%{transform:translate(432px,16px)}29.11%{transform:translate(432px,-16px)}29.96%{transform:translate(464px,-16px)}30.8%,44.3%{transform:translate(464px,16px)}31.22%{transform:translate(480px,16px)}31.65%{transform:translate(480px,32px)}32.07%,44.73%{transform:translate(464px,32px)}32.49%{transform:translate(464px,48px)}37.97%{transform:translate(672px,48px)}38.82%{transform:translate(672px,16px)}46.41%{transform:translate(400px,32px)}48.1%{transform:translate(400px,96px)}55.7%,63.29%{transform:translate(112px,96px)}56.12%{transform:translate(112px,112px)}56.96%{transform:translate(80px,112px)}57.38%{transform:translate(80px,96px)}59.49%{transform:translate(0,96px)}59.92%{transform:translate(0,80px)}62.45%{transform:translate(96px,80px)}62.87%{transform:translate(96px,96px)}65.82%{transform:translate(112px,0)}66.67%{transform:translate(80px,0)}73.84%{transform:translate(336px,16px)}75.53%{transform:translate(336px,80px)}77.64%{transform:translate(416px,80px)}78.06%{transform:translate(416px,96px)}78.9%{transform:translate(448px,96px)}80.17%{transform:translate(448px,48px)}81.86%{transform:translate(512px,48px)}83.12%{transform:translate(512px,0)}84.81%{transform:translate(448px,0)}85.23%{transform:translate(448px,16px)}88.61%{transform:translate(352px,48px)}93.67%{transform:translate(160px,48px)}94.09%{transform:translate(160px,32px)}94.51%{transform:translate(144px,32px)}94.94%{transform:translate(144px,16px)}97.05%{transform:translate(64px,16px)}97.89%{transform:translate(64px,-16px)}}@keyframes s1{0%,99.58%{transform:translate(16px,-16px)}.42%{transform:translate(0,-16px)}.84%{transform:translate(0,0)}1.69%{transform:translate(32px,0)}2.11%{transform:translate(32px,16px)}3.38%,67.51%{transform:translate(80px,16px)}3.8%{transform:translate(80px,32px)}4.22%{transform:translate(96px,32px)}4.64%{transform:translate(96px,48px)}5.49%{transform:translate(64px,48px)}5.91%{transform:translate(64px,64px)}7.59%{transform:translate(128px,64px)}8.44%{transform:translate(128px,96px)}8.86%{transform:translate(144px,96px)}11.39%{transform:translate(144px,0)}12.66%{transform:translate(96px,0)}13.08%{transform:translate(96px,-16px)}17.3%{transform:translate(256px,-16px)}17.72%{transform:translate(256px,0)}18.14%{transform:translate(272px,0)}18.99%{transform:translate(272px,32px)}20.68%,25.74%{transform:translate(336px,32px)}21.52%,24.89%{transform:translate(336px,64px)}21.94%{transform:translate(352px,64px)}22.78%{transform:translate(352px,96px)}23.63%{transform:translate(320px,96px)}24.47%{transform:translate(320px,64px)}26.16%{transform:translate(352px,32px)}26.58%,88.19%{transform:translate(352px,16px)}28.69%{transform:translate(432px,16px)}29.54%{transform:translate(432px,-16px)}30.38%{transform:translate(464px,-16px)}31.22%,44.73%{transform:translate(464px,16px)}31.65%{transform:translate(480px,16px)}32.07%{transform:translate(480px,32px)}32.49%,45.15%{transform:translate(464px,32px)}32.91%{transform:translate(464px,48px)}38.4%{transform:translate(672px,48px)}39.24%{transform:translate(672px,16px)}46.84%{transform:translate(400px,32px)}48.52%{transform:translate(400px,96px)}56.12%,63.71%{transform:translate(112px,96px)}56.54%{transform:translate(112px,112px)}57.38%{transform:translate(80px,112px)}57.81%{transform:translate(80px,96px)}59.92%{transform:translate(0,96px)}60.34%{transform:translate(0,80px)}62.87%{transform:translate(96px,80px)}63.29%{transform:translate(96px,96px)}66.24%{transform:translate(112px,0)}67.09%{transform:translate(80px,0)}74.26%{transform:translate(336px,16px)}75.95%{transform:translate(336px,80px)}78.06%{transform:translate(416px,80px)}78.48%{transform:translate(416px,96px)}79.32%{transform:translate(448px,96px)}80.59%{transform:translate(448px,48px)}82.28%{transform:translate(512px,48px)}83.54%{transform:translate(512px,0)}85.23%{transform:translate(448px,0)}85.65%{transform:translate(448px,16px)}89.03%{transform:translate(352px,48px)}94.09%{transform:translate(160px,48px)}94.51%{transform:translate(160px,32px)}94.94%{transform:translate(144px,32px)}95.36%{transform:translate(144px,16px)}97.47%{transform:translate(64px,16px)}98.31%{transform:translate(64px,-16px)}}@keyframes s2{0%,99.58%{transform:translate(32px,-16px)}.84%{transform:translate(0,-16px)}1.27%{transform:translate(0,0)}2.11%{transform:translate(32px,0)}2.53%{transform:translate(32px,16px)}3.8%,67.93%{transform:translate(80px,16px)}4.22%{transform:translate(80px,32px)}4.64%{transform:translate(96px,32px)}5.06%{transform:translate(96px,48px)}5.91%{transform:translate(64px,48px)}6.33%{transform:translate(64px,64px)}8.02%{transform:translate(128px,64px)}8.86%{transform:translate(128px,96px)}9.28%{transform:translate(144px,96px)}11.81%{transform:translate(144px,0)}13.08%{transform:translate(96px,0)}13.5%{transform:translate(96px,-16px)}17.72%{transform:translate(256px,-16px)}18.14%{transform:translate(256px,0)}18.57%{transform:translate(272px,0)}19.41%{transform:translate(272px,32px)}21.1%,26.16%{transform:translate(336px,32px)}21.94%,25.32%{transform:translate(336px,64px)}22.36%{transform:translate(352px,64px)}23.21%{transform:translate(352px,96px)}24.05%{transform:translate(320px,96px)}24.89%{transform:translate(320px,64px)}26.58%{transform:translate(352px,32px)}27%,88.61%{transform:translate(352px,16px)}29.11%{transform:translate(432px,16px)}29.96%{transform:translate(432px,-16px)}30.8%{transform:translate(464px,-16px)}31.65%,45.15%{transform:translate(464px,16px)}32.07%{transform:translate(480px,16px)}32.49%{transform:translate(480px,32px)}32.91%,45.57%{transform:translate(464px,32px)}33.33%{transform:translate(464px,48px)}38.82%{transform:translate(672px,48px)}39.66%{transform:translate(672px,16px)}47.26%{transform:translate(400px,32px)}48.95%{transform:translate(400px,96px)}56.54%,64.14%{transform:translate(112px,96px)}56.96%{transform:translate(112px,112px)}57.81%{transform:translate(80px,112px)}58.23%{transform:translate(80px,96px)}60.34%{transform:translate(0,96px)}60.76%{transform:translate(0,80px)}63.29%{transform:translate(96px,80px)}63.71%{transform:translate(96px,96px)}66.67%{transform:translate(112px,0)}67.51%{transform:translate(80px,0)}74.68%{transform:translate(336px,16px)}76.37%{transform:translate(336px,80px)}78.48%{transform:translate(416px,80px)}78.9%{transform:translate(416px,96px)}79.75%{transform:translate(448px,96px)}81.01%{transform:translate(448px,48px)}82.7%{transform:translate(512px,48px)}83.97%{transform:translate(512px,0)}85.65%{transform:translate(448px,0)}86.08%{transform:translate(448px,16px)}89.45%{transform:translate(352px,48px)}94.51%{transform:translate(160px,48px)}94.94%{transform:translate(160px,32px)}95.36%{transform:translate(144px,32px)}95.78%{transform:translate(144px,16px)}97.89%{transform:translate(64px,16px)}98.73%{transform:translate(64px,-16px)}}@keyframes s3{0%,99.58%{transform:translate(48px,-16px)}1.27%{transform:translate(0,-16px)}1.69%{transform:translate(0,0)}2.53%{transform:translate(32px,0)}2.95%{transform:translate(32px,16px)}4.22%,68.35%{transform:translate(80px,16px)}4.64%{transform:translate(80px,32px)}5.06%{transform:translate(96px,32px)}5.49%{transform:translate(96px,48px)}6.33%{transform:translate(64px,48px)}6.75%{transform:translate(64px,64px)}8.44%{transform:translate(128px,64px)}9.28%{transform:translate(128px,96px)}9.7%{transform:translate(144px,96px)}12.24%{transform:translate(144px,0)}13.5%{transform:translate(96px,0)}13.92%{transform:translate(96px,-16px)}18.14%{transform:translate(256px,-16px)}18.57%{transform:translate(256px,0)}18.99%{transform:translate(272px,0)}19.83%{transform:translate(272px,32px)}21.52%,26.58%{transform:translate(336px,32px)}22.36%,25.74%{transform:translate(336px,64px)}22.78%{transform:translate(352px,64px)}23.63%{transform:translate(352px,96px)}24.47%{transform:translate(320px,96px)}25.32%{transform:translate(320px,64px)}27%{transform:translate(352px,32px)}27.43%,89.03%{transform:translate(352px,16px)}29.54%{transform:translate(432px,16px)}30.38%{transform:translate(432px,-16px)}31.22%{transform:translate(464px,-16px)}32.07%,45.57%{transform:translate(464px,16px)}32.49%{transform:translate(480px,16px)}32.91%{transform:translate(480px,32px)}33.33%,45.99%{transform:translate(464px,32px)}33.76%{transform:translate(464px,48px)}39.24%{transform:translate(672px,48px)}40.08%{transform:translate(672px,16px)}47.68%{transform:translate(400px,32px)}49.37%{transform:translate(400px,96px)}56.96%,64.56%{transform:translate(112px,96px)}57.38%{transform:translate(112px,112px)}58.23%{transform:translate(80px,112px)}58.65%{transform:translate(80px,96px)}60.76%{transform:translate(0,96px)}61.18%{transform:translate(0,80px)}63.71%{transform:translate(96px,80px)}64.14%{transform:translate(96px,96px)}67.09%{transform:translate(112px,0)}67.93%{transform:translate(80px,0)}75.11%{transform:translate(336px,16px)}76.79%{transform:translate(336px,80px)}78.9%{transform:translate(416px,80px)}79.32%{transform:translate(416px,96px)}80.17%{transform:translate(448px,96px)}81.43%{transform:translate(448px,48px)}83.12%{transform:translate(512px,48px)}84.39%{transform:translate(512px,0)}86.08%{transform:translate(448px,0)}86.5%{transform:translate(448px,16px)}89.87%{transform:translate(352px,48px)}94.94%{transform:translate(160px,48px)}95.36%{transform:translate(160px,32px)}95.78%{transform:translate(144px,32px)}96.2%{transform:translate(144px,16px)}98.31%{transform:translate(64px,16px)}99.16%{transform:translate(64px,-16px)}}:root{--cb:#1b1f230a;--cs:purple;--ce:#ebedf0;--c0:#ebedf0;--c1:#9be9a8;--c2:#40c463;--c3:#30a14e;--c4:#216e39}@media (prefers-color-scheme:dark){:root{--cb:#1b1f230a;--cs:purple;--ce:#161b22;--c1:#01311f;--c2:#034525;--c3:#0f6d31;--c4:#00c647}}.c{shape-rendering:geometricPrecision;fill:var(--ce);stroke-width:1px;stroke:var(--cb);animation:none 23700ms linear infinite}.c.c0,.c.c1,.c.c2{fill:var(--c1);animation-name:c0}.c.c1,.c.c2{animation-name:c1}.c.c2{animation-name:c2}.c.c3{fill:var(--c2);animation-name:c3}.c.c4{fill:var(--c1);animation-name:c4}.c.c5,.c.c6,.c.c7{fill:var(--c1);animation-name:c5}.c.c6,.c.c7{animation-name:c6}.c.c7{animation-name:c7}.c.c8,.c.c9,.c.ca{fill:var(--c1);animation-name:c8}.c.c9,.c.ca{animation-name:c9}.c.ca{animation-name:ca}.c.cb,.c.cc,.c.cd{fill:var(--c2);animation-name:cb}.c.cc,.c.cd{animation-name:cc}.c.cd{animation-name:cd}.c.ce,.c.cf{fill:var(--c1);animation-name:ce}.c.cf{animation-name:cf}.c.cg,.c.ch,.c.ci{fill:var(--c1);animation-name:cg}.c.ch,.c.ci{animation-name:ch}.c.ci{animation-name:ci}.c.cj,.c.ck,.c.cl{fill:var(--c1);animation-name:cj}.c.ck,.c.cl{animation-name:ck}.c.cl{animation-name:cl}.c.cm{fill:var(--c2);animation-name:cm}.c.cn{fill:var(--c1);animation-name:cn}.c.co{fill:var(--c4);animation-name:co}.c.cp,.c.cq,.c.cr{fill:var(--c1);animation-name:cp}.c.cq,.c.cr{animation-name:cq}.c.cr{animation-name:cr}.c.cs{fill:var(--c2);animation-name:cs}.c.ct{fill:var(--c1);animation-name:ct}.c.cu{fill:var(--c2);animation-name:cu}.c.cv{fill:var(--c3);animation-name:cv}.c.cw{fill:var(--c2);animation-name:cw}.c.cx,.c.cy,.c.cz{fill:var(--c1);animation-name:cx}.c.cy,.c.cz{animation-name:cy}.c.cz{animation-name:cz}.c.c10{fill:var(--c2);animation-name:c10}.c.c11,.c.c12,.c.c13{fill:var(--c1);animation-name:c11}.c.c12,.c.c13{animation-name:c12}.c.c13{animation-name:c13}.s,.u{animation:none linear 23700ms infinite}.u,.u.u0{transform-origin:0 0}.u{transform:scale(0,1)}.u.u0{fill:var(--c1);animation-name:u0}.u.u1{fill:var(--c2);animation-name:u1;transform-origin:614.8px 0}.u.u2{fill:var(--c3);animation-name:u2;transform-origin:805.6px 0}.u.u3{fill:var(--c4);animation-name:u3;transform-origin:826.8px 0}.s{shape-rendering:geometricPrecision;fill:var(--cs)}.s.s0{transform:translate(0,-16px);animation-name:s0}.s.s1{transform:translate(16px,-16px);animation-name:s1}.s.s2{transform:translate(32px,-16px);animation-name:s2}.s.s3{transform:translate(48px,-16px);animation-name:s3}</style><rect class="c" x="2" y="2" rx="2" ry="2" width="12" height="12"/><rect class="c" x="2" y="18" rx="2" ry="2" width="12" height="12"/><rect class="c" x="2" y="34" rx="2" ry="2" width="12" height="12"/><rect class="c" x="2" y="50" rx="2" ry="2" width="12" height="12"/><rect class="c" x="2" y="66" rx="2" ry="2" width="12" height="12"/><rect class="c" x="2" y="82" rx="2" ry="2" width="12" height="12"/><rect class="c c0" x="2" y="98" rx="2" ry="2" width="12" height="12"/><rect class="c" x="18" y="2" rx="2" ry="2" width="12" height="12"/><rect class="c" x="18" y="18" rx="2" ry="2" width="12" height="12"/><rect class="c" x="18" y="34" rx="2" ry="2" width="12" height="12"/><rect class="c" x="18" y="50" rx="2" ry="2" width="12" height="12"/><rect class="c" x="18" y="66" rx="2" ry="2" width="12" height="12"/><rect class="c" x="18" y="82" rx="2" ry="2" width="12" height="12"/><rect class="c" x="18" y="98" rx="2" ry="2" width="12" height="12"/><rect class="c" x="34" y="2" rx="2" ry="2" width="12" height="12"/><rect class="c c1" x="34" y="18" rx="2" ry="2" width="12" height="12"/><rect class="c" x="34" y="34" rx="2" ry="2" width="12" height="12"/><rect class="c" x="34" y="50" rx="2" ry="2" width="12" height="12"/><rect class="c" x="34" y="66" rx="2" ry="2" width="12" height="12"/><rect class="c" x="34" y="82" rx="2" ry="2" width="12" height="12"/><rect class="c" x="34" y="98" rx="2" ry="2" width="12" height="12"/><rect class="c" x="50" y="2" rx="2" ry="2" width="12" height="12"/><rect class="c" x="50" y="18" rx="2" ry="2" width="12" height="12"/><rect class="c" x="50" y="34" rx="2" ry="2" width="12" height="12"/><rect class="c" x="50" y="50" rx="2" ry="2" width="12" height="12"/><rect class="c" x="50" y="66" rx="2" ry="2" width="12" height="12"/><rect class="c" x="50" y="82" rx="2" ry="2" width="12" height="12"/><rect class="c" x="50" y="98" rx="2" ry="2" width="12" height="12"/><rect class="c" x="66" y="2" rx="2" ry="2" width="12" height="12"/><rect class="c" x="66" y="18" rx="2" ry="2" width="12" height="12"/><rect class="c" x="66" y="34" rx="2" ry="2" width="12" height="12"/><rect class="c c2" x="66" y="50" rx="2" ry="2" width="12" height="12"/><rect class="c" x="66" y="66" rx="2" ry="2" width="12" height="12"/><rect class="c" x="66" y="82" rx="2" ry="2" width="12" height="12"/><rect class="c" x="66" y="98" rx="2" ry="2" width="12" height="12"/><rect class="c c3" x="82" y="2" rx="2" ry="2" width="12" height="12"/><rect class="c" x="82" y="18" rx="2" ry="2" width="12" height="12"/><rect class="c c4" x="82" y="34" rx="2" ry="2" width="12" height="12"/><rect class="c c5" x="82" y="50" rx="2" ry="2" width="12" height="12"/><rect class="c c6" x="82" y="66" rx="2" ry="2" width="12" height="12"/><rect class="c" x="82" y="82" rx="2" ry="2" width="12" height="12"/><rect class="c" x="82" y="98" rx="2" ry="2" width="12" height="12"/><rect class="c c7" x="98" y="2" rx="2" ry="2" width="12" height="12"/><rect class="c" x="98" y="18" rx="2" ry="2" width="12" height="12"/><rect class="c c8" x="98" y="34" rx="2" ry="2" width="12" height="12"/><rect class="c c9" x="98" y="50" rx="2" ry="2" width="12" height="12"/><rect class="c ca" x="98" y="66" rx="2" ry="2" width="12" height="12"/><rect class="c cb" x="98" y="82" rx="2" ry="2" width="12" height="12"/><rect class="c cc" x="98" y="98" rx="2" ry="2" width="12" height="12"/><rect class="c" x="114" y="2" rx="2" ry="2" width="12" height="12"/><rect class="c cd" x="114" y="18" rx="2" ry="2" width="12" height="12"/><rect class="c" x="114" y="34" rx="2" ry="2" width="12" height="12"/><rect class="c" x="114" y="50" rx="2" ry="2" width="12" height="12"/><rect class="c" x="114" y="66" rx="2" ry="2" width="12" height="12"/><rect class="c" x="114" y="82" rx="2" ry="2" width="12" height="12"/><rect class="c" x="114" y="98" rx="2" ry="2" width="12" height="12"/><rect class="c" x="130" y="2" rx="2" ry="2" width="12" height="12"/><rect class="c" x="130" y="18" rx="2" ry="2" width="12" height="12"/><rect class="c" x="130" y="34" rx="2" ry="2" width="12" height="12"/><rect class="c" x="130" y="50" rx="2" ry="2" width="12" height="12"/><rect class="c" x="130" y="66" rx="2" ry="2" width="12" height="12"/><rect class="c" x="130" y="82" rx="2" ry="2" width="12" height="12"/><rect class="c ce" x="130" y="98" rx="2" ry="2" width="12" height="12"/><rect class="c" x="146" y="2" rx="2" ry="2" width="12" height="12"/><rect class="c" x="146" y="18" rx="2" ry="2" width="12" height="12"/><rect class="c cf" x="146" y="34" rx="2" ry="2" width="12" height="12"/><rect class="c" x="146" y="50" rx="2" ry="2" width="12" height="12"/><rect class="c" x="146" y="66" rx="2" ry="2" width="12" height="12"/><rect class="c" x="146" y="82" rx="2" ry="2" width="12" height="12"/><rect class="c" x="146" y="98" rx="2" ry="2" width="12" height="12"/><rect class="c" x="162" y="2" rx="2" ry="2" width="12" height="12"/><rect class="c" x="162" y="18" rx="2" ry="2" width="12" height="12"/><rect class="c" x="162" y="34" rx="2" ry="2" width="12" height="12"/><rect class="c" x="162" y="50" rx="2" ry="2" width="12" height="12"/><rect class="c" x="162" y="66" rx="2" ry="2" width="12" height="12"/><rect class="c" x="162" y="82" rx="2" ry="2" width="12" height="12"/><rect class="c" x="162" y="98" rx="2" ry="2" width="12" height="12"/><rect class="c" x="178" y="2" rx="2" ry="2" width="12" height="12"/><rect class="c" x="178" y="18" rx="2" ry="2" width="12" height="12"/><rect class="c" x="178" y="34" rx="2" ry="2" width="12" height="12"/><rect class="c" x="178" y="50" rx="2" ry="2" width="12" height="12"/><rect class="c" x="178" y="66" rx="2" ry="2" width="12" height="12"/><rect class="c" x="178" y="82" rx="2" ry="2" width="12" height="12"/><rect class="c" x="178" y="98" rx="2" ry="2" width="12" height="12"/><rect class="c" x="194" y="2" rx="2" ry="2" width="12" height="12"/><rect class="c" x="194" y="18" rx="2" ry="2" width="12" height="12"/><rect class="c" x="194" y="34" rx="2" ry="2" width="12" height="12"/><rect class="c" x="194" y="50" rx="2" ry="2" width="12" height="12"/><rect class="c" x="194" y="66" rx="2" ry="2" width="12" height="12"/><rect class="c" x="194" y="82" rx="2" ry="2" width="12" height="12"/><rect class="c" x="194" y="98" rx="2" ry="2" width="12" height="12"/><rect class="c" x="210" y="2" rx="2" ry="2" width="12" height="12"/><rect class="c" x="210" y="18" rx="2" ry="2" width="12" height="12"/><rect class="c" x="210" y="34" rx="2" ry="2" width="12" height="12"/><rect class="c" x="210" y="50" rx="2" ry="2" width="12" height="12"/><rect class="c" x="210" y="66" rx="2" ry="2" width="12" height="12"/><rect class="c" x="210" y="82" rx="2" ry="2" width="12" height="12"/><rect class="c" x="210" y="98" rx="2" ry="2" width="12" height="12"/><rect class="c" x="226" y="2" rx="2" ry="2" width="12" height="12"/><rect class="c" x="226" y="18" rx="2" ry="2" width="12" height="12"/><rect class="c" x="226" y="34" rx="2" ry="2" width="12" height="12"/><rect class="c" x="226" y="50" rx="2" ry="2" width="12" height="12"/><rect class="c" x="226" y="66" rx="2" ry="2" width="12" height="12"/><rect class="c" x="226" y="82" rx="2" ry="2" width="12" height="12"/><rect class="c" x="226" y="98" rx="2" ry="2" width="12" height="12"/><rect class="c" x="242" y="2" rx="2" ry="2" width="12" height="12"/><rect class="c" x="242" y="18" rx="2" ry="2" width="12" height="12"/><rect class="c" x="242" y="34" rx="2" ry="2" width="12" height="12"/><rect class="c" x="242" y="50" rx="2" ry="2" width="12" height="12"/><rect class="c" x="242" y="66" rx="2" ry="2" width="12" height="12"/><rect class="c" x="242" y="82" rx="2" ry="2" width="12" height="12"/><rect class="c" x="242" y="98" rx="2" ry="2" width="12" height="12"/><rect class="c cg" x="258" y="2" rx="2" ry="2" width="12" height="12"/><rect class="c" x="258" y="18" rx="2" ry="2" width="12" height="12"/><rect class="c" x="258" y="34" rx="2" ry="2" width="12" height="12"/><rect class="c" x="258" y="50" rx="2" ry="2" width="12" height="12"/><rect class="c" x="258" y="66" rx="2" ry="2" width="12" height="12"/><rect class="c" x="258" y="82" rx="2" ry="2" width="12" height="12"/><rect class="c" x="258" y="98" rx="2" ry="2" width="12" height="12"/><rect class="c" x="274" y="2" rx="2" ry="2" width="12" height="12"/><rect class="c ch" x="274" y="18" rx="2" ry="2" width="12" height="12"/><rect class="c ci" x="274" y="34" rx="2" ry="2" width="12" height="12"/><rect class="c" x="274" y="50" rx="2" ry="2" width="12" height="12"/><rect class="c" x="274" y="66" rx="2" ry="2" width="12" height="12"/><rect class="c" x="274" y="82" rx="2" ry="2" width="12" height="12"/><rect class="c" x="274" y="98" rx="2" ry="2" width="12" height="12"/><rect class="c" x="290" y="2" rx="2" ry="2" width="12" height="12"/><rect class="c" x="290" y="18" rx="2" ry="2" width="12" height="12"/><rect class="c" x="290" y="34" rx="2" ry="2" width="12" height="12"/><rect class="c" x="290" y="50" rx="2" ry="2" width="12" height="12"/><rect class="c" x="290" y="66" rx="2" ry="2" width="12" height="12"/><rect class="c" x="290" y="82" rx="2" ry="2" width="12" height="12"/><rect class="c" x="290" y="98" rx="2" ry="2" width="12" height="12"/><rect class="c" x="306" y="2" rx="2" ry="2" width="12" height="12"/><rect class="c" x="306" y="18" rx="2" ry="2" width="12" height="12"/><rect class="c" x="306" y="34" rx="2" ry="2" width="12" height="12"/><rect class="c" x="306" y="50" rx="2" ry="2" width="12" height="12"/><rect class="c" x="306" y="66" rx="2" ry="2" width="12" height="12"/><rect class="c" x="306" y="82" rx="2" ry="2" width="12" height="12"/><rect class="c" x="306" y="98" rx="2" ry="2" width="12" height="12"/><rect class="c" x="322" y="2" rx="2" ry="2" width="12" height="12"/><rect class="c" x="322" y="18" rx="2" ry="2" width="12" height="12"/><rect class="c" x="322" y="34" rx="2" ry="2" width="12" height="12"/><rect class="c" x="322" y="50" rx="2" ry="2" width="12" height="12"/><rect class="c" x="322" y="66" rx="2" ry="2" width="12" height="12"/><rect class="c" x="322" y="82" rx="2" ry="2" width="12" height="12"/><rect class="c cj" x="322" y="98" rx="2" ry="2" width="12" height="12"/><rect class="c" x="338" y="2" rx="2" ry="2" width="12" height="12"/><rect class="c" x="338" y="18" rx="2" ry="2" width="12" height="12"/><rect class="c ck" x="338" y="34" rx="2" ry="2" width="12" height="12"/><rect class="c cl" x="338" y="50" rx="2" ry="2" width="12" height="12"/><rect class="c" x="338" y="66" rx="2" ry="2" width="12" height="12"/><rect class="c cm" x="338" y="82" rx="2" ry="2" width="12" height="12"/><rect class="c" x="338" y="98" rx="2" ry="2" width="12" height="12"/><rect class="c" x="354" y="2" rx="2" ry="2" width="12" height="12"/><rect class="c cn" x="354" y="18" rx="2" ry="2" width="12" height="12"/><rect class="c" x="354" y="34" rx="2" ry="2" width="12" height="12"/><rect class="c co" x="354" y="50" rx="2" ry="2" width="12" height="12"/><rect class="c cp" x="354" y="66" rx="2" ry="2" width="12" height="12"/><rect class="c" x="354" y="82" rx="2" ry="2" width="12" height="12"/><rect class="c cq" x="354" y="98" rx="2" ry="2" width="12" height="12"/><rect class="c" x="370" y="2" rx="2" ry="2" width="12" height="12"/><rect class="c" x="370" y="18" rx="2" ry="2" width="12" height="12"/><rect class="c" x="370" y="34" rx="2" ry="2" width="12" height="12"/><rect class="c" x="370" y="50" rx="2" ry="2" width="12" height="12"/><rect class="c" x="370" y="66" rx="2" ry="2" width="12" height="12"/><rect class="c" x="370" y="82" rx="2" ry="2" width="12" height="12"/><rect class="c" x="370" y="98" rx="2" ry="2" width="12" height="12"/><rect class="c" x="386" y="2" rx="2" ry="2" width="12" height="12"/><rect class="c" x="386" y="18" rx="2" ry="2" width="12" height="12"/><rect class="c" x="386" y="34" rx="2" ry="2" width="12" height="12"/><rect class="c" x="386" y="50" rx="2" ry="2" width="12" height="12"/><rect class="c" x="386" y="66" rx="2" ry="2" width="12" height="12"/><rect class="c" x="386" y="82" rx="2" ry="2" width="12" height="12"/><rect class="c" x="386" y="98" rx="2" ry="2" width="12" height="12"/><rect class="c" x="402" y="2" rx="2" ry="2" width="12" height="12"/><rect class="c" x="402" y="18" rx="2" ry="2" width="12" height="12"/><rect class="c" x="402" y="34" rx="2" ry="2" width="12" height="12"/><rect class="c" x="402" y="50" rx="2" ry="2" width="12" height="12"/><rect class="c" x="402" y="66" rx="2" ry="2" width="12" height="12"/><rect class="c" x="402" y="82" rx="2" ry="2" width="12" height="12"/><rect class="c cr" x="402" y="98" rx="2" ry="2" width="12" height="12"/><rect class="c" x="418" y="2" rx="2" ry="2" width="12" height="12"/><rect class="c" x="418" y="18" rx="2" ry="2" width="12" height="12"/><rect class="c" x="418" y="34" rx="2" ry="2" width="12" height="12"/><rect class="c" x="418" y="50" rx="2" ry="2" width="12" height="12"/><rect class="c" x="418" y="66" rx="2" ry="2" width="12" height="12"/><rect class="c" x="418" y="82" rx="2" ry="2" width="12" height="12"/><rect class="c cs" x="418" y="98" rx="2" ry="2" width="12" height="12"/><rect class="c ct" x="434" y="2" rx="2" ry="2" width="12" height="12"/><rect class="c" x="434" y="18" rx="2" ry="2" width="12" height="12"/><rect class="c" x="434" y="34" rx="2" ry="2" width="12" height="12"/><rect class="c" x="434" y="50" rx="2" ry="2" width="12" height="12"/><rect class="c" x="434" y="66" rx="2" ry="2" width="12" height="12"/><rect class="c" x="434" y="82" rx="2" ry="2" width="12" height="12"/><rect class="c" x="434" y="98" rx="2" ry="2" width="12" height="12"/><rect class="c cu" x="450" y="2" rx="2" ry="2" width="12" height="12"/><rect class="c cv" x="450" y="18" rx="2" ry="2" width="12" height="12"/><rect class="c" x="450" y="34" rx="2" ry="2" width="12" height="12"/><rect class="c cw" x="450" y="50" rx="2" ry="2" width="12" height="12"/><rect class="c" x="450" y="66" rx="2" ry="2" width="12" height="12"/><rect class="c" x="450" y="82" rx="2" ry="2" width="12" height="12"/><rect class="c" x="450" y="98" rx="2" ry="2" width="12" height="12"/><rect class="c" x="466" y="2" rx="2" ry="2" width="12" height="12"/><rect class="c cx" x="466" y="18" rx="2" ry="2" width="12" height="12"/><rect class="c" x="466" y="34" rx="2" ry="2" width="12" height="12"/><rect class="c cy" x="466" y="50" rx="2" ry="2" width="12" height="12"/><rect class="c" x="466" y="66" rx="2" ry="2" width="12" height="12"/><rect class="c" x="466" y="82" rx="2" ry="2" width="12" height="12"/><rect class="c" x="466" y="98" rx="2" ry="2" width="12" height="12"/><rect class="c" x="482" y="2" rx="2" ry="2" width="12" height="12"/><rect class="c cz" x="482" y="18" rx="2" ry="2" width="12" height="12"/><rect class="c" x="482" y="34" rx="2" ry="2" width="12" height="12"/><rect class="c" x="482" y="50" rx="2" ry="2" width="12" height="12"/><rect class="c" x="482" y="66" rx="2" ry="2" width="12" height="12"/><rect class="c" x="482" y="82" rx="2" ry="2" width="12" height="12"/><rect class="c" x="482" y="98" rx="2" ry="2" width="12" height="12"/><rect class="c" x="498" y="2" rx="2" ry="2" width="12" height="12"/><rect class="c" x="498" y="18" rx="2" ry="2" width="12" height="12"/><rect class="c" x="498" y="34" rx="2" ry="2" width="12" height="12"/><rect class="c" x="498" y="50" rx="2" ry="2" width="12" height="12"/><rect class="c" x="498" y="66" rx="2" ry="2" width="12" height="12"/><rect class="c" x="498" y="82" rx="2" ry="2" width="12" height="12"/><rect class="c" x="498" y="98" rx="2" ry="2" width="12" height="12"/><rect class="c" x="514" y="2" rx="2" ry="2" width="12" height="12"/><rect class="c" x="514" y="18" rx="2" ry="2" width="12" height="12"/><rect class="c c10" x="514" y="34" rx="2" ry="2" width="12" height="12"/><rect class="c" x="514" y="50" rx="2" ry="2" width="12" height="12"/><rect class="c" x="514" y="66" rx="2" ry="2" width="12" height="12"/><rect class="c" x="514" y="82" rx="2" ry="2" width="12" height="12"/><rect class="c" x="514" y="98" rx="2" ry="2" width="12" height="12"/><rect class="c" x="530" y="2" rx="2" ry="2" width="12" height="12"/><rect class="c" x="530" y="18" rx="2" ry="2" width="12" height="12"/><rect class="c" x="530" y="34" rx="2" ry="2" width="12" height="12"/><rect class="c" x="530" y="50" rx="2" ry="2" width="12" height="12"/><rect class="c" x="530" y="66" rx="2" ry="2" width="12" height="12"/><rect class="c" x="530" y="82" rx="2" ry="2" width="12" height="12"/><rect class="c" x="530" y="98" rx="2" ry="2" width="12" height="12"/><rect class="c" x="546" y="2" rx="2" ry="2" width="12" height="12"/><rect class="c" x="546" y="18" rx="2" ry="2" width="12" height="12"/><rect class="c" x="546" y="34" rx="2" ry="2" width="12" height="12"/><rect class="c c11" x="546" y="50" rx="2" ry="2" width="12" height="12"/><rect class="c" x="546" y="66" rx="2" ry="2" width="12" height="12"/><rect class="c" x="546" y="82" rx="2" ry="2" width="12" height="12"/><rect class="c" x="546" y="98" rx="2" ry="2" width="12" height="12"/><rect class="c" x="562" y="2" rx="2" ry="2" width="12" height="12"/><rect class="c" x="562" y="18" rx="2" ry="2" width="12" height="12"/><rect class="c" x="562" y="34" rx="2" ry="2" width="12" height="12"/><rect class="c" x="562" y="50" rx="2" ry="2" width="12" height="12"/><rect class="c" x="562" y="66" rx="2" ry="2" width="12" height="12"/><rect class="c" x="562" y="82" rx="2" ry="2" width="12" height="12"/><rect class="c" x="562" y="98" rx="2" ry="2" width="12" height="12"/><rect class="c" x="578" y="2" rx="2" ry="2" width="12" height="12"/><rect class="c" x="578" y="18" rx="2" ry="2" width="12" height="12"/><rect class="c" x="578" y="34" rx="2" ry="2" width="12" height="12"/><rect class="c" x="578" y="50" rx="2" ry="2" width="12" height="12"/><rect class="c" x="578" y="66" rx="2" ry="2" width="12" height="12"/><rect class="c" x="578" y="82" rx="2" ry="2" width="12" height="12"/><rect class="c" x="578" y="98" rx="2" ry="2" width="12" height="12"/><rect class="c" x="594" y="2" rx="2" ry="2" width="12" height="12"/><rect class="c" x="594" y="18" rx="2" ry="2" width="12" height="12"/><rect class="c" x="594" y="34" rx="2" ry="2" width="12" height="12"/><rect class="c" x="594" y="50" rx="2" ry="2" width="12" height="12"/><rect class="c" x="594" y="66" rx="2" ry="2" width="12" height="12"/><rect class="c" x="594" y="82" rx="2" ry="2" width="12" height="12"/><rect class="c" x="594" y="98" rx="2" ry="2" width="12" height="12"/><rect class="c" x="610" y="2" rx="2" ry="2" width="12" height="12"/><rect class="c" x="610" y="18" rx="2" ry="2" width="12" height="12"/><rect class="c" x="610" y="34" rx="2" ry="2" width="12" height="12"/><rect class="c" x="610" y="50" rx="2" ry="2" width="12" height="12"/><rect class="c" x="610" y="66" rx="2" ry="2" width="12" height="12"/><rect class="c" x="610" y="82" rx="2" ry="2" width="12" height="12"/><rect class="c" x="610" y="98" rx="2" ry="2" width="12" height="12"/><rect class="c" x="626" y="2" rx="2" ry="2" width="12" height="12"/><rect class="c" x="626" y="18" rx="2" ry="2" width="12" height="12"/><rect class="c" x="626" y="34" rx="2" ry="2" width="12" height="12"/><rect class="c" x="626" y="50" rx="2" ry="2" width="12" height="12"/><rect class="c" x="626" y="66" rx="2" ry="2" width="12" height="12"/><rect class="c" x="626" y="82" rx="2" ry="2" width="12" height="12"/><rect class="c" x="626" y="98" rx="2" ry="2" width="12" height="12"/><rect class="c" x="642" y="2" rx="2" ry="2" width="12" height="12"/><rect class="c" x="642" y="18" rx="2" ry="2" width="12" height="12"/><rect class="c" x="642" y="34" rx="2" ry="2" width="12" height="12"/><rect class="c" x="642" y="50" rx="2" ry="2" width="12" height="12"/><rect class="c" x="642" y="66" rx="2" ry="2" width="12" height="12"/><rect class="c" x="642" y="82" rx="2" ry="2" width="12" height="12"/><rect class="c" x="642" y="98" rx="2" ry="2" width="12" height="12"/><rect class="c" x="658" y="2" rx="2" ry="2" width="12" height="12"/><rect class="c" x="658" y="18" rx="2" ry="2" width="12" height="12"/><rect class="c" x="658" y="34" rx="2" ry="2" width="12" height="12"/><rect class="c" x="658" y="50" rx="2" ry="2" width="12" height="12"/><rect class="c" x="658" y="66" rx="2" ry="2" width="12" height="12"/><rect class="c" x="658" y="82" rx="2" ry="2" width="12" height="12"/><rect class="c" x="658" y="98" rx="2" ry="2" width="12" height="12"/><rect class="c" x="674" y="2" rx="2" ry="2" width="12" height="12"/><rect class="c c12" x="674" y="18" rx="2" ry="2" width="12" height="12"/><rect class="c c13" x="674" y="34" rx="2" ry="2" width="12" height="12"/><rect class="c" x="674" y="50" rx="2" ry="2" width="12" height="12"/><rect class="c" x="674" y="66" rx="2" ry="2" width="12" height="12"/><rect class="c" x="674" y="82" rx="2" ry="2" width="12" height="12"/><rect class="c" x="674" y="98" rx="2" ry="2" width="12" height="12"/><rect class="c" x="690" y="2" rx="2" ry="2" width="12" height="12"/><rect class="c" x="690" y="18" rx="2" ry="2" width="12" height="12"/><rect class="c" x="690" y="34" rx="2" ry="2" width="12" height="12"/><rect class="c" x="690" y="50" rx="2" ry="2" width="12" height="12"/><rect class="c" x="690" y="66" rx="2" ry="2" width="12" height="12"/><rect class="c" x="690" y="82" rx="2" ry="2" width="12" height="12"/><rect class="c" x="690" y="98" rx="2" ry="2" width="12" height="12"/><rect class="c" x="706" y="2" rx="2" ry="2" width="12" height="12"/><rect class="c" x="706" y="18" rx="2" ry="2" width="12" height="12"/><rect class="c" x="706" y="34" rx="2" ry="2" width="12" height="12"/><rect class="c" x="706" y="50" rx="2" ry="2" width="12" height="12"/><rect class="c" x="706" y="66" rx="2" ry="2" width="12" height="12"/><rect class="c" x="706" y="82" rx="2" ry="2" width="12" height="12"/><rect class="c" x="706" y="98" rx="2" ry="2" width="12" height="12"/><rect class="c" x="722" y="2" rx="2" ry="2" width="12" height="12"/><rect class="c" x="722" y="18" rx="2" ry="2" width="12" height="12"/><rect class="c" x="722" y="34" rx="2" ry="2" width="12" height="12"/><rect class="c" x="722" y="50" rx="2" ry="2" width="12" height="12"/><rect class="c" x="722" y="66" rx="2" ry="2" width="12" height="12"/><rect class="c" x="722" y="82" rx="2" ry="2" width="12" height="12"/><rect class="c" x="722" y="98" rx="2" ry="2" width="12" height="12"/><rect class="c" x="738" y="2" rx="2" ry="2" width="12" height="12"/><rect class="c" x="738" y="18" rx="2" ry="2" width="12" height="12"/><rect class="c" x="738" y="34" rx="2" ry="2" width="12" height="12"/><rect class="c" x="738" y="50" rx="2" ry="2" width="12" height="12"/><rect class="c" x="738" y="66" rx="2" ry="2" width="12" height="12"/><rect class="c" x="738" y="82" rx="2" ry="2" width="12" height="12"/><rect class="c" x="738" y="98" rx="2" ry="2" width="12" height="12"/><rect class="c" x="754" y="2" rx="2" ry="2" width="12" height="12"/><rect class="c" x="754" y="18" rx="2" ry="2" width="12" height="12"/><rect class="c" x="754" y="34" rx="2" ry="2" width="12" height="12"/><rect class="c" x="754" y="50" rx="2" ry="2" width="12" height="12"/><rect class="c" x="754" y="66" rx="2" ry="2" width="12" height="12"/><rect class="c" x="754" y="82" rx="2" ry="2" width="12" height="12"/><rect class="c" x="754" y="98" rx="2" ry="2" width="12" height="12"/><rect class="c" x="770" y="2" rx="2" ry="2" width="12" height="12"/><rect class="c" x="770" y="18" rx="2" ry="2" width="12" height="12"/><rect class="c" x="770" y="34" rx="2" ry="2" width="12" height="12"/><rect class="c" x="770" y="50" rx="2" ry="2" width="12" height="12"/><rect class="c" x="770" y="66" rx="2" ry="2" width="12" height="12"/><rect class="c" x="770" y="82" rx="2" ry="2" width="12" height="12"/><rect class="c" x="770" y="98" rx="2" ry="2" width="12" height="12"/><rect class="c" x="786" y="2" rx="2" ry="2" width="12" height="12"/><rect class="c" x="786" y="18" rx="2" ry="2" width="12" height="12"/><rect class="c" x="786" y="34" rx="2" ry="2" width="12" height="12"/><rect class="c" x="786" y="50" rx="2" ry="2" width="12" height="12"/><rect class="c" x="786" y="66" rx="2" ry="2" width="12" height="12"/><rect class="c" x="786" y="82" rx="2" ry="2" width="12" height="12"/><rect class="c" x="786" y="98" rx="2" ry="2" width="12" height="12"/><rect class="c" x="802" y="2" rx="2" ry="2" width="12" height="12"/><rect class="c" x="802" y="18" rx="2" ry="2" width="12" height="12"/><rect class="c" x="802" y="34" rx="2" ry="2" width="12" height="12"/><rect class="c" x="802" y="50" rx="2" ry="2" width="12" height="12"/><rect class="c" x="802" y="66" rx="2" ry="2" width="12" height="12"/><rect class="c" x="802" y="82" rx="2" ry="2" width="12" height="12"/><rect class="c" x="802" y="98" rx="2" ry="2" width="12" height="12"/><rect class="c" x="818" y="2" rx="2" ry="2" width="12" height="12"/><rect class="c" x="818" y="18" rx="2" ry="2" width="12" height="12"/><rect class="c" x="818" y="34" rx="2" ry="2" width="12" height="12"/><rect class="c" x="818" y="50" rx="2" ry="2" width="12" height="12"/><rect class="c" x="818" y="66" rx="2" ry="2" width="12" height="12"/><rect class="c" x="818" y="82" rx="2" ry="2" width="12" height="12"/><rect class="c" x="818" y="98" rx="2" ry="2" width="12" height="12"/><rect class="c" x="834" y="2" rx="2" ry="2" width="12" height="12"/><rect class="c" x="834" y="18" rx="2" ry="2" width="12" height="12"/><rect class="c" x="834" y="34" rx="2" ry="2" width="12" height="12"/><rect class="c" x="834" y="50" rx="2" ry="2" width="12" height="12"/><rect class="c" x="834" y="66" rx="2" ry="2" width="12" height="12"/><rect class="c" x="834" y="82" rx="2" ry="2" width="12" height="12"/><rect class="c" x="834" y="98" rx="2" ry="2" width="12" height="12"/><rect class="u u0" height="12" width="615.4" x="0.0" y="144"/><rect class="u u1" height="12" width="191.4" x="614.8" y="144"/><rect class="u u2" height="12" width="21.8" x="805.6" y="144"/><rect class="u u3" height="12" width="21.8" x="826.8" y="144"/><rect class="s s0" x="0.8" y="0.8" width="14.4" height="14.4" rx="4.5" ry="4.5"/><rect class="s s1" x="1.8" y="1.8" width="12.3" height="12.3" rx="4.1" ry="4.1"/><rect class="s s2" x="2.6" y="2.6" width="10.8" height="10.8" rx="3.6" ry="3.6"/><rect class="s s3" x="3.0" y="3.0" width="9.9" height="9.9" rx="3.3" ry="3.3"/></svg>