<svg viewBox="-16 -32 880 192" width="880" height="192" xmlns="http://www.w3.org/2000/svg"><desc>Generated with https://github.com/Platane/snk</desc><style>@keyframes c0{53.48%{fill:var(--c2)}53.5%,to{fill:var(--ce)}}@keyframes c1{2.32%{fill:var(--c1)}2.34%,to{fill:var(--ce)}}@keyframes c2{2.65%{fill:var(--c1)}2.67%,to{fill:var(--ce)}}@keyframes c3{3.64%{fill:var(--c1)}3.66%,to{fill:var(--ce)}}@keyframes c4{1.32%{fill:var(--c1)}1.34%,to{fill:var(--ce)}}@keyframes c5{1.98%{fill:var(--c1)}2%,to{fill:var(--ce)}}@keyframes c6{2.98%{fill:var(--c1)}3%,to{fill:var(--ce)}}@keyframes c7{3.31%{fill:var(--c1)}3.33%,to{fill:var(--ce)}}@keyframes c8{56.14%{fill:var(--c3)}56.16%,to{fill:var(--ce)}}@keyframes c9{56.47%{fill:var(--c3)}56.49%,to{fill:var(--ce)}}@keyframes ca{54.48%{fill:var(--c3)}54.5%,to{fill:var(--ce)}}@keyframes cb{5.97%{fill:var(--c1)}5.99%,to{fill:var(--ce)}}@keyframes cc{51.49%{fill:var(--c2)}51.51%,to{fill:var(--ce)}}@keyframes cd{11.29%{fill:var(--c1)}11.31%,to{fill:var(--ce)}}@keyframes ce{10.62%{fill:var(--c1)}10.64%,to{fill:var(--ce)}}@keyframes cf{10.29%{fill:var(--c1)}10.31%,to{fill:var(--ce)}}@keyframes cg{46.5%{fill:var(--c2)}46.52%,to{fill:var(--ce)}}@keyframes ch{14.28%{fill:var(--c1)}14.3%,to{fill:var(--ce)}}@keyframes ci{14.61%{fill:var(--c1)}14.63%,to{fill:var(--ce)}}@keyframes cj{45.84%{fill:var(--c2)}45.86%,to{fill:var(--ce)}}@keyframes ck{13.61%{fill:var(--c1)}13.63%,to{fill:var(--ce)}}@keyframes cl{92.68%{fill:var(--c4)}92.7%,to{fill:var(--ce)}}@keyframes cm{15.27%{fill:var(--c1)}15.29%,to{fill:var(--ce)}}@keyframes cn{15.94%{fill:var(--c1)}15.96%,to{fill:var(--ce)}}@keyframes co{44.18%{fill:var(--c2)}44.2%,to{fill:var(--ce)}}@keyframes cp{63.11%{fill:var(--c3)}63.13%,to{fill:var(--ce)}}@keyframes cq{41.52%{fill:var(--c2)}41.54%,to{fill:var(--ce)}}@keyframes cr{68.43%{fill:var(--c3)}68.45%,to{fill:var(--ce)}}@keyframes cs{90.02%{fill:var(--c4)}90.04%,to{fill:var(--ce)}}@keyframes ct{64.77%{fill:var(--c3)}64.79%,to{fill:var(--ce)}}@keyframes cu{19.92%{fill:var(--c1)}19.94%,to{fill:var(--ce)}}@keyframes cv{39.86%{fill:var(--c2)}39.88%,to{fill:var(--ce)}}@keyframes cw{20.26%{fill:var(--c1)}20.28%,to{fill:var(--ce)}}@keyframes cx{66.44%{fill:var(--c3)}66.46%,to{fill:var(--ce)}}@keyframes cy{22.25%{fill:var(--c1)}22.27%,to{fill:var(--ce)}}@keyframes cz{25.57%{fill:var(--c1)}25.59%,to{fill:var(--ce)}}@keyframes c10{25.24%{fill:var(--c1)}25.26%,to{fill:var(--ce)}}@keyframes c11{30.55%{fill:var(--c1)}30.57%,to{fill:var(--ce)}}@keyframes c12{30.89%{fill:var(--c1)}30.91%,to{fill:var(--ce)}}@keyframes c13{79.72%{fill:var(--c3)}79.74%,to{fill:var(--ce)}}@keyframes u0{1.32%{transform:scale(0,1)}1.34%,1.98%{transform:scale(.04,1)}2%,2.32%{transform:scale(.09,1)}2.34%,2.65%{transform:scale(.13,1)}2.67%,2.98%{transform:scale(.17,1)}3%,3.31%{transform:scale(.22,1)}3.33%,3.64%{transform:scale(.26,1)}3.66%,5.97%{transform:scale(.3,1)}10.29%,5.99%{transform:scale(.35,1)}10.31%,10.62%{transform:scale(.39,1)}10.64%,11.29%{transform:scale(.43,1)}11.31%,13.61%{transform:scale(.48,1)}13.63%,14.28%{transform:scale(.52,1)}14.3%,14.61%{transform:scale(.57,1)}14.63%,15.27%{transform:scale(.61,1)}15.29%,15.94%{transform:scale(.65,1)}15.96%,19.92%{transform:scale(.7,1)}19.94%,20.26%{transform:scale(.74,1)}20.28%,22.25%{transform:scale(.78,1)}22.27%,25.24%{transform:scale(.83,1)}25.26%,25.57%{transform:scale(.87,1)}25.59%,30.55%{transform:scale(.91,1)}30.57%,30.89%{transform:scale(.96,1)}30.91%,to{transform:scale(1,1)}}@keyframes u1{39.86%{transform:scale(0,1)}39.88%,41.52%{transform:scale(.14,1)}41.54%,44.18%{transform:scale(.29,1)}44.2%,45.84%{transform:scale(.43,1)}45.86%,46.5%{transform:scale(.57,1)}46.52%,51.49%{transform:scale(.71,1)}51.51%,53.48%{transform:scale(.86,1)}53.5%,to{transform:scale(1,1)}}@keyframes u2{54.48%{transform:scale(0,1)}54.5%,56.14%{transform:scale(.13,1)}56.16%,56.47%{transform:scale(.25,1)}56.49%,63.11%{transform:scale(.38,1)}63.13%,64.77%{transform:scale(.5,1)}64.79%,66.44%{transform:scale(.63,1)}66.46%,68.43%{transform:scale(.75,1)}68.45%,79.72%{transform:scale(.88,1)}79.74%,to{transform:scale(1,1)}}@keyframes u3{90.02%{transform:scale(0,1)}90.04%,92.68%{transform:scale(.5,1)}92.7%,to{transform:scale(1,1)}}@keyframes s0{0%,99.67%{transform:translate(0,-16px)}.33%{transform:translate(0,-32px)}.66%{transform:translate(16px,-32px)}1.99%,55.15%{transform:translate(16px,32px)}2.33%{transform:translate(0,32px)}2.66%,3.99%{transform:translate(0,48px)}2.99%{transform:translate(16px,48px)}3.32%{transform:translate(16px,64px)}3.65%{transform:translate(0,64px)}4.98%{transform:translate(48px,48px)}5.98%{transform:translate(48px,96px)}8.97%{transform:translate(192px,96px)}10.96%{transform:translate(192px,0)}11.3%{transform:translate(176px,0)}11.63%{transform:translate(176px,16px)}13.62%,92.03%{transform:translate(272px,16px)}13.95%{transform:translate(272px,32px)}14.29%{transform:translate(256px,32px)}14.95%{transform:translate(256px,64px)}15.28%{transform:translate(272px,64px)}15.95%{transform:translate(272px,96px)}16.61%,44.52%{transform:translate(304px,96px)}16.94%,44.85%{transform:translate(304px,80px)}17.94%{transform:translate(352px,80px)}18.94%,40.86%{transform:translate(352px,32px)}19.6%,40.2%{transform:translate(384px,32px)}19.93%{transform:translate(384px,16px)}21.59%{transform:translate(464px,16px)}22.26%{transform:translate(464px,48px)}24.92%{transform:translate(592px,48px)}25.58%{transform:translate(592px,16px)}29.57%{transform:translate(784px,16px)}30.56%{transform:translate(784px,64px)}30.9%{transform:translate(800px,64px)}31.23%{transform:translate(800px,48px)}39.87%{transform:translate(384px,48px)}41.53%{transform:translate(352px,0)}42.19%{transform:translate(320px,0)}44.19%{transform:translate(320px,96px)}46.18%{transform:translate(240px,80px)}46.51%{transform:translate(240px,96px)}46.84%{transform:translate(224px,96px)}48.17%{transform:translate(224px,32px)}51.5%{transform:translate(64px,32px)}52.16%{transform:translate(64px,0)}53.49%{transform:translate(0,0)}53.82%{transform:translate(0,16px)}54.49%{transform:translate(32px,16px)}54.82%{transform:translate(32px,32px)}56.48%{transform:translate(16px,96px)}63.79%{transform:translate(368px,96px)}64.78%{transform:translate(368px,48px)}66.11%{transform:translate(432px,48px)}67.11%{transform:translate(432px,0)}68.44%{transform:translate(368px,0)}68.77%{transform:translate(368px,-16px)}78.41%{transform:translate(832px,-16px)}79.73%{transform:translate(832px,48px)}80.07%{transform:translate(816px,48px)}80.73%{transform:translate(816px,16px)}92.69%{transform:translate(272px,48px)}96.68%{transform:translate(80px,48px)}97.34%{transform:translate(80px,16px)}97.67%{transform:translate(64px,16px)}98.34%{transform:translate(64px,-16px)}}@keyframes s1{0%,99.67%{transform:translate(16px,-16px)}.33%{transform:translate(0,-16px)}.66%{transform:translate(0,-32px)}1%{transform:translate(16px,-32px)}2.33%,55.48%{transform:translate(16px,32px)}2.66%{transform:translate(0,32px)}2.99%,4.32%{transform:translate(0,48px)}3.32%{transform:translate(16px,48px)}3.65%{transform:translate(16px,64px)}3.99%{transform:translate(0,64px)}5.32%{transform:translate(48px,48px)}6.31%{transform:translate(48px,96px)}9.3%{transform:translate(192px,96px)}11.3%{transform:translate(192px,0)}11.63%{transform:translate(176px,0)}11.96%{transform:translate(176px,16px)}13.95%,92.36%{transform:translate(272px,16px)}14.29%{transform:translate(272px,32px)}14.62%{transform:translate(256px,32px)}15.28%{transform:translate(256px,64px)}15.61%{transform:translate(272px,64px)}16.28%{transform:translate(272px,96px)}16.94%,44.85%{transform:translate(304px,96px)}17.28%,45.18%{transform:translate(304px,80px)}18.27%{transform:translate(352px,80px)}19.27%,41.2%{transform:translate(352px,32px)}19.93%,40.53%{transform:translate(384px,32px)}20.27%{transform:translate(384px,16px)}21.93%{transform:translate(464px,16px)}22.59%{transform:translate(464px,48px)}25.25%{transform:translate(592px,48px)}25.91%{transform:translate(592px,16px)}29.9%{transform:translate(784px,16px)}30.9%{transform:translate(784px,64px)}31.23%{transform:translate(800px,64px)}31.56%{transform:translate(800px,48px)}40.2%{transform:translate(384px,48px)}41.86%{transform:translate(352px,0)}42.52%{transform:translate(320px,0)}44.52%{transform:translate(320px,96px)}46.51%{transform:translate(240px,80px)}46.84%{transform:translate(240px,96px)}47.18%{transform:translate(224px,96px)}48.5%{transform:translate(224px,32px)}51.83%{transform:translate(64px,32px)}52.49%{transform:translate(64px,0)}53.82%{transform:translate(0,0)}54.15%{transform:translate(0,16px)}54.82%{transform:translate(32px,16px)}55.15%{transform:translate(32px,32px)}56.81%{transform:translate(16px,96px)}64.12%{transform:translate(368px,96px)}65.12%{transform:translate(368px,48px)}66.45%{transform:translate(432px,48px)}67.44%{transform:translate(432px,0)}68.77%{transform:translate(368px,0)}69.1%{transform:translate(368px,-16px)}78.74%{transform:translate(832px,-16px)}80.07%{transform:translate(832px,48px)}80.4%{transform:translate(816px,48px)}81.06%{transform:translate(816px,16px)}93.02%{transform:translate(272px,48px)}97.01%{transform:translate(80px,48px)}97.67%{transform:translate(80px,16px)}98.01%{transform:translate(64px,16px)}98.67%{transform:translate(64px,-16px)}}@keyframes s2{0%,99.67%{transform:translate(32px,-16px)}.66%{transform:translate(0,-16px)}1%{transform:translate(0,-32px)}1.33%{transform:translate(16px,-32px)}2.66%,55.81%{transform:translate(16px,32px)}2.99%{transform:translate(0,32px)}3.32%,4.65%{transform:translate(0,48px)}3.65%{transform:translate(16px,48px)}3.99%{transform:translate(16px,64px)}4.32%{transform:translate(0,64px)}5.65%{transform:translate(48px,48px)}6.64%{transform:translate(48px,96px)}9.63%{transform:translate(192px,96px)}11.63%{transform:translate(192px,0)}11.96%{transform:translate(176px,0)}12.29%{transform:translate(176px,16px)}14.29%,92.69%{transform:translate(272px,16px)}14.62%{transform:translate(272px,32px)}14.95%{transform:translate(256px,32px)}15.61%{transform:translate(256px,64px)}15.95%{transform:translate(272px,64px)}16.61%{transform:translate(272px,96px)}17.28%,45.18%{transform:translate(304px,96px)}17.61%,45.51%{transform:translate(304px,80px)}18.6%{transform:translate(352px,80px)}19.6%,41.53%{transform:translate(352px,32px)}20.27%,40.86%{transform:translate(384px,32px)}20.6%{transform:translate(384px,16px)}22.26%{transform:translate(464px,16px)}22.92%{transform:translate(464px,48px)}25.58%{transform:translate(592px,48px)}26.25%{transform:translate(592px,16px)}30.23%{transform:translate(784px,16px)}31.23%{transform:translate(784px,64px)}31.56%{transform:translate(800px,64px)}31.89%{transform:translate(800px,48px)}40.53%{transform:translate(384px,48px)}42.19%{transform:translate(352px,0)}42.86%{transform:translate(320px,0)}44.85%{transform:translate(320px,96px)}46.84%{transform:translate(240px,80px)}47.18%{transform:translate(240px,96px)}47.51%{transform:translate(224px,96px)}48.84%{transform:translate(224px,32px)}52.16%{transform:translate(64px,32px)}52.82%{transform:translate(64px,0)}54.15%{transform:translate(0,0)}54.49%{transform:translate(0,16px)}55.15%{transform:translate(32px,16px)}55.48%{transform:translate(32px,32px)}57.14%{transform:translate(16px,96px)}64.45%{transform:translate(368px,96px)}65.45%{transform:translate(368px,48px)}66.78%{transform:translate(432px,48px)}67.77%{transform:translate(432px,0)}69.1%{transform:translate(368px,0)}69.44%{transform:translate(368px,-16px)}79.07%{transform:translate(832px,-16px)}80.4%{transform:translate(832px,48px)}80.73%{transform:translate(816px,48px)}81.4%{transform:translate(816px,16px)}93.36%{transform:translate(272px,48px)}97.34%{transform:translate(80px,48px)}98.01%{transform:translate(80px,16px)}98.34%{transform:translate(64px,16px)}99%{transform:translate(64px,-16px)}}@keyframes s3{0%,99.67%{transform:translate(48px,-16px)}1%{transform:translate(0,-16px)}1.33%{transform:translate(0,-32px)}1.66%{transform:translate(16px,-32px)}2.99%,56.15%{transform:translate(16px,32px)}3.32%{transform:translate(0,32px)}3.65%,4.98%{transform:translate(0,48px)}3.99%{transform:translate(16px,48px)}4.32%{transform:translate(16px,64px)}4.65%{transform:translate(0,64px)}5.98%{transform:translate(48px,48px)}6.98%{transform:translate(48px,96px)}9.97%{transform:translate(192px,96px)}11.96%{transform:translate(192px,0)}12.29%{transform:translate(176px,0)}12.62%{transform:translate(176px,16px)}14.62%,93.02%{transform:translate(272px,16px)}14.95%{transform:translate(272px,32px)}15.28%{transform:translate(256px,32px)}15.95%{transform:translate(256px,64px)}16.28%{transform:translate(272px,64px)}16.94%{transform:translate(272px,96px)}17.61%,45.51%{transform:translate(304px,96px)}17.94%,45.85%{transform:translate(304px,80px)}18.94%{transform:translate(352px,80px)}19.93%,41.86%{transform:translate(352px,32px)}20.6%,41.2%{transform:translate(384px,32px)}20.93%{transform:translate(384px,16px)}22.59%{transform:translate(464px,16px)}23.26%{transform:translate(464px,48px)}25.91%{transform:translate(592px,48px)}26.58%{transform:translate(592px,16px)}30.56%{transform:translate(784px,16px)}31.56%{transform:translate(784px,64px)}31.89%{transform:translate(800px,64px)}32.23%{transform:translate(800px,48px)}40.86%{transform:translate(384px,48px)}42.52%{transform:translate(352px,0)}43.19%{transform:translate(320px,0)}45.18%{transform:translate(320px,96px)}47.18%{transform:translate(240px,80px)}47.51%{transform:translate(240px,96px)}47.84%{transform:translate(224px,96px)}49.17%{transform:translate(224px,32px)}52.49%{transform:translate(64px,32px)}53.16%{transform:translate(64px,0)}54.49%{transform:translate(0,0)}54.82%{transform:translate(0,16px)}55.48%{transform:translate(32px,16px)}55.81%{transform:translate(32px,32px)}57.48%{transform:translate(16px,96px)}64.78%{transform:translate(368px,96px)}65.78%{transform:translate(368px,48px)}67.11%{transform:translate(432px,48px)}68.11%{transform:translate(432px,0)}69.44%{transform:translate(368px,0)}69.77%{transform:translate(368px,-16px)}79.4%{transform:translate(832px,-16px)}80.73%{transform:translate(832px,48px)}81.06%{transform:translate(816px,48px)}81.73%{transform:translate(816px,16px)}93.69%{transform:translate(272px,48px)}97.67%{transform:translate(80px,48px)}98.34%{transform:translate(80px,16px)}98.67%{transform:translate(64px,16px)}99.34%{transform:translate(64px,-16px)}}:root{--cb:#1b1f230a;--cs:purple;--ce:#ebedf0;--c0:#ebedf0;--c1:#9be9a8;--c2:#40c463;--c3:#30a14e;--c4:#216e39}@media (prefers-color-scheme:dark){:root{--cb:#1b1f230a;--cs:purple;--ce:#161b22;--c1:#01311f;--c2:#034525;--c3:#0f6d31;--c4:#00c647}}.c{shape-rendering:geometricPrecision;fill:var(--ce);stroke-width:1px;stroke:var(--cb);animation:none 30100ms linear infinite}.c.c0{fill:var(--c2);animation-name:c0}.c.c1{fill:var(--c1);animation-name:c1}.c.c2,.c.c3,.c.c4{fill:var(--c1);animation-name:c2}.c.c3,.c.c4{animation-name:c3}.c.c4{animation-name:c4}.c.c5,.c.c6,.c.c7{fill:var(--c1);animation-name:c5}.c.c6,.c.c7{animation-name:c6}.c.c7{animation-name:c7}.c.c8,.c.c9,.c.ca{fill:var(--c3);animation-name:c8}.c.c9,.c.ca{animation-name:c9}.c.ca{animation-name:ca}.c.cb{fill:var(--c1);animation-name:cb}.c.cc{fill:var(--c2);animation-name:cc}.c.cd,.c.ce,.c.cf{fill:var(--c1);animation-name:cd}.c.ce,.c.cf{animation-name:ce}.c.cf{animation-name:cf}.c.cg{fill:var(--c2);animation-name:cg}.c.ch,.c.ci{fill:var(--c1);animation-name:ch}.c.ci{animation-name:ci}.c.cj{fill:var(--c2);animation-name:cj}.c.ck{fill:var(--c1);animation-name:ck}.c.cl{fill:var(--c4);animation-name:cl}.c.cm,.c.cn{fill:var(--c1);animation-name:cm}.c.cn{animation-name:cn}.c.co{fill:var(--c2);animation-name:co}.c.cp{fill:var(--c3);animation-name:cp}.c.cq{fill:var(--c2);animation-name:cq}.c.cr{fill:var(--c3);animation-name:cr}.c.cs{fill:var(--c4);animation-name:cs}.c.ct{fill:var(--c3);animation-name:ct}.c.cu{fill:var(--c1);animation-name:cu}.c.cv{fill:var(--c2);animation-name:cv}.c.cw{fill:var(--c1);animation-name:cw}.c.cx{fill:var(--c3);animation-name:cx}.c.cy,.c.cz{fill:var(--c1);animation-name:cy}.c.cz{animation-name:cz}.c.c10,.c.c11,.c.c12{fill:var(--c1);animation-name:c10}.c.c11,.c.c12{animation-name:c11}.c.c12{animation-name:c12}.c.c13{fill:var(--c3);animation-name:c13}.s,.u{animation:none linear 30100ms infinite}.u,.u.u0{transform-origin:0 0}.u{transform:scale(0,1)}.u.u0{fill:var(--c1);animation-name:u0}.u.u1{fill:var(--c2);animation-name:u1;transform-origin:487.6px 0}.u.u2{fill:var(--c3);animation-name:u2;transform-origin:636px 0}.u.u3{fill:var(--c4);animation-name:u3;transform-origin:805.6px 0}.s{shape-rendering:geometricPrecision;fill:var(--cs)}.s.s0{transform:translate(0,-16px);animation-name:s0}.s.s1{transform:translate(16px,-16px);animation-name:s1}.s.s2{transform:translate(32px,-16px);animation-name:s2}.s.s3{transform:translate(48px,-16px);animation-name:s3}</style><rect class="c c0" x="2" y="2" rx="2" ry="2" width="12" height="12"/><rect class="c" x="2" y="18" rx="2" ry="2" width="12" height="12"/><rect class="c c1" x="2" y="34" rx="2" ry="2" width="12" height="12"/><rect class="c c2" x="2" y="50" rx="2" ry="2" width="12" height="12"/><rect class="c c3" x="2" y="66" rx="2" ry="2" width="12" height="12"/><rect class="c" x="2" y="82" rx="2" ry="2" width="12" height="12"/><rect class="c" x="2" y="98" rx="2" ry="2" width="12" height="12"/><rect class="c c4" x="18" y="2" rx="2" ry="2" width="12" height="12"/><rect class="c" x="18" y="18" rx="2" ry="2" width="12" height="12"/><rect class="c c5" x="18" y="34" rx="2" ry="2" width="12" height="12"/><rect class="c c6" x="18" y="50" rx="2" ry="2" width="12" height="12"/><rect class="c c7" x="18" y="66" rx="2" ry="2" width="12" height="12"/><rect class="c c8" x="18" y="82" rx="2" ry="2" width="12" height="12"/><rect class="c c9" x="18" y="98" rx="2" ry="2" width="12" height="12"/><rect class="c" x="34" y="2" rx="2" ry="2" width="12" height="12"/><rect class="c ca" x="34" y="18" rx="2" ry="2" width="12" height="12"/><rect class="c" x="34" y="34" rx="2" ry="2" width="12" height="12"/><rect class="c" x="34" y="50" rx="2" ry="2" width="12" height="12"/><rect class="c" x="34" y="66" rx="2" ry="2" width="12" height="12"/><rect class="c" x="34" y="82" rx="2" ry="2" width="12" height="12"/><rect class="c" x="34" y="98" rx="2" ry="2" width="12" height="12"/><rect class="c" x="50" y="2" rx="2" ry="2" width="12" height="12"/><rect class="c" x="50" y="18" rx="2" ry="2" width="12" height="12"/><rect class="c" x="50" y="34" rx="2" ry="2" width="12" height="12"/><rect class="c" x="50" y="50" rx="2" ry="2" width="12" height="12"/><rect class="c" x="50" y="66" rx="2" ry="2" width="12" height="12"/><rect class="c" x="50" y="82" rx="2" ry="2" width="12" height="12"/><rect class="c cb" x="50" y="98" rx="2" ry="2" width="12" height="12"/><rect class="c" x="66" y="2" rx="2" ry="2" width="12" height="12"/><rect class="c" x="66" y="18" rx="2" ry="2" width="12" height="12"/><rect class="c cc" x="66" y="34" rx="2" ry="2" width="12" height="12"/><rect class="c" x="66" y="50" rx="2" ry="2" width="12" height="12"/><rect class="c" x="66" y="66" rx="2" ry="2" width="12" height="12"/><rect class="c" x="66" y="82" rx="2" ry="2" width="12" height="12"/><rect class="c" x="66" y="98" rx="2" ry="2" width="12" height="12"/><rect class="c" x="82" y="2" rx="2" ry="2" width="12" height="12"/><rect class="c" x="82" y="18" rx="2" ry="2" width="12" height="12"/><rect class="c" x="82" y="34" rx="2" ry="2" width="12" height="12"/><rect class="c" x="82" y="50" rx="2" ry="2" width="12" height="12"/><rect class="c" x="82" y="66" rx="2" ry="2" width="12" height="12"/><rect class="c" x="82" y="82" rx="2" ry="2" width="12" height="12"/><rect class="c" x="82" y="98" rx="2" ry="2" width="12" height="12"/><rect class="c" x="98" y="2" rx="2" ry="2" width="12" height="12"/><rect class="c" x="98" y="18" rx="2" ry="2" width="12" height="12"/><rect class="c" x="98" y="34" rx="2" ry="2" width="12" height="12"/><rect class="c" x="98" y="50" rx="2" ry="2" width="12" height="12"/><rect class="c" x="98" y="66" rx="2" ry="2" width="12" height="12"/><rect class="c" x="98" y="82" rx="2" ry="2" width="12" height="12"/><rect class="c" x="98" y="98" rx="2" ry="2" width="12" height="12"/><rect class="c" x="114" y="2" rx="2" ry="2" width="12" height="12"/><rect class="c" x="114" y="18" rx="2" ry="2" width="12" height="12"/><rect class="c" x="114" y="34" rx="2" ry="2" width="12" height="12"/><rect class="c" x="114" y="50" rx="2" ry="2" width="12" height="12"/><rect class="c" x="114" y="66" rx="2" ry="2" width="12" height="12"/><rect class="c" x="114" y="82" rx="2" ry="2" width="12" height="12"/><rect class="c" x="114" y="98" rx="2" ry="2" width="12" height="12"/><rect class="c" x="130" y="2" rx="2" ry="2" width="12" height="12"/><rect class="c" x="130" y="18" rx="2" ry="2" width="12" height="12"/><rect class="c" x="130" y="34" rx="2" ry="2" width="12" height="12"/><rect class="c" x="130" y="50" rx="2" ry="2" width="12" height="12"/><rect class="c" x="130" y="66" rx="2" ry="2" width="12" height="12"/><rect class="c" x="130" y="82" rx="2" ry="2" width="12" height="12"/><rect class="c" x="130" y="98" rx="2" ry="2" width="12" height="12"/><rect class="c" x="146" y="2" rx="2" ry="2" width="12" height="12"/><rect class="c" x="146" y="18" rx="2" ry="2" width="12" height="12"/><rect class="c" x="146" y="34" rx="2" ry="2" width="12" height="12"/><rect class="c" x="146" y="50" rx="2" ry="2" width="12" height="12"/><rect class="c" x="146" y="66" rx="2" ry="2" width="12" height="12"/><rect class="c" x="146" y="82" rx="2" ry="2" width="12" height="12"/><rect class="c" x="146" y="98" rx="2" ry="2" width="12" height="12"/><rect class="c" x="162" y="2" rx="2" ry="2" width="12" height="12"/><rect class="c" x="162" y="18" rx="2" ry="2" width="12" height="12"/><rect class="c" x="162" y="34" rx="2" ry="2" width="12" height="12"/><rect class="c" x="162" y="50" rx="2" ry="2" width="12" height="12"/><rect class="c" x="162" y="66" rx="2" ry="2" width="12" height="12"/><rect class="c" x="162" y="82" rx="2" ry="2" width="12" height="12"/><rect class="c" x="162" y="98" rx="2" ry="2" width="12" height="12"/><rect class="c cd" x="178" y="2" rx="2" ry="2" width="12" height="12"/><rect class="c" x="178" y="18" rx="2" ry="2" width="12" height="12"/><rect class="c" x="178" y="34" rx="2" ry="2" width="12" height="12"/><rect class="c" x="178" y="50" rx="2" ry="2" width="12" height="12"/><rect class="c" x="178" y="66" rx="2" ry="2" width="12" height="12"/><rect class="c" x="178" y="82" rx="2" ry="2" width="12" height="12"/><rect class="c" x="178" y="98" rx="2" ry="2" width="12" height="12"/><rect class="c" x="194" y="2" rx="2" ry="2" width="12" height="12"/><rect class="c ce" x="194" y="18" rx="2" ry="2" width="12" height="12"/><rect class="c cf" x="194" y="34" rx="2" ry="2" width="12" height="12"/><rect class="c" x="194" y="50" rx="2" ry="2" width="12" height="12"/><rect class="c" x="194" y="66" rx="2" ry="2" width="12" height="12"/><rect class="c" x="194" y="82" rx="2" ry="2" width="12" height="12"/><rect class="c" x="194" y="98" rx="2" ry="2" width="12" height="12"/><rect class="c" x="210" y="2" rx="2" ry="2" width="12" height="12"/><rect class="c" x="210" y="18" rx="2" ry="2" width="12" height="12"/><rect class="c" x="210" y="34" rx="2" ry="2" width="12" height="12"/><rect class="c" x="210" y="50" rx="2" ry="2" width="12" height="12"/><rect class="c" x="210" y="66" rx="2" ry="2" width="12" height="12"/><rect class="c" x="210" y="82" rx="2" ry="2" width="12" height="12"/><rect class="c" x="210" y="98" rx="2" ry="2" width="12" height="12"/><rect class="c" x="226" y="2" rx="2" ry="2" width="12" height="12"/><rect class="c" x="226" y="18" rx="2" ry="2" width="12" height="12"/><rect class="c" x="226" y="34" rx="2" ry="2" width="12" height="12"/><rect class="c" x="226" y="50" rx="2" ry="2" width="12" height="12"/><rect class="c" x="226" y="66" rx="2" ry="2" width="12" height="12"/><rect class="c" x="226" y="82" rx="2" ry="2" width="12" height="12"/><rect class="c" x="226" y="98" rx="2" ry="2" width="12" height="12"/><rect class="c" x="242" y="2" rx="2" ry="2" width="12" height="12"/><rect class="c" x="242" y="18" rx="2" ry="2" width="12" height="12"/><rect class="c" x="242" y="34" rx="2" ry="2" width="12" height="12"/><rect class="c" x="242" y="50" rx="2" ry="2" width="12" height="12"/><rect class="c" x="242" y="66" rx="2" ry="2" width="12" height="12"/><rect class="c" x="242" y="82" rx="2" ry="2" width="12" height="12"/><rect class="c cg" x="242" y="98" rx="2" ry="2" width="12" height="12"/><rect class="c" x="258" y="2" rx="2" ry="2" width="12" height="12"/><rect class="c" x="258" y="18" rx="2" ry="2" width="12" height="12"/><rect class="c ch" x="258" y="34" rx="2" ry="2" width="12" height="12"/><rect class="c ci" x="258" y="50" rx="2" ry="2" width="12" height="12"/><rect class="c" x="258" y="66" rx="2" ry="2" width="12" height="12"/><rect class="c cj" x="258" y="82" rx="2" ry="2" width="12" height="12"/><rect class="c" x="258" y="98" rx="2" ry="2" width="12" height="12"/><rect class="c" x="274" y="2" rx="2" ry="2" width="12" height="12"/><rect class="c ck" x="274" y="18" rx="2" ry="2" width="12" height="12"/><rect class="c" x="274" y="34" rx="2" ry="2" width="12" height="12"/><rect class="c cl" x="274" y="50" rx="2" ry="2" width="12" height="12"/><rect class="c cm" x="274" y="66" rx="2" ry="2" width="12" height="12"/><rect class="c" x="274" y="82" rx="2" ry="2" width="12" height="12"/><rect class="c cn" x="274" y="98" rx="2" ry="2" width="12" height="12"/><rect class="c" x="290" y="2" rx="2" ry="2" width="12" height="12"/><rect class="c" x="290" y="18" rx="2" ry="2" width="12" height="12"/><rect class="c" x="290" y="34" rx="2" ry="2" width="12" height="12"/><rect class="c" x="290" y="50" rx="2" ry="2" width="12" height="12"/><rect class="c" x="290" y="66" rx="2" ry="2" width="12" height="12"/><rect class="c" x="290" y="82" rx="2" ry="2" width="12" height="12"/><rect class="c" x="290" y="98" rx="2" ry="2" width="12" height="12"/><rect class="c" x="306" y="2" rx="2" ry="2" width="12" height="12"/><rect class="c" x="306" y="18" rx="2" ry="2" width="12" height="12"/><rect class="c" x="306" y="34" rx="2" ry="2" width="12" height="12"/><rect class="c" x="306" y="50" rx="2" ry="2" width="12" height="12"/><rect class="c" x="306" y="66" rx="2" ry="2" width="12" height="12"/><rect class="c" x="306" y="82" rx="2" ry="2" width="12" height="12"/><rect class="c" x="306" y="98" rx="2" ry="2" width="12" height="12"/><rect class="c" x="322" y="2" rx="2" ry="2" width="12" height="12"/><rect class="c" x="322" y="18" rx="2" ry="2" width="12" height="12"/><rect class="c" x="322" y="34" rx="2" ry="2" width="12" height="12"/><rect class="c" x="322" y="50" rx="2" ry="2" width="12" height="12"/><rect class="c" x="322" y="66" rx="2" ry="2" width="12" height="12"/><rect class="c" x="322" y="82" rx="2" ry="2" width="12" height="12"/><rect class="c co" x="322" y="98" rx="2" ry="2" width="12" height="12"/><rect class="c" x="338" y="2" rx="2" ry="2" width="12" height="12"/><rect class="c" x="338" y="18" rx="2" ry="2" width="12" height="12"/><rect class="c" x="338" y="34" rx="2" ry="2" width="12" height="12"/><rect class="c" x="338" y="50" rx="2" ry="2" width="12" height="12"/><rect class="c" x="338" y="66" rx="2" ry="2" width="12" height="12"/><rect class="c" x="338" y="82" rx="2" ry="2" width="12" height="12"/><rect class="c cp" x="338" y="98" rx="2" ry="2" width="12" height="12"/><rect class="c cq" x="354" y="2" rx="2" ry="2" width="12" height="12"/><rect class="c" x="354" y="18" rx="2" ry="2" width="12" height="12"/><rect class="c" x="354" y="34" rx="2" ry="2" width="12" height="12"/><rect class="c" x="354" y="50" rx="2" ry="2" width="12" height="12"/><rect class="c" x="354" y="66" rx="2" ry="2" width="12" height="12"/><rect class="c" x="354" y="82" rx="2" ry="2" width="12" height="12"/><rect class="c" x="354" y="98" rx="2" ry="2" width="12" height="12"/><rect class="c cr" x="370" y="2" rx="2" ry="2" width="12" height="12"/><rect class="c cs" x="370" y="18" rx="2" ry="2" width="12" height="12"/><rect class="c" x="370" y="34" rx="2" ry="2" width="12" height="12"/><rect class="c ct" x="370" y="50" rx="2" ry="2" width="12" height="12"/><rect class="c" x="370" y="66" rx="2" ry="2" width="12" height="12"/><rect class="c" x="370" y="82" rx="2" ry="2" width="12" height="12"/><rect class="c" x="370" y="98" rx="2" ry="2" width="12" height="12"/><rect class="c" x="386" y="2" rx="2" ry="2" width="12" height="12"/><rect class="c cu" x="386" y="18" rx="2" ry="2" width="12" height="12"/><rect class="c" x="386" y="34" rx="2" ry="2" width="12" height="12"/><rect class="c cv" x="386" y="50" rx="2" ry="2" width="12" height="12"/><rect class="c" x="386" y="66" rx="2" ry="2" width="12" height="12"/><rect class="c" x="386" y="82" rx="2" ry="2" width="12" height="12"/><rect class="c" x="386" y="98" rx="2" ry="2" width="12" height="12"/><rect class="c" x="402" y="2" rx="2" ry="2" width="12" height="12"/><rect class="c cw" x="402" y="18" rx="2" ry="2" width="12" height="12"/><rect class="c" x="402" y="34" rx="2" ry="2" width="12" height="12"/><rect class="c" x="402" y="50" rx="2" ry="2" width="12" height="12"/><rect class="c" x="402" y="66" rx="2" ry="2" width="12" height="12"/><rect class="c" x="402" y="82" rx="2" ry="2" width="12" height="12"/><rect class="c" x="402" y="98" rx="2" ry="2" width="12" height="12"/><rect class="c" x="418" y="2" rx="2" ry="2" width="12" height="12"/><rect class="c" x="418" y="18" rx="2" ry="2" width="12" height="12"/><rect class="c" x="418" y="34" rx="2" ry="2" width="12" height="12"/><rect class="c" x="418" y="50" rx="2" ry="2" width="12" height="12"/><rect class="c" x="418" y="66" rx="2" ry="2" width="12" height="12"/><rect class="c" x="418" y="82" rx="2" ry="2" width="12" height="12"/><rect class="c" x="418" y="98" rx="2" ry="2" width="12" height="12"/><rect class="c" x="434" y="2" rx="2" ry="2" width="12" height="12"/><rect class="c" x="434" y="18" rx="2" ry="2" width="12" height="12"/><rect class="c cx" x="434" y="34" rx="2" ry="2" width="12" height="12"/><rect class="c" x="434" y="50" rx="2" ry="2" width="12" height="12"/><rect class="c" x="434" y="66" rx="2" ry="2" width="12" height="12"/><rect class="c" x="434" y="82" rx="2" ry="2" width="12" height="12"/><rect class="c" x="434" y="98" rx="2" ry="2" width="12" height="12"/><rect class="c" x="450" y="2" rx="2" ry="2" width="12" height="12"/><rect class="c" x="450" y="18" rx="2" ry="2" width="12" height="12"/><rect class="c" x="450" y="34" rx="2" ry="2" width="12" height="12"/><rect class="c" x="450" y="50" rx="2" ry="2" width="12" height="12"/><rect class="c" x="450" y="66" rx="2" ry="2" width="12" height="12"/><rect class="c" x="450" y="82" rx="2" ry="2" width="12" height="12"/><rect class="c" x="450" y="98" rx="2" ry="2" width="12" height="12"/><rect class="c" x="466" y="2" rx="2" ry="2" width="12" height="12"/><rect class="c" x="466" y="18" rx="2" ry="2" width="12" height="12"/><rect class="c" x="466" y="34" rx="2" ry="2" width="12" height="12"/><rect class="c cy" x="466" y="50" rx="2" ry="2" width="12" height="12"/><rect class="c" x="466" y="66" rx="2" ry="2" width="12" height="12"/><rect class="c" x="466" y="82" rx="2" ry="2" width="12" height="12"/><rect class="c" x="466" y="98" rx="2" ry="2" width="12" height="12"/><rect class="c" x="482" y="2" rx="2" ry="2" width="12" height="12"/><rect class="c" x="482" y="18" rx="2" ry="2" width="12" height="12"/><rect class="c" x="482" y="34" rx="2" ry="2" width="12" height="12"/><rect class="c" x="482" y="50" rx="2" ry="2" width="12" height="12"/><rect class="c" x="482" y="66" rx="2" ry="2" width="12" height="12"/><rect class="c" x="482" y="82" rx="2" ry="2" width="12" height="12"/><rect class="c" x="482" y="98" rx="2" ry="2" width="12" height="12"/><rect class="c" x="498" y="2" rx="2" ry="2" width="12" height="12"/><rect class="c" x="498" y="18" rx="2" ry="2" width="12" height="12"/><rect class="c" x="498" y="34" rx="2" ry="2" width="12" height="12"/><rect class="c" x="498" y="50" rx="2" ry="2" width="12" height="12"/><rect class="c" x="498" y="66" rx="2" ry="2" width="12" height="12"/><rect class="c" x="498" y="82" rx="2" ry="2" width="12" height="12"/><rect class="c" x="498" y="98" rx="2" ry="2" width="12" height="12"/><rect class="c" x="514" y="2" rx="2" ry="2" width="12" height="12"/><rect class="c" x="514" y="18" rx="2" ry="2" width="12" height="12"/><rect class="c" x="514" y="34" rx="2" ry="2" width="12" height="12"/><rect class="c" x="514" y="50" rx="2" ry="2" width="12" height="12"/><rect class="c" x="514" y="66" rx="2" ry="2" width="12" height="12"/><rect class="c" x="514" y="82" rx="2" ry="2" width="12" height="12"/><rect class="c" x="514" y="98" rx="2" ry="2" width="12" height="12"/><rect class="c" x="530" y="2" rx="2" ry="2" width="12" height="12"/><rect class="c" x="530" y="18" rx="2" ry="2" width="12" height="12"/><rect class="c" x="530" y="34" rx="2" ry="2" width="12" height="12"/><rect class="c" x="530" y="50" rx="2" ry="2" width="12" height="12"/><rect class="c" x="530" y="66" rx="2" ry="2" width="12" height="12"/><rect class="c" x="530" y="82" rx="2" ry="2" width="12" height="12"/><rect class="c" x="530" y="98" rx="2" ry="2" width="12" height="12"/><rect class="c" x="546" y="2" rx="2" ry="2" width="12" height="12"/><rect class="c" x="546" y="18" rx="2" ry="2" width="12" height="12"/><rect class="c" x="546" y="34" rx="2" ry="2" width="12" height="12"/><rect class="c" x="546" y="50" rx="2" ry="2" width="12" height="12"/><rect class="c" x="546" y="66" rx="2" ry="2" width="12" height="12"/><rect class="c" x="546" y="82" rx="2" ry="2" width="12" height="12"/><rect class="c" x="546" y="98" rx="2" ry="2" width="12" height="12"/><rect class="c" x="562" y="2" rx="2" ry="2" width="12" height="12"/><rect class="c" x="562" y="18" rx="2" ry="2" width="12" height="12"/><rect class="c" x="562" y="34" rx="2" ry="2" width="12" height="12"/><rect class="c" x="562" y="50" rx="2" ry="2" width="12" height="12"/><rect class="c" x="562" y="66" rx="2" ry="2" width="12" height="12"/><rect class="c" x="562" y="82" rx="2" ry="2" width="12" height="12"/><rect class="c" x="562" y="98" rx="2" ry="2" width="12" height="12"/><rect class="c" x="578" y="2" rx="2" ry="2" width="12" height="12"/><rect class="c" x="578" y="18" rx="2" ry="2" width="12" height="12"/><rect class="c" x="578" y="34" rx="2" ry="2" width="12" height="12"/><rect class="c" x="578" y="50" rx="2" ry="2" width="12" height="12"/><rect class="c" x="578" y="66" rx="2" ry="2" width="12" height="12"/><rect class="c" x="578" y="82" rx="2" ry="2" width="12" height="12"/><rect class="c" x="578" y="98" rx="2" ry="2" width="12" height="12"/><rect class="c" x="594" y="2" rx="2" ry="2" width="12" height="12"/><rect class="c cz" x="594" y="18" rx="2" ry="2" width="12" height="12"/><rect class="c c10" x="594" y="34" rx="2" ry="2" width="12" height="12"/><rect class="c" x="594" y="50" rx="2" ry="2" width="12" height="12"/><rect class="c" x="594" y="66" rx="2" ry="2" width="12" height="12"/><rect class="c" x="594" y="82" rx="2" ry="2" width="12" height="12"/><rect class="c" x="594" y="98" rx="2" ry="2" width="12" height="12"/><rect class="c" x="610" y="2" rx="2" ry="2" width="12" height="12"/><rect class="c" x="610" y="18" rx="2" ry="2" width="12" height="12"/><rect class="c" x="610" y="34" rx="2" ry="2" width="12" height="12"/><rect class="c" x="610" y="50" rx="2" ry="2" width="12" height="12"/><rect class="c" x="610" y="66" rx="2" ry="2" width="12" height="12"/><rect class="c" x="610" y="82" rx="2" ry="2" width="12" height="12"/><rect class="c" x="610" y="98" rx="2" ry="2" width="12" height="12"/><rect class="c" x="626" y="2" rx="2" ry="2" width="12" height="12"/><rect class="c" x="626" y="18" rx="2" ry="2" width="12" height="12"/><rect class="c" x="626" y="34" rx="2" ry="2" width="12" height="12"/><rect class="c" x="626" y="50" rx="2" ry="2" width="12" height="12"/><rect class="c" x="626" y="66" rx="2" ry="2" width="12" height="12"/><rect class="c" x="626" y="82" rx="2" ry="2" width="12" height="12"/><rect class="c" x="626" y="98" rx="2" ry="2" width="12" height="12"/><rect class="c" x="642" y="2" rx="2" ry="2" width="12" height="12"/><rect class="c" x="642" y="18" rx="2" ry="2" width="12" height="12"/><rect class="c" x="642" y="34" rx="2" ry="2" width="12" height="12"/><rect class="c" x="642" y="50" rx="2" ry="2" width="12" height="12"/><rect class="c" x="642" y="66" rx="2" ry="2" width="12" height="12"/><rect class="c" x="642" y="82" rx="2" ry="2" width="12" height="12"/><rect class="c" x="642" y="98" rx="2" ry="2" width="12" height="12"/><rect class="c" x="658" y="2" rx="2" ry="2" width="12" height="12"/><rect class="c" x="658" y="18" rx="2" ry="2" width="12" height="12"/><rect class="c" x="658" y="34" rx="2" ry="2" width="12" height="12"/><rect class="c" x="658" y="50" rx="2" ry="2" width="12" height="12"/><rect class="c" x="658" y="66" rx="2" ry="2" width="12" height="12"/><rect class="c" x="658" y="82" rx="2" ry="2" width="12" height="12"/><rect class="c" x="658" y="98" rx="2" ry="2" width="12" height="12"/><rect class="c" x="674" y="2" rx="2" ry="2" width="12" height="12"/><rect class="c" x="674" y="18" rx="2" ry="2" width="12" height="12"/><rect class="c" x="674" y="34" rx="2" ry="2" width="12" height="12"/><rect class="c" x="674" y="50" rx="2" ry="2" width="12" height="12"/><rect class="c" x="674" y="66" rx="2" ry="2" width="12" height="12"/><rect class="c" x="674" y="82" rx="2" ry="2" width="12" height="12"/><rect class="c" x="674" y="98" rx="2" ry="2" width="12" height="12"/><rect class="c" x="690" y="2" rx="2" ry="2" width="12" height="12"/><rect class="c" x="690" y="18" rx="2" ry="2" width="12" height="12"/><rect class="c" x="690" y="34" rx="2" ry="2" width="12" height="12"/><rect class="c" x="690" y="50" rx="2" ry="2" width="12" height="12"/><rect class="c" x="690" y="66" rx="2" ry="2" width="12" height="12"/><rect class="c" x="690" y="82" rx="2" ry="2" width="12" height="12"/><rect class="c" x="690" y="98" rx="2" ry="2" width="12" height="12"/><rect class="c" x="706" y="2" rx="2" ry="2" width="12" height="12"/><rect class="c" x="706" y="18" rx="2" ry="2" width="12" height="12"/><rect class="c" x="706" y="34" rx="2" ry="2" width="12" height="12"/><rect class="c" x="706" y="50" rx="2" ry="2" width="12" height="12"/><rect class="c" x="706" y="66" rx="2" ry="2" width="12" height="12"/><rect class="c" x="706" y="82" rx="2" ry="2" width="12" height="12"/><rect class="c" x="706" y="98" rx="2" ry="2" width="12" height="12"/><rect class="c" x="722" y="2" rx="2" ry="2" width="12" height="12"/><rect class="c" x="722" y="18" rx="2" ry="2" width="12" height="12"/><rect class="c" x="722" y="34" rx="2" ry="2" width="12" height="12"/><rect class="c" x="722" y="50" rx="2" ry="2" width="12" height="12"/><rect class="c" x="722" y="66" rx="2" ry="2" width="12" height="12"/><rect class="c" x="722" y="82" rx="2" ry="2" width="12" height="12"/><rect class="c" x="722" y="98" rx="2" ry="2" width="12" height="12"/><rect class="c" x="738" y="2" rx="2" ry="2" width="12" height="12"/><rect class="c" x="738" y="18" rx="2" ry="2" width="12" height="12"/><rect class="c" x="738" y="34" rx="2" ry="2" width="12" height="12"/><rect class="c" x="738" y="50" rx="2" ry="2" width="12" height="12"/><rect class="c" x="738" y="66" rx="2" ry="2" width="12" height="12"/><rect class="c" x="738" y="82" rx="2" ry="2" width="12" height="12"/><rect class="c" x="738" y="98" rx="2" ry="2" width="12" height="12"/><rect class="c" x="754" y="2" rx="2" ry="2" width="12" height="12"/><rect class="c" x="754" y="18" rx="2" ry="2" width="12" height="12"/><rect class="c" x="754" y="34" rx="2" ry="2" width="12" height="12"/><rect class="c" x="754" y="50" rx="2" ry="2" width="12" height="12"/><rect class="c" x="754" y="66" rx="2" ry="2" width="12" height="12"/><rect class="c" x="754" y="82" rx="2" ry="2" width="12" height="12"/><rect class="c" x="754" y="98" rx="2" ry="2" width="12" height="12"/><rect class="c" x="770" y="2" rx="2" ry="2" width="12" height="12"/><rect class="c" x="770" y="18" rx="2" ry="2" width="12" height="12"/><rect class="c" x="770" y="34" rx="2" ry="2" width="12" height="12"/><rect class="c" x="770" y="50" rx="2" ry="2" width="12" height="12"/><rect class="c" x="770" y="66" rx="2" ry="2" width="12" height="12"/><rect class="c" x="770" y="82" rx="2" ry="2" width="12" height="12"/><rect class="c" x="770" y="98" rx="2" ry="2" width="12" height="12"/><rect class="c" x="786" y="2" rx="2" ry="2" width="12" height="12"/><rect class="c" x="786" y="18" rx="2" ry="2" width="12" height="12"/><rect class="c" x="786" y="34" rx="2" ry="2" width="12" height="12"/><rect class="c" x="786" y="50" rx="2" ry="2" width="12" height="12"/><rect class="c c11" x="786" y="66" rx="2" ry="2" width="12" height="12"/><rect class="c" x="786" y="82" rx="2" ry="2" width="12" height="12"/><rect class="c" x="786" y="98" rx="2" ry="2" width="12" height="12"/><rect class="c" x="802" y="2" rx="2" ry="2" width="12" height="12"/><rect class="c" x="802" y="18" rx="2" ry="2" width="12" height="12"/><rect class="c" x="802" y="34" rx="2" ry="2" width="12" height="12"/><rect class="c" x="802" y="50" rx="2" ry="2" width="12" height="12"/><rect class="c c12" x="802" y="66" rx="2" ry="2" width="12" height="12"/><rect class="c" x="802" y="82" rx="2" ry="2" width="12" height="12"/><rect class="c" x="802" y="98" rx="2" ry="2" width="12" height="12"/><rect class="c" x="818" y="2" rx="2" ry="2" width="12" height="12"/><rect class="c" x="818" y="18" rx="2" ry="2" width="12" height="12"/><rect class="c" x="818" y="34" rx="2" ry="2" width="12" height="12"/><rect class="c" x="818" y="50" rx="2" ry="2" width="12" height="12"/><rect class="c" x="818" y="66" rx="2" ry="2" width="12" height="12"/><rect class="c" x="818" y="82" rx="2" ry="2" width="12" height="12"/><rect class="c" x="818" y="98" rx="2" ry="2" width="12" height="12"/><rect class="c" x="834" y="2" rx="2" ry="2" width="12" height="12"/><rect class="c" x="834" y="18" rx="2" ry="2" width="12" height="12"/><rect class="c" x="834" y="34" rx="2" ry="2" width="12" height="12"/><rect class="c c13" x="834" y="50" rx="2" ry="2" width="12" height="12"/><rect class="u u0" height="12" width="488.2" x="0.0" y="144"/><rect class="u u1" height="12" width="149.0" x="487.6" y="144"/><rect class="u u2" height="12" width="170.2" x="636.0" y="144"/><rect class="u u3" height="12" width="43.0" x="805.6" y="144"/><rect class="s s0" x="0.8" y="0.8" width="14.4" height="14.4" rx="4.5" ry="4.5"/><rect class="s s1" x="1.8" y="1.8" width="12.3" height="12.3" rx="4.1" ry="4.1"/><rect class="s s2" x="2.6" y="2.6" width="10.8" height="10.8" rx="3.6" ry="3.6"/><rect class="s s3" x="3.0" y="3.0" width="9.9" height="9.9" rx="3.3" ry="3.3"/></svg>