<svg viewBox="-16 -32 880 192" width="880" height="192" xmlns="http://www.w3.org/2000/svg"><desc>Generated with https://github.com/Platane/snk</desc><style>@keyframes c0{.72%{fill:var(--c1)}.74%,to{fill:var(--ce)}}@keyframes c1{1.46%{fill:var(--c1)}1.48%,to{fill:var(--ce)}}@keyframes c2{1.82%{fill:var(--c1)}1.84%,to{fill:var(--ce)}}@keyframes c3{63.73%{fill:var(--c2)}63.75%,to{fill:var(--ce)}}@keyframes c4{3.29%{fill:var(--c1)}3.31%,to{fill:var(--ce)}}@keyframes c5{3.65%{fill:var(--c1)}3.67%,to{fill:var(--ce)}}@keyframes c6{62.99%{fill:var(--c2)}63.01%,to{fill:var(--ce)}}@keyframes c7{5.48%{fill:var(--c1)}5.5%,to{fill:var(--ce)}}@keyframes c8{95.59%{fill:var(--c4)}95.61%,to{fill:var(--ce)}}@keyframes c9{62.26%{fill:var(--c2)}62.28%,to{fill:var(--ce)}}@keyframes ca{8.05%{fill:var(--c1)}8.07%,to{fill:var(--ce)}}@keyframes cb{60.43%{fill:var(--c2)}60.45%,to{fill:var(--ce)}}@keyframes cc{65.92%{fill:var(--c3)}65.94%,to{fill:var(--ce)}}@keyframes cd{69.22%{fill:var(--c3)}69.24%,to{fill:var(--ce)}}@keyframes ce{69.59%{fill:var(--c3)}69.61%,to{fill:var(--ce)}}@keyframes cf{92.66%{fill:var(--c4)}92.68%,to{fill:var(--ce)}}@keyframes cg{67.76%{fill:var(--c3)}67.78%,to{fill:var(--ce)}}@keyframes ch{12.44%{fill:var(--c1)}12.46%,to{fill:var(--ce)}}@keyframes ci{57.87%{fill:var(--c2)}57.89%,to{fill:var(--ce)}}@keyframes cj{12.81%{fill:var(--c1)}12.83%,to{fill:var(--ce)}}@keyframes ck{56.4%{fill:var(--c2)}56.42%,to{fill:var(--ce)}}@keyframes cl{15.01%{fill:var(--c1)}15.03%,to{fill:var(--ce)}}@keyframes cm{19.77%{fill:var(--c1)}19.79%,to{fill:var(--ce)}}@keyframes cn{52.37%{fill:var(--c2)}52.39%,to{fill:var(--ce)}}@keyframes co{18.31%{fill:var(--c1)}18.33%,to{fill:var(--ce)}}@keyframes cp{22.33%{fill:var(--c1)}22.35%,to{fill:var(--ce)}}@keyframes cq{22.7%{fill:var(--c1)}22.72%,to{fill:var(--ce)}}@keyframes cr{27.83%{fill:var(--c1)}27.85%,to{fill:var(--ce)}}@keyframes cs{28.2%{fill:var(--c1)}28.22%,to{fill:var(--ce)}}@keyframes ct{81.31%{fill:var(--c3)}81.33%,to{fill:var(--ce)}}@keyframes cu{45.78%{fill:var(--c2)}45.8%,to{fill:var(--ce)}}@keyframes cv{32.22%{fill:var(--c1)}32.24%,to{fill:var(--ce)}}@keyframes cw{31.86%{fill:var(--c1)}31.88%,to{fill:var(--ce)}}@keyframes cx{31.13%{fill:var(--c1)}31.15%,to{fill:var(--ce)}}@keyframes cy{30.03%{fill:var(--c1)}30.05%,to{fill:var(--ce)}}@keyframes cz{41.75%{fill:var(--c2)}41.77%,to{fill:var(--ce)}}@keyframes c10{32.59%{fill:var(--c1)}32.61%,to{fill:var(--ce)}}@keyframes c11{30.39%{fill:var(--c1)}30.41%,to{fill:var(--ce)}}@keyframes c12{43.95%{fill:var(--c2)}43.97%,to{fill:var(--ce)}}@keyframes c13{34.79%{fill:var(--c1)}34.81%,to{fill:var(--ce)}}@keyframes c14{35.15%{fill:var(--c1)}35.17%,to{fill:var(--ce)}}@keyframes c15{36.99%{fill:var(--c2)}37.01%,to{fill:var(--ce)}}@keyframes c16{36.62%{fill:var(--c1)}36.64%,to{fill:var(--ce)}}@keyframes c17{39.18%{fill:var(--c2)}39.2%,to{fill:var(--ce)}}@keyframes u0{.72%{transform:scale(0,1)}.74%,1.46%{transform:scale(.04,1)}1.48%,1.82%{transform:scale(.08,1)}1.84%,3.29%{transform:scale(.12,1)}3.31%,3.65%{transform:scale(.16,1)}3.67%,5.48%{transform:scale(.2,1)}5.5%,8.05%{transform:scale(.24,1)}12.44%,8.07%{transform:scale(.28,1)}12.46%,12.81%{transform:scale(.32,1)}12.83%,15.01%{transform:scale(.36,1)}15.03%,18.31%{transform:scale(.4,1)}18.33%,19.77%{transform:scale(.44,1)}19.79%,22.33%{transform:scale(.48,1)}22.35%,22.7%{transform:scale(.52,1)}22.72%,27.83%{transform:scale(.56,1)}27.85%,28.2%{transform:scale(.6,1)}28.22%,30.03%{transform:scale(.64,1)}30.05%,30.39%{transform:scale(.68,1)}30.41%,31.13%{transform:scale(.72,1)}31.15%,31.86%{transform:scale(.76,1)}31.88%,32.22%{transform:scale(.8,1)}32.24%,32.59%{transform:scale(.84,1)}32.61%,34.79%{transform:scale(.88,1)}34.81%,35.15%{transform:scale(.92,1)}35.17%,36.62%{transform:scale(.96,1)}36.64%,to{transform:scale(1,1)}}@keyframes u1{36.99%{transform:scale(0,1)}37.01%,39.18%{transform:scale(.08,1)}39.2%,41.75%{transform:scale(.17,1)}41.77%,43.95%{transform:scale(.25,1)}43.97%,45.78%{transform:scale(.33,1)}45.8%,52.37%{transform:scale(.42,1)}52.39%,56.4%{transform:scale(.5,1)}56.42%,57.87%{transform:scale(.58,1)}57.89%,60.43%{transform:scale(.67,1)}60.45%,62.26%{transform:scale(.75,1)}62.28%,62.99%{transform:scale(.83,1)}63.01%,63.73%{transform:scale(.92,1)}63.75%,to{transform:scale(1,1)}}@keyframes u2{65.92%{transform:scale(0,1)}65.94%,67.76%{transform:scale(.2,1)}67.78%,69.22%{transform:scale(.4,1)}69.24%,69.59%{transform:scale(.6,1)}69.61%,81.31%{transform:scale(.8,1)}81.33%,to{transform:scale(1,1)}}@keyframes u3{92.66%{transform:scale(0,1)}92.68%,95.59%{transform:scale(.5,1)}95.61%,to{transform:scale(1,1)}}@keyframes s0{0%,99.63%{transform:translate(0,-16px)}.37%{transform:translate(0,0)}1.1%{transform:translate(32px,0)}1.83%{transform:translate(32px,32px)}3.3%{transform:translate(96px,32px)}3.66%,95.97%{transform:translate(96px,48px)}4.03%{transform:translate(80px,48px)}4.4%{transform:translate(80px,32px)}5.13%{transform:translate(112px,32px)}5.49%,94.87%{transform:translate(112px,16px)}5.86%{transform:translate(128px,16px)}7.33%{transform:translate(128px,80px)}7.69%{transform:translate(112px,80px)}8.06%{transform:translate(112px,96px)}60.81%,8.79%{transform:translate(144px,96px)}9.16%{transform:translate(144px,80px)}10.26%{transform:translate(192px,80px)}11.36%,68.5%{transform:translate(192px,32px)}12.09%,57.51%{transform:translate(224px,32px)}12.45%{transform:translate(224px,16px)}14.29%{transform:translate(304px,16px)}15.02%{transform:translate(304px,48px)}17.95%{transform:translate(432px,48px)}18.32%,21.25%{transform:translate(432px,32px)}18.68%{transform:translate(448px,32px)}19.41%{transform:translate(448px,0)}20.15%{transform:translate(416px,0)}20.88%{transform:translate(416px,32px)}22.71%{transform:translate(432px,96px)}27.11%{transform:translate(624px,96px)}27.84%{transform:translate(624px,64px)}28.57%,46.15%{transform:translate(656px,64px)}28.94%{transform:translate(656px,80px)}30.4%{transform:translate(720px,80px)}30.77%{transform:translate(720px,64px)}31.14%,45.05%{transform:translate(704px,64px)}32.23%{transform:translate(704px,16px)}34.07%{transform:translate(784px,16px)}35.16%{transform:translate(784px,64px)}35.53%{transform:translate(800px,64px)}36.26%{transform:translate(800px,96px)}36.63%{transform:translate(816px,96px)}37%{transform:translate(816px,80px)}37.36%{transform:translate(832px,80px)}39.19%{transform:translate(832px,0)}41.76%{transform:translate(720px,0)}43.96%{transform:translate(720px,96px)}44.32%{transform:translate(704px,96px)}47.25%,82.42%{transform:translate(656px,16px)}56.04%{transform:translate(272px,16px)}56.41%{transform:translate(272px,32px)}58.24%{transform:translate(224px,64px)}59.71%{transform:translate(160px,64px)}60.44%{transform:translate(160px,96px)}61.54%{transform:translate(144px,64px)}62.64%{transform:translate(96px,64px)}63%{transform:translate(96px,80px)}63.37%{transform:translate(80px,80px)}63.74%{transform:translate(80px,96px)}66.67%{transform:translate(208px,96px)}68.13%{transform:translate(208px,32px)}69.23%{transform:translate(192px,0)}80.22%{transform:translate(672px,0)}81.32%{transform:translate(672px,48px)}81.68%{transform:translate(656px,48px)}95.6%{transform:translate(112px,48px)}97.07%{transform:translate(96px,0)}97.8%{transform:translate(64px,0)}98.17%{transform:translate(64px,-16px)}}@keyframes s1{0%,99.63%{transform:translate(16px,-16px)}.37%{transform:translate(0,-16px)}.73%{transform:translate(0,0)}1.47%{transform:translate(32px,0)}2.2%{transform:translate(32px,32px)}3.66%{transform:translate(96px,32px)}4.03%,96.34%{transform:translate(96px,48px)}4.4%{transform:translate(80px,48px)}4.76%{transform:translate(80px,32px)}5.49%{transform:translate(112px,32px)}5.86%,95.24%{transform:translate(112px,16px)}6.23%{transform:translate(128px,16px)}7.69%{transform:translate(128px,80px)}8.06%{transform:translate(112px,80px)}8.42%{transform:translate(112px,96px)}61.17%,9.16%{transform:translate(144px,96px)}9.52%{transform:translate(144px,80px)}10.62%{transform:translate(192px,80px)}11.72%,68.86%{transform:translate(192px,32px)}12.45%,57.88%{transform:translate(224px,32px)}12.82%{transform:translate(224px,16px)}14.65%{transform:translate(304px,16px)}15.38%{transform:translate(304px,48px)}18.32%{transform:translate(432px,48px)}18.68%,21.61%{transform:translate(432px,32px)}19.05%{transform:translate(448px,32px)}19.78%{transform:translate(448px,0)}20.51%{transform:translate(416px,0)}21.25%{transform:translate(416px,32px)}23.08%{transform:translate(432px,96px)}27.47%{transform:translate(624px,96px)}28.21%{transform:translate(624px,64px)}28.94%,46.52%{transform:translate(656px,64px)}29.3%{transform:translate(656px,80px)}30.77%{transform:translate(720px,80px)}31.14%{transform:translate(720px,64px)}31.5%,45.42%{transform:translate(704px,64px)}32.6%{transform:translate(704px,16px)}34.43%{transform:translate(784px,16px)}35.53%{transform:translate(784px,64px)}35.9%{transform:translate(800px,64px)}36.63%{transform:translate(800px,96px)}37%{transform:translate(816px,96px)}37.36%{transform:translate(816px,80px)}37.73%{transform:translate(832px,80px)}39.56%{transform:translate(832px,0)}42.12%{transform:translate(720px,0)}44.32%{transform:translate(720px,96px)}44.69%{transform:translate(704px,96px)}47.62%,82.78%{transform:translate(656px,16px)}56.41%{transform:translate(272px,16px)}56.78%{transform:translate(272px,32px)}58.61%{transform:translate(224px,64px)}60.07%{transform:translate(160px,64px)}60.81%{transform:translate(160px,96px)}61.9%{transform:translate(144px,64px)}63%{transform:translate(96px,64px)}63.37%{transform:translate(96px,80px)}63.74%{transform:translate(80px,80px)}64.1%{transform:translate(80px,96px)}67.03%{transform:translate(208px,96px)}68.5%{transform:translate(208px,32px)}69.6%{transform:translate(192px,0)}80.59%{transform:translate(672px,0)}81.68%{transform:translate(672px,48px)}82.05%{transform:translate(656px,48px)}95.97%{transform:translate(112px,48px)}97.44%{transform:translate(96px,0)}98.17%{transform:translate(64px,0)}98.53%{transform:translate(64px,-16px)}}@keyframes s2{0%,99.63%{transform:translate(32px,-16px)}.73%{transform:translate(0,-16px)}1.1%{transform:translate(0,0)}1.83%{transform:translate(32px,0)}2.56%{transform:translate(32px,32px)}4.03%{transform:translate(96px,32px)}4.4%,96.7%{transform:translate(96px,48px)}4.76%{transform:translate(80px,48px)}5.13%{transform:translate(80px,32px)}5.86%{transform:translate(112px,32px)}6.23%,95.6%{transform:translate(112px,16px)}6.59%{transform:translate(128px,16px)}8.06%{transform:translate(128px,80px)}8.42%{transform:translate(112px,80px)}8.79%{transform:translate(112px,96px)}61.54%,9.52%{transform:translate(144px,96px)}9.89%{transform:translate(144px,80px)}10.99%{transform:translate(192px,80px)}12.09%,69.23%{transform:translate(192px,32px)}12.82%,58.24%{transform:translate(224px,32px)}13.19%{transform:translate(224px,16px)}15.02%{transform:translate(304px,16px)}15.75%{transform:translate(304px,48px)}18.68%{transform:translate(432px,48px)}19.05%,21.98%{transform:translate(432px,32px)}19.41%{transform:translate(448px,32px)}20.15%{transform:translate(448px,0)}20.88%{transform:translate(416px,0)}21.61%{transform:translate(416px,32px)}23.44%{transform:translate(432px,96px)}27.84%{transform:translate(624px,96px)}28.57%{transform:translate(624px,64px)}29.3%,46.89%{transform:translate(656px,64px)}29.67%{transform:translate(656px,80px)}31.14%{transform:translate(720px,80px)}31.5%{transform:translate(720px,64px)}31.87%,45.79%{transform:translate(704px,64px)}32.97%{transform:translate(704px,16px)}34.8%{transform:translate(784px,16px)}35.9%{transform:translate(784px,64px)}36.26%{transform:translate(800px,64px)}37%{transform:translate(800px,96px)}37.36%{transform:translate(816px,96px)}37.73%{transform:translate(816px,80px)}38.1%{transform:translate(832px,80px)}39.93%{transform:translate(832px,0)}42.49%{transform:translate(720px,0)}44.69%{transform:translate(720px,96px)}45.05%{transform:translate(704px,96px)}47.99%,83.15%{transform:translate(656px,16px)}56.78%{transform:translate(272px,16px)}57.14%{transform:translate(272px,32px)}58.97%{transform:translate(224px,64px)}60.44%{transform:translate(160px,64px)}61.17%{transform:translate(160px,96px)}62.27%{transform:translate(144px,64px)}63.37%{transform:translate(96px,64px)}63.74%{transform:translate(96px,80px)}64.1%{transform:translate(80px,80px)}64.47%{transform:translate(80px,96px)}67.4%{transform:translate(208px,96px)}68.86%{transform:translate(208px,32px)}69.96%{transform:translate(192px,0)}80.95%{transform:translate(672px,0)}82.05%{transform:translate(672px,48px)}82.42%{transform:translate(656px,48px)}96.34%{transform:translate(112px,48px)}97.8%{transform:translate(96px,0)}98.53%{transform:translate(64px,0)}98.9%{transform:translate(64px,-16px)}}@keyframes s3{0%,99.63%{transform:translate(48px,-16px)}1.1%{transform:translate(0,-16px)}1.47%{transform:translate(0,0)}2.2%{transform:translate(32px,0)}2.93%{transform:translate(32px,32px)}4.4%{transform:translate(96px,32px)}4.76%,97.07%{transform:translate(96px,48px)}5.13%{transform:translate(80px,48px)}5.49%{transform:translate(80px,32px)}6.23%{transform:translate(112px,32px)}6.59%,95.97%{transform:translate(112px,16px)}6.96%{transform:translate(128px,16px)}8.42%{transform:translate(128px,80px)}8.79%{transform:translate(112px,80px)}9.16%{transform:translate(112px,96px)}61.9%,9.89%{transform:translate(144px,96px)}10.26%{transform:translate(144px,80px)}11.36%{transform:translate(192px,80px)}12.45%,69.6%{transform:translate(192px,32px)}13.19%,58.61%{transform:translate(224px,32px)}13.55%{transform:translate(224px,16px)}15.38%{transform:translate(304px,16px)}16.12%{transform:translate(304px,48px)}19.05%{transform:translate(432px,48px)}19.41%,22.34%{transform:translate(432px,32px)}19.78%{transform:translate(448px,32px)}20.51%{transform:translate(448px,0)}21.25%{transform:translate(416px,0)}21.98%{transform:translate(416px,32px)}23.81%{transform:translate(432px,96px)}28.21%{transform:translate(624px,96px)}28.94%{transform:translate(624px,64px)}29.67%,47.25%{transform:translate(656px,64px)}30.04%{transform:translate(656px,80px)}31.5%{transform:translate(720px,80px)}31.87%{transform:translate(720px,64px)}32.23%,46.15%{transform:translate(704px,64px)}33.33%{transform:translate(704px,16px)}35.16%{transform:translate(784px,16px)}36.26%{transform:translate(784px,64px)}36.63%{transform:translate(800px,64px)}37.36%{transform:translate(800px,96px)}37.73%{transform:translate(816px,96px)}38.1%{transform:translate(816px,80px)}38.46%{transform:translate(832px,80px)}40.29%{transform:translate(832px,0)}42.86%{transform:translate(720px,0)}45.05%{transform:translate(720px,96px)}45.42%{transform:translate(704px,96px)}48.35%,83.52%{transform:translate(656px,16px)}57.14%{transform:translate(272px,16px)}57.51%{transform:translate(272px,32px)}59.34%{transform:translate(224px,64px)}60.81%{transform:translate(160px,64px)}61.54%{transform:translate(160px,96px)}62.64%{transform:translate(144px,64px)}63.74%{transform:translate(96px,64px)}64.1%{transform:translate(96px,80px)}64.47%{transform:translate(80px,80px)}64.84%{transform:translate(80px,96px)}67.77%{transform:translate(208px,96px)}69.23%{transform:translate(208px,32px)}70.33%{transform:translate(192px,0)}81.32%{transform:translate(672px,0)}82.42%{transform:translate(672px,48px)}82.78%{transform:translate(656px,48px)}96.7%{transform:translate(112px,48px)}98.17%{transform:translate(96px,0)}98.9%{transform:translate(64px,0)}99.27%{transform:translate(64px,-16px)}}:root{--cb:#1b1f230a;--cs:purple;--ce:#ebedf0;--c0:#ebedf0;--c1:#9be9a8;--c2:#40c463;--c3:#30a14e;--c4:#216e39}@media (prefers-color-scheme:dark){:root{--cb:#1b1f230a;--cs:purple;--ce:#161b22;--c1:#01311f;--c2:#034525;--c3:#0f6d31;--c4:#00c647}}.c{shape-rendering:geometricPrecision;fill:var(--ce);stroke-width:1px;stroke:var(--cb);animation:none 27300ms linear infinite}.c.c0,.c.c1,.c.c2{fill:var(--c1);animation-name:c0}.c.c1,.c.c2{animation-name:c1}.c.c2{animation-name:c2}.c.c3{fill:var(--c2);animation-name:c3}.c.c4,.c.c5{fill:var(--c1);animation-name:c4}.c.c5{animation-name:c5}.c.c6{fill:var(--c2);animation-name:c6}.c.c7{fill:var(--c1);animation-name:c7}.c.c8{fill:var(--c4);animation-name:c8}.c.c9{fill:var(--c2);animation-name:c9}.c.ca{fill:var(--c1);animation-name:ca}.c.cb{fill:var(--c2);animation-name:cb}.c.cc,.c.cd,.c.ce{fill:var(--c3);animation-name:cc}.c.cd,.c.ce{animation-name:cd}.c.ce{animation-name:ce}.c.cf{fill:var(--c4);animation-name:cf}.c.cg{fill:var(--c3);animation-name:cg}.c.ch{fill:var(--c1);animation-name:ch}.c.ci{fill:var(--c2);animation-name:ci}.c.cj{fill:var(--c1);animation-name:cj}.c.ck{fill:var(--c2);animation-name:ck}.c.cl,.c.cm{fill:var(--c1);animation-name:cl}.c.cm{animation-name:cm}.c.cn{fill:var(--c2);animation-name:cn}.c.co,.c.cp{fill:var(--c1);animation-name:co}.c.cp{animation-name:cp}.c.cq,.c.cr,.c.cs{fill:var(--c1);animation-name:cq}.c.cr,.c.cs{animation-name:cr}.c.cs{animation-name:cs}.c.ct{fill:var(--c3);animation-name:ct}.c.cu{fill:var(--c2);animation-name:cu}.c.cv{fill:var(--c1);animation-name:cv}.c.cw,.c.cx,.c.cy{fill:var(--c1);animation-name:cw}.c.cx,.c.cy{animation-name:cx}.c.cy{animation-name:cy}.c.cz{fill:var(--c2);animation-name:cz}.c.c10,.c.c11{fill:var(--c1);animation-name:c10}.c.c11{animation-name:c11}.c.c12{fill:var(--c2);animation-name:c12}.c.c13,.c.c14{fill:var(--c1);animation-name:c13}.c.c14{animation-name:c14}.c.c15{fill:var(--c2);animation-name:c15}.c.c16{fill:var(--c1);animation-name:c16}.c.c17{fill:var(--c2);animation-name:c17}.s,.u{animation:none linear 27300ms infinite}.u,.u.u0{transform-origin:0 0}.u{transform:scale(0,1)}.u.u0{fill:var(--c1);animation-name:u0}.u.u1{fill:var(--c2);animation-name:u1;transform-origin:481.8px 0}.u.u2{fill:var(--c3);animation-name:u2;transform-origin:713.1px 0}.u.u3{fill:var(--c4);animation-name:u3;transform-origin:809.5px 0}.s{shape-rendering:geometricPrecision;fill:var(--cs)}.s.s0{transform:translate(0,-16px);animation-name:s0}.s.s1{transform:translate(16px,-16px);animation-name:s1}.s.s2{transform:translate(32px,-16px);animation-name:s2}.s.s3{transform:translate(48px,-16px);animation-name:s3}</style><rect class="c" x="2" y="2" rx="2" ry="2" width="12" height="12"/><rect class="c" x="2" y="18" rx="2" ry="2" width="12" height="12"/><rect class="c" x="2" y="34" rx="2" ry="2" width="12" height="12"/><rect class="c" x="2" y="50" rx="2" ry="2" width="12" height="12"/><rect class="c" x="2" y="66" rx="2" ry="2" width="12" height="12"/><rect class="c" x="2" y="82" rx="2" ry="2" width="12" height="12"/><rect class="c" x="2" y="98" rx="2" ry="2" width="12" height="12"/><rect class="c c0" x="18" y="2" rx="2" ry="2" width="12" height="12"/><rect class="c" x="18" y="18" rx="2" ry="2" width="12" height="12"/><rect class="c" x="18" y="34" rx="2" ry="2" width="12" height="12"/><rect class="c" x="18" y="50" rx="2" ry="2" width="12" height="12"/><rect class="c" x="18" y="66" rx="2" ry="2" width="12" height="12"/><rect class="c" x="18" y="82" rx="2" ry="2" width="12" height="12"/><rect class="c" x="18" y="98" rx="2" ry="2" width="12" height="12"/><rect class="c" x="34" y="2" rx="2" ry="2" width="12" height="12"/><rect class="c c1" x="34" y="18" rx="2" ry="2" width="12" height="12"/><rect class="c c2" x="34" y="34" rx="2" ry="2" width="12" height="12"/><rect class="c" x="34" y="50" rx="2" ry="2" width="12" height="12"/><rect class="c" x="34" y="66" rx="2" ry="2" width="12" height="12"/><rect class="c" x="34" y="82" rx="2" ry="2" width="12" height="12"/><rect class="c" x="34" y="98" rx="2" ry="2" width="12" height="12"/><rect class="c" x="50" y="2" rx="2" ry="2" width="12" height="12"/><rect class="c" x="50" y="18" rx="2" ry="2" width="12" height="12"/><rect class="c" x="50" y="34" rx="2" ry="2" width="12" height="12"/><rect class="c" x="50" y="50" rx="2" ry="2" width="12" height="12"/><rect class="c" x="50" y="66" rx="2" ry="2" width="12" height="12"/><rect class="c" x="50" y="82" rx="2" ry="2" width="12" height="12"/><rect class="c" x="50" y="98" rx="2" ry="2" width="12" height="12"/><rect class="c" x="66" y="2" rx="2" ry="2" width="12" height="12"/><rect class="c" x="66" y="18" rx="2" ry="2" width="12" height="12"/><rect class="c" x="66" y="34" rx="2" ry="2" width="12" height="12"/><rect class="c" x="66" y="50" rx="2" ry="2" width="12" height="12"/><rect class="c" x="66" y="66" rx="2" ry="2" width="12" height="12"/><rect class="c" x="66" y="82" rx="2" ry="2" width="12" height="12"/><rect class="c" x="66" y="98" rx="2" ry="2" width="12" height="12"/><rect class="c" x="82" y="2" rx="2" ry="2" width="12" height="12"/><rect class="c" x="82" y="18" rx="2" ry="2" width="12" height="12"/><rect class="c" x="82" y="34" rx="2" ry="2" width="12" height="12"/><rect class="c" x="82" y="50" rx="2" ry="2" width="12" height="12"/><rect class="c" x="82" y="66" rx="2" ry="2" width="12" height="12"/><rect class="c" x="82" y="82" rx="2" ry="2" width="12" height="12"/><rect class="c c3" x="82" y="98" rx="2" ry="2" width="12" height="12"/><rect class="c" x="98" y="2" rx="2" ry="2" width="12" height="12"/><rect class="c" x="98" y="18" rx="2" ry="2" width="12" height="12"/><rect class="c c4" x="98" y="34" rx="2" ry="2" width="12" height="12"/><rect class="c c5" x="98" y="50" rx="2" ry="2" width="12" height="12"/><rect class="c" x="98" y="66" rx="2" ry="2" width="12" height="12"/><rect class="c c6" x="98" y="82" rx="2" ry="2" width="12" height="12"/><rect class="c" x="98" y="98" rx="2" ry="2" width="12" height="12"/><rect class="c" x="114" y="2" rx="2" ry="2" width="12" height="12"/><rect class="c c7" x="114" y="18" rx="2" ry="2" width="12" height="12"/><rect class="c" x="114" y="34" rx="2" ry="2" width="12" height="12"/><rect class="c c8" x="114" y="50" rx="2" ry="2" width="12" height="12"/><rect class="c c9" x="114" y="66" rx="2" ry="2" width="12" height="12"/><rect class="c" x="114" y="82" rx="2" ry="2" width="12" height="12"/><rect class="c ca" x="114" y="98" rx="2" ry="2" width="12" height="12"/><rect class="c" x="130" y="2" rx="2" ry="2" width="12" height="12"/><rect class="c" x="130" y="18" rx="2" ry="2" width="12" height="12"/><rect class="c" x="130" y="34" rx="2" ry="2" width="12" height="12"/><rect class="c" x="130" y="50" rx="2" ry="2" width="12" height="12"/><rect class="c" x="130" y="66" rx="2" ry="2" width="12" height="12"/><rect class="c" x="130" y="82" rx="2" ry="2" width="12" height="12"/><rect class="c" x="130" y="98" rx="2" ry="2" width="12" height="12"/><rect class="c" x="146" y="2" rx="2" ry="2" width="12" height="12"/><rect class="c" x="146" y="18" rx="2" ry="2" width="12" height="12"/><rect class="c" x="146" y="34" rx="2" ry="2" width="12" height="12"/><rect class="c" x="146" y="50" rx="2" ry="2" width="12" height="12"/><rect class="c" x="146" y="66" rx="2" ry="2" width="12" height="12"/><rect class="c" x="146" y="82" rx="2" ry="2" width="12" height="12"/><rect class="c" x="146" y="98" rx="2" ry="2" width="12" height="12"/><rect class="c" x="162" y="2" rx="2" ry="2" width="12" height="12"/><rect class="c" x="162" y="18" rx="2" ry="2" width="12" height="12"/><rect class="c" x="162" y="34" rx="2" ry="2" width="12" height="12"/><rect class="c" x="162" y="50" rx="2" ry="2" width="12" height="12"/><rect class="c" x="162" y="66" rx="2" ry="2" width="12" height="12"/><rect class="c" x="162" y="82" rx="2" ry="2" width="12" height="12"/><rect class="c cb" x="162" y="98" rx="2" ry="2" width="12" height="12"/><rect class="c" x="178" y="2" rx="2" ry="2" width="12" height="12"/><rect class="c" x="178" y="18" rx="2" ry="2" width="12" height="12"/><rect class="c" x="178" y="34" rx="2" ry="2" width="12" height="12"/><rect class="c" x="178" y="50" rx="2" ry="2" width="12" height="12"/><rect class="c" x="178" y="66" rx="2" ry="2" width="12" height="12"/><rect class="c" x="178" y="82" rx="2" ry="2" width="12" height="12"/><rect class="c cc" x="178" y="98" rx="2" ry="2" width="12" height="12"/><rect class="c cd" x="194" y="2" rx="2" ry="2" width="12" height="12"/><rect class="c" x="194" y="18" rx="2" ry="2" width="12" height="12"/><rect class="c" x="194" y="34" rx="2" ry="2" width="12" height="12"/><rect class="c" x="194" y="50" rx="2" ry="2" width="12" height="12"/><rect class="c" x="194" y="66" rx="2" ry="2" width="12" height="12"/><rect class="c" x="194" y="82" rx="2" ry="2" width="12" height="12"/><rect class="c" x="194" y="98" rx="2" ry="2" width="12" height="12"/><rect class="c ce" x="210" y="2" rx="2" ry="2" width="12" height="12"/><rect class="c cf" x="210" y="18" rx="2" ry="2" width="12" height="12"/><rect class="c" x="210" y="34" rx="2" ry="2" width="12" height="12"/><rect class="c cg" x="210" y="50" rx="2" ry="2" width="12" height="12"/><rect class="c" x="210" y="66" rx="2" ry="2" width="12" height="12"/><rect class="c" x="210" y="82" rx="2" ry="2" width="12" height="12"/><rect class="c" x="210" y="98" rx="2" ry="2" width="12" height="12"/><rect class="c" x="226" y="2" rx="2" ry="2" width="12" height="12"/><rect class="c ch" x="226" y="18" rx="2" ry="2" width="12" height="12"/><rect class="c" x="226" y="34" rx="2" ry="2" width="12" height="12"/><rect class="c ci" x="226" y="50" rx="2" ry="2" width="12" height="12"/><rect class="c" x="226" y="66" rx="2" ry="2" width="12" height="12"/><rect class="c" x="226" y="82" rx="2" ry="2" width="12" height="12"/><rect class="c" x="226" y="98" rx="2" ry="2" width="12" height="12"/><rect class="c" x="242" y="2" rx="2" ry="2" width="12" height="12"/><rect class="c cj" x="242" y="18" rx="2" ry="2" width="12" height="12"/><rect class="c" x="242" y="34" rx="2" ry="2" width="12" height="12"/><rect class="c" x="242" y="50" rx="2" ry="2" width="12" height="12"/><rect class="c" x="242" y="66" rx="2" ry="2" width="12" height="12"/><rect class="c" x="242" y="82" rx="2" ry="2" width="12" height="12"/><rect class="c" x="242" y="98" rx="2" ry="2" width="12" height="12"/><rect class="c" x="258" y="2" rx="2" ry="2" width="12" height="12"/><rect class="c" x="258" y="18" rx="2" ry="2" width="12" height="12"/><rect class="c" x="258" y="34" rx="2" ry="2" width="12" height="12"/><rect class="c" x="258" y="50" rx="2" ry="2" width="12" height="12"/><rect class="c" x="258" y="66" rx="2" ry="2" width="12" height="12"/><rect class="c" x="258" y="82" rx="2" ry="2" width="12" height="12"/><rect class="c" x="258" y="98" rx="2" ry="2" width="12" height="12"/><rect class="c" x="274" y="2" rx="2" ry="2" width="12" height="12"/><rect class="c" x="274" y="18" rx="2" ry="2" width="12" height="12"/><rect class="c ck" x="274" y="34" rx="2" ry="2" width="12" height="12"/><rect class="c" x="274" y="50" rx="2" ry="2" width="12" height="12"/><rect class="c" x="274" y="66" rx="2" ry="2" width="12" height="12"/><rect class="c" x="274" y="82" rx="2" ry="2" width="12" height="12"/><rect class="c" x="274" y="98" rx="2" ry="2" width="12" height="12"/><rect class="c" x="290" y="2" rx="2" ry="2" width="12" height="12"/><rect class="c" x="290" y="18" rx="2" ry="2" width="12" height="12"/><rect class="c" x="290" y="34" rx="2" ry="2" width="12" height="12"/><rect class="c" x="290" y="50" rx="2" ry="2" width="12" height="12"/><rect class="c" x="290" y="66" rx="2" ry="2" width="12" height="12"/><rect class="c" x="290" y="82" rx="2" ry="2" width="12" height="12"/><rect class="c" x="290" y="98" rx="2" ry="2" width="12" height="12"/><rect class="c" x="306" y="2" rx="2" ry="2" width="12" height="12"/><rect class="c" x="306" y="18" rx="2" ry="2" width="12" height="12"/><rect class="c" x="306" y="34" rx="2" ry="2" width="12" height="12"/><rect class="c cl" x="306" y="50" rx="2" ry="2" width="12" height="12"/><rect class="c" x="306" y="66" rx="2" ry="2" width="12" height="12"/><rect class="c" x="306" y="82" rx="2" ry="2" width="12" height="12"/><rect class="c" x="306" y="98" rx="2" ry="2" width="12" height="12"/><rect class="c" x="322" y="2" rx="2" ry="2" width="12" height="12"/><rect class="c" x="322" y="18" rx="2" ry="2" width="12" height="12"/><rect class="c" x="322" y="34" rx="2" ry="2" width="12" height="12"/><rect class="c" x="322" y="50" rx="2" ry="2" width="12" height="12"/><rect class="c" x="322" y="66" rx="2" ry="2" width="12" height="12"/><rect class="c" x="322" y="82" rx="2" ry="2" width="12" height="12"/><rect class="c" x="322" y="98" rx="2" ry="2" width="12" height="12"/><rect class="c" x="338" y="2" rx="2" ry="2" width="12" height="12"/><rect class="c" x="338" y="18" rx="2" ry="2" width="12" height="12"/><rect class="c" x="338" y="34" rx="2" ry="2" width="12" height="12"/><rect class="c" x="338" y="50" rx="2" ry="2" width="12" height="12"/><rect class="c" x="338" y="66" rx="2" ry="2" width="12" height="12"/><rect class="c" x="338" y="82" rx="2" ry="2" width="12" height="12"/><rect class="c" x="338" y="98" rx="2" ry="2" width="12" height="12"/><rect class="c" x="354" y="2" rx="2" ry="2" width="12" height="12"/><rect class="c" x="354" y="18" rx="2" ry="2" width="12" height="12"/><rect class="c" x="354" y="34" rx="2" ry="2" width="12" height="12"/><rect class="c" x="354" y="50" rx="2" ry="2" width="12" height="12"/><rect class="c" x="354" y="66" rx="2" ry="2" width="12" height="12"/><rect class="c" x="354" y="82" rx="2" ry="2" width="12" height="12"/><rect class="c" x="354" y="98" rx="2" ry="2" width="12" height="12"/><rect class="c" x="370" y="2" rx="2" ry="2" width="12" height="12"/><rect class="c" x="370" y="18" rx="2" ry="2" width="12" height="12"/><rect class="c" x="370" y="34" rx="2" ry="2" width="12" height="12"/><rect class="c" x="370" y="50" rx="2" ry="2" width="12" height="12"/><rect class="c" x="370" y="66" rx="2" ry="2" width="12" height="12"/><rect class="c" x="370" y="82" rx="2" ry="2" width="12" height="12"/><rect class="c" x="370" y="98" rx="2" ry="2" width="12" height="12"/><rect class="c" x="386" y="2" rx="2" ry="2" width="12" height="12"/><rect class="c" x="386" y="18" rx="2" ry="2" width="12" height="12"/><rect class="c" x="386" y="34" rx="2" ry="2" width="12" height="12"/><rect class="c" x="386" y="50" rx="2" ry="2" width="12" height="12"/><rect class="c" x="386" y="66" rx="2" ry="2" width="12" height="12"/><rect class="c" x="386" y="82" rx="2" ry="2" width="12" height="12"/><rect class="c" x="386" y="98" rx="2" ry="2" width="12" height="12"/><rect class="c" x="402" y="2" rx="2" ry="2" width="12" height="12"/><rect class="c" x="402" y="18" rx="2" ry="2" width="12" height="12"/><rect class="c" x="402" y="34" rx="2" ry="2" width="12" height="12"/><rect class="c" x="402" y="50" rx="2" ry="2" width="12" height="12"/><rect class="c" x="402" y="66" rx="2" ry="2" width="12" height="12"/><rect class="c" x="402" y="82" rx="2" ry="2" width="12" height="12"/><rect class="c" x="402" y="98" rx="2" ry="2" width="12" height="12"/><rect class="c" x="418" y="2" rx="2" ry="2" width="12" height="12"/><rect class="c" x="418" y="18" rx="2" ry="2" width="12" height="12"/><rect class="c" x="418" y="34" rx="2" ry="2" width="12" height="12"/><rect class="c" x="418" y="50" rx="2" ry="2" width="12" height="12"/><rect class="c" x="418" y="66" rx="2" ry="2" width="12" height="12"/><rect class="c" x="418" y="82" rx="2" ry="2" width="12" height="12"/><rect class="c" x="418" y="98" rx="2" ry="2" width="12" height="12"/><rect class="c cm" x="434" y="2" rx="2" ry="2" width="12" height="12"/><rect class="c cn" x="434" y="18" rx="2" ry="2" width="12" height="12"/><rect class="c co" x="434" y="34" rx="2" ry="2" width="12" height="12"/><rect class="c" x="434" y="50" rx="2" ry="2" width="12" height="12"/><rect class="c" x="434" y="66" rx="2" ry="2" width="12" height="12"/><rect class="c cp" x="434" y="82" rx="2" ry="2" width="12" height="12"/><rect class="c cq" x="434" y="98" rx="2" ry="2" width="12" height="12"/><rect class="c" x="450" y="2" rx="2" ry="2" width="12" height="12"/><rect class="c" x="450" y="18" rx="2" ry="2" width="12" height="12"/><rect class="c" x="450" y="34" rx="2" ry="2" width="12" height="12"/><rect class="c" x="450" y="50" rx="2" ry="2" width="12" height="12"/><rect class="c" x="450" y="66" rx="2" ry="2" width="12" height="12"/><rect class="c" x="450" y="82" rx="2" ry="2" width="12" height="12"/><rect class="c" x="450" y="98" rx="2" ry="2" width="12" height="12"/><rect class="c" x="466" y="2" rx="2" ry="2" width="12" height="12"/><rect class="c" x="466" y="18" rx="2" ry="2" width="12" height="12"/><rect class="c" x="466" y="34" rx="2" ry="2" width="12" height="12"/><rect class="c" x="466" y="50" rx="2" ry="2" width="12" height="12"/><rect class="c" x="466" y="66" rx="2" ry="2" width="12" height="12"/><rect class="c" x="466" y="82" rx="2" ry="2" width="12" height="12"/><rect class="c" x="466" y="98" rx="2" ry="2" width="12" height="12"/><rect class="c" x="482" y="2" rx="2" ry="2" width="12" height="12"/><rect class="c" x="482" y="18" rx="2" ry="2" width="12" height="12"/><rect class="c" x="482" y="34" rx="2" ry="2" width="12" height="12"/><rect class="c" x="482" y="50" rx="2" ry="2" width="12" height="12"/><rect class="c" x="482" y="66" rx="2" ry="2" width="12" height="12"/><rect class="c" x="482" y="82" rx="2" ry="2" width="12" height="12"/><rect class="c" x="482" y="98" rx="2" ry="2" width="12" height="12"/><rect class="c" x="498" y="2" rx="2" ry="2" width="12" height="12"/><rect class="c" x="498" y="18" rx="2" ry="2" width="12" height="12"/><rect class="c" x="498" y="34" rx="2" ry="2" width="12" height="12"/><rect class="c" x="498" y="50" rx="2" ry="2" width="12" height="12"/><rect class="c" x="498" y="66" rx="2" ry="2" width="12" height="12"/><rect class="c" x="498" y="82" rx="2" ry="2" width="12" height="12"/><rect class="c" x="498" y="98" rx="2" ry="2" width="12" height="12"/><rect class="c" x="514" y="2" rx="2" ry="2" width="12" height="12"/><rect class="c" x="514" y="18" rx="2" ry="2" width="12" height="12"/><rect class="c" x="514" y="34" rx="2" ry="2" width="12" height="12"/><rect class="c" x="514" y="50" rx="2" ry="2" width="12" height="12"/><rect class="c" x="514" y="66" rx="2" ry="2" width="12" height="12"/><rect class="c" x="514" y="82" rx="2" ry="2" width="12" height="12"/><rect class="c" x="514" y="98" rx="2" ry="2" width="12" height="12"/><rect class="c" x="530" y="2" rx="2" ry="2" width="12" height="12"/><rect class="c" x="530" y="18" rx="2" ry="2" width="12" height="12"/><rect class="c" x="530" y="34" rx="2" ry="2" width="12" height="12"/><rect class="c" x="530" y="50" rx="2" ry="2" width="12" height="12"/><rect class="c" x="530" y="66" rx="2" ry="2" width="12" height="12"/><rect class="c" x="530" y="82" rx="2" ry="2" width="12" height="12"/><rect class="c" x="530" y="98" rx="2" ry="2" width="12" height="12"/><rect class="c" x="546" y="2" rx="2" ry="2" width="12" height="12"/><rect class="c" x="546" y="18" rx="2" ry="2" width="12" height="12"/><rect class="c" x="546" y="34" rx="2" ry="2" width="12" height="12"/><rect class="c" x="546" y="50" rx="2" ry="2" width="12" height="12"/><rect class="c" x="546" y="66" rx="2" ry="2" width="12" height="12"/><rect class="c" x="546" y="82" rx="2" ry="2" width="12" height="12"/><rect class="c" x="546" y="98" rx="2" ry="2" width="12" height="12"/><rect class="c" x="562" y="2" rx="2" ry="2" width="12" height="12"/><rect class="c" x="562" y="18" rx="2" ry="2" width="12" height="12"/><rect class="c" x="562" y="34" rx="2" ry="2" width="12" height="12"/><rect class="c" x="562" y="50" rx="2" ry="2" width="12" height="12"/><rect class="c" x="562" y="66" rx="2" ry="2" width="12" height="12"/><rect class="c" x="562" y="82" rx="2" ry="2" width="12" height="12"/><rect class="c" x="562" y="98" rx="2" ry="2" width="12" height="12"/><rect class="c" x="578" y="2" rx="2" ry="2" width="12" height="12"/><rect class="c" x="578" y="18" rx="2" ry="2" width="12" height="12"/><rect class="c" x="578" y="34" rx="2" ry="2" width="12" height="12"/><rect class="c" x="578" y="50" rx="2" ry="2" width="12" height="12"/><rect class="c" x="578" y="66" rx="2" ry="2" width="12" height="12"/><rect class="c" x="578" y="82" rx="2" ry="2" width="12" height="12"/><rect class="c" x="578" y="98" rx="2" ry="2" width="12" height="12"/><rect class="c" x="594" y="2" rx="2" ry="2" width="12" height="12"/><rect class="c" x="594" y="18" rx="2" ry="2" width="12" height="12"/><rect class="c" x="594" y="34" rx="2" ry="2" width="12" height="12"/><rect class="c" x="594" y="50" rx="2" ry="2" width="12" height="12"/><rect class="c" x="594" y="66" rx="2" ry="2" width="12" height="12"/><rect class="c" x="594" y="82" rx="2" ry="2" width="12" height="12"/><rect class="c" x="594" y="98" rx="2" ry="2" width="12" height="12"/><rect class="c" x="610" y="2" rx="2" ry="2" width="12" height="12"/><rect class="c" x="610" y="18" rx="2" ry="2" width="12" height="12"/><rect class="c" x="610" y="34" rx="2" ry="2" width="12" height="12"/><rect class="c" x="610" y="50" rx="2" ry="2" width="12" height="12"/><rect class="c" x="610" y="66" rx="2" ry="2" width="12" height="12"/><rect class="c" x="610" y="82" rx="2" ry="2" width="12" height="12"/><rect class="c" x="610" y="98" rx="2" ry="2" width="12" height="12"/><rect class="c" x="626" y="2" rx="2" ry="2" width="12" height="12"/><rect class="c" x="626" y="18" rx="2" ry="2" width="12" height="12"/><rect class="c" x="626" y="34" rx="2" ry="2" width="12" height="12"/><rect class="c" x="626" y="50" rx="2" ry="2" width="12" height="12"/><rect class="c cr" x="626" y="66" rx="2" ry="2" width="12" height="12"/><rect class="c" x="626" y="82" rx="2" ry="2" width="12" height="12"/><rect class="c" x="626" y="98" rx="2" ry="2" width="12" height="12"/><rect class="c" x="642" y="2" rx="2" ry="2" width="12" height="12"/><rect class="c" x="642" y="18" rx="2" ry="2" width="12" height="12"/><rect class="c" x="642" y="34" rx="2" ry="2" width="12" height="12"/><rect class="c" x="642" y="50" rx="2" ry="2" width="12" height="12"/><rect class="c cs" x="642" y="66" rx="2" ry="2" width="12" height="12"/><rect class="c" x="642" y="82" rx="2" ry="2" width="12" height="12"/><rect class="c" x="642" y="98" rx="2" ry="2" width="12" height="12"/><rect class="c" x="658" y="2" rx="2" ry="2" width="12" height="12"/><rect class="c" x="658" y="18" rx="2" ry="2" width="12" height="12"/><rect class="c" x="658" y="34" rx="2" ry="2" width="12" height="12"/><rect class="c" x="658" y="50" rx="2" ry="2" width="12" height="12"/><rect class="c" x="658" y="66" rx="2" ry="2" width="12" height="12"/><rect class="c" x="658" y="82" rx="2" ry="2" width="12" height="12"/><rect class="c" x="658" y="98" rx="2" ry="2" width="12" height="12"/><rect class="c" x="674" y="2" rx="2" ry="2" width="12" height="12"/><rect class="c" x="674" y="18" rx="2" ry="2" width="12" height="12"/><rect class="c" x="674" y="34" rx="2" ry="2" width="12" height="12"/><rect class="c ct" x="674" y="50" rx="2" ry="2" width="12" height="12"/><rect class="c cu" x="674" y="66" rx="2" ry="2" width="12" height="12"/><rect class="c" x="674" y="82" rx="2" ry="2" width="12" height="12"/><rect class="c" x="674" y="98" rx="2" ry="2" width="12" height="12"/><rect class="c" x="690" y="2" rx="2" ry="2" width="12" height="12"/><rect class="c" x="690" y="18" rx="2" ry="2" width="12" height="12"/><rect class="c" x="690" y="34" rx="2" ry="2" width="12" height="12"/><rect class="c" x="690" y="50" rx="2" ry="2" width="12" height="12"/><rect class="c" x="690" y="66" rx="2" ry="2" width="12" height="12"/><rect class="c" x="690" y="82" rx="2" ry="2" width="12" height="12"/><rect class="c" x="690" y="98" rx="2" ry="2" width="12" height="12"/><rect class="c" x="706" y="2" rx="2" ry="2" width="12" height="12"/><rect class="c cv" x="706" y="18" rx="2" ry="2" width="12" height="12"/><rect class="c cw" x="706" y="34" rx="2" ry="2" width="12" height="12"/><rect class="c" x="706" y="50" rx="2" ry="2" width="12" height="12"/><rect class="c cx" x="706" y="66" rx="2" ry="2" width="12" height="12"/><rect class="c cy" x="706" y="82" rx="2" ry="2" width="12" height="12"/><rect class="c" x="706" y="98" rx="2" ry="2" width="12" height="12"/><rect class="c cz" x="722" y="2" rx="2" ry="2" width="12" height="12"/><rect class="c c10" x="722" y="18" rx="2" ry="2" width="12" height="12"/><rect class="c" x="722" y="34" rx="2" ry="2" width="12" height="12"/><rect class="c" x="722" y="50" rx="2" ry="2" width="12" height="12"/><rect class="c" x="722" y="66" rx="2" ry="2" width="12" height="12"/><rect class="c c11" x="722" y="82" rx="2" ry="2" width="12" height="12"/><rect class="c c12" x="722" y="98" rx="2" ry="2" width="12" height="12"/><rect class="c" x="738" y="2" rx="2" ry="2" width="12" height="12"/><rect class="c" x="738" y="18" rx="2" ry="2" width="12" height="12"/><rect class="c" x="738" y="34" rx="2" ry="2" width="12" height="12"/><rect class="c" x="738" y="50" rx="2" ry="2" width="12" height="12"/><rect class="c" x="738" y="66" rx="2" ry="2" width="12" height="12"/><rect class="c" x="738" y="82" rx="2" ry="2" width="12" height="12"/><rect class="c" x="738" y="98" rx="2" ry="2" width="12" height="12"/><rect class="c" x="754" y="2" rx="2" ry="2" width="12" height="12"/><rect class="c" x="754" y="18" rx="2" ry="2" width="12" height="12"/><rect class="c" x="754" y="34" rx="2" ry="2" width="12" height="12"/><rect class="c" x="754" y="50" rx="2" ry="2" width="12" height="12"/><rect class="c" x="754" y="66" rx="2" ry="2" width="12" height="12"/><rect class="c" x="754" y="82" rx="2" ry="2" width="12" height="12"/><rect class="c" x="754" y="98" rx="2" ry="2" width="12" height="12"/><rect class="c" x="770" y="2" rx="2" ry="2" width="12" height="12"/><rect class="c" x="770" y="18" rx="2" ry="2" width="12" height="12"/><rect class="c" x="770" y="34" rx="2" ry="2" width="12" height="12"/><rect class="c" x="770" y="50" rx="2" ry="2" width="12" height="12"/><rect class="c" x="770" y="66" rx="2" ry="2" width="12" height="12"/><rect class="c" x="770" y="82" rx="2" ry="2" width="12" height="12"/><rect class="c" x="770" y="98" rx="2" ry="2" width="12" height="12"/><rect class="c" x="786" y="2" rx="2" ry="2" width="12" height="12"/><rect class="c" x="786" y="18" rx="2" ry="2" width="12" height="12"/><rect class="c" x="786" y="34" rx="2" ry="2" width="12" height="12"/><rect class="c c13" x="786" y="50" rx="2" ry="2" width="12" height="12"/><rect class="c c14" x="786" y="66" rx="2" ry="2" width="12" height="12"/><rect class="c" x="786" y="82" rx="2" ry="2" width="12" height="12"/><rect class="c" x="786" y="98" rx="2" ry="2" width="12" height="12"/><rect class="c" x="802" y="2" rx="2" ry="2" width="12" height="12"/><rect class="c" x="802" y="18" rx="2" ry="2" width="12" height="12"/><rect class="c" x="802" y="34" rx="2" ry="2" width="12" height="12"/><rect class="c" x="802" y="50" rx="2" ry="2" width="12" height="12"/><rect class="c" x="802" y="66" rx="2" ry="2" width="12" height="12"/><rect class="c" x="802" y="82" rx="2" ry="2" width="12" height="12"/><rect class="c" x="802" y="98" rx="2" ry="2" width="12" height="12"/><rect class="c" x="818" y="2" rx="2" ry="2" width="12" height="12"/><rect class="c" x="818" y="18" rx="2" ry="2" width="12" height="12"/><rect class="c" x="818" y="34" rx="2" ry="2" width="12" height="12"/><rect class="c" x="818" y="50" rx="2" ry="2" width="12" height="12"/><rect class="c" x="818" y="66" rx="2" ry="2" width="12" height="12"/><rect class="c c15" x="818" y="82" rx="2" ry="2" width="12" height="12"/><rect class="c c16" x="818" y="98" rx="2" ry="2" width="12" height="12"/><rect class="c c17" x="834" y="2" rx="2" ry="2" width="12" height="12"/><rect class="u u0" height="12" width="482.4" x="0.0" y="144"/><rect class="u u1" height="12" width="231.9" x="481.8" y="144"/><rect class="u u2" height="12" width="97.0" x="713.1" y="144"/><rect class="u u3" height="12" width="39.1" x="809.5" y="144"/><rect class="s s0" x="0.8" y="0.8" width="14.4" height="14.4" rx="4.5" ry="4.5"/><rect class="s s1" x="1.8" y="1.8" width="12.3" height="12.3" rx="4.1" ry="4.1"/><rect class="s s2" x="2.6" y="2.6" width="10.8" height="10.8" rx="3.6" ry="3.6"/><rect class="s s3" x="3.0" y="3.0" width="9.9" height="9.9" rx="3.3" ry="3.3"/></svg>