<svg viewBox="-16 -32 880 192" width="880" height="192" xmlns="http://www.w3.org/2000/svg"><desc>Generated with https://github.com/Platane/snk</desc><style>@keyframes c0{67.66%{fill:var(--c4)}67.68%,to{fill:var(--ce)}}@keyframes c1{45.91%{fill:var(--c2)}45.93%,to{fill:var(--ce)}}@keyframes c2{47.42%{fill:var(--c2)}47.44%,to{fill:var(--ce)}}@keyframes c3{3.01%{fill:var(--c1)}3.03%,to{fill:var(--ce)}}@keyframes c4{3.62%{fill:var(--c1)}3.64%,to{fill:var(--ce)}}@keyframes c5{3.92%{fill:var(--c1)}3.94%,to{fill:var(--ce)}}@keyframes c6{42.29%{fill:var(--c2)}42.31%,to{fill:var(--ce)}}@keyframes c7{5.13%{fill:var(--c1)}5.15%,to{fill:var(--ce)}}@keyframes c8{5.43%{fill:var(--c1)}5.45%,to{fill:var(--ce)}}@keyframes c9{51.95%{fill:var(--c3)}51.97%,to{fill:var(--ce)}}@keyframes ca{6.94%{fill:var(--c1)}6.96%,to{fill:var(--ce)}}@keyframes cb{52.86%{fill:var(--c4)}52.88%,to{fill:var(--ce)}}@keyframes cc{41.08%{fill:var(--c2)}41.1%,to{fill:var(--ce)}}@keyframes cd{9.05%{fill:var(--c1)}9.07%,to{fill:var(--ce)}}@keyframes ce{39.57%{fill:var(--c2)}39.59%,to{fill:var(--ce)}}@keyframes cf{60.41%{fill:var(--c4)}60.43%,to{fill:var(--ce)}}@keyframes cg{37.15%{fill:var(--c2)}37.17%,to{fill:var(--ce)}}@keyframes ch{55.58%{fill:var(--c4)}55.6%,to{fill:var(--ce)}}@keyframes ci{55.28%{fill:var(--c4)}55.3%,to{fill:var(--ce)}}@keyframes cj{54.67%{fill:var(--c4)}54.69%,to{fill:var(--ce)}}@keyframes ck{12.68%{fill:var(--c1)}12.7%,to{fill:var(--ce)}}@keyframes cl{35.04%{fill:var(--c2)}35.06%,to{fill:var(--ce)}}@keyframes cm{12.98%{fill:var(--c1)}13%,to{fill:var(--ce)}}@keyframes cn{57.39%{fill:var(--c4)}57.41%,to{fill:var(--ce)}}@keyframes co{14.79%{fill:var(--c1)}14.81%,to{fill:var(--ce)}}@keyframes cp{30.5%{fill:var(--c2)}30.52%,to{fill:var(--ce)}}@keyframes cq{30.2%{fill:var(--c2)}30.22%,to{fill:var(--ce)}}@keyframes cr{25.97%{fill:var(--c2)}25.99%,to{fill:var(--ce)}}@keyframes cs{21.44%{fill:var(--c1)}21.46%,to{fill:var(--ce)}}@keyframes ct{83.37%{fill:var(--c4)}83.39%,to{fill:var(--ce)}}@keyframes cu{25.07%{fill:var(--c2)}25.09%,to{fill:var(--ce)}}@keyframes cv{23.86%{fill:var(--c1)}23.88%,to{fill:var(--ce)}}@keyframes cw{23.25%{fill:var(--c1)}23.27%,to{fill:var(--ce)}}@keyframes cx{22.95%{fill:var(--c1)}22.97%,to{fill:var(--ce)}}@keyframes u0{3.01%{transform:scale(0,1)}3.03%,3.62%{transform:scale(.07,1)}3.64%,3.92%{transform:scale(.14,1)}3.94%,5.13%{transform:scale(.21,1)}5.15%,5.43%{transform:scale(.29,1)}5.45%,6.94%{transform:scale(.36,1)}6.96%,9.05%{transform:scale(.43,1)}12.68%,9.07%{transform:scale(.5,1)}12.7%,12.98%{transform:scale(.57,1)}13%,14.79%{transform:scale(.64,1)}14.81%,21.44%{transform:scale(.71,1)}21.46%,22.95%{transform:scale(.79,1)}22.97%,23.25%{transform:scale(.86,1)}23.27%,23.86%{transform:scale(.93,1)}23.88%,to{transform:scale(1,1)}}@keyframes u1{25.07%{transform:scale(0,1)}25.09%,25.97%{transform:scale(.09,1)}25.99%,30.2%{transform:scale(.18,1)}30.22%,30.5%{transform:scale(.27,1)}30.52%,35.04%{transform:scale(.36,1)}35.06%,37.15%{transform:scale(.45,1)}37.17%,39.57%{transform:scale(.55,1)}39.59%,41.08%{transform:scale(.64,1)}41.1%,42.29%{transform:scale(.73,1)}42.31%,45.91%{transform:scale(.82,1)}45.93%,47.42%{transform:scale(.91,1)}47.44%,to{transform:scale(1,1)}}@keyframes u2{51.95%{transform:scale(0,1)}51.97%,to{transform:scale(1,1)}}@keyframes u3{52.86%{transform:scale(0,1)}52.88%,54.67%{transform:scale(.13,1)}54.69%,55.28%{transform:scale(.25,1)}55.3%,55.58%{transform:scale(.38,1)}55.6%,57.39%{transform:scale(.5,1)}57.41%,60.41%{transform:scale(.63,1)}60.43%,67.66%{transform:scale(.75,1)}67.68%,83.37%{transform:scale(.88,1)}83.39%,to{transform:scale(1,1)}}@keyframes s0{0%,99.7%{transform:translate(0,-16px)}.3%{transform:translate(0,0)}3.32%{transform:translate(160px,0)}3.93%{transform:translate(160px,32px)}5.14%,51.06%{transform:translate(224px,32px)}5.44%{transform:translate(224px,48px)}5.74%{transform:translate(208px,48px)}6.04%{transform:translate(208px,32px)}6.65%{transform:translate(240px,32px)}6.95%{transform:translate(240px,16px)}7.25%{transform:translate(256px,16px)}8.46%{transform:translate(256px,80px)}52.27%,8.76%{transform:translate(240px,80px)}9.06%{transform:translate(240px,96px)}39.88%,9.67%{transform:translate(272px,96px)}9.97%{transform:translate(272px,80px)}10.88%{transform:translate(320px,80px)}11.78%,36.56%{transform:translate(320px,32px)}12.39%{transform:translate(352px,32px)}12.69%,34.44%{transform:translate(352px,16px)}14.2%{transform:translate(432px,16px)}14.8%{transform:translate(432px,48px)}21.15%{transform:translate(768px,48px)}21.45%{transform:translate(768px,64px)}21.75%{transform:translate(784px,64px)}22.05%{transform:translate(784px,80px)}22.96%{transform:translate(832px,80px)}23.87%{transform:translate(832px,32px)}24.17%{transform:translate(816px,32px)}24.77%{transform:translate(816px,64px)}25.98%{transform:translate(752px,64px)}26.59%{transform:translate(752px,32px)}30.21%{transform:translate(560px,32px)}30.51%{transform:translate(560px,16px)}35.05%{transform:translate(352px,48px)}35.35%{transform:translate(368px,48px)}35.65%{transform:translate(368px,32px)}37.16%{transform:translate(320px,0)}37.76%{transform:translate(288px,0)}39.58%,60.73%{transform:translate(288px,96px)}40.48%{transform:translate(272px,64px)}41.69%{transform:translate(208px,64px)}42.3%{transform:translate(208px,96px)}45.92%{transform:translate(16px,96px)}46.22%{transform:translate(16px,80px)}46.53%{transform:translate(32px,80px)}47.43%{transform:translate(32px,32px)}51.96%{transform:translate(224px,80px)}52.87%{transform:translate(240px,48px)}54.68%{transform:translate(336px,48px)}55.59%{transform:translate(336px,0)}56.8%{transform:translate(400px,0)}57.4%{transform:translate(400px,32px)}59.21%{transform:translate(304px,32px)}60.42%{transform:translate(304px,96px)}62.24%{transform:translate(288px,16px)}67.67%{transform:translate(0,16px)}67.98%{transform:translate(0,32px)}83.08%{transform:translate(800px,32px)}83.38%{transform:translate(800px,48px)}95.77%{transform:translate(144px,48px)}96.37%{transform:translate(144px,16px)}96.98%{transform:translate(112px,16px)}97.58%{transform:translate(112px,-16px)}}@keyframes s1{0%,99.7%{transform:translate(16px,-16px)}.3%{transform:translate(0,-16px)}.6%{transform:translate(0,0)}3.63%{transform:translate(160px,0)}4.23%{transform:translate(160px,32px)}5.44%,51.36%{transform:translate(224px,32px)}5.74%{transform:translate(224px,48px)}6.04%{transform:translate(208px,48px)}6.34%{transform:translate(208px,32px)}6.95%{transform:translate(240px,32px)}7.25%{transform:translate(240px,16px)}7.55%{transform:translate(256px,16px)}8.76%{transform:translate(256px,80px)}52.57%,9.06%{transform:translate(240px,80px)}9.37%{transform:translate(240px,96px)}40.18%,9.97%{transform:translate(272px,96px)}10.27%{transform:translate(272px,80px)}11.18%{transform:translate(320px,80px)}12.08%,36.86%{transform:translate(320px,32px)}12.69%{transform:translate(352px,32px)}12.99%,34.74%{transform:translate(352px,16px)}14.5%{transform:translate(432px,16px)}15.11%{transform:translate(432px,48px)}21.45%{transform:translate(768px,48px)}21.75%{transform:translate(768px,64px)}22.05%{transform:translate(784px,64px)}22.36%{transform:translate(784px,80px)}23.26%{transform:translate(832px,80px)}24.17%{transform:translate(832px,32px)}24.47%{transform:translate(816px,32px)}25.08%{transform:translate(816px,64px)}26.28%{transform:translate(752px,64px)}26.89%{transform:translate(752px,32px)}30.51%{transform:translate(560px,32px)}30.82%{transform:translate(560px,16px)}35.35%{transform:translate(352px,48px)}35.65%{transform:translate(368px,48px)}35.95%{transform:translate(368px,32px)}37.46%{transform:translate(320px,0)}38.07%{transform:translate(288px,0)}39.88%,61.03%{transform:translate(288px,96px)}40.79%{transform:translate(272px,64px)}41.99%{transform:translate(208px,64px)}42.6%{transform:translate(208px,96px)}46.22%{transform:translate(16px,96px)}46.53%{transform:translate(16px,80px)}46.83%{transform:translate(32px,80px)}47.73%{transform:translate(32px,32px)}52.27%{transform:translate(224px,80px)}53.17%{transform:translate(240px,48px)}54.98%{transform:translate(336px,48px)}55.89%{transform:translate(336px,0)}57.1%{transform:translate(400px,0)}57.7%{transform:translate(400px,32px)}59.52%{transform:translate(304px,32px)}60.73%{transform:translate(304px,96px)}62.54%{transform:translate(288px,16px)}67.98%{transform:translate(0,16px)}68.28%{transform:translate(0,32px)}83.38%{transform:translate(800px,32px)}83.69%{transform:translate(800px,48px)}96.07%{transform:translate(144px,48px)}96.68%{transform:translate(144px,16px)}97.28%{transform:translate(112px,16px)}97.89%{transform:translate(112px,-16px)}}@keyframes s2{0%,99.7%{transform:translate(32px,-16px)}.6%{transform:translate(0,-16px)}.91%{transform:translate(0,0)}3.93%{transform:translate(160px,0)}4.53%{transform:translate(160px,32px)}5.74%,51.66%{transform:translate(224px,32px)}6.04%{transform:translate(224px,48px)}6.34%{transform:translate(208px,48px)}6.65%{transform:translate(208px,32px)}7.25%{transform:translate(240px,32px)}7.55%{transform:translate(240px,16px)}7.85%{transform:translate(256px,16px)}9.06%{transform:translate(256px,80px)}52.87%,9.37%{transform:translate(240px,80px)}9.67%{transform:translate(240px,96px)}10.27%,40.48%{transform:translate(272px,96px)}10.57%{transform:translate(272px,80px)}11.48%{transform:translate(320px,80px)}12.39%,37.16%{transform:translate(320px,32px)}12.99%{transform:translate(352px,32px)}13.29%,35.05%{transform:translate(352px,16px)}14.8%{transform:translate(432px,16px)}15.41%{transform:translate(432px,48px)}21.75%{transform:translate(768px,48px)}22.05%{transform:translate(768px,64px)}22.36%{transform:translate(784px,64px)}22.66%{transform:translate(784px,80px)}23.56%{transform:translate(832px,80px)}24.47%{transform:translate(832px,32px)}24.77%{transform:translate(816px,32px)}25.38%{transform:translate(816px,64px)}26.59%{transform:translate(752px,64px)}27.19%{transform:translate(752px,32px)}30.82%{transform:translate(560px,32px)}31.12%{transform:translate(560px,16px)}35.65%{transform:translate(352px,48px)}35.95%{transform:translate(368px,48px)}36.25%{transform:translate(368px,32px)}37.76%{transform:translate(320px,0)}38.37%{transform:translate(288px,0)}40.18%,61.33%{transform:translate(288px,96px)}41.09%{transform:translate(272px,64px)}42.3%{transform:translate(208px,64px)}42.9%{transform:translate(208px,96px)}46.53%{transform:translate(16px,96px)}46.83%{transform:translate(16px,80px)}47.13%{transform:translate(32px,80px)}48.04%{transform:translate(32px,32px)}52.57%{transform:translate(224px,80px)}53.47%{transform:translate(240px,48px)}55.29%{transform:translate(336px,48px)}56.19%{transform:translate(336px,0)}57.4%{transform:translate(400px,0)}58.01%{transform:translate(400px,32px)}59.82%{transform:translate(304px,32px)}61.03%{transform:translate(304px,96px)}62.84%{transform:translate(288px,16px)}68.28%{transform:translate(0,16px)}68.58%{transform:translate(0,32px)}83.69%{transform:translate(800px,32px)}83.99%{transform:translate(800px,48px)}96.37%{transform:translate(144px,48px)}96.98%{transform:translate(144px,16px)}97.58%{transform:translate(112px,16px)}98.19%{transform:translate(112px,-16px)}}@keyframes s3{0%,99.7%{transform:translate(48px,-16px)}.91%{transform:translate(0,-16px)}1.21%{transform:translate(0,0)}4.23%{transform:translate(160px,0)}4.83%{transform:translate(160px,32px)}51.96%,6.04%{transform:translate(224px,32px)}6.34%{transform:translate(224px,48px)}6.65%{transform:translate(208px,48px)}6.95%{transform:translate(208px,32px)}7.55%{transform:translate(240px,32px)}7.85%{transform:translate(240px,16px)}8.16%{transform:translate(256px,16px)}9.37%{transform:translate(256px,80px)}53.17%,9.67%{transform:translate(240px,80px)}9.97%{transform:translate(240px,96px)}10.57%,40.79%{transform:translate(272px,96px)}10.88%{transform:translate(272px,80px)}11.78%{transform:translate(320px,80px)}12.69%,37.46%{transform:translate(320px,32px)}13.29%{transform:translate(352px,32px)}13.6%,35.35%{transform:translate(352px,16px)}15.11%{transform:translate(432px,16px)}15.71%{transform:translate(432px,48px)}22.05%{transform:translate(768px,48px)}22.36%{transform:translate(768px,64px)}22.66%{transform:translate(784px,64px)}22.96%{transform:translate(784px,80px)}23.87%{transform:translate(832px,80px)}24.77%{transform:translate(832px,32px)}25.08%{transform:translate(816px,32px)}25.68%{transform:translate(816px,64px)}26.89%{transform:translate(752px,64px)}27.49%{transform:translate(752px,32px)}31.12%{transform:translate(560px,32px)}31.42%{transform:translate(560px,16px)}35.95%{transform:translate(352px,48px)}36.25%{transform:translate(368px,48px)}36.56%{transform:translate(368px,32px)}38.07%{transform:translate(320px,0)}38.67%{transform:translate(288px,0)}40.48%,61.63%{transform:translate(288px,96px)}41.39%{transform:translate(272px,64px)}42.6%{transform:translate(208px,64px)}43.2%{transform:translate(208px,96px)}46.83%{transform:translate(16px,96px)}47.13%{transform:translate(16px,80px)}47.43%{transform:translate(32px,80px)}48.34%{transform:translate(32px,32px)}52.87%{transform:translate(224px,80px)}53.78%{transform:translate(240px,48px)}55.59%{transform:translate(336px,48px)}56.5%{transform:translate(336px,0)}57.7%{transform:translate(400px,0)}58.31%{transform:translate(400px,32px)}60.12%{transform:translate(304px,32px)}61.33%{transform:translate(304px,96px)}63.14%{transform:translate(288px,16px)}68.58%{transform:translate(0,16px)}68.88%{transform:translate(0,32px)}83.99%{transform:translate(800px,32px)}84.29%{transform:translate(800px,48px)}96.68%{transform:translate(144px,48px)}97.28%{transform:translate(144px,16px)}97.89%{transform:translate(112px,16px)}98.49%{transform:translate(112px,-16px)}}:root{--cb:#1b1f230a;--cs:purple;--ce:#ebedf0;--c0:#ebedf0;--c1:#9be9a8;--c2:#40c463;--c3:#30a14e;--c4:#216e39}@media (prefers-color-scheme:dark){:root{--cb:#1b1f230a;--cs:purple;--ce:#161b22;--c1:#01311f;--c2:#034525;--c3:#0f6d31;--c4:#00c647}}.c{shape-rendering:geometricPrecision;fill:var(--ce);stroke-width:1px;stroke:var(--cb);animation:none 33100ms linear infinite}.c.c0{fill:var(--c4);animation-name:c0}.c.c1,.c.c2{fill:var(--c2);animation-name:c1}.c.c2{animation-name:c2}.c.c3,.c.c4,.c.c5{fill:var(--c1);animation-name:c3}.c.c4,.c.c5{animation-name:c4}.c.c5{animation-name:c5}.c.c6{fill:var(--c2);animation-name:c6}.c.c7,.c.c8{fill:var(--c1);animation-name:c7}.c.c8{animation-name:c8}.c.c9{fill:var(--c3);animation-name:c9}.c.ca{fill:var(--c1);animation-name:ca}.c.cb{fill:var(--c4);animation-name:cb}.c.cc{fill:var(--c2);animation-name:cc}.c.cd{fill:var(--c1);animation-name:cd}.c.ce{fill:var(--c2);animation-name:ce}.c.cf{fill:var(--c4);animation-name:cf}.c.cg{fill:var(--c2);animation-name:cg}.c.ch,.c.ci,.c.cj{fill:var(--c4);animation-name:ch}.c.ci,.c.cj{animation-name:ci}.c.cj{animation-name:cj}.c.ck{fill:var(--c1);animation-name:ck}.c.cl{fill:var(--c2);animation-name:cl}.c.cm{fill:var(--c1);animation-name:cm}.c.cn{fill:var(--c4);animation-name:cn}.c.co{fill:var(--c1);animation-name:co}.c.cp,.c.cq,.c.cr{fill:var(--c2);animation-name:cp}.c.cq,.c.cr{animation-name:cq}.c.cr{animation-name:cr}.c.cs{fill:var(--c1);animation-name:cs}.c.ct{fill:var(--c4);animation-name:ct}.c.cu{fill:var(--c2);animation-name:cu}.c.cv,.c.cw,.c.cx{fill:var(--c1);animation-name:cv}.c.cw,.c.cx{animation-name:cw}.c.cx{animation-name:cx}.s,.u{animation:none linear 33100ms infinite}.u,.u.u0{transform-origin:0 0}.u{transform:scale(0,1)}.u.u0{fill:var(--c1);animation-name:u0}.u.u1{fill:var(--c2);animation-name:u1;transform-origin:349.2px 0}.u.u2{fill:var(--c3);animation-name:u2;transform-origin:623.5px 0}.u.u3{fill:var(--c4);animation-name:u3;transform-origin:648.5px 0}.s{shape-rendering:geometricPrecision;fill:var(--cs)}.s.s0{transform:translate(0,-16px);animation-name:s0}.s.s1{transform:translate(16px,-16px);animation-name:s1}.s.s2{transform:translate(32px,-16px);animation-name:s2}.s.s3{transform:translate(48px,-16px);animation-name:s3}</style><rect class="c" x="2" y="2" rx="2" ry="2" width="12" height="12"/><rect class="c c0" x="2" y="18" rx="2" ry="2" width="12" height="12"/><rect class="c" x="2" y="34" rx="2" ry="2" width="12" height="12"/><rect class="c" x="2" y="50" rx="2" ry="2" width="12" height="12"/><rect class="c" x="2" y="66" rx="2" ry="2" width="12" height="12"/><rect class="c" x="2" y="82" rx="2" ry="2" width="12" height="12"/><rect class="c" x="2" y="98" rx="2" ry="2" width="12" height="12"/><rect class="c" x="18" y="2" rx="2" ry="2" width="12" height="12"/><rect class="c" x="18" y="18" rx="2" ry="2" width="12" height="12"/><rect class="c" x="18" y="34" rx="2" ry="2" width="12" height="12"/><rect class="c" x="18" y="50" rx="2" ry="2" width="12" height="12"/><rect class="c" x="18" y="66" rx="2" ry="2" width="12" height="12"/><rect class="c" x="18" y="82" rx="2" ry="2" width="12" height="12"/><rect class="c c1" x="18" y="98" rx="2" ry="2" width="12" height="12"/><rect class="c" x="34" y="2" rx="2" ry="2" width="12" height="12"/><rect class="c" x="34" y="18" rx="2" ry="2" width="12" height="12"/><rect class="c c2" x="34" y="34" rx="2" ry="2" width="12" height="12"/><rect class="c" x="34" y="50" rx="2" ry="2" width="12" height="12"/><rect class="c" x="34" y="66" rx="2" ry="2" width="12" height="12"/><rect class="c" x="34" y="82" rx="2" ry="2" width="12" height="12"/><rect class="c" x="34" y="98" rx="2" ry="2" width="12" height="12"/><rect class="c" x="50" y="2" rx="2" ry="2" width="12" height="12"/><rect class="c" x="50" y="18" rx="2" ry="2" width="12" height="12"/><rect class="c" x="50" y="34" rx="2" ry="2" width="12" height="12"/><rect class="c" x="50" y="50" rx="2" ry="2" width="12" height="12"/><rect class="c" x="50" y="66" rx="2" ry="2" width="12" height="12"/><rect class="c" x="50" y="82" rx="2" ry="2" width="12" height="12"/><rect class="c" x="50" y="98" rx="2" ry="2" width="12" height="12"/><rect class="c" x="66" y="2" rx="2" ry="2" width="12" height="12"/><rect class="c" x="66" y="18" rx="2" ry="2" width="12" height="12"/><rect class="c" x="66" y="34" rx="2" ry="2" width="12" height="12"/><rect class="c" x="66" y="50" rx="2" ry="2" width="12" height="12"/><rect class="c" x="66" y="66" rx="2" ry="2" width="12" height="12"/><rect class="c" x="66" y="82" rx="2" ry="2" width="12" height="12"/><rect class="c" x="66" y="98" rx="2" ry="2" width="12" height="12"/><rect class="c" x="82" y="2" rx="2" ry="2" width="12" height="12"/><rect class="c" x="82" y="18" rx="2" ry="2" width="12" height="12"/><rect class="c" x="82" y="34" rx="2" ry="2" width="12" height="12"/><rect class="c" x="82" y="50" rx="2" ry="2" width="12" height="12"/><rect class="c" x="82" y="66" rx="2" ry="2" width="12" height="12"/><rect class="c" x="82" y="82" rx="2" ry="2" width="12" height="12"/><rect class="c" x="82" y="98" rx="2" ry="2" width="12" height="12"/><rect class="c" x="98" y="2" rx="2" ry="2" width="12" height="12"/><rect class="c" x="98" y="18" rx="2" ry="2" width="12" height="12"/><rect class="c" x="98" y="34" rx="2" ry="2" width="12" height="12"/><rect class="c" x="98" y="50" rx="2" ry="2" width="12" height="12"/><rect class="c" x="98" y="66" rx="2" ry="2" width="12" height="12"/><rect class="c" x="98" y="82" rx="2" ry="2" width="12" height="12"/><rect class="c" x="98" y="98" rx="2" ry="2" width="12" height="12"/><rect class="c" x="114" y="2" rx="2" ry="2" width="12" height="12"/><rect class="c" x="114" y="18" rx="2" ry="2" width="12" height="12"/><rect class="c" x="114" y="34" rx="2" ry="2" width="12" height="12"/><rect class="c" x="114" y="50" rx="2" ry="2" width="12" height="12"/><rect class="c" x="114" y="66" rx="2" ry="2" width="12" height="12"/><rect class="c" x="114" y="82" rx="2" ry="2" width="12" height="12"/><rect class="c" x="114" y="98" rx="2" ry="2" width="12" height="12"/><rect class="c" x="130" y="2" rx="2" ry="2" width="12" height="12"/><rect class="c" x="130" y="18" rx="2" ry="2" width="12" height="12"/><rect class="c" x="130" y="34" rx="2" ry="2" width="12" height="12"/><rect class="c" x="130" y="50" rx="2" ry="2" width="12" height="12"/><rect class="c" x="130" y="66" rx="2" ry="2" width="12" height="12"/><rect class="c" x="130" y="82" rx="2" ry="2" width="12" height="12"/><rect class="c" x="130" y="98" rx="2" ry="2" width="12" height="12"/><rect class="c c3" x="146" y="2" rx="2" ry="2" width="12" height="12"/><rect class="c" x="146" y="18" rx="2" ry="2" width="12" height="12"/><rect class="c" x="146" y="34" rx="2" ry="2" width="12" height="12"/><rect class="c" x="146" y="50" rx="2" ry="2" width="12" height="12"/><rect class="c" x="146" y="66" rx="2" ry="2" width="12" height="12"/><rect class="c" x="146" y="82" rx="2" ry="2" width="12" height="12"/><rect class="c" x="146" y="98" rx="2" ry="2" width="12" height="12"/><rect class="c" x="162" y="2" rx="2" ry="2" width="12" height="12"/><rect class="c c4" x="162" y="18" rx="2" ry="2" width="12" height="12"/><rect class="c c5" x="162" y="34" rx="2" ry="2" width="12" height="12"/><rect class="c" x="162" y="50" rx="2" ry="2" width="12" height="12"/><rect class="c" x="162" y="66" rx="2" ry="2" width="12" height="12"/><rect class="c" x="162" y="82" rx="2" ry="2" width="12" height="12"/><rect class="c" x="162" y="98" rx="2" ry="2" width="12" height="12"/><rect class="c" x="178" y="2" rx="2" ry="2" width="12" height="12"/><rect class="c" x="178" y="18" rx="2" ry="2" width="12" height="12"/><rect class="c" x="178" y="34" rx="2" ry="2" width="12" height="12"/><rect class="c" x="178" y="50" rx="2" ry="2" width="12" height="12"/><rect class="c" x="178" y="66" rx="2" ry="2" width="12" height="12"/><rect class="c" x="178" y="82" rx="2" ry="2" width="12" height="12"/><rect class="c" x="178" y="98" rx="2" ry="2" width="12" height="12"/><rect class="c" x="194" y="2" rx="2" ry="2" width="12" height="12"/><rect class="c" x="194" y="18" rx="2" ry="2" width="12" height="12"/><rect class="c" x="194" y="34" rx="2" ry="2" width="12" height="12"/><rect class="c" x="194" y="50" rx="2" ry="2" width="12" height="12"/><rect class="c" x="194" y="66" rx="2" ry="2" width="12" height="12"/><rect class="c" x="194" y="82" rx="2" ry="2" width="12" height="12"/><rect class="c" x="194" y="98" rx="2" ry="2" width="12" height="12"/><rect class="c" x="210" y="2" rx="2" ry="2" width="12" height="12"/><rect class="c" x="210" y="18" rx="2" ry="2" width="12" height="12"/><rect class="c" x="210" y="34" rx="2" ry="2" width="12" height="12"/><rect class="c" x="210" y="50" rx="2" ry="2" width="12" height="12"/><rect class="c" x="210" y="66" rx="2" ry="2" width="12" height="12"/><rect class="c" x="210" y="82" rx="2" ry="2" width="12" height="12"/><rect class="c c6" x="210" y="98" rx="2" ry="2" width="12" height="12"/><rect class="c" x="226" y="2" rx="2" ry="2" width="12" height="12"/><rect class="c" x="226" y="18" rx="2" ry="2" width="12" height="12"/><rect class="c c7" x="226" y="34" rx="2" ry="2" width="12" height="12"/><rect class="c c8" x="226" y="50" rx="2" ry="2" width="12" height="12"/><rect class="c" x="226" y="66" rx="2" ry="2" width="12" height="12"/><rect class="c c9" x="226" y="82" rx="2" ry="2" width="12" height="12"/><rect class="c" x="226" y="98" rx="2" ry="2" width="12" height="12"/><rect class="c" x="242" y="2" rx="2" ry="2" width="12" height="12"/><rect class="c ca" x="242" y="18" rx="2" ry="2" width="12" height="12"/><rect class="c" x="242" y="34" rx="2" ry="2" width="12" height="12"/><rect class="c cb" x="242" y="50" rx="2" ry="2" width="12" height="12"/><rect class="c cc" x="242" y="66" rx="2" ry="2" width="12" height="12"/><rect class="c" x="242" y="82" rx="2" ry="2" width="12" height="12"/><rect class="c cd" x="242" y="98" rx="2" ry="2" width="12" height="12"/><rect class="c" x="258" y="2" rx="2" ry="2" width="12" height="12"/><rect class="c" x="258" y="18" rx="2" ry="2" width="12" height="12"/><rect class="c" x="258" y="34" rx="2" ry="2" width="12" height="12"/><rect class="c" x="258" y="50" rx="2" ry="2" width="12" height="12"/><rect class="c" x="258" y="66" rx="2" ry="2" width="12" height="12"/><rect class="c" x="258" y="82" rx="2" ry="2" width="12" height="12"/><rect class="c" x="258" y="98" rx="2" ry="2" width="12" height="12"/><rect class="c" x="274" y="2" rx="2" ry="2" width="12" height="12"/><rect class="c" x="274" y="18" rx="2" ry="2" width="12" height="12"/><rect class="c" x="274" y="34" rx="2" ry="2" width="12" height="12"/><rect class="c" x="274" y="50" rx="2" ry="2" width="12" height="12"/><rect class="c" x="274" y="66" rx="2" ry="2" width="12" height="12"/><rect class="c" x="274" y="82" rx="2" ry="2" width="12" height="12"/><rect class="c" x="274" y="98" rx="2" ry="2" width="12" height="12"/><rect class="c" x="290" y="2" rx="2" ry="2" width="12" height="12"/><rect class="c" x="290" y="18" rx="2" ry="2" width="12" height="12"/><rect class="c" x="290" y="34" rx="2" ry="2" width="12" height="12"/><rect class="c" x="290" y="50" rx="2" ry="2" width="12" height="12"/><rect class="c" x="290" y="66" rx="2" ry="2" width="12" height="12"/><rect class="c" x="290" y="82" rx="2" ry="2" width="12" height="12"/><rect class="c ce" x="290" y="98" rx="2" ry="2" width="12" height="12"/><rect class="c" x="306" y="2" rx="2" ry="2" width="12" height="12"/><rect class="c" x="306" y="18" rx="2" ry="2" width="12" height="12"/><rect class="c" x="306" y="34" rx="2" ry="2" width="12" height="12"/><rect class="c" x="306" y="50" rx="2" ry="2" width="12" height="12"/><rect class="c" x="306" y="66" rx="2" ry="2" width="12" height="12"/><rect class="c" x="306" y="82" rx="2" ry="2" width="12" height="12"/><rect class="c cf" x="306" y="98" rx="2" ry="2" width="12" height="12"/><rect class="c cg" x="322" y="2" rx="2" ry="2" width="12" height="12"/><rect class="c" x="322" y="18" rx="2" ry="2" width="12" height="12"/><rect class="c" x="322" y="34" rx="2" ry="2" width="12" height="12"/><rect class="c" x="322" y="50" rx="2" ry="2" width="12" height="12"/><rect class="c" x="322" y="66" rx="2" ry="2" width="12" height="12"/><rect class="c" x="322" y="82" rx="2" ry="2" width="12" height="12"/><rect class="c" x="322" y="98" rx="2" ry="2" width="12" height="12"/><rect class="c ch" x="338" y="2" rx="2" ry="2" width="12" height="12"/><rect class="c ci" x="338" y="18" rx="2" ry="2" width="12" height="12"/><rect class="c" x="338" y="34" rx="2" ry="2" width="12" height="12"/><rect class="c cj" x="338" y="50" rx="2" ry="2" width="12" height="12"/><rect class="c" x="338" y="66" rx="2" ry="2" width="12" height="12"/><rect class="c" x="338" y="82" rx="2" ry="2" width="12" height="12"/><rect class="c" x="338" y="98" rx="2" ry="2" width="12" height="12"/><rect class="c" x="354" y="2" rx="2" ry="2" width="12" height="12"/><rect class="c ck" x="354" y="18" rx="2" ry="2" width="12" height="12"/><rect class="c" x="354" y="34" rx="2" ry="2" width="12" height="12"/><rect class="c cl" x="354" y="50" rx="2" ry="2" width="12" height="12"/><rect class="c" x="354" y="66" rx="2" ry="2" width="12" height="12"/><rect class="c" x="354" y="82" rx="2" ry="2" width="12" height="12"/><rect class="c" x="354" y="98" rx="2" ry="2" width="12" height="12"/><rect class="c" x="370" y="2" rx="2" ry="2" width="12" height="12"/><rect class="c cm" x="370" y="18" rx="2" ry="2" width="12" height="12"/><rect class="c" x="370" y="34" rx="2" ry="2" width="12" height="12"/><rect class="c" x="370" y="50" rx="2" ry="2" width="12" height="12"/><rect class="c" x="370" y="66" rx="2" ry="2" width="12" height="12"/><rect class="c" x="370" y="82" rx="2" ry="2" width="12" height="12"/><rect class="c" x="370" y="98" rx="2" ry="2" width="12" height="12"/><rect class="c" x="386" y="2" rx="2" ry="2" width="12" height="12"/><rect class="c" x="386" y="18" rx="2" ry="2" width="12" height="12"/><rect class="c" x="386" y="34" rx="2" ry="2" width="12" height="12"/><rect class="c" x="386" y="50" rx="2" ry="2" width="12" height="12"/><rect class="c" x="386" y="66" rx="2" ry="2" width="12" height="12"/><rect class="c" x="386" y="82" rx="2" ry="2" width="12" height="12"/><rect class="c" x="386" y="98" rx="2" ry="2" width="12" height="12"/><rect class="c" x="402" y="2" rx="2" ry="2" width="12" height="12"/><rect class="c" x="402" y="18" rx="2" ry="2" width="12" height="12"/><rect class="c cn" x="402" y="34" rx="2" ry="2" width="12" height="12"/><rect class="c" x="402" y="50" rx="2" ry="2" width="12" height="12"/><rect class="c" x="402" y="66" rx="2" ry="2" width="12" height="12"/><rect class="c" x="402" y="82" rx="2" ry="2" width="12" height="12"/><rect class="c" x="402" y="98" rx="2" ry="2" width="12" height="12"/><rect class="c" x="418" y="2" rx="2" ry="2" width="12" height="12"/><rect class="c" x="418" y="18" rx="2" ry="2" width="12" height="12"/><rect class="c" x="418" y="34" rx="2" ry="2" width="12" height="12"/><rect class="c" x="418" y="50" rx="2" ry="2" width="12" height="12"/><rect class="c" x="418" y="66" rx="2" ry="2" width="12" height="12"/><rect class="c" x="418" y="82" rx="2" ry="2" width="12" height="12"/><rect class="c" x="418" y="98" rx="2" ry="2" width="12" height="12"/><rect class="c" x="434" y="2" rx="2" ry="2" width="12" height="12"/><rect class="c" x="434" y="18" rx="2" ry="2" width="12" height="12"/><rect class="c" x="434" y="34" rx="2" ry="2" width="12" height="12"/><rect class="c co" x="434" y="50" rx="2" ry="2" width="12" height="12"/><rect class="c" x="434" y="66" rx="2" ry="2" width="12" height="12"/><rect class="c" x="434" y="82" rx="2" ry="2" width="12" height="12"/><rect class="c" x="434" y="98" rx="2" ry="2" width="12" height="12"/><rect class="c" x="450" y="2" rx="2" ry="2" width="12" height="12"/><rect class="c" x="450" y="18" rx="2" ry="2" width="12" height="12"/><rect class="c" x="450" y="34" rx="2" ry="2" width="12" height="12"/><rect class="c" x="450" y="50" rx="2" ry="2" width="12" height="12"/><rect class="c" x="450" y="66" rx="2" ry="2" width="12" height="12"/><rect class="c" x="450" y="82" rx="2" ry="2" width="12" height="12"/><rect class="c" x="450" y="98" rx="2" ry="2" width="12" height="12"/><rect class="c" x="466" y="2" rx="2" ry="2" width="12" height="12"/><rect class="c" x="466" y="18" rx="2" ry="2" width="12" height="12"/><rect class="c" x="466" y="34" rx="2" ry="2" width="12" height="12"/><rect class="c" x="466" y="50" rx="2" ry="2" width="12" height="12"/><rect class="c" x="466" y="66" rx="2" ry="2" width="12" height="12"/><rect class="c" x="466" y="82" rx="2" ry="2" width="12" height="12"/><rect class="c" x="466" y="98" rx="2" ry="2" width="12" height="12"/><rect class="c" x="482" y="2" rx="2" ry="2" width="12" height="12"/><rect class="c" x="482" y="18" rx="2" ry="2" width="12" height="12"/><rect class="c" x="482" y="34" rx="2" ry="2" width="12" height="12"/><rect class="c" x="482" y="50" rx="2" ry="2" width="12" height="12"/><rect class="c" x="482" y="66" rx="2" ry="2" width="12" height="12"/><rect class="c" x="482" y="82" rx="2" ry="2" width="12" height="12"/><rect class="c" x="482" y="98" rx="2" ry="2" width="12" height="12"/><rect class="c" x="498" y="2" rx="2" ry="2" width="12" height="12"/><rect class="c" x="498" y="18" rx="2" ry="2" width="12" height="12"/><rect class="c" x="498" y="34" rx="2" ry="2" width="12" height="12"/><rect class="c" x="498" y="50" rx="2" ry="2" width="12" height="12"/><rect class="c" x="498" y="66" rx="2" ry="2" width="12" height="12"/><rect class="c" x="498" y="82" rx="2" ry="2" width="12" height="12"/><rect class="c" x="498" y="98" rx="2" ry="2" width="12" height="12"/><rect class="c" x="514" y="2" rx="2" ry="2" width="12" height="12"/><rect class="c" x="514" y="18" rx="2" ry="2" width="12" height="12"/><rect class="c" x="514" y="34" rx="2" ry="2" width="12" height="12"/><rect class="c" x="514" y="50" rx="2" ry="2" width="12" height="12"/><rect class="c" x="514" y="66" rx="2" ry="2" width="12" height="12"/><rect class="c" x="514" y="82" rx="2" ry="2" width="12" height="12"/><rect class="c" x="514" y="98" rx="2" ry="2" width="12" height="12"/><rect class="c" x="530" y="2" rx="2" ry="2" width="12" height="12"/><rect class="c" x="530" y="18" rx="2" ry="2" width="12" height="12"/><rect class="c" x="530" y="34" rx="2" ry="2" width="12" height="12"/><rect class="c" x="530" y="50" rx="2" ry="2" width="12" height="12"/><rect class="c" x="530" y="66" rx="2" ry="2" width="12" height="12"/><rect class="c" x="530" y="82" rx="2" ry="2" width="12" height="12"/><rect class="c" x="530" y="98" rx="2" ry="2" width="12" height="12"/><rect class="c" x="546" y="2" rx="2" ry="2" width="12" height="12"/><rect class="c" x="546" y="18" rx="2" ry="2" width="12" height="12"/><rect class="c" x="546" y="34" rx="2" ry="2" width="12" height="12"/><rect class="c" x="546" y="50" rx="2" ry="2" width="12" height="12"/><rect class="c" x="546" y="66" rx="2" ry="2" width="12" height="12"/><rect class="c" x="546" y="82" rx="2" ry="2" width="12" height="12"/><rect class="c" x="546" y="98" rx="2" ry="2" width="12" height="12"/><rect class="c" x="562" y="2" rx="2" ry="2" width="12" height="12"/><rect class="c cp" x="562" y="18" rx="2" ry="2" width="12" height="12"/><rect class="c cq" x="562" y="34" rx="2" ry="2" width="12" height="12"/><rect class="c" x="562" y="50" rx="2" ry="2" width="12" height="12"/><rect class="c" x="562" y="66" rx="2" ry="2" width="12" height="12"/><rect class="c" x="562" y="82" rx="2" ry="2" width="12" height="12"/><rect class="c" x="562" y="98" rx="2" ry="2" width="12" height="12"/><rect class="c" x="578" y="2" rx="2" ry="2" width="12" height="12"/><rect class="c" x="578" y="18" rx="2" ry="2" width="12" height="12"/><rect class="c" x="578" y="34" rx="2" ry="2" width="12" height="12"/><rect class="c" x="578" y="50" rx="2" ry="2" width="12" height="12"/><rect class="c" x="578" y="66" rx="2" ry="2" width="12" height="12"/><rect class="c" x="578" y="82" rx="2" ry="2" width="12" height="12"/><rect class="c" x="578" y="98" rx="2" ry="2" width="12" height="12"/><rect class="c" x="594" y="2" rx="2" ry="2" width="12" height="12"/><rect class="c" x="594" y="18" rx="2" ry="2" width="12" height="12"/><rect class="c" x="594" y="34" rx="2" ry="2" width="12" height="12"/><rect class="c" x="594" y="50" rx="2" ry="2" width="12" height="12"/><rect class="c" x="594" y="66" rx="2" ry="2" width="12" height="12"/><rect class="c" x="594" y="82" rx="2" ry="2" width="12" height="12"/><rect class="c" x="594" y="98" rx="2" ry="2" width="12" height="12"/><rect class="c" x="610" y="2" rx="2" ry="2" width="12" height="12"/><rect class="c" x="610" y="18" rx="2" ry="2" width="12" height="12"/><rect class="c" x="610" y="34" rx="2" ry="2" width="12" height="12"/><rect class="c" x="610" y="50" rx="2" ry="2" width="12" height="12"/><rect class="c" x="610" y="66" rx="2" ry="2" width="12" height="12"/><rect class="c" x="610" y="82" rx="2" ry="2" width="12" height="12"/><rect class="c" x="610" y="98" rx="2" ry="2" width="12" height="12"/><rect class="c" x="626" y="2" rx="2" ry="2" width="12" height="12"/><rect class="c" x="626" y="18" rx="2" ry="2" width="12" height="12"/><rect class="c" x="626" y="34" rx="2" ry="2" width="12" height="12"/><rect class="c" x="626" y="50" rx="2" ry="2" width="12" height="12"/><rect class="c" x="626" y="66" rx="2" ry="2" width="12" height="12"/><rect class="c" x="626" y="82" rx="2" ry="2" width="12" height="12"/><rect class="c" x="626" y="98" rx="2" ry="2" width="12" height="12"/><rect class="c" x="642" y="2" rx="2" ry="2" width="12" height="12"/><rect class="c" x="642" y="18" rx="2" ry="2" width="12" height="12"/><rect class="c" x="642" y="34" rx="2" ry="2" width="12" height="12"/><rect class="c" x="642" y="50" rx="2" ry="2" width="12" height="12"/><rect class="c" x="642" y="66" rx="2" ry="2" width="12" height="12"/><rect class="c" x="642" y="82" rx="2" ry="2" width="12" height="12"/><rect class="c" x="642" y="98" rx="2" ry="2" width="12" height="12"/><rect class="c" x="658" y="2" rx="2" ry="2" width="12" height="12"/><rect class="c" x="658" y="18" rx="2" ry="2" width="12" height="12"/><rect class="c" x="658" y="34" rx="2" ry="2" width="12" height="12"/><rect class="c" x="658" y="50" rx="2" ry="2" width="12" height="12"/><rect class="c" x="658" y="66" rx="2" ry="2" width="12" height="12"/><rect class="c" x="658" y="82" rx="2" ry="2" width="12" height="12"/><rect class="c" x="658" y="98" rx="2" ry="2" width="12" height="12"/><rect class="c" x="674" y="2" rx="2" ry="2" width="12" height="12"/><rect class="c" x="674" y="18" rx="2" ry="2" width="12" height="12"/><rect class="c" x="674" y="34" rx="2" ry="2" width="12" height="12"/><rect class="c" x="674" y="50" rx="2" ry="2" width="12" height="12"/><rect class="c" x="674" y="66" rx="2" ry="2" width="12" height="12"/><rect class="c" x="674" y="82" rx="2" ry="2" width="12" height="12"/><rect class="c" x="674" y="98" rx="2" ry="2" width="12" height="12"/><rect class="c" x="690" y="2" rx="2" ry="2" width="12" height="12"/><rect class="c" x="690" y="18" rx="2" ry="2" width="12" height="12"/><rect class="c" x="690" y="34" rx="2" ry="2" width="12" height="12"/><rect class="c" x="690" y="50" rx="2" ry="2" width="12" height="12"/><rect class="c" x="690" y="66" rx="2" ry="2" width="12" height="12"/><rect class="c" x="690" y="82" rx="2" ry="2" width="12" height="12"/><rect class="c" x="690" y="98" rx="2" ry="2" width="12" height="12"/><rect class="c" x="706" y="2" rx="2" ry="2" width="12" height="12"/><rect class="c" x="706" y="18" rx="2" ry="2" width="12" height="12"/><rect class="c" x="706" y="34" rx="2" ry="2" width="12" height="12"/><rect class="c" x="706" y="50" rx="2" ry="2" width="12" height="12"/><rect class="c" x="706" y="66" rx="2" ry="2" width="12" height="12"/><rect class="c" x="706" y="82" rx="2" ry="2" width="12" height="12"/><rect class="c" x="706" y="98" rx="2" ry="2" width="12" height="12"/><rect class="c" x="722" y="2" rx="2" ry="2" width="12" height="12"/><rect class="c" x="722" y="18" rx="2" ry="2" width="12" height="12"/><rect class="c" x="722" y="34" rx="2" ry="2" width="12" height="12"/><rect class="c" x="722" y="50" rx="2" ry="2" width="12" height="12"/><rect class="c" x="722" y="66" rx="2" ry="2" width="12" height="12"/><rect class="c" x="722" y="82" rx="2" ry="2" width="12" height="12"/><rect class="c" x="722" y="98" rx="2" ry="2" width="12" height="12"/><rect class="c" x="738" y="2" rx="2" ry="2" width="12" height="12"/><rect class="c" x="738" y="18" rx="2" ry="2" width="12" height="12"/><rect class="c" x="738" y="34" rx="2" ry="2" width="12" height="12"/><rect class="c" x="738" y="50" rx="2" ry="2" width="12" height="12"/><rect class="c" x="738" y="66" rx="2" ry="2" width="12" height="12"/><rect class="c" x="738" y="82" rx="2" ry="2" width="12" height="12"/><rect class="c" x="738" y="98" rx="2" ry="2" width="12" height="12"/><rect class="c" x="754" y="2" rx="2" ry="2" width="12" height="12"/><rect class="c" x="754" y="18" rx="2" ry="2" width="12" height="12"/><rect class="c" x="754" y="34" rx="2" ry="2" width="12" height="12"/><rect class="c" x="754" y="50" rx="2" ry="2" width="12" height="12"/><rect class="c cr" x="754" y="66" rx="2" ry="2" width="12" height="12"/><rect class="c" x="754" y="82" rx="2" ry="2" width="12" height="12"/><rect class="c" x="754" y="98" rx="2" ry="2" width="12" height="12"/><rect class="c" x="770" y="2" rx="2" ry="2" width="12" height="12"/><rect class="c" x="770" y="18" rx="2" ry="2" width="12" height="12"/><rect class="c" x="770" y="34" rx="2" ry="2" width="12" height="12"/><rect class="c" x="770" y="50" rx="2" ry="2" width="12" height="12"/><rect class="c cs" x="770" y="66" rx="2" ry="2" width="12" height="12"/><rect class="c" x="770" y="82" rx="2" ry="2" width="12" height="12"/><rect class="c" x="770" y="98" rx="2" ry="2" width="12" height="12"/><rect class="c" x="786" y="2" rx="2" ry="2" width="12" height="12"/><rect class="c" x="786" y="18" rx="2" ry="2" width="12" height="12"/><rect class="c" x="786" y="34" rx="2" ry="2" width="12" height="12"/><rect class="c" x="786" y="50" rx="2" ry="2" width="12" height="12"/><rect class="c" x="786" y="66" rx="2" ry="2" width="12" height="12"/><rect class="c" x="786" y="82" rx="2" ry="2" width="12" height="12"/><rect class="c" x="786" y="98" rx="2" ry="2" width="12" height="12"/><rect class="c" x="802" y="2" rx="2" ry="2" width="12" height="12"/><rect class="c" x="802" y="18" rx="2" ry="2" width="12" height="12"/><rect class="c" x="802" y="34" rx="2" ry="2" width="12" height="12"/><rect class="c ct" x="802" y="50" rx="2" ry="2" width="12" height="12"/><rect class="c cu" x="802" y="66" rx="2" ry="2" width="12" height="12"/><rect class="c" x="802" y="82" rx="2" ry="2" width="12" height="12"/><rect class="c" x="802" y="98" rx="2" ry="2" width="12" height="12"/><rect class="c" x="818" y="2" rx="2" ry="2" width="12" height="12"/><rect class="c" x="818" y="18" rx="2" ry="2" width="12" height="12"/><rect class="c" x="818" y="34" rx="2" ry="2" width="12" height="12"/><rect class="c" x="818" y="50" rx="2" ry="2" width="12" height="12"/><rect class="c" x="818" y="66" rx="2" ry="2" width="12" height="12"/><rect class="c" x="818" y="82" rx="2" ry="2" width="12" height="12"/><rect class="c" x="818" y="98" rx="2" ry="2" width="12" height="12"/><rect class="c" x="834" y="2" rx="2" ry="2" width="12" height="12"/><rect class="c" x="834" y="18" rx="2" ry="2" width="12" height="12"/><rect class="c cv" x="834" y="34" rx="2" ry="2" width="12" height="12"/><rect class="c" x="834" y="50" rx="2" ry="2" width="12" height="12"/><rect class="c cw" x="834" y="66" rx="2" ry="2" width="12" height="12"/><rect class="c cx" x="834" y="82" rx="2" ry="2" width="12" height="12"/><rect class="c" x="834" y="98" rx="2" ry="2" width="12" height="12"/><rect class="u u0" height="12" width="349.8" x="0.0" y="144"/><rect class="u u1" height="12" width="275.0" x="349.2" y="144"/><rect class="u u2" height="12" width="25.5" x="623.5" y="144"/><rect class="u u3" height="12" width="200.1" x="648.5" y="144"/><rect class="s s0" x="0.8" y="0.8" width="14.4" height="14.4" rx="4.5" ry="4.5"/><rect class="s s1" x="1.8" y="1.8" width="12.3" height="12.3" rx="4.1" ry="4.1"/><rect class="s s2" x="2.6" y="2.6" width="10.8" height="10.8" rx="3.6" ry="3.6"/><rect class="s s3" x="3.0" y="3.0" width="9.9" height="9.9" rx="3.3" ry="3.3"/></svg>