<svg viewBox="-16 -32 880 192" width="880" height="192" xmlns="http://www.w3.org/2000/svg"><desc>Generated with https://github.com/Platane/snk</desc><style>@keyframes c0{1.32%{fill:var(--c1)}1.34%,to{fill:var(--ce)}}@keyframes c1{4.88%{fill:var(--c1)}4.9%,to{fill:var(--ce)}}@keyframes c2{74.21%{fill:var(--c2)}74.23%,to{fill:var(--ce)}}@keyframes c3{3.1%{fill:var(--c1)}3.12%,to{fill:var(--ce)}}@keyframes c4{4.43%{fill:var(--c1)}4.45%,to{fill:var(--ce)}}@keyframes c5{5.77%{fill:var(--c1)}5.79%,to{fill:var(--ce)}}@keyframes c6{12.43%{fill:var(--c1)}12.45%,to{fill:var(--ce)}}@keyframes c7{3.55%{fill:var(--c1)}3.57%,to{fill:var(--ce)}}@keyframes c8{3.99%{fill:var(--c1)}4.01%,to{fill:var(--ce)}}@keyframes c9{6.21%{fill:var(--c1)}6.23%,to{fill:var(--ce)}}@keyframes ca{69.77%{fill:var(--c2)}69.79%,to{fill:var(--ce)}}@keyframes cb{70.21%{fill:var(--c2)}70.23%,to{fill:var(--ce)}}@keyframes cc{72.88%{fill:var(--c2)}72.9%,to{fill:var(--ce)}}@keyframes cd{7.99%{fill:var(--c1)}8.01%,to{fill:var(--ce)}}@keyframes ce{10.21%{fill:var(--c1)}10.23%,to{fill:var(--ce)}}@keyframes cf{17.77%{fill:var(--c1)}17.79%,to{fill:var(--ce)}}@keyframes cg{18.66%{fill:var(--c1)}18.68%,to{fill:var(--ce)}}@keyframes ch{19.1%{fill:var(--c1)}19.12%,to{fill:var(--ce)}}@keyframes ci{23.99%{fill:var(--c1)}24.01%,to{fill:var(--ce)}}@keyframes cj{20.88%{fill:var(--c1)}20.9%,to{fill:var(--ce)}}@keyframes ck{21.32%{fill:var(--c1)}21.34%,to{fill:var(--ce)}}@keyframes cl{63.1%{fill:var(--c2)}63.12%,to{fill:var(--ce)}}@keyframes cm{27.1%{fill:var(--c1)}27.12%,to{fill:var(--ce)}}@keyframes cn{88.43%{fill:var(--c4)}88.45%,to{fill:var(--ce)}}@keyframes co{22.21%{fill:var(--c1)}22.23%,to{fill:var(--ce)}}@keyframes cp{23.1%{fill:var(--c1)}23.12%,to{fill:var(--ce)}}@keyframes cq{50.21%{fill:var(--c1)}50.23%,to{fill:var(--ce)}}@keyframes cr{50.66%{fill:var(--c2)}50.68%,to{fill:var(--ce)}}@keyframes cs{29.77%{fill:var(--c1)}29.79%,to{fill:var(--ce)}}@keyframes ct{57.77%{fill:var(--c2)}57.79%,to{fill:var(--ce)}}@keyframes cu{84.88%{fill:var(--c3)}84.9%,to{fill:var(--ce)}}@keyframes cv{52.88%{fill:var(--c2)}52.9%,to{fill:var(--ce)}}@keyframes cw{31.99%{fill:var(--c1)}32.01%,to{fill:var(--ce)}}@keyframes cx{33.77%{fill:var(--c1)}33.79%,to{fill:var(--ce)}}@keyframes cy{32.43%{fill:var(--c1)}32.45%,to{fill:var(--ce)}}@keyframes cz{55.1%{fill:var(--c2)}55.12%,to{fill:var(--ce)}}@keyframes c10{35.99%{fill:var(--c1)}36.01%,to{fill:var(--ce)}}@keyframes c11{40.43%{fill:var(--c1)}40.45%,to{fill:var(--ce)}}@keyframes c12{39.99%{fill:var(--c1)}40.01%,to{fill:var(--ce)}}@keyframes u0{1.32%{transform:scale(0,1)}1.34%,3.1%{transform:scale(.04,1)}3.12%,3.55%{transform:scale(.07,1)}3.57%,3.99%{transform:scale(.11,1)}4.01%,4.43%{transform:scale(.14,1)}4.45%,4.88%{transform:scale(.18,1)}4.9%,5.77%{transform:scale(.21,1)}5.79%,6.21%{transform:scale(.25,1)}6.23%,7.99%{transform:scale(.29,1)}10.21%,8.01%{transform:scale(.32,1)}10.23%,12.43%{transform:scale(.36,1)}12.45%,17.77%{transform:scale(.39,1)}17.79%,18.66%{transform:scale(.43,1)}18.68%,19.1%{transform:scale(.46,1)}19.12%,20.88%{transform:scale(.5,1)}20.9%,21.32%{transform:scale(.54,1)}21.34%,22.21%{transform:scale(.57,1)}22.23%,23.1%{transform:scale(.61,1)}23.12%,23.99%{transform:scale(.64,1)}24.01%,27.1%{transform:scale(.68,1)}27.12%,29.77%{transform:scale(.71,1)}29.79%,31.99%{transform:scale(.75,1)}32.01%,32.43%{transform:scale(.79,1)}32.45%,33.77%{transform:scale(.82,1)}33.79%,35.99%{transform:scale(.86,1)}36.01%,39.99%{transform:scale(.89,1)}40.01%,40.43%{transform:scale(.93,1)}40.45%,50.21%{transform:scale(.96,1)}50.23%,to{transform:scale(1,1)}}@keyframes u1{50.66%{transform:scale(0,1)}50.68%,52.88%{transform:scale(.11,1)}52.9%,55.1%{transform:scale(.22,1)}55.12%,57.77%{transform:scale(.33,1)}57.79%,63.1%{transform:scale(.44,1)}63.12%,69.77%{transform:scale(.56,1)}69.79%,70.21%{transform:scale(.67,1)}70.23%,72.88%{transform:scale(.78,1)}72.9%,74.21%{transform:scale(.89,1)}74.23%,to{transform:scale(1,1)}}@keyframes u2{84.88%{transform:scale(0,1)}84.9%,to{transform:scale(1,1)}}@keyframes u3{88.43%{transform:scale(0,1)}88.45%,to{transform:scale(1,1)}}@keyframes s0{0%,99.56%{transform:translate(0,-16px)}.44%{transform:translate(0,0)}.89%{transform:translate(16px,0)}1.33%{transform:translate(16px,16px)}2.67%,74.67%{transform:translate(64px,16px)}3.11%{transform:translate(64px,32px)}3.56%,96%{transform:translate(80px,32px)}4%,95.56%{transform:translate(80px,48px)}4.89%{transform:translate(48px,48px)}5.33%{transform:translate(48px,64px)}7.11%{transform:translate(112px,64px)}8%{transform:translate(112px,96px)}8.44%{transform:translate(128px,96px)}11.11%{transform:translate(128px,0)}12.44%{transform:translate(80px,0)}12.89%{transform:translate(80px,-16px)}17.33%{transform:translate(240px,-16px)}17.78%{transform:translate(240px,0)}18.22%{transform:translate(256px,0)}19.11%{transform:translate(256px,32px)}20.89%,26.22%{transform:translate(320px,32px)}21.78%,25.33%{transform:translate(320px,64px)}22.22%{transform:translate(336px,64px)}23.11%{transform:translate(336px,96px)}24%{transform:translate(304px,96px)}24.89%{transform:translate(304px,64px)}26.67%,88%{transform:translate(336px,32px)}27.11%{transform:translate(336px,16px)}29.33%{transform:translate(416px,16px)}30.22%{transform:translate(416px,-16px)}31.11%{transform:translate(448px,-16px)}32%,46.22%{transform:translate(448px,16px)}32.44%{transform:translate(464px,16px)}32.89%{transform:translate(464px,32px)}33.33%,46.67%{transform:translate(448px,32px)}33.78%{transform:translate(448px,48px)}39.56%{transform:translate(656px,48px)}40.44%{transform:translate(656px,16px)}48.44%{transform:translate(384px,32px)}50.22%{transform:translate(384px,96px)}51.56%{transform:translate(432px,96px)}52.89%{transform:translate(432px,48px)}54.67%{transform:translate(496px,48px)}56%{transform:translate(496px,0)}60.89%{transform:translate(320px,0)}63.11%{transform:translate(320px,80px)}69.78%{transform:translate(80px,80px)}70.22%{transform:translate(80px,96px)}70.67%{transform:translate(96px,96px)}73.33%{transform:translate(96px,0)}74.22%{transform:translate(64px,0)}84.89%{transform:translate(432px,16px)}85.33%{transform:translate(432px,32px)}88.44%{transform:translate(336px,48px)}96.89%{transform:translate(48px,32px)}98.22%{transform:translate(48px,-16px)}}@keyframes s1{0%,99.56%{transform:translate(16px,-16px)}.44%{transform:translate(0,-16px)}.89%{transform:translate(0,0)}1.33%{transform:translate(16px,0)}1.78%{transform:translate(16px,16px)}3.11%,75.11%{transform:translate(64px,16px)}3.56%{transform:translate(64px,32px)}4%,96.44%{transform:translate(80px,32px)}4.44%,96%{transform:translate(80px,48px)}5.33%{transform:translate(48px,48px)}5.78%{transform:translate(48px,64px)}7.56%{transform:translate(112px,64px)}8.44%{transform:translate(112px,96px)}8.89%{transform:translate(128px,96px)}11.56%{transform:translate(128px,0)}12.89%{transform:translate(80px,0)}13.33%{transform:translate(80px,-16px)}17.78%{transform:translate(240px,-16px)}18.22%{transform:translate(240px,0)}18.67%{transform:translate(256px,0)}19.56%{transform:translate(256px,32px)}21.33%,26.67%{transform:translate(320px,32px)}22.22%,25.78%{transform:translate(320px,64px)}22.67%{transform:translate(336px,64px)}23.56%{transform:translate(336px,96px)}24.44%{transform:translate(304px,96px)}25.33%{transform:translate(304px,64px)}27.11%,88.44%{transform:translate(336px,32px)}27.56%{transform:translate(336px,16px)}29.78%{transform:translate(416px,16px)}30.67%{transform:translate(416px,-16px)}31.56%{transform:translate(448px,-16px)}32.44%,46.67%{transform:translate(448px,16px)}32.89%{transform:translate(464px,16px)}33.33%{transform:translate(464px,32px)}33.78%,47.11%{transform:translate(448px,32px)}34.22%{transform:translate(448px,48px)}40%{transform:translate(656px,48px)}40.89%{transform:translate(656px,16px)}48.89%{transform:translate(384px,32px)}50.67%{transform:translate(384px,96px)}52%{transform:translate(432px,96px)}53.33%{transform:translate(432px,48px)}55.11%{transform:translate(496px,48px)}56.44%{transform:translate(496px,0)}61.33%{transform:translate(320px,0)}63.56%{transform:translate(320px,80px)}70.22%{transform:translate(80px,80px)}70.67%{transform:translate(80px,96px)}71.11%{transform:translate(96px,96px)}73.78%{transform:translate(96px,0)}74.67%{transform:translate(64px,0)}85.33%{transform:translate(432px,16px)}85.78%{transform:translate(432px,32px)}88.89%{transform:translate(336px,48px)}97.33%{transform:translate(48px,32px)}98.67%{transform:translate(48px,-16px)}}@keyframes s2{0%,99.56%{transform:translate(32px,-16px)}.89%{transform:translate(0,-16px)}1.33%{transform:translate(0,0)}1.78%{transform:translate(16px,0)}2.22%{transform:translate(16px,16px)}3.56%,75.56%{transform:translate(64px,16px)}4%{transform:translate(64px,32px)}4.44%,96.89%{transform:translate(80px,32px)}4.89%,96.44%{transform:translate(80px,48px)}5.78%{transform:translate(48px,48px)}6.22%{transform:translate(48px,64px)}8%{transform:translate(112px,64px)}8.89%{transform:translate(112px,96px)}9.33%{transform:translate(128px,96px)}12%{transform:translate(128px,0)}13.33%{transform:translate(80px,0)}13.78%{transform:translate(80px,-16px)}18.22%{transform:translate(240px,-16px)}18.67%{transform:translate(240px,0)}19.11%{transform:translate(256px,0)}20%{transform:translate(256px,32px)}21.78%,27.11%{transform:translate(320px,32px)}22.67%,26.22%{transform:translate(320px,64px)}23.11%{transform:translate(336px,64px)}24%{transform:translate(336px,96px)}24.89%{transform:translate(304px,96px)}25.78%{transform:translate(304px,64px)}27.56%,88.89%{transform:translate(336px,32px)}28%{transform:translate(336px,16px)}30.22%{transform:translate(416px,16px)}31.11%{transform:translate(416px,-16px)}32%{transform:translate(448px,-16px)}32.89%,47.11%{transform:translate(448px,16px)}33.33%{transform:translate(464px,16px)}33.78%{transform:translate(464px,32px)}34.22%,47.56%{transform:translate(448px,32px)}34.67%{transform:translate(448px,48px)}40.44%{transform:translate(656px,48px)}41.33%{transform:translate(656px,16px)}49.33%{transform:translate(384px,32px)}51.11%{transform:translate(384px,96px)}52.44%{transform:translate(432px,96px)}53.78%{transform:translate(432px,48px)}55.56%{transform:translate(496px,48px)}56.89%{transform:translate(496px,0)}61.78%{transform:translate(320px,0)}64%{transform:translate(320px,80px)}70.67%{transform:translate(80px,80px)}71.11%{transform:translate(80px,96px)}71.56%{transform:translate(96px,96px)}74.22%{transform:translate(96px,0)}75.11%{transform:translate(64px,0)}85.78%{transform:translate(432px,16px)}86.22%{transform:translate(432px,32px)}89.33%{transform:translate(336px,48px)}97.78%{transform:translate(48px,32px)}99.11%{transform:translate(48px,-16px)}}@keyframes s3{0%,99.56%{transform:translate(48px,-16px)}1.33%{transform:translate(0,-16px)}1.78%{transform:translate(0,0)}2.22%{transform:translate(16px,0)}2.67%{transform:translate(16px,16px)}4%,76%{transform:translate(64px,16px)}4.44%{transform:translate(64px,32px)}4.89%,97.33%{transform:translate(80px,32px)}5.33%,96.89%{transform:translate(80px,48px)}6.22%{transform:translate(48px,48px)}6.67%{transform:translate(48px,64px)}8.44%{transform:translate(112px,64px)}9.33%{transform:translate(112px,96px)}9.78%{transform:translate(128px,96px)}12.44%{transform:translate(128px,0)}13.78%{transform:translate(80px,0)}14.22%{transform:translate(80px,-16px)}18.67%{transform:translate(240px,-16px)}19.11%{transform:translate(240px,0)}19.56%{transform:translate(256px,0)}20.44%{transform:translate(256px,32px)}22.22%,27.56%{transform:translate(320px,32px)}23.11%,26.67%{transform:translate(320px,64px)}23.56%{transform:translate(336px,64px)}24.44%{transform:translate(336px,96px)}25.33%{transform:translate(304px,96px)}26.22%{transform:translate(304px,64px)}28%,89.33%{transform:translate(336px,32px)}28.44%{transform:translate(336px,16px)}30.67%{transform:translate(416px,16px)}31.56%{transform:translate(416px,-16px)}32.44%{transform:translate(448px,-16px)}33.33%,47.56%{transform:translate(448px,16px)}33.78%{transform:translate(464px,16px)}34.22%{transform:translate(464px,32px)}34.67%,48%{transform:translate(448px,32px)}35.11%{transform:translate(448px,48px)}40.89%{transform:translate(656px,48px)}41.78%{transform:translate(656px,16px)}49.78%{transform:translate(384px,32px)}51.56%{transform:translate(384px,96px)}52.89%{transform:translate(432px,96px)}54.22%{transform:translate(432px,48px)}56%{transform:translate(496px,48px)}57.33%{transform:translate(496px,0)}62.22%{transform:translate(320px,0)}64.44%{transform:translate(320px,80px)}71.11%{transform:translate(80px,80px)}71.56%{transform:translate(80px,96px)}72%{transform:translate(96px,96px)}74.67%{transform:translate(96px,0)}75.56%{transform:translate(64px,0)}86.22%{transform:translate(432px,16px)}86.67%{transform:translate(432px,32px)}89.78%{transform:translate(336px,48px)}98.22%{transform:translate(48px,32px)}}:root{--cb:#1b1f230a;--cs:purple;--ce:#ebedf0;--c0:#ebedf0;--c1:#9be9a8;--c2:#40c463;--c3:#30a14e;--c4:#216e39}@media (prefers-color-scheme:dark){:root{--cb:#1b1f230a;--cs:purple;--ce:#161b22;--c1:#01311f;--c2:#034525;--c3:#0f6d31;--c4:#00c647}}.c{shape-rendering:geometricPrecision;fill:var(--ce);stroke-width:1px;stroke:var(--cb);animation:none 22500ms linear infinite}.c.c0,.c.c1{fill:var(--c1);animation-name:c0}.c.c1{animation-name:c1}.c.c2{fill:var(--c2);animation-name:c2}.c.c3{fill:var(--c1);animation-name:c3}.c.c4,.c.c5,.c.c6{fill:var(--c1);animation-name:c4}.c.c5,.c.c6{animation-name:c5}.c.c6{animation-name:c6}.c.c7,.c.c8,.c.c9{fill:var(--c1);animation-name:c7}.c.c8,.c.c9{animation-name:c8}.c.c9{animation-name:c9}.c.ca,.c.cb,.c.cc{fill:var(--c2);animation-name:ca}.c.cb,.c.cc{animation-name:cb}.c.cc{animation-name:cc}.c.cd,.c.ce{fill:var(--c1);animation-name:cd}.c.ce{animation-name:ce}.c.cf,.c.cg,.c.ch{fill:var(--c1);animation-name:cf}.c.cg,.c.ch{animation-name:cg}.c.ch{animation-name:ch}.c.ci,.c.cj,.c.ck{fill:var(--c1);animation-name:ci}.c.cj,.c.ck{animation-name:cj}.c.ck{animation-name:ck}.c.cl{fill:var(--c2);animation-name:cl}.c.cm{fill:var(--c1);animation-name:cm}.c.cn{fill:var(--c4);animation-name:cn}.c.co,.c.cp,.c.cq{fill:var(--c1);animation-name:co}.c.cp,.c.cq{animation-name:cp}.c.cq{animation-name:cq}.c.cr{fill:var(--c2);animation-name:cr}.c.cs{fill:var(--c1);animation-name:cs}.c.ct{fill:var(--c2);animation-name:ct}.c.cu{fill:var(--c3);animation-name:cu}.c.cv{fill:var(--c2);animation-name:cv}.c.cw,.c.cx,.c.cy{fill:var(--c1);animation-name:cw}.c.cx,.c.cy{animation-name:cx}.c.cy{animation-name:cy}.c.cz{fill:var(--c2);animation-name:cz}.c.c10,.c.c11,.c.c12{fill:var(--c1);animation-name:c10}.c.c11,.c.c12{animation-name:c11}.c.c12{animation-name:c12}.s,.u{animation:none linear 22500ms infinite}.u,.u.u0{transform-origin:0 0}.u{transform:scale(0,1)}.u.u0{fill:var(--c1);animation-name:u0}.u.u1{fill:var(--c2);animation-name:u1;transform-origin:608.8px 0}.u.u2{fill:var(--c3);animation-name:u2;transform-origin:804.5px 0}.u.u3{fill:var(--c4);animation-name:u3;transform-origin:826.3px 0}.s{shape-rendering:geometricPrecision;fill:var(--cs)}.s.s0{transform:translate(0,-16px);animation-name:s0}.s.s1{transform:translate(16px,-16px);animation-name:s1}.s.s2{transform:translate(32px,-16px);animation-name:s2}.s.s3{transform:translate(48px,-16px);animation-name:s3}</style><rect class="c" x="2" y="2" rx="2" ry="2" width="12" height="12"/><rect class="c" x="2" y="18" rx="2" ry="2" width="12" height="12"/><rect class="c" x="2" y="34" rx="2" ry="2" width="12" height="12"/><rect class="c" x="2" y="50" rx="2" ry="2" width="12" height="12"/><rect class="c" x="2" y="66" rx="2" ry="2" width="12" height="12"/><rect class="c" x="2" y="82" rx="2" ry="2" width="12" height="12"/><rect class="c" x="2" y="98" rx="2" ry="2" width="12" height="12"/><rect class="c" x="18" y="2" rx="2" ry="2" width="12" height="12"/><rect class="c c0" x="18" y="18" rx="2" ry="2" width="12" height="12"/><rect class="c" x="18" y="34" rx="2" ry="2" width="12" height="12"/><rect class="c" x="18" y="50" rx="2" ry="2" width="12" height="12"/><rect class="c" x="18" y="66" rx="2" ry="2" width="12" height="12"/><rect class="c" x="18" y="82" rx="2" ry="2" width="12" height="12"/><rect class="c" x="18" y="98" rx="2" ry="2" width="12" height="12"/><rect class="c" x="34" y="2" rx="2" ry="2" width="12" height="12"/><rect class="c" x="34" y="18" rx="2" ry="2" width="12" height="12"/><rect class="c" x="34" y="34" rx="2" ry="2" width="12" height="12"/><rect class="c" x="34" y="50" rx="2" ry="2" width="12" height="12"/><rect class="c" x="34" y="66" rx="2" ry="2" width="12" height="12"/><rect class="c" x="34" y="82" rx="2" ry="2" width="12" height="12"/><rect class="c" x="34" y="98" rx="2" ry="2" width="12" height="12"/><rect class="c" x="50" y="2" rx="2" ry="2" width="12" height="12"/><rect class="c" x="50" y="18" rx="2" ry="2" width="12" height="12"/><rect class="c" x="50" y="34" rx="2" ry="2" width="12" height="12"/><rect class="c c1" x="50" y="50" rx="2" ry="2" width="12" height="12"/><rect class="c" x="50" y="66" rx="2" ry="2" width="12" height="12"/><rect class="c" x="50" y="82" rx="2" ry="2" width="12" height="12"/><rect class="c" x="50" y="98" rx="2" ry="2" width="12" height="12"/><rect class="c c2" x="66" y="2" rx="2" ry="2" width="12" height="12"/><rect class="c" x="66" y="18" rx="2" ry="2" width="12" height="12"/><rect class="c c3" x="66" y="34" rx="2" ry="2" width="12" height="12"/><rect class="c c4" x="66" y="50" rx="2" ry="2" width="12" height="12"/><rect class="c c5" x="66" y="66" rx="2" ry="2" width="12" height="12"/><rect class="c" x="66" y="82" rx="2" ry="2" width="12" height="12"/><rect class="c" x="66" y="98" rx="2" ry="2" width="12" height="12"/><rect class="c c6" x="82" y="2" rx="2" ry="2" width="12" height="12"/><rect class="c" x="82" y="18" rx="2" ry="2" width="12" height="12"/><rect class="c c7" x="82" y="34" rx="2" ry="2" width="12" height="12"/><rect class="c c8" x="82" y="50" rx="2" ry="2" width="12" height="12"/><rect class="c c9" x="82" y="66" rx="2" ry="2" width="12" height="12"/><rect class="c ca" x="82" y="82" rx="2" ry="2" width="12" height="12"/><rect class="c cb" x="82" y="98" rx="2" ry="2" width="12" height="12"/><rect class="c" x="98" y="2" rx="2" ry="2" width="12" height="12"/><rect class="c cc" x="98" y="18" rx="2" ry="2" width="12" height="12"/><rect class="c" x="98" y="34" rx="2" ry="2" width="12" height="12"/><rect class="c" x="98" y="50" rx="2" ry="2" width="12" height="12"/><rect class="c" x="98" y="66" rx="2" ry="2" width="12" height="12"/><rect class="c" x="98" y="82" rx="2" ry="2" width="12" height="12"/><rect class="c" x="98" y="98" rx="2" ry="2" width="12" height="12"/><rect class="c" x="114" y="2" rx="2" ry="2" width="12" height="12"/><rect class="c" x="114" y="18" rx="2" ry="2" width="12" height="12"/><rect class="c" x="114" y="34" rx="2" ry="2" width="12" height="12"/><rect class="c" x="114" y="50" rx="2" ry="2" width="12" height="12"/><rect class="c" x="114" y="66" rx="2" ry="2" width="12" height="12"/><rect class="c" x="114" y="82" rx="2" ry="2" width="12" height="12"/><rect class="c cd" x="114" y="98" rx="2" ry="2" width="12" height="12"/><rect class="c" x="130" y="2" rx="2" ry="2" width="12" height="12"/><rect class="c" x="130" y="18" rx="2" ry="2" width="12" height="12"/><rect class="c ce" x="130" y="34" rx="2" ry="2" width="12" height="12"/><rect class="c" x="130" y="50" rx="2" ry="2" width="12" height="12"/><rect class="c" x="130" y="66" rx="2" ry="2" width="12" height="12"/><rect class="c" x="130" y="82" rx="2" ry="2" width="12" height="12"/><rect class="c" x="130" y="98" rx="2" ry="2" width="12" height="12"/><rect class="c" x="146" y="2" rx="2" ry="2" width="12" height="12"/><rect class="c" x="146" y="18" rx="2" ry="2" width="12" height="12"/><rect class="c" x="146" y="34" rx="2" ry="2" width="12" height="12"/><rect class="c" x="146" y="50" rx="2" ry="2" width="12" height="12"/><rect class="c" x="146" y="66" rx="2" ry="2" width="12" height="12"/><rect class="c" x="146" y="82" rx="2" ry="2" width="12" height="12"/><rect class="c" x="146" y="98" rx="2" ry="2" width="12" height="12"/><rect class="c" x="162" y="2" rx="2" ry="2" width="12" height="12"/><rect class="c" x="162" y="18" rx="2" ry="2" width="12" height="12"/><rect class="c" x="162" y="34" rx="2" ry="2" width="12" height="12"/><rect class="c" x="162" y="50" rx="2" ry="2" width="12" height="12"/><rect class="c" x="162" y="66" rx="2" ry="2" width="12" height="12"/><rect class="c" x="162" y="82" rx="2" ry="2" width="12" height="12"/><rect class="c" x="162" y="98" rx="2" ry="2" width="12" height="12"/><rect class="c" x="178" y="2" rx="2" ry="2" width="12" height="12"/><rect class="c" x="178" y="18" rx="2" ry="2" width="12" height="12"/><rect class="c" x="178" y="34" rx="2" ry="2" width="12" height="12"/><rect class="c" x="178" y="50" rx="2" ry="2" width="12" height="12"/><rect class="c" x="178" y="66" rx="2" ry="2" width="12" height="12"/><rect class="c" x="178" y="82" rx="2" ry="2" width="12" height="12"/><rect class="c" x="178" y="98" rx="2" ry="2" width="12" height="12"/><rect class="c" x="194" y="2" rx="2" ry="2" width="12" height="12"/><rect class="c" x="194" y="18" rx="2" ry="2" width="12" height="12"/><rect class="c" x="194" y="34" rx="2" ry="2" width="12" height="12"/><rect class="c" x="194" y="50" rx="2" ry="2" width="12" height="12"/><rect class="c" x="194" y="66" rx="2" ry="2" width="12" height="12"/><rect class="c" x="194" y="82" rx="2" ry="2" width="12" height="12"/><rect class="c" x="194" y="98" rx="2" ry="2" width="12" height="12"/><rect class="c" x="210" y="2" rx="2" ry="2" width="12" height="12"/><rect class="c" x="210" y="18" rx="2" ry="2" width="12" height="12"/><rect class="c" x="210" y="34" rx="2" ry="2" width="12" height="12"/><rect class="c" x="210" y="50" rx="2" ry="2" width="12" height="12"/><rect class="c" x="210" y="66" rx="2" ry="2" width="12" height="12"/><rect class="c" x="210" y="82" rx="2" ry="2" width="12" height="12"/><rect class="c" x="210" y="98" rx="2" ry="2" width="12" height="12"/><rect class="c" x="226" y="2" rx="2" ry="2" width="12" height="12"/><rect class="c" x="226" y="18" rx="2" ry="2" width="12" height="12"/><rect class="c" x="226" y="34" rx="2" ry="2" width="12" height="12"/><rect class="c" x="226" y="50" rx="2" ry="2" width="12" height="12"/><rect class="c" x="226" y="66" rx="2" ry="2" width="12" height="12"/><rect class="c" x="226" y="82" rx="2" ry="2" width="12" height="12"/><rect class="c" x="226" y="98" rx="2" ry="2" width="12" height="12"/><rect class="c cf" x="242" y="2" rx="2" ry="2" width="12" height="12"/><rect class="c" x="242" y="18" rx="2" ry="2" width="12" height="12"/><rect class="c" x="242" y="34" rx="2" ry="2" width="12" height="12"/><rect class="c" x="242" y="50" rx="2" ry="2" width="12" height="12"/><rect class="c" x="242" y="66" rx="2" ry="2" width="12" height="12"/><rect class="c" x="242" y="82" rx="2" ry="2" width="12" height="12"/><rect class="c" x="242" y="98" rx="2" ry="2" width="12" height="12"/><rect class="c" x="258" y="2" rx="2" ry="2" width="12" height="12"/><rect class="c cg" x="258" y="18" rx="2" ry="2" width="12" height="12"/><rect class="c ch" x="258" y="34" rx="2" ry="2" width="12" height="12"/><rect class="c" x="258" y="50" rx="2" ry="2" width="12" height="12"/><rect class="c" x="258" y="66" rx="2" ry="2" width="12" height="12"/><rect class="c" x="258" y="82" rx="2" ry="2" width="12" height="12"/><rect class="c" x="258" y="98" rx="2" ry="2" width="12" height="12"/><rect class="c" x="274" y="2" rx="2" ry="2" width="12" height="12"/><rect class="c" x="274" y="18" rx="2" ry="2" width="12" height="12"/><rect class="c" x="274" y="34" rx="2" ry="2" width="12" height="12"/><rect class="c" x="274" y="50" rx="2" ry="2" width="12" height="12"/><rect class="c" x="274" y="66" rx="2" ry="2" width="12" height="12"/><rect class="c" x="274" y="82" rx="2" ry="2" width="12" height="12"/><rect class="c" x="274" y="98" rx="2" ry="2" width="12" height="12"/><rect class="c" x="290" y="2" rx="2" ry="2" width="12" height="12"/><rect class="c" x="290" y="18" rx="2" ry="2" width="12" height="12"/><rect class="c" x="290" y="34" rx="2" ry="2" width="12" height="12"/><rect class="c" x="290" y="50" rx="2" ry="2" width="12" height="12"/><rect class="c" x="290" y="66" rx="2" ry="2" width="12" height="12"/><rect class="c" x="290" y="82" rx="2" ry="2" width="12" height="12"/><rect class="c" x="290" y="98" rx="2" ry="2" width="12" height="12"/><rect class="c" x="306" y="2" rx="2" ry="2" width="12" height="12"/><rect class="c" x="306" y="18" rx="2" ry="2" width="12" height="12"/><rect class="c" x="306" y="34" rx="2" ry="2" width="12" height="12"/><rect class="c" x="306" y="50" rx="2" ry="2" width="12" height="12"/><rect class="c" x="306" y="66" rx="2" ry="2" width="12" height="12"/><rect class="c" x="306" y="82" rx="2" ry="2" width="12" height="12"/><rect class="c ci" x="306" y="98" rx="2" ry="2" width="12" height="12"/><rect class="c" x="322" y="2" rx="2" ry="2" width="12" height="12"/><rect class="c" x="322" y="18" rx="2" ry="2" width="12" height="12"/><rect class="c cj" x="322" y="34" rx="2" ry="2" width="12" height="12"/><rect class="c ck" x="322" y="50" rx="2" ry="2" width="12" height="12"/><rect class="c" x="322" y="66" rx="2" ry="2" width="12" height="12"/><rect class="c cl" x="322" y="82" rx="2" ry="2" width="12" height="12"/><rect class="c" x="322" y="98" rx="2" ry="2" width="12" height="12"/><rect class="c" x="338" y="2" rx="2" ry="2" width="12" height="12"/><rect class="c cm" x="338" y="18" rx="2" ry="2" width="12" height="12"/><rect class="c" x="338" y="34" rx="2" ry="2" width="12" height="12"/><rect class="c cn" x="338" y="50" rx="2" ry="2" width="12" height="12"/><rect class="c co" x="338" y="66" rx="2" ry="2" width="12" height="12"/><rect class="c" x="338" y="82" rx="2" ry="2" width="12" height="12"/><rect class="c cp" x="338" y="98" rx="2" ry="2" width="12" height="12"/><rect class="c" x="354" y="2" rx="2" ry="2" width="12" height="12"/><rect class="c" x="354" y="18" rx="2" ry="2" width="12" height="12"/><rect class="c" x="354" y="34" rx="2" ry="2" width="12" height="12"/><rect class="c" x="354" y="50" rx="2" ry="2" width="12" height="12"/><rect class="c" x="354" y="66" rx="2" ry="2" width="12" height="12"/><rect class="c" x="354" y="82" rx="2" ry="2" width="12" height="12"/><rect class="c" x="354" y="98" rx="2" ry="2" width="12" height="12"/><rect class="c" x="370" y="2" rx="2" ry="2" width="12" height="12"/><rect class="c" x="370" y="18" rx="2" ry="2" width="12" height="12"/><rect class="c" x="370" y="34" rx="2" ry="2" width="12" height="12"/><rect class="c" x="370" y="50" rx="2" ry="2" width="12" height="12"/><rect class="c" x="370" y="66" rx="2" ry="2" width="12" height="12"/><rect class="c" x="370" y="82" rx="2" ry="2" width="12" height="12"/><rect class="c" x="370" y="98" rx="2" ry="2" width="12" height="12"/><rect class="c" x="386" y="2" rx="2" ry="2" width="12" height="12"/><rect class="c" x="386" y="18" rx="2" ry="2" width="12" height="12"/><rect class="c" x="386" y="34" rx="2" ry="2" width="12" height="12"/><rect class="c" x="386" y="50" rx="2" ry="2" width="12" height="12"/><rect class="c" x="386" y="66" rx="2" ry="2" width="12" height="12"/><rect class="c" x="386" y="82" rx="2" ry="2" width="12" height="12"/><rect class="c cq" x="386" y="98" rx="2" ry="2" width="12" height="12"/><rect class="c" x="402" y="2" rx="2" ry="2" width="12" height="12"/><rect class="c" x="402" y="18" rx="2" ry="2" width="12" height="12"/><rect class="c" x="402" y="34" rx="2" ry="2" width="12" height="12"/><rect class="c" x="402" y="50" rx="2" ry="2" width="12" height="12"/><rect class="c" x="402" y="66" rx="2" ry="2" width="12" height="12"/><rect class="c" x="402" y="82" rx="2" ry="2" width="12" height="12"/><rect class="c cr" x="402" y="98" rx="2" ry="2" width="12" height="12"/><rect class="c cs" x="418" y="2" rx="2" ry="2" width="12" height="12"/><rect class="c" x="418" y="18" rx="2" ry="2" width="12" height="12"/><rect class="c" x="418" y="34" rx="2" ry="2" width="12" height="12"/><rect class="c" x="418" y="50" rx="2" ry="2" width="12" height="12"/><rect class="c" x="418" y="66" rx="2" ry="2" width="12" height="12"/><rect class="c" x="418" y="82" rx="2" ry="2" width="12" height="12"/><rect class="c" x="418" y="98" rx="2" ry="2" width="12" height="12"/><rect class="c ct" x="434" y="2" rx="2" ry="2" width="12" height="12"/><rect class="c cu" x="434" y="18" rx="2" ry="2" width="12" height="12"/><rect class="c" x="434" y="34" rx="2" ry="2" width="12" height="12"/><rect class="c cv" x="434" y="50" rx="2" ry="2" width="12" height="12"/><rect class="c" x="434" y="66" rx="2" ry="2" width="12" height="12"/><rect class="c" x="434" y="82" rx="2" ry="2" width="12" height="12"/><rect class="c" x="434" y="98" rx="2" ry="2" width="12" height="12"/><rect class="c" x="450" y="2" rx="2" ry="2" width="12" height="12"/><rect class="c cw" x="450" y="18" rx="2" ry="2" width="12" height="12"/><rect class="c" x="450" y="34" rx="2" ry="2" width="12" height="12"/><rect class="c cx" x="450" y="50" rx="2" ry="2" width="12" height="12"/><rect class="c" x="450" y="66" rx="2" ry="2" width="12" height="12"/><rect class="c" x="450" y="82" rx="2" ry="2" width="12" height="12"/><rect class="c" x="450" y="98" rx="2" ry="2" width="12" height="12"/><rect class="c" x="466" y="2" rx="2" ry="2" width="12" height="12"/><rect class="c cy" x="466" y="18" rx="2" ry="2" width="12" height="12"/><rect class="c" x="466" y="34" rx="2" ry="2" width="12" height="12"/><rect class="c" x="466" y="50" rx="2" ry="2" width="12" height="12"/><rect class="c" x="466" y="66" rx="2" ry="2" width="12" height="12"/><rect class="c" x="466" y="82" rx="2" ry="2" width="12" height="12"/><rect class="c" x="466" y="98" rx="2" ry="2" width="12" height="12"/><rect class="c" x="482" y="2" rx="2" ry="2" width="12" height="12"/><rect class="c" x="482" y="18" rx="2" ry="2" width="12" height="12"/><rect class="c" x="482" y="34" rx="2" ry="2" width="12" height="12"/><rect class="c" x="482" y="50" rx="2" ry="2" width="12" height="12"/><rect class="c" x="482" y="66" rx="2" ry="2" width="12" height="12"/><rect class="c" x="482" y="82" rx="2" ry="2" width="12" height="12"/><rect class="c" x="482" y="98" rx="2" ry="2" width="12" height="12"/><rect class="c" x="498" y="2" rx="2" ry="2" width="12" height="12"/><rect class="c" x="498" y="18" rx="2" ry="2" width="12" height="12"/><rect class="c cz" x="498" y="34" rx="2" ry="2" width="12" height="12"/><rect class="c" x="498" y="50" rx="2" ry="2" width="12" height="12"/><rect class="c" x="498" y="66" rx="2" ry="2" width="12" height="12"/><rect class="c" x="498" y="82" rx="2" ry="2" width="12" height="12"/><rect class="c" x="498" y="98" rx="2" ry="2" width="12" height="12"/><rect class="c" x="514" y="2" rx="2" ry="2" width="12" height="12"/><rect class="c" x="514" y="18" rx="2" ry="2" width="12" height="12"/><rect class="c" x="514" y="34" rx="2" ry="2" width="12" height="12"/><rect class="c" x="514" y="50" rx="2" ry="2" width="12" height="12"/><rect class="c" x="514" y="66" rx="2" ry="2" width="12" height="12"/><rect class="c" x="514" y="82" rx="2" ry="2" width="12" height="12"/><rect class="c" x="514" y="98" rx="2" ry="2" width="12" height="12"/><rect class="c" x="530" y="2" rx="2" ry="2" width="12" height="12"/><rect class="c" x="530" y="18" rx="2" ry="2" width="12" height="12"/><rect class="c" x="530" y="34" rx="2" ry="2" width="12" height="12"/><rect class="c c10" x="530" y="50" rx="2" ry="2" width="12" height="12"/><rect class="c" x="530" y="66" rx="2" ry="2" width="12" height="12"/><rect class="c" x="530" y="82" rx="2" ry="2" width="12" height="12"/><rect class="c" x="530" y="98" rx="2" ry="2" width="12" height="12"/><rect class="c" x="546" y="2" rx="2" ry="2" width="12" height="12"/><rect class="c" x="546" y="18" rx="2" ry="2" width="12" height="12"/><rect class="c" x="546" y="34" rx="2" ry="2" width="12" height="12"/><rect class="c" x="546" y="50" rx="2" ry="2" width="12" height="12"/><rect class="c" x="546" y="66" rx="2" ry="2" width="12" height="12"/><rect class="c" x="546" y="82" rx="2" ry="2" width="12" height="12"/><rect class="c" x="546" y="98" rx="2" ry="2" width="12" height="12"/><rect class="c" x="562" y="2" rx="2" ry="2" width="12" height="12"/><rect class="c" x="562" y="18" rx="2" ry="2" width="12" height="12"/><rect class="c" x="562" y="34" rx="2" ry="2" width="12" height="12"/><rect class="c" x="562" y="50" rx="2" ry="2" width="12" height="12"/><rect class="c" x="562" y="66" rx="2" ry="2" width="12" height="12"/><rect class="c" x="562" y="82" rx="2" ry="2" width="12" height="12"/><rect class="c" x="562" y="98" rx="2" ry="2" width="12" height="12"/><rect class="c" x="578" y="2" rx="2" ry="2" width="12" height="12"/><rect class="c" x="578" y="18" rx="2" ry="2" width="12" height="12"/><rect class="c" x="578" y="34" rx="2" ry="2" width="12" height="12"/><rect class="c" x="578" y="50" rx="2" ry="2" width="12" height="12"/><rect class="c" x="578" y="66" rx="2" ry="2" width="12" height="12"/><rect class="c" x="578" y="82" rx="2" ry="2" width="12" height="12"/><rect class="c" x="578" y="98" rx="2" ry="2" width="12" height="12"/><rect class="c" x="594" y="2" rx="2" ry="2" width="12" height="12"/><rect class="c" x="594" y="18" rx="2" ry="2" width="12" height="12"/><rect class="c" x="594" y="34" rx="2" ry="2" width="12" height="12"/><rect class="c" x="594" y="50" rx="2" ry="2" width="12" height="12"/><rect class="c" x="594" y="66" rx="2" ry="2" width="12" height="12"/><rect class="c" x="594" y="82" rx="2" ry="2" width="12" height="12"/><rect class="c" x="594" y="98" rx="2" ry="2" width="12" height="12"/><rect class="c" x="610" y="2" rx="2" ry="2" width="12" height="12"/><rect class="c" x="610" y="18" rx="2" ry="2" width="12" height="12"/><rect class="c" x="610" y="34" rx="2" ry="2" width="12" height="12"/><rect class="c" x="610" y="50" rx="2" ry="2" width="12" height="12"/><rect class="c" x="610" y="66" rx="2" ry="2" width="12" height="12"/><rect class="c" x="610" y="82" rx="2" ry="2" width="12" height="12"/><rect class="c" x="610" y="98" rx="2" ry="2" width="12" height="12"/><rect class="c" x="626" y="2" rx="2" ry="2" width="12" height="12"/><rect class="c" x="626" y="18" rx="2" ry="2" width="12" height="12"/><rect class="c" x="626" y="34" rx="2" ry="2" width="12" height="12"/><rect class="c" x="626" y="50" rx="2" ry="2" width="12" height="12"/><rect class="c" x="626" y="66" rx="2" ry="2" width="12" height="12"/><rect class="c" x="626" y="82" rx="2" ry="2" width="12" height="12"/><rect class="c" x="626" y="98" rx="2" ry="2" width="12" height="12"/><rect class="c" x="642" y="2" rx="2" ry="2" width="12" height="12"/><rect class="c" x="642" y="18" rx="2" ry="2" width="12" height="12"/><rect class="c" x="642" y="34" rx="2" ry="2" width="12" height="12"/><rect class="c" x="642" y="50" rx="2" ry="2" width="12" height="12"/><rect class="c" x="642" y="66" rx="2" ry="2" width="12" height="12"/><rect class="c" x="642" y="82" rx="2" ry="2" width="12" height="12"/><rect class="c" x="642" y="98" rx="2" ry="2" width="12" height="12"/><rect class="c" x="658" y="2" rx="2" ry="2" width="12" height="12"/><rect class="c c11" x="658" y="18" rx="2" ry="2" width="12" height="12"/><rect class="c c12" x="658" y="34" rx="2" ry="2" width="12" height="12"/><rect class="c" x="658" y="50" rx="2" ry="2" width="12" height="12"/><rect class="c" x="658" y="66" rx="2" ry="2" width="12" height="12"/><rect class="c" x="658" y="82" rx="2" ry="2" width="12" height="12"/><rect class="c" x="658" y="98" rx="2" ry="2" width="12" height="12"/><rect class="c" x="674" y="2" rx="2" ry="2" width="12" height="12"/><rect class="c" x="674" y="18" rx="2" ry="2" width="12" height="12"/><rect class="c" x="674" y="34" rx="2" ry="2" width="12" height="12"/><rect class="c" x="674" y="50" rx="2" ry="2" width="12" height="12"/><rect class="c" x="674" y="66" rx="2" ry="2" width="12" height="12"/><rect class="c" x="674" y="82" rx="2" ry="2" width="12" height="12"/><rect class="c" x="674" y="98" rx="2" ry="2" width="12" height="12"/><rect class="c" x="690" y="2" rx="2" ry="2" width="12" height="12"/><rect class="c" x="690" y="18" rx="2" ry="2" width="12" height="12"/><rect class="c" x="690" y="34" rx="2" ry="2" width="12" height="12"/><rect class="c" x="690" y="50" rx="2" ry="2" width="12" height="12"/><rect class="c" x="690" y="66" rx="2" ry="2" width="12" height="12"/><rect class="c" x="690" y="82" rx="2" ry="2" width="12" height="12"/><rect class="c" x="690" y="98" rx="2" ry="2" width="12" height="12"/><rect class="c" x="706" y="2" rx="2" ry="2" width="12" height="12"/><rect class="c" x="706" y="18" rx="2" ry="2" width="12" height="12"/><rect class="c" x="706" y="34" rx="2" ry="2" width="12" height="12"/><rect class="c" x="706" y="50" rx="2" ry="2" width="12" height="12"/><rect class="c" x="706" y="66" rx="2" ry="2" width="12" height="12"/><rect class="c" x="706" y="82" rx="2" ry="2" width="12" height="12"/><rect class="c" x="706" y="98" rx="2" ry="2" width="12" height="12"/><rect class="c" x="722" y="2" rx="2" ry="2" width="12" height="12"/><rect class="c" x="722" y="18" rx="2" ry="2" width="12" height="12"/><rect class="c" x="722" y="34" rx="2" ry="2" width="12" height="12"/><rect class="c" x="722" y="50" rx="2" ry="2" width="12" height="12"/><rect class="c" x="722" y="66" rx="2" ry="2" width="12" height="12"/><rect class="c" x="722" y="82" rx="2" ry="2" width="12" height="12"/><rect class="c" x="722" y="98" rx="2" ry="2" width="12" height="12"/><rect class="c" x="738" y="2" rx="2" ry="2" width="12" height="12"/><rect class="c" x="738" y="18" rx="2" ry="2" width="12" height="12"/><rect class="c" x="738" y="34" rx="2" ry="2" width="12" height="12"/><rect class="c" x="738" y="50" rx="2" ry="2" width="12" height="12"/><rect class="c" x="738" y="66" rx="2" ry="2" width="12" height="12"/><rect class="c" x="738" y="82" rx="2" ry="2" width="12" height="12"/><rect class="c" x="738" y="98" rx="2" ry="2" width="12" height="12"/><rect class="c" x="754" y="2" rx="2" ry="2" width="12" height="12"/><rect class="c" x="754" y="18" rx="2" ry="2" width="12" height="12"/><rect class="c" x="754" y="34" rx="2" ry="2" width="12" height="12"/><rect class="c" x="754" y="50" rx="2" ry="2" width="12" height="12"/><rect class="c" x="754" y="66" rx="2" ry="2" width="12" height="12"/><rect class="c" x="754" y="82" rx="2" ry="2" width="12" height="12"/><rect class="c" x="754" y="98" rx="2" ry="2" width="12" height="12"/><rect class="c" x="770" y="2" rx="2" ry="2" width="12" height="12"/><rect class="c" x="770" y="18" rx="2" ry="2" width="12" height="12"/><rect class="c" x="770" y="34" rx="2" ry="2" width="12" height="12"/><rect class="c" x="770" y="50" rx="2" ry="2" width="12" height="12"/><rect class="c" x="770" y="66" rx="2" ry="2" width="12" height="12"/><rect class="c" x="770" y="82" rx="2" ry="2" width="12" height="12"/><rect class="c" x="770" y="98" rx="2" ry="2" width="12" height="12"/><rect class="c" x="786" y="2" rx="2" ry="2" width="12" height="12"/><rect class="c" x="786" y="18" rx="2" ry="2" width="12" height="12"/><rect class="c" x="786" y="34" rx="2" ry="2" width="12" height="12"/><rect class="c" x="786" y="50" rx="2" ry="2" width="12" height="12"/><rect class="c" x="786" y="66" rx="2" ry="2" width="12" height="12"/><rect class="c" x="786" y="82" rx="2" ry="2" width="12" height="12"/><rect class="c" x="786" y="98" rx="2" ry="2" width="12" height="12"/><rect class="c" x="802" y="2" rx="2" ry="2" width="12" height="12"/><rect class="c" x="802" y="18" rx="2" ry="2" width="12" height="12"/><rect class="c" x="802" y="34" rx="2" ry="2" width="12" height="12"/><rect class="c" x="802" y="50" rx="2" ry="2" width="12" height="12"/><rect class="c" x="802" y="66" rx="2" ry="2" width="12" height="12"/><rect class="c" x="802" y="82" rx="2" ry="2" width="12" height="12"/><rect class="c" x="802" y="98" rx="2" ry="2" width="12" height="12"/><rect class="c" x="818" y="2" rx="2" ry="2" width="12" height="12"/><rect class="c" x="818" y="18" rx="2" ry="2" width="12" height="12"/><rect class="c" x="818" y="34" rx="2" ry="2" width="12" height="12"/><rect class="c" x="818" y="50" rx="2" ry="2" width="12" height="12"/><rect class="c" x="818" y="66" rx="2" ry="2" width="12" height="12"/><rect class="c" x="818" y="82" rx="2" ry="2" width="12" height="12"/><rect class="c" x="818" y="98" rx="2" ry="2" width="12" height="12"/><rect class="c" x="834" y="2" rx="2" ry="2" width="12" height="12"/><rect class="c" x="834" y="18" rx="2" ry="2" width="12" height="12"/><rect class="u u0" height="12" width="609.4" x="0.0" y="144"/><rect class="u u1" height="12" width="196.3" x="608.8" y="144"/><rect class="u u2" height="12" width="22.3" x="804.5" y="144"/><rect class="u u3" height="12" width="22.3" x="826.3" y="144"/><rect class="s s0" x="0.8" y="0.8" width="14.4" height="14.4" rx="4.5" ry="4.5"/><rect class="s s1" x="1.8" y="1.8" width="12.3" height="12.3" rx="4.1" ry="4.1"/><rect class="s s2" x="2.6" y="2.6" width="10.8" height="10.8" rx="3.6" ry="3.6"/><rect class="s s3" x="3.0" y="3.0" width="9.9" height="9.9" rx="3.3" ry="3.3"/></svg>