<svg viewBox="-16 -32 880 192" width="880" height="192" xmlns="http://www.w3.org/2000/svg"><style>@keyframes c0{4.98%{fill:var(--c1)}5%,to{fill:var(--ce)}}@keyframes c1{3.66%{fill:var(--c1)}3.68%,to{fill:var(--ce)}}@keyframes c2{2.61%{fill:var(--c1)}2.63%,to{fill:var(--ce)}}@keyframes c3{3.4%{fill:var(--c1)}3.42%,to{fill:var(--ce)}}@keyframes c4{73.48%{fill:var(--c2)}73.5%,to{fill:var(--ce)}}@keyframes c5{2.88%{fill:var(--c1)}2.9%,to{fill:var(--ce)}}@keyframes c6{3.14%{fill:var(--c1)}3.16%,to{fill:var(--ce)}}@keyframes c7{6.29%{fill:var(--c1)}6.31%,to{fill:var(--ce)}}@keyframes c8{6.03%{fill:var(--c1)}6.05%,to{fill:var(--ce)}}@keyframes c9{7.86%{fill:var(--c1)}7.88%,to{fill:var(--ce)}}@keyframes ca{7.08%{fill:var(--c1)}7.1%,to{fill:var(--ce)}}@keyframes cb{48.55%{fill:var(--c1)}48.57%,to{fill:var(--ce)}}@keyframes cc{11.8%{fill:var(--c1)}11.82%,to{fill:var(--ce)}}@keyframes cd{12.06%{fill:var(--c1)}12.08%,to{fill:var(--ce)}}@keyframes ce{12.33%{fill:var(--c1)}12.35%,to{fill:var(--ce)}}@keyframes cf{12.59%{fill:var(--c1)}12.61%,to{fill:var(--ce)}}@keyframes cg{9.7%{fill:var(--c1)}9.72%,to{fill:var(--ce)}}@keyframes ch{11.54%{fill:var(--c1)}11.56%,to{fill:var(--ce)}}@keyframes ci{11.28%{fill:var(--c1)}11.3%,to{fill:var(--ce)}}@keyframes cj{13.11%{fill:var(--c1)}13.13%,to{fill:var(--ce)}}@keyframes ck{10.23%{fill:var(--c1)}10.25%,to{fill:var(--ce)}}@keyframes cl{10.49%{fill:var(--c1)}10.51%,to{fill:var(--ce)}}@keyframes cm{10.75%{fill:var(--c1)}10.77%,to{fill:var(--ce)}}@keyframes cn{13.9%{fill:var(--c1)}13.92%,to{fill:var(--ce)}}@keyframes co{50.91%{fill:var(--c2)}50.93%,to{fill:var(--ce)}}@keyframes cp{15.48%{fill:var(--c1)}15.5%,to{fill:var(--ce)}}@keyframes cq{15.21%{fill:var(--c1)}15.23%,to{fill:var(--ce)}}@keyframes cr{52.22%{fill:var(--c2)}52.24%,to{fill:var(--ce)}}@keyframes cs{17.84%{fill:var(--c1)}17.86%,to{fill:var(--ce)}}@keyframes ct{18.1%{fill:var(--c1)}18.12%,to{fill:var(--ce)}}@keyframes cu{16.79%{fill:var(--c1)}16.81%,to{fill:var(--ce)}}@keyframes cv{19.94%{fill:var(--c1)}19.96%,to{fill:var(--ce)}}@keyframes cw{39.89%{fill:var(--c1)}39.91%,to{fill:var(--ce)}}@keyframes cx{20.2%{fill:var(--c1)}20.22%,to{fill:var(--ce)}}@keyframes cy{20.46%{fill:var(--c1)}20.48%,to{fill:var(--ce)}}@keyframes cz{20.72%{fill:var(--c1)}20.74%,to{fill:var(--ce)}}@keyframes c10{40.41%{fill:var(--c1)}40.43%,to{fill:var(--ce)}}@keyframes c11{81.09%{fill:var(--c4)}81.11%,to{fill:var(--ce)}}@keyframes c12{39.36%{fill:var(--c1)}39.38%,to{fill:var(--ce)}}@keyframes c13{56.95%{fill:var(--c2)}56.97%,to{fill:var(--ce)}}@keyframes c14{36.47%{fill:var(--c1)}36.49%,to{fill:var(--ce)}}@keyframes c15{37.79%{fill:var(--c1)}37.81%,to{fill:var(--ce)}}@keyframes c16{21.77%{fill:var(--c1)}21.79%,to{fill:var(--ce)}}@keyframes c17{57.21%{fill:var(--c2)}57.23%,to{fill:var(--ce)}}@keyframes c18{35.95%{fill:var(--c1)}35.97%,to{fill:var(--ce)}}@keyframes c19{37%{fill:var(--c1)}37.02%,to{fill:var(--ce)}}@keyframes c1a{22.3%{fill:var(--c1)}22.32%,to{fill:var(--ce)}}@keyframes c1b{22.04%{fill:var(--c1)}22.06%,to{fill:var(--ce)}}@keyframes c1c{35.69%{fill:var(--c1)}35.71%,to{fill:var(--ce)}}@keyframes c1d{35.42%{fill:var(--c1)}35.44%,to{fill:var(--ce)}}@keyframes c1e{35.16%{fill:var(--c1)}35.18%,to{fill:var(--ce)}}@keyframes c1f{22.56%{fill:var(--c1)}22.58%,to{fill:var(--ce)}}@keyframes c1g{57.73%{fill:var(--c2)}57.75%,to{fill:var(--ce)}}@keyframes c1h{24.4%{fill:var(--c1)}24.42%,to{fill:var(--ce)}}@keyframes c1i{24.14%{fill:var(--c1)}24.16%,to{fill:var(--ce)}}@keyframes c1j{23.87%{fill:var(--c1)}23.89%,to{fill:var(--ce)}}@keyframes c1k{58%{fill:var(--c2)}58.02%,to{fill:var(--ce)}}@keyframes c1l{58.52%{fill:var(--c2)}58.54%,to{fill:var(--ce)}}@keyframes c1m{23.61%{fill:var(--c1)}23.63%,to{fill:var(--ce)}}@keyframes c1n{23.09%{fill:var(--c1)}23.11%,to{fill:var(--ce)}}@keyframes c1o{25.19%{fill:var(--c1)}25.21%,to{fill:var(--ce)}}@keyframes c1p{24.92%{fill:var(--c1)}24.94%,to{fill:var(--ce)}}@keyframes c1q{34.11%{fill:var(--c1)}34.13%,to{fill:var(--ce)}}@keyframes c1r{33.32%{fill:var(--c1)}33.34%,to{fill:var(--ce)}}@keyframes c1s{26.24%{fill:var(--c1)}26.26%,to{fill:var(--ce)}}@keyframes c1t{26.5%{fill:var(--c1)}26.52%,to{fill:var(--ce)}}@keyframes c1u{29.65%{fill:var(--c1)}29.67%,to{fill:var(--ce)}}@keyframes c1v{30.17%{fill:var(--c1)}30.19%,to{fill:var(--ce)}}@keyframes c1w{60.36%{fill:var(--c2)}60.38%,to{fill:var(--ce)}}@keyframes c1x{85.29%{fill:var(--c4)}85.31%,to{fill:var(--ce)}}@keyframes c1y{28.34%{fill:var(--c1)}28.36%,to{fill:var(--ce)}}@keyframes c1z{27.02%{fill:var(--c1)}27.04%,to{fill:var(--ce)}}@keyframes c20{27.81%{fill:var(--c1)}27.83%,to{fill:var(--ce)}}@keyframes c21{60.62%{fill:var(--c2)}60.64%,to{fill:var(--ce)}}@keyframes c22{30.96%{fill:var(--c1)}30.98%,to{fill:var(--ce)}}@keyframes c23{30.7%{fill:var(--c1)}30.72%,to{fill:var(--ce)}}@keyframes c24{32.01%{fill:var(--c1)}32.03%,to{fill:var(--ce)}}@keyframes c25{61.67%{fill:var(--c2)}61.69%,to{fill:var(--ce)}}@keyframes c26{27.29%{fill:var(--c1)}27.31%,to{fill:var(--ce)}}@keyframes u0{2.61%{transform:scale(0,1)}2.63%,2.88%{transform:scale(.02,1)}2.9%,3.14%{transform:scale(.03,1)}3.16%,3.4%{transform:scale(.05,1)}3.42%,3.66%{transform:scale(.06,1)}3.68%,4.98%{transform:scale(.08,1)}5%,6.03%{transform:scale(.09,1)}6.05%,6.29%{transform:scale(.11,1)}6.31%,7.08%{transform:scale(.12,1)}7.1%,7.86%{transform:scale(.14,1)}7.88%,9.7%{transform:scale(.15,1)}10.23%,9.72%{transform:scale(.17,1)}10.25%,10.49%{transform:scale(.18,1)}10.51%,10.75%{transform:scale(.2,1)}10.77%,11.28%{transform:scale(.21,1)}11.3%,11.54%{transform:scale(.23,1)}11.56%,11.8%{transform:scale(.24,1)}11.82%,12.06%{transform:scale(.26,1)}12.08%,12.33%{transform:scale(.27,1)}12.35%,12.59%{transform:scale(.29,1)}12.61%,13.11%{transform:scale(.3,1)}13.13%,13.9%{transform:scale(.32,1)}13.92%,15.21%{transform:scale(.33,1)}15.23%,15.48%{transform:scale(.35,1)}15.5%,16.79%{transform:scale(.36,1)}16.81%,17.84%{transform:scale(.38,1)}17.86%,18.1%{transform:scale(.39,1)}18.12%,19.94%{transform:scale(.41,1)}19.96%,20.2%{transform:scale(.42,1)}20.22%,20.46%{transform:scale(.44,1)}20.48%,20.72%{transform:scale(.45,1)}20.74%,21.77%{transform:scale(.47,1)}21.79%,22.04%{transform:scale(.48,1)}22.06%,22.3%{transform:scale(.5,1)}22.32%,22.56%{transform:scale(.52,1)}22.58%,23.09%{transform:scale(.53,1)}23.11%,23.61%{transform:scale(.55,1)}23.63%,23.87%{transform:scale(.56,1)}23.89%,24.14%{transform:scale(.58,1)}24.16%,24.4%{transform:scale(.59,1)}24.42%,24.92%{transform:scale(.61,1)}24.94%,25.19%{transform:scale(.62,1)}25.21%,26.24%{transform:scale(.64,1)}26.26%,26.5%{transform:scale(.65,1)}26.52%,27.02%{transform:scale(.67,1)}27.04%,27.29%{transform:scale(.68,1)}27.31%,27.81%{transform:scale(.7,1)}27.83%,28.34%{transform:scale(.71,1)}28.36%,29.65%{transform:scale(.73,1)}29.67%,30.17%{transform:scale(.74,1)}30.19%,30.7%{transform:scale(.76,1)}30.72%,30.96%{transform:scale(.77,1)}30.98%,32.01%{transform:scale(.79,1)}32.03%,33.32%{transform:scale(.8,1)}33.34%,34.11%{transform:scale(.82,1)}34.13%,35.16%{transform:scale(.83,1)}35.18%,35.42%{transform:scale(.85,1)}35.44%,35.69%{transform:scale(.86,1)}35.71%,35.95%{transform:scale(.88,1)}35.97%,36.47%{transform:scale(.89,1)}36.49%,37%{transform:scale(.91,1)}37.02%,37.79%{transform:scale(.92,1)}37.81%,39.36%{transform:scale(.94,1)}39.38%,39.89%{transform:scale(.95,1)}39.91%,40.41%{transform:scale(.97,1)}40.43%,48.55%{transform:scale(.98,1)}48.57%,to{transform:scale(1,1)}}@keyframes u1{50.91%{transform:scale(0,1)}50.93%,52.22%{transform:scale(.09,1)}52.24%,56.95%{transform:scale(.18,1)}56.97%,57.21%{transform:scale(.27,1)}57.23%,57.73%{transform:scale(.36,1)}57.75%,58%{transform:scale(.45,1)}58.02%,58.52%{transform:scale(.55,1)}58.54%,60.36%{transform:scale(.64,1)}60.38%,60.62%{transform:scale(.73,1)}60.64%,61.67%{transform:scale(.82,1)}61.69%,73.48%{transform:scale(.91,1)}73.5%,to{transform:scale(1,1)}}@keyframes u2{81.09%{transform:scale(0,1)}81.11%,85.29%{transform:scale(.5,1)}85.31%,to{transform:scale(1,1)}}@keyframes s0{0%,99.74%{transform:translate(0,-16px)}.26%{transform:translate(0,0)}2.89%{transform:translate(160px,0)}3.15%{transform:translate(160px,16px)}3.94%{transform:translate(112px,16px)}4.99%{transform:translate(112px,80px)}6.04%{transform:translate(176px,80px)}6.3%{transform:translate(176px,64px)}6.82%{transform:translate(208px,64px)}7.87%{transform:translate(208px,0)}10.24%{transform:translate(352px,0)}10.76%{transform:translate(352px,32px)}11.02%{transform:translate(336px,32px)}11.29%{transform:translate(336px,48px)}11.81%{transform:translate(304px,48px)}12.6%{transform:translate(304px,96px)}13.12%{transform:translate(336px,96px)}13.65%{transform:translate(336px,64px)}14.44%{transform:translate(384px,64px)}15.49%{transform:translate(384px,0)}16.8%{transform:translate(464px,0)}17.06%{transform:translate(464px,16px)}17.32%{transform:translate(448px,16px)}18.11%{transform:translate(448px,64px)}20.21%{transform:translate(576px,64px)}20.73%{transform:translate(576px,96px)}22.05%{transform:translate(656px,96px)}22.31%{transform:translate(656px,80px)}23.1%{transform:translate(704px,80px)}23.62%{transform:translate(704px,48px)}23.88%{transform:translate(688px,48px)}24.41%{transform:translate(688px,16px)}24.93%{transform:translate(720px,16px)}25.2%{transform:translate(720px,0)}25.98%{transform:translate(768px,0)}26.25%{transform:translate(768px,16px)}27.3%{transform:translate(832px,16px)}27.56%{transform:translate(832px,32px)}27.82%{transform:translate(816px,32px)}28.35%{transform:translate(816px,0)}28.87%{transform:translate(784px,0)}30.18%{transform:translate(784px,80px)}30.71%,31.76%{transform:translate(816px,80px)}30.97%{transform:translate(816px,64px)}31.23%{transform:translate(832px,64px)}31.5%{transform:translate(832px,80px)}32.02%{transform:translate(816px,96px)}32.28%{transform:translate(800px,96px)}32.55%{transform:translate(800px,80px)}33.33%{transform:translate(752px,80px)}33.86%{transform:translate(752px,48px)}35.17%{transform:translate(672px,48px)}35.7%{transform:translate(672px,16px)}36.22%{transform:translate(640px,16px)}36.48%{transform:translate(640px,32px)}36.75%{transform:translate(656px,32px)}37.01%{transform:translate(656px,48px)}37.27%{transform:translate(640px,48px)}37.8%,55.64%{transform:translate(640px,80px)}38.06%{transform:translate(624px,80px)}38.85%{transform:translate(624px,32px)}39.63%{transform:translate(576px,32px)}40.16%{transform:translate(576px,0)}40.68%{transform:translate(608px,0)}41.21%{transform:translate(608px,32px)}47.51%{transform:translate(224px,32px)}48.56%{transform:translate(224px,96px)}50.66%{transform:translate(352px,96px)}50.92%{transform:translate(352px,80px)}56.96%{transform:translate(640px,0)}58.01%{transform:translate(704px,0)}58.53%{transform:translate(704px,32px)}60.1%{transform:translate(800px,32px)}60.37%{transform:translate(800px,48px)}60.89%{transform:translate(832px,48px)}61.68%{transform:translate(832px,0)}72.97%{transform:translate(144px,0)}73.49%{transform:translate(144px,32px)}80.84%{transform:translate(592px,32px)}81.1%{transform:translate(592px,16px)}84.51%{transform:translate(800px,16px)}85.3%{transform:translate(800px,64px)}97.64%{transform:translate(48px,64px)}98.95%{transform:translate(48px,-16px)}}@keyframes s1{0%,99.74%{transform:translate(16px,-16px)}.26%{transform:translate(0,-16px)}.52%{transform:translate(0,0)}3.15%{transform:translate(160px,0)}3.41%{transform:translate(160px,16px)}4.2%{transform:translate(112px,16px)}5.25%{transform:translate(112px,80px)}6.3%{transform:translate(176px,80px)}6.56%{transform:translate(176px,64px)}7.09%{transform:translate(208px,64px)}8.14%{transform:translate(208px,0)}10.5%{transform:translate(352px,0)}11.02%{transform:translate(352px,32px)}11.29%{transform:translate(336px,32px)}11.55%{transform:translate(336px,48px)}12.07%{transform:translate(304px,48px)}12.86%{transform:translate(304px,96px)}13.39%{transform:translate(336px,96px)}13.91%{transform:translate(336px,64px)}14.7%{transform:translate(384px,64px)}15.75%{transform:translate(384px,0)}17.06%{transform:translate(464px,0)}17.32%{transform:translate(464px,16px)}17.59%{transform:translate(448px,16px)}18.37%{transform:translate(448px,64px)}20.47%{transform:translate(576px,64px)}21%{transform:translate(576px,96px)}22.31%{transform:translate(656px,96px)}22.57%{transform:translate(656px,80px)}23.36%{transform:translate(704px,80px)}23.88%{transform:translate(704px,48px)}24.15%{transform:translate(688px,48px)}24.67%{transform:translate(688px,16px)}25.2%{transform:translate(720px,16px)}25.46%{transform:translate(720px,0)}26.25%{transform:translate(768px,0)}26.51%{transform:translate(768px,16px)}27.56%{transform:translate(832px,16px)}27.82%{transform:translate(832px,32px)}28.08%{transform:translate(816px,32px)}28.61%{transform:translate(816px,0)}29.13%{transform:translate(784px,0)}30.45%{transform:translate(784px,80px)}30.97%,32.02%{transform:translate(816px,80px)}31.23%{transform:translate(816px,64px)}31.5%{transform:translate(832px,64px)}31.76%{transform:translate(832px,80px)}32.28%{transform:translate(816px,96px)}32.55%{transform:translate(800px,96px)}32.81%{transform:translate(800px,80px)}33.6%{transform:translate(752px,80px)}34.12%{transform:translate(752px,48px)}35.43%{transform:translate(672px,48px)}35.96%{transform:translate(672px,16px)}36.48%{transform:translate(640px,16px)}36.75%{transform:translate(640px,32px)}37.01%{transform:translate(656px,32px)}37.27%{transform:translate(656px,48px)}37.53%{transform:translate(640px,48px)}38.06%,55.91%{transform:translate(640px,80px)}38.32%{transform:translate(624px,80px)}39.11%{transform:translate(624px,32px)}39.9%{transform:translate(576px,32px)}40.42%{transform:translate(576px,0)}40.94%{transform:translate(608px,0)}41.47%{transform:translate(608px,32px)}47.77%{transform:translate(224px,32px)}48.82%{transform:translate(224px,96px)}50.92%{transform:translate(352px,96px)}51.18%{transform:translate(352px,80px)}57.22%{transform:translate(640px,0)}58.27%{transform:translate(704px,0)}58.79%{transform:translate(704px,32px)}60.37%{transform:translate(800px,32px)}60.63%{transform:translate(800px,48px)}61.15%{transform:translate(832px,48px)}61.94%{transform:translate(832px,0)}73.23%{transform:translate(144px,0)}73.75%{transform:translate(144px,32px)}81.1%{transform:translate(592px,32px)}81.36%{transform:translate(592px,16px)}84.78%{transform:translate(800px,16px)}85.56%{transform:translate(800px,64px)}97.9%{transform:translate(48px,64px)}99.21%{transform:translate(48px,-16px)}}@keyframes s2{0%,99.74%{transform:translate(32px,-16px)}.52%{transform:translate(0,-16px)}.79%{transform:translate(0,0)}3.41%{transform:translate(160px,0)}3.67%{transform:translate(160px,16px)}4.46%{transform:translate(112px,16px)}5.51%{transform:translate(112px,80px)}6.56%{transform:translate(176px,80px)}6.82%{transform:translate(176px,64px)}7.35%{transform:translate(208px,64px)}8.4%{transform:translate(208px,0)}10.76%{transform:translate(352px,0)}11.29%{transform:translate(352px,32px)}11.55%{transform:translate(336px,32px)}11.81%{transform:translate(336px,48px)}12.34%{transform:translate(304px,48px)}13.12%{transform:translate(304px,96px)}13.65%{transform:translate(336px,96px)}14.17%{transform:translate(336px,64px)}14.96%{transform:translate(384px,64px)}16.01%{transform:translate(384px,0)}17.32%{transform:translate(464px,0)}17.59%{transform:translate(464px,16px)}17.85%{transform:translate(448px,16px)}18.64%{transform:translate(448px,64px)}20.73%{transform:translate(576px,64px)}21.26%{transform:translate(576px,96px)}22.57%{transform:translate(656px,96px)}22.83%{transform:translate(656px,80px)}23.62%{transform:translate(704px,80px)}24.15%{transform:translate(704px,48px)}24.41%{transform:translate(688px,48px)}24.93%{transform:translate(688px,16px)}25.46%{transform:translate(720px,16px)}25.72%{transform:translate(720px,0)}26.51%{transform:translate(768px,0)}26.77%{transform:translate(768px,16px)}27.82%{transform:translate(832px,16px)}28.08%{transform:translate(832px,32px)}28.35%{transform:translate(816px,32px)}28.87%{transform:translate(816px,0)}29.4%{transform:translate(784px,0)}30.71%{transform:translate(784px,80px)}31.23%,32.28%{transform:translate(816px,80px)}31.5%{transform:translate(816px,64px)}31.76%{transform:translate(832px,64px)}32.02%{transform:translate(832px,80px)}32.55%{transform:translate(816px,96px)}32.81%{transform:translate(800px,96px)}33.07%{transform:translate(800px,80px)}33.86%{transform:translate(752px,80px)}34.38%{transform:translate(752px,48px)}35.7%{transform:translate(672px,48px)}36.22%{transform:translate(672px,16px)}36.75%{transform:translate(640px,16px)}37.01%{transform:translate(640px,32px)}37.27%{transform:translate(656px,32px)}37.53%{transform:translate(656px,48px)}37.8%{transform:translate(640px,48px)}38.32%,56.17%{transform:translate(640px,80px)}38.58%{transform:translate(624px,80px)}39.37%{transform:translate(624px,32px)}40.16%{transform:translate(576px,32px)}40.68%{transform:translate(576px,0)}41.21%{transform:translate(608px,0)}41.73%{transform:translate(608px,32px)}48.03%{transform:translate(224px,32px)}49.08%{transform:translate(224px,96px)}51.18%{transform:translate(352px,96px)}51.44%{transform:translate(352px,80px)}57.48%{transform:translate(640px,0)}58.53%{transform:translate(704px,0)}59.06%{transform:translate(704px,32px)}60.63%{transform:translate(800px,32px)}60.89%{transform:translate(800px,48px)}61.42%{transform:translate(832px,48px)}62.2%{transform:translate(832px,0)}73.49%{transform:translate(144px,0)}74.02%{transform:translate(144px,32px)}81.36%{transform:translate(592px,32px)}81.63%{transform:translate(592px,16px)}85.04%{transform:translate(800px,16px)}85.83%{transform:translate(800px,64px)}98.16%{transform:translate(48px,64px)}99.48%{transform:translate(48px,-16px)}}@keyframes s3{0%,99.74%{transform:translate(48px,-16px)}.79%{transform:translate(0,-16px)}1.05%{transform:translate(0,0)}3.67%{transform:translate(160px,0)}3.94%{transform:translate(160px,16px)}4.72%{transform:translate(112px,16px)}5.77%{transform:translate(112px,80px)}6.82%{transform:translate(176px,80px)}7.09%{transform:translate(176px,64px)}7.61%{transform:translate(208px,64px)}8.66%{transform:translate(208px,0)}11.02%{transform:translate(352px,0)}11.55%{transform:translate(352px,32px)}11.81%{transform:translate(336px,32px)}12.07%{transform:translate(336px,48px)}12.6%{transform:translate(304px,48px)}13.39%{transform:translate(304px,96px)}13.91%{transform:translate(336px,96px)}14.44%{transform:translate(336px,64px)}15.22%{transform:translate(384px,64px)}16.27%{transform:translate(384px,0)}17.59%{transform:translate(464px,0)}17.85%{transform:translate(464px,16px)}18.11%{transform:translate(448px,16px)}18.9%{transform:translate(448px,64px)}21%{transform:translate(576px,64px)}21.52%{transform:translate(576px,96px)}22.83%{transform:translate(656px,96px)}23.1%{transform:translate(656px,80px)}23.88%{transform:translate(704px,80px)}24.41%{transform:translate(704px,48px)}24.67%{transform:translate(688px,48px)}25.2%{transform:translate(688px,16px)}25.72%{transform:translate(720px,16px)}25.98%{transform:translate(720px,0)}26.77%{transform:translate(768px,0)}27.03%{transform:translate(768px,16px)}28.08%{transform:translate(832px,16px)}28.35%{transform:translate(832px,32px)}28.61%{transform:translate(816px,32px)}29.13%{transform:translate(816px,0)}29.66%{transform:translate(784px,0)}30.97%{transform:translate(784px,80px)}31.5%,32.55%{transform:translate(816px,80px)}31.76%{transform:translate(816px,64px)}32.02%{transform:translate(832px,64px)}32.28%{transform:translate(832px,80px)}32.81%{transform:translate(816px,96px)}33.07%{transform:translate(800px,96px)}33.33%{transform:translate(800px,80px)}34.12%{transform:translate(752px,80px)}34.65%{transform:translate(752px,48px)}35.96%{transform:translate(672px,48px)}36.48%{transform:translate(672px,16px)}37.01%{transform:translate(640px,16px)}37.27%{transform:translate(640px,32px)}37.53%{transform:translate(656px,32px)}37.8%{transform:translate(656px,48px)}38.06%{transform:translate(640px,48px)}38.58%,56.43%{transform:translate(640px,80px)}38.85%{transform:translate(624px,80px)}39.63%{transform:translate(624px,32px)}40.42%{transform:translate(576px,32px)}40.94%{transform:translate(576px,0)}41.47%{transform:translate(608px,0)}41.99%{transform:translate(608px,32px)}48.29%{transform:translate(224px,32px)}49.34%{transform:translate(224px,96px)}51.44%{transform:translate(352px,96px)}51.71%{transform:translate(352px,80px)}57.74%{transform:translate(640px,0)}58.79%{transform:translate(704px,0)}59.32%{transform:translate(704px,32px)}60.89%{transform:translate(800px,32px)}61.15%{transform:translate(800px,48px)}61.68%{transform:translate(832px,48px)}62.47%{transform:translate(832px,0)}73.75%{transform:translate(144px,0)}74.28%{transform:translate(144px,32px)}81.63%{transform:translate(592px,32px)}81.89%{transform:translate(592px,16px)}85.3%{transform:translate(800px,16px)}86.09%{transform:translate(800px,64px)}98.43%{transform:translate(48px,64px)}}:root{--cb:#1b1f230a;--cs:purple;--ce:#ebedf0;--c0:#ebedf0;--c1:#9be9a8;--c2:#40c463;--c3:#30a14e;--c4:#216e39}@media (prefers-color-scheme:dark){:root{--cb:#1b1f230a;--cs:purple;--ce:#161b22;--c1:#01311f;--c2:#034525;--c3:#0f6d31;--c4:#00c647}}.c{shape-rendering:geometricPrecision;rx:2;ry:2;fill:var(--ce);stroke-width:1px;stroke:var(--cb);animation:none 38100ms linear infinite}.c.c0{fill:var(--c1);animation-name:c0}.c.c1,.c.c2,.c.c3{fill:var(--c1);animation-name:c1}.c.c2,.c.c3{animation-name:c2}.c.c3{animation-name:c3}.c.c4{fill:var(--c2);animation-name:c4}.c.c5{fill:var(--c1);animation-name:c5}.c.c6,.c.c7,.c.c8{fill:var(--c1);animation-name:c6}.c.c7,.c.c8{animation-name:c7}.c.c8{animation-name:c8}.c.c9,.c.ca,.c.cb{fill:var(--c1);animation-name:c9}.c.ca,.c.cb{animation-name:ca}.c.cb{animation-name:cb}.c.cc,.c.cd,.c.ce{fill:var(--c1);animation-name:cc}.c.cd,.c.ce{animation-name:cd}.c.ce{animation-name:ce}.c.cf,.c.cg,.c.ch{fill:var(--c1);animation-name:cf}.c.cg,.c.ch{animation-name:cg}.c.ch{animation-name:ch}.c.ci,.c.cj,.c.ck{fill:var(--c1);animation-name:ci}.c.cj,.c.ck{animation-name:cj}.c.ck{animation-name:ck}.c.cl,.c.cm,.c.cn{fill:var(--c1);animation-name:cl}.c.cm,.c.cn{animation-name:cm}.c.cn{animation-name:cn}.c.co{fill:var(--c2);animation-name:co}.c.cp,.c.cq{fill:var(--c1);animation-name:cp}.c.cq{animation-name:cq}.c.cr{fill:var(--c2);animation-name:cr}.c.cs,.c.ct,.c.cu{fill:var(--c1);animation-name:cs}.c.ct,.c.cu{animation-name:ct}.c.cu{animation-name:cu}.c.cv,.c.cw,.c.cx{fill:var(--c1);animation-name:cv}.c.cw,.c.cx{animation-name:cw}.c.cx{animation-name:cx}.c.c10,.c.cy,.c.cz{fill:var(--c1);animation-name:cy}.c.c10,.c.cz{animation-name:cz}.c.c10{animation-name:c10}.c.c11{fill:var(--c4);animation-name:c11}.c.c12{fill:var(--c1);animation-name:c12}.c.c13{fill:var(--c2);animation-name:c13}.c.c14,.c.c15,.c.c16{fill:var(--c1);animation-name:c14}.c.c15,.c.c16{animation-name:c15}.c.c16{animation-name:c16}.c.c17{fill:var(--c2);animation-name:c17}.c.c18,.c.c19{fill:var(--c1);animation-name:c18}.c.c19{animation-name:c19}.c.c1a,.c.c1b,.c.c1c{fill:var(--c1);animation-name:c1a}.c.c1b,.c.c1c{animation-name:c1b}.c.c1c{animation-name:c1c}.c.c1d,.c.c1e,.c.c1f{fill:var(--c1);animation-name:c1d}.c.c1e,.c.c1f{animation-name:c1e}.c.c1f{animation-name:c1f}.c.c1g{fill:var(--c2);animation-name:c1g}.c.c1h,.c.c1i,.c.c1j{fill:var(--c1);animation-name:c1h}.c.c1i,.c.c1j{animation-name:c1i}.c.c1j{animation-name:c1j}.c.c1k,.c.c1l{fill:var(--c2);animation-name:c1k}.c.c1l{animation-name:c1l}.c.c1m{fill:var(--c1);animation-name:c1m}.c.c1n,.c.c1o,.c.c1p{fill:var(--c1);animation-name:c1n}.c.c1o,.c.c1p{animation-name:c1o}.c.c1p{animation-name:c1p}.c.c1q,.c.c1r,.c.c1s{fill:var(--c1);animation-name:c1q}.c.c1r,.c.c1s{animation-name:c1r}.c.c1s{animation-name:c1s}.c.c1t,.c.c1u,.c.c1v{fill:var(--c1);animation-name:c1t}.c.c1u,.c.c1v{animation-name:c1u}.c.c1v{animation-name:c1v}.c.c1w{fill:var(--c2);animation-name:c1w}.c.c1x{fill:var(--c4);animation-name:c1x}.c.c1y,.c.c1z,.c.c20{fill:var(--c1);animation-name:c1y}.c.c1z,.c.c20{animation-name:c1z}.c.c20{animation-name:c20}.c.c21{fill:var(--c2);animation-name:c21}.c.c22,.c.c23,.c.c24{fill:var(--c1);animation-name:c22}.c.c23,.c.c24{animation-name:c23}.c.c24{animation-name:c24}.c.c25{fill:var(--c2);animation-name:c25}.c.c26{fill:var(--c1);animation-name:c26}.s,.u{animation:none linear 38100ms infinite}.u,.u.u0{transform-origin:0 0}.u{transform:scale(0,1)}.u.u0{fill:var(--c1);animation-name:u0}.u.u1{fill:var(--c2);animation-name:u1;transform-origin:708.5px 0}.u.u2{fill:var(--c4);animation-name:u2;transform-origin:826.5px 0}.s{shape-rendering:geometricPrecision;fill:var(--cs)}.s.s0{transform:translate(0,-16px);animation-name:s0}.s.s1{transform:translate(16px,-16px);animation-name:s1}.s.s2{transform:translate(32px,-16px);animation-name:s2}.s.s3{transform:translate(48px,-16px);animation-name:s3}</style><rect class="c" x="2" y="2" width="12" height="12"/><rect class="c" x="2" y="18" width="12" height="12"/><rect class="c" x="2" y="34" width="12" height="12"/><rect class="c" x="2" y="50" width="12" height="12"/><rect class="c" x="2" y="66" width="12" height="12"/><rect class="c" x="2" y="82" width="12" height="12"/><rect class="c" x="2" y="98" width="12" height="12"/><rect class="c" x="18" y="2" width="12" height="12"/><rect class="c" x="18" y="18" width="12" height="12"/><rect class="c" x="18" y="34" width="12" height="12"/><rect class="c" x="18" y="50" width="12" height="12"/><rect class="c" x="18" y="66" width="12" height="12"/><rect class="c" x="18" y="82" width="12" height="12"/><rect class="c" x="18" y="98" width="12" height="12"/><rect class="c" x="34" y="2" width="12" height="12"/><rect class="c" x="34" y="18" width="12" height="12"/><rect class="c" x="34" y="34" width="12" height="12"/><rect class="c" x="34" y="50" width="12" height="12"/><rect class="c" x="34" y="66" width="12" height="12"/><rect class="c" x="34" y="82" width="12" height="12"/><rect class="c" x="34" y="98" width="12" height="12"/><rect class="c" x="50" y="2" width="12" height="12"/><rect class="c" x="50" y="18" width="12" height="12"/><rect class="c" x="50" y="34" width="12" height="12"/><rect class="c" x="50" y="50" width="12" height="12"/><rect class="c" x="50" y="66" width="12" height="12"/><rect class="c" x="50" y="82" width="12" height="12"/><rect class="c" x="50" y="98" width="12" height="12"/><rect class="c" x="66" y="2" width="12" height="12"/><rect class="c" x="66" y="18" width="12" height="12"/><rect class="c" x="66" y="34" width="12" height="12"/><rect class="c" x="66" y="50" width="12" height="12"/><rect class="c" x="66" y="66" width="12" height="12"/><rect class="c" x="66" y="82" width="12" height="12"/><rect class="c" x="66" y="98" width="12" height="12"/><rect class="c" x="82" y="2" width="12" height="12"/><rect class="c" x="82" y="18" width="12" height="12"/><rect class="c" x="82" y="34" width="12" height="12"/><rect class="c" x="82" y="50" width="12" height="12"/><rect class="c" x="82" y="66" width="12" height="12"/><rect class="c" x="82" y="82" width="12" height="12"/><rect class="c" x="82" y="98" width="12" height="12"/><rect class="c" x="98" y="2" width="12" height="12"/><rect class="c" x="98" y="18" width="12" height="12"/><rect class="c" x="98" y="34" width="12" height="12"/><rect class="c" x="98" y="50" width="12" height="12"/><rect class="c" x="98" y="66" width="12" height="12"/><rect class="c" x="98" y="82" width="12" height="12"/><rect class="c" x="98" y="98" width="12" height="12"/><rect class="c" x="114" y="2" width="12" height="12"/><rect class="c" x="114" y="18" width="12" height="12"/><rect class="c" x="114" y="34" width="12" height="12"/><rect class="c" x="114" y="50" width="12" height="12"/><rect class="c" x="114" y="66" width="12" height="12"/><rect class="c c0" x="114" y="82" width="12" height="12"/><rect class="c" x="114" y="98" width="12" height="12"/><rect class="c" x="130" y="2" width="12" height="12"/><rect class="c c1" x="130" y="18" width="12" height="12"/><rect class="c" x="130" y="34" width="12" height="12"/><rect class="c" x="130" y="50" width="12" height="12"/><rect class="c" x="130" y="66" width="12" height="12"/><rect class="c" x="130" y="82" width="12" height="12"/><rect class="c" x="130" y="98" width="12" height="12"/><rect class="c c2" x="146" y="2" width="12" height="12"/><rect class="c c3" x="146" y="18" width="12" height="12"/><rect class="c c4" x="146" y="34" width="12" height="12"/><rect class="c" x="146" y="50" width="12" height="12"/><rect class="c" x="146" y="66" width="12" height="12"/><rect class="c" x="146" y="82" width="12" height="12"/><rect class="c" x="146" y="98" width="12" height="12"/><rect class="c c5" x="162" y="2" width="12" height="12"/><rect class="c c6" x="162" y="18" width="12" height="12"/><rect class="c" x="162" y="34" width="12" height="12"/><rect class="c" x="162" y="50" width="12" height="12"/><rect class="c" x="162" y="66" width="12" height="12"/><rect class="c" x="162" y="82" width="12" height="12"/><rect class="c" x="162" y="98" width="12" height="12"/><rect class="c" x="178" y="2" width="12" height="12"/><rect class="c" x="178" y="18" width="12" height="12"/><rect class="c" x="178" y="34" width="12" height="12"/><rect class="c" x="178" y="50" width="12" height="12"/><rect class="c c7" x="178" y="66" width="12" height="12"/><rect class="c c8" x="178" y="82" width="12" height="12"/><rect class="c" x="178" y="98" width="12" height="12"/><rect class="c" x="194" y="2" width="12" height="12"/><rect class="c" x="194" y="18" width="12" height="12"/><rect class="c" x="194" y="34" width="12" height="12"/><rect class="c" x="194" y="50" width="12" height="12"/><rect class="c" x="194" y="66" width="12" height="12"/><rect class="c" x="194" y="82" width="12" height="12"/><rect class="c" x="194" y="98" width="12" height="12"/><rect class="c c9" x="210" y="2" width="12" height="12"/><rect class="c" x="210" y="18" width="12" height="12"/><rect class="c" x="210" y="34" width="12" height="12"/><rect class="c ca" x="210" y="50" width="12" height="12"/><rect class="c" x="210" y="66" width="12" height="12"/><rect class="c" x="210" y="82" width="12" height="12"/><rect class="c" x="210" y="98" width="12" height="12"/><rect class="c" x="226" y="2" width="12" height="12"/><rect class="c" x="226" y="18" width="12" height="12"/><rect class="c" x="226" y="34" width="12" height="12"/><rect class="c" x="226" y="50" width="12" height="12"/><rect class="c" x="226" y="66" width="12" height="12"/><rect class="c" x="226" y="82" width="12" height="12"/><rect class="c cb" x="226" y="98" width="12" height="12"/><rect class="c" x="242" y="2" width="12" height="12"/><rect class="c" x="242" y="18" width="12" height="12"/><rect class="c" x="242" y="34" width="12" height="12"/><rect class="c" x="242" y="50" width="12" height="12"/><rect class="c" x="242" y="66" width="12" height="12"/><rect class="c" x="242" y="82" width="12" height="12"/><rect class="c" x="242" y="98" width="12" height="12"/><rect class="c" x="258" y="2" width="12" height="12"/><rect class="c" x="258" y="18" width="12" height="12"/><rect class="c" x="258" y="34" width="12" height="12"/><rect class="c" x="258" y="50" width="12" height="12"/><rect class="c" x="258" y="66" width="12" height="12"/><rect class="c" x="258" y="82" width="12" height="12"/><rect class="c" x="258" y="98" width="12" height="12"/><rect class="c" x="274" y="2" width="12" height="12"/><rect class="c" x="274" y="18" width="12" height="12"/><rect class="c" x="274" y="34" width="12" height="12"/><rect class="c" x="274" y="50" width="12" height="12"/><rect class="c" x="274" y="66" width="12" height="12"/><rect class="c" x="274" y="82" width="12" height="12"/><rect class="c" x="274" y="98" width="12" height="12"/><rect class="c" x="290" y="2" width="12" height="12"/><rect class="c" x="290" y="18" width="12" height="12"/><rect class="c" x="290" y="34" width="12" height="12"/><rect class="c" x="290" y="50" width="12" height="12"/><rect class="c" x="290" y="66" width="12" height="12"/><rect class="c" x="290" y="82" width="12" height="12"/><rect class="c" x="290" y="98" width="12" height="12"/><rect class="c" x="306" y="2" width="12" height="12"/><rect class="c" x="306" y="18" width="12" height="12"/><rect class="c" x="306" y="34" width="12" height="12"/><rect class="c cc" x="306" y="50" width="12" height="12"/><rect class="c cd" x="306" y="66" width="12" height="12"/><rect class="c ce" x="306" y="82" width="12" height="12"/><rect class="c cf" x="306" y="98" width="12" height="12"/><rect class="c cg" x="322" y="2" width="12" height="12"/><rect class="c" x="322" y="18" width="12" height="12"/><rect class="c" x="322" y="34" width="12" height="12"/><rect class="c ch" x="322" y="50" width="12" height="12"/><rect class="c" x="322" y="66" width="12" height="12"/><rect class="c" x="322" y="82" width="12" height="12"/><rect class="c" x="322" y="98" width="12" height="12"/><rect class="c" x="338" y="2" width="12" height="12"/><rect class="c" x="338" y="18" width="12" height="12"/><rect class="c" x="338" y="34" width="12" height="12"/><rect class="c ci" x="338" y="50" width="12" height="12"/><rect class="c" x="338" y="66" width="12" height="12"/><rect class="c" x="338" y="82" width="12" height="12"/><rect class="c cj" x="338" y="98" width="12" height="12"/><rect class="c ck" x="354" y="2" width="12" height="12"/><rect class="c cl" x="354" y="18" width="12" height="12"/><rect class="c cm" x="354" y="34" width="12" height="12"/><rect class="c" x="354" y="50" width="12" height="12"/><rect class="c cn" x="354" y="66" width="12" height="12"/><rect class="c co" x="354" y="82" width="12" height="12"/><rect class="c" x="354" y="98" width="12" height="12"/><rect class="c" x="370" y="2" width="12" height="12"/><rect class="c" x="370" y="18" width="12" height="12"/><rect class="c" x="370" y="34" width="12" height="12"/><rect class="c" x="370" y="50" width="12" height="12"/><rect class="c" x="370" y="66" width="12" height="12"/><rect class="c" x="370" y="82" width="12" height="12"/><rect class="c" x="370" y="98" width="12" height="12"/><rect class="c cp" x="386" y="2" width="12" height="12"/><rect class="c cq" x="386" y="18" width="12" height="12"/><rect class="c" x="386" y="34" width="12" height="12"/><rect class="c" x="386" y="50" width="12" height="12"/><rect class="c" x="386" y="66" width="12" height="12"/><rect class="c" x="386" y="82" width="12" height="12"/><rect class="c" x="386" y="98" width="12" height="12"/><rect class="c" x="402" y="2" width="12" height="12"/><rect class="c" x="402" y="18" width="12" height="12"/><rect class="c" x="402" y="34" width="12" height="12"/><rect class="c" x="402" y="50" width="12" height="12"/><rect class="c" x="402" y="66" width="12" height="12"/><rect class="c" x="402" y="82" width="12" height="12"/><rect class="c" x="402" y="98" width="12" height="12"/><rect class="c" x="418" y="2" width="12" height="12"/><rect class="c" x="418" y="18" width="12" height="12"/><rect class="c" x="418" y="34" width="12" height="12"/><rect class="c" x="418" y="50" width="12" height="12"/><rect class="c" x="418" y="66" width="12" height="12"/><rect class="c" x="418" y="82" width="12" height="12"/><rect class="c" x="418" y="98" width="12" height="12"/><rect class="c" x="434" y="2" width="12" height="12"/><rect class="c" x="434" y="18" width="12" height="12"/><rect class="c" x="434" y="34" width="12" height="12"/><rect class="c" x="434" y="50" width="12" height="12"/><rect class="c" x="434" y="66" width="12" height="12"/><rect class="c cr" x="434" y="82" width="12" height="12"/><rect class="c" x="434" y="98" width="12" height="12"/><rect class="c" x="450" y="2" width="12" height="12"/><rect class="c" x="450" y="18" width="12" height="12"/><rect class="c" x="450" y="34" width="12" height="12"/><rect class="c cs" x="450" y="50" width="12" height="12"/><rect class="c ct" x="450" y="66" width="12" height="12"/><rect class="c" x="450" y="82" width="12" height="12"/><rect class="c" x="450" y="98" width="12" height="12"/><rect class="c cu" x="466" y="2" width="12" height="12"/><rect class="c" x="466" y="18" width="12" height="12"/><rect class="c" x="466" y="34" width="12" height="12"/><rect class="c" x="466" y="50" width="12" height="12"/><rect class="c" x="466" y="66" width="12" height="12"/><rect class="c" x="466" y="82" width="12" height="12"/><rect class="c" x="466" y="98" width="12" height="12"/><rect class="c" x="482" y="2" width="12" height="12"/><rect class="c" x="482" y="18" width="12" height="12"/><rect class="c" x="482" y="34" width="12" height="12"/><rect class="c" x="482" y="50" width="12" height="12"/><rect class="c" x="482" y="66" width="12" height="12"/><rect class="c" x="482" y="82" width="12" height="12"/><rect class="c" x="482" y="98" width="12" height="12"/><rect class="c" x="498" y="2" width="12" height="12"/><rect class="c" x="498" y="18" width="12" height="12"/><rect class="c" x="498" y="34" width="12" height="12"/><rect class="c" x="498" y="50" width="12" height="12"/><rect class="c" x="498" y="66" width="12" height="12"/><rect class="c" x="498" y="82" width="12" height="12"/><rect class="c" x="498" y="98" width="12" height="12"/><rect class="c" x="514" y="2" width="12" height="12"/><rect class="c" x="514" y="18" width="12" height="12"/><rect class="c" x="514" y="34" width="12" height="12"/><rect class="c" x="514" y="50" width="12" height="12"/><rect class="c" x="514" y="66" width="12" height="12"/><rect class="c" x="514" y="82" width="12" height="12"/><rect class="c" x="514" y="98" width="12" height="12"/><rect class="c" x="530" y="2" width="12" height="12"/><rect class="c" x="530" y="18" width="12" height="12"/><rect class="c" x="530" y="34" width="12" height="12"/><rect class="c" x="530" y="50" width="12" height="12"/><rect class="c" x="530" y="66" width="12" height="12"/><rect class="c" x="530" y="82" width="12" height="12"/><rect class="c" x="530" y="98" width="12" height="12"/><rect class="c" x="546" y="2" width="12" height="12"/><rect class="c" x="546" y="18" width="12" height="12"/><rect class="c" x="546" y="34" width="12" height="12"/><rect class="c" x="546" y="50" width="12" height="12"/><rect class="c" x="546" y="66" width="12" height="12"/><rect class="c" x="546" y="82" width="12" height="12"/><rect class="c" x="546" y="98" width="12" height="12"/><rect class="c" x="562" y="2" width="12" height="12"/><rect class="c" x="562" y="18" width="12" height="12"/><rect class="c" x="562" y="34" width="12" height="12"/><rect class="c" x="562" y="50" width="12" height="12"/><rect class="c cv" x="562" y="66" width="12" height="12"/><rect class="c" x="562" y="82" width="12" height="12"/><rect class="c" x="562" y="98" width="12" height="12"/><rect class="c" x="578" y="2" width="12" height="12"/><rect class="c cw" x="578" y="18" width="12" height="12"/><rect class="c" x="578" y="34" width="12" height="12"/><rect class="c" x="578" y="50" width="12" height="12"/><rect class="c cx" x="578" y="66" width="12" height="12"/><rect class="c cy" x="578" y="82" width="12" height="12"/><rect class="c cz" x="578" y="98" width="12" height="12"/><rect class="c c10" x="594" y="2" width="12" height="12"/><rect class="c c11" x="594" y="18" width="12" height="12"/><rect class="c c12" x="594" y="34" width="12" height="12"/><rect class="c" x="594" y="50" width="12" height="12"/><rect class="c" x="594" y="66" width="12" height="12"/><rect class="c" x="594" y="82" width="12" height="12"/><rect class="c" x="594" y="98" width="12" height="12"/><rect class="c" x="610" y="2" width="12" height="12"/><rect class="c" x="610" y="18" width="12" height="12"/><rect class="c" x="610" y="34" width="12" height="12"/><rect class="c" x="610" y="50" width="12" height="12"/><rect class="c" x="610" y="66" width="12" height="12"/><rect class="c" x="610" y="82" width="12" height="12"/><rect class="c" x="610" y="98" width="12" height="12"/><rect class="c" x="626" y="2" width="12" height="12"/><rect class="c" x="626" y="18" width="12" height="12"/><rect class="c" x="626" y="34" width="12" height="12"/><rect class="c" x="626" y="50" width="12" height="12"/><rect class="c" x="626" y="66" width="12" height="12"/><rect class="c" x="626" y="82" width="12" height="12"/><rect class="c" x="626" y="98" width="12" height="12"/><rect class="c c13" x="642" y="2" width="12" height="12"/><rect class="c" x="642" y="18" width="12" height="12"/><rect class="c c14" x="642" y="34" width="12" height="12"/><rect class="c" x="642" y="50" width="12" height="12"/><rect class="c" x="642" y="66" width="12" height="12"/><rect class="c c15" x="642" y="82" width="12" height="12"/><rect class="c c16" x="642" y="98" width="12" height="12"/><rect class="c c17" x="658" y="2" width="12" height="12"/><rect class="c c18" x="658" y="18" width="12" height="12"/><rect class="c" x="658" y="34" width="12" height="12"/><rect class="c c19" x="658" y="50" width="12" height="12"/><rect class="c" x="658" y="66" width="12" height="12"/><rect class="c c1a" x="658" y="82" width="12" height="12"/><rect class="c c1b" x="658" y="98" width="12" height="12"/><rect class="c" x="674" y="2" width="12" height="12"/><rect class="c c1c" x="674" y="18" width="12" height="12"/><rect class="c c1d" x="674" y="34" width="12" height="12"/><rect class="c c1e" x="674" y="50" width="12" height="12"/><rect class="c" x="674" y="66" width="12" height="12"/><rect class="c c1f" x="674" y="82" width="12" height="12"/><rect class="c" x="674" y="98" width="12" height="12"/><rect class="c c1g" x="690" y="2" width="12" height="12"/><rect class="c c1h" x="690" y="18" width="12" height="12"/><rect class="c c1i" x="690" y="34" width="12" height="12"/><rect class="c c1j" x="690" y="50" width="12" height="12"/><rect class="c" x="690" y="66" width="12" height="12"/><rect class="c" x="690" y="82" width="12" height="12"/><rect class="c" x="690" y="98" width="12" height="12"/><rect class="c c1k" x="706" y="2" width="12" height="12"/><rect class="c" x="706" y="18" width="12" height="12"/><rect class="c c1l" x="706" y="34" width="12" height="12"/><rect class="c c1m" x="706" y="50" width="12" height="12"/><rect class="c" x="706" y="66" width="12" height="12"/><rect class="c c1n" x="706" y="82" width="12" height="12"/><rect class="c" x="706" y="98" width="12" height="12"/><rect class="c c1o" x="722" y="2" width="12" height="12"/><rect class="c c1p" x="722" y="18" width="12" height="12"/><rect class="c" x="722" y="34" width="12" height="12"/><rect class="c" x="722" y="50" width="12" height="12"/><rect class="c" x="722" y="66" width="12" height="12"/><rect class="c" x="722" y="82" width="12" height="12"/><rect class="c" x="722" y="98" width="12" height="12"/><rect class="c" x="738" y="2" width="12" height="12"/><rect class="c" x="738" y="18" width="12" height="12"/><rect class="c" x="738" y="34" width="12" height="12"/><rect class="c c1q" x="738" y="50" width="12" height="12"/><rect class="c" x="738" y="66" width="12" height="12"/><rect class="c" x="738" y="82" width="12" height="12"/><rect class="c" x="738" y="98" width="12" height="12"/><rect class="c" x="754" y="2" width="12" height="12"/><rect class="c" x="754" y="18" width="12" height="12"/><rect class="c" x="754" y="34" width="12" height="12"/><rect class="c" x="754" y="50" width="12" height="12"/><rect class="c" x="754" y="66" width="12" height="12"/><rect class="c c1r" x="754" y="82" width="12" height="12"/><rect class="c" x="754" y="98" width="12" height="12"/><rect class="c" x="770" y="2" width="12" height="12"/><rect class="c c1s" x="770" y="18" width="12" height="12"/><rect class="c" x="770" y="34" width="12" height="12"/><rect class="c" x="770" y="50" width="12" height="12"/><rect class="c" x="770" y="66" width="12" height="12"/><rect class="c" x="770" y="82" width="12" height="12"/><rect class="c" x="770" y="98" width="12" height="12"/><rect class="c" x="786" y="2" width="12" height="12"/><rect class="c c1t" x="786" y="18" width="12" height="12"/><rect class="c" x="786" y="34" width="12" height="12"/><rect class="c c1u" x="786" y="50" width="12" height="12"/><rect class="c" x="786" y="66" width="12" height="12"/><rect class="c c1v" x="786" y="82" width="12" height="12"/><rect class="c" x="786" y="98" width="12" height="12"/><rect class="c" x="802" y="2" width="12" height="12"/><rect class="c" x="802" y="18" width="12" height="12"/><rect class="c" x="802" y="34" width="12" height="12"/><rect class="c c1w" x="802" y="50" width="12" height="12"/><rect class="c c1x" x="802" y="66" width="12" height="12"/><rect class="c" x="802" y="82" width="12" height="12"/><rect class="c" x="802" y="98" width="12" height="12"/><rect class="c c1y" x="818" y="2" width="12" height="12"/><rect class="c c1z" x="818" y="18" width="12" height="12"/><rect class="c c20" x="818" y="34" width="12" height="12"/><rect class="c c21" x="818" y="50" width="12" height="12"/><rect class="c c22" x="818" y="66" width="12" height="12"/><rect class="c c23" x="818" y="82" width="12" height="12"/><rect class="c c24" x="818" y="98" width="12" height="12"/><rect class="c c25" x="834" y="2" width="12" height="12"/><rect class="c c26" x="834" y="18" width="12" height="12"/><rect class="c" x="834" y="34" width="12" height="12"/><rect class="c" x="834" y="50" width="12" height="12"/><rect class="u u0" height="12" width="709.1" x="0.0" y="144"/><rect class="u u1" height="12" width="118.7" x="708.5" y="144"/><rect class="u u2" height="12" width="22.1" x="826.5" y="144"/><rect class="s s0" x="0.8" y="0.8" width="14.4" height="14.4" rx="4.5" ry="4.5"/><rect class="s s1" x="1.8" y="1.8" width="12.3" height="12.3" rx="4.1" ry="4.1"/><rect class="s s2" x="2.6" y="2.6" width="10.8" height="10.8" rx="3.6" ry="3.6"/><rect class="s s3" x="3.0" y="3.0" width="9.9" height="9.9" rx="3.3" ry="3.3"/></svg>